<svg height='300px' width='300px'  fill="#000000" xmlns="http://www.w3.org/2000/svg" xmlns:xlink="http://www.w3.org/1999/xlink" version="1.0" x="0px" y="0px" viewBox="0 0 100 100" enable-background="new 0 0 100 100" xml:space="preserve"><path d="M88.6184158,4.5H11.9570904c-0.8192854,0-1.4835501,0.6642027-1.4835501,1.4834881v87.1945801  c0,0.8192902,0.6642647,1.48349,1.4835501,1.48349h76.6615753c0.8190384,0,1.4832993-0.6640778,1.4832993-1.483429V5.9834881  C90.1019669,5.1642027,89.437706,4.5,88.6184158,4.5z M59.0133171,15.5209084c3.7591743,0,6.8066597,3.0475445,6.8066597,6.8067818  c0,3.7593021-3.0474854,6.8066578-6.8066597,6.8066578c-3.7594261,0-6.8069077-3.0473557-6.8069077-6.8066578  C52.2064095,18.5684528,55.253891,15.5209084,59.0133171,15.5209084z M41.9194145,15.5209084  c3.7591743,0,6.8066559,3.0475445,6.8066559,6.8067818c0,3.7593021-3.0474815,6.8066578-6.8066559,6.8066578  c-3.7594261,0-6.8066597-3.0473557-6.8066597-6.8066578C35.1127548,18.5684528,38.1599884,15.5209084,41.9194145,15.5209084z   M18.3793182,22.3276901c0-3.7592373,3.0474815-6.8067818,6.8066559-6.8067818s6.8069077,3.0475445,6.8069077,6.8067818  c0,3.7593021-3.0477314,6.8066578-6.8069077,6.8066578S18.3793182,26.0869923,18.3793182,22.3276901z M28.5370064,77.9260635  c0,0.491394-0.4021549,0.8935471-0.8936749,0.8935471h-0.897419v5.1766357c0,0.8083649-0.6612701,1.4698257-1.4698219,1.4698257  c-0.8085499,0-1.46982-0.6614609-1.46982-1.4698257v-5.1766357h-0.897419c-0.4915218,0-0.8936749-0.402153-0.8936749-0.8935471  v-9.5060959c0-0.4915161,0.402153-0.8936691,0.8936749-0.8936691h0.897419V48.4639969  c0-0.8084259,0.6612701-1.4698181,1.46982-1.4698181c0.8085518,0,1.4698219,0.6613922,1.4698219,1.4698181v19.0623016h0.897419  c0.4915199,0,0.8936749,0.402153,0.8936749,0.8936691V77.9260635z M33.5525703,44.4716072  c-3.7591782,0-6.8066578-3.0473595-6.8066578-6.8066597c0-3.7592354,3.0474796-6.8067799,6.8066578-6.8067799  c3.7594261,0,6.8069038,3.0475445,6.8069038,6.8067799C40.3594742,41.4242477,37.3119965,44.4716072,33.5525703,44.4716072z   M45.450428,69.5137863c0,0.4915237-0.4019051,0.8936768-0.893425,0.8936768h-0.897419v13.5887833  c0,0.8083649-0.6615219,1.4698257-1.4698219,1.4698257c-0.8085518,0-1.4698219-0.6614609-1.4698219-1.4698257V70.4074631h-0.897419  c-0.4915199,0-0.8936729-0.402153-0.8936729-0.8936768v-9.5060921c0-0.4915199,0.402153-0.8935509,0.8936729-0.8935509h0.897419  V48.4639969c0-0.8084259,0.6612701-1.4698181,1.4698219-1.4698181c0.8083,0,1.4698219,0.6613922,1.4698219,1.4698181v10.6501465  h0.897419c0.4915199,0,0.893425,0.4020309,0.893425,0.8935509V69.5137863z M50.6464729,44.4716072  c-3.7591782,0-6.8066559-3.0473595-6.8066559-6.8066597c0-3.7592354,3.0474777-6.8067799,6.8066559-6.8067799  c3.7591743,0,6.8066559,3.0475445,6.8066559,6.8067799C57.4531288,41.4242477,54.4056473,44.4716072,50.6464729,44.4716072z   M62.3640976,77.9260635c0,0.491394-0.402153,0.8935471-0.893425,0.8935471h-0.8976707v5.1766357  c0,0.8083649-0.6612663,1.4698257-1.4698181,1.4698257c-0.8083038,0-1.4698219-0.6614609-1.4698219-1.4698257v-5.1766357h-0.897171  c-0.4917679,0-0.8936729-0.402153-0.8936729-0.8935471v-9.5060959c0-0.4915161,0.4019051-0.8936691,0.8936729-0.8936691h0.897171  V48.4639969c0-0.8084259,0.6615181-1.4698181,1.4698219-1.4698181c0.8085518,0,1.4698181,0.6613922,1.4698181,1.4698181v19.0623016  h0.8976707c0.491272,0,0.893425,0.402153,0.893425,0.8936691V77.9260635z M67.3799133,44.4716072  c-3.7594299,0-6.8069115-3.0473595-6.8069115-6.8066597c0-3.7592354,3.0474815-6.8067799,6.8069115-6.8067799  c3.7591705,0,6.8066559,3.0475445,6.8066559,6.8067799C74.1865692,41.4242477,71.1390839,44.4716072,67.3799133,44.4716072z   M79.277771,72.2794342c0,0.491394-0.402153,0.8935547-0.8936768,0.8935547h-0.8974228v10.8232574  c0,0.8083649-0.6612701,1.4698257-1.4698181,1.4698257s-1.4698181-0.6614609-1.4698181-1.4698257V73.1729889h-0.8974228  c-0.4915161,0-0.8936768-0.4021606-0.8936768-0.8935547v-9.5061531c0-0.4915199,0.4021606-0.8936729,0.8936768-0.8936729h0.8974228  V48.4639969c0-0.8084259,0.6612701-1.4698181,1.4698181-1.4698181s1.4698181,0.6613922,1.4698181,1.4698181v13.4156113h0.8974228  c0.4915237,0,0.8936768,0.402153,0.8936768,0.8936729V72.2794342z M75.7465057,29.1343479  c-3.7591782,0-6.8066559-3.0473557-6.8066559-6.8066578c0-3.7592373,3.0474777-6.8067818,6.8066559-6.8067818  c3.7594223,0,6.8066559,3.0475445,6.8066559,6.8067818C82.5531616,26.0869923,79.505928,29.1343479,75.7465057,29.1343479z"></path><path d="M67.3799133,32.5213242c-2.8407898,0-5.1436272,2.3028984-5.1436272,5.1436234  c0,2.8406639,2.3028374,5.1435013,5.1436272,5.1435013c2.8407822,0,5.1433716-2.3028374,5.1433716-5.1435013  C72.5232849,34.8242226,70.2206955,32.5213242,67.3799133,32.5213242z M68.1467743,36.8980865  c0,0.4218102-0.344986,0.766861-0.766861,0.766861s-0.7668686-0.3450508-0.7668686-0.766861v-2.3102608  c0-0.421814,0.3449936-0.7668648,0.7668686-0.7668648s0.766861,0.3450508,0.766861,0.7668648V36.8980865z"></path><path d="M50.6464729,32.5213242c-2.8407898,0-5.1436234,2.3028984-5.1436234,5.1436234  c0,2.8406639,2.3028336,5.1435013,5.1436234,5.1435013c2.840786,0,5.1436234-2.3028374,5.1436234-5.1435013  C55.7900963,34.8242226,53.4872589,32.5213242,50.6464729,32.5213242z M51.4133339,36.8980865  c0,0.4218102-0.344986,0.766861-0.766861,0.766861c-0.421627,0-0.7668648-0.3450508-0.7668648-0.766861v-2.3102608  c0-0.421814,0.3452377-0.7668648,0.7668648-0.7668648c0.421875,0,0.766861,0.3450508,0.766861,0.7668648V36.8980865z"></path><path d="M75.7465057,17.1840668c-2.8407898,0-5.1436234,2.3028984-5.1436234,5.1436234  c0,2.8406639,2.3028336,5.1434994,5.1436234,5.1434994s5.1436234-2.3028355,5.1436234-5.1434994  C80.8901291,19.4869652,78.5872955,17.1840668,75.7465057,17.1840668z M76.5133667,21.5608273  c0,0.4218121-0.344986,0.7668629-0.766861,0.7668629c-0.4216232,0-0.766861-0.3450508-0.766861-0.7668629v-2.3102608  c0-0.4218121,0.3452377-0.7668629,0.766861-0.7668629c0.421875,0,0.766861,0.3450508,0.766861,0.7668629V21.5608273z"></path><path d="M59.0133171,27.4711895c2.840538,0,5.1433754-2.3028355,5.1433754-5.1434994  c0-2.8407249-2.3028374-5.1436234-5.1433754-5.1436234c-2.8407898,0-5.1436234,2.3028984-5.1436234,5.1436234  C53.8696938,25.168354,56.1725273,27.4711895,59.0133171,27.4711895z M58.2464523,19.2505665  c0-0.4218121,0.3449898-0.7668629,0.7668648-0.7668629c0.4216232,0,0.766861,0.3450508,0.766861,0.7668629v2.3102608  c0,0.4218121-0.3452377,0.7668629-0.766861,0.7668629c-0.421875,0-0.7668648-0.3450508-0.7668648-0.7668629V19.2505665z"></path><path d="M41.9194145,27.4711895c2.840538,0,5.1436195-2.3028355,5.1436195-5.1434994  c0-2.8407249-2.3030815-5.1436234-5.1436195-5.1436234c-2.8407898,0-5.1436234,2.3028984-5.1436234,5.1436234  C36.7757912,25.168354,39.0786247,27.4711895,41.9194145,27.4711895z M41.1525497,19.2505665  c0-0.4218121,0.3449898-0.7668629,0.7668648-0.7668629c0.4216232,0,0.766861,0.3450508,0.766861,0.7668629v2.3102608  c0,0.4218121-0.3452377,0.7668629-0.766861,0.7668629c-0.421875,0-0.7668648-0.3450508-0.7668648-0.7668629V19.2505665z"></path><path d="M30.3295975,22.3276901c0-2.8407249-2.3028355-5.1436234-5.1436234-5.1436234s-5.1433735,2.3028984-5.1433735,5.1436234  c0,2.8406639,2.3025856,5.1434994,5.1433735,5.1434994S30.3295975,25.168354,30.3295975,22.3276901z M24.4191113,21.5608273  v-2.3102608c0-0.4218121,0.3449898-0.7668629,0.7668629-0.7668629c0.421875,0,0.7668629,0.3450508,0.7668629,0.7668629v2.3102608  c0,0.4218121-0.3449879,0.7668629-0.7668629,0.7668629C24.764101,22.3276901,24.4191113,21.9826393,24.4191113,21.5608273z"></path><path d="M33.5525703,32.5213242c-2.8405399,0-5.1433754,2.3028984-5.1433754,5.1436234  c0,2.8406639,2.3028355,5.1435013,5.1433754,5.1435013c2.840786,0,5.1436234-2.3028374,5.1436234-5.1435013  C38.6961937,34.8242226,36.3933563,32.5213242,33.5525703,32.5213242z M34.3194313,36.8980865  c0,0.4218102-0.3449898,0.766861-0.766861,0.766861c-0.421627,0-0.7668648-0.3450508-0.7668648-0.766861v-2.3102608  c0-0.421814,0.3452377-0.7668648,0.7668648-0.7668648c0.4218712,0,0.766861,0.3450508,0.766861,0.7668648V36.8980865z"></path></svg>