<svg height='300px' width='300px'  fill="#000000" xmlns="http://www.w3.org/2000/svg" xmlns:xlink="http://www.w3.org/1999/xlink" version="1.1" x="0px" y="0px" viewBox="0 0 200 200" enable-background="new 0 0 200 200" xml:space="preserve"><g><path fill="#000000" d="M190.706,185.13H9.293c-5.125,0-9.293-4.169-9.293-9.293V24.164c0-5.125,4.169-9.293,9.293-9.293h181.413   c5.125,0,9.294,4.169,9.294,9.293v151.673C200,180.961,195.831,185.13,190.706,185.13z M9.293,21.562   c-1.435,0-2.602,1.167-2.602,2.602v151.673c0,1.435,1.167,2.602,2.602,2.602h181.413c1.435,0,2.603-1.167,2.603-2.602V24.164   c0-1.435-1.168-2.602-2.603-2.602H9.293z"></path><rect x="3.346" y="59.479" fill="#000000" width="193.309" height="6.691"></rect><g><path fill="#000000" d="M25.65,51.301c-5.945,0-10.78-4.836-10.78-10.781c0-5.945,4.835-10.781,10.78-10.781    c5.945,0,10.781,4.835,10.781,10.781C36.431,46.465,31.596,51.301,25.65,51.301z M25.65,36.431c-2.255,0-4.089,1.834-4.089,4.089    c0,2.255,1.834,4.089,4.089,4.089c2.255,0,4.089-1.834,4.089-4.089C29.74,38.265,27.906,36.431,25.65,36.431z"></path><path fill="#000000" d="M55.39,51.301c-5.945,0-10.78-4.836-10.78-10.781c0-5.945,4.835-10.781,10.78-10.781    c5.945,0,10.781,4.835,10.781,10.781C66.171,46.465,61.335,51.301,55.39,51.301z M55.39,36.431c-2.255,0-4.089,1.834-4.089,4.089    c0,2.255,1.834,4.089,4.089,4.089c2.255,0,4.089-1.834,4.089-4.089C59.479,38.265,57.646,36.431,55.39,36.431z"></path><path fill="#000000" d="M144.609,51.301c-5.944,0-10.78-4.836-10.78-10.781c0-5.945,4.836-10.781,10.78-10.781    c5.945,0,10.781,4.835,10.781,10.781C155.391,46.465,150.555,51.301,144.609,51.301z M144.609,36.431    c-2.255,0-4.089,1.834-4.089,4.089c0,2.255,1.834,4.089,4.089,4.089c2.256,0,4.09-1.834,4.09-4.089    C148.699,38.265,146.865,36.431,144.609,36.431z"></path><path fill="#000000" d="M174.35,51.301c-5.945,0-10.781-4.836-10.781-10.781c0-5.945,4.836-10.781,10.781-10.781    s10.78,4.835,10.78,10.781C185.13,46.465,180.295,51.301,174.35,51.301z M174.35,36.431c-2.255,0-4.09,1.834-4.09,4.089    c0,2.255,1.835,4.089,4.09,4.089s4.089-1.834,4.089-4.089C178.438,38.265,176.604,36.431,174.35,36.431z"></path></g><g><rect x="163.197" y="89.219" fill="#000000" width="7.435" height="6.691"></rect><rect x="178.067" y="89.219" fill="#000000" width="7.435" height="6.691"></rect><rect x="148.327" y="89.219" fill="#000000" width="7.435" height="6.691"></rect><rect x="133.457" y="89.219" fill="#000000" width="7.436" height="6.691"></rect><rect x="118.587" y="89.219" fill="#000000" width="7.436" height="6.691"></rect><rect x="103.718" y="89.219" fill="#000000" width="7.435" height="6.691"></rect><rect x="88.848" y="89.219" fill="#000000" width="7.435" height="6.691"></rect><rect x="73.978" y="89.219" fill="#000000" width="7.435" height="6.691"></rect><rect x="59.108" y="89.219" fill="#000000" width="7.435" height="6.691"></rect><rect x="44.238" y="89.219" fill="#000000" width="7.435" height="6.691"></rect><rect x="29.368" y="89.219" fill="#000000" width="7.435" height="6.691"></rect><rect x="14.498" y="89.219" fill="#000000" width="7.435" height="6.691"></rect></g><g><rect x="163.197" y="74.35" fill="#000000" width="7.435" height="6.691"></rect><rect x="178.067" y="74.35" fill="#000000" width="7.435" height="6.691"></rect><rect x="148.327" y="74.35" fill="#000000" width="7.435" height="6.691"></rect><rect x="133.457" y="74.35" fill="#000000" width="7.436" height="6.691"></rect><rect x="118.587" y="74.35" fill="#000000" width="7.436" height="6.691"></rect><rect x="103.718" y="74.35" fill="#000000" width="7.435" height="6.691"></rect><rect x="88.848" y="74.35" fill="#000000" width="7.435" height="6.691"></rect><rect x="73.978" y="74.35" fill="#000000" width="7.435" height="6.691"></rect><rect x="59.108" y="74.35" fill="#000000" width="7.435" height="6.691"></rect><rect x="44.238" y="74.35" fill="#000000" width="7.435" height="6.691"></rect><rect x="29.368" y="74.35" fill="#000000" width="7.435" height="6.691"></rect><rect x="14.498" y="74.35" fill="#000000" width="7.435" height="6.691"></rect></g><g><rect x="171.004" y="103.718" fill="#000000" width="6.691" height="26.394"></rect><rect x="141.264" y="103.718" fill="#000000" width="6.691" height="8.922"></rect><rect x="111.524" y="103.718" fill="#000000" width="6.691" height="17.722"></rect><rect x="81.784" y="103.718" fill="#000000" width="6.692" height="38.848"></rect><rect x="52.044" y="103.718" fill="#000000" width="6.691" height="15.984"></rect><rect x="22.305" y="103.718" fill="#000000" width="6.691" height="29.554"></rect></g><g><rect x="171.004" y="141.264" fill="#000000" width="6.691" height="29.368"></rect><rect x="141.264" y="123.792" fill="#000000" width="6.691" height="46.84"></rect><rect x="111.524" y="132.592" fill="#000000" width="6.691" height="38.04"></rect><rect x="81.784" y="153.718" fill="#000000" width="6.692" height="16.914"></rect><rect x="52.044" y="130.855" fill="#000000" width="6.691" height="39.776"></rect><rect x="22.305" y="144.424" fill="#000000" width="6.691" height="26.208"></rect></g><g><rect x="14.498" y="141.078" fill="#000000" width="22.305" height="6.691"></rect><rect x="44.238" y="127.51" fill="#000000" width="22.305" height="6.691"></rect><rect x="73.978" y="150.372" fill="#000000" width="22.305" height="6.691"></rect><rect x="103.718" y="129.246" fill="#000000" width="22.305" height="6.691"></rect><rect x="133.457" y="120.446" fill="#000000" width="22.305" height="6.691"></rect><rect x="163.197" y="137.918" fill="#000000" width="22.305" height="6.691"></rect></g><g><rect x="74.35" y="33.085" fill="#000000" width="6.691" height="14.87"></rect><rect x="89.219" y="33.085" fill="#000000" width="6.691" height="14.87"></rect><rect x="104.089" y="33.085" fill="#000000" width="6.691" height="14.87"></rect><rect x="118.959" y="33.085" fill="#000000" width="6.691" height="14.87"></rect></g></g></svg>