<svg height='300px' width='300px'  fill="#000000" xmlns:x="http://ns.adobe.com/Extensibility/1.0/" xmlns:i="http://ns.adobe.com/AdobeIllustrator/10.0/" xmlns:graph="http://ns.adobe.com/Graphs/1.0/" xmlns="http://www.w3.org/2000/svg" xmlns:xlink="http://www.w3.org/1999/xlink" version="1.1" x="0px" y="0px" viewBox="0 0 64 64" enable-background="new 0 0 64 64" xml:space="preserve"><metadata><sfw xmlns="http://ns.adobe.com/SaveForWeb/1.0/"><slices></slices><sliceSourceBounds y="-8160" x="-8165" width="16389" height="16384" bottomLeftOrigin="true"></sliceSourceBounds></sfw></metadata><g><g><circle cx="16" cy="28" r="1"></circle><circle cx="32" cy="28" r="1"></circle><circle cx="24" cy="28" r="1"></circle><circle cx="40" cy="28" r="1"></circle><circle cx="48" cy="28" r="1"></circle><path d="M58,9H6c-0.552,0-1,0.448-1,1v44c0,0.553,0.448,1,1,1h52c0.553,0,1-0.447,1-1V10C59,9.448,58.553,9,58,9z M18,39h-1v9    c0,0.553-0.448,1-1,1s-1-0.447-1-1v-9h-1c-0.552,0-1-0.447-1-1s0.448-1,1-1h1v-3c0-0.553,0.448-1,1-1s1,0.447,1,1v3h1    c0.552,0,1,0.447,1,1S18.552,39,18,39z M16,31c-1.654,0-3-1.346-3-3s1.346-3,3-3s3,1.346,3,3S17.654,31,16,31z M26,45h-1v3    c0,0.553-0.448,1-1,1s-1-0.447-1-1v-3h-1c-0.552,0-1-0.447-1-1s0.448-1,1-1h1v-9c0-0.553,0.448-1,1-1s1,0.447,1,1v9h1    c0.552,0,1,0.447,1,1S26.552,45,26,45z M24,31c-1.654,0-3-1.346-3-3s1.346-3,3-3s3,1.346,3,3S25.654,31,24,31z M34,41h-1v7    c0,0.553-0.448,1-1,1s-1-0.447-1-1v-7h-1c-0.552,0-1-0.447-1-1s0.448-1,1-1h1v-5c0-0.553,0.448-1,1-1s1,0.447,1,1v5h1    c0.553,0,1,0.447,1,1S34.553,41,34,41z M32,31c-1.654,0-3-1.346-3-3s1.346-3,3-3s3,1.346,3,3S33.654,31,32,31z M42,45h-1v3    c0,0.553-0.447,1-1,1s-1-0.447-1-1v-3h-1c-0.553,0-1-0.447-1-1s0.447-1,1-1h1v-9c0-0.553,0.447-1,1-1s1,0.447,1,1v9h1    c0.553,0,1,0.447,1,1S42.553,45,42,45z M40,31c-1.654,0-3-1.346-3-3s1.346-3,3-3s3,1.346,3,3S41.654,31,40,31z M50,41h-1v7    c0,0.553-0.447,1-1,1s-1-0.447-1-1v-7h-1c-0.553,0-1-0.447-1-1s0.447-1,1-1h1v-5c0-0.553,0.447-1,1-1s1,0.447,1,1v5h1    c0.553,0,1,0.447,1,1S50.553,41,50,41z M48,31c-1.654,0-3-1.346-3-3s1.346-3,3-3s3,1.346,3,3S49.654,31,48,31z M55,20    c0,0.552-0.447,1-1,1H10c-0.552,0-1-0.448-1-1v-4c0-0.552,0.448-1,1-1h44c0.553,0,1,0.448,1,1V20z"></path><rect x="11" y="17" width="42" height="2"></rect></g></g></svg>