<svg height='300px' width='300px'  fill="#000000" xmlns="http://www.w3.org/2000/svg" xmlns:xlink="http://www.w3.org/1999/xlink" version="1.1" x="0px" y="0px" viewBox="0 0 100 100" enable-background="new 0 0 100 100" xml:space="preserve"><path d="M14.8,47.9v3.1h-2.7c-0.3,0-0.6,0.3-0.6,0.6V52c-1.2,0-2.4-0.6-3.4-1.6C6.6,49,5.6,47,5.6,45.5c0-2,0.8-3.8,2.2-4.9  c1.2-1,2.8-1.4,4.3-1.8c0.5-0.1,1-0.2,1.6-0.4c2.9-0.7,5.9-1.4,8.6-2.9c1.9-1,3.4-2.5,4.5-4.1c1.3-1.9,1.4-3.8,1.5-5.9l0-0.2  l-1.2-0.1l0,0.2c-0.1,2-0.2,3.6-1.3,5.2c-1,1.5-2.4,2.7-4.1,3.7c-2.5,1.4-5.4,2.1-8.3,2.7c-0.5,0.1-1.1,0.2-1.6,0.4  c-1.7,0.4-3.4,0.9-4.8,2c-1.7,1.4-2.7,3.6-2.7,5.9c0,1.9,1.1,4.2,2.7,5.8c1.3,1.3,2.8,1.9,4.3,2v0.3c0,0.3,0.3,0.6,0.6,0.6h2.7v20.9  h80.6V47.9H14.8z M94.6,74.2H15.7V48.8h78.9V74.2z M89.2,59.2h-0.8h-3.7h-0.8h-3.7h-0.8h-3.7h-0.8h-3.7h-0.8h-3.7h-0.8h-3.7h-0.8  h-3.7H57h-3.7h-0.8h-3.7H48h-3.7h-0.8h-3.7H39h-3.7h-0.8h-3.7H30h-3.7h-0.8h-3.7h-0.8h-4.5v14.2h4.5h0.8h3.7h0.8H30h0.8h3.7h0.8H39  h0.8h3.7h0.8H48h0.8h3.7h0.8H57h0.8h3.7h0.8h3.7h0.8h3.7h0.8h3.7h0.8h3.7h0.8h3.7h0.8h3.7h0.8h4.5V59.2H89.2z M17.4,72.6V60h2.8v7.5  H21v5H17.4z M21.9,72.6v-5h0.5V60h2.3v7.5h0.8v5H21.9z M30,72.6h-3.6v-5h0.6V60h3V72.6z M30.9,72.6V60h2.8v7.5h0.8v5H30.9z   M35.4,72.6v-5H36V60h2.3v7.5H39v5H35.4z M39.9,72.6v-5h0.7V60h2.1v7.5h0.8v5H39.9z M48,72.6h-3.6v-5h0.6V60H48V72.6z M48.8,72.6V60  h3v7.5h0.6v5H48.8z M53.3,72.6v-5h0.8V60h2.1v7.5h0.7v5H53.3z M61.4,72.6h-3.6v-5h0.7V60h2.9V72.6z M62.3,72.6V60h2.8v7.5h0.8v5  H62.3z M66.8,72.6v-5h0.6V60h2.3v7.5h0.7v5H66.8z M71.3,72.6v-5h0.7V60h2.3v7.5h0.6v5H71.3z M79.4,72.6h-3.6v-5h0.8V60h2.8V72.6z   M80.2,72.6V60h2.9v7.5h0.7v5H80.2z M84.7,72.6v-5h0.7V60h2.2v7.5h0.7v5H84.7z M92.8,72.6h-3.6v-5h0.7V60h2.9V72.6z M71.9,50.8v0.9  c0,0.2-0.2,0.4-0.4,0.4h-1.3v5.7h-0.6v-5.7h-1.4c-0.2,0-0.4-0.2-0.4-0.4v-0.9c0-0.2,0.2-0.4,0.4-0.4h1.4v-0.2h0.6v0.2h1.3  C71.7,50.4,71.9,50.6,71.9,50.8z M43.4,57.1h-6.2v-4.9h6.2V57.1z M37.9,56.3h4.7V53h-4.7V56.3z M36.2,57.1H30v-4.9h6.2V57.1z   M30.7,56.3h4.7V53h-4.7V56.3z M50.6,57.1h-6.2v-4.9h6.2V57.1z M45.1,56.3h4.7V53h-4.7V56.3z M57.8,57.1h-6.2v-4.9h6.2V57.1z   M52.4,56.3h4.7V53h-4.7V56.3z M65,57.1h-6.2v-4.9H65V57.1z M59.6,56.3h4.7V53h-4.7V56.3z M62.9,54.7c0,0.5-0.4,0.8-0.8,0.8  s-0.8-0.4-0.8-0.8c0-0.5,0.4-0.8,0.8-0.8S62.9,54.2,62.9,54.7z M40.2,55.6v-0.7l-1.6,0.7v-2l1.6,0.7v-0.7l2.1,1L40.2,55.6z   M34.9,55.6l-1.6-0.7v0.7l-2.1-1l2.1-1v0.7l1.6-0.7V55.6z M53.9,53.6l2.1,1l-2.1,1V53.6z M48.3,55.4h-1.6v-1.6h1.6V55.4z M76.9,53.1  c-0.2,0.1-0.4,0.1-0.6,0.1c-0.8,0-1.5-0.7-1.5-1.5c0-0.8,0.7-1.5,1.5-1.5s1.5,0.7,1.5,1.5c0,0.3-0.1,0.5-0.2,0.7  c-0.1-0.1-0.2-0.1-0.3-0.1c-0.3,0-0.5,0.2-0.5,0.5C76.8,52.9,76.8,53,76.9,53.1z M81.5,53.1c-0.2,0.1-0.4,0.1-0.6,0.1  c-0.8,0-1.5-0.7-1.5-1.5c0-0.8,0.7-1.5,1.5-1.5c0.8,0,1.5,0.7,1.5,1.5c0,0.3-0.1,0.5-0.2,0.7c-0.1-0.1-0.2-0.1-0.3-0.1  c-0.3,0-0.5,0.2-0.5,0.5C81.4,52.9,81.4,53,81.5,53.1z M86.1,53.1c-0.2,0.1-0.4,0.1-0.6,0.1c-0.8,0-1.5-0.7-1.5-1.5  c0-0.8,0.7-1.5,1.5-1.5s1.5,0.7,1.5,1.5c0,0.3-0.1,0.5-0.2,0.7c-0.1-0.1-0.2-0.1-0.3-0.1c-0.3,0-0.5,0.2-0.5,0.5  C86,52.9,86,53,86.1,53.1z M90.7,53.1c-0.2,0.1-0.4,0.1-0.6,0.1c-0.8,0-1.5-0.7-1.5-1.5c0-0.8,0.7-1.5,1.5-1.5s1.5,0.7,1.5,1.5  c0,0.3-0.1,0.5-0.2,0.7c-0.1-0.1-0.2-0.1-0.3-0.1c-0.3,0-0.5,0.2-0.5,0.5C90.6,52.9,90.6,53,90.7,53.1z M90.6,57.3  c-0.2,0.1-0.4,0.1-0.6,0.1c-0.8,0-1.5-0.7-1.5-1.5s0.7-1.5,1.5-1.5s1.5,0.7,1.5,1.5c0,0.3-0.1,0.5-0.2,0.8c-0.1-0.1-0.2-0.1-0.3-0.1  c-0.3,0-0.5,0.2-0.5,0.5C90.6,57.1,90.6,57.2,90.6,57.3z M86,57.3c-0.2,0.1-0.4,0.1-0.6,0.1c-0.8,0-1.5-0.7-1.5-1.5s0.7-1.5,1.5-1.5  S87,55,87,55.9c0,0.3-0.1,0.5-0.2,0.8c-0.1-0.1-0.2-0.1-0.3-0.1c-0.3,0-0.5,0.2-0.5,0.5C86,57.1,86,57.2,86,57.3z M81.4,57.3  c-0.2,0.1-0.4,0.1-0.6,0.1c-0.8,0-1.5-0.7-1.5-1.5s0.7-1.5,1.5-1.5c0.8,0,1.5,0.7,1.5,1.5c0,0.3-0.1,0.5-0.2,0.8  c-0.1-0.1-0.2-0.1-0.3-0.1c-0.3,0-0.5,0.2-0.5,0.5C81.4,57.1,81.4,57.2,81.4,57.3z M76.9,57.3c-0.2,0.1-0.4,0.1-0.6,0.1  c-0.8,0-1.5-0.7-1.5-1.5s0.7-1.5,1.5-1.5s1.5,0.7,1.5,1.5c0,0.3-0.1,0.5-0.2,0.8c-0.1-0.1-0.2-0.1-0.3-0.1c-0.3,0-0.5,0.2-0.5,0.5  C76.8,57.1,76.8,57.2,76.9,57.3z M22.2,53.3H18v-3h4.2V53.3z M18.7,52.7h2.9V51h-2.9V52.7z M27.5,53.3h-4.2v-3h4.2V53.3z M23.9,52.7  h2.9V51h-2.9V52.7z M22.2,57.3H18v-3h4.2V57.3z M18.7,56.7h2.9V55h-2.9V56.7z M27.5,57.3h-4.2v-3h4.2V57.3z M23.9,56.7h2.9V55h-2.9  V56.7z"></path></svg>