<svg height='300px' width='300px'  fill="#000000" xmlns="http://www.w3.org/2000/svg" xmlns:xlink="http://www.w3.org/1999/xlink" version="1.1" x="0px" y="0px" viewBox="0 0 100 100" enable-background="new 0 0 100 100" xml:space="preserve"><g><path fill="#000000" d="M94.479,8.333L90.483,7.93c-0.01-0.001-0.008-0.002-0.008-0.003V7.891h-0.544h-0.503H10.49H9.987H9.525   v0.042l-4.015,0.4C5.235,8.361,5,8.609,5,8.886v82.207c0,0.276,0.225,0.525,0.5,0.553l4.025,0.399v0.064h0.462h0.503h78.939h0.503   h0.544V92.05c0-0.001-0.009-0.001-0.003-0.002l4.027-0.403c0.275-0.027,0.5-0.276,0.5-0.553V8.886   C95,8.609,94.754,8.361,94.479,8.333z M89.931,8.394h0.041v12.57h-0.041H10.028V8.394H89.931z M89.972,21.467v59.078H10.028V21.467   H89.972z M10.028,91.606V81.048h79.903h0.041v10.559h-0.041H10.028z"></path><circle fill="#000000" cx="16.892" cy="34.539" r="2.703"></circle><circle fill="#000000" cx="45.934" cy="34.714" r="1.32"></circle><rect x="51.508" y="11.159" fill="#000000" width="3.771" height="0.251"></rect><rect x="51.508" y="11.913" fill="#000000" width="3.771" height="0.251"></rect><rect x="51.508" y="12.668" fill="#000000" width="3.771" height="0.251"></rect><rect x="51.508" y="13.422" fill="#000000" width="3.771" height="0.251"></rect><rect x="51.508" y="14.176" fill="#000000" width="3.771" height="0.251"></rect><rect x="51.508" y="14.93" fill="#000000" width="3.771" height="0.251"></rect><rect x="51.508" y="15.684" fill="#000000" width="3.771" height="0.251"></rect><rect x="51.508" y="16.439" fill="#000000" width="3.771" height="0.251"></rect><rect x="56.033" y="11.159" fill="#000000" width="3.771" height="0.251"></rect><rect x="56.033" y="11.913" fill="#000000" width="3.771" height="0.251"></rect><rect x="56.033" y="12.668" fill="#000000" width="3.771" height="0.251"></rect><rect x="56.033" y="13.422" fill="#000000" width="3.771" height="0.251"></rect><rect x="56.033" y="14.176" fill="#000000" width="3.771" height="0.251"></rect><rect x="56.033" y="14.93" fill="#000000" width="3.771" height="0.251"></rect><rect x="56.033" y="15.684" fill="#000000" width="3.771" height="0.251"></rect><rect x="56.033" y="16.439" fill="#000000" width="3.771" height="0.251"></rect><rect x="60.559" y="11.159" fill="#000000" width="3.771" height="0.251"></rect><rect x="60.559" y="11.913" fill="#000000" width="3.771" height="0.251"></rect><rect x="60.559" y="12.668" fill="#000000" width="3.771" height="0.251"></rect><rect x="60.559" y="13.422" fill="#000000" width="3.771" height="0.251"></rect><rect x="60.559" y="14.176" fill="#000000" width="3.771" height="0.251"></rect><rect x="60.559" y="14.93" fill="#000000" width="3.771" height="0.251"></rect><rect x="60.559" y="15.684" fill="#000000" width="3.771" height="0.251"></rect><rect x="60.559" y="16.439" fill="#000000" width="3.771" height="0.251"></rect><rect x="65.084" y="11.159" fill="#000000" width="3.771" height="0.251"></rect><rect x="65.084" y="11.913" fill="#000000" width="3.771" height="0.251"></rect><rect x="65.084" y="12.668" fill="#000000" width="3.771" height="0.251"></rect><rect x="65.084" y="13.422" fill="#000000" width="3.771" height="0.251"></rect><rect x="65.084" y="14.176" fill="#000000" width="3.771" height="0.251"></rect><rect x="65.084" y="14.93" fill="#000000" width="3.771" height="0.251"></rect><rect x="65.084" y="15.684" fill="#000000" width="3.771" height="0.251"></rect><rect x="65.084" y="16.439" fill="#000000" width="3.771" height="0.251"></rect><rect x="69.609" y="11.159" fill="#000000" width="3.771" height="0.251"></rect><rect x="69.609" y="11.913" fill="#000000" width="3.771" height="0.251"></rect><rect x="69.609" y="12.668" fill="#000000" width="3.771" height="0.251"></rect><rect x="69.609" y="13.422" fill="#000000" width="3.771" height="0.251"></rect><rect x="69.609" y="14.176" fill="#000000" width="3.771" height="0.251"></rect><rect x="69.609" y="14.93" fill="#000000" width="3.771" height="0.251"></rect><rect x="69.609" y="15.684" fill="#000000" width="3.771" height="0.251"></rect><rect x="69.609" y="16.439" fill="#000000" width="3.771" height="0.251"></rect><rect x="74.134" y="11.159" fill="#000000" width="3.771" height="0.251"></rect><rect x="74.134" y="11.913" fill="#000000" width="3.771" height="0.251"></rect><rect x="74.134" y="12.668" fill="#000000" width="3.771" height="0.251"></rect><rect x="74.134" y="13.422" fill="#000000" width="3.771" height="0.251"></rect><rect x="74.134" y="14.176" fill="#000000" width="3.771" height="0.251"></rect><rect x="74.134" y="14.93" fill="#000000" width="3.771" height="0.251"></rect><rect x="74.134" y="15.684" fill="#000000" width="3.771" height="0.251"></rect><rect x="74.134" y="16.439" fill="#000000" width="3.771" height="0.251"></rect><rect x="78.659" y="11.159" fill="#000000" width="3.771" height="0.251"></rect><rect x="78.659" y="11.913" fill="#000000" width="3.771" height="0.251"></rect><rect x="78.659" y="12.668" fill="#000000" width="3.771" height="0.251"></rect><rect x="78.659" y="13.422" fill="#000000" width="3.771" height="0.251"></rect><rect x="78.659" y="14.176" fill="#000000" width="3.771" height="0.251"></rect><rect x="78.659" y="14.93" fill="#000000" width="3.771" height="0.251"></rect><rect x="78.659" y="15.684" fill="#000000" width="3.771" height="0.251"></rect><rect x="78.659" y="16.439" fill="#000000" width="3.771" height="0.251"></rect><rect x="83.184" y="11.159" fill="#000000" width="3.771" height="0.251"></rect><rect x="83.184" y="11.913" fill="#000000" width="3.771" height="0.251"></rect><rect x="83.184" y="12.668" fill="#000000" width="3.771" height="0.251"></rect><rect x="83.184" y="13.422" fill="#000000" width="3.771" height="0.251"></rect><rect x="83.184" y="14.176" fill="#000000" width="3.771" height="0.251"></rect><rect x="83.184" y="14.93" fill="#000000" width="3.771" height="0.251"></rect><rect x="83.184" y="15.684" fill="#000000" width="3.771" height="0.251"></rect><rect x="83.184" y="16.439" fill="#000000" width="3.771" height="0.251"></rect><rect x="67.849" y="73.757" fill="#000000" width="3.52" height="2.514"></rect><rect x="71.62" y="73.757" fill="#000000" width="3.52" height="2.514"></rect><rect x="79.413" y="73.757" fill="#000000" width="3.52" height="2.514"></rect><rect x="83.436" y="73.757" fill="#000000" width="3.52" height="2.514"></rect><path fill="#000000" d="M86.955,23.226H51.508V38.31h35.447V23.226z M85.698,36.299H52.765v-9.553h32.933V36.299z"></path><path fill="#000000" d="M81.173,28.003c0-0.139-0.113-0.251-0.251-0.251H57.29c-0.139,0-0.251,0.113-0.251,0.251v6.536   c0,0.139,0.113,0.251,0.251,0.251h23.631c0.139,0,0.251-0.113,0.251-0.251V28.003z"></path><polygon fill="#000000" points="14.804,65.21 13.799,65.21 13.799,68.226 13.296,68.226 13.296,71.746 13.799,71.746    13.799,75.014 14.804,75.014 14.804,71.746 15.307,71.746 15.307,68.226 14.804,68.226  "></polygon><rect x="12.793" y="47.36" fill="#000000" width="3.017" height="1.257"></rect><rect x="12.793" y="51.131" fill="#000000" width="3.017" height="1.257"></rect><rect x="12.793" y="55.154" fill="#000000" width="3.017" height="1.257"></rect><rect x="12.793" y="58.925" fill="#000000" width="3.017" height="1.257"></rect><rect x="13.799" y="46.858" fill="#000000" width="1.006" height="0.251"></rect><rect x="13.799" y="50.629" fill="#000000" width="1.006" height="0.251"></rect><rect x="13.799" y="54.651" fill="#000000" width="1.006" height="0.251"></rect><rect x="13.799" y="58.422" fill="#000000" width="1.006" height="0.251"></rect><circle fill="#000000" cx="17.923" cy="31.558" r="0.126"></circle><circle fill="#000000" cx="15.149" cy="37.13" r="0.126"></circle><circle fill="#000000" cx="18.706" cy="31.948" r="0.126"></circle><circle fill="#000000" cx="14.504" cy="36.539" r="0.126"></circle><circle fill="#000000" cx="19.351" cy="32.539" r="0.126"></circle><circle fill="#000000" cx="14.047" cy="35.794" r="0.126"></circle><circle fill="#000000" cx="19.809" cy="33.284" r="0.126"></circle><circle fill="#000000" cx="13.812" cy="34.951" r="0.126"></circle><circle fill="#000000" cx="20.043" cy="34.127" r="0.126"></circle><circle fill="#000000" cx="13.819" cy="34.077" r="0.126"></circle><circle fill="#000000" cx="20.036" cy="35.001" r="0.126"></circle><circle fill="#000000" cx="14.067" cy="33.238" r="0.126"></circle><circle fill="#000000" cx="19.788" cy="35.84" r="0.126"></circle><circle fill="#000000" cx="14.537" cy="32.5" r="0.126"></circle><circle fill="#000000" cx="19.318" cy="36.578" r="0.126"></circle><circle fill="#000000" cx="15.191" cy="31.92" r="0.126"></circle><circle fill="#000000" cx="18.664" cy="37.158" r="0.126"></circle><circle fill="#000000" cx="15.981" cy="31.543" r="0.126"></circle><circle fill="#000000" cx="16.948" cy="31.395" r="0.126"></circle><circle fill="#000000" cx="45.117" cy="36.129" r="0.126"></circle><circle fill="#000000" cx="46.751" cy="33.299" r="0.126"></circle><circle fill="#000000" cx="44.519" cy="35.531" r="0.126"></circle><circle fill="#000000" cx="47.349" cy="33.897" r="0.126"></circle><circle fill="#000000" cx="44.3" cy="34.714" r="0.126"></circle><circle fill="#000000" cx="47.568" cy="34.714" r="0.126"></circle><circle fill="#000000" cx="44.519" cy="33.897" r="0.126"></circle><circle fill="#000000" cx="47.349" cy="35.531" r="0.126"></circle><circle fill="#000000" cx="45.117" cy="33.299" r="0.126"></circle><circle fill="#000000" cx="46.751" cy="36.129" r="0.126"></circle><circle fill="#000000" cx="45.934" cy="33.08" r="0.126"></circle><rect x="67.849" y="67.975" fill="#000000" width="3.52" height="2.514"></rect><rect x="71.62" y="67.975" fill="#000000" width="3.52" height="2.514"></rect><path fill="#000000" d="M19.33,76.271h31.173V45.098H19.33V76.271z M42.961,47.109c0-0.139,0.113-0.251,0.251-0.251h5.531   c0.139,0,0.251,0.113,0.251,0.251v5.531c0,0.139-0.113,0.251-0.251,0.251h-5.531c-0.139,0-0.251-0.112-0.251-0.251V47.109z    M42.961,54.399c0-0.139,0.113-0.251,0.251-0.251h5.531c0.139,0,0.251,0.113,0.251,0.251v5.531c0,0.139-0.113,0.251-0.251,0.251   h-5.531c-0.139,0-0.251-0.113-0.251-0.251V54.399z M42.961,61.69c0-0.139,0.113-0.251,0.251-0.251h5.531   c0.139,0,0.251,0.113,0.251,0.251v5.531c0,0.139-0.113,0.251-0.251,0.251h-5.531c-0.139,0-0.251-0.113-0.251-0.251V61.69z    M42.961,68.98c0-0.139,0.113-0.251,0.251-0.251h5.531c0.139,0,0.251,0.113,0.251,0.251v5.531c0,0.139-0.113,0.251-0.251,0.251   h-5.531c-0.139,0-0.251-0.113-0.251-0.251V68.98z M35.67,47.109c0-0.139,0.113-0.251,0.251-0.251h5.531   c0.139,0,0.251,0.113,0.251,0.251v5.531c0,0.139-0.113,0.251-0.251,0.251h-5.531c-0.139,0-0.251-0.112-0.251-0.251V47.109z    M35.67,54.399c0-0.139,0.113-0.251,0.251-0.251h5.531c0.139,0,0.251,0.113,0.251,0.251v5.531c0,0.139-0.113,0.251-0.251,0.251   h-5.531c-0.139,0-0.251-0.113-0.251-0.251V54.399z M35.67,61.69c0-0.139,0.113-0.251,0.251-0.251h5.531   c0.139,0,0.251,0.113,0.251,0.251v5.531c0,0.139-0.113,0.251-0.251,0.251h-5.531c-0.139,0-0.251-0.113-0.251-0.251V61.69z    M35.67,68.98c0-0.139,0.113-0.251,0.251-0.251h5.531c0.139,0,0.251,0.113,0.251,0.251v5.531c0,0.139-0.113,0.251-0.251,0.251   h-5.531c-0.139,0-0.251-0.113-0.251-0.251V68.98z M28.38,47.109c0-0.139,0.113-0.251,0.251-0.251h5.531   c0.139,0,0.251,0.113,0.251,0.251v5.531c0,0.139-0.113,0.251-0.251,0.251h-5.531c-0.139,0-0.251-0.112-0.251-0.251V47.109z    M28.38,54.399c0-0.139,0.113-0.251,0.251-0.251h5.531c0.139,0,0.251,0.113,0.251,0.251v5.531c0,0.139-0.113,0.251-0.251,0.251   h-5.531c-0.139,0-0.251-0.113-0.251-0.251V54.399z M28.38,61.69c0-0.139,0.113-0.251,0.251-0.251h5.531   c0.139,0,0.251,0.113,0.251,0.251v5.531c0,0.139-0.113,0.251-0.251,0.251h-5.531c-0.139,0-0.251-0.113-0.251-0.251V61.69z    M28.38,68.98c0-0.139,0.113-0.251,0.251-0.251h5.531c0.139,0,0.251,0.113,0.251,0.251v5.531c0,0.139-0.113,0.251-0.251,0.251   h-5.531c-0.139,0-0.251-0.113-0.251-0.251V68.98z M21.089,47.109c0-0.139,0.112-0.251,0.251-0.251h5.531   c0.139,0,0.251,0.113,0.251,0.251v5.531c0,0.139-0.113,0.251-0.251,0.251h-5.531c-0.139,0-0.251-0.112-0.251-0.251V47.109z    M21.089,54.399c0-0.139,0.112-0.251,0.251-0.251h5.531c0.139,0,0.251,0.113,0.251,0.251v5.531c0,0.139-0.113,0.251-0.251,0.251   h-5.531c-0.139,0-0.251-0.113-0.251-0.251V54.399z M21.089,61.69c0-0.139,0.112-0.251,0.251-0.251h5.531   c0.139,0,0.251,0.113,0.251,0.251v5.531c0,0.139-0.113,0.251-0.251,0.251h-5.531c-0.139,0-0.251-0.113-0.251-0.251V61.69z    M21.089,68.98c0-0.139,0.112-0.251,0.251-0.251h5.531c0.139,0,0.251,0.113,0.251,0.251v5.531c0,0.139-0.113,0.251-0.251,0.251   h-5.531c-0.139,0-0.251-0.113-0.251-0.251V68.98z"></path><path fill="#000000" d="M52.011,61.439h14.581V45.098H52.011V61.439z M61.816,46.858h3.268v1.257h-3.268V46.858z M61.816,50.629   h3.268v1.257h-3.268V50.629z M61.816,54.399h3.268v1.257h-3.268V54.399z M61.816,58.17h3.268v1.257h-3.268V58.17z M57.542,46.858   h3.268v1.257h-3.268V46.858z M57.542,50.629h3.268v1.257h-3.268V50.629z M57.542,54.399h3.268v1.257h-3.268V54.399z M57.542,58.17   h3.268v1.257h-3.268V58.17z M53.268,46.858h3.268v1.257h-3.268V46.858z M53.268,50.629h3.268v1.257h-3.268V50.629z M53.268,54.399   h3.268v1.257h-3.268V54.399z M53.268,58.17h3.268v1.257h-3.268V58.17z"></path><circle fill="#000000" cx="59.195" cy="68.352" r="2.723"></circle><rect x="55.531" y="62.696" fill="#000000" width="3.268" height="1.257"></rect><rect x="59.804" y="62.696" fill="#000000" width="3.268" height="1.257"></rect><rect x="53.017" y="73.757" fill="#000000" width="3.771" height="2.514"></rect><rect x="57.29" y="73.757" fill="#000000" width="3.771" height="2.514"></rect><rect x="61.564" y="73.757" fill="#000000" width="3.771" height="2.514"></rect><rect x="75.642" y="73.757" fill="#000000" width="3.52" height="2.514"></rect><rect x="67.849" y="47.612" fill="#000000" width="3.017" height="1.257"></rect><rect x="71.871" y="47.612" fill="#000000" width="3.017" height="1.257"></rect><rect x="75.894" y="47.612" fill="#000000" width="3.017" height="1.257"></rect><rect x="79.916" y="47.612" fill="#000000" width="3.017" height="1.257"></rect><rect x="83.938" y="47.612" fill="#000000" width="3.017" height="1.257"></rect><rect x="67.849" y="51.383" fill="#000000" width="3.017" height="1.257"></rect><rect x="71.871" y="51.383" fill="#000000" width="3.017" height="1.257"></rect><rect x="75.894" y="51.383" fill="#000000" width="3.017" height="1.257"></rect><rect x="79.916" y="51.383" fill="#000000" width="3.017" height="1.257"></rect><rect x="83.938" y="51.383" fill="#000000" width="3.017" height="1.257"></rect><rect x="67.849" y="55.154" fill="#000000" width="3.017" height="1.257"></rect><rect x="71.871" y="55.154" fill="#000000" width="3.017" height="1.257"></rect><rect x="75.894" y="55.154" fill="#000000" width="3.017" height="1.257"></rect><rect x="79.916" y="55.154" fill="#000000" width="3.017" height="1.257"></rect><rect x="83.938" y="55.154" fill="#000000" width="3.017" height="1.257"></rect><rect x="67.849" y="58.925" fill="#000000" width="3.017" height="1.257"></rect><rect x="71.871" y="58.925" fill="#000000" width="3.017" height="1.257"></rect><rect x="75.894" y="58.925" fill="#000000" width="3.017" height="1.257"></rect><rect x="79.916" y="58.925" fill="#000000" width="3.017" height="1.257"></rect><rect x="83.938" y="58.925" fill="#000000" width="3.017" height="1.257"></rect><rect x="67.849" y="62.696" fill="#000000" width="3.017" height="1.257"></rect><rect x="71.871" y="62.696" fill="#000000" width="3.017" height="1.257"></rect><rect x="75.894" y="62.696" fill="#000000" width="3.017" height="1.257"></rect><rect x="79.916" y="62.696" fill="#000000" width="3.017" height="1.257"></rect><rect x="83.938" y="62.696" fill="#000000" width="3.017" height="1.257"></rect><rect x="75.642" y="67.975" fill="#000000" width="3.52" height="2.514"></rect><rect x="68.855" y="50.88" fill="#000000" width="1.006" height="0.251"></rect><rect x="68.855" y="58.422" fill="#000000" width="1.006" height="0.251"></rect><rect x="72.877" y="58.422" fill="#000000" width="1.006" height="0.251"></rect><rect x="76.899" y="54.651" fill="#000000" width="1.006" height="0.251"></rect><rect x="84.944" y="58.422" fill="#000000" width="1.006" height="0.251"></rect><rect x="68.855" y="62.193" fill="#000000" width="1.006" height="0.251"></rect><rect x="69.106" y="73.254" fill="#000000" width="1.006" height="0.251"></rect><rect x="72.877" y="73.254" fill="#000000" width="1.006" height="0.251"></rect><rect x="80.67" y="73.254" fill="#000000" width="1.006" height="0.251"></rect><rect x="79.413" y="67.975" fill="#000000" width="3.52" height="2.514"></rect><rect x="83.436" y="67.975" fill="#000000" width="3.52" height="2.514"></rect></g></svg>