<svg height='300px' width='300px'  fill="#000000" xmlns="http://www.w3.org/2000/svg" xmlns:xlink="http://www.w3.org/1999/xlink" version="1.1" x="0px" y="0px" viewBox="0 0 3968.5 3968.5" enable-background="new 0 0 3968.5 3968.5" xml:space="preserve"><path d="M3061.7,504.2l-2154.9,0c-73.5,0-133.3,59.8-133.3,133.3v2693.6c0,73.5,59.8,133.3,133.3,133.3h2154.9  c73.5,0,133.3-59.8,133.3-133.3V637.5C3195,564,3135.2,504.2,3061.7,504.2z M2648.2,760.1c47.7,0,86.3,38.7,86.3,86.3  c0,47.7-38.7,86.3-86.3,86.3c-47.7,0-86.3-38.7-86.3-86.3C2561.9,798.8,2600.5,760.1,2648.2,760.1z M2648.2,1004.8  c47.7,0,86.3,38.7,86.3,86.3c0,47.7-38.7,86.3-86.3,86.3c-47.7,0-86.3-38.7-86.3-86.3C2561.9,1043.5,2600.5,1004.8,2648.2,1004.8z   M2648.2,1231.5c47.7,0,86.3,38.7,86.3,86.3s-38.7,86.3-86.3,86.3c-47.7,0-86.3-38.7-86.3-86.3  C2561.9,1270.1,2600.5,1231.5,2648.2,1231.5z M2696.7,1603.8v420.3h-97v-420.3H2696.7z M2204,760.1c47.7,0,86.3,38.7,86.3,86.3  c0,47.7-38.7,86.3-86.3,86.3c-47.7,0-86.3-38.7-86.3-86.3C2117.6,798.8,2156.3,760.1,2204,760.1z M2204,1004.8  c47.7,0,86.3,38.7,86.3,86.3c0,47.7-38.7,86.3-86.3,86.3c-47.7,0-86.3-38.7-86.3-86.3C2117.6,1043.5,2156.3,1004.8,2204,1004.8z   M2204,1231.5c47.7,0,86.3,38.7,86.3,86.3s-38.7,86.3-86.3,86.3c-47.7,0-86.3-38.7-86.3-86.3  C2117.6,1270.1,2156.3,1231.5,2204,1231.5z M2048.4,1603.8h97l0,75.8h-97L2048.4,1603.8z M2048.4,1734.8h97l0,75.8h-97  L2048.4,1734.8z M2048.4,1865.7h97l0,75.8h-97L2048.4,1865.7z M2048.4,1996.7h97l0,75.8h-97L2048.4,1996.7z M2048.4,2127.6h97  l0,75.8h-97L2048.4,2127.6z M2048.4,2258.6h97l0,75.8h-97L2048.4,2258.6z M2048.4,2389.6h97l0,75.8h-97L2048.4,2389.6z   M2048.4,2520.5h97l0,75.8h-97L2048.4,2520.5z M1759.8,760.1c47.7,0,86.3,38.7,86.3,86.3c0,47.7-38.7,86.3-86.3,86.3  c-47.7,0-86.3-38.7-86.3-86.3C1673.4,798.8,1712.1,760.1,1759.8,760.1z M1759.8,1004.8c47.7,0,86.3,38.7,86.3,86.3  c0,47.7-38.7,86.3-86.3,86.3c-47.7,0-86.3-38.7-86.3-86.3C1673.4,1043.5,1712.1,1004.8,1759.8,1004.8z M1759.8,1231.5  c47.7,0,86.3,38.7,86.3,86.3s-38.7,86.3-86.3,86.3c-47.7,0-86.3-38.7-86.3-86.3C1673.4,1270.1,1712.1,1231.5,1759.8,1231.5z   M1315.5,760.1c47.7,0,86.3,38.7,86.3,86.3c0,47.7-38.7,86.3-86.3,86.3c-47.7,0-86.3-38.7-86.3-86.3  C1229.2,798.8,1267.8,760.1,1315.5,760.1z M1315.5,1004.8c47.7,0,86.3,38.7,86.3,86.3c0,47.7-38.7,86.3-86.3,86.3  c-47.7,0-86.3-38.7-86.3-86.3C1229.2,1043.5,1267.8,1004.8,1315.5,1004.8z M1315.5,1231.5c47.7,0,86.3,38.7,86.3,86.3  s-38.7,86.3-86.3,86.3c-47.7,0-86.3-38.7-86.3-86.3C1229.2,1270.1,1267.8,1231.5,1315.5,1231.5z M1364,1603.8v230.6h-97v-230.6H1364  z M1111.4,1944.5c0-32,25.9-57.9,57.9-57.9h292.5c32,0,57.9,25.9,57.9,57.9c0,32-25.9,57.9-57.9,57.9h-292.5  C1137.3,2002.4,1111.4,1976.5,1111.4,1944.5z M1364,2727.3h-97l0-659.4h97L1364,2727.3z M1874.1,3090.3h-420.3v-97h420.3V3090.3z   M1888.3,2727.3h-97l0-75.8h97L1888.3,2727.3z M1888.3,2596.3h-97l0-75.8h97L1888.3,2596.3z M1888.3,2465.3h-97l0-75.8h97  L1888.3,2465.3z M1888.3,2334.4h-97l0-75.8h97L1888.3,2334.4z M1888.3,2203.4h-97l0-75.8h97L1888.3,2203.4z M1888.3,2072.5h-97  l0-75.8h97L1888.3,2072.5z M1888.3,1941.5h-97l0-75.8h97L1888.3,1941.5z M1888.3,1810.6h-97l0-75.8h97L1888.3,1810.6z   M1888.3,1679.6h-97l0-75.8h97L1888.3,1679.6z M2042.1,3133.3c0,32-25.9,57.9-57.9,57.9c-32,0-57.9-25.9-57.9-57.9v-182.9  c0-32,25.9-57.9,57.9-57.9c32,0,57.9,25.9,57.9,57.9V3133.3z M2048.4,2651.5h97l0,75.8h-97L2048.4,2651.5z M2527.9,3090.3h-420.3  v-97h420.3V3090.3z M2696.7,2727.3h-97l0-469.7h97L2696.7,2727.3z M2794.5,2192.1H2502c-32,0-57.9-25.9-57.9-57.9  c0-32,25.9-57.9,57.9-57.9h292.5c32,0,57.9,25.9,57.9,57.9C2852.4,2166.2,2826.4,2192.1,2794.5,2192.1z"></path></svg>