<svg height='300px' width='300px'  fill="#000000" xmlns="http://www.w3.org/2000/svg" xmlns:xlink="http://www.w3.org/1999/xlink" version="1.1" x="0px" y="0px" viewBox="0 0 100 100" style="enable-background:new 0 0 100 100;" xml:space="preserve"><g><path d="M41.301,37.555c-3.838,0-6.96,3.123-6.96,6.96s3.122,6.96,6.96,6.96s6.961-3.123,6.961-6.96S45.139,37.555,41.301,37.555z    M41.301,48.476c-2.184,0-3.96-1.777-3.96-3.96s1.776-3.96,3.96-3.96s3.961,1.777,3.961,3.96S43.484,48.476,41.301,48.476z"></path><path d="M17.486,44.515c0,2.733,2.224,4.957,4.957,4.957c2.732,0,4.956-2.224,4.956-4.957s-2.224-4.957-4.956-4.957   C19.71,39.559,17.486,41.782,17.486,44.515z M24.999,44.515c0,1.41-1.146,2.556-2.556,2.556c-1.41,0-2.557-1.146-2.557-2.556   s1.146-2.556,2.557-2.556C23.853,41.959,24.999,43.105,24.999,44.515z"></path><path d="M41.301,55.193c-3.838,0-6.96,3.123-6.96,6.96s3.122,6.96,6.96,6.96c0.893,0,1.762-0.167,2.584-0.496   c0.769-0.308,1.143-1.181,0.835-1.95s-1.183-1.143-1.95-0.835c-0.465,0.187-0.96,0.281-1.469,0.281c-2.184,0-3.96-1.776-3.96-3.96   s1.776-3.96,3.96-3.96s3.961,1.777,3.961,3.96c0,0.518-0.099,1.021-0.292,1.496c-0.313,0.767,0.055,1.643,0.821,1.956   c0.772,0.314,1.643-0.055,1.956-0.822c0.342-0.836,0.515-1.721,0.515-2.629C48.262,58.315,45.139,55.193,41.301,55.193z"></path><path d="M41.301,72.831c-3.838,0-6.96,3.122-6.96,6.96s3.122,6.96,6.96,6.96s6.961-3.123,6.961-6.96S45.139,72.831,41.301,72.831z    M41.301,83.751c-2.184,0-3.96-1.777-3.96-3.96s1.776-3.96,3.96-3.96s3.961,1.776,3.961,3.96S43.484,83.751,41.301,83.751z"></path><path d="M59.144,37.555c-3.838,0-6.96,3.123-6.96,6.96s3.122,6.96,6.96,6.96s6.961-3.123,6.961-6.96S62.981,37.555,59.144,37.555z    M59.144,48.476c-2.184,0-3.96-1.777-3.96-3.96s1.776-3.96,3.96-3.96s3.961,1.777,3.961,3.96S61.327,48.476,59.144,48.476z"></path><path d="M59.144,55.193c-3.838,0-6.96,3.123-6.96,6.96s3.122,6.96,6.96,6.96s6.961-3.122,6.961-6.96S62.981,55.193,59.144,55.193z    M59.144,66.113c-2.184,0-3.96-1.776-3.96-3.96s1.776-3.96,3.96-3.96s3.961,1.777,3.961,3.96S61.327,66.113,59.144,66.113z"></path><path d="M59.144,72.831c-3.838,0-6.96,3.122-6.96,6.96s3.122,6.96,6.96,6.96s6.961-3.123,6.961-6.96S62.981,72.831,59.144,72.831z    M59.144,83.751c-2.184,0-3.96-1.777-3.96-3.96s1.776-3.96,3.96-3.96s3.961,1.776,3.961,3.96S61.327,83.751,59.144,83.751z"></path><path d="M81.197,40.729c-0.74,0.372-1.039,1.273-0.668,2.013c0.277,0.553,0.418,1.149,0.418,1.773c0,2.184-1.777,3.96-3.961,3.96   s-3.96-1.777-3.96-3.96s1.776-3.96,3.96-3.96c0.45,0,0.891,0.075,1.311,0.222c0.781,0.275,1.638-0.137,1.911-0.919   c0.274-0.782-0.137-1.638-0.919-1.912c-0.739-0.259-1.514-0.391-2.303-0.391c-3.838,0-6.96,3.123-6.96,6.96s3.122,6.96,6.96,6.96   s6.961-3.123,6.961-6.96c0-1.095-0.248-2.145-0.736-3.118C82.839,40.656,81.938,40.357,81.197,40.729z"></path><path d="M76.986,55.193c-3.838,0-6.96,3.123-6.96,6.96s3.122,6.96,6.96,6.96s6.961-3.122,6.961-6.96S80.824,55.193,76.986,55.193z    M76.986,66.113c-2.184,0-3.96-1.776-3.96-3.96s1.776-3.96,3.96-3.96s3.961,1.777,3.961,3.96S79.17,66.113,76.986,66.113z"></path><path d="M76.986,72.831c-1.131,0-2.255,0.278-3.25,0.804c-0.732,0.388-1.012,1.295-0.625,2.027   c0.388,0.732,1.295,1.013,2.027,0.625c0.572-0.303,1.194-0.457,1.848-0.457c2.184,0,3.961,1.776,3.961,3.96s-1.777,3.96-3.961,3.96   s-3.96-1.777-3.96-3.96c0-0.439,0.07-0.869,0.21-1.276c0.268-0.784-0.151-1.636-0.936-1.904c-0.784-0.27-1.637,0.151-1.904,0.935   c-0.245,0.72-0.37,1.476-0.37,2.245c0,3.838,3.122,6.96,6.96,6.96s6.961-3.123,6.961-6.96S80.824,72.831,76.986,72.831z"></path><path d="M22.443,75.367c-0.718,0-1.3,0.582-1.3,1.3v7.585c0,0.718,0.582,1.3,1.3,1.3s1.3-0.582,1.3-1.3v-7.585   C23.743,75.949,23.161,75.367,22.443,75.367z"></path><path d="M26.215,60.542h-2.472v-4.849c0-0.718-0.582-1.3-1.3-1.3s-1.3,0.582-1.3,1.3v4.849h-2.472   c-1.765,0-3.201,1.436-3.201,3.201v2.399c0,1.765,1.437,3.201,3.201,3.201h2.472v3.99c0,0.718,0.582,1.3,1.3,1.3s1.3-0.582,1.3-1.3   v-3.99h2.472c1.765,0,3.201-1.436,3.201-3.201v-2.399C29.416,61.978,27.979,60.542,26.215,60.542z M26.416,66.142   c0,0.111-0.09,0.201-0.201,0.201h-7.543c-0.111,0-0.201-0.09-0.201-0.201v-2.399c0-0.111,0.09-0.201,0.201-0.201h7.543   c0.111,0,0.201,0.09,0.201,0.201V66.142z"></path><path d="M70.675,24.536h1.95c0.663,0,1.2-0.538,1.2-1.2s-0.537-1.2-1.2-1.2h-0.75v-4.789h8.545v4.789h-4.545   c-0.663,0-1.2,0.538-1.2,1.2s0.537,1.2,1.2,1.2h5.745c0.663,0,1.2-0.538,1.2-1.2v-7.189c0-0.663-0.537-1.2-1.2-1.2H70.675   c-0.663,0-1.2,0.538-1.2,1.2v7.189C69.475,23.998,70.012,24.536,70.675,24.536z"></path><path d="M16.97,32.798h18.697c0.828,0,1.5-0.671,1.5-1.5V16.146c0-0.829-0.672-1.5-1.5-1.5h-3.292c-0.828,0-1.5,0.671-1.5,1.5   s0.672,1.5,1.5,1.5h1.792v12.152H18.47V17.646h9.197c0.828,0,1.5-0.671,1.5-1.5s-0.672-1.5-1.5-1.5H16.97   c-0.828,0-1.5,0.671-1.5,1.5v15.152C15.47,32.127,16.142,32.798,16.97,32.798z"></path><path d="M86.584,6.911H13.416C8.775,6.911,5,10.687,5,15.327v69.346c0,4.641,3.775,8.416,8.416,8.416h73.168   c4.641,0,8.416-3.775,8.416-8.416V15.327C95,10.687,91.225,6.911,86.584,6.911z M91,84.673c0,2.435-1.981,4.416-4.416,4.416H13.416   C10.981,89.089,9,87.108,9,84.673V15.327c0-2.435,1.981-4.416,4.416-4.416h73.168c2.435,0,4.416,1.981,4.416,4.416V84.673z"></path><circle cx="34.506" cy="37.67" r="1.273"></circle><circle cx="52.411" cy="37.67" r="1.273"></circle><circle cx="69.402" cy="37.67" r="1.273"></circle><circle cx="34.506" cy="54.87" r="1.272"></circle><circle cx="52.411" cy="54.87" r="1.272"></circle><circle cx="69.402" cy="54.87" r="1.272"></circle><circle cx="34.506" cy="72.161" r="1.273"></circle><circle cx="52.411" cy="72.161" r="1.272"></circle><circle cx="69.402" cy="72.161" r="1.272"></circle></g></svg>