<svg height='300px' width='300px'  fill="#000000" xmlns="http://www.w3.org/2000/svg" xmlns:xlink="http://www.w3.org/1999/xlink" version="1.1" x="0px" y="0px" viewBox="0 0 100 100" enable-background="new 0 0 100 100" xml:space="preserve"><g><path d="M88.041,6H11.959C8.674,6,6,8.674,6,11.96v76.081C6,91.327,8.674,94,11.959,94h76.082C91.326,94,94,91.327,94,88.041V11.96   C94,8.674,91.326,6,88.041,6z M92,88.041C92,90.224,90.225,92,88.041,92H11.959C9.775,92,8,90.224,8,88.041V11.96   C8,9.776,9.775,8,11.959,8h76.082C90.225,8,92,9.776,92,11.96V88.041z"></path><path d="M68.963,74.649h-5.994c-1.932,0-3.504,1.571-3.504,3.503v5.995c0,1.931,1.572,3.502,3.504,3.502h5.994   c1.932,0,3.502-1.571,3.502-3.502v-5.995C72.465,76.221,70.895,74.649,68.963,74.649z M71.465,84.147   c0,1.379-1.121,2.502-2.502,2.502h-5.994c-1.381,0-2.504-1.123-2.504-2.502v-5.995c0-1.38,1.123-2.503,2.504-2.503h5.994   c1.381,0,2.502,1.123,2.502,2.503V84.147z"></path><path d="M68.963,59.311h-5.994c-1.932,0-3.504,1.571-3.504,3.503v5.995c0,1.931,1.572,3.502,3.504,3.502h5.994   c1.932,0,3.502-1.571,3.502-3.502v-5.995C72.465,60.882,70.895,59.311,68.963,59.311z M71.465,68.809   c0,1.379-1.121,2.502-2.502,2.502h-5.994c-1.381,0-2.504-1.123-2.504-2.502v-5.995c0-1.38,1.123-2.503,2.504-2.503h5.994   c1.381,0,2.502,1.123,2.502,2.503V68.809z"></path><path d="M52.967,74.649h-5.996c-1.932,0-3.502,1.571-3.502,3.503v5.995c0,1.931,1.57,3.502,3.502,3.502h5.996   c1.932,0,3.502-1.571,3.502-3.502v-5.995C56.469,76.221,54.898,74.649,52.967,74.649z M55.469,84.147   c0,1.379-1.123,2.502-2.502,2.502h-5.996c-1.379,0-2.502-1.123-2.502-2.502v-5.995c0-1.38,1.123-2.503,2.502-2.503h5.996   c1.379,0,2.502,1.123,2.502,2.503V84.147z"></path><path d="M52.967,59.311h-5.996c-1.932,0-3.502,1.571-3.502,3.503v5.995c0,1.931,1.57,3.502,3.502,3.502h5.996   c1.932,0,3.502-1.571,3.502-3.502v-5.995C56.469,60.882,54.898,59.311,52.967,59.311z M55.469,68.809   c0,1.379-1.123,2.502-2.502,2.502h-5.996c-1.379,0-2.502-1.123-2.502-2.502v-5.995c0-1.38,1.123-2.503,2.502-2.503h5.996   c1.379,0,2.502,1.123,2.502,2.503V68.809z"></path><path d="M36.969,74.649h-5.994c-1.932,0-3.504,1.571-3.504,3.503v5.995c0,1.931,1.572,3.502,3.504,3.502h5.994   c1.932,0,3.502-1.571,3.502-3.502v-5.995C40.471,76.221,38.9,74.649,36.969,74.649z M39.471,84.147   c0,1.379-1.121,2.502-2.502,2.502h-5.994c-1.381,0-2.504-1.123-2.504-2.502v-5.995c0-1.38,1.123-2.503,2.504-2.503h5.994   c1.381,0,2.502,1.123,2.502,2.503V84.147z"></path><path d="M36.969,59.311h-5.994c-1.932,0-3.504,1.571-3.504,3.503v5.995c0,1.931,1.572,3.502,3.504,3.502h5.994   c1.932,0,3.502-1.571,3.502-3.502v-5.995C40.471,60.882,38.9,59.311,36.969,59.311z M39.471,68.809   c0,1.379-1.121,2.502-2.502,2.502h-5.994c-1.381,0-2.504-1.123-2.504-2.502v-5.995c0-1.38,1.123-2.503,2.504-2.503h5.994   c1.381,0,2.502,1.123,2.502,2.503V68.809z"></path><path d="M20.973,74.649h-5.996c-1.932,0-3.502,1.571-3.502,3.503v5.995c0,1.931,1.57,3.502,3.502,3.502h5.996   c1.932,0,3.502-1.571,3.502-3.502v-5.995C24.475,76.221,22.904,74.649,20.973,74.649z M23.475,84.147   c0,1.379-1.123,2.502-2.502,2.502h-5.996c-1.379,0-2.502-1.123-2.502-2.502v-5.995c0-1.38,1.123-2.503,2.502-2.503h5.996   c1.379,0,2.502,1.123,2.502,2.503V84.147z"></path><path d="M20.973,59.311h-5.996c-1.932,0-3.502,1.571-3.502,3.503v5.995c0,1.931,1.57,3.502,3.502,3.502h5.996   c1.932,0,3.502-1.571,3.502-3.502v-5.995C24.475,60.882,22.904,59.311,20.973,59.311z M23.475,68.809   c0,1.379-1.123,2.502-2.502,2.502h-5.996c-1.379,0-2.502-1.123-2.502-2.502v-5.995c0-1.38,1.123-2.503,2.502-2.503h5.996   c1.379,0,2.502,1.123,2.502,2.503V68.809z"></path><path d="M68.963,43.972h-5.994c-1.932,0-3.504,1.571-3.504,3.502v5.995c0,1.931,1.572,3.502,3.504,3.502h5.994   c1.932,0,3.502-1.571,3.502-3.502v-5.995C72.465,45.542,70.895,43.972,68.963,43.972z M71.465,53.469   c0,1.379-1.121,2.502-2.502,2.502h-5.994c-1.381,0-2.504-1.123-2.504-2.502v-5.995c0-1.379,1.123-2.502,2.504-2.502h5.994   c1.381,0,2.502,1.123,2.502,2.502V53.469z"></path><path d="M68.963,28.632h-5.994c-1.932,0-3.504,1.571-3.504,3.503v5.995c0,1.931,1.572,3.502,3.504,3.502h5.994   c1.932,0,3.502-1.571,3.502-3.502v-5.995C72.465,30.203,70.895,28.632,68.963,28.632z M71.465,38.13   c0,1.379-1.121,2.502-2.502,2.502h-5.994c-1.381,0-2.504-1.123-2.504-2.502v-5.995c0-1.38,1.123-2.503,2.504-2.503h5.994   c1.381,0,2.502,1.123,2.502,2.503V38.13z"></path><path d="M52.967,43.972h-5.996c-1.932,0-3.502,1.571-3.502,3.502v5.995c0,1.931,1.57,3.502,3.502,3.502h5.996   c1.932,0,3.502-1.571,3.502-3.502v-5.995C56.469,45.542,54.898,43.972,52.967,43.972z M55.469,53.469   c0,1.379-1.123,2.502-2.502,2.502h-5.996c-1.379,0-2.502-1.123-2.502-2.502v-5.995c0-1.379,1.123-2.502,2.502-2.502h5.996   c1.379,0,2.502,1.123,2.502,2.502V53.469z"></path><path d="M52.967,28.632h-5.996c-1.932,0-3.502,1.571-3.502,3.503v5.995c0,1.931,1.57,3.502,3.502,3.502h5.996   c1.932,0,3.502-1.571,3.502-3.502v-5.995C56.469,30.203,54.898,28.632,52.967,28.632z M55.469,38.13   c0,1.379-1.123,2.502-2.502,2.502h-5.996c-1.379,0-2.502-1.123-2.502-2.502v-5.995c0-1.38,1.123-2.503,2.502-2.503h5.996   c1.379,0,2.502,1.123,2.502,2.503V38.13z"></path><path d="M36.969,43.972h-5.994c-1.932,0-3.504,1.571-3.504,3.502v5.995c0,1.931,1.572,3.502,3.504,3.502h5.994   c1.932,0,3.502-1.571,3.502-3.502v-5.995C40.471,45.542,38.9,43.972,36.969,43.972z M39.471,53.469   c0,1.379-1.121,2.502-2.502,2.502h-5.994c-1.381,0-2.504-1.123-2.504-2.502v-5.995c0-1.379,1.123-2.502,2.504-2.502h5.994   c1.381,0,2.502,1.123,2.502,2.502V53.469z"></path><path d="M36.969,28.632h-5.994c-1.932,0-3.504,1.571-3.504,3.503v5.995c0,1.931,1.572,3.502,3.504,3.502h5.994   c1.932,0,3.502-1.571,3.502-3.502v-5.995C40.471,30.203,38.9,28.632,36.969,28.632z M39.471,38.13c0,1.379-1.121,2.502-2.502,2.502   h-5.994c-1.381,0-2.504-1.123-2.504-2.502v-5.995c0-1.38,1.123-2.503,2.504-2.503h5.994c1.381,0,2.502,1.123,2.502,2.503V38.13z"></path><path d="M20.973,43.972h-5.996c-1.932,0-3.502,1.571-3.502,3.502v5.995c0,1.931,1.57,3.502,3.502,3.502h5.996   c1.932,0,3.502-1.571,3.502-3.502v-5.995C24.475,45.542,22.904,43.972,20.973,43.972z M23.475,53.469   c0,1.379-1.123,2.502-2.502,2.502h-5.996c-1.379,0-2.502-1.123-2.502-2.502v-5.995c0-1.379,1.123-2.502,2.502-2.502h5.996   c1.379,0,2.502,1.123,2.502,2.502V53.469z"></path><path d="M20.973,28.632h-5.996c-1.932,0-3.502,1.571-3.502,3.503v5.995c0,1.931,1.57,3.502,3.502,3.502h5.996   c1.932,0,3.502-1.571,3.502-3.502v-5.995C24.475,30.203,22.904,28.632,20.973,28.632z M23.475,38.13   c0,1.379-1.123,2.502-2.502,2.502h-5.996c-1.379,0-2.502-1.123-2.502-2.502v-5.995c0-1.38,1.123-2.503,2.502-2.503h5.996   c1.379,0,2.502,1.123,2.502,2.503V38.13z"></path><path d="M87.545,73.149h-2.834V59.811c0-0.552-0.447-1-1-1c-0.551,0-1,0.448-1,1v13.339h-2.832c-0.553,0-1,0.448-1,1s0.447,1,1,1   h2.832V87.15c0,0.552,0.449,1,1,1c0.553,0,1-0.448,1-1V75.149h2.834c0.553,0,1-0.448,1-1S88.098,73.149,87.545,73.149z"></path><path d="M87.545,42.471h-2.834V29.132c0-0.552-0.447-1-1-1c-0.551,0-1,0.448-1,1v13.339h-2.832c-0.553,0-1,0.448-1,1s0.447,1,1,1   h2.832v12.001c0,0.552,0.449,1,1,1c0.553,0,1-0.448,1-1V44.471h2.834c0.553,0,1-0.448,1-1S88.098,42.471,87.545,42.471z"></path><path d="M11.975,16.179h5.939c0.277,0,0.5-0.224,0.5-0.5v-2.753c0-0.276-0.223-0.5-0.5-0.5h-5.939c-0.277,0-0.5,0.224-0.5,0.5   v2.753C11.475,15.955,11.697,16.179,11.975,16.179z M12.475,13.426h4.939v1.753h-4.939V13.426z"></path><path d="M81.604,16.179h5.941c0.275,0,0.5-0.224,0.5-0.5v-2.753c0-0.276-0.225-0.5-0.5-0.5h-5.941c-0.275,0-0.5,0.224-0.5,0.5   v2.753C81.104,15.955,81.328,16.179,81.604,16.179z M82.104,13.426h4.941v1.753h-4.941V13.426z"></path><path d="M72.662,16.179h5.941c0.275,0,0.5-0.224,0.5-0.5v-2.753c0-0.276-0.225-0.5-0.5-0.5h-5.941c-0.275,0-0.5,0.224-0.5,0.5   v2.753C72.162,15.955,72.387,16.179,72.662,16.179z M73.162,13.426h4.941v1.753h-4.941V13.426z"></path><path d="M81.604,20.932h5.941c0.275,0,0.5-0.224,0.5-0.5v-2.753c0-0.276-0.225-0.5-0.5-0.5h-5.941c-0.275,0-0.5,0.224-0.5,0.5   v2.753C81.104,20.708,81.328,20.932,81.604,20.932z M82.104,18.179h4.941v1.753h-4.941V18.179z"></path><path d="M79.104,20.432v-2.753c0-0.276-0.225-0.5-0.5-0.5h-5.941c-0.275,0-0.5,0.224-0.5,0.5v2.753c0,0.276,0.225,0.5,0.5,0.5   h5.941C78.879,20.932,79.104,20.708,79.104,20.432z M78.104,19.932h-4.941v-1.753h4.941V19.932z"></path><path d="M25.73,12.426h-3.939c-0.277,0-0.5,0.224-0.5,0.5v2.753c0,0.276,0.223,0.5,0.5,0.5h3.939c0.277,0,0.5-0.224,0.5-0.5v-2.753   C26.23,12.649,26.008,12.426,25.73,12.426z M25.23,15.179h-2.939v-1.753h2.939V15.179z"></path><path d="M28.758,16.179h1.939c0.277,0,0.5-0.224,0.5-0.5v-2.753c0-0.276-0.223-0.5-0.5-0.5h-1.939c-0.277,0-0.5,0.224-0.5,0.5   v2.753C28.258,15.955,28.48,16.179,28.758,16.179z M29.258,13.426h0.939v1.753h-0.939V13.426z"></path></g></svg>