<svg height='300px' width='300px'  fill="#000000" xmlns="http://www.w3.org/2000/svg" xmlns:xlink="http://www.w3.org/1999/xlink" version="1.1" x="0px" y="0px" viewBox="0 0 100 100" enable-background="new 0 0 100 100" xml:space="preserve"><g><path d="M94,14v-2h-3v2h-2v-2h-3v2h-2v-2h-3v2h-2v-2h-4v2h-2v-2h-3v2h-2v-2h-3v2h-2v-2h-3v2h-2v-2h-3v2H0v75h100V14H94z M89,20   c1.934,0,3.5,1.567,3.5,3.5S90.934,27,89,27s-3.5-1.567-3.5-3.5S87.066,20,89,20z M85,29h3v1h-3V29z M85,32h3v3h-3V32z M76,30v-1h3   v1H76z M79,32v3h-3v-3H79z M75,20c1.934,0,3.5,1.567,3.5,3.5S76.934,27,75,27s-3.5-1.567-3.5-3.5S73.066,20,75,20z M71,29h3v1h-3   V29z M71,32h3v3h-3V32z M71,37h8v3h-8V37z M71,67h3v2h-3V67z M71,72h3v2h-3V72z M71,76h4v3h-4V76z M23,20h42v20H23V20z M56,70v-7h9   v7H56z M65,72v7h-9v-7H65z M56,61v-7h9v7H56z M56,52v-7h9v7H56z M45,70v-7h9v7H45z M54,72v7h-9v-7H54z M45,61v-7h9v7H45z M45,52v-7   h9v7H45z M34,70v-7h9v7H34z M43,72v7h-9v-7H43z M34,61v-7h9v7H34z M34,52v-7h9v7H34z M23,45h9v7h-9V45z M23,54h9v7h-9V54z M23,63h9   v7h-9V63z M23,72h9v7h-9V72z M6,20h11v25H6V20z M13,66v-3h4v3H13z M17,72v3h-4v-3H17z M13,57v-3h4v3H13z M6,54h4v3H6V54z M6,63h4v3   H6V63z M6,72h4v3H6V72z M93,85H6v-1h87V85z M79,72v2h-3v-2H79z M76,69v-1h3v1H76z M79,76v3h-3v-3H79z M88,72v2h-3v-2H88z M85,69v-1   h3v1H85z M88,76v3h-3v-3H88z M93,79h-4v-3h4V79z M93,74h-3v-2h3V74z M93,69h-3v-2h3V69z M93,63H71V45h22V63z M93,40h-8v-3h8V40z    M93,35h-3v-3h3V35z M93,30h-3v-1h3V30z"></path><path d="M7,44h9V21H7V44z M10,29h1v-6h1v6h1v7h-1v6h-1v-6h-1V29z"></path><path d="M82,61c3.866,0,7-3.134,7-7s-3.134-7-7-7s-7,3.134-7,7S78.134,61,82,61z M82,47.5c3.584,0,6.5,2.916,6.5,6.5   s-2.916,6.5-6.5,6.5s-6.5-2.916-6.5-6.5S78.416,47.5,82,47.5z"></path><path d="M82,59.5c3.032,0,5.5-2.468,5.5-5.5c0-3.033-2.468-5.5-5.5-5.5s-5.5,2.467-5.5,5.5C76.5,57.032,78.968,59.5,82,59.5z"></path><path d="M75,26.5c1.654,0,3-1.346,3-3s-1.346-3-3-3s-3,1.346-3,3S73.346,26.5,75,26.5z M75,21.5c1.104,0,2,0.897,2,2s-0.896,2-2,2   s-2-0.897-2-2S73.896,21.5,75,21.5z"></path><path d="M89,26.5c1.654,0,3-1.346,3-3s-1.346-3-3-3s-3,1.346-3,3S87.346,26.5,89,26.5z M89,21.5c1.104,0,2,0.897,2,2s-0.896,2-2,2   s-2-0.897-2-2S87.896,21.5,89,21.5z"></path></g></svg>