<svg height='300px' width='300px'  fill="#000000" xmlns="http://www.w3.org/2000/svg" xmlns:xlink="http://www.w3.org/1999/xlink" version="1.1" x="0px" y="0px" viewBox="0 0 100 100" enable-background="new 0 0 100 100" xml:space="preserve"><g><g><polygon display="none" fill="none" points="19.2,39.2 27.1,39.2 27.1,47 19.2,47   "></polygon></g><g enable-background="new    "><polygon display="none" fill="none" points="29.2,39.2 37.1,39.2 37.1,47 29.2,47   "></polygon></g><g enable-background="new    "><polygon display="none" fill="none" points="39.2,39.2 47,39.2 47,47 39.2,47   "></polygon></g><g enable-background="new    "><polygon display="none" fill="none" points="49.1,39.2 57,39.2 57,47 49.1,47   "></polygon></g><g enable-background="new    "><polygon display="none" fill="none" points="39.2,49 47,49 47,56.8 39.2,56.8   "></polygon></g><g enable-background="new    "><polygon display="none" fill="none" points="29.2,49 37.1,49 37.1,56.8 29.2,56.8   "></polygon></g><g enable-background="new    "><polygon display="none" fill="none" points="19.2,49 27.1,49 27.1,56.8 19.2,56.8   "></polygon></g><g enable-background="new    "><polygon display="none" fill="none" points="19.2,58.7 27.1,58.7 27.1,66.6 19.2,66.6   "></polygon></g><g enable-background="new    "><polygon display="none" fill="none" points="29.2,58.7 37.1,58.7 37.1,66.6 29.2,66.6   "></polygon></g><g enable-background="new    "><polygon display="none" fill="none" points="39.2,58.7 47,58.7 47,66.6 39.2,66.6   "></polygon></g><g enable-background="new    "><polygon display="none" fill="none" points="49.1,58.7 57,58.7 57,66.6 49.1,66.6   "></polygon></g><g enable-background="new    "><polygon display="none" fill="none" points="49.1,68.7 57,68.7 57,76.6 49.1,76.6   "></polygon></g><g enable-background="new    "><polygon display="none" fill="none" points="39.2,68.7 47,68.7 47,76.6 39.2,76.6   "></polygon></g><g enable-background="new    "><polygon display="none" fill="none" points="29.2,68.7 37.1,68.7 37.1,76.6 29.2,76.6   "></polygon></g><g enable-background="new    "><polygon display="none" fill="none" points="19.2,68.7 27.1,68.7 27.1,76.6 19.2,76.6   "></polygon></g><g enable-background="new    "><path d="M57.8,37.4H18.4c-0.6,0-1,0.5-1,1v38.9c0,0.6,0.5,1,1,1h39.4c0.6,0,1-0.5,1-1V38.5C58.9,37.9,58.4,37.4,57.8,37.4z     M27.1,76.2c0,0.2-0.2,0.3-0.3,0.3h-7.2c-0.2,0-0.3-0.2-0.3-0.3v-7.2c0-0.2,0.2-0.3,0.3-0.3h7.2c0.2,0,0.3,0.2,0.3,0.3V76.2z     M27.1,66.3c0,0.2-0.2,0.3-0.3,0.3h-7.2c-0.2,0-0.3-0.2-0.3-0.3v-7.2c0-0.2,0.2-0.3,0.3-0.3h7.2c0.2,0,0.3,0.2,0.3,0.3V66.3z     M27.1,56.5c0,0.2-0.2,0.3-0.3,0.3h-7.2c-0.2,0-0.3-0.2-0.3-0.3v-7.2c0-0.2,0.2-0.3,0.3-0.3h7.2c0.2,0,0.3,0.2,0.3,0.3V56.5z     M27.1,46.7c0,0.2-0.2,0.3-0.3,0.3h-7.2c-0.2,0-0.3-0.2-0.3-0.3v-7.2c0-0.2,0.2-0.3,0.3-0.3h7.2c0.2,0,0.3,0.2,0.3,0.3V46.7z     M37.1,76.2c0,0.2-0.2,0.3-0.3,0.3h-7.2c-0.2,0-0.3-0.2-0.3-0.3v-7.2c0-0.2,0.2-0.3,0.3-0.3h7.2c0.2,0,0.3,0.2,0.3,0.3V76.2z     M37.1,66.3c0,0.2-0.2,0.3-0.3,0.3h-7.2c-0.2,0-0.3-0.2-0.3-0.3v-7.2c0-0.2,0.2-0.3,0.3-0.3h7.2c0.2,0,0.3,0.2,0.3,0.3V66.3z     M37.1,56.5c0,0.2-0.2,0.3-0.3,0.3h-7.2c-0.2,0-0.3-0.2-0.3-0.3v-7.2c0-0.2,0.2-0.3,0.3-0.3h7.2c0.2,0,0.3,0.2,0.3,0.3V56.5z     M37.1,46.7c0,0.2-0.2,0.3-0.3,0.3h-7.2c-0.2,0-0.3-0.2-0.3-0.3v-7.2c0-0.2,0.2-0.3,0.3-0.3h7.2c0.2,0,0.3,0.2,0.3,0.3V46.7z     M47,76.2c0,0.2-0.2,0.3-0.3,0.3h-7.2c-0.2,0-0.3-0.2-0.3-0.3v-7.2c0-0.2,0.2-0.3,0.3-0.3h7.2c0.2,0,0.3,0.2,0.3,0.3V76.2z     M47,66.3c0,0.2-0.2,0.3-0.3,0.3h-7.2c-0.2,0-0.3-0.2-0.3-0.3v-7.2c0-0.2,0.2-0.3,0.3-0.3h7.2c0.2,0,0.3,0.2,0.3,0.3V66.3z     M47,56.5c0,0.2-0.2,0.3-0.3,0.3h-7.2c-0.2,0-0.3-0.2-0.3-0.3v-7.2c0-0.2,0.2-0.3,0.3-0.3h7.2c0.2,0,0.3,0.2,0.3,0.3V56.5z     M47,46.7c0,0.2-0.2,0.3-0.3,0.3h-7.2c-0.2,0-0.3-0.2-0.3-0.3v-7.2c0-0.2,0.2-0.3,0.3-0.3h7.2c0.2,0,0.3,0.2,0.3,0.3V46.7z     M57,76.2c0,0.2-0.2,0.3-0.3,0.3h-7.2c-0.2,0-0.3-0.2-0.3-0.3v-7.2c0-0.2,0.2-0.3,0.3-0.3h7.2c0.2,0,0.3,0.2,0.3,0.3V76.2z     M57,66.3c0,0.2-0.2,0.3-0.3,0.3h-7.2c-0.2,0-0.3-0.2-0.3-0.3v-7.2c0-0.2,0.2-0.3,0.3-0.3h7.2c0.2,0,0.3,0.2,0.3,0.3V66.3z     M57,56.5c0,0.2-0.2,0.3-0.3,0.3h-7.2c-0.2,0-0.3-0.2-0.3-0.3v-7.2c0-0.2,0.2-0.3,0.3-0.3h7.2c0.2,0,0.3,0.2,0.3,0.3V56.5z     M57,46.7c0,0.2-0.2,0.3-0.3,0.3h-7.2c-0.2,0-0.3-0.2-0.3-0.3v-7.2c0-0.2,0.2-0.3,0.3-0.3h7.2c0.2,0,0.3,0.2,0.3,0.3V46.7z"></path><polygon display="none" fill="none" points="49.1,49 57,49 57,56.8 49.1,56.8   "></polygon></g><path fill="#000000" d="M64.5,41.5h-2.4c-0.1,0-0.2,0.1-0.2,0.2v0.6c0,0.1,0.1,0.2,0.2,0.2h2.4c0.1,0,0.2-0.1,0.2-0.2v-0.6   C64.7,41.6,64.6,41.5,64.5,41.5z"></path><polygon fill="#000000" points="81.5,27.7 81.5,27.2 81.5,27.2  "></polygon><path d="M81.5,17.1H63.2c-0.6,0-1,0.5-1,1v9c0,0.6,0.5,1,1,1h18.3c0.6,0,1-0.5,1-1v-9C82.5,17.6,82.1,17.1,81.5,17.1z M81.5,27.2   H63.2v-9h18.3V27.2z M81.5,27.7v-0.5l0,0V27.7z"></path><g display="none"><path display="inline" d="M81.2,87H18.9c-2.5,0-4.8-1-6.5-2.8c-1.2-1.2-1.9-2.9-1.9-4.5c0-3,0.1-33.7,0.2-50.1    c0-6.3,0-10.6,0-10.8v-0.4l3.5-4.9c0.2-0.4,0.6-0.7,1.1-0.7h69.4c0.5,0,0.8,0.3,1.1,0.5l3.5,5v0.4c0,0.5,0.2,56.8,0.3,60.9    c0,1.6-0.7,3.2-1.9,4.6C86,86,83.7,87,81.2,87z M11.7,18.8L11.7,18.8c0,0.2,0,4.5,0,10.8c-0.1,16.4-0.2,47-0.2,50.1    c0,1.4,0.6,2.8,1.7,3.8c1.5,1.6,3.6,2.5,5.7,2.5h62.3c2.2,0,4.3-0.9,5.7-2.4c1.1-1.2,1.7-2.5,1.7-3.9c-0.1-4.1-0.3-60.4-0.3-60.9    v0L85,14.1c-0.1-0.1-0.2-0.2-0.3-0.2H15.3c-0.2,0-0.2,0-0.3,0.2L11.7,18.8z"></path></g><g><path d="M67.4,72.7h-3.6c-0.3,0-0.6-0.3-0.6-0.6v-2c0-0.3,0.3-0.6,0.6-0.6h3.6c0.3,0,0.6,0.3,0.6,0.6v2    C68,72.4,67.8,72.7,67.4,72.7z M63.8,69.7c-0.2,0-0.4,0.2-0.4,0.4v2c0,0.2,0.2,0.4,0.4,0.4h3.6c0.2,0,0.4-0.2,0.4-0.4v-2    c0-0.2-0.2-0.4-0.4-0.4H63.8z"></path></g><path d="M64.4,76.8h-2.3c-0.1,0-0.3-0.1-0.3-0.3v-0.5c0-0.1,0.1-0.3,0.3-0.3h2.3c0.1,0,0.3,0.1,0.3,0.3v0.5   C64.7,76.7,64.6,76.8,64.4,76.8z"></path><path d="M68.8,76.8h-2.3c-0.1,0-0.3-0.1-0.3-0.3v-0.5c0-0.1,0.1-0.3,0.3-0.3h2.3c0.1,0,0.3,0.1,0.3,0.3v0.5   C69.1,76.7,69,76.8,68.8,76.8z"></path><path d="M73.3,76.8h-2.3c-0.1,0-0.3-0.1-0.3-0.3v-0.5c0-0.1,0.1-0.3,0.3-0.3h2.3c0.1,0,0.3,0.1,0.3,0.3v0.5   C73.6,76.7,73.5,76.8,73.3,76.8z"></path><path d="M77.8,76.8h-2.3c-0.1,0-0.3-0.1-0.3-0.3v-0.5c0-0.1,0.1-0.3,0.3-0.3h2.3c0.1,0,0.3,0.1,0.3,0.3v0.5   C78,76.7,77.9,76.8,77.8,76.8z"></path><path d="M82.1,76.8h-2.3c-0.1,0-0.3-0.1-0.3-0.3v-0.5c0-0.1,0.1-0.3,0.3-0.3h2.3c0.1,0,0.3,0.1,0.3,0.3v0.5   C82.4,76.7,82.3,76.8,82.1,76.8z"></path><path d="M64.4,42.5h-2.3c-0.1,0-0.3-0.1-0.3-0.3v-0.5c0-0.1,0.1-0.3,0.3-0.3h2.3c0.1,0,0.3,0.1,0.3,0.3v0.5   C64.7,42.4,64.6,42.5,64.4,42.5z"></path><path d="M68.8,42.5h-2.3c-0.1,0-0.3-0.1-0.3-0.3v-0.5c0-0.1,0.1-0.3,0.3-0.3h2.3c0.1,0,0.3,0.1,0.3,0.3v0.5   C69.1,42.4,69,42.5,68.8,42.5z"></path><path d="M73.3,42.5h-2.3c-0.1,0-0.3-0.1-0.3-0.3v-0.5c0-0.1,0.1-0.3,0.3-0.3h2.3c0.1,0,0.3,0.1,0.3,0.3v0.5   C73.6,42.4,73.5,42.5,73.3,42.5z"></path><path d="M77.8,42.5h-2.3c-0.1,0-0.3-0.1-0.3-0.3v-0.5c0-0.1,0.1-0.3,0.3-0.3h2.3c0.1,0,0.3,0.1,0.3,0.3v0.5   C78,42.4,77.9,42.5,77.8,42.5z"></path><path d="M82.1,42.5h-2.3c-0.1,0-0.3-0.1-0.3-0.3v-0.5c0-0.1,0.1-0.3,0.3-0.3h2.3c0.1,0,0.3,0.1,0.3,0.3v0.5   C82.4,42.4,82.3,42.5,82.1,42.5z"></path><path fill="#000000" d="M64.5,37.7h-2.4c-0.1,0-0.2,0.1-0.2,0.2v0.6c0,0.1,0.1,0.2,0.2,0.2h2.4c0.1,0,0.2-0.1,0.2-0.2v-0.6   C64.7,37.8,64.6,37.7,64.5,37.7z"></path><path d="M64.4,38.7h-2.3c-0.1,0-0.3-0.1-0.3-0.3V38c0-0.1,0.1-0.3,0.3-0.3h2.3c0.1,0,0.3,0.1,0.3,0.3v0.5   C64.7,38.6,64.6,38.7,64.4,38.7z"></path><path d="M68.8,38.7h-2.3c-0.1,0-0.3-0.1-0.3-0.3V38c0-0.1,0.1-0.3,0.3-0.3h2.3c0.1,0,0.3,0.1,0.3,0.3v0.5   C69.1,38.6,69,38.7,68.8,38.7z"></path><path d="M73.3,38.7h-2.3c-0.1,0-0.3-0.1-0.3-0.3V38c0-0.1,0.1-0.3,0.3-0.3h2.3c0.1,0,0.3,0.1,0.3,0.3v0.5   C73.6,38.6,73.5,38.7,73.3,38.7z"></path><path d="M77.8,38.7h-2.3c-0.1,0-0.3-0.1-0.3-0.3V38c0-0.1,0.1-0.3,0.3-0.3h2.3c0.1,0,0.3,0.1,0.3,0.3v0.5   C78,38.6,77.9,38.7,77.8,38.7z"></path><path d="M82.1,38.7h-2.3c-0.1,0-0.3-0.1-0.3-0.3V38c0-0.1,0.1-0.3,0.3-0.3h2.3c0.1,0,0.3,0.1,0.3,0.3v0.5   C82.4,38.6,82.3,38.7,82.1,38.7z"></path><path fill="#000000" d="M64.5,33.8h-2.4c-0.1,0-0.2,0.1-0.2,0.2v0.6c0,0.1,0.1,0.2,0.2,0.2h2.4c0.1,0,0.2-0.1,0.2-0.2V34   C64.7,33.9,64.6,33.8,64.5,33.8z"></path><path d="M64.5,34.8h-2.3c-0.1,0-0.3-0.1-0.3-0.3v-0.5c0-0.1,0.1-0.3,0.3-0.3h2.3c0.1,0,0.3,0.1,0.3,0.3v0.5   C64.7,34.7,64.6,34.8,64.5,34.8z"></path><path d="M68.9,34.8h-2.3c-0.1,0-0.3-0.1-0.3-0.3v-0.5c0-0.1,0.1-0.3,0.3-0.3h2.3c0.1,0,0.3,0.1,0.3,0.3v0.5   C69.1,34.7,69,34.8,68.9,34.8z"></path><path d="M73.4,34.8h-2.3c-0.1,0-0.3-0.1-0.3-0.3v-0.5c0-0.1,0.1-0.3,0.3-0.3h2.3c0.1,0,0.3,0.1,0.3,0.3v0.5   C73.6,34.7,73.5,34.8,73.4,34.8z"></path><g><path d="M66.3,60.6c-1.4,0-2.5,1.1-2.5,2.5c0,1.4,1.1,2.5,2.5,2.5s2.5-1.1,2.5-2.5C68.8,61.7,67.7,60.6,66.3,60.6z M66.3,65.4    c-1.3,0-2.3-1-2.3-2.3s1-2.3,2.3-2.3s2.3,1,2.3,2.3S67.6,65.4,66.3,65.4z"></path><circle cx="66.3" cy="63.1" r="1.4"></circle></g><g><path d="M65.6,68.7c-0.2,0-0.4-0.2-0.4-0.4s0.2-0.4,0.4-0.4s0.4,0.2,0.4,0.4S65.8,68.7,65.6,68.7z M65.6,68.1    c-0.1,0-0.2,0.1-0.2,0.2s0.1,0.2,0.2,0.2s0.2-0.1,0.2-0.2S65.7,68.1,65.6,68.1z"></path></g><g><path d="M89.7,17.2l-4.5-3.8c-0.4-0.3-0.8-0.5-1.3-0.5H16.1c-0.5,0-1,0.2-1.3,0.5l-4.2,3.8c-0.4,0.4-0.7,0.9-0.7,1.5v61.1    c0,0.4,0.1,0.7,0.3,1l4.4,7.3c0.4,0.6,1,1,1.7,1h67.5c0.7,0,1.3-0.3,1.7-0.9l4.6-7.3c0.2-0.3,0.3-0.7,0.3-1.1V18.7    C90.4,18.1,90.2,17.6,89.7,17.2z M84.1,15.2v63.9c0,0.4-0.3,0.8-0.8,0.8H16.7c-0.4,0-0.8-0.3-0.8-0.8V15.2c0-0.1,0-0.1,0-0.2    l0.1-0.1H84L84,15C84.1,15,84.1,15.1,84.1,15.2z M88.4,79.8l-4.6,7.3c0,0,0,0,0,0H16.3l-4.4-7.3l0-61.1l3.6-3.2v63.6    c0,0.7,0.6,1.3,1.3,1.3h66.6c0.7,0,1.3-0.6,1.3-1.3V15.4l3.8,3.3L88.4,79.8z"></path></g><g><path d="M78,60.6c-1.4,0-2.5,1.1-2.5,2.5c0,1.4,1.1,2.5,2.5,2.5s2.5-1.1,2.5-2.5C80.5,61.7,79.4,60.6,78,60.6z M78,65.4    c-1.3,0-2.3-1-2.3-2.3s1-2.3,2.3-2.3s2.3,1,2.3,2.3S79.3,65.4,78,65.4z"></path><circle cx="78" cy="63.1" r="1.4"></circle></g><g><path d="M66.4,53.1c-1.4,0-2.5,1.1-2.5,2.5c0,1.4,1.1,2.5,2.5,2.5s2.5-1.1,2.5-2.5C68.9,54.2,67.8,53.1,66.4,53.1z M68.6,55.6    c0,1.3-1,2.3-2.3,2.3s-2.3-1-2.3-2.3s1-2.3,2.3-2.3S68.6,54.3,68.6,55.6z"></path><circle cx="66.4" cy="55.6" r="1.4"></circle></g><g><path d="M78.1,53.1c-1.4,0-2.5,1.1-2.5,2.5c0,1.4,1.1,2.5,2.5,2.5s2.5-1.1,2.5-2.5C80.6,54.2,79.5,53.1,78.1,53.1z M80.3,55.6    c0,1.3-1,2.3-2.3,2.3s-2.3-1-2.3-2.3s1-2.3,2.3-2.3S80.3,54.3,80.3,55.6z"></path><circle cx="78.1" cy="55.6" r="1.4"></circle></g><g><path d="M66.4,45.6c-1.4,0-2.5,1.1-2.5,2.5c0,1.4,1.1,2.5,2.5,2.5s2.5-1.1,2.5-2.5C69,46.7,67.8,45.6,66.4,45.6z M68.7,48.1    c0,1.3-1,2.3-2.3,2.3s-2.3-1-2.3-2.3c0-1.3,1-2.3,2.3-2.3S68.7,46.8,68.7,48.1z"></path><circle cx="66.4" cy="48.1" r="1.4"></circle></g><g><path d="M78.1,45.6c-1.4,0-2.5,1.1-2.5,2.5c0,1.4,1.1,2.5,2.5,2.5s2.5-1.1,2.5-2.5C80.7,46.7,79.5,45.6,78.1,45.6z M80.4,48.1    c0,1.3-1,2.3-2.3,2.3s-2.3-1-2.3-2.3c0-1.3,1-2.3,2.3-2.3S80.4,46.8,80.4,48.1z"></path><circle cx="78.1" cy="48.1" r="1.4"></circle></g><g><path d="M74,72.7h-3.6c-0.3,0-0.6-0.3-0.6-0.6v-2c0-0.3,0.3-0.6,0.6-0.6H74c0.3,0,0.6,0.3,0.6,0.6v2C74.6,72.4,74.4,72.7,74,72.7z     M70.4,69.7c-0.2,0-0.4,0.2-0.4,0.4v2c0,0.2,0.2,0.4,0.4,0.4H74c0.2,0,0.4-0.2,0.4-0.4v-2c0-0.2-0.2-0.4-0.4-0.4H70.4z"></path></g><g><path d="M72.2,68.7c-0.2,0-0.4-0.2-0.4-0.4s0.2-0.4,0.4-0.4s0.4,0.2,0.4,0.4S72.4,68.7,72.2,68.7z M72.2,68.1    c-0.1,0-0.2,0.1-0.2,0.2s0.1,0.2,0.2,0.2s0.2-0.1,0.2-0.2S72.3,68.1,72.2,68.1z"></path></g><g><path d="M80.7,72.7h-3.6c-0.3,0-0.6-0.3-0.6-0.6v-2c0-0.3,0.3-0.6,0.6-0.6h3.6c0.3,0,0.6,0.3,0.6,0.6v2    C81.3,72.4,81.1,72.7,80.7,72.7z M77.1,69.7c-0.2,0-0.4,0.2-0.4,0.4v2c0,0.2,0.2,0.4,0.4,0.4h3.6c0.2,0,0.4-0.2,0.4-0.4v-2    c0-0.2-0.2-0.4-0.4-0.4H77.1z"></path></g><g><path d="M78.9,30c-1.4,0-2.5,1.1-2.5,2.5c0,1.4,1.1,2.5,2.5,2.5s2.5-1.1,2.5-2.5C81.4,31.1,80.3,30,78.9,30z M81.2,32.5    c0,1.3-1,2.3-2.3,2.3s-2.3-1-2.3-2.3c0-1.3,1-2.3,2.3-2.3S81.2,31.2,81.2,32.5z"></path><circle cx="78.9" cy="32.5" r="1.4"></circle></g><path d="M18,17v17h6V17H18z M23.6,32.2c0,0.3-0.2,0.5-0.5,0.5H19c-0.3,0-0.5-0.2-0.5-0.5v-0.7h2h0.9h2.1V32.2z M23.6,30.7h-2.1   h-0.9h-2V30c0-0.3,0.2-0.5,0.5-0.5h1.5V18.8c0-0.2,0.2-0.3,0.3-0.3h0.3c0.2,0,0.3,0.2,0.3,0.3v10.7h1.6c0.3,0,0.5,0.2,0.5,0.5V30.7   z"></path><path d="M32,17v17h6V17H32z M37.6,27.4c0,0.3-0.2,0.5-0.5,0.5h-1.6v4.3c0,0.2-0.2,0.3-0.3,0.3h-0.3c-0.2,0-0.3-0.2-0.3-0.3v-4.3H33   c-0.3,0-0.5-0.2-0.5-0.5v-0.7h2h0.9h2.1V27.4z M37.6,25.9h-2.1h-0.9h-2v-0.7c0-0.3,0.2-0.5,0.5-0.5h1.5v-5.9c0-0.2,0.2-0.3,0.3-0.3   h0.3c0.2,0,0.3,0.2,0.3,0.3v5.9h1.6c0.3,0,0.5,0.2,0.5,0.5V25.9z"></path><path d="M39,17v17h6V17H39z M44.6,25.4c0,0.3-0.2,0.5-0.5,0.5h-1.6v6.3c0,0.2-0.2,0.3-0.3,0.3h-0.3c-0.2,0-0.3-0.2-0.3-0.3v-6.3H40   c-0.3,0-0.5-0.2-0.5-0.5v-0.7h2h0.9h2.1V25.4z M44.6,23.9h-2.1h-0.9h-2v-0.7c0-0.3,0.2-0.5,0.5-0.5h1.5v-3.9c0-0.2,0.2-0.3,0.3-0.3   h0.3c0.2,0,0.3,0.2,0.3,0.3v3.9h1.6c0.3,0,0.5,0.2,0.5,0.5V23.9z"></path><path d="M46,17v17h6V17H46z M51.6,23.1c0,0.3-0.2,0.5-0.5,0.5h-1.6v8.6c0,0.2-0.2,0.3-0.3,0.3h-0.3c-0.2,0-0.3-0.2-0.3-0.3v-8.6H47   c-0.3,0-0.5-0.2-0.5-0.5v-0.7h2h0.9h2.1V23.1z M51.6,21.6h-2.1h-0.9h-2v-0.7c0-0.3,0.2-0.5,0.5-0.5h1.5v-1.6c0-0.2,0.2-0.3,0.3-0.3   h0.3c0.2,0,0.3,0.2,0.3,0.3v1.6h1.6c0.3,0,0.5,0.2,0.5,0.5V21.6z"></path><path d="M53,17v17h6V17H53z M58.6,21.1c0,0.3-0.2,0.5-0.5,0.5h-1.6v10.6c0,0.2-0.2,0.3-0.3,0.3h-0.3c-0.2,0-0.3-0.2-0.3-0.3V21.6   H54c-0.3,0-0.5-0.2-0.5-0.5v-0.7h2h0.9h2.1V21.1z M58.6,19.6h-2.1h-0.9h-2v-0.7c0-0.3,0.2-0.5,0.5-0.5h4.1c0.3,0,0.5,0.2,0.5,0.5   V19.6z"></path><path d="M25,17v17h6V17H25z M30.6,29.8c0,0.3-0.2,0.5-0.5,0.5h-1.6v1.9c0,0.2-0.2,0.3-0.3,0.3h-0.3c-0.2,0-0.3-0.2-0.3-0.3v-1.9H26   c-0.3,0-0.5-0.2-0.5-0.5v-0.7h2h0.9h2.1V29.8z M30.6,28.3h-2.1h-0.9h-2v-0.7c0-0.3,0.2-0.5,0.5-0.5h1.5v-8.3c0-0.2,0.2-0.3,0.3-0.3   h0.3c0.2,0,0.3,0.2,0.3,0.3v8.3h1.6c0.3,0,0.5,0.2,0.5,0.5V28.3z"></path></g></svg>