<svg height='300px' width='300px'  fill="#000000" xmlns="http://www.w3.org/2000/svg" xmlns:xlink="http://www.w3.org/1999/xlink" version="1.1" x="0px" y="0px" viewBox="0 0 100 100" enable-background="new 0 0 100 100" xml:space="preserve"><g><path d="M87.876,12.687H12.125c-6.568,0-11.911,5.343-11.911,11.911v50.806c0,6.566,5.343,11.91,11.911,11.91h75.751   c6.567,0,11.911-5.344,11.911-11.91V24.598C99.787,18.03,94.443,12.687,87.876,12.687z M22.05,85.521h-9.029V53.902h7.284v15.285   c0,1.136,0.731,2.096,1.745,2.457V85.521z M32.871,85.521h-9.027v-13.89c0.99-0.375,1.7-1.325,1.7-2.444V53.902h5.589v15.285   c0,1.134,0.727,2.093,1.738,2.455V85.521z M43.693,85.521h-9.029V71.633c0.995-0.373,1.708-1.323,1.708-2.445V53.902h7.321V85.521z    M54.515,85.521h-9.03V53.902h7.302v15.285c0,1.13,0.723,2.086,1.728,2.452V85.521z M65.336,85.521h-9.028V71.638   c0.999-0.37,1.716-1.325,1.716-2.45V53.902h5.589v15.285c0,1.127,0.723,2.083,1.724,2.451V85.521z M76.155,85.521H67.13V71.639   c1.002-0.368,1.722-1.324,1.722-2.451V53.902h5.588v15.285c0,1.125,0.717,2.08,1.716,2.45V85.521z M86.978,85.521h-9.028V71.64   c1.008-0.366,1.73-1.322,1.73-2.452V53.902h7.298V85.521z M87.577,42.059H12.424v-17.53h75.153V42.059z"></path><path d="M21.189,38.838c3.062,0,5.545-2.482,5.545-5.544c0-3.061-2.483-5.543-5.545-5.543c-3.062,0-5.544,2.482-5.544,5.543   C15.645,36.355,18.127,38.838,21.189,38.838z M21.189,30.743c1.409,0,2.551,1.142,2.551,2.551c0,1.409-1.142,2.551-2.551,2.551   s-2.551-1.142-2.551-2.551C18.638,31.885,19.78,30.743,21.189,30.743z"></path><path d="M32.49,32.362h0.019c0.656-0.005,1.271-0.266,1.731-0.732c0.459-0.468,0.71-1.087,0.706-1.743   c-0.012-1.343-1.113-2.437-2.476-2.437c-0.656,0.005-1.27,0.265-1.73,0.733c-0.461,0.467-0.711,1.085-0.706,1.742   C30.045,31.269,31.146,32.362,32.49,32.362z"></path><path d="M41.116,32.362h0.02c0.655-0.005,1.27-0.266,1.73-0.732c0.459-0.468,0.711-1.087,0.706-1.743   c-0.01-1.343-1.113-2.437-2.475-2.437c-0.656,0.005-1.271,0.265-1.73,0.733c-0.461,0.467-0.711,1.085-0.706,1.742   C38.672,31.269,39.773,32.362,41.116,32.362z"></path><path d="M49.742,32.362h0.02c0.655-0.005,1.27-0.266,1.729-0.732c0.461-0.468,0.711-1.087,0.705-1.743   c-0.011-1.343-1.111-2.437-2.474-2.437c-0.656,0.005-1.271,0.265-1.73,0.733c-0.462,0.467-0.711,1.085-0.706,1.742   C47.297,31.269,48.398,32.362,49.742,32.362z"></path><path d="M32.49,39.136h0.019c0.656-0.004,1.271-0.264,1.731-0.732c0.459-0.467,0.71-1.085,0.706-1.741   c-0.012-1.344-1.113-2.437-2.476-2.437c-0.656,0.005-1.27,0.265-1.73,0.733c-0.461,0.466-0.711,1.085-0.706,1.74   C30.045,38.043,31.146,39.136,32.49,39.136z"></path><path d="M41.116,39.136h0.02c0.655-0.004,1.27-0.264,1.73-0.732c0.459-0.467,0.711-1.085,0.706-1.741   c-0.01-1.344-1.113-2.437-2.475-2.437c-0.656,0.005-1.271,0.265-1.73,0.733c-0.461,0.466-0.711,1.085-0.706,1.74   C38.672,38.043,39.773,39.136,41.116,39.136z"></path><path d="M49.742,39.136h0.02c0.655-0.004,1.27-0.264,1.729-0.732c0.461-0.467,0.711-1.085,0.705-1.741   c-0.011-1.344-1.111-2.437-2.474-2.437c-0.656,0.005-1.271,0.265-1.73,0.733c-0.462,0.466-0.711,1.085-0.706,1.74   C47.297,38.043,48.398,39.136,49.742,39.136z"></path><path d="M60.525,34.671h1.258v4.16c0,0.495,0.403,0.896,0.898,0.896s0.896-0.401,0.896-0.896v-4.16h1.261   c0.167,0,0.3-0.134,0.3-0.3v-2.155c0-0.166-0.133-0.3-0.3-0.3h-1.261v-4.159c0-0.495-0.4-0.896-0.896-0.896   s-0.898,0.401-0.898,0.896v4.159h-1.258c-0.167,0-0.299,0.134-0.299,0.3v2.155C60.227,34.537,60.358,34.671,60.525,34.671z"></path><path d="M69.151,34.671h1.261v4.16c0,0.495,0.4,0.896,0.896,0.896s0.898-0.401,0.898-0.896v-4.16h1.258c0.167,0,0.3-0.134,0.3-0.3   v-2.155c0-0.166-0.133-0.3-0.3-0.3h-1.258v-4.159c0-0.495-0.403-0.896-0.898-0.896s-0.896,0.401-0.896,0.896v4.159h-1.261   c-0.164,0-0.3,0.134-0.3,0.3v2.155C68.852,34.537,68.987,34.671,69.151,34.671z"></path><path d="M77.779,34.671h1.259v4.16c0,0.495,0.402,0.896,0.897,0.896c0.492,0,0.896-0.401,0.896-0.896v-4.16h1.259   c0.167,0,0.302-0.134,0.302-0.3v-2.155c0-0.166-0.135-0.3-0.302-0.3h-1.259v-4.159c0-0.495-0.403-0.896-0.896-0.896   c-0.495,0-0.897,0.401-0.897,0.896v4.159h-1.259c-0.167,0-0.299,0.134-0.299,0.3v2.155C77.48,34.537,77.612,34.671,77.779,34.671z"></path></g></svg>