<svg height='300px' width='300px'  fill="#000000" xmlns="http://www.w3.org/2000/svg" xmlns:xlink="http://www.w3.org/1999/xlink" version="1.1" x="0px" y="0px" viewBox="0 0 64 64" style="enable-background:new 0 0 64 64;" xml:space="preserve"><path d="M61,14H3c-0.552,0-1,0.448-1,1v34c0,0.552,0.448,1,1,1h58c0.552,0,1-0.448,1-1V15C62,14.448,61.552,14,61,14z M40,16v32H24  V16H40z M4,16h18v32H4V16z M60,48H42V16h18V48z"></path><path d="M21,27c0-4.411-3.589-8-8-8s-8,3.589-8,8s3.589,8,8,8S21,31.411,21,27z M13,33c-3.309,0-6-2.691-6-6s2.691-6,6-6  s6,2.691,6,6S16.309,33,13,33z"></path><path d="M32,26c2.206,0,4-1.794,4-4s-1.794-4-4-4s-4,1.794-4,4S29.794,26,32,26z M31,20.278V22h2v-1.722  c0.595,0.347,1,0.985,1,1.722c0,1.103-0.897,2-2,2s-2-0.897-2-2C30,21.263,30.405,20.625,31,20.278z"></path><path d="M32,36c2.206,0,4-1.794,4-4s-1.794-4-4-4s-4,1.794-4,4S29.794,36,32,36z M32,30c0.737,0,1.375,0.405,1.722,1H32v2h1.722  c-0.347,0.595-0.985,1-1.722,1c-1.103,0-2-0.897-2-2S30.897,30,32,30z"></path><rect x="6" y="39" width="2" height="2"></rect><rect x="10" y="39" width="2" height="2"></rect><rect x="14" y="39" width="2" height="2"></rect><rect x="18" y="39" width="2" height="2"></rect><rect x="6" y="44" width="2" height="2"></rect><rect x="10" y="44" width="2" height="2"></rect><rect x="14" y="44" width="2" height="2"></rect><rect x="18" y="44" width="2" height="2"></rect><path d="M13,24c-1.654,0-3,1.346-3,3s1.346,3,3,3s3-1.346,3-3S14.654,24,13,24z M13,28c-0.551,0-1-0.449-1-1s0.449-1,1-1  s1,0.449,1,1S13.551,28,13,28z"></path><path d="M51,35c4.411,0,8-3.589,8-8s-3.589-8-8-8s-8,3.589-8,8S46.589,35,51,35z M51,21c3.309,0,6,2.691,6,6s-2.691,6-6,6  s-6-2.691-6-6S47.691,21,51,21z"></path><path d="M51,30c1.654,0,3-1.346,3-3s-1.346-3-3-3s-3,1.346-3,3S49.346,30,51,30z M51,26c0.551,0,1,0.449,1,1s-0.449,1-1,1  s-1-0.449-1-1S50.449,26,51,26z"></path><rect x="44" y="39" width="2" height="2"></rect><rect x="48" y="39" width="2" height="2"></rect><rect x="52" y="39" width="2" height="2"></rect><rect x="56" y="39" width="2" height="2"></rect><rect x="44" y="44" width="2" height="2"></rect><rect x="48" y="44" width="2" height="2"></rect><rect x="52" y="44" width="2" height="2"></rect><rect x="56" y="44" width="2" height="2"></rect><polygon points="26,42 27,42 27,46 29,46 29,42 30,42 30,40 29,40 29,38 27,38 27,40 26,40 "></polygon><polygon points="35,38 35,43 34,43 34,45 35,45 35,46 37,46 37,45 38,45 38,43 37,43 37,38 "></polygon><rect x="18" y="18" width="2" height="2"></rect><rect x="56" y="18" width="2" height="2"></rect></svg>