<svg height='300px' width='300px'  fill="#000000" xmlns="http://www.w3.org/2000/svg" xmlns:xlink="http://www.w3.org/1999/xlink" version="1.1" x="0px" y="0px" viewBox="0 0 90 90" enable-background="new 0 0 90 90" xml:space="preserve"><path d="M85.532,21.063L4.472,21.056c-1.843,0-3.338,1.495-3.338,3.333V65.6c0,1.842,1.495,3.336,3.338,3.336l81.061,0.008  c1.839,0,3.333-1.492,3.333-3.338V24.396C88.865,22.559,87.371,21.063,85.532,21.063z M58.832,26.324  c0-0.316,0.255-0.571,0.57-0.571h7.979c0.316,0,0.566,0.255,0.566,0.571v7.979c0,0.316-0.25,0.572-0.566,0.572h-7.979  c-0.315,0-0.57-0.256-0.57-0.572V26.324z M45.684,26.324c0-0.316,0.258-0.571,0.573-0.571h7.975c0.316,0,0.574,0.255,0.574,0.571  v7.979c0,0.316-0.258,0.572-0.574,0.572h-7.975c-0.315,0-0.573-0.256-0.573-0.572V26.324z M12.039,58.383v2.238H8.035v-2.238  c0.433-1.227,0.726-3.35,0.726-5.771c0-2.42-0.293-4.543-0.726-5.77v-2.239h4.003v2.239c0.438,1.227,0.726,3.35,0.726,5.77  C12.764,55.033,12.477,57.156,12.039,58.383z M13.061,34.396H8.362c-1.002,0-0.137-2.071-0.137-2.071l-0.804-5.364  c0-0.523,0.419-0.943,0.941-0.943h4.699c0.516,0,0.938,0.42,0.938,0.943l0.885,5.364C14.884,32.325,13.882,34.396,13.061,34.396z   M23.077,58.383v2.238h-4.005v-2.238c0.438-1.227,0.729-3.35,0.729-5.771c0-2.42-0.291-4.543-0.729-5.77v-2.239h4.005v2.239  c0.005,0.021,0.013,0.045,0.021,0.064c0.425,1.234,0.705,3.329,0.705,5.705C23.803,55.033,23.513,57.156,23.077,58.383z   M26.274,33.149c-1.115,0-2.073-0.632-2.539-1.565h-3.47c-0.695,0-1.267-0.572-1.267-1.272c0-0.359,0.14-0.675,0.369-0.905  c0.228-0.23,0.552-0.369,0.898-0.369h3.478c0.465-0.926,1.416-1.565,2.531-1.565c1.108,0,2.063,0.64,2.529,1.565h11.972  c0.711,0,1.282,0.571,1.282,1.274c0,0.352-0.146,0.667-0.377,0.897c-0.232,0.235-0.549,0.375-0.905,0.375H28.811  C28.34,32.518,27.382,33.149,26.274,33.149z M81.049,66.693c0,0.316-0.275,0.572-0.623,0.572h-4.794v-0.008H29.891  c-0.341,0-0.623-0.256-0.623-0.572V38.536c0-0.291,0.235-0.529,0.544-0.564c0.025-0.008,0.05-0.008,0.078-0.008h4.747V54.99  c0,0.34,0.283,0.621,0.625,0.621h2.433c0.085,0,0.169-0.018,0.243-0.049c0.065-0.029,0.134-0.072,0.182-0.123  c0.113-0.117,0.185-0.273,0.185-0.441V37.972h0.013v-0.008h3.753V54.99c0,0.34,0.275,0.621,0.622,0.621h2.433  c0.086,0,0.17-0.018,0.243-0.049c0.071-0.029,0.132-0.072,0.188-0.123c0.114-0.117,0.182-0.273,0.182-0.441V37.972h0.011v-0.008  h11.37V54.99c0,0.34,0.28,0.621,0.621,0.621h2.403c0.306-0.037,0.544-0.299,0.544-0.613V37.972h0.108v-0.008h3.753V54.99  c0,0.34,0.284,0.621,0.628,0.621h2.401c0.299-0.037,0.542-0.299,0.542-0.613V37.972h0.111v-0.008h3.753V54.99  c0,0.34,0.275,0.621,0.625,0.621h2.401c0.302-0.037,0.539-0.299,0.539-0.613V37.972h4.878c0.348,0,0.623,0.255,0.623,0.572V66.693z   M81.102,34.303c0,0.316-0.256,0.572-0.572,0.572h-7.977c-0.315,0-0.57-0.256-0.57-0.572v-7.979c0-0.316,0.255-0.571,0.57-0.571  h7.977c0.316,0,0.572,0.255,0.572,0.571V34.303z"></path></svg>