<svg height='300px' width='300px'  fill="#000000" xmlns="http://www.w3.org/2000/svg" viewBox="0 0 32 32" x="0px" y="0px"><title>30-MIDI Controllers</title><g data-name="30-MIDI Controllers"><rect x="5" y="9" width="2" height="2"></rect><rect x="9" y="9" width="2" height="2"></rect><rect x="13" y="9" width="2" height="2"></rect><rect x="17" y="9" width="2" height="2"></rect><rect x="21" y="9" width="2" height="2"></rect><rect x="25" y="9" width="2" height="2"></rect><polygon points="19 17 19 19 20 19 20 21.75 22 21.75 22 19 23 19 23 17 22 17 22 12.75 20 12.75 20 17 19 17"></polygon><polygon points="15 13 15 19 14 19 14 21 15 21 15 22 17 22 17 21 18 21 18 19 17 19 17 13 15 13"></polygon><polygon points="10 22 12 22 12 18 13 18 13 16 12 16 12 13 10 13 10 16 9 16 9 18 10 18 10 22"></polygon><polygon points="5 22 7 22 7 16 8 16 8 14 7 14 7 13 5 13 5 14 4 14 4 16 5 16 5 22"></polygon><polygon points="25 21.75 27 21.75 27 16.75 28 16.75 28 14.75 27 14.75 27 12.75 25 12.75 25 14.75 24 14.75 24 16.75 25 16.75 25 21.75"></polygon><path d="M1,6V25H31V6ZM29,23H3V8H29Z"></path></g></svg>