<svg height='300px' width='300px'  fill="#000000" xmlns="http://www.w3.org/2000/svg" xmlns:xlink="http://www.w3.org/1999/xlink" version="1.1" x="0px" y="0px" viewBox="0 0 50 50" style="enable-background:new 0 0 50 50;" xml:space="preserve"><g><g><g><g><path d="M48,12.3H2c-0.6,0-1,0.4-1,1v23.5c0,0.5,0.4,1,1,1h46c0.5,0,1-0.5,1-1V13.3C49,12.7,48.5,12.3,48,12.3z M39.6,14.4h2v2      h-2V14.4z M39.6,17.9h2v2h-2V17.9z M36,14.4h2v2h-2V14.4z M36,17.9h2v2h-2V17.9z M32.4,14.4h2v2h-2V14.4z M32.4,17.9h2v2h-2      V17.9z M28.9,14.4h2v2h-2V14.4z M28.9,17.9h2v2h-2V17.9z M19.2,14.1c1.7,0,3,1.3,3,3c0,1.7-1.3,3-3,3c-1.7,0-3-1.3-3-3      C16.2,15.5,17.5,14.1,19.2,14.1z M11.4,14.1c1.7,0,3,1.3,3,3c0,1.7-1.3,3-3,3c-1.7,0-3-1.3-3-3C8.4,15.5,9.8,14.1,11.4,14.1z       M45,35.9H5V22h4.3v8.9h2.2V22h3.7v8.9h2.2V22H21v8.9h2.2V22h3.7v8.9H29V22h3.7v8.9h2.2V22h3.7v8.9h2.2V22H45V35.9z"></path></g></g><g><path d="M19.2,18.6c0.8,0,1.5-0.7,1.5-1.5c0-0.8-0.7-1.5-1.5-1.5s-1.5,0.7-1.5,1.5C17.7,18,18.3,18.6,19.2,18.6z"></path></g><g><rect x="10.1" y="30.9" width="0.5" height="4.9"></rect></g><g><rect x="16" y="30.9" width="0.5" height="4.9"></rect></g><g><rect x="21.8" y="30.9" width="0.5" height="4.9"></rect></g><g><rect x="27.7" y="30.9" width="0.5" height="4.9"></rect></g><g><rect x="33.5" y="30.9" width="0.5" height="4.9"></rect></g><g><rect x="39.4" y="30.9" width="0.5" height="4.9"></rect></g><g><circle cx="11.4" cy="17.1" r="1.5"></circle></g></g></g></svg>