<svg height='300px' width='300px'  fill="#000000" xmlns="http://www.w3.org/2000/svg" viewBox="0 0 32 32" x="0px" y="0px"><title>music instrument orchestra</title><g data-name="Layer 3"><path d="M27.5,2H4.5A2.50294,2.50294,0,0,0,2,4.5v23A2.50294,2.50294,0,0,0,4.5,30h23A2.50294,2.50294,0,0,0,30,27.5V4.5A2.50294,2.50294,0,0,0,27.5,2ZM4.5,3h23A1.50164,1.50164,0,0,1,29,4.5V14H3V4.5A1.50164,1.50164,0,0,1,4.5,3ZM5,23V15H6v8Zm1.5,1a.49971.49971,0,0,0,.5-.5V15H8v8.5a.49971.49971,0,0,0,.5.5H9v5H6V24ZM9,23V15h1v8Zm1,1h.5a.49971.49971,0,0,0,.5-.5V15h2.5V29H10Zm4.5-9H17v8.5a.49971.49971,0,0,0,.5.5H18v5H14.5ZM18,23V15h1v8Zm1,1h.5a.49971.49971,0,0,0,.5-.5V15h1v8.5a.49971.49971,0,0,0,.5.5H22v5H19Zm3-1V15h1v8Zm1,1h.5a.49971.49971,0,0,0,.5-.5V15h1v8.5a.49971.49971,0,0,0,.5.5H26v5H23Zm3-1V15h1v8ZM3,27.5V15H4v8.5a.49971.49971,0,0,0,.5.5H5v5H4.5A1.50164,1.50164,0,0,1,3,27.5ZM27.5,29H27V24h.5a.49971.49971,0,0,0,.5-.5V15h1V27.5A1.50164,1.50164,0,0,1,27.5,29Z"></path><path d="M5,6A1,1,0,1,0,4,5,1.0013,1.0013,0,0,0,5,6Z"></path><path d="M23,7.84625V12.5a.5.5,0,0,0,1,0V7.84625a.96614.96614,0,0,0,0-1.6925V4.5a.5.5,0,0,0-1,0V6.15375a.96614.96614,0,0,0,0,1.6925Z"></path><path d="M8,6A1,1,0,1,0,7,5,1.0013,1.0013,0,0,0,8,6Z"></path><path d="M11,6a1,1,0,1,0-1-1A1.0013,1.0013,0,0,0,11,6Z"></path><path d="M4.5,13h7a.49971.49971,0,0,0,.5-.5v-5a.49971.49971,0,0,0-.5-.5h-7a.49971.49971,0,0,0-.5.5v5A.49971.49971,0,0,0,4.5,13ZM5,8h6v4H5Z"></path><path d="M26,10.84625V12.5a.5.5,0,0,0,1,0V10.84625a.96614.96614,0,0,0,0-1.6925V4.5a.5.5,0,0,0-1,0V9.15375a.96614.96614,0,0,0,0,1.6925Z"></path><path d="M15,8a2.002,2.002,0,0,0,2-2,.49971.49971,0,0,0-.5-.5H15a.5.5,0,0,0,0,1h.84625A.98678.98678,0,0,1,15,7a1,1,0,1,1,.66553-1.74609.50006.50006,0,0,0,.666-.74609A2,2,0,1,0,15,8Z"></path><path d="M20,8a2,2,0,0,0,0-4,.49971.49971,0,0,0-.5.5V6a.5.5,0,0,0,1,0V5.15375A.98678.98678,0,0,1,21,6a1,1,0,1,1-1.74609-.66553.50006.50006,0,1,0-.74609-.666A1.9999,1.9999,0,0,0,20,8Z"></path><path d="M18.5,11.5H20a.5.5,0,0,0,0-1h-.84625A.98678.98678,0,0,1,20,10a1,1,0,1,1-.66553,1.74609.50006.50006,0,0,0-.666.74609A1.99991,1.99991,0,1,0,18,11,.49971.49971,0,0,0,18.5,11.5Z"></path><path d="M15,13a.49971.49971,0,0,0,.5-.5V11a.5.5,0,0,0-1,0v.84625A.98678.98678,0,0,1,14,11a1,1,0,1,1,1.74609.66553.50006.50006,0,1,0,.74609.666A1.99991,1.99991,0,1,0,15,13Z"></path></g></svg>