<svg height='300px' width='300px'  fill="#000000" xmlns="http://www.w3.org/2000/svg" xmlns:xlink="http://www.w3.org/1999/xlink" version="1.1" x="0px" y="0px" viewBox="0 0 100 100" enable-background="new 0 0 100 100" xml:space="preserve"><path d="M18.2,70.491c-3.06,0-5.55,2.489-5.55,5.549s2.491,5.552,5.55,5.552c3.06,0,5.55-2.492,5.55-5.552  C23.75,72.979,21.26,70.491,18.2,70.491z M18.2,78.441c-1.326,0-2.4-1.075-2.4-2.401s1.075-2.399,2.4-2.399  c1.326,0,2.4,1.073,2.4,2.399C20.601,77.365,19.526,78.441,18.2,78.441z"></path><path d="M18.2,54.44c-3.06,0-5.55,2.489-5.55,5.549s2.491,5.552,5.55,5.552c3.06,0,5.55-2.492,5.55-5.552S21.26,54.44,18.2,54.44z   M18.2,62.391c-1.326,0-2.4-1.075-2.4-2.401s1.075-2.399,2.4-2.399c1.326,0,2.4,1.073,2.4,2.399S19.526,62.391,18.2,62.391z"></path><path d="M18.2,38.389c-3.06,0-5.55,2.489-5.55,5.549s2.491,5.551,5.55,5.551c3.06,0,5.55-2.491,5.55-5.551S21.26,38.389,18.2,38.389  z M18.2,46.278c-1.326,0-2.4-1.074-2.4-2.399c0-1.326,1.075-2.401,2.4-2.401c1.326,0,2.4,1.076,2.4,2.401  C20.601,45.204,19.526,46.278,18.2,46.278z"></path><path d="M90.5,10.759h-81c-2.475,0-4.5,2.025-4.5,4.5v69.48c0,2.476,2.025,4.5,4.5,4.5h81c2.475,0,4.5-2.024,4.5-4.5v-69.48  C95,12.784,92.975,10.759,90.5,10.759z M64.199,19.408H66v42.983h-1.801V19.408z M53.201,19.408h1.8v5.768h-1.8V19.408z   M18.2,82.491c-3.557,0-6.45-2.895-6.45-6.451c0-3.556,2.894-6.449,6.45-6.449c3.557,0,6.45,2.894,6.45,6.449  C24.65,79.597,21.757,82.491,18.2,82.491z M18.2,66.44c-3.557,0-6.45-2.894-6.45-6.451c0-3.556,2.894-6.449,6.45-6.449  c3.557,0,6.45,2.894,6.45,6.449C24.65,63.547,21.757,66.44,18.2,66.44z M18.2,50.39c-3.557,0-6.45-2.894-6.45-6.451  c0-3.556,2.894-6.449,6.45-6.449c3.557,0,6.45,2.893,6.45,6.449C24.65,47.496,21.757,50.39,18.2,50.39z M44,80.308h-10.8v-1.801H44  V80.308z M44,76.613h-10.8v-1.8H44V76.613z M44,72.921h-10.8v-1.8H44V72.921z M44,69.226h-10.8v-1.801H44V69.226z M44,65.533h-10.8  v-1.801H44V65.533z M44,61.84h-10.8v-1.8H44V61.84z M44,58.145h-10.8v-1.8H44V58.145z M44,54.451h-10.8V52.65H44V54.451z M44,50.759  h-10.8v-1.8H44V50.759z M44,47.063h-10.8v-1.8H44V47.063z M44,43.37h-10.8v-1.8H44V43.37z M44,39.675h-10.8v-1.8H44V39.675z   M44,35.982h-10.8v-1.8H44V35.982z M44,32.289h-10.8v-1.8H44V32.289z M44,28.594h-10.8v-1.8H44V28.594z M44,24.9h-10.8v-1.8H44V24.9  z M44,21.208h-10.8v-1.8H44V21.208z M55.001,82.408h-1.8V32.375h1.8V82.408z M57.701,30.575h-7.2v-3.6h7.2V30.575z M66,82.408  h-1.801V69.591H66V82.408z M68.699,67.791H61.5V64.19h7.199V67.791z M86,80.308H75.2v-1.801H86V80.308z M86,76.613H75.2v-1.8H86  V76.613z M86,72.921H75.2v-1.8H86V72.921z M86,69.226H75.2v-1.801H86V69.226z M86,65.533H75.2v-1.801H86V65.533z M86,61.84H75.2  v-1.8H86V61.84z M86,58.145H75.2v-1.8H86V58.145z M86,54.451H75.2V52.65H86V54.451z M86,50.759H75.2v-1.8H86V50.759z M86,47.063  H75.2v-1.8H86V47.063z M86,43.37H75.2v-1.8H86V43.37z M86,39.675H75.2v-1.8H86V39.675z M86,35.982H75.2v-1.8H86V35.982z M86,32.289  H75.2v-1.8H86V32.289z M86,28.594H75.2v-1.8H86V28.594z M86,24.9H75.2v-1.8H86V24.9z M86,21.208H75.2v-1.8H86V21.208z"></path></svg>