<svg height='300px' width='300px'  fill="#000000" xmlns="http://www.w3.org/2000/svg" xmlns:xlink="http://www.w3.org/1999/xlink" version="1.1" x="0px" y="0px" viewBox="0 0 100 100" enable-background="new 0 0 100 100" xml:space="preserve"><path d="M94.594,90.603H5.408c-2.127,0-3.857-1.73-3.857-3.857V13.254c0-2.127,1.73-3.857,3.857-3.857h89.186  c2.126,0,3.856,1.73,3.856,3.857v73.491C98.45,88.872,96.719,90.603,94.594,90.603L94.594,90.603z M5.408,10.021  c-1.782,0-3.232,1.45-3.232,3.232v73.491c0,1.782,1.45,3.232,3.232,3.232h89.186c1.781,0,3.231-1.45,3.231-3.232V13.254  c0-1.782-1.45-3.232-3.231-3.232H5.408L5.408,10.021z M45.792,20.685c0.046,0,0.084,0.038,0.084,0.084v11.427  c0,0.046-0.038,0.084-0.084,0.084H34.365c-0.046,0-0.084-0.038-0.084-0.084V20.769c0-0.046,0.038-0.084,0.084-0.084H45.792   M45.792,20.06H34.365c-0.392,0-0.709,0.317-0.709,0.709v11.427c0,0.392,0.317,0.709,0.709,0.709h11.427  c0.392,0,0.709-0.317,0.709-0.709V20.769C46.501,20.377,46.183,20.06,45.792,20.06L45.792,20.06z M45.792,67.494  c0.046,0,0.084,0.038,0.084,0.084v11.427c0,0.046-0.038,0.084-0.084,0.084H34.365c-0.046,0-0.084-0.038-0.084-0.084V67.578  c0-0.046,0.038-0.084,0.084-0.084H45.792 M45.792,66.869H34.365c-0.392,0-0.709,0.317-0.709,0.709v11.427  c0,0.392,0.317,0.709,0.709,0.709h11.427c0.392,0,0.709-0.317,0.709-0.709V67.578C46.501,67.187,46.183,66.869,45.792,66.869  L45.792,66.869z M45.792,51.891c0.046,0,0.084,0.038,0.084,0.084v11.427c0,0.047-0.038,0.084-0.084,0.084H34.365  c-0.046,0-0.084-0.037-0.084-0.084V51.975c0-0.046,0.038-0.084,0.084-0.084H45.792 M45.792,51.266H34.365  c-0.392,0-0.709,0.317-0.709,0.709v11.427c0,0.392,0.317,0.709,0.709,0.709h11.427c0.392,0,0.709-0.317,0.709-0.709V51.975  C46.501,51.583,46.183,51.266,45.792,51.266L45.792,51.266z M45.792,36.288c0.046,0,0.084,0.037,0.084,0.084v11.427  c0,0.046-0.038,0.083-0.084,0.083H34.365c-0.046,0-0.084-0.037-0.084-0.083V36.372c0-0.047,0.038-0.084,0.084-0.084H45.792   M45.792,35.663H34.365c-0.392,0-0.709,0.317-0.709,0.709v11.427c0,0.392,0.317,0.709,0.709,0.709h11.427  c0.392,0,0.709-0.317,0.709-0.709V36.372C46.501,35.98,46.183,35.663,45.792,35.663L45.792,35.663z M92.601,20.685  c0.046,0,0.084,0.038,0.084,0.084v11.427c0,0.046-0.038,0.084-0.084,0.084H81.175c-0.046,0-0.084-0.038-0.084-0.084V20.769  c0-0.046,0.038-0.084,0.084-0.084H92.601 M92.601,20.06H81.175c-0.392,0-0.709,0.317-0.709,0.709v11.427  c0,0.392,0.317,0.709,0.709,0.709h11.427c0.392,0,0.709-0.317,0.709-0.709V20.769C93.31,20.377,92.993,20.06,92.601,20.06  L92.601,20.06z M76.998,20.685c0.047,0,0.084,0.038,0.084,0.084v11.427c0,0.046-0.037,0.084-0.084,0.084H65.571  c-0.046,0-0.083-0.038-0.083-0.084V20.769c0-0.046,0.037-0.084,0.083-0.084H76.998 M76.998,20.06H65.571  c-0.392,0-0.709,0.317-0.709,0.709v11.427c0,0.392,0.317,0.709,0.709,0.709h11.427c0.392,0,0.709-0.317,0.709-0.709V20.769  C77.707,20.377,77.389,20.06,76.998,20.06L76.998,20.06z M61.395,20.685c0.046,0,0.083,0.038,0.083,0.084v11.427  c0,0.046-0.037,0.084-0.083,0.084H49.969c-0.047,0-0.084-0.038-0.084-0.084V20.769c0-0.046,0.037-0.084,0.084-0.084H61.395   M61.395,20.06H49.969c-0.392,0-0.709,0.317-0.709,0.709v11.427c0,0.392,0.317,0.709,0.709,0.709h11.427  c0.392,0,0.709-0.317,0.709-0.709V20.769C62.104,20.377,61.787,20.06,61.395,20.06L61.395,20.06z M92.601,36.288  c0.046,0,0.084,0.037,0.084,0.084v11.427c0,0.046-0.038,0.083-0.084,0.083H81.175c-0.046,0-0.084-0.037-0.084-0.083V36.372  c0-0.047,0.038-0.084,0.084-0.084H92.601 M92.601,35.663H81.175c-0.392,0-0.709,0.317-0.709,0.709v11.427  c0,0.392,0.317,0.709,0.709,0.709h11.427c0.392,0,0.709-0.317,0.709-0.709V36.372C93.31,35.98,92.993,35.663,92.601,35.663  L92.601,35.663z M76.998,36.288c0.047,0,0.084,0.037,0.084,0.084v11.427c0,0.046-0.037,0.083-0.084,0.083H65.571  c-0.046,0-0.083-0.037-0.083-0.083V36.372c0-0.047,0.037-0.084,0.083-0.084H76.998 M76.998,35.663H65.571  c-0.392,0-0.709,0.317-0.709,0.709v11.427c0,0.392,0.317,0.709,0.709,0.709h11.427c0.392,0,0.709-0.317,0.709-0.709V36.372  C77.707,35.98,77.389,35.663,76.998,35.663L76.998,35.663z M61.395,36.288c0.046,0,0.083,0.037,0.083,0.084v11.427  c0,0.046-0.037,0.083-0.083,0.083H49.969c-0.047,0-0.084-0.037-0.084-0.083V36.372c0-0.047,0.037-0.084,0.084-0.084H61.395   M61.395,35.663H49.969c-0.392,0-0.709,0.317-0.709,0.709v11.427c0,0.392,0.317,0.709,0.709,0.709h11.427  c0.392,0,0.709-0.317,0.709-0.709V36.372C62.104,35.98,61.787,35.663,61.395,35.663L61.395,35.663z M92.601,51.891  c0.046,0,0.084,0.038,0.084,0.084v11.427c0,0.047-0.038,0.084-0.084,0.084H81.175c-0.046,0-0.084-0.037-0.084-0.084V51.975  c0-0.046,0.038-0.084,0.084-0.084H92.601 M92.601,51.266H81.175c-0.392,0-0.709,0.317-0.709,0.709v11.427  c0,0.392,0.317,0.709,0.709,0.709h11.427c0.392,0,0.709-0.317,0.709-0.709V51.975C93.31,51.583,92.993,51.266,92.601,51.266  L92.601,51.266z M76.998,51.891c0.047,0,0.084,0.038,0.084,0.084v11.427c0,0.047-0.037,0.084-0.084,0.084H65.571  c-0.046,0-0.083-0.037-0.083-0.084V51.975c0-0.046,0.037-0.084,0.083-0.084H76.998 M76.998,51.266H65.571  c-0.392,0-0.709,0.317-0.709,0.709v11.427c0,0.392,0.317,0.709,0.709,0.709h11.427c0.392,0,0.709-0.317,0.709-0.709V51.975  C77.707,51.583,77.389,51.266,76.998,51.266L76.998,51.266z M61.395,51.891c0.046,0,0.083,0.038,0.083,0.084v11.427  c0,0.047-0.037,0.084-0.083,0.084H49.969c-0.047,0-0.084-0.037-0.084-0.084V51.975c0-0.046,0.037-0.084,0.084-0.084H61.395   M61.395,51.266H49.969c-0.392,0-0.709,0.317-0.709,0.709v11.427c0,0.392,0.317,0.709,0.709,0.709h11.427  c0.392,0,0.709-0.317,0.709-0.709V51.975C62.104,51.583,61.787,51.266,61.395,51.266L61.395,51.266z M92.601,67.494  c0.046,0,0.084,0.038,0.084,0.084v11.427c0,0.046-0.038,0.084-0.084,0.084H81.175c-0.046,0-0.084-0.038-0.084-0.084V67.578  c0-0.046,0.038-0.084,0.084-0.084H92.601 M92.601,66.869H81.175c-0.392,0-0.709,0.317-0.709,0.709v11.427  c0,0.392,0.317,0.709,0.709,0.709h11.427c0.392,0,0.709-0.317,0.709-0.709V67.578C93.31,67.187,92.993,66.869,92.601,66.869  L92.601,66.869z M76.998,67.494c0.047,0,0.084,0.038,0.084,0.084v11.427c0,0.046-0.037,0.084-0.084,0.084H65.571  c-0.046,0-0.083-0.038-0.083-0.084V67.578c0-0.046,0.037-0.084,0.083-0.084H76.998 M76.998,66.869H65.571  c-0.392,0-0.709,0.317-0.709,0.709v11.427c0,0.392,0.317,0.709,0.709,0.709h11.427c0.392,0,0.709-0.317,0.709-0.709V67.578  C77.707,67.187,77.389,66.869,76.998,66.869L76.998,66.869z M61.395,67.494c0.046,0,0.083,0.038,0.083,0.084v11.427  c0,0.046-0.037,0.084-0.083,0.084H49.969c-0.047,0-0.084-0.038-0.084-0.084V67.578c0-0.046,0.037-0.084,0.084-0.084H61.395   M61.395,66.869H49.969c-0.392,0-0.709,0.317-0.709,0.709v11.427c0,0.392,0.317,0.709,0.709,0.709h11.427  c0.392,0,0.709-0.317,0.709-0.709V67.578C62.104,67.187,61.787,66.869,61.395,66.869L61.395,66.869z M94.658,82.509h-62.35  c-0.563,0-1.022-0.458-1.022-1.021V18.512c0-0.563,0.459-1.021,1.022-1.021h62.35c0.563,0,1.021,0.458,1.021,1.021v62.976  C95.679,82.051,95.221,82.509,94.658,82.509L94.658,82.509z M32.308,18.115c-0.219,0-0.396,0.178-0.396,0.396v62.976  c0,0.219,0.178,0.396,0.396,0.396h62.35c0.219,0,0.396-0.178,0.396-0.396V18.512c0-0.219-0.178-0.396-0.396-0.396H32.308  L32.308,18.115z M18.742,69.121v3.251H14.24v-3.251H18.742 M19.012,68.495h-5.043c-0.195,0-0.354,0.159-0.354,0.354v3.793  c0,0.195,0.159,0.354,0.354,0.354h5.043c0.196,0,0.354-0.159,0.354-0.354V68.85C19.367,68.654,19.209,68.495,19.012,68.495  L19.012,68.495z M9.385,69.121v3.251H4.884v-3.251H9.385 M9.656,68.495H4.613c-0.196,0-0.354,0.159-0.354,0.354v3.793  c0,0.195,0.158,0.354,0.354,0.354h5.043c0.195,0,0.354-0.159,0.354-0.354V68.85C10.01,68.654,9.851,68.495,9.656,68.495  L9.656,68.495z M28.128,69.121v3.251h-4.501v-3.251H28.128 M28.398,68.495h-5.043c-0.195,0-0.354,0.159-0.354,0.354v3.793  c0,0.195,0.158,0.354,0.354,0.354h5.043c0.196,0,0.354-0.159,0.354-0.354V68.85C28.753,68.654,28.594,68.495,28.398,68.495  L28.398,68.495z M18.742,78.564v3.251H14.24v-3.251H18.742 M19.012,77.939h-5.043c-0.195,0-0.354,0.159-0.354,0.354v3.793  c0,0.195,0.159,0.354,0.354,0.354h5.043c0.196,0,0.354-0.158,0.354-0.354v-3.793C19.367,78.099,19.209,77.939,19.012,77.939  L19.012,77.939z M9.385,78.564v3.251H4.884v-3.251H9.385 M9.656,77.939H4.613c-0.196,0-0.354,0.159-0.354,0.354v3.793  c0,0.195,0.158,0.354,0.354,0.354h5.043c0.195,0,0.354-0.158,0.354-0.354v-3.793C10.01,78.099,9.851,77.939,9.656,77.939  L9.656,77.939z M28.128,78.564v3.251h-4.501v-3.251H28.128 M28.398,77.939h-5.043c-0.195,0-0.354,0.159-0.354,0.354v3.793  c0,0.195,0.158,0.354,0.354,0.354h5.043c0.196,0,0.354-0.158,0.354-0.354v-3.793C28.753,78.099,28.594,77.939,28.398,77.939  L28.398,77.939z M19.796,26.482c0,2.232,1.816,4.049,4.049,4.049c2.233,0,4.05-1.816,4.05-4.049c0-2.233-1.816-4.05-4.05-4.05  C21.612,22.433,19.796,24.249,19.796,26.482z M20.597,26.482c0-1.791,1.457-3.248,3.247-3.248c1.791,0,3.248,1.457,3.248,3.248  c0,1.79-1.457,3.247-3.248,3.247C22.054,29.729,20.597,28.272,20.597,26.482z M21.616,26.482c0,1.23,0.998,2.229,2.229,2.229  c1.231,0,2.229-0.998,2.229-2.229c0-1.231-0.998-2.229-2.229-2.229c-0.417,0-0.807,0.117-1.141,0.317l1.272,1.819  c0.051,0.073,0.033,0.173-0.039,0.224c-0.028,0.02-0.061,0.029-0.093,0.029c-0.05,0-0.1-0.024-0.131-0.068l-1.273-1.821  C21.937,25.161,21.616,25.784,21.616,26.482z M9.134,22.433c-2.233,0-4.05,1.816-4.05,4.05c0,2.232,1.816,4.049,4.05,4.049  c2.232,0,4.05-1.816,4.05-4.049C13.183,24.249,11.366,22.433,9.134,22.433z M9.134,29.729c-1.791,0-3.247-1.457-3.247-3.247  c0-1.791,1.456-3.248,3.247-3.248c1.79,0,3.247,1.457,3.247,3.248C12.381,28.272,10.924,29.729,9.134,29.729z M10.539,24.753  l-1.273,1.821c-0.031,0.044-0.081,0.068-0.132,0.068c-0.032,0-0.064-0.01-0.092-0.029c-0.073-0.051-0.091-0.15-0.04-0.224  l1.272-1.819c-0.334-0.2-0.723-0.317-1.141-0.317c-1.23,0-2.229,0.998-2.229,2.229c0,1.23,0.998,2.229,2.229,2.229  s2.229-0.998,2.229-2.229C11.362,25.784,11.041,25.161,10.539,24.753z M23.844,38.035c-2.232,0-4.049,1.817-4.049,4.05  c0,2.233,1.816,4.05,4.049,4.05c2.233,0,4.05-1.816,4.05-4.05C27.894,39.853,26.078,38.035,23.844,38.035z M23.844,45.333  c-1.79,0-3.247-1.457-3.247-3.248c0-1.79,1.457-3.247,3.247-3.247c1.791,0,3.248,1.457,3.248,3.247  C27.093,43.876,25.635,45.333,23.844,45.333z M25.25,40.355l-1.273,1.821c-0.031,0.045-0.081,0.068-0.132,0.068  c-0.032,0-0.063-0.009-0.092-0.028c-0.072-0.051-0.09-0.151-0.039-0.224l1.272-1.82c-0.334-0.199-0.724-0.316-1.142-0.316  c-1.23,0-2.229,0.998-2.229,2.229c0,1.231,0.998,2.229,2.229,2.229c1.231,0,2.229-0.997,2.229-2.229  C26.074,41.387,25.752,40.765,25.25,40.355z M5.084,42.085c0,2.233,1.816,4.05,4.05,4.05c2.232,0,4.05-1.816,4.05-4.05  c0-2.232-1.817-4.05-4.05-4.05C6.9,38.035,5.084,39.853,5.084,42.085z M5.886,42.085c0-1.79,1.456-3.247,3.247-3.247  c1.79,0,3.247,1.457,3.247,3.247c0,1.791-1.457,3.248-3.247,3.248C7.343,45.333,5.886,43.876,5.886,42.085z M6.905,42.085  c0,1.231,0.997,2.229,2.229,2.229c1.23,0,2.229-0.997,2.229-2.229c0-1.23-0.998-2.229-2.229-2.229c-0.418,0-0.808,0.117-1.142,0.316  l1.272,1.82c0.052,0.072,0.033,0.173-0.039,0.224c-0.028,0.02-0.06,0.028-0.092,0.028c-0.051,0-0.101-0.023-0.132-0.068  l-1.273-1.821C7.226,40.765,6.905,41.387,6.905,42.085z M19.796,57.688c0,2.232,1.816,4.05,4.049,4.05c2.233,0,4.05-1.817,4.05-4.05  c0-2.233-1.816-4.05-4.05-4.05C21.612,53.639,19.796,55.455,19.796,57.688z M20.597,57.688c0-1.791,1.457-3.247,3.247-3.247  c1.791,0,3.248,1.456,3.248,3.247c0,1.79-1.457,3.247-3.248,3.247C22.054,60.936,20.597,59.479,20.597,57.688z M21.616,57.688  c0,1.23,0.998,2.229,2.229,2.229c1.231,0,2.229-0.998,2.229-2.229c0-1.231-0.998-2.229-2.229-2.229  c-0.417,0-0.807,0.117-1.141,0.317l1.272,1.82c0.051,0.072,0.033,0.172-0.039,0.223c-0.028,0.02-0.061,0.029-0.093,0.029  c-0.05,0-0.1-0.023-0.131-0.068l-1.273-1.821C21.937,56.367,21.616,56.99,21.616,57.688z M9.134,53.639  c-2.233,0-4.05,1.816-4.05,4.05c0,2.232,1.816,4.05,4.05,4.05c2.232,0,4.05-1.817,4.05-4.05  C13.183,55.455,11.366,53.639,9.134,53.639z M9.134,60.936c-1.791,0-3.247-1.457-3.247-3.247c0-1.791,1.456-3.247,3.247-3.247  c1.79,0,3.247,1.456,3.247,3.247C12.381,59.479,10.924,60.936,9.134,60.936z M10.539,55.959L9.265,57.78  c-0.031,0.045-0.081,0.068-0.132,0.068c-0.032,0-0.064-0.01-0.092-0.029c-0.073-0.051-0.091-0.15-0.04-0.223l1.272-1.82  c-0.334-0.2-0.723-0.317-1.141-0.317c-1.23,0-2.229,0.998-2.229,2.229c0,1.23,0.998,2.229,2.229,2.229s2.229-0.998,2.229-2.229  C11.362,56.99,11.041,56.367,10.539,55.959z"></path></svg>