<svg height='300px' width='300px'  fill="#000000" xmlns="http://www.w3.org/2000/svg" xmlns:xlink="http://www.w3.org/1999/xlink" version="1.1" x="0px" y="0px" viewBox="0 0 48 48" enable-background="new 0 0 48 48" xml:space="preserve"><g><path fill="#000000" d="M46.5,47.5h-45c-0.6,0-1-0.4-1-1v-45c0-0.6,0.4-1,1-1h45c0.6,0,1,0.4,1,1v45C47.5,47.1,47.1,47.5,46.5,47.5   z M2.5,45.5h43v-43h-43V45.5z"></path><path fill="#000000" d="M40.1,41.9H7.9c-0.6,0-1-0.4-1-1V12.5c0-0.6,0.4-1,1-1h32.2c0.6,0,1,0.4,1,1v28.5   C41.1,41.5,40.6,41.9,40.1,41.9z M8.9,39.9h30.2V13.5H8.9V39.9z"></path><path fill="#000000" d="M40.1,8.1h-6.7c-0.6,0-1-0.4-1-1c0-0.6,0.4-1,1-1h6.7c0.6,0,1,0.4,1,1C41.1,7.6,40.6,8.1,40.1,8.1z"></path><g><path fill="#000000" d="M15.2,37.7c-0.6,0-1-0.4-1-1V16.8c0-0.6,0.4-1,1-1c0.6,0,1,0.4,1,1v19.9C16.2,37.2,15.7,37.7,15.2,37.7z"></path><path fill="#000000" d="M24,37.7c-0.6,0-1-0.4-1-1V16.8c0-0.6,0.4-1,1-1c0.6,0,1,0.4,1,1v19.9C25,37.2,24.6,37.7,24,37.7z"></path><path fill="#000000" d="M32.8,37.7c-0.6,0-1-0.4-1-1V16.8c0-0.6,0.4-1,1-1c0.6,0,1,0.4,1,1v19.9C33.8,37.2,33.4,37.7,32.8,37.7z"></path><path fill="#000000" d="M35.2,23.9h-4.7c-0.6,0-1-0.4-1-1c0-0.6,0.4-1,1-1h4.7c0.6,0,1,0.4,1,1C36.2,23.5,35.8,23.9,35.2,23.9z"></path><path fill="#000000" d="M26.4,29.3h-4.7c-0.6,0-1-0.4-1-1c0-0.6,0.4-1,1-1h4.7c0.6,0,1,0.4,1,1C27.4,28.8,26.9,29.3,26.4,29.3z"></path><path fill="#000000" d="M17.5,26h-4.7c-0.6,0-1-0.4-1-1c0-0.6,0.4-1,1-1h4.7c0.6,0,1,0.4,1,1C18.5,25.6,18.1,26,17.5,26z"></path></g></g></svg>