<svg height='300px' width='300px'  fill="#000000" xmlns:dc="http://purl.org/dc/elements/1.1/" xmlns:cc="http://creativecommons.org/ns#" xmlns:rdf="http://www.w3.org/1999/02/22-rdf-syntax-ns#" xmlns:svg="http://www.w3.org/2000/svg" xmlns="http://www.w3.org/2000/svg" xmlns:sodipodi="http://sodipodi.sourceforge.net/DTD/sodipodi-0.dtd" xmlns:inkscape="http://www.inkscape.org/namespaces/inkscape" viewBox="0 0 8.4666665 8.4666669" version="1.1" x="0px" y="0px"><g transform="translate(0,-288.53332)"><path d="m 0.39687475,289.98853 0,5.55625 7.67291695,0 0,-5.55625 z m 4.36562515,0.39582 0.2645833,0 0,0.26458 -0.2645833,0 z m 0.5291667,0 0.2645833,0 0,0.26458 -0.2645833,0 z m 0.5291667,0 0.2645833,0 0,0.26458 -0.2645833,0 z m 0.5291667,0 0.2645833,0 0,0.26458 -0.2645833,0 z m -2.7781251,0.52916 c 0.07329,0 0.1322916,0.059 0.1322916,0.13229 0,0.0733 -0.059002,0.1323 -0.1322916,0.1323 -0.07329,0 -0.1322917,-0.059 -0.1322917,-0.1323 0,-0.0733 0.059002,-0.13229 0.1322917,-0.13229 z m 0.5291666,0 c 0.07329,0 0.1322917,0.059 0.1322917,0.13229 0,0.0733 -0.059002,0.1323 -0.1322917,0.1323 -0.07329,0 -0.1322916,-0.059 -0.1322916,-0.1323 0,-0.0733 0.059002,-0.13229 0.1322916,-0.13229 z m 0.6614584,0 0.2645833,0 0,0.26459 -0.2645833,0 z m 0.5291667,0 0.2645833,0 0,0.26459 -0.2645833,0 z m 0.5291667,0 0.2645833,0 0,0.26459 -0.2645833,0 z m 0.5291667,0 0.2645833,0 0,0.26459 -0.2645833,0 z m -5.1593752,0.13229 1.8520834,0 0,0.52917 -1.8520834,0 z m 2.3812501,0.39688 c 0.07329,0 0.1322916,0.059 0.1322916,0.13229 0,0.0733 -0.059002,0.13229 -0.1322916,0.13229 -0.07329,0 -0.1322917,-0.059 -0.1322917,-0.13229 0,-0.0733 0.059002,-0.13229 0.1322917,-0.13229 z m 0.5291666,0 c 0.07329,0 0.1322917,0.059 0.1322917,0.13229 0,0.0733 -0.059002,0.13229 -0.1322917,0.13229 -0.07329,0 -0.1322916,-0.059 -0.1322916,-0.13229 0,-0.0733 0.059002,-0.13229 0.1322916,-0.13229 z m 0.6614584,0 0.2645833,0 0,0.26458 -0.2645833,0 z m 0.5291667,0 0.2645833,0 0,0.26458 -0.2645833,0 z m 1.0583334,0 0.2645833,0 0,0.26458 -0.2645833,0 z m 0.5291666,0 0.2645834,0 0,0.26458 -0.2645834,0 z m -5.5562502,0.52917 c 0.07329,0 0.1322917,0.059 0.1322917,0.13229 0,0.0733 -0.059002,0.13229 -0.1322917,0.13229 -0.07329,0 -0.1322916,-0.059 -0.1322916,-0.13229 0,-0.0733 0.059002,-0.13229 0.1322916,-0.13229 z m 0.5291667,0 c 0.07329,0 0.1322917,0.059 0.1322917,0.13229 0,0.0733 -0.059002,0.13229 -0.1322917,0.13229 -0.07329,0 -0.1322916,-0.059 -0.1322916,-0.13229 0,-0.0733 0.059002,-0.13229 0.1322916,-0.13229 z m 0.5291667,0 c 0.07329,0 0.1322917,0.059 0.1322917,0.13229 0,0.0733 -0.059002,0.13229 -0.1322917,0.13229 -0.07329,0 -0.1322917,-0.059 -0.1322917,-0.13229 0,-0.0733 0.059002,-0.13229 0.1322917,-0.13229 z m 0.5291667,0 c 0.07329,0 0.1322917,0.059 0.1322917,0.13229 0,0.0733 -0.059002,0.13229 -0.1322917,0.13229 -0.07329,0 -0.1322917,-0.059 -0.1322917,-0.13229 0,-0.0733 0.059002,-0.13229 0.1322917,-0.13229 z m 1.8520834,0 0.2645833,0 0,0.26458 -0.2645833,0 z m 0.5291667,0 0.2645833,0 0,0.26458 -0.2645833,0 z m 0.5291667,0 0.2645833,0 0,0.26458 -0.2645833,0 z m 0.5291667,0 0.2645833,0 0,0.26458 -0.2645833,0 z m 0.5291666,0 0.2645834,0 0,0.26458 -0.2645834,0 z m -4.3640747,0.79375 a 0.1323049,0.13230491 0 0 1 5.292e-4,0 0.1323049,0.13230491 0 0 1 0.1302253,0.13438 l 0,0.92395 0.2645833,0 0,0.26458 -0.79375,0 0,-0.26458 0.2645833,0 0,-0.92395 a 0.1323049,0.13230491 0 0 1 0.1338422,-0.13438 z m 1.0583334,0 a 0.1323049,0.13230491 0 0 1 5.292e-4,0 0.1323049,0.13230491 0 0 1 0.1302253,0.13438 l 0,0.39478 0.2645833,0 0,0.26459 -0.79375,0 0,-0.26459 0.2645833,0 0,-0.39478 a 0.1323049,0.13230491 0 0 1 0.1338421,-0.13438 z m 1.3229167,0 a 0.1323049,0.13230491 0 0 1 5.292e-4,0 0.1323049,0.13230491 0 0 1 0.1302253,0.13438 l 0,0.39478 0.2645833,0 0,0.26459 -0.2645833,0 -0.2645834,0 -0.2645833,0 0,-0.26459 0.2645833,0 0,-0.39478 a 0.1323049,0.13230491 0 0 1 0.1338422,-0.13438 z m 1.0583334,0 a 0.1323049,0.13230491 0 0 1 5.292e-4,0 0.1323049,0.13230491 0 0 1 0.1302252,0.13438 l 0,0.92395 0.2645834,0 0,0.26458 -0.79375,0 0,-0.26458 0.2645833,0 0,-0.92395 a 0.1323049,0.13230491 0 0 1 0.1338421,-0.13438 z m -4.4979168,0.003 a 0.1323049,0.13230491 0 0 1 5.291e-4,0 0.1323049,0.13230491 0 0 1 0.1302253,0.13436 l 0,1.18647 0.2645834,0 0,0.26458 -0.7937501,0 0,-0.26458 0.2645834,0 0,-1.18647 a 0.1323049,0.13230491 0 0 1 0.1338421,-0.13436 z m 5.5562502,0 a 0.1323049,0.13230491 0 0 1 5.291e-4,0 0.1323049,0.13230491 0 0 1 0.1302253,0.13436 l 0,1.18647 0.2645834,0 0,0.26458 -0.7937501,0 0,-0.26458 0.2645834,0 0,-1.18647 A 0.1323049,0.13230491 0 0 1 7.013022,292.7686 Z m -3.5734256,1.05625 0.2645833,0 0,1.18856 a 0.1323049,0.13230491 0 1 1 -0.2645833,0 z m 1.3229167,0 0.2645833,0 0,1.18856 a 0.1323049,0.13230491 0 1 1 -0.2645833,0 z m -2.3812501,0.52916 0.2645834,0 0,0.6594 a 0.1323049,0.13230491 0 1 1 -0.2645834,0 z m 3.4395835,0 0.2645833,0 0,0.6594 a 0.1323049,0.13230491 0 1 1 -0.2645833,0 z m -4.4979169,0.26459 0.2645834,0 0,0.39687 a 0.1323049,0.13230491 0 1 1 -0.2645834,0 z m 5.5562502,0 0.2645834,0 0,0.39687 a 0.1323049,0.13230491 0 1 1 -0.2645834,0 z" style="opacity:1;fill:#000000;fill-opacity:1;stroke:none;stroke-width:1;stroke-linecap:butt;stroke-linejoin:round;stroke-miterlimit:4;stroke-dasharray:none;stroke-opacity:1"></path></g></svg>