<svg height='300px' width='300px'  fill="#000000" xmlns="http://www.w3.org/2000/svg" xmlns:xlink="http://www.w3.org/1999/xlink" version="1.1" x="0px" y="0px" viewBox="0 0 100 100" enable-background="new 0 0 100 100" xml:space="preserve"><path d="M22.342,55.659c0,0.477,0.185,0.909,0.485,1.235h-0.221c-0.682,0-1.235-0.554-1.235-1.235s0.554-1.235,1.235-1.235h0.221  C22.527,54.75,22.342,55.183,22.342,55.659z M25.731,54.424H25.51c0.3,0.326,0.485,0.759,0.485,1.235s-0.185,0.909-0.485,1.235  h0.221c0.683,0,1.235-0.554,1.235-1.235S26.413,54.424,25.731,54.424z M24.169,54.183c-0.815,0-1.477,0.661-1.477,1.477  s0.661,1.477,1.477,1.477c0.815,0,1.476-0.661,1.476-1.477S24.984,54.183,24.169,54.183z M49.567,54.424h-0.221  c-0.683,0-1.235,0.554-1.235,1.235s0.553,1.235,1.235,1.235h0.221c-0.3-0.326-0.485-0.759-0.485-1.235S49.267,54.75,49.567,54.424z   M52.47,54.424H52.25c0.3,0.326,0.485,0.759,0.485,1.235s-0.186,0.909-0.485,1.235h0.221c0.683,0,1.235-0.554,1.235-1.235  S53.153,54.424,52.47,54.424z M50.909,54.183c-0.815,0-1.477,0.661-1.477,1.477s0.661,1.477,1.477,1.477s1.477-0.661,1.477-1.477  S51.724,54.183,50.909,54.183z M60.386,54.424h-0.221c-0.683,0-1.235,0.554-1.235,1.235s0.553,1.235,1.235,1.235h0.221  c-0.3-0.326-0.485-0.759-0.485-1.235S60.087,54.75,60.386,54.424z M63.29,54.424h-0.221c0.3,0.326,0.484,0.759,0.484,1.235  s-0.185,0.909-0.484,1.235h0.221c0.682,0,1.235-0.554,1.235-1.235S63.971,54.424,63.29,54.424z M61.727,54.183  c-0.815,0-1.477,0.661-1.477,1.477s0.661,1.477,1.477,1.477s1.477-0.661,1.477-1.477S62.543,54.183,61.727,54.183z M24.186,48.508  c2.265,0,4.107-1.843,4.107-4.108s-1.843-4.107-4.107-4.107c-2.265,0-4.108,1.842-4.108,4.107S21.921,48.508,24.186,48.508  L24.186,48.508z M24.186,40.91c1.924,0,3.49,1.565,3.49,3.49c0,1.925-1.565,3.49-3.49,3.49c-1.925,0-3.49-1.565-3.49-3.49  C20.696,42.476,22.261,40.91,24.186,40.91L24.186,40.91z M22.16,41.945l2.238,2.238l-0.436,0.437l-2.239-2.239  c-1.03,1.25-0.961,3.101,0.208,4.27c1.242,1.243,3.256,1.243,4.499,0c1.242-1.242,1.242-3.256,0-4.498  C25.261,40.984,23.41,40.915,22.16,41.945z M14.596,48.3H13.71c-0.292-0.707-0.987-1.205-1.798-1.205  c-0.812,0-1.507,0.498-1.799,1.205H9.385c-0.41,0-0.741,0.332-0.741,0.741c0,0.409,0.332,0.741,0.741,0.741h0.727  c0.203,0.491,0.601,0.879,1.098,1.072v0.709c0,0.409,0.332,0.741,0.741,0.741c0.409,0,0.741-0.332,0.741-0.741v-0.741  c0.459-0.201,0.826-0.575,1.018-1.04h0.886c0.41,0,0.741-0.332,0.741-0.741C15.337,48.632,15.006,48.3,14.596,48.3z M11.991,43.041  c-3.309,0-6.001,2.692-6.001,6c0,3.308,2.692,6,6.001,6c3.308,0,6-2.692,6-6C17.991,45.733,15.299,43.041,11.991,43.041   M11.991,42.423c3.654,0,6.618,2.963,6.618,6.618c0,3.655-2.963,6.618-6.618,6.618c-3.655,0-6.619-2.963-6.619-6.618  C5.372,45.386,8.336,42.423,11.991,42.423L11.991,42.423z M50.909,48.508c2.265,0,4.107-1.843,4.107-4.108s-1.843-4.107-4.107-4.107  c-2.265,0-4.108,1.842-4.108,4.107S48.644,48.508,50.909,48.508L50.909,48.508z M50.909,40.91c1.925,0,3.49,1.565,3.49,3.49  c0,1.925-1.565,3.49-3.49,3.49c-1.924,0-3.49-1.565-3.49-3.49C47.419,42.476,48.985,40.91,50.909,40.91L50.909,40.91z   M53.371,42.382l-2.238,2.239l-0.437-0.437l2.238-2.238c-1.25-1.03-3.101-0.961-4.27,0.208c-1.242,1.242-1.242,3.256,0,4.498  c1.242,1.243,3.256,1.243,4.499,0C54.332,45.483,54.401,43.632,53.371,42.382z M90.948,48.508c2.265,0,4.107-1.843,4.107-4.108  s-1.843-4.107-4.107-4.107c-2.266,0-4.108,1.842-4.108,4.107S88.682,48.508,90.948,48.508L90.948,48.508z M90.948,40.91  c1.925,0,3.49,1.565,3.49,3.49c0,1.925-1.565,3.49-3.49,3.49s-3.49-1.565-3.49-3.49C87.458,42.476,89.023,40.91,90.948,40.91  L90.948,40.91z M88.923,41.945l2.238,2.238l-0.437,0.437l-2.239-2.239c-1.029,1.25-0.961,3.101,0.208,4.27  c1.242,1.243,3.256,1.243,4.499,0c1.242-1.242,1.242-3.256,0-4.498C92.023,40.984,90.172,40.915,88.923,41.945z M41.319,48.3h-0.886  c-0.292-0.707-0.987-1.205-1.798-1.205c-0.812,0-1.507,0.498-1.799,1.205h-0.727c-0.41,0-0.741,0.332-0.741,0.741  c0,0.409,0.331,0.741,0.741,0.741h0.727c0.203,0.491,0.601,0.879,1.097,1.072v0.709c0,0.409,0.332,0.741,0.741,0.741  c0.409,0,0.741-0.332,0.741-0.741v-0.741c0.459-0.201,0.826-0.575,1.018-1.04h0.886c0.409,0,0.741-0.332,0.741-0.741  C42.06,48.632,41.728,48.3,41.319,48.3z M38.713,43.041c-3.309,0-6,2.692-6,6c0,3.308,2.692,6,6,6s6-2.692,6-6  C44.713,45.733,42.022,43.041,38.713,43.041 M38.713,42.423c3.655,0,6.618,2.963,6.618,6.618c0,3.655-2.963,6.618-6.618,6.618  c-3.655,0-6.618-2.963-6.618-6.618C32.095,45.386,35.058,42.423,38.713,42.423L38.713,42.423z M61.727,43.422  c-1.015,0-1.836,0.822-1.836,1.836s0.821,1.837,1.836,1.837s1.837-0.822,1.837-1.837S62.742,43.422,61.727,43.422z M90.948,51.215  c-1.503,0-2.722,1.218-2.722,2.722c0,1.503,1.219,2.722,2.722,2.722s2.722-1.219,2.722-2.722  C93.67,52.433,92.451,51.215,90.948,51.215z M83.121,57.681c1.235-1.604,1.888-3.525,1.888-5.555c0-5.026-4.089-9.115-9.114-9.115  c-5.026,0-9.115,4.089-9.115,9.115c0,2.029,0.652,3.95,1.888,5.554l0.489-0.377c-1.151-1.495-1.759-3.285-1.759-5.177  c0-4.686,3.812-8.498,8.497-8.498c4.685,0,8.497,3.812,8.497,8.498c0,1.892-0.609,3.683-1.76,5.177L83.121,57.681L83.121,57.681z   M30.253,58.65c0.171,0,0.309-0.139,0.309-0.309V41.659c0-0.17-0.138-0.309-0.309-0.309c-0.17,0-0.309,0.139-0.309,0.309v16.683  C29.944,58.512,30.082,58.65,30.253,58.65L30.253,58.65z M57.128,58.65c0.171,0,0.31-0.139,0.31-0.309V41.659  c0-0.17-0.139-0.309-0.31-0.309c-0.17,0-0.309,0.139-0.309,0.309v16.683C56.819,58.512,56.958,58.65,57.128,58.65L57.128,58.65z   M92.745,62.228c3.066,0,5.562-2.495,5.562-5.562V43.334c0-3.066-2.495-5.562-5.562-5.562H7.255c-3.066,0-5.562,2.495-5.562,5.562  v13.332c0,3.066,2.496,5.562,5.562,5.562H92.745L92.745,62.228z M7.255,38.39h85.49c2.726,0,4.944,2.218,4.944,4.944v13.332  c0,2.726-2.219,4.943-4.944,4.943H7.255c-2.726,0-4.944-2.218-4.944-4.943V43.334C2.311,40.608,4.529,38.39,7.255,38.39L7.255,38.39  z M70.005,56.115l5.702-4.231l0.368,0.496l-5.702,4.231c2.384,2.94,6.685,3.506,9.753,1.229c3.153-2.339,3.812-6.791,1.473-9.944  c-2.339-3.152-6.791-3.812-9.943-1.472C68.586,48.702,67.882,52.98,70.005,56.115z"></path></svg>