<svg height='300px' width='300px'  fill="#000000" xmlns="http://www.w3.org/2000/svg" xmlns:xlink="http://www.w3.org/1999/xlink" version="1.1" x="0px" y="0px" viewBox="0 0 100 100" enable-background="new 0 0 100 100" xml:space="preserve"><g><path d="M78,22c-9.9,0-18,8.1-18,18c0,9.9,8.1,18,18,18s18-8.1,18-18C96,30.1,87.9,22,78,22z M78,43.6c-2,0-3.6-1.6-3.6-3.6   s1.6-3.6,3.6-3.6s3.6,1.6,3.6,3.6S80,43.6,78,43.6z"></path><path d="M22,22c-9.9,0-18,8.1-18,18c0,9.9,8.1,18,18,18s18-8.1,18-18C40,30.1,31.9,22,22,22z M22,43.6c-2,0-3.6-1.6-3.6-3.6   s1.6-3.6,3.6-3.6s3.6,1.6,3.6,3.6S24,43.6,22,43.6z"></path><g><path d="M47,19.5V21h-1v-1.5c-1,0.2-2,1.2-2,2.4c0,1.4,1.1,2.5,2.5,2.5S49,23.3,49,22C49,20.8,48,19.8,47,19.5z"></path></g><g><path d="M54,19.5V21h-1v-1.5c-1,0.2-2,1.2-2,2.4c0,1.4,1.1,2.5,2.5,2.5S56,23.3,56,22C56,20.8,55,19.8,54,19.5z"></path></g><g><path d="M47,26.5V28h-1v-1.5c-1,0.2-2,1.2-2,2.4c0,1.4,1.1,2.5,2.5,2.5S49,30.3,49,29C49,27.8,48,26.8,47,26.5z"></path></g><g><path d="M54,26.5V28h-1v-1.5c-1,0.2-2,1.2-2,2.4c0,1.4,1.1,2.5,2.5,2.5S56,30.3,56,29C56,27.8,55,26.8,54,26.5z"></path></g><g><path d="M47,33.5V35h-1v-1.5c-1,0.2-2,1.2-2,2.4c0,1.4,1.1,2.5,2.5,2.5S49,37.3,49,36C49,34.8,48,33.8,47,33.5z"></path></g><g><path d="M54,33.5V35h-1v-1.5c-1,0.2-2,1.2-2,2.4c0,1.4,1.1,2.5,2.5,2.5S56,37.3,56,36C56,34.8,55,33.8,54,33.5z"></path></g><g><path d="M47,40.5V42h-1v-1.5c-1,0.2-2,1.2-2,2.4c0,1.4,1.1,2.5,2.5,2.5S49,44.3,49,43C49,41.8,48,40.8,47,40.5z"></path></g><g><path d="M54,40.5V42h-1v-1.5c-1,0.2-2,1.2-2,2.4c0,1.4,1.1,2.5,2.5,2.5S56,44.3,56,43C56,41.8,55,40.8,54,40.5z"></path></g><polygon points="49,55 47,55 47,48 46,48 46,55 44,55 44,56 46,56 46,58 47,58 47,56 49,56  "></polygon><polygon points="56,50 54,50 54,48 53,48 53,50 51,50 51,51 53,51 53,58 54,58 54,51 56,51  "></polygon><polygon points="60,65 52,65 52,62 48,62 48,65 40,65 40,67 48,67 48,70 52,70 52,67 60,67  "></polygon><rect x="5" y="12" width="5" height="5"></rect><rect x="12" y="12" width="5" height="5"></rect><rect x="19" y="12" width="5" height="5"></rect><rect x="26" y="12" width="5" height="5"></rect><rect x="33" y="12" width="5" height="5"></rect><rect x="62" y="12" width="5" height="5"></rect><rect x="69" y="12" width="5" height="5"></rect><rect x="76" y="12" width="5" height="5"></rect><rect x="83" y="12" width="5" height="5"></rect><rect x="90" y="12" width="5" height="5"></rect><rect x="19" y="64" width="6" height="4"></rect><rect x="11" y="64" width="6" height="4"></rect><rect x="27" y="64" width="6" height="4"></rect><rect x="75" y="64" width="6" height="4"></rect><rect x="67" y="64" width="6" height="4"></rect><rect x="83" y="64" width="6" height="4"></rect><path d="M98,9.8v63H2v-63H98 M100,7.8H0v67h100V7.8L100,7.8z"></path></g></svg>