<svg height='300px' width='300px'  fill="#000000" xmlns="http://www.w3.org/2000/svg" viewBox="0 0 19 16" x="0px" y="0px"><title>Mixer</title><g data-name="Layer 2"><g data-name="Layer 1"><path d="M18.5,0H.5A.5.5,0,0,0,0,.5v15a.5.5,0,0,0,.5.5h18a.5.5,0,0,0,.5-.5V.5A.5.5,0,0,0,18.5,0ZM18,15H1V1H18Z"></path><path d="M2.5,9H3v5H4V9h.5a.5.5,0,0,0,0-1H4V6H3V8H2.5a.5.5,0,0,0,0,1Z"></path><path d="M10.5,13H11v1h1V13h.5a.5.5,0,0,0,0-1H12V6H11v6h-.5a.5.5,0,0,0,0,1Z"></path><path d="M14.5,10H15v4h1V10h.5a.5.5,0,0,0,0-1H16V6H15V9h-.5a.5.5,0,0,0,0,1Z"></path><rect x="8" y="4" width="1" height="1"></rect><rect x="10" y="4" width="1" height="1"></rect><rect x="8" y="2" width="1" height="1"></rect><rect x="10" y="2" width="1" height="1"></rect><rect x="12" y="4" width="1" height="1"></rect><rect x="14" y="4" width="1" height="1"></rect><rect x="12" y="2" width="1" height="1"></rect><rect x="14" y="2" width="1" height="1"></rect><rect x="16" y="4" width="1" height="1"></rect><rect x="16" y="2" width="1" height="1"></rect><path d="M7,2H2V5H7ZM6,4H3V3H6Z"></path><path d="M7,6v4H6.5a.5.5,0,0,0,0,1H7v3H8V11h.5a.5.5,0,0,0,0-1H8V6Z"></path></g></g></svg>