<svg height='300px' width='300px'  fill="#000000" xmlns="http://www.w3.org/2000/svg" xmlns:xlink="http://www.w3.org/1999/xlink" version="1.1" x="0px" y="0px" viewBox="0 0 100 100" enable-background="new 0 0 100 100" xml:space="preserve"><path d="M94.416,90.442H5.584c-2.119,0-3.842-1.724-3.842-3.841V13.4c0-2.119,1.724-3.842,3.842-3.842h88.832  c2.119,0,3.842,1.724,3.842,3.842v73.202C98.258,88.719,96.535,90.442,94.416,90.442L94.416,90.442z M5.584,10.181  c-1.776,0-3.219,1.444-3.219,3.219v73.202c0,1.774,1.443,3.218,3.219,3.218h88.832c1.774,0,3.22-1.443,3.22-3.218V13.4  c0-1.775-1.445-3.219-3.22-3.219H5.584L5.584,10.181z M45.808,20.178H34.426c-0.39,0-0.705,0.316-0.705,0.707v11.381  c0,0.39,0.315,0.707,0.705,0.707h11.383c0.39,0,0.705-0.316,0.705-0.707V20.885C46.513,20.495,46.198,20.178,45.808,20.178  L45.808,20.178z M45.808,66.803H34.426c-0.39,0-0.705,0.315-0.705,0.706v11.382c0,0.391,0.315,0.706,0.705,0.706h11.383  c0.39,0,0.705-0.315,0.705-0.706V67.509C46.513,67.118,46.198,66.803,45.808,66.803L45.808,66.803z M45.808,51.262H34.426  c-0.39,0-0.705,0.315-0.705,0.706v11.381c0,0.391,0.315,0.707,0.705,0.707h11.383c0.39,0,0.705-0.316,0.705-0.707V51.968  C46.513,51.577,46.198,51.262,45.808,51.262L45.808,51.262z M45.808,35.72H34.426c-0.39,0-0.705,0.316-0.705,0.707v11.381  c0,0.39,0.315,0.705,0.705,0.705h11.383c0.39,0,0.705-0.315,0.705-0.705V36.427C46.513,36.037,46.198,35.72,45.808,35.72  L45.808,35.72z M92.432,20.178H81.052c-0.391,0-0.707,0.316-0.707,0.707v11.381c0,0.39,0.316,0.707,0.707,0.707h11.381  c0.391,0,0.707-0.316,0.707-0.707V20.885C93.139,20.495,92.823,20.178,92.432,20.178L92.432,20.178z M76.89,20.178H65.51  c-0.391,0-0.707,0.316-0.707,0.707v11.381c0,0.39,0.316,0.707,0.707,0.707H76.89c0.391,0,0.707-0.316,0.707-0.707V20.885  C77.597,20.495,77.281,20.178,76.89,20.178L76.89,20.178z M61.348,20.178h-11.38c-0.39,0-0.707,0.316-0.707,0.707v11.381  c0,0.39,0.316,0.707,0.707,0.707h11.38c0.391,0,0.707-0.316,0.707-0.707V20.885C62.055,20.495,61.739,20.178,61.348,20.178  L61.348,20.178z M92.432,35.72H81.052c-0.391,0-0.707,0.316-0.707,0.707v11.381c0,0.39,0.316,0.705,0.707,0.705h11.381  c0.391,0,0.707-0.315,0.707-0.705V36.427C93.139,36.037,92.823,35.72,92.432,35.72L92.432,35.72z M76.89,35.72H65.51  c-0.391,0-0.707,0.316-0.707,0.707v11.381c0,0.39,0.316,0.705,0.707,0.705H76.89c0.391,0,0.707-0.315,0.707-0.705V36.427  C77.597,36.037,77.281,35.72,76.89,35.72L76.89,35.72z M61.348,35.72h-11.38c-0.39,0-0.707,0.316-0.707,0.707v11.381  c0,0.39,0.316,0.705,0.707,0.705h11.38c0.391,0,0.707-0.315,0.707-0.705V36.427C62.055,36.037,61.739,35.72,61.348,35.72  L61.348,35.72z M92.432,51.262H81.052c-0.391,0-0.707,0.315-0.707,0.706v11.381c0,0.391,0.316,0.707,0.707,0.707h11.381  c0.391,0,0.707-0.316,0.707-0.707V51.968C93.139,51.577,92.823,51.262,92.432,51.262L92.432,51.262z M76.89,51.262H65.51  c-0.391,0-0.707,0.315-0.707,0.706v11.381c0,0.391,0.316,0.707,0.707,0.707H76.89c0.391,0,0.707-0.316,0.707-0.707V51.968  C77.597,51.577,77.281,51.262,76.89,51.262L76.89,51.262z M61.348,51.262h-11.38c-0.39,0-0.707,0.315-0.707,0.706v11.381  c0,0.391,0.316,0.707,0.707,0.707h11.38c0.391,0,0.707-0.316,0.707-0.707V51.968C62.055,51.577,61.739,51.262,61.348,51.262  L61.348,51.262z M92.432,66.803H81.052c-0.391,0-0.707,0.315-0.707,0.706v11.382c0,0.391,0.316,0.706,0.707,0.706h11.381  c0.391,0,0.707-0.315,0.707-0.706V67.509C93.139,67.118,92.823,66.803,92.432,66.803L92.432,66.803z M76.89,66.803H65.51  c-0.391,0-0.707,0.315-0.707,0.706v11.382c0,0.391,0.316,0.706,0.707,0.706H76.89c0.391,0,0.707-0.315,0.707-0.706V67.509  C77.597,67.118,77.281,66.803,76.89,66.803L76.89,66.803z M61.348,66.803h-11.38c-0.39,0-0.707,0.315-0.707,0.706v11.382  c0,0.391,0.316,0.706,0.707,0.706h11.38c0.391,0,0.707-0.315,0.707-0.706V67.509C62.055,67.118,61.739,66.803,61.348,66.803  L61.348,66.803z M94.48,82.381H32.377c-0.561,0-1.017-0.456-1.017-1.018V18.636c0-0.56,0.456-1.017,1.017-1.017H94.48  c0.562,0,1.019,0.457,1.019,1.017v62.727C95.499,81.925,95.042,82.381,94.48,82.381L94.48,82.381z M18.865,69.046v3.237h-4.484  v-3.237H18.865 M19.134,68.423h-5.022c-0.195,0-0.354,0.158-0.354,0.354v3.777c0,0.194,0.158,0.353,0.354,0.353h5.022  c0.195,0,0.353-0.158,0.353-0.353v-3.777C19.487,68.581,19.329,68.423,19.134,68.423L19.134,68.423z M9.545,69.046v3.237H5.061  v-3.237H9.545 M9.815,68.423H4.792c-0.195,0-0.354,0.158-0.354,0.354v3.777c0,0.194,0.158,0.353,0.354,0.353h5.023  c0.195,0,0.353-0.158,0.353-0.353v-3.777C10.168,68.581,10.01,68.423,9.815,68.423L9.815,68.423z M28.214,69.046v3.237H23.73v-3.237  H28.214 M28.484,68.423h-5.023c-0.195,0-0.354,0.158-0.354,0.354v3.777c0,0.194,0.158,0.353,0.354,0.353h5.023  c0.194,0,0.352-0.158,0.352-0.353v-3.777C28.836,68.581,28.677,68.423,28.484,68.423L28.484,68.423z M18.865,78.452v3.238h-4.484  v-3.238H18.865 M19.134,77.829h-5.022c-0.195,0-0.354,0.158-0.354,0.354v3.778c0,0.193,0.158,0.352,0.354,0.352h5.022  c0.195,0,0.353-0.158,0.353-0.352v-3.778C19.487,77.987,19.329,77.829,19.134,77.829L19.134,77.829z M9.545,78.452v3.238H5.061  v-3.238H9.545 M9.815,77.829H4.792c-0.195,0-0.354,0.158-0.354,0.354v3.778c0,0.193,0.158,0.352,0.354,0.352h5.023  c0.195,0,0.353-0.158,0.353-0.352v-3.778C10.168,77.987,10.01,77.829,9.815,77.829L9.815,77.829z M28.214,78.452v3.238H23.73v-3.238  H28.214 M28.484,77.829h-5.023c-0.195,0-0.354,0.158-0.354,0.354v3.778c0,0.193,0.158,0.352,0.354,0.352h5.023  c0.194,0,0.352-0.158,0.352-0.352v-3.778C28.836,77.987,28.677,77.829,28.484,77.829L28.484,77.829z M19.914,26.575  c0,2.225,1.81,4.034,4.033,4.034c2.225,0,4.034-1.81,4.034-4.034c0-2.224-1.81-4.034-4.034-4.034  C21.724,22.542,19.914,24.351,19.914,26.575z M20.713,26.575c0-1.783,1.451-3.234,3.234-3.234c1.784,0,3.235,1.451,3.235,3.234  c0,1.784-1.452,3.234-3.235,3.234C22.164,29.81,20.713,28.359,20.713,26.575z M21.728,26.575c0,1.227,0.993,2.22,2.219,2.22  c1.227,0,2.22-0.994,2.22-2.22s-0.994-2.22-2.22-2.22c-0.416,0-0.803,0.117-1.137,0.316l1.268,1.812  c0.051,0.071,0.033,0.171-0.039,0.222c-0.028,0.02-0.06,0.029-0.092,0.029c-0.05,0-0.1-0.024-0.13-0.068l-1.269-1.815  C22.048,25.26,21.728,25.88,21.728,26.575z M9.295,22.542c-2.225,0-4.034,1.81-4.034,4.034c0,2.225,1.81,4.034,4.034,4.034  c2.223,0,4.033-1.81,4.033-4.034C13.327,24.351,11.518,22.542,9.295,22.542z M9.295,29.81c-1.784,0-3.235-1.451-3.235-3.234  c0-1.783,1.452-3.234,3.235-3.234c1.783,0,3.234,1.451,3.234,3.234C12.529,28.359,11.078,29.81,9.295,29.81z M10.694,24.853  l-1.268,1.815c-0.031,0.044-0.081,0.068-0.131,0.068c-0.033,0-0.064-0.01-0.092-0.029c-0.071-0.051-0.09-0.151-0.039-0.222  l1.268-1.812c-0.333-0.2-0.721-0.316-1.137-0.316c-1.227,0-2.22,0.993-2.22,2.22s0.994,2.22,2.22,2.22c1.226,0,2.22-0.994,2.22-2.22  C11.515,25.88,11.194,25.26,10.694,24.853z M23.947,38.083c-2.223,0-4.033,1.81-4.033,4.034c0,2.224,1.81,4.033,4.033,4.033  c2.225,0,4.034-1.81,4.034-4.033C27.981,39.893,26.172,38.083,23.947,38.083z M23.947,45.352c-1.783,0-3.234-1.451-3.234-3.234  c0-1.783,1.451-3.234,3.234-3.234c1.784,0,3.235,1.451,3.235,3.234C27.182,43.901,25.731,45.352,23.947,45.352z M25.347,40.395  l-1.269,1.814c-0.031,0.044-0.081,0.068-0.131,0.068c-0.031,0-0.063-0.009-0.091-0.029c-0.073-0.05-0.09-0.15-0.039-0.222  l1.267-1.813c-0.333-0.199-0.721-0.315-1.137-0.315c-1.226,0-2.219,0.993-2.219,2.22c0,1.226,0.993,2.22,2.219,2.22  c1.227,0,2.22-0.995,2.22-2.22C26.167,41.422,25.847,40.802,25.347,40.395z M5.26,42.117c0,2.224,1.81,4.033,4.034,4.033  c2.223,0,4.033-1.81,4.033-4.033c0-2.224-1.81-4.034-4.033-4.034C7.07,38.083,5.26,39.893,5.26,42.117z M6.059,42.117  c0-1.783,1.452-3.234,3.235-3.234c1.783,0,3.234,1.451,3.234,3.234c0,1.784-1.451,3.234-3.234,3.234  C7.511,45.352,6.059,43.901,6.059,42.117z M7.074,42.117c0,1.226,0.994,2.22,2.22,2.22c1.226,0,2.22-0.995,2.22-2.22  c0-1.227-0.995-2.22-2.22-2.22c-0.416,0-0.804,0.116-1.137,0.315l1.267,1.813c0.051,0.072,0.034,0.172-0.039,0.222  c-0.028,0.021-0.06,0.029-0.091,0.029c-0.051,0-0.1-0.024-0.131-0.068l-1.269-1.814C7.395,40.802,7.074,41.422,7.074,42.117z   M19.914,57.658c0,2.225,1.81,4.034,4.033,4.034c2.225,0,4.034-1.81,4.034-4.034s-1.81-4.034-4.034-4.034  C21.724,53.624,19.914,55.434,19.914,57.658z M20.713,57.658c0-1.783,1.451-3.234,3.234-3.234c1.784,0,3.235,1.451,3.235,3.234  s-1.452,3.234-3.235,3.234C22.164,60.893,20.713,59.441,20.713,57.658z M21.728,57.658c0,1.227,0.993,2.221,2.219,2.221  c1.227,0,2.22-0.994,2.22-2.221c0-1.226-0.994-2.22-2.22-2.22c-0.416,0-0.803,0.117-1.137,0.316l1.268,1.812  c0.051,0.071,0.033,0.171-0.039,0.222c-0.028,0.02-0.06,0.028-0.092,0.028c-0.05,0-0.1-0.022-0.13-0.067l-1.269-1.814  C22.048,56.343,21.728,56.963,21.728,57.658z M9.295,53.624c-2.225,0-4.034,1.81-4.034,4.034s1.81,4.034,4.034,4.034  c2.223,0,4.033-1.81,4.033-4.034S11.518,53.624,9.295,53.624z M9.295,60.893c-1.784,0-3.235-1.451-3.235-3.234  s1.452-3.234,3.235-3.234c1.783,0,3.234,1.451,3.234,3.234S11.078,60.893,9.295,60.893z M10.694,55.936L9.426,57.75  c-0.031,0.045-0.081,0.067-0.131,0.067c-0.033,0-0.064-0.009-0.092-0.028c-0.071-0.051-0.09-0.15-0.039-0.222l1.268-1.812  c-0.333-0.199-0.721-0.316-1.137-0.316c-1.227,0-2.22,0.994-2.22,2.22c0,1.227,0.994,2.221,2.22,2.221  c1.226,0,2.22-0.994,2.22-2.221C11.515,56.963,11.194,56.343,10.694,55.936z"></path></svg>