<svg xmlns="http://www.w3.org/2000/svg" xmlns:xlink="http://www.w3.org/1999/xlink" width="46" height="46" viewBox="0 0 46 46">
  <defs>
    <path id="icon-midi-4x2-knobs-a" d="M44,12 L44,18.6 L44,34 C37.7818681,34 41.6494949,34 38.75,34 L7.25,34 C4.33625,34 9.52140524,34 2,34 L2,12 C7.15447687,12 21.1544769,12 44,12 Z M10,22 L10,16 L4,16 L4,22 L10,22 Z M17,22 L17,16 L11,16 L11,22 L17,22 Z M24,22 L24,16 L18,16 L18,22 L24,22 Z M31,22 L31,16 L25,16 L25,22 L31,22 Z M10,29 L10,23 L4,23 L4,29 L10,29 Z M17,29 L17,23 L11,23 L11,29 L17,29 Z M24,29 L24,23 L18,23 L18,29 L24,29 Z M31,23 L31,29 L25,29 L25,23 L31,23 Z M35,24 C36.1045695,24 37,24.8954305 37,26 C37,27.1045695 36.1045695,28 35,28 C33.8954305,28 33,27.1045695 33,26 C33,24.8954305 33.8954305,24 35,24 Z M40,24 C41.1045695,24 42,24.8954305 42,26 C42,27.1045695 41.1045695,28 40,28 C38.8954305,28 38,27.1045695 38,26 C38,24.8954305 38.8954305,24 40,24 Z M35,17 C36.1045695,17 37,17.8954305 37,19 C37,20.1045695 36.1045695,21 35,21 C33.8954305,21 33,20.1045695 33,19 C33,17.8954305 33.8954305,17 35,17 Z M40,17 C41.1045695,17 42,17.8954305 42,19 C42,20.1045695 41.1045695,21 40,21 C38.8954305,21 38,20.1045695 38,19 C38,17.8954305 38.8954305,17 40,17 Z"/>
    <filter id="icon-midi-4x2-knobs-b" width="185.7%" height="263.6%" x="-42.9%" y="-81.8%" filterUnits="objectBoundingBox">
      <feMorphology in="SourceAlpha" radius="3" result="shadowSpreadInner1"/>
      <feGaussianBlur in="shadowSpreadInner1" result="shadowBlurInner1" stdDeviation="7.5"/>
      <feOffset dx="-15" dy="16" in="shadowBlurInner1" result="shadowOffsetInner1"/>
      <feComposite in="shadowOffsetInner1" in2="SourceAlpha" k2="-1" k3="1" operator="arithmetic" result="shadowInnerInner1"/>
      <feColorMatrix in="shadowInnerInner1" values="0 0 0 0 0   0 0 0 0 0   0 0 0 0 0  0 0 0 0.5 0"/>
    </filter>
  </defs>
  <g fill="none" fill-rule="evenodd">
    <use fill="#000" xlink:href="#icon-midi-4x2-knobs-a"/>
    <use fill="#000" filter="url(#icon-midi-4x2-knobs-b)" xlink:href="#icon-midi-4x2-knobs-a"/>
    <path stroke="#FFF" d="M44.5,11.5 L44.5,34.5 L44,34.5 C40.2241776,34.5 40.2241776,34.5 40.0606023,34.5 C39.95085,34.5 39.95085,34.5 38.75,34.5 L7.25,34.5 C6.55273052,34.5 6.55273052,34.5 6.31567028,34.5 C6.28037445,34.5 6.28037445,34.5 6.26185708,34.5 C6.25529494,34.5 6.25529494,34.5 6.25202856,34.5 C6.25095715,34.5 6.25095715,34.5 6.25059733,34.5 L6.2505643,33.5 L6.25065416,33.5 C6.25084409,33.5 6.25084409,33.5 6.25118851,33.5 C6.26688608,33.5 6.26688608,33.5 6.30175904,33.5 C6.32911554,33.5 6.32911554,33.5 6.34721528,33.5 C6.35029384,33.5 6.35029384,33.5 6.35207067,33.5 C6.3526879,33.5 6.3526879,33.5 6.35292545,34.5 L6.35291214,34.5 C6.35280266,34.5 6.35280266,34.5 6.35258696,34.5 C6.34890878,34.5 6.34890878,34.5 6.33713093,34.5 C6.24373571,34.5 6.24373571,34.5 5.92817816,34.5 C4.8527384,34.5 4.8527384,34.5 2,34.5 L1.5,34.5 L1.5,11.5 L2,11.5 C14.1544769,11.5 14.1544769,11.5 44,11.5 L44.5,11.5 Z M9.5,21.5 L9.5,16.5 L4.5,16.5 L4.5,21.5 L9.5,21.5 Z M16.5,21.5 L16.5,16.5 L11.5,16.5 L11.5,21.5 L16.5,21.5 Z M23.5,21.5 L23.5,16.5 L18.5,16.5 L18.5,21.5 L23.5,21.5 Z M30.5,21.5 L30.5,16.5 L25.5,16.5 L25.5,21.5 L30.5,21.5 Z M9.5,28.5 L9.5,23.5 L4.5,23.5 L4.5,28.5 L9.5,28.5 Z M16.5,28.5 L16.5,23.5 L11.5,23.5 L11.5,28.5 L16.5,28.5 Z M23.5,28.5 L23.5,23.5 L18.5,23.5 L18.5,28.5 L23.5,28.5 Z M30.5,23.5 L25.5,23.5 L25.5,28.5 L30.5,28.5 L30.5,23.5 Z M35,24.5 C34.1715729,24.5 33.5,25.1715729 33.5,26 C33.5,26.8284271 34.1715729,27.5 35,27.5 C35.8284271,27.5 36.5,26.8284271 36.5,26 C36.5,25.1715729 35.8284271,24.5 35,24.5 Z M40,24.5 C39.1715729,24.5 38.5,25.1715729 38.5,26 C38.5,26.8284271 39.1715729,27.5 40,27.5 C40.8284271,27.5 41.5,26.8284271 41.5,26 C41.5,25.1715729 40.8284271,24.5 40,24.5 Z M35,17.5 C34.1715729,17.5 33.5,18.1715729 33.5,19 C33.5,19.8284271 34.1715729,20.5 35,20.5 C35.8284271,20.5 36.5,19.8284271 36.5,19 C36.5,18.1715729 35.8284271,17.5 35,17.5 Z M40,17.5 C39.1715729,17.5 38.5,18.1715729 38.5,19 C38.5,19.8284271 39.1715729,20.5 40,20.5 C40.8284271,20.5 41.5,19.8284271 41.5,19 C41.5,18.1715729 40.8284271,17.5 40,17.5 Z"/>
  </g>
</svg>
