<svg height='300px' width='300px'  fill="#000000" xmlns="http://www.w3.org/2000/svg" xmlns:xlink="http://www.w3.org/1999/xlink" version="1.1" x="0px" y="0px" viewBox="0 0 100 100" enable-background="new 0 0 100 100" xml:space="preserve"><g><path d="M80.19,50.142v-1.921c0-0.255,0.208-0.462,0.464-0.462h2.966c0.256,0,0.463,0.207,0.463,0.462v1.921   c0,0.255-0.207,0.462-0.463,0.462h-2.966C80.398,50.604,80.19,50.397,80.19,50.142z M77.99,47.759h-2.966   c-0.256,0-0.463,0.207-0.463,0.462v1.921c0,0.255,0.207,0.462,0.463,0.462h2.966c0.256,0,0.464-0.207,0.464-0.462v-1.921   C78.454,47.966,78.246,47.759,77.99,47.759z M89.25,47.759h-2.967c-0.256,0-0.462,0.207-0.462,0.462v1.921   c0,0.255,0.206,0.462,0.462,0.462h2.967c0.256,0,0.463-0.207,0.463-0.462v-1.921C89.713,47.966,89.506,47.759,89.25,47.759z    M89.25,52.025h-2.967c-0.256,0-0.462,0.207-0.462,0.463v1.92c0,0.256,0.206,0.464,0.462,0.464h2.967   c0.256,0,0.463-0.208,0.463-0.464v-1.92C89.713,52.232,89.506,52.025,89.25,52.025z M89.25,56.292h-2.967   c-0.256,0-0.462,0.207-0.462,0.463v1.92c0,0.256,0.206,0.464,0.462,0.464h2.967c0.256,0,0.463-0.208,0.463-0.464v-1.92   C89.713,56.499,89.506,56.292,89.25,56.292z M83.62,52.025h-2.966c-0.256,0-0.464,0.207-0.464,0.463v1.92   c0,0.256,0.208,0.464,0.464,0.464h2.966c0.256,0,0.463-0.208,0.463-0.464v-1.92C84.083,52.232,83.876,52.025,83.62,52.025z    M83.62,56.292h-2.966c-0.256,0-0.464,0.207-0.464,0.463v1.92c0,0.256,0.208,0.464,0.464,0.464h2.966   c0.256,0,0.463-0.208,0.463-0.464v-1.92C84.083,56.499,83.876,56.292,83.62,56.292z M77.99,52.025h-2.966   c-0.256,0-0.463,0.207-0.463,0.463v1.92c0,0.256,0.207,0.464,0.463,0.464h2.966c0.256,0,0.464-0.208,0.464-0.464v-1.92   C78.454,52.232,78.246,52.025,77.99,52.025z M77.99,56.292h-2.966c-0.256,0-0.463,0.207-0.463,0.463v1.92   c0,0.256,0.207,0.464,0.463,0.464h2.966c0.256,0,0.464-0.208,0.464-0.464v-1.92C78.454,56.499,78.246,56.292,77.99,56.292z    M54.641,24.545c0,1.468-1.194,2.663-2.662,2.663s-2.662-1.195-2.662-2.663s1.194-2.663,2.662-2.663S54.641,23.077,54.641,24.545z    M53.806,24.545c0-0.572-0.264-1.083-0.676-1.417l-1.044,1.493c-0.025,0.036-0.065,0.056-0.108,0.056   c-0.025,0-0.052-0.008-0.074-0.024c-0.06-0.042-0.074-0.123-0.033-0.183l1.044-1.493c-0.274-0.163-0.593-0.259-0.936-0.259   c-1.009,0-1.827,0.818-1.827,1.827s0.818,1.827,1.827,1.827S53.806,25.555,53.806,24.545z M16.185,52.352h-4.754   c-0.075,0-0.137,0.062-0.137,0.137v1.92c0,0.075,0.062,0.137,0.137,0.137h4.754c0.075,0,0.136-0.062,0.136-0.137v-1.92   C16.322,52.413,16.26,52.352,16.185,52.352z M54.641,32.083c0,1.468-1.194,2.662-2.662,2.662s-2.662-1.194-2.662-2.662   c0-1.469,1.194-2.663,2.662-2.663S54.641,30.614,54.641,32.083z M53.806,32.083c0-1.009-0.818-1.827-1.827-1.827   c-0.342,0-0.662,0.095-0.936,0.26l1.043,1.492c0.042,0.06,0.027,0.142-0.032,0.183c-0.023,0.017-0.049,0.023-0.075,0.023   c-0.041,0-0.082-0.02-0.108-0.056l-1.044-1.493c-0.411,0.335-0.675,0.845-0.675,1.418c0,1.008,0.818,1.827,1.827,1.827   S53.806,33.091,53.806,32.083z M54.641,17.008c0,1.469-1.194,2.663-2.662,2.663s-2.662-1.194-2.662-2.663   c0-1.468,1.194-2.663,2.662-2.663S54.641,15.541,54.641,17.008z M53.806,17.008c0-1.009-0.818-1.827-1.827-1.827   c-0.342,0-0.662,0.096-0.936,0.26l1.043,1.492c0.042,0.06,0.027,0.142-0.032,0.183c-0.023,0.016-0.049,0.024-0.075,0.024   c-0.041,0-0.082-0.02-0.108-0.056l-1.044-1.493c-0.411,0.334-0.675,0.845-0.675,1.417c0,1.009,0.818,1.827,1.827,1.827   S53.806,18.018,53.806,17.008z M58.852,85.386c0,0.017,0.008,0.025,0.011,0.028h0.984c0.003-0.003,0.011-0.012,0.011-0.028v-4.811   h-1.006V85.386z M16.185,56.618h-4.754c-0.075,0-0.137,0.062-0.137,0.137v1.92c0,0.075,0.062,0.137,0.137,0.137h4.754   c0.075,0,0.136-0.062,0.136-0.137v-1.92C16.322,56.68,16.26,56.618,16.185,56.618z M13.334,62.855   c-0.003,0.002-0.011,0.01-0.011,0.027v15.559h1.005V62.883c0-0.018-0.007-0.025-0.01-0.027H13.334z M54.156,52.352h-4.754   c-0.075,0-0.137,0.062-0.137,0.137v1.92c0,0.075,0.062,0.137,0.137,0.137h4.754c0.075,0,0.137-0.062,0.137-0.137v-1.92   C54.293,52.413,54.231,52.352,54.156,52.352z M38.968,52.352h-4.754c-0.075,0-0.136,0.062-0.136,0.137v1.92   c0,0.075,0.061,0.137,0.136,0.137h4.754c0.075,0,0.136-0.062,0.136-0.137v-1.92C39.104,52.413,39.043,52.352,38.968,52.352z    M54.156,56.618h-4.754c-0.075,0-0.137,0.062-0.137,0.137v1.92c0,0.075,0.062,0.137,0.137,0.137h4.754   c0.075,0,0.137-0.062,0.137-0.137v-1.92C54.293,56.68,54.231,56.618,54.156,56.618z M16.47,39.62c0,1.468-1.194,2.662-2.662,2.662   c-1.468,0-2.663-1.194-2.663-2.662c0-1.468,1.194-2.663,2.663-2.663C15.276,36.958,16.47,38.152,16.47,39.62z M15.635,39.62   c0-1.009-0.818-1.828-1.827-1.828c-0.342,0-0.662,0.096-0.936,0.26l1.043,1.492c0.042,0.06,0.027,0.142-0.033,0.184   c-0.023,0.016-0.048,0.023-0.075,0.023c-0.042,0-0.083-0.02-0.108-0.056l-1.043-1.493c-0.412,0.334-0.676,0.846-0.676,1.418   c0,1.009,0.818,1.827,1.828,1.827C14.817,41.447,15.635,40.629,15.635,39.62z M54.641,39.62c0,1.468-1.194,2.662-2.662,2.662   s-2.662-1.194-2.662-2.662c0-1.468,1.194-2.663,2.662-2.663S54.641,38.152,54.641,39.62z M53.806,39.62   c0-0.572-0.264-1.083-0.676-1.418l-1.044,1.493c-0.025,0.037-0.065,0.056-0.108,0.056c-0.025,0-0.052-0.007-0.074-0.023   c-0.06-0.042-0.074-0.124-0.033-0.184l1.044-1.492c-0.274-0.164-0.593-0.26-0.936-0.26c-1.009,0-1.827,0.818-1.827,1.828   c0,1.009,0.818,1.827,1.827,1.827S53.806,40.629,53.806,39.62z M54.641,47.157c0,1.468-1.194,2.663-2.662,2.663   s-2.662-1.194-2.662-2.663c0-1.468,1.194-2.662,2.662-2.662S54.641,45.689,54.641,47.157z M53.806,47.157   c0-1.009-0.818-1.827-1.827-1.827c-0.342,0-0.662,0.096-0.936,0.26l1.043,1.492c0.042,0.06,0.027,0.142-0.032,0.183   c-0.023,0.017-0.049,0.024-0.075,0.024c-0.041,0-0.082-0.019-0.108-0.056l-1.044-1.493c-0.411,0.335-0.675,0.846-0.675,1.418   c0,1.009,0.818,1.827,1.827,1.827S53.806,48.166,53.806,47.157z M16.47,47.157c0,1.468-1.194,2.663-2.662,2.663   c-1.468,0-2.663-1.194-2.663-2.663c0-1.468,1.194-2.662,2.663-2.662C15.276,44.495,16.47,45.689,16.47,47.157z M15.635,47.157   c0-0.572-0.264-1.083-0.676-1.418l-1.044,1.493c-0.025,0.037-0.066,0.056-0.107,0.056c-0.026,0-0.053-0.007-0.076-0.024   c-0.059-0.042-0.074-0.123-0.032-0.183l1.043-1.492c-0.274-0.164-0.593-0.26-0.935-0.26c-1.009,0-1.828,0.818-1.828,1.827   s0.818,1.827,1.828,1.827C14.817,48.984,15.635,48.166,15.635,47.157z M81.214,32.083c0,1.468-1.194,2.662-2.662,2.662   s-2.663-1.194-2.663-2.662c0-1.469,1.195-2.663,2.663-2.663S81.214,30.614,81.214,32.083z M80.379,32.083   c0-0.573-0.264-1.083-0.676-1.418l-1.044,1.493c-0.025,0.036-0.066,0.056-0.107,0.056c-0.026,0-0.053-0.007-0.075-0.023   c-0.061-0.042-0.074-0.124-0.032-0.183l1.043-1.492c-0.274-0.165-0.594-0.26-0.936-0.26c-1.01,0-1.827,0.818-1.827,1.827   c0,1.008,0.817,1.827,1.827,1.827C79.56,33.91,80.379,33.091,80.379,32.083z M75.888,17.008c0-1.468,1.195-2.663,2.663-2.663   s2.662,1.195,2.662,2.663c0,1.469-1.194,2.663-2.662,2.663S75.888,18.477,75.888,17.008z M76.724,17.008   c0,1.009,0.817,1.827,1.827,1.827c1.009,0,1.827-0.818,1.827-1.827c0-0.572-0.264-1.083-0.676-1.417l-1.044,1.493   c-0.025,0.037-0.066,0.056-0.107,0.056c-0.026,0-0.053-0.008-0.075-0.024c-0.061-0.042-0.074-0.124-0.032-0.183l1.043-1.492   c-0.274-0.164-0.594-0.26-0.936-0.26C77.542,15.181,76.724,15.999,76.724,17.008z M62.275,39.62c0,1.468-1.194,2.662-2.662,2.662   s-2.661-1.194-2.661-2.662c0-1.468,1.193-2.663,2.661-2.663S62.275,38.152,62.275,39.62z M61.44,39.62   c0-1.009-0.817-1.828-1.827-1.828c-0.342,0-0.661,0.096-0.936,0.26l1.044,1.492c0.041,0.06,0.027,0.142-0.032,0.184   c-0.023,0.016-0.05,0.023-0.075,0.023c-0.042,0-0.082-0.02-0.108-0.056l-1.044-1.493c-0.412,0.334-0.676,0.846-0.676,1.418   c0,1.009,0.819,1.827,1.827,1.827C60.623,41.447,61.44,40.629,61.44,39.62z M83.523,39.62c0-1.468,1.194-2.663,2.662-2.663   c1.469,0,2.662,1.194,2.662,2.663c0,1.468-1.193,2.662-2.662,2.662C84.718,42.282,83.523,41.088,83.523,39.62z M84.358,39.62   c0,1.009,0.818,1.827,1.827,1.827s1.828-0.818,1.828-1.827c0-0.572-0.264-1.083-0.676-1.418l-1.045,1.493   c-0.025,0.037-0.065,0.056-0.107,0.056c-0.026,0-0.053-0.007-0.075-0.023c-0.06-0.042-0.074-0.124-0.032-0.184l1.043-1.492   c-0.273-0.164-0.593-0.26-0.936-0.26C85.177,37.792,84.358,38.611,84.358,39.62z M75.888,24.545c0-1.468,1.195-2.663,2.663-2.663   s2.662,1.194,2.662,2.663s-1.194,2.663-2.662,2.663S75.888,26.014,75.888,24.545z M76.724,24.545c0,1.009,0.817,1.827,1.827,1.827   c1.009,0,1.827-0.818,1.827-1.827s-0.818-1.827-1.827-1.827c-0.343,0-0.662,0.096-0.936,0.259l1.043,1.493   c0.042,0.06,0.027,0.142-0.032,0.183c-0.022,0.016-0.049,0.024-0.075,0.024c-0.042,0-0.083-0.02-0.107-0.056L77.4,23.128   C76.988,23.463,76.724,23.973,76.724,24.545z M88.847,32.083c0,1.468-1.193,2.662-2.662,2.662c-1.468,0-2.662-1.194-2.662-2.662   c0-1.469,1.194-2.663,2.662-2.663C87.654,29.42,88.847,30.614,88.847,32.083z M88.013,32.083c0-1.009-0.819-1.827-1.828-1.827   c-0.342,0-0.661,0.095-0.935,0.26l1.042,1.492c0.042,0.06,0.027,0.142-0.032,0.183c-0.022,0.017-0.049,0.023-0.075,0.023   c-0.041,0-0.082-0.02-0.107-0.056l-1.044-1.493c-0.412,0.335-0.676,0.845-0.676,1.418c0,1.008,0.818,1.827,1.827,1.827   S88.013,33.091,88.013,32.083z M62.275,32.083c0,1.468-1.194,2.662-2.662,2.662s-2.661-1.194-2.661-2.662   c0-1.469,1.193-2.663,2.661-2.663S62.275,30.614,62.275,32.083z M61.44,32.083c0-0.573-0.264-1.083-0.675-1.418l-1.044,1.493   c-0.025,0.036-0.066,0.056-0.108,0.056c-0.026,0-0.052-0.007-0.075-0.023c-0.059-0.042-0.073-0.124-0.032-0.183l1.043-1.492   c-0.273-0.165-0.593-0.26-0.936-0.26c-1.008,0-1.827,0.818-1.827,1.827c0,1.008,0.819,1.827,1.827,1.827   C60.623,33.91,61.44,33.091,61.44,32.083z M58.863,62.855c-0.003,0.002-0.011,0.01-0.011,0.027v10.146h1.006V62.883   c0-0.018-0.008-0.025-0.011-0.027H58.863z M51.269,62.855c-0.003,0.002-0.011,0.01-0.011,0.027v4.734h1.005v-4.734   c0-0.018-0.007-0.025-0.011-0.027H51.269z M62.275,47.157c0,1.468-1.194,2.663-2.662,2.663s-2.661-1.194-2.661-2.663   c0-1.468,1.193-2.662,2.661-2.662S62.275,45.689,62.275,47.157z M61.44,47.157c0-0.572-0.264-1.083-0.675-1.418l-1.044,1.493   c-0.025,0.037-0.066,0.056-0.108,0.056c-0.026,0-0.052-0.007-0.075-0.024c-0.059-0.042-0.073-0.123-0.032-0.183l1.043-1.492   c-0.273-0.164-0.593-0.26-0.936-0.26c-1.008,0-1.827,0.818-1.827,1.827s0.819,1.827,1.827,1.827   C60.623,48.984,61.44,48.166,61.44,47.157z M75.888,39.62c0-1.468,1.195-2.663,2.663-2.663s2.662,1.194,2.662,2.663   c0,1.468-1.194,2.662-2.662,2.662S75.888,41.088,75.888,39.62z M76.724,39.62c0,1.009,0.817,1.827,1.827,1.827   c1.009,0,1.827-0.818,1.827-1.827c0-1.009-0.818-1.828-1.827-1.828c-0.343,0-0.662,0.096-0.936,0.26l1.043,1.492   c0.042,0.06,0.027,0.142-0.032,0.184c-0.022,0.016-0.049,0.023-0.075,0.023c-0.042,0-0.083-0.02-0.107-0.056L77.4,38.202   C76.988,38.537,76.724,39.048,76.724,39.62z M31.739,47.157c0,1.468-1.194,2.663-2.663,2.663c-1.468,0-2.662-1.194-2.662-2.663   c0-1.468,1.194-2.662,2.662-2.662C30.545,44.495,31.739,45.689,31.739,47.157z M30.904,47.157c0-0.572-0.264-1.083-0.675-1.418   l-1.043,1.493c-0.026,0.037-0.067,0.056-0.108,0.056c-0.026,0-0.052-0.007-0.075-0.024c-0.06-0.042-0.074-0.123-0.032-0.183   l1.043-1.492c-0.273-0.164-0.593-0.26-0.936-0.26c-1.009,0-1.827,0.818-1.827,1.827s0.818,1.827,1.827,1.827   S30.904,48.166,30.904,47.157z M61.751,52.352h-4.755c-0.074,0-0.136,0.062-0.136,0.137v1.92c0,0.075,0.062,0.137,0.136,0.137   h4.755c0.075,0,0.136-0.062,0.136-0.137v-1.92C61.886,52.413,61.826,52.352,61.751,52.352z M61.751,56.618h-4.755   c-0.074,0-0.136,0.062-0.136,0.137v1.92c0,0.075,0.062,0.137,0.136,0.137h4.755c0.075,0,0.136-0.062,0.136-0.137v-1.92   C61.886,56.68,61.826,56.618,61.751,56.618z M24.104,17.008c0,1.469-1.194,2.663-2.662,2.663s-2.662-1.194-2.662-2.663   c0-1.468,1.194-2.663,2.662-2.663S24.104,15.541,24.104,17.008z M23.269,17.008c0-1.009-0.818-1.827-1.827-1.827   c-0.342,0-0.661,0.096-0.936,0.26l1.043,1.492c0.042,0.06,0.027,0.142-0.032,0.183c-0.023,0.016-0.049,0.024-0.075,0.024   c-0.042,0-0.083-0.02-0.108-0.056l-1.044-1.493c-0.412,0.334-0.675,0.845-0.675,1.417c0,1.009,0.818,1.827,1.827,1.827   S23.269,18.018,23.269,17.008z M43.665,85.427c0,0.018,0.007,0.025,0.01,0.028h0.985c0.002-0.003,0.01-0.011,0.01-0.028V69.791   h-1.004V85.427z M24.104,39.62c0,1.468-1.194,2.662-2.662,2.662s-2.662-1.194-2.662-2.662c0-1.468,1.194-2.663,2.662-2.663   S24.104,38.152,24.104,39.62z M23.269,39.62c0-0.572-0.264-1.083-0.675-1.418l-1.044,1.493c-0.026,0.037-0.066,0.056-0.108,0.056   c-0.026,0-0.052-0.007-0.075-0.023c-0.06-0.042-0.074-0.124-0.032-0.184l1.043-1.492c-0.274-0.164-0.593-0.26-0.936-0.26   c-1.009,0-1.827,0.818-1.827,1.828c0,1.009,0.818,1.827,1.827,1.827S23.269,40.629,23.269,39.62z M24.104,32.083   c0,1.468-1.194,2.662-2.662,2.662s-2.662-1.194-2.662-2.662c0-1.469,1.194-2.663,2.662-2.663S24.104,30.614,24.104,32.083z    M23.269,32.083c0-1.009-0.818-1.827-1.827-1.827c-0.342,0-0.661,0.095-0.936,0.26l1.043,1.492c0.042,0.06,0.027,0.142-0.032,0.183   c-0.023,0.017-0.049,0.023-0.075,0.023c-0.042,0-0.083-0.02-0.108-0.056l-1.044-1.493c-0.412,0.335-0.675,0.845-0.675,1.418   c0,1.008,0.818,1.827,1.827,1.827S23.269,33.091,23.269,32.083z M39.373,17.008c0,1.469-1.194,2.663-2.662,2.663   c-1.469,0-2.663-1.194-2.663-2.663c0-1.468,1.194-2.663,2.663-2.663C38.179,14.346,39.373,15.541,39.373,17.008z M38.538,17.008   c0-1.009-0.819-1.827-1.827-1.827c-0.343,0-0.662,0.096-0.936,0.26l1.043,1.492c0.042,0.06,0.027,0.142-0.032,0.183   c-0.023,0.016-0.05,0.024-0.075,0.024c-0.042,0-0.083-0.02-0.108-0.056l-1.044-1.493c-0.412,0.334-0.676,0.845-0.676,1.417   c0,1.009,0.819,1.827,1.828,1.827C37.719,18.835,38.538,18.018,38.538,17.008z M23.78,52.352h-4.754   c-0.075,0-0.137,0.062-0.137,0.137v1.92c0,0.075,0.062,0.137,0.137,0.137h4.754c0.075,0,0.136-0.062,0.136-0.137v-1.92   C23.916,52.413,23.855,52.352,23.78,52.352z M24.104,47.157c0,1.468-1.194,2.663-2.662,2.663s-2.662-1.194-2.662-2.663   c0-1.468,1.194-2.662,2.662-2.662S24.104,45.689,24.104,47.157z M23.269,47.157c0-1.009-0.818-1.827-1.827-1.827   c-0.342,0-0.661,0.096-0.936,0.26l1.043,1.492c0.042,0.06,0.027,0.142-0.032,0.183c-0.023,0.017-0.049,0.024-0.075,0.024   c-0.042,0-0.083-0.019-0.108-0.056l-1.044-1.493c-0.412,0.335-0.675,0.846-0.675,1.418c0,1.009,0.818,1.827,1.827,1.827   S23.269,48.166,23.269,47.157z M31.374,52.352H26.62c-0.076,0-0.137,0.062-0.137,0.137v1.92c0,0.075,0.061,0.137,0.137,0.137h4.754   c0.074,0,0.136-0.062,0.136-0.137v-1.92C31.51,52.413,31.448,52.352,31.374,52.352z M24.104,24.545   c0,1.468-1.194,2.663-2.662,2.663s-2.662-1.195-2.662-2.663s1.194-2.663,2.662-2.663S24.104,23.077,24.104,24.545z M23.269,24.545   c0-0.572-0.264-1.083-0.675-1.417l-1.044,1.493c-0.026,0.036-0.066,0.056-0.108,0.056c-0.026,0-0.052-0.008-0.075-0.024   c-0.06-0.042-0.074-0.123-0.032-0.183l1.043-1.493c-0.274-0.163-0.593-0.259-0.936-0.259c-1.009,0-1.827,0.818-1.827,1.827   s0.818,1.827,1.827,1.827S23.269,25.555,23.269,24.545z M39.373,32.083c0,1.468-1.194,2.662-2.662,2.662   c-1.469,0-2.663-1.194-2.663-2.662c0-1.469,1.194-2.663,2.663-2.663C38.179,29.42,39.373,30.614,39.373,32.083z M38.538,32.083   c0-1.009-0.819-1.827-1.827-1.827c-0.343,0-0.662,0.095-0.936,0.26l1.043,1.492c0.042,0.06,0.027,0.142-0.032,0.183   c-0.023,0.017-0.05,0.023-0.075,0.023c-0.042,0-0.083-0.02-0.108-0.056l-1.044-1.493c-0.412,0.335-0.676,0.845-0.676,1.418   c0,1.008,0.819,1.827,1.828,1.827C37.719,33.91,38.538,33.091,38.538,32.083z M28.522,62.855c-0.003,0.002-0.01,0.01-0.01,0.027   v4.734h1.004v-4.734c0-0.018-0.007-0.025-0.011-0.027H28.522z M31.374,56.618H26.62c-0.076,0-0.137,0.062-0.137,0.137v1.92   c0,0.075,0.061,0.137,0.137,0.137h4.754c0.074,0,0.136-0.062,0.136-0.137v-1.92C31.51,56.68,31.448,56.618,31.374,56.618z    M23.78,56.618h-4.754c-0.075,0-0.137,0.062-0.137,0.137v1.92c0,0.075,0.062,0.137,0.137,0.137h4.754   c0.075,0,0.136-0.062,0.136-0.137v-1.92C23.916,56.68,23.855,56.618,23.78,56.618z M28.512,85.386c0,0.017,0.007,0.025,0.01,0.028   h0.984c0.003-0.003,0.011-0.012,0.011-0.028V75.162h-1.004V85.386z M39.373,24.545c0,1.468-1.194,2.663-2.662,2.663   c-1.469,0-2.663-1.195-2.663-2.663s1.194-2.663,2.663-2.663C38.179,21.883,39.373,23.077,39.373,24.545z M38.538,24.545   c0-0.572-0.264-1.083-0.676-1.417l-1.044,1.493c-0.026,0.036-0.067,0.056-0.107,0.056c-0.026,0-0.053-0.008-0.076-0.024   c-0.059-0.042-0.074-0.123-0.032-0.183l1.043-1.493c-0.273-0.163-0.593-0.259-0.935-0.259c-1.009,0-1.828,0.818-1.828,1.827   s0.818,1.827,1.828,1.827C37.719,26.373,38.538,25.555,38.538,24.545z M83.523,24.545c0-1.468,1.194-2.663,2.662-2.663   c1.469,0,2.662,1.194,2.662,2.663s-1.193,2.663-2.662,2.663C84.718,27.208,83.523,26.014,83.523,24.545z M84.358,24.545   c0,1.009,0.818,1.827,1.827,1.827s1.828-0.818,1.828-1.827c0-0.572-0.264-1.083-0.676-1.417l-1.045,1.493   c-0.025,0.036-0.065,0.056-0.107,0.056c-0.026,0-0.053-0.008-0.075-0.024c-0.06-0.042-0.074-0.123-0.032-0.183l1.043-1.493   c-0.273-0.163-0.593-0.259-0.936-0.259C85.177,22.718,84.358,23.536,84.358,24.545z M51.259,85.386   c0,0.017,0.008,0.025,0.011,0.028h0.983c0.004-0.003,0.011-0.012,0.011-0.028V75.162h-1.005V85.386z M16.47,17.008   c0,1.469-1.194,2.663-2.662,2.663c-1.468,0-2.663-1.194-2.663-2.663c0-1.468,1.194-2.663,2.663-2.663   C15.276,14.346,16.47,15.541,16.47,17.008z M15.635,17.008c0-0.572-0.264-1.083-0.676-1.417l-1.044,1.493   c-0.025,0.037-0.066,0.056-0.107,0.056c-0.026,0-0.053-0.008-0.076-0.024c-0.059-0.042-0.074-0.124-0.032-0.183l1.043-1.492   c-0.274-0.164-0.593-0.26-0.935-0.26c-1.009,0-1.828,0.818-1.828,1.827s0.818,1.827,1.828,1.827   C14.817,18.835,15.635,18.018,15.635,17.008z M47.007,24.545c0,1.468-1.194,2.663-2.662,2.663c-1.468,0-2.663-1.195-2.663-2.663   s1.194-2.663,2.663-2.663C45.813,21.883,47.007,23.077,47.007,24.545z M46.172,24.545c0-1.009-0.818-1.827-1.827-1.827   c-0.342,0-0.661,0.096-0.936,0.259l1.043,1.493c0.042,0.06,0.027,0.142-0.032,0.183c-0.023,0.016-0.049,0.024-0.076,0.024   c-0.042,0-0.083-0.02-0.107-0.056l-1.044-1.493c-0.412,0.335-0.675,0.845-0.675,1.417c0,1.009,0.818,1.827,1.827,1.827   S46.172,25.555,46.172,24.545z M47.007,32.083c0,1.468-1.194,2.662-2.662,2.662c-1.468,0-2.663-1.194-2.663-2.662   c0-1.469,1.194-2.663,2.663-2.663C45.813,29.42,47.007,30.614,47.007,32.083z M46.172,32.083c0-0.573-0.264-1.083-0.676-1.418   l-1.043,1.493c-0.025,0.036-0.066,0.056-0.108,0.056c-0.026,0-0.052-0.007-0.075-0.023c-0.06-0.042-0.075-0.124-0.032-0.183   l1.042-1.492c-0.273-0.165-0.593-0.26-0.935-0.26c-1.009,0-1.827,0.818-1.827,1.827c0,1.008,0.818,1.827,1.827,1.827   S46.172,33.091,46.172,32.083z M47.007,17.008c0,1.469-1.194,2.663-2.662,2.663c-1.468,0-2.663-1.194-2.663-2.663   c0-1.468,1.194-2.663,2.663-2.663C45.813,14.346,47.007,15.541,47.007,17.008z M46.172,17.008c0-0.572-0.264-1.083-0.676-1.417   l-1.043,1.493c-0.025,0.037-0.066,0.056-0.108,0.056c-0.026,0-0.052-0.008-0.075-0.024c-0.06-0.042-0.075-0.124-0.032-0.183   l1.042-1.492c-0.273-0.164-0.593-0.26-0.935-0.26c-1.009,0-1.827,0.818-1.827,1.827s0.818,1.827,1.827,1.827   S46.172,18.018,46.172,17.008z M16.47,32.083c0,1.468-1.194,2.662-2.662,2.662c-1.468,0-2.663-1.194-2.663-2.662   c0-1.469,1.194-2.663,2.663-2.663C15.276,29.42,16.47,30.614,16.47,32.083z M15.635,32.083c0-0.573-0.264-1.083-0.676-1.418   l-1.044,1.493c-0.025,0.036-0.066,0.056-0.107,0.056c-0.026,0-0.053-0.007-0.076-0.023c-0.059-0.042-0.074-0.124-0.032-0.183   l1.043-1.492c-0.274-0.165-0.593-0.26-0.935-0.26c-1.009,0-1.828,0.818-1.828,1.827c0,1.008,0.818,1.827,1.828,1.827   C14.817,33.91,15.635,33.091,15.635,32.083z M20.918,85.386c0,0.017,0.007,0.025,0.01,0.028h0.985   c0.002-0.003,0.01-0.012,0.01-0.028v-4.811h-1.005V85.386z M16.47,24.545c0,1.468-1.194,2.663-2.662,2.663   c-1.468,0-2.663-1.195-2.663-2.663s1.194-2.663,2.663-2.663C15.276,21.883,16.47,23.077,16.47,24.545z M15.635,24.545   c0-1.009-0.818-1.827-1.827-1.827c-0.342,0-0.662,0.096-0.936,0.259l1.043,1.493c0.042,0.06,0.027,0.142-0.033,0.183   c-0.023,0.016-0.048,0.024-0.075,0.024c-0.042,0-0.083-0.02-0.108-0.056l-1.043-1.493c-0.412,0.335-0.676,0.845-0.676,1.417   c0,1.009,0.818,1.827,1.828,1.827C14.817,26.373,15.635,25.555,15.635,24.545z M47.007,39.62c0,1.468-1.194,2.662-2.662,2.662   c-1.468,0-2.663-1.194-2.663-2.662c0-1.468,1.194-2.663,2.663-2.663C45.813,36.958,47.007,38.152,47.007,39.62z M46.172,39.62   c0-1.009-0.818-1.828-1.827-1.828c-0.342,0-0.661,0.096-0.936,0.26l1.043,1.492c0.042,0.06,0.027,0.142-0.032,0.184   c-0.023,0.016-0.049,0.023-0.076,0.023c-0.042,0-0.083-0.02-0.107-0.056l-1.044-1.493c-0.412,0.334-0.675,0.846-0.675,1.418   c0,1.009,0.818,1.827,1.827,1.827S46.172,40.629,46.172,39.62z M46.562,52.352h-4.754c-0.075,0-0.136,0.062-0.136,0.137v1.92   c0,0.075,0.061,0.137,0.136,0.137h4.754c0.075,0,0.136-0.062,0.136-0.137v-1.92C46.698,52.413,46.637,52.352,46.562,52.352z    M46.562,56.618h-4.754c-0.075,0-0.136,0.062-0.136,0.137v1.92c0,0.075,0.061,0.137,0.136,0.137h4.754   c0.075,0,0.136-0.062,0.136-0.137v-1.92C46.698,56.68,46.637,56.618,46.562,56.618z M39.373,47.157   c0,1.468-1.194,2.663-2.662,2.663c-1.469,0-2.663-1.194-2.663-2.663c0-1.468,1.194-2.662,2.663-2.662   C38.179,44.495,39.373,45.689,39.373,47.157z M38.538,47.157c0-1.009-0.819-1.827-1.827-1.827c-0.343,0-0.662,0.096-0.936,0.26   l1.043,1.492c0.042,0.06,0.027,0.142-0.032,0.183c-0.023,0.017-0.05,0.024-0.075,0.024c-0.042,0-0.083-0.019-0.108-0.056   l-1.044-1.493c-0.412,0.335-0.676,0.846-0.676,1.418c0,1.009,0.819,1.827,1.828,1.827C37.719,48.984,38.538,48.166,38.538,47.157z    M47.007,47.157c0,1.468-1.194,2.663-2.662,2.663c-1.468,0-2.663-1.194-2.663-2.663c0-1.468,1.194-2.662,2.663-2.662   C45.813,44.495,47.007,45.689,47.007,47.157z M46.172,47.157c0-0.572-0.264-1.083-0.676-1.418l-1.043,1.493   c-0.025,0.037-0.066,0.056-0.108,0.056c-0.026,0-0.052-0.007-0.075-0.024c-0.06-0.042-0.075-0.123-0.032-0.183l1.042-1.492   c-0.273-0.164-0.593-0.26-0.935-0.26c-1.009,0-1.827,0.818-1.827,1.827s0.818,1.827,1.827,1.827S46.172,48.166,46.172,47.157z    M38.968,56.618h-4.754c-0.075,0-0.136,0.062-0.136,0.137v1.92c0,0.075,0.061,0.137,0.136,0.137h4.754   c0.075,0,0.136-0.062,0.136-0.137v-1.92C39.104,56.68,39.043,56.618,38.968,56.618z M20.928,62.855   c-0.003,0.002-0.01,0.01-0.01,0.027v10.146h1.005V62.883c0-0.018-0.007-0.025-0.01-0.027H20.928z M36.107,85.386   c0,0.017,0.007,0.025,0.01,0.028H37.1c0.003-0.003,0.011-0.012,0.011-0.028V69.751h-1.004V85.386z M62.275,24.545   c0,1.468-1.194,2.663-2.662,2.663s-2.661-1.195-2.661-2.663s1.193-2.663,2.661-2.663S62.275,23.077,62.275,24.545z M61.44,24.545   c0-1.009-0.817-1.827-1.827-1.827c-0.342,0-0.661,0.096-0.936,0.259l1.044,1.493c0.041,0.06,0.027,0.142-0.032,0.183   c-0.023,0.016-0.05,0.024-0.075,0.024c-0.042,0-0.082-0.02-0.108-0.056l-1.044-1.493c-0.412,0.335-0.676,0.845-0.676,1.417   c0,1.009,0.819,1.827,1.827,1.827C60.623,26.373,61.44,25.555,61.44,24.545z M31.739,32.083c0,1.468-1.194,2.662-2.663,2.662   c-1.468,0-2.662-1.194-2.662-2.662c0-1.469,1.194-2.663,2.662-2.663C30.545,29.42,31.739,30.614,31.739,32.083z M30.904,32.083   c0-0.573-0.264-1.083-0.675-1.418l-1.043,1.493c-0.026,0.036-0.067,0.056-0.108,0.056c-0.026,0-0.052-0.007-0.075-0.023   c-0.06-0.042-0.074-0.124-0.032-0.183l1.043-1.492c-0.273-0.165-0.593-0.26-0.936-0.26c-1.009,0-1.827,0.818-1.827,1.827   c0,1.008,0.818,1.827,1.827,1.827S30.904,33.091,30.904,32.083z M31.739,39.62c0,1.468-1.194,2.662-2.663,2.662   c-1.468,0-2.662-1.194-2.662-2.662c0-1.468,1.194-2.663,2.662-2.663C30.545,36.958,31.739,38.152,31.739,39.62z M30.904,39.62   c0-1.009-0.818-1.828-1.827-1.828c-0.342,0-0.662,0.096-0.935,0.26l1.043,1.492c0.042,0.06,0.027,0.142-0.033,0.184   c-0.022,0.016-0.049,0.023-0.075,0.023c-0.042,0-0.083-0.02-0.107-0.056l-1.044-1.493c-0.412,0.334-0.676,0.846-0.676,1.418   c0,1.009,0.818,1.827,1.827,1.827S30.904,40.629,30.904,39.62z M69.91,32.083c0,1.468-1.194,2.662-2.662,2.662   s-2.662-1.194-2.662-2.662c0-1.469,1.194-2.663,2.662-2.663S69.91,30.614,69.91,32.083z M69.075,32.083   c0-1.009-0.818-1.827-1.827-1.827c-0.342,0-0.662,0.095-0.936,0.26l1.043,1.492c0.042,0.06,0.027,0.142-0.032,0.183   c-0.023,0.017-0.049,0.023-0.075,0.023c-0.042,0-0.082-0.02-0.108-0.056l-1.043-1.493c-0.412,0.335-0.676,0.845-0.676,1.418   c0,1.008,0.818,1.827,1.827,1.827S69.075,33.091,69.075,32.083z M69.91,17.008c0,1.469-1.194,2.663-2.662,2.663   s-2.662-1.194-2.662-2.663c0-1.468,1.194-2.663,2.662-2.663S69.91,15.541,69.91,17.008z M69.075,17.008   c0-1.009-0.818-1.827-1.827-1.827c-0.342,0-0.662,0.096-0.936,0.26l1.043,1.492c0.042,0.06,0.027,0.142-0.032,0.183   c-0.023,0.016-0.049,0.024-0.075,0.024c-0.042,0-0.082-0.02-0.108-0.056l-1.043-1.493c-0.412,0.334-0.676,0.845-0.676,1.417   c0,1.009,0.818,1.827,1.827,1.827S69.075,18.018,69.075,17.008z M69.91,24.545c0,1.468-1.194,2.663-2.662,2.663   s-2.662-1.195-2.662-2.663s1.194-2.663,2.662-2.663S69.91,23.077,69.91,24.545z M69.075,24.545c0-0.572-0.264-1.083-0.676-1.417   l-1.044,1.493c-0.025,0.036-0.066,0.056-0.107,0.056c-0.026,0-0.053-0.008-0.076-0.024c-0.059-0.042-0.073-0.123-0.032-0.183   l1.044-1.493c-0.273-0.163-0.594-0.259-0.936-0.259c-1.009,0-1.827,0.818-1.827,1.827s0.818,1.827,1.827,1.827   S69.075,25.555,69.075,24.545z M93.159,87.742H6.842V12.202h86.317V87.742z M82.866,17.008c0,1.831,1.488,3.32,3.319,3.32   s3.32-1.49,3.32-3.32s-1.489-3.319-3.32-3.319S82.866,15.178,82.866,17.008z M82.866,24.545c0,1.831,1.488,3.32,3.319,3.32   s3.32-1.489,3.32-3.32c0-1.831-1.489-3.32-3.32-3.32S82.866,22.715,82.866,24.545z M86.185,28.763c-1.831,0-3.319,1.489-3.319,3.32   c0,1.831,1.488,3.319,3.319,3.319s3.32-1.489,3.32-3.319C89.506,30.252,88.016,28.763,86.185,28.763z M82.866,39.62   c0,1.83,1.488,3.319,3.319,3.319s3.32-1.489,3.32-3.319c0-1.832-1.489-3.32-3.32-3.32S82.866,37.789,82.866,39.62z M75.231,17.008   c0,1.831,1.489,3.32,3.32,3.32c1.83,0,3.32-1.49,3.32-3.32s-1.49-3.319-3.32-3.319C76.72,13.689,75.231,15.178,75.231,17.008z    M75.231,24.545c0,1.831,1.489,3.32,3.32,3.32c1.83,0,3.32-1.489,3.32-3.32c0-1.831-1.49-3.32-3.32-3.32   C76.72,21.226,75.231,22.715,75.231,24.545z M78.552,28.763c-1.831,0-3.32,1.489-3.32,3.32c0,1.831,1.489,3.319,3.32,3.319   c1.83,0,3.32-1.489,3.32-3.319C81.872,30.252,80.382,28.763,78.552,28.763z M75.231,39.62c0,1.83,1.489,3.319,3.32,3.319   c1.83,0,3.32-1.489,3.32-3.319c0-1.832-1.49-3.32-3.32-3.32C76.72,36.3,75.231,37.789,75.231,39.62z M15.587,84.893h-3.558v0.632   c0,0.255,0.208,0.463,0.463,0.463h2.633c0.255,0,0.462-0.208,0.462-0.463V84.893z M15.587,84.207h-3.558v0.52h3.558V84.207z    M15.587,82.477h-3.558v1.398h3.558V82.477z M15.587,80.554h-3.558v1.398h3.558V80.554z M15.587,79.702h-3.558v0.519h3.558V79.702z    M15.899,64.033h-1.135v-1.15c0-0.256-0.198-0.463-0.443-0.463h-0.989c-0.246,0-0.443,0.207-0.443,0.463v1.15h-1.172v0.499h1.172   v3.981h-1.172v0.499h1.172v3.973h-1.172v0.499h1.172v3.981h-1.172v0.499h1.172v0.477h-0.396c-0.255,0-0.463,0.207-0.463,0.463   v0.632h3.558v-0.632c0-0.256-0.208-0.463-0.462-0.463h-0.361v-0.477h1.135v-0.499h-1.135v-3.981h1.135v-0.499h-1.135v-3.973h1.135   v-0.499h-1.135v-3.981h1.135V64.033z M16.648,56.755c0-0.256-0.207-0.463-0.462-0.463h-4.754c-0.256,0-0.463,0.207-0.463,0.463   v1.92c0,0.256,0.207,0.464,0.463,0.464h4.754c0.255,0,0.462-0.208,0.462-0.464V56.755z M16.648,52.488   c0-0.256-0.207-0.463-0.462-0.463h-4.754c-0.256,0-0.463,0.207-0.463,0.463v1.92c0,0.256,0.207,0.464,0.463,0.464h4.754   c0.255,0,0.462-0.208,0.462-0.464V52.488z M17.128,47.157c0-1.831-1.489-3.32-3.319-3.32c-1.831,0-3.32,1.49-3.32,3.32   s1.49,3.32,3.32,3.32C15.638,50.477,17.128,48.987,17.128,47.157z M17.128,39.62c0-1.832-1.489-3.32-3.319-3.32   c-1.831,0-3.32,1.489-3.32,3.32c0,1.83,1.49,3.319,3.32,3.319C15.638,42.939,17.128,41.45,17.128,39.62z M17.128,32.083   c0-1.831-1.489-3.32-3.319-3.32c-1.831,0-3.32,1.489-3.32,3.32c0,1.831,1.49,3.319,3.32,3.319   C15.638,35.402,17.128,33.914,17.128,32.083z M17.128,24.545c0-1.831-1.489-3.32-3.319-3.32c-1.831,0-3.32,1.489-3.32,3.32   c0,1.831,1.49,3.32,3.32,3.32C15.638,27.866,17.128,26.376,17.128,24.545z M17.128,17.008c0-1.831-1.489-3.319-3.319-3.319   c-1.831,0-3.32,1.489-3.32,3.319s1.49,3.32,3.32,3.32C15.638,20.329,17.128,18.839,17.128,17.008z M23.493,81.965h-1.136v-1.39   h0.36c0.256,0,0.463-0.207,0.463-0.463v-0.633h-3.558v0.633c0,0.256,0.208,0.463,0.463,0.463h0.397v1.39h-1.172v0.499h1.172v2.922   c0,0.256,0.197,0.463,0.442,0.463h0.99c0.245,0,0.443-0.207,0.443-0.463v-2.922h1.136V81.965z M19.623,75.142v1.397h3.558v-1.397   H19.623z M23.181,74.809V74.29h-3.558v0.519H23.181z M19.623,77.064v1.397h3.558v-1.397H19.623z M19.623,78.795v0.519h3.558v-0.519   H19.623z M23.493,64.033h-1.136v-1.15c0-0.256-0.198-0.463-0.443-0.463h-0.99c-0.245,0-0.442,0.207-0.442,0.463v1.15h-1.172v0.499   h1.172v3.981h-1.172v0.499h1.172v4.016h-0.397c-0.255,0-0.463,0.208-0.463,0.463v0.632h3.558v-0.632   c0-0.255-0.207-0.463-0.463-0.463h-0.36v-4.016h1.136v-0.499h-1.136v-3.981h1.136V64.033z M24.242,56.755   c0-0.256-0.208-0.463-0.462-0.463h-4.754c-0.256,0-0.463,0.207-0.463,0.463v1.92c0,0.256,0.207,0.464,0.463,0.464h4.754   c0.255,0,0.462-0.208,0.462-0.464V56.755z M24.242,52.488c0-0.256-0.208-0.463-0.462-0.463h-4.754   c-0.256,0-0.463,0.207-0.463,0.463v1.92c0,0.256,0.207,0.464,0.463,0.464h4.754c0.255,0,0.462-0.208,0.462-0.464V52.488z    M24.762,47.157c0-1.831-1.489-3.32-3.32-3.32c-1.831,0-3.32,1.49-3.32,3.32s1.489,3.32,3.32,3.32   C23.273,50.477,24.762,48.987,24.762,47.157z M24.762,39.62c0-1.832-1.489-3.32-3.32-3.32c-1.831,0-3.32,1.489-3.32,3.32   c0,1.83,1.489,3.319,3.32,3.319C23.273,42.939,24.762,41.45,24.762,39.62z M24.762,32.083c0-1.831-1.489-3.32-3.32-3.32   c-1.831,0-3.32,1.489-3.32,3.32c0,1.831,1.489,3.319,3.32,3.319C23.273,35.402,24.762,33.914,24.762,32.083z M24.762,24.545   c0-1.831-1.489-3.32-3.32-3.32c-1.831,0-3.32,1.489-3.32,3.32c0,1.831,1.489,3.32,3.32,3.32   C23.273,27.866,24.762,26.376,24.762,24.545z M24.762,17.008c0-1.831-1.489-3.319-3.32-3.319c-1.831,0-3.32,1.489-3.32,3.319   s1.489,3.32,3.32,3.32C23.273,20.329,24.762,18.839,24.762,17.008z M31.088,77.466h-1.136c0-0.989,0-1.822,0-2.304h0.36   c0.256,0,0.463-0.207,0.463-0.463v-0.632h-3.558v0.632c0,0.256,0.207,0.463,0.463,0.463h0.396c0,0.492,0,1.322,0,2.304h-1.171   v0.499h1.171c0,1.268,0,2.719,0,4h-1.171v0.499h1.171c0,1.658,0,2.922,0,2.922c0,0.256,0.199,0.463,0.443,0.463h0.99   c0.245,0,0.443-0.207,0.443-0.463c0,0,0-1.264,0-2.922h1.136v-0.499h-1.136c0-1.282,0-2.734,0-4h1.136V77.466z M27.218,69.729   v1.399h3.558v-1.399H27.218z M30.775,69.396v-0.518h-3.558v0.518H30.775z M27.218,71.651v1.399h3.558v-1.399H27.218z    M27.218,73.383v0.519h3.558v-0.519H27.218z M31.088,64.033h-1.136v-1.15c0-0.256-0.198-0.463-0.443-0.463h-0.99   c-0.244,0-0.443,0.207-0.443,0.463v1.15h-1.171v0.499h1.171v3.085H27.68c-0.256,0-0.463,0.207-0.463,0.463v0.632h3.558V68.08   c0-0.256-0.207-0.463-0.463-0.463h-0.36v-3.085h1.136V64.033z M31.837,56.755c0-0.256-0.208-0.463-0.463-0.463H26.62   c-0.256,0-0.463,0.207-0.463,0.463v1.92c0,0.256,0.208,0.464,0.463,0.464h4.754c0.255,0,0.463-0.208,0.463-0.464V56.755z    M31.837,52.488c0-0.256-0.208-0.463-0.463-0.463H26.62c-0.256,0-0.463,0.207-0.463,0.463v1.92c0,0.256,0.208,0.464,0.463,0.464   h4.754c0.255,0,0.463-0.208,0.463-0.464V52.488z M32.397,47.157c0-1.831-1.49-3.32-3.32-3.32s-3.319,1.49-3.319,3.32   s1.489,3.32,3.319,3.32S32.397,48.987,32.397,47.157z M32.397,39.62c0-1.832-1.49-3.32-3.32-3.32s-3.319,1.489-3.319,3.32   c0,1.83,1.489,3.319,3.319,3.319S32.397,41.45,32.397,39.62z M32.397,32.083c0-1.831-1.49-3.32-3.32-3.32s-3.319,1.489-3.319,3.32   c0,1.831,1.489,3.319,3.319,3.319S32.397,33.914,32.397,32.083z M32.397,24.545c0-1.831-1.49-3.32-3.32-3.32   s-3.319,1.489-3.319,3.32c0,1.831,1.489,3.32,3.319,3.32S32.397,26.376,32.397,24.545z M32.397,17.008   c0-1.831-1.49-3.319-3.32-3.319s-3.319,1.489-3.319,3.319s1.489,3.32,3.319,3.32S32.397,18.839,32.397,17.008z M38.682,72.985   h-1.136v-3.234h0.361c0.255,0,0.462-0.208,0.462-0.463v-0.633h-3.558v0.633c0,0.255,0.207,0.463,0.463,0.463h0.396   c0,0.745,0,1.893,0,3.234H34.5v0.499h1.171c0,1.241,0,2.617,0,3.981H34.5v0.499h1.171c0,1.425,0,2.814,0,4H34.5v0.499h1.171   c0,1.736,0,2.922,0,2.922c0,0.256,0.199,0.463,0.443,0.463h0.989c0.245,0,0.443-0.207,0.443-0.463v-2.922h1.136v-0.499h-1.136v-4   h1.136v-0.499h-1.136v-3.981h1.136V72.985z M34.812,63.466v0.519h3.558v-0.519H34.812z M38.369,63.299v-0.632   c0-0.256-0.207-0.463-0.462-0.463h-2.632c-0.256,0-0.463,0.207-0.463,0.463v0.632H38.369z M34.812,64.317v1.397h3.558v-1.397   H34.812z M34.812,66.239v1.398h3.558v-1.398H34.812z M34.812,67.971v0.519h3.558v-0.519H34.812z M39.431,56.755   c0-0.256-0.208-0.463-0.463-0.463h-4.754c-0.255,0-0.463,0.207-0.463,0.463v1.92c0,0.256,0.208,0.464,0.463,0.464h4.754   c0.255,0,0.463-0.208,0.463-0.464V56.755z M39.431,52.488c0-0.256-0.208-0.463-0.463-0.463h-4.754   c-0.255,0-0.463,0.207-0.463,0.463v1.92c0,0.256,0.208,0.464,0.463,0.464h4.754c0.255,0,0.463-0.208,0.463-0.464V52.488z    M40.031,47.157c0-1.831-1.489-3.32-3.319-3.32c-1.832,0-3.32,1.49-3.32,3.32s1.489,3.32,3.32,3.32   C38.542,50.477,40.031,48.987,40.031,47.157z M40.031,39.62c0-1.832-1.489-3.32-3.319-3.32c-1.832,0-3.32,1.489-3.32,3.32   c0,1.83,1.489,3.319,3.32,3.319C38.542,42.939,40.031,41.45,40.031,39.62z M40.031,32.083c0-1.831-1.489-3.32-3.319-3.32   c-1.832,0-3.32,1.489-3.32,3.32c0,1.831,1.489,3.319,3.32,3.319C38.542,35.402,40.031,33.914,40.031,32.083z M40.031,24.545   c0-1.831-1.489-3.32-3.319-3.32c-1.832,0-3.32,1.489-3.32,3.32c0,1.831,1.489,3.32,3.32,3.32   C38.542,27.866,40.031,26.376,40.031,24.545z M40.031,17.008c0-1.831-1.489-3.319-3.319-3.319c-1.832,0-3.32,1.489-3.32,3.319   s1.489,3.32,3.32,3.32C38.542,20.329,40.031,18.839,40.031,17.008z M46.276,73.026h-1.171c0-1.342,0-2.488,0-3.235h0.396   c0.255,0,0.462-0.207,0.462-0.462v-0.633h-3.558v0.633c0,0.255,0.207,0.462,0.463,0.462h0.36v3.235h-1.135v0.499h1.135v3.981   h-1.135v0.5h1.135v3.999h-1.135v0.499h1.135v2.922c0,0.256,0.199,0.464,0.444,0.464h0.989c0.245,0,0.443-0.208,0.443-0.464   c0,0,0-1.185,0-2.922h1.171v-0.499h-1.171c0-1.186,0-2.575,0-3.999h1.171v-0.5h-1.171c0-1.363,0-2.74,0-3.981h1.171V73.026z    M42.406,63.507v0.519h3.558v-0.519H42.406z M45.964,63.34v-0.631c0-0.256-0.208-0.464-0.462-0.464h-2.632   c-0.256,0-0.463,0.208-0.463,0.464v0.631H45.964z M42.406,64.357v1.399h3.558v-1.399H42.406z M42.406,66.28v1.399h3.558V66.28   H42.406z M42.406,68.013v0.518h3.558v-0.518H42.406z M47.024,56.755c0-0.256-0.207-0.463-0.462-0.463h-4.754   c-0.256,0-0.463,0.207-0.463,0.463v1.92c0,0.256,0.207,0.464,0.463,0.464h4.754c0.256,0,0.462-0.208,0.462-0.464V56.755z    M47.024,52.488c0-0.256-0.207-0.463-0.462-0.463h-4.754c-0.256,0-0.463,0.207-0.463,0.463v1.92c0,0.256,0.207,0.464,0.463,0.464   h4.754c0.256,0,0.462-0.208,0.462-0.464V52.488z M47.665,47.157c0-1.831-1.49-3.32-3.32-3.32s-3.32,1.49-3.32,3.32   s1.49,3.32,3.32,3.32S47.665,48.987,47.665,47.157z M47.665,39.62c0-1.832-1.49-3.32-3.32-3.32s-3.32,1.489-3.32,3.32   c0,1.83,1.49,3.319,3.32,3.319S47.665,41.45,47.665,39.62z M47.665,32.083c0-1.831-1.49-3.32-3.32-3.32s-3.32,1.489-3.32,3.32   c0,1.831,1.49,3.319,3.32,3.319S47.665,33.914,47.665,32.083z M47.665,24.545c0-1.831-1.49-3.32-3.32-3.32s-3.32,1.489-3.32,3.32   c0,1.831,1.49,3.32,3.32,3.32S47.665,26.376,47.665,24.545z M47.665,17.008c0-1.831-1.49-3.319-3.32-3.319s-3.32,1.489-3.32,3.319   s1.49,3.32,3.32,3.32S47.665,18.839,47.665,17.008z M53.87,77.466h-1.171c0-0.981,0-1.812,0-2.304h0.396   c0.256,0,0.464-0.207,0.464-0.463v-0.632H50v0.632c0,0.256,0.208,0.463,0.463,0.463h0.36c0,0.481,0,1.314,0,2.304h-1.135v0.499   h1.135c0,1.266,0,2.718,0,4h-1.135v0.499h1.135c0,1.658,0,2.922,0,2.922c0,0.256,0.198,0.463,0.443,0.463h0.989   c0.244,0,0.443-0.207,0.443-0.463c0,0,0-1.264,0-2.922h1.171v-0.499h-1.171c0-1.281,0-2.732,0-4h1.171V77.466z M50,69.729v1.399   h3.559v-1.399H50z M53.558,69.396v-0.518H50v0.518H53.558z M50,71.651v1.399h3.559v-1.399H50z M50,73.383v0.519h3.559v-0.519H50z    M53.87,64.033h-1.171v-1.15c0-0.256-0.199-0.463-0.443-0.463h-0.989c-0.245,0-0.443,0.207-0.443,0.463v1.15h-1.135v0.499h1.135   v3.085h-0.36c-0.255,0-0.463,0.207-0.463,0.463v0.632h3.559V68.08c0-0.256-0.208-0.463-0.464-0.463h-0.396v-3.085h1.171V64.033z    M54.619,56.755c0-0.256-0.207-0.463-0.463-0.463h-4.754c-0.256,0-0.463,0.207-0.463,0.463v1.92c0,0.256,0.207,0.464,0.463,0.464   h4.754c0.256,0,0.463-0.208,0.463-0.464V56.755z M54.619,52.488c0-0.256-0.207-0.463-0.463-0.463h-4.754   c-0.256,0-0.463,0.207-0.463,0.463v1.92c0,0.256,0.207,0.464,0.463,0.464h4.754c0.256,0,0.463-0.208,0.463-0.464V52.488z    M55.299,47.157c0-1.831-1.488-3.32-3.319-3.32s-3.32,1.49-3.32,3.32s1.489,3.32,3.32,3.32S55.299,48.987,55.299,47.157z    M55.299,39.62c0-1.832-1.488-3.32-3.319-3.32s-3.32,1.489-3.32,3.32c0,1.83,1.489,3.319,3.32,3.319S55.299,41.45,55.299,39.62z    M55.299,32.083c0-1.831-1.488-3.32-3.319-3.32s-3.32,1.489-3.32,3.32c0,1.831,1.489,3.319,3.32,3.319S55.299,33.914,55.299,32.083   z M55.299,24.545c0-1.831-1.488-3.32-3.319-3.32s-3.32,1.489-3.32,3.32c0,1.831,1.489,3.32,3.32,3.32S55.299,26.376,55.299,24.545z    M55.299,17.008c0-1.831-1.488-3.319-3.319-3.319s-3.32,1.489-3.32,3.319s1.489,3.32,3.32,3.32S55.299,18.839,55.299,17.008z    M61.465,81.965h-1.172v-1.39h0.396c0.256,0,0.463-0.207,0.463-0.463v-0.633h-3.558v0.633c0,0.256,0.207,0.463,0.463,0.463h0.36   v1.39h-1.136v0.499h1.136v2.922c0,0.256,0.198,0.463,0.442,0.463h0.99c0.244,0,0.442-0.207,0.442-0.463v-2.922h1.172V81.965z    M57.594,75.142v1.397h3.558v-1.397H57.594z M61.152,74.809V74.29h-3.558v0.519H61.152z M57.594,77.064v1.397h3.558v-1.397H57.594z    M57.594,78.795v0.519h3.558v-0.519H57.594z M61.465,64.033h-1.172v-1.15c0-0.256-0.198-0.463-0.442-0.463h-0.99   c-0.244,0-0.442,0.207-0.442,0.463v1.15h-1.136v0.499h1.136v3.981h-1.136v0.499h1.136v4.016h-0.36   c-0.256,0-0.463,0.208-0.463,0.463v0.632h3.558v-0.632c0-0.255-0.207-0.463-0.463-0.463h-0.396v-4.016h1.172v-0.499h-1.172v-3.981   h1.172V64.033z M62.213,56.755c0-0.256-0.207-0.463-0.462-0.463h-4.755c-0.255,0-0.462,0.207-0.462,0.463v1.92   c0,0.256,0.207,0.464,0.462,0.464h4.755c0.255,0,0.462-0.208,0.462-0.464V56.755z M62.213,52.488c0-0.256-0.207-0.463-0.462-0.463   h-4.755c-0.255,0-0.462,0.207-0.462,0.463v1.92c0,0.256,0.207,0.464,0.462,0.464h4.755c0.255,0,0.462-0.208,0.462-0.464V52.488z    M62.933,47.157c0-1.831-1.489-3.32-3.32-3.32c-1.83,0-3.319,1.49-3.319,3.32s1.489,3.32,3.319,3.32   C61.444,50.477,62.933,48.987,62.933,47.157z M62.933,39.62c0-1.832-1.489-3.32-3.32-3.32c-1.83,0-3.319,1.489-3.319,3.32   c0,1.83,1.489,3.319,3.319,3.319C61.444,42.939,62.933,41.45,62.933,39.62z M62.933,32.083c0-1.831-1.489-3.32-3.32-3.32   c-1.83,0-3.319,1.489-3.319,3.32c0,1.831,1.489,3.319,3.319,3.319C61.444,35.402,62.933,33.914,62.933,32.083z M62.933,24.545   c0-1.831-1.489-3.32-3.32-3.32c-1.83,0-3.319,1.489-3.319,3.32c0,1.831,1.489,3.32,3.319,3.32   C61.444,27.866,62.933,26.376,62.933,24.545z M62.933,17.008c0-1.831-1.489-3.319-3.32-3.319c-1.83,0-3.319,1.489-3.319,3.319   s1.489,3.32,3.319,3.32C61.444,20.329,62.933,18.839,62.933,17.008z M68.746,84.893h-3.558v0.632c0,0.255,0.207,0.463,0.463,0.463   h2.632c0.256,0,0.463-0.208,0.463-0.463V84.893z M68.746,84.207h-3.558v0.52h3.558V84.207z M68.746,82.477h-3.558v1.398h3.558   V82.477z M68.746,80.554h-3.558v1.398h3.558V80.554z M68.746,79.702h-3.558v0.519h3.558V79.702z M69.058,64.033h-1.171v-1.15   c0-0.256-0.198-0.463-0.443-0.463h-0.989c-0.244,0-0.443,0.207-0.443,0.463v1.15h-1.136v0.499h1.136v3.981h-1.136v0.499h1.136   v3.973h-1.136v0.499h1.136v3.981h-1.136v0.499h1.136v0.477h-0.36c-0.256,0-0.463,0.207-0.463,0.463v0.632h3.558v-0.632   c0-0.256-0.207-0.463-0.463-0.463h-0.396v-0.477h1.171v-0.499h-1.171v-3.981h1.171v-0.499h-1.171v-3.973h1.171v-0.499h-1.171   v-3.981h1.171V64.033z M69.807,56.755c0-0.256-0.208-0.463-0.463-0.463h-4.754c-0.256,0-0.463,0.207-0.463,0.463v1.92   c0,0.256,0.207,0.464,0.463,0.464h4.754c0.255,0,0.463-0.208,0.463-0.464V56.755z M69.807,52.488c0-0.256-0.208-0.463-0.463-0.463   h-4.754c-0.256,0-0.463,0.207-0.463,0.463v1.92c0,0.256,0.207,0.464,0.463,0.464h4.754c0.255,0,0.463-0.208,0.463-0.464V52.488z    M70.567,47.157c0-1.831-1.489-3.32-3.319-3.32c-1.831,0-3.32,1.49-3.32,3.32s1.489,3.32,3.32,3.32   C69.078,50.477,70.567,48.987,70.567,47.157z M70.567,39.62c0-1.832-1.489-3.32-3.319-3.32c-1.831,0-3.32,1.489-3.32,3.32   c0,1.83,1.489,3.319,3.32,3.319C69.078,42.939,70.567,41.45,70.567,39.62z M70.567,32.083c0-1.831-1.489-3.32-3.319-3.32   c-1.831,0-3.32,1.489-3.32,3.32c0,1.831,1.489,3.319,3.32,3.319C69.078,35.402,70.567,33.914,70.567,32.083z M70.567,24.545   c0-1.831-1.489-3.32-3.319-3.32c-1.831,0-3.32,1.489-3.32,3.32c0,1.831,1.489,3.32,3.32,3.32   C69.078,27.866,70.567,26.376,70.567,24.545z M70.567,17.008c0-1.831-1.489-3.319-3.319-3.319c-1.831,0-3.32,1.489-3.32,3.319   s1.489,3.32,3.32,3.32C69.078,20.329,70.567,18.839,70.567,17.008z M83.942,84.893h-3.558v0.632c0,0.255,0.207,0.463,0.463,0.463   h2.632c0.255,0,0.463-0.208,0.463-0.463V84.893z M83.942,84.207h-3.558v0.52h3.558V84.207z M83.942,82.477h-3.558v1.398h3.558   V82.477z M83.942,80.554h-3.558v1.398h3.558V80.554z M83.942,79.702h-3.558v0.519h3.558V79.702z M84.255,64.033h-1.172v-1.15   c0-0.256-0.198-0.463-0.443-0.463h-0.988c-0.246,0-0.444,0.207-0.444,0.463v1.15h-1.135v0.499h1.135v3.981h-1.135v0.499h1.135   v3.973h-1.135v0.499h1.135v3.981h-1.135v0.499h1.135v0.477h-0.359c-0.256,0-0.463,0.207-0.463,0.463v0.632h3.558v-0.632   c0-0.256-0.208-0.463-0.463-0.463h-0.396v-0.477h1.172v-0.499h-1.172v-3.981h1.172v-0.499h-1.172v-3.973h1.172v-0.499h-1.172   v-3.981h1.172V64.033z M90.815,47.333c0-0.256-0.207-0.463-0.463-0.463H73.974c-0.256,0-0.463,0.207-0.463,0.463v12.23   c0,0.255,0.207,0.463,0.463,0.463h16.378c0.256,0,0.463-0.208,0.463-0.463V47.333z M31.739,17.008c0,1.469-1.194,2.663-2.663,2.663   c-1.468,0-2.662-1.194-2.662-2.663c0-1.468,1.194-2.663,2.662-2.663C30.545,14.346,31.739,15.541,31.739,17.008z M30.904,17.008   c0-0.572-0.264-1.083-0.675-1.417l-1.043,1.493c-0.026,0.037-0.067,0.056-0.108,0.056c-0.026,0-0.052-0.008-0.075-0.024   c-0.06-0.042-0.074-0.124-0.032-0.183l1.043-1.492c-0.273-0.164-0.593-0.26-0.936-0.26c-1.009,0-1.827,0.818-1.827,1.827   s0.818,1.827,1.827,1.827S30.904,18.018,30.904,17.008z M69.91,39.62c0,1.468-1.194,2.662-2.662,2.662s-2.662-1.194-2.662-2.662   c0-1.468,1.194-2.663,2.662-2.663S69.91,38.152,69.91,39.62z M69.075,39.62c0-0.572-0.264-1.083-0.676-1.418l-1.044,1.493   c-0.025,0.037-0.066,0.056-0.107,0.056c-0.026,0-0.053-0.007-0.076-0.023c-0.059-0.042-0.073-0.124-0.032-0.184l1.044-1.492   c-0.273-0.164-0.594-0.26-0.936-0.26c-1.009,0-1.827,0.818-1.827,1.828c0,1.009,0.818,1.827,1.827,1.827   S69.075,40.629,69.075,39.62z M95.518,10.081v79.784H4.482V10.081H95.518z M93.594,11.766H6.406v76.413h87.188V11.766z    M31.739,24.545c0,1.468-1.194,2.663-2.663,2.663c-1.468,0-2.662-1.195-2.662-2.663s1.194-2.663,2.662-2.663   C30.545,21.883,31.739,23.077,31.739,24.545z M30.904,24.545c0-1.009-0.818-1.827-1.827-1.827c-0.342,0-0.662,0.096-0.935,0.259   l1.043,1.493c0.042,0.06,0.027,0.142-0.033,0.183c-0.022,0.016-0.049,0.024-0.075,0.024c-0.042,0-0.083-0.02-0.107-0.056   l-1.044-1.493c-0.412,0.335-0.676,0.845-0.676,1.417c0,1.009,0.818,1.827,1.827,1.827S30.904,25.555,30.904,24.545z M39.373,39.62   c0,1.468-1.194,2.662-2.662,2.662c-1.469,0-2.663-1.194-2.663-2.662c0-1.468,1.194-2.663,2.663-2.663   C38.179,36.958,39.373,38.152,39.373,39.62z M38.538,39.62c0-0.572-0.264-1.083-0.676-1.418l-1.044,1.493   c-0.026,0.037-0.067,0.056-0.107,0.056c-0.026,0-0.053-0.007-0.076-0.023c-0.059-0.042-0.074-0.124-0.032-0.184l1.043-1.492   c-0.273-0.164-0.593-0.26-0.935-0.26c-1.009,0-1.828,0.818-1.828,1.828c0,1.009,0.818,1.827,1.828,1.827   C37.719,41.447,38.538,40.629,38.538,39.62z M81.653,62.855c-0.003,0.002-0.011,0.01-0.011,0.027v15.559h1.005V62.883   c0-0.018-0.007-0.025-0.011-0.027H81.653z M69.344,52.352h-4.754c-0.075,0-0.137,0.062-0.137,0.137v1.92   c0,0.075,0.062,0.137,0.137,0.137h4.754c0.075,0,0.136-0.062,0.136-0.137v-1.92C69.48,52.413,69.42,52.352,69.344,52.352z    M69.91,47.157c0,1.468-1.194,2.663-2.662,2.663s-2.662-1.194-2.662-2.663c0-1.468,1.194-2.662,2.662-2.662   S69.91,45.689,69.91,47.157z M69.075,47.157c0-1.009-0.818-1.827-1.827-1.827c-0.342,0-0.662,0.096-0.936,0.26l1.043,1.492   c0.042,0.06,0.027,0.142-0.032,0.183c-0.023,0.017-0.049,0.024-0.075,0.024c-0.042,0-0.082-0.019-0.108-0.056l-1.043-1.493   c-0.412,0.335-0.676,0.846-0.676,1.418c0,1.009,0.818,1.827,1.827,1.827S69.075,48.166,69.075,47.157z M66.458,62.855   c-0.004,0.002-0.011,0.01-0.011,0.027v15.559h1.005V62.883c0-0.018-0.008-0.025-0.011-0.027H66.458z M69.344,56.618h-4.754   c-0.075,0-0.137,0.062-0.137,0.137v1.92c0,0.075,0.062,0.137,0.137,0.137h4.754c0.075,0,0.136-0.062,0.136-0.137v-1.92   C69.48,56.68,69.42,56.618,69.344,56.618z M62.275,17.008c0,1.469-1.194,2.663-2.662,2.663s-2.661-1.194-2.661-2.663   c0-1.468,1.193-2.663,2.661-2.663S62.275,15.541,62.275,17.008z M61.44,17.008c0-0.572-0.264-1.083-0.675-1.417l-1.044,1.493   c-0.025,0.037-0.066,0.056-0.108,0.056c-0.026,0-0.052-0.008-0.075-0.024c-0.059-0.042-0.073-0.124-0.032-0.183l1.043-1.492   c-0.273-0.164-0.593-0.26-0.936-0.26c-1.008,0-1.827,0.818-1.827,1.827s0.819,1.827,1.827,1.827   C60.623,18.835,61.44,18.018,61.44,17.008z M83.523,17.008c0-1.468,1.194-2.663,2.662-2.663c1.469,0,2.662,1.195,2.662,2.663   c0,1.469-1.193,2.663-2.662,2.663C84.718,19.671,83.523,18.477,83.523,17.008z M84.358,17.008c0,1.009,0.818,1.827,1.827,1.827   s1.828-0.818,1.828-1.827s-0.819-1.827-1.828-1.827c-0.342,0-0.661,0.096-0.935,0.26l1.042,1.492   c0.042,0.06,0.027,0.142-0.032,0.183c-0.022,0.016-0.049,0.024-0.075,0.024c-0.041,0-0.082-0.02-0.107-0.056l-1.044-1.493   C84.622,15.926,84.358,16.436,84.358,17.008z M95.518,8.774l-1.36-7.557H5.843l-1.36,7.557H95.518z M4.482,91.225l1.36,7.558   h88.315l1.36-7.558H4.482z"></path></g></svg>