<svg height='300px' width='300px'  fill="#000000" xmlns="http://www.w3.org/2000/svg" xmlns:xlink="http://www.w3.org/1999/xlink" version="1.1" x="0px" y="0px" viewBox="0 0 128 128" style="enable-background:new 0 0 128 128;" xml:space="preserve"><g><g><g><path d="M117.2,126H10.8c-4.8,0-8.8-3.9-8.8-8.8V10.8C2,5.9,5.9,2,10.8,2h106.5c4.8,0,8.8,3.9,8.8,8.8v106.5     C126,122.1,122.1,126,117.2,126z M10.8,6C8.1,6,6,8.1,6,10.8v106.5c0,2.6,2.1,4.8,4.8,4.8h106.5c2.6,0,4.8-2.1,4.8-4.8V10.8     c0-2.6-2.1-4.8-4.8-4.8H10.8z"></path><g><path d="M21.2,125c-1.1,0-2-0.9-2-2V77.3c0-1.1,0.9-2,2-2s2,0.9,2,2V123C23.2,124.1,22.3,125,21.2,125z"></path><path d="M21.2,68.7c-1.1,0-2-0.9-2-2v-7.1c0-1.1,0.9-2,2-2s2,0.9,2,2v7.1C23.2,67.8,22.3,68.7,21.2,68.7z"></path><path d="M44.2,125c-1.1,0-2-0.9-2-2v-7.2c0-1.1,0.9-2,2-2s2,0.9,2,2v7.2C46.2,124.1,45.3,125,44.2,125z"></path><path d="M44.2,106.8c-1.1,0-2-0.9-2-2V59.5c0-1.1,0.9-2,2-2s2,0.9,2,2v45.2C46.2,105.9,45.3,106.8,44.2,106.8z"></path><path d="M25.9,78.9h-9.5c-3.9,0-7-3.1-7-7v-0.2c0-3.9,3.1-7,7-7h9.5c3.9,0,7,3.1,7,7v0.2C32.9,75.8,29.8,78.9,25.9,78.9z       M16.4,68.7c-1.7,0-3,1.3-3,3v0.2c0,1.7,1.3,3,3,3h9.5c1.7,0,3-1.3,3-3v-0.2c0-1.7-1.3-3-3-3H16.4z"></path><path d="M49,117.8h-9.5c-3.9,0-7-3.1-7-7v-0.2c0-3.9,3.1-7,7-7H49c3.9,0,7,3.1,7,7v0.2C56,114.7,52.8,117.8,49,117.8z       M39.5,107.6c-1.7,0-3,1.3-3,3v0.2c0,1.7,1.3,3,3,3H49c1.7,0,3-1.3,3-3v-0.2c0-1.7-1.3-3-3-3H39.5z"></path><path d="M70.6,125c-1.1,0-2-0.9-2-2V97c0-1.1,0.9-2,2-2s2,0.9,2,2v26C72.6,124.1,71.7,125,70.6,125z"></path><path d="M70.6,88.2c-1.1,0-2-0.9-2-2V59.5c0-1.1,0.9-2,2-2s2,0.9,2,2v26.6C72.6,87.3,71.7,88.2,70.6,88.2z"></path><path d="M75.4,98.8h-9.5c-3.9,0-7-3.1-7-7v-0.2c0-3.9,3.1-7,7-7h9.5c3.9,0,7,3.1,7,7v0.2C82.4,95.7,79.3,98.8,75.4,98.8z       M65.9,88.6c-1.7,0-3,1.3-3,3v0.2c0,1.7,1.3,3,3,3h9.5c1.7,0,3-1.3,3-3v-0.2c0-1.7-1.3-3-3-3H65.9z"></path></g><g><path d="M105.7,59.6c-7.5,0-13.7-5.9-13.7-13.2s6.1-13.2,13.7-13.2s13.7,5.9,13.7,13.2S113.3,59.6,105.7,59.6z M105.7,37.1      c-5.3,0-9.7,4.1-9.7,9.2c0,5.1,4.3,9.2,9.7,9.2s9.7-4.1,9.7-9.2C115.4,41.3,111.1,37.1,105.7,37.1z"></path><path d="M105.7,52.4c-1.1,0-2-0.9-2-2v-8.8c0-1.1,0.9-2,2-2s2,0.9,2,2v8.8C107.7,51.5,106.8,52.4,105.7,52.4z"></path><path d="M110.1,48h-8.8c-1.1,0-2-0.9-2-2s0.9-2,2-2h8.8c1.1,0,2,0.9,2,2S111.2,48,110.1,48z"></path></g><g><path d="M105.7,88.8c-7.5,0-13.7-5.9-13.7-13.2s6.1-13.2,13.7-13.2s13.7,5.9,13.7,13.2S113.3,88.8,105.7,88.8z M105.7,66.3      c-5.3,0-9.7,4.1-9.7,9.2c0,5.1,4.3,9.2,9.7,9.2s9.7-4.1,9.7-9.2C115.4,70.4,111.1,66.3,105.7,66.3z"></path><path d="M105.7,81.6c-1.1,0-2-0.9-2-2v-8.8c0-1.1,0.9-2,2-2s2,0.9,2,2v8.8C107.7,80.7,106.8,81.6,105.7,81.6z"></path><path d="M110.1,77.2h-8.8c-1.1,0-2-0.9-2-2s0.9-2,2-2h8.8c1.1,0,2,0.9,2,2S111.2,77.2,110.1,77.2z"></path></g><g><path d="M105.7,118c-7.5,0-13.7-5.9-13.7-13.2s6.1-13.2,13.7-13.2s13.7,5.9,13.7,13.2S113.3,118,105.7,118z M105.7,95.5      c-5.3,0-9.7,4.1-9.7,9.2c0,5.1,4.3,9.2,9.7,9.2s9.7-4.1,9.7-9.2C115.4,99.6,111.1,95.5,105.7,95.5z"></path><path d="M105.7,110.8c-1.1,0-2-0.9-2-2V100c0-1.1,0.9-2,2-2s2,0.9,2,2v8.8C107.7,109.9,106.8,110.8,105.7,110.8z"></path><path d="M110.1,106.4h-8.8c-1.1,0-2-0.9-2-2s0.9-2,2-2h8.8c1.1,0,2,0.9,2,2S111.2,106.4,110.1,106.4z"></path></g><path d="M114.6,15.4H99.2c-1.1,0-2-0.9-2-2s0.9-2,2-2h15.4c1.1,0,2,0.9,2,2S115.7,15.4,114.6,15.4z"></path><path d="M114.6,25.1H99.2c-1.1,0-2-0.9-2-2s0.9-2,2-2h15.4c1.1,0,2,0.9,2,2S115.7,25.1,114.6,25.1z"></path><g><g><path d="M36.2,51.9c-11.1,0-20.2-9-20.2-20.1s9.1-20.1,20.2-20.1c11.1,0,20.2,9,20.2,20.1S47.4,51.9,36.2,51.9z M36.2,15.7       c-8.9,0-16.2,7.2-16.2,16.1s7.3,16.1,16.2,16.1c8.9,0,16.2-7.2,16.2-16.1S45.2,15.7,36.2,15.7z"></path><path d="M36.2,37.5c-3.2,0-5.7-2.6-5.7-5.7c0-3.1,2.6-5.7,5.7-5.7s5.7,2.6,5.7,5.7C42,34.9,39.4,37.5,36.2,37.5z M36.2,30.1       c-1,0-1.7,0.8-1.7,1.7s0.8,1.7,1.7,1.7s1.7-0.8,1.7-1.7S37.2,30.1,36.2,30.1z"></path></g><path d="M70.1,22.7c-3.5,0-6.3-2.8-6.3-6.3s2.8-6.3,6.3-6.3s6.3,2.8,6.3,6.3S73.6,22.7,70.1,22.7z M70.1,14.1      c-1.3,0-2.3,1-2.3,2.3s1,2.3,2.3,2.3s2.3-1,2.3-2.3S71.4,14.1,70.1,14.1z"></path><path d="M70.1,38.2c-3.5,0-6.3-2.8-6.3-6.3s2.8-6.3,6.3-6.3s6.3,2.8,6.3,6.3S73.6,38.2,70.1,38.2z M70.1,29.6      c-1.3,0-2.3,1-2.3,2.3s1,2.3,2.3,2.3s2.3-1,2.3-2.3S71.4,29.6,70.1,29.6z"></path><path d="M70.1,53.7c-3.5,0-6.3-2.8-6.3-6.3c0-3.5,2.8-6.3,6.3-6.3s6.3,2.8,6.3,6.3C76.4,50.9,73.6,53.7,70.1,53.7z M70.1,45.1      c-1.3,0-2.3,1-2.3,2.3s1,2.3,2.3,2.3s2.3-1,2.3-2.3S71.4,45.1,70.1,45.1z"></path></g></g><g><path d="M87.5,61.5H4c-1.1,0-2-0.9-2-2s0.9-2,2-2h83.5c1.1,0,2,0.9,2,2S88.6,61.5,87.5,61.5z"></path><path d="M87.5,126c-1.1,0-2-0.9-2-2V4c0-1.1,0.9-2,2-2s2,0.9,2,2v120C89.5,125.1,88.6,126,87.5,126z"></path></g></g></g></svg>