<svg height='300px' width='300px'  fill="#000000" xmlns="http://www.w3.org/2000/svg" xmlns:xlink="http://www.w3.org/1999/xlink" version="1.1" x="0px" y="0px" viewBox="0 0 100 100" enable-background="new 0 0 100 100" xml:space="preserve"><path d="M55.346,71.921h-0.308v-1.305h0.309L55.346,71.921z M54.423,72.026l-0.324-1l-0.165,0.054l0.323,1L54.423,72.026z   M53.64,72.394l-0.617-0.85l-0.14,0.102l0.616,0.85L53.64,72.394z M53.01,72.984l-0.851-0.617l-0.101,0.141l0.85,0.618L53.01,72.984  z M52.433,74.524h-1.306v0.308h1.306V74.524z M52.594,73.742l-0.998-0.324l-0.054,0.164l0.999,0.325L52.594,73.742z M56.455,71.08  l-0.166-0.054l-0.324,0.999l0.163,0.055L56.455,71.08z M57.505,71.646l-0.142-0.102l-0.617,0.85l0.141,0.102L57.505,71.646z   M57.479,73.126l0.85-0.618l-0.102-0.141l-0.853,0.617L57.479,73.126z M57.846,73.907l0.997-0.325l-0.054-0.164l-0.999,0.324  L57.846,73.907z M57.949,74.832h1.306v-0.308h-1.306V74.832z M53.295,73.031l1.518,1.517c-0.066,0.152-0.038,0.335,0.087,0.458  c0.163,0.164,0.427,0.164,0.589,0c0.163-0.161,0.163-0.423,0-0.586c-0.124-0.124-0.308-0.152-0.459-0.089l-1.517-1.515  L53.295,73.031z M45.153,70.638h-0.309v1.305h0.307L45.153,70.638z M44.228,72.048l-0.325-1l-0.164,0.053l0.323,1L44.228,72.048z   M43.446,72.415l-0.617-0.85l-0.14,0.101l0.617,0.851L43.446,72.415z M42.816,73.006l-0.85-0.617l-0.102,0.14l0.85,0.618  L42.816,73.006z M42.239,74.545h-1.306v0.308h1.306V74.545z M42.399,73.763L41.4,73.439l-0.054,0.165l0.999,0.324L42.399,73.763z   M46.26,71.101l-0.167-0.053l-0.324,0.998l0.163,0.055L46.26,71.101z M47.309,71.666l-0.141-0.101l-0.618,0.85l0.14,0.102  L47.309,71.666z M47.284,73.146l0.85-0.618l-0.101-0.14l-0.853,0.617L47.284,73.146z M47.651,73.929l0.998-0.324l-0.053-0.165  l-1,0.323L47.651,73.929z M47.754,74.853h1.305v-0.308h-1.305V74.853z M45.331,75.014c0.121-0.123,0.15-0.303,0.086-0.453  l1.494-1.494l-0.214-0.214l-1.496,1.494c-0.149-0.063-0.329-0.035-0.452,0.089c-0.161,0.159-0.161,0.419,0,0.578  C44.91,75.174,45.17,75.174,45.331,75.014z M61.851,78.714H38.336v-10.55h23.516V78.714z M61.18,68.836H39.007v9.207H61.18V68.836z   M20.679,72.254h-4.068v-4.068h4.068V72.254z M20.009,68.857h-2.726v2.725h2.726V68.857z M35.951,72.254h-4.068v-4.068h4.068V72.254  z M35.28,68.857h-2.726v2.725h2.726V68.857z M30.861,72.254h-4.068v-4.068h4.068V72.254z M30.19,68.857h-2.726v2.725h2.726V68.857z   M25.77,72.254h-4.068v-4.068h4.068V72.254z M25.099,68.857h-2.726v2.725h2.726V68.857z M68.362,72.254h-4.069v-4.068h4.069V72.254z   M67.69,68.857h-2.726v2.725h2.726V68.857z M83.633,72.254h-4.067v-4.068h4.067V72.254z M82.963,68.857h-2.727v2.725h2.727V68.857z   M78.542,72.254h-4.067v-4.068h4.067V72.254z M77.872,68.857h-2.727v2.725h2.727V68.857z M73.452,72.254h-4.068v-4.068h4.068V72.254  z M72.781,68.857h-2.726v2.725h2.726V68.857z M68.072,78.586c0.966-0.966,0.966-2.532,0-3.498c-0.908-0.909-2.348-0.962-3.319-0.161  l1.74,1.74l-0.339,0.34l-1.741-1.741c-0.801,0.972-0.747,2.411,0.161,3.32C65.541,79.552,67.107,79.552,68.072,78.586z   M83.344,78.586c0.967-0.966,0.967-2.532,0-3.498c-0.908-0.909-2.348-0.962-3.319-0.161l1.741,1.74l-0.341,0.34l-1.74-1.741  c-0.801,0.972-0.747,2.411,0.162,3.32C80.812,79.552,82.378,79.552,83.344,78.586z M66.502,83.352l-0.34-0.34l1.74-1.74  c-0.971-0.801-2.411-0.747-3.319,0.161c-0.966,0.966-0.966,2.532,0,3.498s2.532,0.966,3.498,0c0.908-0.909,0.962-2.348,0.161-3.319  L66.502,83.352z M81.773,83.352l-0.34-0.34l1.741-1.74c-0.973-0.801-2.411-0.747-3.32,0.161c-0.966,0.966-0.966,2.532,0,3.498  s2.532,0.966,3.498,0c0.908-0.909,0.962-2.348,0.161-3.319L81.773,83.352z M72.219,78.586c0.967,0.966,2.531,0.966,3.498,0  c0.908-0.909,0.962-2.349,0.161-3.32l-1.74,1.741l-0.34-0.34l1.741-1.74c-0.972-0.801-2.412-0.747-3.32,0.161  C71.253,76.054,71.253,77.619,72.219,78.586z M72.388,81.271l1.74,1.74l-0.339,0.34l-1.741-1.74  c-0.801,0.972-0.747,2.41,0.162,3.319c0.965,0.966,2.531,0.966,3.498,0c0.966-0.966,0.966-2.532,0-3.498  C74.8,80.524,73.36,80.471,72.388,81.271z M39.551,90.602c0.688,0,1.247-0.559,1.247-1.247s-0.558-1.247-1.247-1.247  s-1.247,0.559-1.247,1.247S38.862,90.602,39.551,90.602z M60.616,88.107c-0.689,0-1.247,0.559-1.247,1.247s0.558,1.247,1.247,1.247  c0.688,0,1.247-0.559,1.247-1.247S61.304,88.107,60.616,88.107z M56.403,88.107c-0.688,0-1.247,0.559-1.247,1.247  s0.559,1.247,1.247,1.247s1.247-0.559,1.247-1.247S57.092,88.107,56.403,88.107z M52.189,88.107c-0.688,0-1.246,0.559-1.246,1.247  s0.558,1.247,1.246,1.247c0.689,0,1.247-0.559,1.247-1.247S52.879,88.107,52.189,88.107z M47.977,88.107  c-0.689,0-1.248,0.559-1.248,1.247s0.559,1.247,1.248,1.247c0.688,0,1.247-0.559,1.247-1.247S48.665,88.107,47.977,88.107z   M43.763,88.107c-0.689,0-1.247,0.559-1.247,1.247s0.558,1.247,1.247,1.247c0.688,0,1.247-0.559,1.247-1.247  S44.452,88.107,43.763,88.107z M39.551,85.868c0.688,0,1.247-0.558,1.247-1.247c0-0.688-0.558-1.246-1.247-1.246  s-1.247,0.558-1.247,1.246C38.303,85.311,38.862,85.868,39.551,85.868z M60.616,83.375c-0.689,0-1.247,0.558-1.247,1.246  c0,0.689,0.558,1.247,1.247,1.247c0.688,0,1.247-0.558,1.247-1.247C61.863,83.933,61.304,83.375,60.616,83.375z M56.403,83.375  c-0.688,0-1.247,0.558-1.247,1.246c0,0.689,0.559,1.247,1.247,1.247s1.247-0.558,1.247-1.247  C57.65,83.933,57.092,83.375,56.403,83.375z M52.189,83.375c-0.688,0-1.246,0.558-1.246,1.246c0,0.689,0.558,1.247,1.246,1.247  c0.689,0,1.247-0.558,1.247-1.247C53.436,83.933,52.879,83.375,52.189,83.375z M47.977,83.375c-0.689,0-1.248,0.558-1.248,1.246  c0,0.689,0.559,1.247,1.248,1.247c0.688,0,1.247-0.558,1.247-1.247C49.224,83.933,48.665,83.375,47.977,83.375z M43.763,83.375  c-0.689,0-1.247,0.558-1.247,1.246c0,0.689,0.558,1.247,1.247,1.247c0.688,0,1.247-0.558,1.247-1.247  C45.01,83.933,44.452,83.375,43.763,83.375z M74.969,88.369v-0.712c0-0.556-0.45-1.007-1.006-1.007s-1.007,0.451-1.007,1.007v0.712  c0.256-0.261,0.612-0.424,1.007-0.424C74.357,87.945,74.714,88.108,74.969,88.369z M72.957,90.339v0.713  c0,0.556,0.451,1.006,1.007,1.006s1.006-0.45,1.006-1.006v-0.713c-0.256,0.263-0.612,0.425-1.006,0.425  C73.569,90.764,73.213,90.602,72.957,90.339z M73.964,88.326c-0.568,0-1.029,0.46-1.029,1.028s0.461,1.029,1.029,1.029  s1.029-0.461,1.029-1.029S74.532,88.326,73.964,88.326z M82.605,88.369v-0.712c0-0.556-0.45-1.007-1.006-1.007  s-1.007,0.451-1.007,1.007v0.712c0.256-0.261,0.612-0.424,1.007-0.424S82.349,88.108,82.605,88.369z M80.593,90.339v0.713  c0,0.556,0.451,1.006,1.007,1.006s1.006-0.45,1.006-1.006v-0.713c-0.256,0.263-0.611,0.425-1.006,0.425S80.848,90.602,80.593,90.339  z M81.599,88.326c-0.568,0-1.029,0.46-1.029,1.028s0.461,1.029,1.029,1.029s1.028-0.461,1.028-1.029S82.168,88.326,81.599,88.326z   M67.334,88.369v-0.712c0-0.556-0.45-1.007-1.006-1.007c-0.557,0-1.007,0.451-1.007,1.007v0.712  c0.256-0.261,0.612-0.424,1.007-0.424C66.721,87.945,67.078,88.108,67.334,88.369z M65.321,90.339v0.713  c0,0.556,0.45,1.006,1.007,1.006c0.556,0,1.006-0.45,1.006-1.006v-0.713c-0.256,0.263-0.612,0.425-1.006,0.425  C65.933,90.764,65.577,90.602,65.321,90.339z M66.328,88.326c-0.569,0-1.029,0.46-1.029,1.028s0.46,1.029,1.029,1.029  c0.568,0,1.029-0.461,1.029-1.029S66.896,88.326,66.328,88.326z M20.419,78.574c0.909-0.908,0.962-2.348,0.162-3.319l-1.74,1.74  l-0.34-0.34l1.741-1.74c-0.972-0.801-2.411-0.747-3.319,0.162c-0.966,0.966-0.966,2.531,0,3.497  C17.887,79.54,19.453,79.541,20.419,78.574z M35.691,78.574c0.909-0.908,0.962-2.348,0.161-3.319l-1.741,1.74l-0.339-0.339  l1.741-1.741c-0.972-0.801-2.411-0.747-3.32,0.162c-0.966,0.966-0.966,2.531,0,3.497S34.725,79.541,35.691,78.574z M20.411,84.919  c0.966-0.966,0.966-2.532,0-3.497c-0.909-0.909-2.348-0.962-3.319-0.161l1.741,1.74l-0.34,0.339l-1.74-1.74  c-0.801,0.972-0.747,2.411,0.162,3.319C17.879,85.886,19.445,85.886,20.411,84.919z M35.683,84.919c0.966-0.966,0.966-2.532,0-3.497  c-0.909-0.909-2.348-0.962-3.32-0.161l1.74,1.74l-0.339,0.339l-1.74-1.74c-0.801,0.972-0.748,2.411,0.161,3.319  C33.151,85.886,34.717,85.886,35.683,84.919z M26.468,76.655l-0.339,0.34l-1.741-1.74c-0.801,0.972-0.747,2.411,0.161,3.319  c0.967,0.967,2.533,0.967,3.499,0c0.965-0.966,0.966-2.531,0-3.498c-0.909-0.908-2.348-0.962-3.32-0.161L26.468,76.655z   M26.476,83.34l-0.339-0.339l1.74-1.74c-0.971-0.802-2.411-0.748-3.32,0.161c-0.966,0.965-0.966,2.531,0,3.497  c0.966,0.967,2.533,0.967,3.499,0.001c0.908-0.909,0.962-2.349,0.161-3.32L26.476,83.34z M27.309,88.358v-0.712  c0-0.557-0.451-1.007-1.007-1.007s-1.006,0.45-1.006,1.007v0.712c0.256-0.262,0.612-0.425,1.006-0.425S27.052,88.097,27.309,88.358z   M25.296,90.328v0.712c0,0.556,0.451,1.007,1.006,1.007s1.007-0.451,1.007-1.007v-0.712c-0.256,0.262-0.613,0.425-1.007,0.425  S25.552,90.59,25.296,90.328z M26.302,88.314c-0.568,0-1.029,0.461-1.029,1.029c0,0.567,0.46,1.028,1.029,1.028  s1.029-0.461,1.029-1.028C27.331,88.775,26.87,88.314,26.302,88.314z M34.944,88.358v-0.712c0-0.557-0.45-1.007-1.006-1.007  c-0.556,0-1.006,0.45-1.006,1.007v0.712c0.256-0.262,0.612-0.425,1.006-0.425S34.689,88.097,34.944,88.358z M32.931,90.328v0.712  c0,0.556,0.451,1.007,1.006,1.007c0.556,0,1.006-0.451,1.006-1.007v-0.712c-0.255,0.262-0.612,0.425-1.006,0.425  S33.187,90.59,32.931,90.328z M33.938,88.314c-0.568,0-1.029,0.461-1.029,1.029c0,0.567,0.46,1.028,1.029,1.028  c0.569,0,1.029-0.461,1.029-1.028C34.967,88.775,34.507,88.314,33.938,88.314z M19.673,88.358v-0.712  c0-0.557-0.451-1.007-1.007-1.007c-0.556,0-1.006,0.45-1.006,1.007v0.712c0.256-0.262,0.612-0.425,1.006-0.425  C19.061,87.934,19.417,88.097,19.673,88.358z M17.66,90.328v0.712c0,0.556,0.45,1.007,1.006,1.007c0.556,0,1.007-0.451,1.007-1.007  v-0.712c-0.256,0.262-0.612,0.425-1.007,0.425C18.272,90.753,17.916,90.59,17.66,90.328z M18.666,88.314  c-0.568,0-1.029,0.461-1.029,1.029c0,0.567,0.461,1.028,1.029,1.028c0.568,0,1.029-0.461,1.029-1.028  C19.695,88.775,19.235,88.314,18.666,88.314z M24.91,36.958c-4.093,0-7.422-3.329-7.422-7.421c0-4.092,3.329-7.422,7.422-7.422  c4.092,0,7.421,3.33,7.421,7.422C32.332,33.629,29.003,36.958,24.91,36.958z M24.91,36.287c3.722,0,6.751-3.028,6.751-6.75  c0-3.722-3.029-6.751-6.751-6.751c-3.723,0-6.75,3.029-6.75,6.751C18.16,33.259,21.188,36.287,24.91,36.287z M27.489,29.536  c0-1.424-1.154-2.578-2.578-2.578c-1.424,0-2.579,1.154-2.579,2.578s1.154,2.579,2.579,2.579  C26.334,32.115,27.489,30.96,27.489,29.536z M82.511,29.536c0,4.093-3.33,7.421-7.422,7.421s-7.421-3.329-7.421-7.421  c0-4.092,3.329-7.422,7.421-7.422S82.511,25.444,82.511,29.536z M81.841,29.536c0-3.722-3.028-6.751-6.751-6.751  c-3.722,0-6.751,3.029-6.751,6.751c0,3.723,3.029,6.75,6.751,6.75C78.812,36.287,81.841,33.259,81.841,29.536z M75.09,26.958  c-1.424,0-2.578,1.154-2.578,2.578s1.154,2.579,2.578,2.579s2.578-1.155,2.578-2.579S76.513,26.958,75.09,26.958z M15.375,28.229  l-0.081,0.595l-8.801-7.2l0.104-0.234c0.631-1.417,1.431-2.764,2.375-4.001l0.162-0.213l10.081,4.584l-0.415,0.341  C16.918,23.651,15.701,25.827,15.375,28.229z M17.972,21.931l-8.626-3.922c-0.792,1.068-1.474,2.216-2.029,3.42l7.49,6.128  C15.227,25.391,16.333,23.426,17.972,21.931z M31.651,22.105l-0.45-0.397l10.878-3.314l0.137,0.217  c0.827,1.312,1.502,2.726,2.005,4.198l0.086,0.253l-9.414,5.831l-0.053-0.535C34.599,25.933,33.467,23.711,31.651,22.105z   M32.526,22.006c1.566,1.554,2.585,3.565,2.917,5.759l8.056-4.991c-0.447-1.252-1.023-2.458-1.715-3.589L32.526,22.006z   M24.972,49.673c-0.981,0-1.973-0.073-2.945-0.218l-0.265-0.039l-0.861-11.041l0.5,0.199c1.14,0.453,2.339,0.682,3.563,0.682  c1.187,0,2.35-0.217,3.457-0.646l0.56-0.217l-2.048,11.185l-0.256,0.022C26.114,49.649,25.54,49.673,24.972,49.673z M26.365,48.952  l1.743-9.519c-1.016,0.328-2.071,0.494-3.144,0.494c-1.132,0-2.243-0.184-3.312-0.546l0.737,9.448  C23.705,49.006,25.043,49.048,26.365,48.952z M65.554,28.229l-0.08,0.595l-8.802-7.2l0.104-0.234  c0.632-1.417,1.431-2.764,2.375-4.001l0.162-0.213l10.081,4.584l-0.415,0.341C67.097,23.651,65.881,25.827,65.554,28.229z   M68.152,21.931l-8.627-3.922c-0.792,1.068-1.474,2.216-2.029,3.42l7.49,6.128C65.407,25.391,66.512,23.426,68.152,21.931z   M94.487,23.062l-9.414,5.831l-0.053-0.535c-0.241-2.426-1.375-4.647-3.19-6.254l-0.449-0.397l10.878-3.314l0.137,0.217  c0.827,1.312,1.502,2.726,2.005,4.198L94.487,23.062z M93.677,22.774c-0.447-1.252-1.023-2.458-1.715-3.589l-9.258,2.82  c1.566,1.554,2.586,3.565,2.917,5.759L93.677,22.774z M78.601,38.61l0.559-0.217l-2.047,11.185l-0.256,0.022  c-0.564,0.049-1.138,0.073-1.705,0.073c-0.981,0-1.973-0.073-2.945-0.218l-0.265-0.039l-0.861-11.041l0.5,0.199  c1.141,0.453,2.34,0.682,3.563,0.682C76.332,39.256,77.494,39.039,78.601,38.61z M78.288,39.434  c-1.016,0.328-2.07,0.494-3.144,0.494c-1.132,0-2.243-0.184-3.312-0.546l0.737,9.448c1.315,0.176,2.654,0.218,3.977,0.123  L78.288,39.434z M20.146,56.65c-0.537,0-0.972,0.435-0.972,0.972s0.435,0.972,0.972,0.972c0.538,0,0.973-0.435,0.973-0.972  S20.684,56.65,20.146,56.65z M26.085,57.622c-0.537,0-0.972,0.436-0.972,0.972c0,0.537,0.435,0.973,0.972,0.973  c0.537,0,0.972-0.436,0.972-0.973C27.057,58.058,26.622,57.622,26.085,57.622z M80.107,58.594c0.537,0,0.973-0.435,0.973-0.972  s-0.436-0.972-0.973-0.972s-0.972,0.435-0.972,0.972S79.57,58.594,80.107,58.594z M74.169,57.622c-0.536,0-0.972,0.436-0.972,0.972  c0,0.537,0.436,0.973,0.972,0.973c0.537,0,0.973-0.436,0.973-0.973C75.141,58.058,74.706,57.622,74.169,57.622z M99.399,29.536  c0,8.125-4.022,15.657-10.768,20.188v45.05h-2.624H14.18h-2.624V49.838C4.962,45.486,0.6,38.011,0.6,29.536  c0-13.405,10.906-24.31,24.31-24.31c8.791,0,16.507,4.691,20.777,11.701h8.625C58.583,9.917,66.299,5.227,75.09,5.227  C88.494,5.227,99.399,16.131,99.399,29.536z M46.08,17.599c1.998,3.528,3.14,7.602,3.14,11.938c0,13.404-10.906,24.31-24.31,24.31  c-3.468,0-6.769-0.73-9.756-2.045c0.949,2.187,2.908,6.13,4.426,6.9c0.862,0.438,2.246-0.249,3.584-0.914  c1.138-0.565,2.212-1.101,3.104-1.033c2.6,0.192,9.131,2.627,12.265,3.845c-0.125-0.278-0.197-0.587-0.197-0.912v-4.274  c0-1.233,1.004-2.237,2.238-2.237h19.039c1.234,0,2.238,1.004,2.238,2.237v4.274c0,0.338-0.077,0.657-0.212,0.944  c3.102-1.207,9.725-3.683,12.348-3.877c0.892-0.065,1.966,0.468,3.104,1.033c1.338,0.665,2.722,1.353,3.584,0.914  c1.551-0.787,3.56-4.882,4.484-7.037c-3.143,1.434-6.563,2.182-10.069,2.182c-13.404,0-24.31-10.905-24.31-24.31  c0-4.336,1.143-8.41,3.14-11.938H46.08z M59.613,53.846H40.574c-0.864,0-1.567,0.703-1.567,1.566v4.274  c0,0.864,0.703,1.567,1.567,1.567h19.039c0.864,0,1.567-0.703,1.567-1.567v-4.274C61.18,54.549,60.477,53.846,59.613,53.846z   M24.91,53.175c13.034,0,23.638-10.604,23.638-23.639S37.944,5.898,24.91,5.898c-13.035,0-23.639,10.604-23.639,23.638  S11.876,53.175,24.91,53.175z M85.337,66.22H14.851v27.884h70.486V66.22z M87.961,50.161c-0.634,0.396-1.285,0.76-1.949,1.094  l0.038,0.016c-0.111,0.279-2.771,6.861-5.071,8.029c-1.163,0.59-2.7-0.173-4.187-0.912c-1.007-0.5-2.048-1.017-2.755-0.965  c-3.301,0.245-13.702,4.371-13.807,4.413c-0.196,0.057-0.403,0.089-0.617,0.089H40.574c-0.438,0-0.847-0.129-1.192-0.348  c-2.333-0.905-10.343-3.945-13.165-4.154c-0.707-0.052-1.748,0.465-2.756,0.965c-1.485,0.739-3.022,1.503-4.186,0.912  c-2.168-1.102-4.657-7.016-5.028-7.922c-0.692-0.339-1.367-0.71-2.021-1.111v43.837h1.953V65.548h71.828v28.556h1.953V50.161z   M98.728,29.536c0-13.034-10.604-23.638-23.639-23.638S51.452,16.502,51.452,29.536S62.055,53.175,75.09,53.175  c4.653,0,9.156-1.351,13.021-3.907C94.759,44.872,98.728,37.496,98.728,29.536z"></path></svg>