<svg height='300px' width='300px'  fill="#000000" xmlns="http://www.w3.org/2000/svg" data-name="Layer 3" viewBox="0 0 64 64" x="0px" y="0px"><title>launchpad-music and multimedia-sound mixer-multimedia option-electronics-options-equalizer-mixer-sou</title><path d="M49,1H15a3,3,0,0,0-3,3V60a3,3,0,0,0,3,3H49a3,3,0,0,0,3-3V4A3,3,0,0,0,49,1Zm1,59a1,1,0,0,1-1,1H15a1,1,0,0,1-1-1V4a1,1,0,0,1,1-1H49a1,1,0,0,1,1,1Z"></path><path d="M32,15A13,13,0,1,0,45,28,13.015,13.015,0,0,0,32,15Zm1,23.949V37H31v1.949A11.01,11.01,0,0,1,21.051,29H23V27H21.051A11.01,11.01,0,0,1,31,17.051V19h2V17.051A11.01,11.01,0,0,1,42.949,27H41v2h1.949A11.01,11.01,0,0,1,33,38.949Z"></path><path d="M32,21a7,7,0,1,0,7,7A7.008,7.008,0,0,0,32,21Zm0,12a5,5,0,1,1,5-5A5.006,5.006,0,0,1,32,33Z"></path><rect x="42" y="5" width="6" height="2"></rect><rect x="42" y="9" width="6" height="2"></rect><rect x="46" y="13" width="2" height="2"></rect><rect x="16" y="13" width="2" height="2"></rect><rect x="46" y="41" width="2" height="2"></rect><rect x="16" y="41" width="2" height="2"></rect><path d="M19,11a3,3,0,1,0-3-3A3,3,0,0,0,19,11Zm0-4a1,1,0,1,1-1,1A1,1,0,0,1,19,7Z"></path><path d="M27,11a3,3,0,1,0-3-3A3,3,0,0,0,27,11Zm0-4a1,1,0,1,1-1,1A1,1,0,0,1,27,7Z"></path><path d="M23,45H17a1,1,0,0,0-1,1v4a1,1,0,0,0,1,1h6a1,1,0,0,0,1-1V46A1,1,0,0,0,23,45Zm-1,4H18V47h4Z"></path><path d="M33,45H27a1,1,0,0,0-1,1v4a1,1,0,0,0,1,1h6a1,1,0,0,0,1-1V46A1,1,0,0,0,33,45Zm-1,4H28V47h4Z"></path><path d="M43,45H37a1,1,0,0,0-1,1v4a1,1,0,0,0,1,1h6a1,1,0,0,0,1-1V46A1,1,0,0,0,43,45Zm-1,4H38V47h4Z"></path><path d="M23,53H17a1,1,0,0,0-1,1v4a1,1,0,0,0,1,1h6a1,1,0,0,0,1-1V54A1,1,0,0,0,23,53Zm-1,4H18V55h4Z"></path><path d="M33,53H27a1,1,0,0,0-1,1v4a1,1,0,0,0,1,1h6a1,1,0,0,0,1-1V54A1,1,0,0,0,33,53Zm-1,4H28V55h4Z"></path><path d="M43,53H37a1,1,0,0,0-1,1v4a1,1,0,0,0,1,1h6a1,1,0,0,0,1-1V54A1,1,0,0,0,43,53Zm-1,4H38V55h4Z"></path><rect x="46" y="45" width="2" height="6"></rect><rect x="46" y="53" width="2" height="6"></rect></svg>