<svg height='300px' width='300px'  fill="#000000" xmlns="http://www.w3.org/2000/svg" xmlns:xlink="http://www.w3.org/1999/xlink" version="1.1" x="0px" y="0px" viewBox="0 0 100 100" enable-background="new 0 0 100 100" xml:space="preserve"><path fill="#000000" d="M86.387,31.654H15.861c-1.211,0-2.195,0.984-2.195,2.195v31.467c0,1.211,0.984,2.195,2.195,2.195h70.525  c1.21,0,2.195-0.984,2.195-2.195V33.85C88.582,32.639,87.597,31.654,86.387,31.654z M86.387,33.85l0.001,27.811h-5.856V41.535  c0-0.606-0.49-1.098-1.098-1.098H66.902h-0.913h-5.581h-0.913h-5.651h-0.913H40.833h-0.915h-5.58h-0.914h-6.037  c-0.606,0-1.098,0.491-1.098,1.098V61.66H15.861V33.85H86.387z M28.485,42.632h2.744v12.075c0,0.986,0.658,1.812,1.555,2.09v8.52  h-4.299V42.632z M34.34,54.707h-0.916V42.632h0.914L34.34,54.707z M34.979,56.797c0.897-0.277,1.555-1.104,1.555-2.09V42.632h1.188  v12.075c0,0.986,0.658,1.812,1.555,2.09v8.52h-4.299V56.797z M40.834,54.707h-0.916V42.632h0.915L40.834,54.707z M41.474,56.797  c0.896-0.277,1.555-1.104,1.555-2.09V42.632h2.767v22.684h-4.322V56.797z M47.991,42.632h2.744v12.075  c0,0.986,0.659,1.812,1.554,2.088v8.521h-4.298V42.632z M53.845,54.707h-0.914V42.632h0.913L53.845,54.707z M54.484,56.795  c0.896-0.275,1.555-1.102,1.555-2.088V42.632H57.3v12.075c0,0.986,0.658,1.812,1.555,2.088v8.521h-4.37V56.795z M60.409,54.707  h-0.914V42.632h0.913L60.409,54.707z M61.05,56.795c0.896-0.275,1.554-1.102,1.554-2.088V42.632h1.19v12.075  c0,0.986,0.658,1.812,1.554,2.088v8.521H61.05V56.795z M66.903,54.707h-0.914V42.632h0.913L66.903,54.707z M67.543,56.795  c0.896-0.275,1.555-1.102,1.555-2.088V42.632h2.744v22.684h-4.299V56.795z M74.037,42.632h4.299v22.684h-4.299V42.632z   M15.861,63.855H26.29v1.461H15.861V63.855z M80.531,65.316v-1.461h5.856v1.461H80.531z M16.867,35.315  c0-0.455,0.369-0.823,0.824-0.823h63.208c0.454,0,0.823,0.369,0.823,0.823s-0.369,0.823-0.823,0.823H17.69  C17.236,36.138,16.867,35.77,16.867,35.315z M82.634,35.315c0-0.456,0.37-0.825,0.825-0.825c0.456,0,0.825,0.37,0.825,0.825  s-0.369,0.826-0.825,0.826C83.004,36.141,82.634,35.771,82.634,35.315z M19.108,50.888c-0.833,0-1.509,0.679-1.509,1.509v6.039  c0,0.832,0.677,1.508,1.509,1.508s1.509-0.676,1.509-1.508v-6.039C20.617,51.566,19.94,50.888,19.108,50.888z M19.108,51.986  c0.227,0,0.412,0.184,0.412,0.41v2.471h-0.823v-2.471C18.696,52.17,18.881,51.986,19.108,51.986z M19.108,58.846  c-0.227,0-0.412-0.184-0.412-0.41v-2.471h0.823v2.471C19.52,58.662,19.334,58.846,19.108,58.846z M22.95,50.888  c-0.832,0-1.509,0.679-1.509,1.509v6.039c0,0.832,0.677,1.508,1.509,1.508c0.833,0,1.509-0.676,1.509-1.508v-6.039  C24.459,51.566,23.782,50.888,22.95,50.888z M22.95,51.986c0.227,0,0.412,0.184,0.412,0.41v2.471h-0.823v-2.471  C22.538,52.17,22.723,51.986,22.95,51.986z M22.95,58.846c-0.227,0-0.412-0.184-0.412-0.41v-2.471h0.823v2.471  C23.361,58.662,23.177,58.846,22.95,58.846z M20.298,44.096h-2.333c-0.304,0-0.549,0.245-0.549,0.549v2.333  c0,0.303,0.245,0.549,0.549,0.549h2.333c0.303,0,0.549-0.246,0.549-0.549v-2.333C20.847,44.341,20.601,44.096,20.298,44.096z   M19.749,46.428h-1.235v-1.235h1.235V46.428z M24.093,44.096H21.76c-0.303,0-0.549,0.245-0.549,0.549v2.333  c0,0.303,0.246,0.549,0.549,0.549h2.333c0.303,0,0.549-0.246,0.549-0.549v-2.333C24.642,44.341,24.396,44.096,24.093,44.096z   M23.544,46.428H22.31v-1.235h1.235V46.428z M19.131,42.083c-0.303,0-0.549-0.246-0.549-0.549s0.246-0.549,0.549-0.549h3.795  c0.303,0,0.549,0.246,0.549,0.549s-0.246,0.549-0.549,0.549H19.131z"></path></svg>