<svg height='300px' width='300px'  fill="#000000" xmlns="http://www.w3.org/2000/svg" xmlns:xlink="http://www.w3.org/1999/xlink" version="1.1" x="0px" y="0px" viewBox="0 0 90 90" style="enable-background:new 0 0 90 90;" xml:space="preserve"><style type="text/css">
	.st0{fill:#000000;stroke:#000000;stroke-width:1.5;stroke-linecap:round;stroke-miterlimit:10;}
	.st1{fill:#000000;stroke:#000000;stroke-width:1.0395;stroke-miterlimit:10;}
	.st2{fill:#000000;}
	.st3{fill:#000000;}
	.st4{fill:none;stroke:#000000;stroke-width:0.297;stroke-miterlimit:10;}
	.st5{fill:none;stroke:#000000;stroke-width:1.4849;stroke-linecap:round;stroke-miterlimit:10;}
	.st6{fill:#000000;}
	.st7{fill:none;stroke:#000000;stroke-width:0.2;stroke-miterlimit:10;}
	.st8{fill:none;stroke:#000000;stroke-linecap:round;stroke-miterlimit:10;}
	.st9{fill:#000000;stroke:#000000;stroke-width:1.0395;stroke-miterlimit:10;}
	.st10{fill:#000000;stroke:#000000;stroke-miterlimit:10;}
	.st11{fill:#000000;}
	.st12{fill:#000000;}
	.st13{fill:none;stroke:#000000;stroke-width:0.9761;stroke-miterlimit:10;}
	.st14{fill:#000000;}
	.st15{fill:none;stroke:#000000;stroke-width:0.9761;stroke-miterlimit:10;}
	.st16{fill:#000000;stroke:#000000;stroke-width:0.9373;stroke-miterlimit:10;}
	.st17{fill:#000000;}
	.st18{fill:#000000;stroke:#000000;stroke-width:1.0395;stroke-miterlimit:10;}
	.st19{fill:#000000;stroke:#000000;stroke-width:1.0395;stroke-miterlimit:10;}
	.st20{fill:#000000;stroke:#000000;stroke-width:1.0395;stroke-miterlimit:10;}
	.st21{fill:#000000;stroke:#000000;stroke-miterlimit:10;}
	.st22{fill:#000000;stroke:#000000;stroke-width:0.5885;stroke-miterlimit:10;}
	.st23{fill:#000000;stroke:#000000;stroke-width:0.6527;stroke-miterlimit:10;}
	.st24{fill:#000000;stroke:#000000;stroke-width:0.6624;stroke-miterlimit:10;}
	.st25{fill:#000000;stroke:#000000;stroke-width:0.8739;stroke-miterlimit:10;}
	.st26{fill:#000000;stroke:#000000;stroke-width:0.9692;stroke-miterlimit:10;}
	.st27{fill:#000000;stroke:#000000;stroke-width:0.8739;stroke-miterlimit:10;}
	.st28{fill:#000000;stroke:#000000;stroke-width:1.1537;stroke-miterlimit:10;}
	.st29{fill:#000000;stroke:#000000;stroke-width:0.559;stroke-miterlimit:10;}
	.st30{fill:#000000;stroke:#000000;stroke-width:1.1537;stroke-miterlimit:10;}
	.st31{fill:#000000;stroke:#000000;stroke-width:1.0395;stroke-miterlimit:10;}
	.st32{fill:none;stroke:#000000;stroke-miterlimit:10;}
	.st33{fill:#000000;}
	.st34{fill:none;stroke:#000000;stroke-linecap:round;stroke-miterlimit:10;}
	.st35{fill:#000000;stroke:#000000;stroke-miterlimit:10;}
	.st36{fill:none;stroke:#000000;stroke-width:0.4258;stroke-miterlimit:10;}
	.st37{fill:none;stroke:#000000;stroke-width:0.5;stroke-miterlimit:10;}
	.st38{fill:#000000;stroke:#000000;stroke-width:2;stroke-linejoin:round;stroke-miterlimit:10;}
	.st39{fill:#000000;stroke:#000000;stroke-linejoin:round;stroke-miterlimit:10;}
	.st40{fill:none;stroke:#000000;stroke-width:1.094;stroke-miterlimit:10;}
	.st41{fill:none;stroke:#000000;stroke-width:0.794;stroke-linecap:round;stroke-miterlimit:10;}
	.st42{fill:none;stroke:#000000;stroke-width:0.5963;stroke-miterlimit:10;}
	.st43{fill:#000000;stroke:#000000;stroke-width:3;stroke-linejoin:round;stroke-miterlimit:10;}
	.st44{fill:#000000;}
	.st45{fill:#000000;stroke:#000000;stroke-width:0.9858;stroke-linejoin:round;stroke-miterlimit:10;}
	.st46{fill:none;stroke:#000000;stroke-linecap:round;stroke-miterlimit:10;}
	.st47{fill:#000000;stroke:#000000;stroke-linecap:round;stroke-linejoin:round;stroke-miterlimit:10;}
	.st48{fill:none;stroke:#000000;stroke-linecap:round;stroke-miterlimit:10;}
	.st49{fill:none;stroke:#000000;stroke-miterlimit:10;}
	.st50{stroke:#000000;stroke-width:3;stroke-linejoin:round;stroke-miterlimit:10;}
	.st51{stroke:#000000;stroke-width:0.8067;stroke-linejoin:round;stroke-miterlimit:10;}
	.st52{stroke:#000000;stroke-width:0.8067;stroke-miterlimit:10;}
	.st53{fill:none;stroke:#000000;stroke-width:0.8465;stroke-miterlimit:10;}
	.st54{stroke:#000000;stroke-width:0.6903;stroke-linejoin:round;stroke-miterlimit:10;}
	.st55{fill:none;stroke:#000000;stroke-width:1.2861;stroke-linecap:round;stroke-miterlimit:10;}
	.st56{fill:none;stroke:#000000;stroke-width:0.643;stroke-miterlimit:10;}
	.st57{stroke:#000000;stroke-width:1.9475;stroke-linejoin:round;stroke-miterlimit:10;}
	.st58{stroke:#000000;stroke-width:2.0478;stroke-linejoin:round;stroke-miterlimit:10;}
	.st59{fill:none;stroke:#000000;stroke-width:2;stroke-linecap:round;stroke-miterlimit:10;}
	.st60{stroke:#000000;stroke-linejoin:round;stroke-miterlimit:10;}
	.st61{fill:#000000;stroke:#000000;stroke-linejoin:round;stroke-miterlimit:10;}
	.st62{stroke:#000000;stroke-width:2;stroke-linejoin:round;stroke-miterlimit:10;}
	.st63{fill:none;stroke:#000000;stroke-width:1.2769;stroke-linecap:round;stroke-miterlimit:10;}
	.st64{fill:none;stroke:#000000;stroke-width:0.936;stroke-linecap:round;stroke-miterlimit:10;}
	.st65{stroke:#000000;stroke-width:1.2644;stroke-linecap:round;stroke-linejoin:round;stroke-miterlimit:10;}
	.st66{fill:none;stroke:#000000;stroke-width:1.2644;stroke-linecap:round;stroke-linejoin:round;stroke-miterlimit:10;}
	.st67{fill:none;stroke:#000000;stroke-width:1.2737;stroke-linecap:round;stroke-miterlimit:10;}
	.st68{fill:none;stroke:#000000;stroke-width:1.1225;stroke-miterlimit:10;}
	.st69{fill:#000000;stroke:#000000;stroke-width:2;stroke-linejoin:round;stroke-miterlimit:10;}
	.st70{fill:#000000;stroke:#000000;stroke-width:1.9476;stroke-linejoin:round;stroke-miterlimit:10;}
	.st71{fill:#000000;stroke:#000000;stroke-width:1.9781;stroke-linejoin:round;stroke-miterlimit:10;}
	.st72{fill:#000000;stroke:#000000;stroke-width:1.8964;stroke-linejoin:round;stroke-miterlimit:10;}
	.st73{stroke:#000000;stroke-width:2;stroke-linejoin:round;stroke-miterlimit:10;}
</style><path d="M2,9.9v35.5v1.4V79h8.6h1.1h7.5h1.1h7.4h1.1h7.4h1.1h7.5h1.1h7.5h1.1h7.4H63h7.4h1.1H79h1.1h8.6V46.8v-1.4V9.9H2z   M76.2,33.9c0-0.3,0.2-0.5,0.5-0.5h7.8c0.3,0,0.5,0.2,0.5,0.5v1.2c0,0.3-0.2,0.5-0.5,0.5h-7.8c-0.3,0-0.5-0.2-0.5-0.5V33.9z   M65.8,33.9c0-0.3,0.2-0.5,0.5-0.5h7.8c0.3,0,0.5,0.2,0.5,0.5v1.2c0,0.3-0.2,0.5-0.5,0.5h-7.8c-0.3,0-0.5-0.2-0.5-0.5V33.9z   M53.1,18.8l0.9,2.8c0.1,0.3,0.4,0.5,0.6,0.5c0.1,0,0.1,0,0.2,0c0.4-0.1,0.5-0.5,0.4-0.9l-0.9-2.8c2.3-0.4,4.7,0.9,5.4,3.2  c0.8,2.5-0.5,5.2-3,6.1c-2.5,0.8-5.2-0.5-6.1-3C49.9,22.3,51,19.8,53.1,18.8z M60.1,33.9v1.2c0,0.3-0.2,0.5-0.5,0.5h-7.8  c-0.3,0-0.5-0.2-0.5-0.5v-1.2c0-0.3,0.2-0.5,0.5-0.5h7.8C59.9,33.5,60.1,33.7,60.1,33.9z M49.8,33.9v1.2c0,0.3-0.2,0.5-0.5,0.5h-7.8  c-0.3,0-0.5-0.2-0.5-0.5v-1.2c0-0.3,0.2-0.5,0.5-0.5h7.8C49.6,33.5,49.8,33.7,49.8,33.9z M39.9,19.3c2.1-1.7,5.1-1.3,6.8,0.7  c1.7,2.1,1.3,5.1-0.7,6.8c-1.9,1.5-4.6,1.4-6.3-0.2l2.3-1.8c0.3-0.2,0.3-0.7,0.1-0.9c-0.2-0.3-0.7-0.3-0.9-0.1l-2.3,1.8  C37.6,23.5,38,20.8,39.9,19.3z M30.7,33.9c0-0.3,0.2-0.5,0.5-0.5H39c0.3,0,0.5,0.2,0.5,0.5v1.2c0,0.3-0.2,0.5-0.5,0.5h-7.8  c-0.3,0-0.5-0.2-0.5-0.5V33.9z M18.8,19.9c1.6-1.8,4.3-2.1,6.2-0.8l-1.9,2.2c-0.2,0.3-0.2,0.7,0.1,1c0.1,0.1,0.3,0.2,0.4,0.2  c0.2,0,0.4-0.1,0.5-0.2l1.9-2.2c1.5,1.8,1.6,4.5,0,6.3c-1.8,2-4.8,2.2-6.8,0.4C17.3,24.9,17.1,21.9,18.8,19.9z M15.4,33.9  c0-0.3,0.2-0.5,0.5-0.5h7.8c0.3,0,0.5,0.2,0.5,0.5v1.2c0,0.3-0.2,0.5-0.5,0.5h-7.8c-0.3,0-0.5-0.2-0.5-0.5V33.9z M13.4,33.5  c0.3,0,0.5,0.2,0.5,0.5v1.2c0,0.3-0.2,0.5-0.5,0.5H5.6c-0.3,0-0.5-0.2-0.5-0.5v-1.2c0-0.3,0.2-0.5,0.5-0.5H13.4z M5.2,20.6  c1.4-2.3,4.3-3,6.6-1.7c2.1,1.2,2.9,3.8,2,6l-2.5-1.5c-0.3-0.2-0.7-0.1-0.9,0.2c-0.2,0.3-0.1,0.7,0.2,0.9l2.5,1.5  c-1.5,1.8-4.1,2.4-6.2,1.1C4.6,25.8,3.8,22.9,5.2,20.6z M10.6,77.9H3.1V46.8h5.3v17.5h2.1V77.9z M19.1,77.9h-7.4V64.3h2.1V46.8H17  v17.5h2.1V77.9z M27.7,77.9h-7.4V64.3h2.1V46.8h5.4V77.9z M36.2,77.9h-7.4V46.8h5.3v17.5h2.1V77.9z M44.8,77.9h-7.4V64.3h2.1V46.8  h3.3v17.5h2.1V77.9z M53.3,77.9h-7.4V64.3H48V46.8h3.3v17.5h2.1V77.9z M61.9,77.9h-7.4V64.3h2.1V46.8h5.4V77.9z M70.4,77.9H63V46.8  h5.3v17.5h2.1V77.9z M79,77.9h-7.4V64.3h2.1V46.8h3.2v17.5H79V77.9z M5.1,41.1c-0.3,0-0.5-0.2-0.5-0.5s0.2-0.5,0.5-0.5h79.8  c0.3,0,0.5,0.2,0.5,0.5s-0.2,0.5-0.5,0.5H5.1z M87.5,77.9h-7.4V64.3h2.1V46.8h5.4V77.9z"></path></svg>