<svg height='300px' width='300px'  fill="#000000" xmlns="http://www.w3.org/2000/svg" xmlns:xlink="http://www.w3.org/1999/xlink" version="1.1" x="0px" y="0px" viewBox="0 0 512 512" style="enable-background:new 0 0 512 512;" xml:space="preserve"><g><g><path d="M483.05,412.006h-438c-1.657,0-3-1.343-3-3v-313c0-1.657,1.343-3,3-3h438c1.657,0,3,1.343,3,3v313    C486.05,410.663,484.707,412.006,483.05,412.006z M48.05,406.006h432v-307h-432V406.006z"></path></g><g><path d="M483.05,412.006h-438c-1.657,0-3-1.343-3-3v-205c0-1.657,1.343-3,3-3h438c1.657,0,3,1.343,3,3v205    C486.05,410.663,484.707,412.006,483.05,412.006z M48.05,406.006h432v-199h-432V406.006z"></path></g><g><path d="M108.05,412.006h-32c-1.657,0-3-1.343-3-3v-205c0-1.657,1.343-3,3-3h15c1.657,0,3,1.343,3,3v134h14c1.657,0,3,1.343,3,3    v68C111.05,410.663,109.707,412.006,108.05,412.006z M79.05,406.006h26v-62h-14c-1.657,0-3-1.343-3-3v-134h-9V406.006z"></path></g><g><path d="M140.05,412.006h-32c-1.657,0-3-1.343-3-3v-68c0-1.657,1.343-3,3-3h14v-134c0-1.657,1.343-3,3-3h15c1.657,0,3,1.343,3,3    v205C143.05,410.663,141.707,412.006,140.05,412.006z M111.05,406.006h26v-199h-9v134c0,1.657-1.343,3-3,3h-14V406.006z"></path></g><g><path d="M171.05,412.006h-31c-1.657,0-3-1.343-3-3v-205c0-1.657,1.343-3,3-3h14c1.657,0,3,1.343,3,3v134h14c1.657,0,3,1.343,3,3    v68C174.05,410.663,172.707,412.006,171.05,412.006z M143.05,406.006h25v-62h-14c-1.657,0-3-1.343-3-3v-134h-8V406.006z"></path></g><g><path d="M203.05,412.006h-32c-1.657,0-3-1.343-3-3v-68c0-1.657,1.343-3,3-3h14v-134c0-1.657,1.343-3,3-3h15c1.657,0,3,1.343,3,3    v205C206.05,410.663,204.707,412.006,203.05,412.006z M174.05,406.006h26v-199h-9v134c0,1.657-1.343,3-3,3h-14V406.006z"></path></g><g><path d="M234.05,412.006h-31c-1.657,0-3-1.343-3-3v-205c0-1.657,1.343-3,3-3h14c1.657,0,3,1.343,3,3v134h14c1.657,0,3,1.343,3,3    v68C237.05,410.663,235.707,412.006,234.05,412.006z M206.05,406.006h25v-62h-14c-1.657,0-3-1.343-3-3v-134h-8V406.006z"></path></g><g><path d="M266.05,412.006h-32c-1.657,0-3-1.343-3-3v-68c0-1.657,1.343-3,3-3h15v-134c0-1.657,1.343-3,3-3h14c1.657,0,3,1.343,3,3    v205C269.05,410.663,267.707,412.006,266.05,412.006z M237.05,406.006h26v-199h-8v134c0,1.657-1.343,3-3,3h-15V406.006z"></path></g><g><path d="M297.05,412.006h-31c-1.657,0-3-1.343-3-3v-205c0-1.657,1.343-3,3-3h14c1.657,0,3,1.343,3,3v134h14c1.657,0,3,1.343,3,3    v68C300.05,410.663,298.707,412.006,297.05,412.006z M269.05,406.006h25v-62h-14c-1.657,0-3-1.343-3-3v-134h-8V406.006z"></path></g><g><path d="M329.05,412.006h-32c-1.657,0-3-1.343-3-3v-68c0-1.657,1.343-3,3-3h15v-134c0-1.657,1.343-3,3-3h14c1.657,0,3,1.343,3,3    v205C332.05,410.663,330.707,412.006,329.05,412.006z M300.05,406.006h26v-199h-8v134c0,1.657-1.343,3-3,3h-15V406.006z"></path></g><g><path d="M360.05,412.006h-31c-1.657,0-3-1.343-3-3v-205c0-1.657,1.343-3,3-3h14c1.657,0,3,1.343,3,3v134h14c1.657,0,3,1.343,3,3    v68C363.05,410.663,361.707,412.006,360.05,412.006z M332.05,406.006h25v-62h-14c-1.657,0-3-1.343-3-3v-134h-8V406.006z"></path></g><g><path d="M392.05,412.006h-32c-1.657,0-3-1.343-3-3v-68c0-1.657,1.343-3,3-3h15v-134c0-1.657,1.343-3,3-3h14c1.657,0,3,1.343,3,3    v205C395.05,410.663,393.707,412.006,392.05,412.006z M363.05,406.006h26v-199h-8v134c0,1.657-1.343,3-3,3h-15V406.006z"></path></g><g><path d="M423.05,412.006h-31c-1.657,0-3-1.343-3-3v-205c0-1.657,1.343-3,3-3h14c1.657,0,3,1.343,3,3v134h14c1.657,0,3,1.343,3,3    v68C426.05,410.663,424.707,412.006,423.05,412.006z M395.05,406.006h25v-62h-14c-1.657,0-3-1.343-3-3v-134h-8V406.006z"></path></g><g><path d="M455.05,412.006h-32c-1.657,0-3-1.343-3-3v-68c0-1.657,1.343-3,3-3h15v-134c0-1.657,1.343-3,3-3h14c1.657,0,3,1.343,3,3    v205C458.05,410.663,456.707,412.006,455.05,412.006z M426.05,406.006h26v-199h-8v134c0,1.657-1.343,3-3,3h-15V406.006z"></path></g><g><path d="M441.05,344.006h-35c-1.657,0-3-1.343-3-3v-137c0-1.657,1.343-3,3-3h35c1.657,0,3,1.343,3,3v137    C444.05,342.663,442.707,344.006,441.05,344.006z M409.05,338.006h29v-131h-29V338.006z"></path></g><g><path d="M378.05,344.006h-35c-1.657,0-3-1.343-3-3v-137c0-1.657,1.343-3,3-3h35c1.657,0,3,1.343,3,3v137    C381.05,342.663,379.707,344.006,378.05,344.006z M346.05,338.006h29v-131h-29V338.006z"></path></g><g><path d="M315.05,344.006h-35c-1.657,0-3-1.343-3-3v-137c0-1.657,1.343-3,3-3h35c1.657,0,3,1.343,3,3v137    C318.05,342.663,316.707,344.006,315.05,344.006z M283.05,338.006h29v-131h-29V338.006z"></path></g><g><path d="M252.05,344.006h-35c-1.657,0-3-1.343-3-3v-137c0-1.657,1.343-3,3-3h35c1.657,0,3,1.343,3,3v137    C255.05,342.663,253.707,344.006,252.05,344.006z M220.05,338.006h29v-131h-29V338.006z"></path></g><g><path d="M188.05,344.006h-34c-1.657,0-3-1.343-3-3v-137c0-1.657,1.343-3,3-3h34c1.657,0,3,1.343,3,3v137    C191.05,342.663,189.707,344.006,188.05,344.006z M157.05,338.006h28v-131h-28V338.006z"></path></g><g><path d="M125.05,344.006h-34c-1.657,0-3-1.343-3-3v-137c0-1.657,1.343-3,3-3h34c1.657,0,3,1.343,3,3v137    C128.05,342.663,126.707,344.006,125.05,344.006z M94.05,338.006h28v-131h-28V338.006z"></path></g><g><path d="M26.05,149.006c-1.657,0-3-1.343-3-3v-69c0-1.657,1.343-3,3-3h212c1.657,0,3,1.343,3,3s-1.343,3-3,3h-209v66    C29.05,147.663,27.707,149.006,26.05,149.006z"></path></g><g><path d="M358.05,428.006h-295c-1.657,0-3-1.343-3-3s1.343-3,3-3h295c1.657,0,3,1.343,3,3S359.707,428.006,358.05,428.006z"></path></g><g><path d="M440.05,438.006h-204c-1.657,0-3-1.343-3-3s1.343-3,3-3h204c1.657,0,3,1.343,3,3S441.707,438.006,440.05,438.006z"></path></g><g><path d="M486.05,438.006h-25c-1.657,0-3-1.343-3-3s1.343-3,3-3h25c1.657,0,3,1.343,3,3S487.707,438.006,486.05,438.006z"></path></g><g><path d="M148.05,438.006h-96c-1.657,0-3-1.343-3-3s1.343-3,3-3h96c1.657,0,3,1.343,3,3S149.707,438.006,148.05,438.006z"></path></g><g><path d="M467.05,192.006h-179c-1.657,0-3-1.343-3-3v-74c0-1.657,1.343-3,3-3h179c1.657,0,3,1.343,3,3v74    C470.05,190.663,468.707,192.006,467.05,192.006z M291.05,186.006h173v-68h-173V186.006z"></path></g><g><path d="M90.05,140.006h-27c-1.657,0-3-1.343-3-3v-22c0-1.657,1.343-3,3-3h27c1.657,0,3,1.343,3,3v22    C93.05,138.663,91.707,140.006,90.05,140.006z M66.05,134.006h21v-16h-21V134.006z"></path></g><g><path d="M131.05,140.006h-27c-1.657,0-3-1.343-3-3v-22c0-1.657,1.343-3,3-3h27c1.657,0,3,1.343,3,3v22    C134.05,138.663,132.707,140.006,131.05,140.006z M107.05,134.006h21v-16h-21V134.006z"></path></g><g><path d="M171.05,140.006h-27c-1.657,0-3-1.343-3-3v-22c0-1.657,1.343-3,3-3h27c1.657,0,3,1.343,3,3v22    C174.05,138.663,172.707,140.006,171.05,140.006z M147.05,134.006h21v-16h-21V134.006z"></path></g><g><path d="M212.05,140.006h-27c-1.657,0-3-1.343-3-3v-22c0-1.657,1.343-3,3-3h27c1.657,0,3,1.343,3,3v22    C215.05,138.663,213.707,140.006,212.05,140.006z M188.05,134.006h21v-16h-21V134.006z"></path></g><g><path d="M252.05,140.006h-27c-1.657,0-3-1.343-3-3v-22c0-1.657,1.343-3,3-3h27c1.657,0,3,1.343,3,3v22    C255.05,138.663,253.707,140.006,252.05,140.006z M228.05,134.006h21v-16h-21V134.006z"></path></g><g><path d="M90.05,192.006h-27c-1.657,0-3-1.343-3-3v-22c0-1.657,1.343-3,3-3h27c1.657,0,3,1.343,3,3v22    C93.05,190.663,91.707,192.006,90.05,192.006z M66.05,186.006h21v-16h-21V186.006z"></path></g><g><path d="M131.05,192.006h-27c-1.657,0-3-1.343-3-3v-22c0-1.657,1.343-3,3-3h27c1.657,0,3,1.343,3,3v22    C134.05,190.663,132.707,192.006,131.05,192.006z M107.05,186.006h21v-16h-21V186.006z"></path></g><g><path d="M171.05,192.006h-27c-1.657,0-3-1.343-3-3v-22c0-1.657,1.343-3,3-3h27c1.657,0,3,1.343,3,3v22    C174.05,190.663,172.707,192.006,171.05,192.006z M147.05,186.006h21v-16h-21V186.006z"></path></g><g><path d="M212.05,192.006h-27c-1.657,0-3-1.343-3-3v-22c0-1.657,1.343-3,3-3h27c1.657,0,3,1.343,3,3v22    C215.05,190.663,213.707,192.006,212.05,192.006z M188.05,186.006h21v-16h-21V186.006z"></path></g><g><path d="M252.05,192.006h-27c-1.657,0-3-1.343-3-3v-22c0-1.657,1.343-3,3-3h27c1.657,0,3,1.343,3,3v22    C255.05,190.663,253.707,192.006,252.05,192.006z M228.05,186.006h21v-16h-21V186.006z"></path></g><g><path d="M448.05,138.006h-5c-1.657,0-3-1.343-3-3s1.343-3,3-3h5c1.657,0,3,1.343,3,3S449.707,138.006,448.05,138.006z     M425.05,138.006h-5c-1.657,0-3-1.343-3-3s1.343-3,3-3h5c1.657,0,3,1.343,3,3S426.707,138.006,425.05,138.006z M402.05,138.006h-5    c-1.657,0-3-1.343-3-3s1.343-3,3-3h5c1.657,0,3,1.343,3,3S403.707,138.006,402.05,138.006z M379.05,138.006h-5    c-1.657,0-3-1.343-3-3s1.343-3,3-3h5c1.657,0,3,1.343,3,3S380.707,138.006,379.05,138.006z M356.05,138.006h-5    c-1.657,0-3-1.343-3-3s1.343-3,3-3h5c1.657,0,3,1.343,3,3S357.707,138.006,356.05,138.006z M333.05,138.006h-5    c-1.657,0-3-1.343-3-3s1.343-3,3-3h5c1.657,0,3,1.343,3,3S334.707,138.006,333.05,138.006z M310.05,138.006h-5    c-1.657,0-3-1.343-3-3s1.343-3,3-3h5c1.657,0,3,1.343,3,3S311.707,138.006,310.05,138.006z"></path></g><g><path d="M448.05,154.006h-5c-1.657,0-3-1.343-3-3s1.343-3,3-3h5c1.657,0,3,1.343,3,3S449.707,154.006,448.05,154.006z     M425.05,154.006h-5c-1.657,0-3-1.343-3-3s1.343-3,3-3h5c1.657,0,3,1.343,3,3S426.707,154.006,425.05,154.006z M402.05,154.006h-5    c-1.657,0-3-1.343-3-3s1.343-3,3-3h5c1.657,0,3,1.343,3,3S403.707,154.006,402.05,154.006z M379.05,154.006h-5    c-1.657,0-3-1.343-3-3s1.343-3,3-3h5c1.657,0,3,1.343,3,3S380.707,154.006,379.05,154.006z M356.05,154.006h-5    c-1.657,0-3-1.343-3-3s1.343-3,3-3h5c1.657,0,3,1.343,3,3S357.707,154.006,356.05,154.006z M333.05,154.006h-5    c-1.657,0-3-1.343-3-3s1.343-3,3-3h5c1.657,0,3,1.343,3,3S334.707,154.006,333.05,154.006z M310.05,154.006h-5    c-1.657,0-3-1.343-3-3s1.343-3,3-3h5c1.657,0,3,1.343,3,3S311.707,154.006,310.05,154.006z"></path></g><g><path d="M448.05,171.006h-5c-1.657,0-3-1.343-3-3s1.343-3,3-3h5c1.657,0,3,1.343,3,3S449.707,171.006,448.05,171.006z     M425.05,171.006h-5c-1.657,0-3-1.343-3-3s1.343-3,3-3h5c1.657,0,3,1.343,3,3S426.707,171.006,425.05,171.006z M402.05,171.006h-5    c-1.657,0-3-1.343-3-3s1.343-3,3-3h5c1.657,0,3,1.343,3,3S403.707,171.006,402.05,171.006z M379.05,171.006h-5    c-1.657,0-3-1.343-3-3s1.343-3,3-3h5c1.657,0,3,1.343,3,3S380.707,171.006,379.05,171.006z M356.05,171.006h-5    c-1.657,0-3-1.343-3-3s1.343-3,3-3h5c1.657,0,3,1.343,3,3S357.707,171.006,356.05,171.006z M333.05,171.006h-5    c-1.657,0-3-1.343-3-3s1.343-3,3-3h5c1.657,0,3,1.343,3,3S334.707,171.006,333.05,171.006z M310.05,171.006h-5    c-1.657,0-3-1.343-3-3s1.343-3,3-3h5c1.657,0,3,1.343,3,3S311.707,171.006,310.05,171.006z"></path></g></g></svg>