<svg height='300px' width='300px'  fill="#000000" xmlns="http://www.w3.org/2000/svg" xmlns:xlink="http://www.w3.org/1999/xlink" version="1.1" x="0px" y="0px" viewBox="0 0 100 100" enable-background="new 0 0 100 100" xml:space="preserve"><path d="M90.1,89.298H9.9c-2.702,0-4.9-2.2-4.9-4.9V15.603c0-2.701,2.199-4.901,4.9-4.901h80.2c2.702,0,4.9,2.2,4.9,4.901v68.794  C95,87.098,92.802,89.298,90.1,89.298z M9.9,11.593c-2.211,0-4.009,1.8-4.009,4.01v68.794c0,2.21,1.798,4.01,4.009,4.01h80.2  c2.211,0,4.009-1.8,4.009-4.01V15.603c0-2.21-1.798-4.01-4.009-4.01H9.9z"></path><path d="M18.515,82.169c-3.522,0-6.387-2.864-6.387-6.387c0-3.521,2.865-6.388,6.387-6.388c3.521,0,6.387,2.866,6.387,6.388  C24.901,79.305,22.037,82.169,18.515,82.169z M18.515,70.287c-3.03,0-5.495,2.465-5.495,5.495c0,3.027,2.465,5.494,5.495,5.494  s5.495-2.467,5.495-5.494C24.01,72.752,21.545,70.287,18.515,70.287z"></path><circle cx="18.515" cy="75.781" r="2.377"></circle><circle cx="18.515" cy="59.89" r="2.377"></circle><circle cx="18.515" cy="43.939" r="2.377"></circle><path d="M18.515,66.277c-3.522,0-6.387-2.865-6.387-6.388c0-3.521,2.865-6.387,6.387-6.387c3.521,0,6.387,2.866,6.387,6.387  C24.901,63.412,22.037,66.277,18.515,66.277z M18.515,54.396c-3.03,0-5.495,2.465-5.495,5.494c0,3.03,2.465,5.495,5.495,5.495  s5.495-2.465,5.495-5.495C24.01,56.86,21.545,54.396,18.515,54.396z"></path><path d="M18.515,50.386c-3.522,0-6.387-2.866-6.387-6.388c0-3.521,2.865-6.386,6.387-6.386c3.521,0,6.387,2.865,6.387,6.386  C24.901,47.521,22.037,50.386,18.515,50.386z M18.515,38.504c-3.03,0-5.495,2.464-5.495,5.494c0,3.03,2.465,5.496,5.495,5.496  s5.495-2.466,5.495-5.496C24.01,40.968,21.545,38.504,18.515,38.504z"></path><rect x="33.367" y="78.226" width="10.694" height="1.78"></rect><rect x="33.367" y="74.568" width="10.694" height="1.781"></rect><rect x="33.367" y="70.911" width="10.694" height="1.781"></rect><rect x="33.367" y="67.254" width="10.694" height="1.781"></rect><rect x="33.367" y="63.597" width="10.694" height="1.781"></rect><rect x="33.367" y="59.94" width="10.694" height="1.782"></rect><rect x="33.367" y="56.282" width="10.694" height="1.781"></rect><rect x="33.367" y="52.625" width="10.694" height="1.782"></rect><rect x="33.367" y="48.969" width="10.694" height="1.781"></rect><rect x="33.367" y="45.31" width="10.694" height="1.782"></rect><rect x="33.367" y="41.654" width="10.694" height="1.782"></rect><rect x="33.367" y="37.996" width="10.694" height="1.781"></rect><rect x="33.367" y="34.339" width="10.694" height="1.782"></rect><rect x="33.367" y="30.682" width="10.694" height="1.782"></rect><rect x="33.367" y="27.024" width="10.694" height="1.782"></rect><rect x="33.367" y="23.367" width="10.694" height="1.782"></rect><rect x="33.367" y="19.711" width="10.694" height="1.781"></rect><rect x="74.95" y="78.226" width="10.693" height="1.78"></rect><rect x="74.95" y="74.568" width="10.693" height="1.781"></rect><rect x="74.95" y="70.911" width="10.693" height="1.781"></rect><rect x="74.95" y="67.254" width="10.693" height="1.781"></rect><rect x="74.95" y="63.597" width="10.693" height="1.781"></rect><rect x="74.95" y="59.94" width="10.693" height="1.782"></rect><rect x="74.95" y="56.282" width="10.693" height="1.781"></rect><rect x="74.95" y="52.625" width="10.693" height="1.782"></rect><rect x="74.95" y="48.969" width="10.693" height="1.781"></rect><rect x="74.95" y="45.31" width="10.693" height="1.782"></rect><rect x="74.95" y="41.654" width="10.693" height="1.782"></rect><rect x="74.95" y="37.996" width="10.693" height="1.781"></rect><rect x="74.95" y="34.339" width="10.693" height="1.782"></rect><rect x="74.95" y="30.682" width="10.693" height="1.782"></rect><rect x="74.95" y="27.024" width="10.693" height="1.782"></rect><rect x="74.95" y="23.367" width="10.693" height="1.782"></rect><rect x="74.95" y="19.711" width="10.693" height="1.781"></rect><rect x="50.495" y="27.203" width="7.129" height="3.565"></rect><rect x="53.169" y="19.711" width="1.781" height="5.71"></rect><rect x="53.169" y="32.55" width="1.781" height="49.538"></rect><rect x="61.386" y="64.049" width="7.13" height="3.564"></rect><rect x="64.06" y="19.711" width="1.782" height="42.555"></rect><rect x="64.06" y="69.396" width="1.782" height="12.692"></rect></svg>