<svg height='300px' width='300px'  fill="#000000" xmlns="http://www.w3.org/2000/svg" xmlns:xlink="http://www.w3.org/1999/xlink" version="1.1" x="0px" y="0px" viewBox="0 0 100 100" enable-background="new 0 0 100 100" xml:space="preserve"><g><path d="M75.2,43.501c1.118,0,1.899-0.781,1.899-1.9v-23.8c0-1.119-0.781-1.9-1.899-1.9c-1.119,0-1.9,0.781-1.9,1.9v23.8   C73.3,42.72,74.081,43.501,75.2,43.501z"></path><path d="M58.4,41.101c-1.119,0-1.9,0.781-1.9,1.9V82.2c0,1.119,0.781,1.9,1.9,1.9c1.118,0,1.899-0.781,1.899-1.9V43.001   C60.3,41.882,59.519,41.101,58.4,41.101z"></path><path d="M24.8,56.501c-1.119,0-1.9,0.781-1.9,1.899v23.8c0,1.119,0.781,1.9,1.9,1.9s1.9-0.781,1.9-1.9V58.4   C26.7,57.282,25.919,56.501,24.8,56.501z"></path><path d="M75.2,56.501c-1.119,0-1.9,0.781-1.9,1.899v23.8c0,1.119,0.781,1.9,1.9,1.9c1.118,0,1.899-0.781,1.899-1.9V58.4   C77.1,57.282,76.318,56.501,75.2,56.501z"></path><path d="M41.6,71.9c-1.119,0-1.9,0.781-1.9,1.899v8.4c0,1.119,0.781,1.9,1.9,1.9s1.9-0.781,1.9-1.9v-8.4   C43.5,72.682,42.719,71.9,41.6,71.9z"></path><path d="M72.4,54.7H78c1.819,0,3.3-1.48,3.3-3.3v-2.8c0-1.82-1.48-3.301-3.3-3.301h-5.6c-1.82,0-3.301,1.48-3.301,3.301v2.8   C69.1,53.22,70.58,54.7,72.4,54.7z M72.9,50.9v-1.8h4.6v1.8H72.9z"></path><path d="M58.4,28.101c1.118,0,1.899-0.781,1.899-1.9v-8.399c0-1.119-0.781-1.9-1.899-1.9c-1.119,0-1.9,0.781-1.9,1.9V26.2   C56.5,27.319,57.281,28.101,58.4,28.101z"></path><path d="M24.8,43.501c1.119,0,1.9-0.781,1.9-1.9v-23.8c0-1.119-0.781-1.9-1.9-1.9s-1.9,0.781-1.9,1.9v23.8   C22.9,42.72,23.682,43.501,24.8,43.501z"></path><path d="M86.399,4.7H13.6c-3.364,0-6.1,2.736-6.1,6.101V89.2c0,3.363,2.736,6.1,6.1,6.1h72.799c3.364,0,6.101-2.736,6.101-6.1   V10.801C92.5,7.437,89.764,4.7,86.399,4.7z M11.3,10.801c0-1.269,1.032-2.301,2.3-2.301h72.799c1.269,0,2.301,1.032,2.301,2.301   V89.2c0,1.269-1.032,2.301-2.301,2.301H13.6c-1.268,0-2.3-1.032-2.3-2.301V10.801z"></path><path d="M22,54.7h5.6c1.82,0,3.3-1.48,3.3-3.3v-2.8c0-1.82-1.48-3.301-3.3-3.301H22c-1.819,0-3.3,1.48-3.3,3.301v2.8   C18.7,53.22,20.181,54.7,22,54.7z M22.5,50.9v-1.8h4.6v1.8H22.5z"></path><path d="M55.6,39.301H61.2c1.819,0,3.3-1.48,3.3-3.3V33.2c0-1.819-1.48-3.3-3.3-3.3H55.6c-1.819,0-3.3,1.48-3.3,3.3v2.801   C52.3,37.82,53.78,39.301,55.6,39.301z M56.1,35.501V33.7H60.7v1.801H56.1z"></path><path d="M41.6,58.9c1.119,0,1.9-0.781,1.9-1.899v-39.2c0-1.119-0.781-1.9-1.9-1.9s-1.9,0.781-1.9,1.9v39.2   C39.7,58.119,40.481,58.9,41.6,58.9z"></path><path d="M38.8,70.101h5.6c1.82,0,3.3-1.48,3.3-3.301v-2.799c0-1.82-1.48-3.301-3.3-3.301h-5.6c-1.82,0-3.3,1.48-3.3,3.301V66.8   C35.5,68.62,36.98,70.101,38.8,70.101z M39.3,66.3v-1.799h4.6V66.3H39.3z"></path></g></svg>