<svg height='300px' width='300px'  fill="#000000" xmlns="http://www.w3.org/2000/svg" xmlns:xlink="http://www.w3.org/1999/xlink" version="1.1" x="0px" y="0px" viewBox="0 0 100 100" style="enable-background:new 0 0 100 100;" xml:space="preserve"><g><path d="M23.66,33.13h52.61c0.26,0,0.47-0.21,0.47-0.47V15.04c-0.06,0.03-0.13,0.06-0.21,0.06H23.4c-0.08,0-0.14-0.02-0.21-0.06   v17.63C23.2,32.92,23.41,33.13,23.66,33.13z M30.34,30.99c0,0.49-0.4,0.9-0.9,0.9h-2.66c-0.49,0-0.9-0.4-0.9-0.9v-2.66   c0-0.49,0.4-0.9,0.9-0.9h2.66c0.49,0,0.9,0.4,0.9,0.9V30.99z M36.65,31.01c0,0.49-0.4,0.9-0.9,0.9h-2.66c-0.49,0-0.9-0.4-0.9-0.9   v-2.66c0-0.49,0.4-0.9,0.9-0.9h2.66c0.49,0,0.9,0.4,0.9,0.9V31.01z M43.02,30.99c0,0.49-0.4,0.9-0.9,0.9h-2.66   c-0.49,0-0.9-0.4-0.9-0.9v-2.66c0-0.49,0.4-0.9,0.9-0.9h2.66c0.49,0,0.9,0.4,0.9,0.9V30.99z M49.29,30.99c0,0.49-0.4,0.9-0.9,0.9   h-2.66c-0.49,0-0.9-0.4-0.9-0.9v-2.66c0-0.49,0.4-0.9,0.9-0.9h2.66c0.49,0,0.9,0.4,0.9,0.9V30.99z M55.62,30.99   c0,0.49-0.4,0.9-0.9,0.9h-2.66c-0.49,0-0.9-0.4-0.9-0.9v-2.66c0-0.49,0.4-0.9,0.9-0.9h2.66c0.49,0,0.9,0.4,0.9,0.9V30.99z    M61.98,30.99c0,0.49-0.4,0.9-0.9,0.9h-2.66c-0.49,0-0.9-0.4-0.9-0.9v-2.66c0-0.49,0.4-0.9,0.9-0.9h2.66c0.49,0,0.9,0.4,0.9,0.9   V30.99z M68.27,30.99c0,0.49-0.4,0.9-0.9,0.9h-2.66c-0.49,0-0.9-0.4-0.9-0.9v-2.66c0-0.49,0.4-0.9,0.9-0.9h2.66   c0.49,0,0.9,0.4,0.9,0.9V30.99z M74.57,30.99c0,0.49-0.4,0.9-0.9,0.9h-2.66c-0.49,0-0.9-0.4-0.9-0.9v-2.66c0-0.49,0.4-0.9,0.9-0.9   h2.66c0.49,0,0.9,0.4,0.9,0.9V30.99z M66.8,17.23c0-0.19,0.16-0.35,0.35-0.35h6.83c0.19,0,0.35,0.16,0.35,0.35v1.4   c0,0.19-0.16,0.35-0.35,0.35h-6.83c-0.19,0-0.35-0.16-0.35-0.35V17.23z M66.8,21c0-0.19,0.16-0.35,0.35-0.35h6.83   c0.19,0,0.35,0.16,0.35,0.35v1.4c0,0.19-0.16,0.35-0.35,0.35h-6.83c-0.19,0-0.35-0.16-0.35-0.35V21z M58.95,17.23L58.95,17.23   c0-0.06,0.02-0.11,0.04-0.15c0,0,0-0.01,0.01-0.01c0.06-0.11,0.17-0.19,0.3-0.19h0.31c0,0,0,0,0,0h4.5c0,0,0,0,0,0h0.31   c0.13,0,0.24,0.08,0.3,0.19c0,0,0.01,0.01,0.01,0.01c0.02,0.05,0.04,0.1,0.04,0.15v0v1.4c0,0.1-0.04,0.18-0.1,0.25   c-0.06,0.06-0.15,0.1-0.25,0.1H59.3c-0.1,0-0.18-0.04-0.25-0.1c-0.06-0.06-0.1-0.15-0.1-0.25V17.23z M58.95,22.54v-1.4v0   c0-0.06,0.02-0.11,0.04-0.15c0,0,0-0.01,0.01-0.01c0.06-0.11,0.17-0.19,0.3-0.19h0.31c0,0,0,0,0,0h4.5c0,0,0,0,0,0h0.31   c0.13,0,0.24,0.08,0.3,0.19c0,0,0.01,0.01,0.01,0.01c0.02,0.05,0.04,0.1,0.04,0.15v0v1.4v0c0,0.19-0.16,0.35-0.35,0.35H59.3   C59.1,22.89,58.95,22.73,58.95,22.54L58.95,22.54z M42.65,16.93c0-0.28,0.23-0.5,0.5-0.5h14.12c0.28,0,0.5,0.23,0.5,0.5v5.46   c0,0.28-0.23,0.5-0.5,0.5H43.15c-0.28,0-0.5-0.23-0.5-0.5V16.93z M35.65,20.67c0-0.06,0.02-0.11,0.04-0.15c0,0,0-0.01,0.01-0.01   c0.06-0.11,0.17-0.19,0.3-0.19h0.28c0,0,0,0,0,0h4.5c0,0,0,0,0,0h0.34c0.13,0,0.24,0.08,0.3,0.19c0,0,0.01,0.01,0.01,0.01   c0.02,0.05,0.04,0.1,0.04,0.15v1.9c0,0.1-0.04,0.18-0.1,0.25c-0.06,0.06-0.15,0.1-0.25,0.1H36h0c-0.13,0-0.23-0.07-0.29-0.17   c-0.03-0.05-0.06-0.11-0.06-0.18V20.67z M33.88,20c0,0.43-0.35,0.77-0.77,0.77c-0.43,0-0.77-0.35-0.77-0.77   c0-0.43,0.35-0.77,0.77-0.77C33.53,19.22,33.88,19.57,33.88,20z M32.64,20.89h-2.62c-0.49,0-0.9-0.4-0.9-0.9   c0-0.49,0.4-0.9,0.9-0.9h2.62c-0.33,0.17-0.56,0.5-0.56,0.9C32.08,20.39,32.32,20.72,32.64,20.89z M28.63,18.63h4.5   c0.04,0,0.08,0.03,0.08,0.08s-0.03,0.08-0.08,0.08h-4.5c-0.04,0-0.08-0.03-0.08-0.08S28.59,18.63,28.63,18.63z M28.33,21.25h4.73   c0.58,0,1.09-0.34,1.33-0.83c-0.12,0.67-0.71,1.19-1.42,1.19h-4.56c-0.71,0-1.3-0.52-1.42-1.19   C27.24,20.91,27.75,21.25,28.33,21.25z M24.9,24.29h50.46v2.66H24.9V24.29z"></path><path d="M64.3,22.44c0.09,0,0.17-0.04,0.23-0.1v-1.21c0-0.05-0.05-0.1-0.1-0.1H59.3c-0.05,0-0.1,0.05-0.1,0.1v1.21   c0.06,0.06,0.14,0.1,0.23,0.1H64.3z"></path><path d="M25.05,26.8h50.16v-2.36H25.05V26.8z M25.31,24.67h49.65v1.9H25.31V24.67z"></path><rect x="81.64" y="39.25" width="7.22" height="1.29"></rect><rect x="31.81" y="24.82" width="5.96" height="1.6"></rect><path d="M23.4,14.84h53.13c0.11,0,0.21-0.09,0.21-0.21V7.23c0-0.26-0.21-0.47-0.47-0.47H23.66c-0.26,0-0.47,0.21-0.47,0.47v7.41   C23.2,14.75,23.29,14.84,23.4,14.84z"></path><rect x="81.64" y="56.06" width="7.22" height="1.29"></rect><rect x="38.19" y="24.82" width="5.63" height="1.6"></rect><rect x="37.92" y="24.82" width="0.12" height="1.6"></rect><rect x="43.97" y="24.82" width="0.12" height="1.6"></rect><rect x="50.31" y="24.82" width="0.12" height="1.6"></rect><path d="M64.3,18.54c0.09,0,0.17-0.04,0.23-0.1v-1.21c0-0.05-0.05-0.1-0.1-0.1H59.3c-0.05,0-0.1,0.05-0.1,0.1v1.21   c0.06,0.06,0.14,0.1,0.23,0.1H64.3z"></path><path d="M91.41,5.06h-0.52l0,74.27l2.16,11.25l-2.4-11.23V5.06h-4.4c-0.21-0.39-0.74-0.67-1.37-0.67s-1.16,0.28-1.37,0.67h-2.81   V2.51c0-0.1-0.08-0.18-0.18-0.18h-4.63c-0.1,0-0.18,0.08-0.18,0.18v2.55H39.96V4.37c0-0.49-1.16-0.49-1.16,0l0,0.69h-4.3V3.52   c0-0.8-3.08-0.8-3.08,0v1.54h-0.48l0-0.69c0-0.49-1.86-0.49-1.86,0v0.69h-0.48V3.52c0-0.8-3.08-0.8-3.08,0v1.54h-3.07l0-1.54   c0-0.8-3.08-0.8-3.08,0l0,1.54h-2.81l0-1.54c0-0.8-3.08-0.8-3.08,0v1.54H7.53c-0.04,0-0.64,0.6-0.64,1.34v85.15   c0,0.18,0.04,0.36,0.11,0.52c0.2,0.48,0.68,0.82,1.23,0.82h2.9v0.8c0,0.41,4.52,0.41,4.52,0v-0.8h3.04l0.25,3.48   c0,0.25,0.7,0.39,1.51,0.42v-3.91h0.55v3.91c0.9-0.01,1.76-0.16,1.76-0.43l0.25-3.48h6.16c0.08,0.61,0.93,1.19,6.85,1.62   c3.72,0.27,8.73,0.42,14.1,0.42c13.48,0,20.5-0.68,20.92-2.03h5.86l0.25,3.48c0,0.27,0.86,0.41,1.76,0.43v-3.91h0.55v3.91   c0.8-0.03,1.51-0.18,1.51-0.42l0.25-3.48h3.06v0.8c0,0.41,4.52,0.41,4.52,0v-0.8h3.28c0.55,0,1.03-0.34,1.23-0.82   c0.07-0.16,0.11-0.34,0.11-0.52V6.4C93.45,5.66,92.84,5.06,91.41,5.06z M15.05,44.18c-0.04,0-0.08,0.01-0.12,0.01v18.95   c-0.27-0.03-0.49-0.26-0.49-0.54V44.22c-0.81,0.05-1.6,0.15-2.31,0.36h-0.77c-0.27,0-0.49-0.22-0.49-0.49v-1.08l8.36,0.03v1.05   c0,0.27-0.22,0.49-0.49,0.49h-0.77c-0.71-0.2-1.5-0.31-2.31-0.36V62.6c0,0.28-0.21,0.5-0.49,0.54V44.19   C15.13,44.19,15.09,44.18,15.05,44.18z M10.87,42.75V41.7c0-0.27,0.22-0.49,0.49-0.49h0.77c0.89,0.25,1.88,0.4,2.92,0.4   s2.03-0.14,2.92-0.4h0.77c0.27,0,0.49,0.22,0.49,0.49v1.08L10.87,42.75z M9.79,79.35l-2.4,11.23l2.16-11.25l0-74.27h0.25V79.35z    M10.72,16.83h0.3c0.09-0.36,0.24-0.7,0.42-1.02l-0.21-0.21c0.35-0.57,0.83-1.05,1.4-1.4l0.21,0.21c0.31-0.19,0.65-0.33,1.02-0.42   v-0.3c0.32-0.08,0.65-0.13,0.99-0.13s0.67,0.05,0.99,0.13v0.3c0.36,0.09,0.7,0.24,1.02,0.42l0.21-0.21c0.57,0.35,1.05,0.83,1.4,1.4   l-0.21,0.21c0.19,0.31,0.33,0.65,0.42,1.02h0.3c0.08,0.32,0.13,0.65,0.13,0.99c0,0.34-0.05,0.67-0.13,0.99h-0.3   c-0.09,0.36-0.24,0.7-0.42,1.02l0.21,0.21c-0.35,0.57-0.83,1.05-1.4,1.4l-0.21-0.21c-0.31,0.19-0.65,0.33-1.02,0.42v0.3   c-0.32,0.08-0.65,0.13-0.99,0.13s-0.67-0.05-0.99-0.13v-0.3c-0.36-0.09-0.7-0.24-1.02-0.42l-0.21,0.21   c-0.57-0.35-1.05-0.83-1.4-1.4l0.21-0.21c-0.19-0.31-0.33-0.65-0.42-1.02h-0.3c-0.08-0.32-0.13-0.65-0.13-0.99   C10.6,17.47,10.65,17.15,10.72,16.83z M10.73,29.47h0.3c0.09-0.36,0.24-0.7,0.42-1.02l-0.21-0.21c0.35-0.57,0.83-1.05,1.4-1.4   l0.21,0.21c0.31-0.19,0.65-0.33,1.02-0.42v-0.3c0.32-0.08,0.65-0.13,0.99-0.13s0.67,0.05,0.99,0.13v0.3   c0.36,0.09,0.7,0.24,1.02,0.42l0.21-0.21c0.57,0.35,1.05,0.83,1.4,1.4l-0.21,0.21c0.19,0.31,0.33,0.65,0.42,1.02h0.3   c0.08,0.32,0.13,0.65,0.13,0.99c0,0.34-0.05,0.67-0.13,0.99h-0.3c-0.09,0.36-0.24,0.7-0.42,1.02l0.21,0.21   c-0.35,0.57-0.83,1.05-1.4,1.4l-0.21-0.21c-0.31,0.19-0.65,0.33-1.02,0.42v0.3c-0.32,0.08-0.65,0.13-0.99,0.13   s-0.67-0.05-0.99-0.13v-0.3c-0.36-0.09-0.7-0.24-1.02-0.42l-0.21,0.21c-0.57-0.35-1.05-0.83-1.4-1.4l0.21-0.21   c-0.19-0.31-0.33-0.65-0.42-1.02h-0.3c-0.08-0.32-0.13-0.65-0.13-0.99C10.6,30.11,10.65,29.78,10.73,29.47z M19.47,72.54   c0,0.28-0.23,0.51-0.51,0.51H11.2c-0.28,0-0.51-0.23-0.51-0.51v-4.15c0-0.28,0.23-0.51,0.51-0.51h7.76c0.28,0,0.51,0.23,0.51,0.51   V72.54z M22.95,14.64V7.23V6.97c0-0.25,0.2-0.46,0.46-0.46h0.26h52.61h0.26c0.25,0,0.46,0.2,0.46,0.46v0.26v7.41v18.03   c0,0.4-0.32,0.72-0.72,0.72H23.66c-0.4,0-0.72-0.32-0.72-0.72V14.64z M35.53,88.12c0,0.28-0.23,0.51-0.51,0.51h-7.55   c-0.28,0-0.51-0.23-0.51-0.51v-4.15c0-0.28,0.23-0.51,0.51-0.51h7.55c0.28,0,0.51,0.23,0.51,0.51V88.12z M48.08,88.12   c0,0.28-0.23,0.51-0.51,0.51h-7.55c-0.28,0-0.51-0.23-0.51-0.51v-4.15c0-0.28,0.23-0.51,0.51-0.51h7.55c0.28,0,0.51,0.23,0.51,0.51   V88.12z M60.68,88.12c0,0.28-0.23,0.51-0.51,0.51h-7.55c-0.28,0-0.51-0.23-0.51-0.51v-4.15c0-0.28,0.23-0.51,0.51-0.51h7.55   c0.28,0,0.51,0.23,0.51,0.51V88.12z M73.35,88.12c0,0.28-0.23,0.51-0.51,0.51H65.3c-0.28,0-0.51-0.23-0.51-0.51v-4.15   c0-0.28,0.23-0.51,0.51-0.51h7.55c0.28,0,0.51,0.23,0.51,0.51V88.12z M73.43,82.54H26.89v-1.59h46.54V82.54z M26.89,80.36   c0-0.04,0.03-0.08,0.08-0.08h15.48c0.04,0,0.08,0.03,0.08,0.08s-0.03,0.08-0.08,0.08H26.97C26.93,80.44,26.89,80.4,26.89,80.36z    M73.35,80.44H57.88c-0.04,0-0.08-0.03-0.08-0.08s0.03-0.08,0.08-0.08h15.48c0.04,0,0.08,0.03,0.08,0.08S73.39,80.44,73.35,80.44z    M80.01,80.15H20.74V5.06h0.25v74.62l5.32-6.53c-0.32-0.26-0.52-0.65-0.52-1.09V36.91c0-0.79,0.64-1.43,1.43-1.43h45.98   c0.79,0,1.43,0.64,1.43,1.43v35.14c0,0.38-0.15,0.73-0.4,0.99l5.54,6.64V5.06h0.25V80.15z M85.39,9.89l0.57,0.98h-1.13L85.39,9.89z    M85.96,11.2l-0.57,0.98l-0.57-0.98H85.96z M81.27,16.33h0.3c0.09-0.36,0.24-0.7,0.42-1.02l-0.21-0.21c0.35-0.57,0.83-1.05,1.4-1.4   l0.21,0.21c0.31-0.19,0.65-0.33,1.02-0.42v-0.3c0.32-0.08,0.65-0.13,0.99-0.13s0.67,0.05,0.99,0.13v0.3   c0.36,0.09,0.7,0.24,1.02,0.42l0.21-0.21c0.57,0.35,1.05,0.83,1.4,1.4l-0.21,0.21c0.19,0.31,0.33,0.65,0.42,1.02h0.3   c0.08,0.32,0.13,0.65,0.13,0.99c0,0.34-0.05,0.67-0.13,0.99h-0.3c-0.09,0.36-0.24,0.7-0.42,1.02l0.21,0.21   c-0.35,0.57-0.83,1.05-1.4,1.4l-0.21-0.21c-0.31,0.19-0.65,0.33-1.02,0.42v0.3c-0.32,0.08-0.65,0.13-0.99,0.13   s-0.67-0.05-0.99-0.13v-0.3c-0.36-0.09-0.7-0.24-1.02-0.42l-0.21,0.21c-0.57-0.35-1.05-0.83-1.4-1.4l0.21-0.21   c-0.19-0.31-0.33-0.65-0.42-1.02h-0.3c-0.08-0.32-0.13-0.65-0.13-0.99C81.14,16.97,81.19,16.65,81.27,16.33z M81.49,57.5v-1.59   h7.52v1.59H81.49z M88.55,58.65v2.69c0,0.21-0.17,0.38-0.38,0.38h-5.83c-0.21,0-0.38-0.17-0.38-0.38v-2.69   c0-0.21,0.17-0.38,0.38-0.38h5.83C88.38,58.27,88.55,58.44,88.55,58.65z M82.34,49.99h5.83c0.21,0,0.38,0.17,0.38,0.38v2.69   c0,0.21-0.17,0.38-0.38,0.38h-5.83c-0.21,0-0.38-0.17-0.38-0.38v-2.69C81.96,50.16,82.13,49.99,82.34,49.99z M81.96,44.54v-2.69   c0-0.21,0.17-0.38,0.38-0.38h5.83c0.21,0,0.38,0.17,0.38,0.38v2.69c0,0.21-0.17,0.38-0.38,0.38h-5.83   C82.13,44.92,81.96,44.75,81.96,44.54z M81.49,40.69V39.1h7.52v1.59H81.49z M81.64,30.63c0-1.95,1.58-3.53,3.53-3.53   c1.95,0,3.53,1.58,3.53,3.53c0,1.95-1.58,3.53-3.53,3.53C83.22,34.16,81.64,32.58,81.64,30.63z M89.74,72.54   c0,0.28-0.23,0.51-0.51,0.51h-7.76c-0.28,0-0.51-0.23-0.51-0.51v-4.15c0-0.28,0.23-0.51,0.51-0.51h7.76c0.28,0,0.51,0.23,0.51,0.51   V72.54z"></path><rect x="50.58" y="24.82" width="6.12" height="1.6"></rect><rect x="27.04" y="81.11" width="46.23" height="1.29"></rect><rect x="44.25" y="24.82" width="5.92" height="1.6"></rect><rect x="25.46" y="24.82" width="5.94" height="1.6"></rect><rect x="63.25" y="24.82" width="5.42" height="1.6"></rect><path d="M84.27,17.78l-0.58,0.58c0.16,0.27,0.39,0.49,0.66,0.66l0.58-0.58v0.82c0.15,0.04,0.3,0.06,0.47,0.06s0.32-0.02,0.47-0.06   v-0.82l0.58,0.58c0.27-0.16,0.49-0.39,0.66-0.66l-0.58-0.58h0.82c0.04-0.15,0.06-0.3,0.06-0.47s-0.02-0.32-0.06-0.47h-0.82   l0.58-0.58c-0.16-0.27-0.39-0.49-0.66-0.66l-0.58,0.58v-0.82c-0.15-0.04-0.3-0.06-0.47-0.06s-0.32,0.02-0.47,0.06v0.82l-0.58-0.58   c-0.27,0.16-0.49,0.39-0.66,0.66l0.58,0.58h-0.82c-0.04,0.15-0.06,0.3-0.06,0.47s0.02,0.32,0.06,0.47H84.27z"></path><path d="M30.16,70.04h14.78v-3.2H50v3.2h0.2v-3.2h5.06v3.2h5.48v-3.2h5.06v3.2h0.22v-3.2h4.48v-0.23h-4.48v-3.67h4.48v-4.53h-4.48   v-3.67h4.48v-4.25h-4.48v-3.67h4.48v-4.28h-4.48v-3.63h-5.48v3.63h-5.06v-3.63H50v3.63h-5.06v-3.63h-5.46v3.63h-5.06v-3.63h-0.19   v3.63h-4.32v4.28h4.32v3.67h-4.32v0.32h4.32v3.67h-4.32v8.23h4.32v3.67h-4.32v3.42C29.91,69.93,30.03,70.04,30.16,70.04z    M60.74,46.82h5.06v3.67h-5.06V46.82z M60.74,54.74h5.06v3.67h-5.06V54.74z M55.48,46.82h5.06v3.67h-5.06V46.82z M55.48,58.75h5.06   v3.67h-5.06V58.75z M50.2,42.87h5.06v3.67H50.2V42.87z M50.2,54.74h5.06v3.67H50.2V54.74z M44.94,46.82H50v3.67h-5.06V46.82z    M44.94,50.81H50v3.67h-5.06V50.81z M44.94,58.75H50v3.67h-5.06V58.75z M39.67,50.81h5.06v3.67h-5.06V50.81z M34.42,50.81h5.06   v3.67h-5.06V50.81z M34.42,54.74h5.06v3.67h-5.06V54.74z M34.42,62.71h5.06v3.67h-5.06V62.71z"></path><path d="M27.21,73.23h45.98c0.65,0,1.18-0.53,1.18-1.18V36.91c0-0.65-0.53-1.18-1.18-1.18H27.21c-0.65,0-1.18,0.53-1.18,1.18v35.14   C26.03,72.7,26.56,73.23,27.21,73.23z M28.91,39.16c0-0.68,0.56-1.24,1.24-1.24h40.09c0.68,0,1.24,0.56,1.24,1.24V69.8   c0,0.68-0.56,1.24-1.24,1.24H30.16c-0.68,0-1.24-0.56-1.24-1.24V39.16z"></path><rect x="62.98" y="24.82" width="0.12" height="1.6"></rect><rect x="56.85" y="24.82" width="0.12" height="1.6"></rect><rect x="57.12" y="24.82" width="5.71" height="1.6"></rect><path d="M41,22.47c0.09,0,0.17-0.04,0.23-0.1v-1.71c0-0.05-0.05-0.1-0.1-0.1H36c-0.05,0-0.1,0.05-0.1,0.1v1.71   c0.06,0.06,0.14,0.1,0.23,0.1H41z M38.54,20.75c0.4,0,0.73,0.33,0.73,0.73s-0.33,0.73-0.73,0.73s-0.73-0.33-0.73-0.73   S38.13,20.75,38.54,20.75z"></path><path d="M15.32,31.58l0.58,0.58c0.27-0.16,0.49-0.39,0.66-0.66l-0.58-0.58h0.82c0.04-0.15,0.06-0.3,0.06-0.47s-0.02-0.32-0.06-0.47   h-0.82l0.58-0.58c-0.16-0.27-0.39-0.49-0.66-0.66l-0.58,0.58v-0.82c-0.07-0.02-0.15-0.02-0.23-0.03v3.94   c0.08-0.01,0.15-0.01,0.23-0.03V31.58z"></path><rect x="31.54" y="24.82" width="0.12" height="1.6"></rect><path d="M13.73,30.92l-0.58,0.58c0.16,0.27,0.39,0.49,0.66,0.66l0.58-0.58v0.82c0.07,0.02,0.15,0.02,0.23,0.03v-3.94   c-0.08,0.01-0.15,0.01-0.23,0.03v0.82l-0.58-0.58c-0.27,0.16-0.49,0.39-0.66,0.66l0.58,0.58h-0.82c-0.04,0.15-0.06,0.3-0.06,0.47   s0.02,0.32,0.06,0.47H13.73z"></path><path d="M13.72,18.28l-0.58,0.58c0.16,0.27,0.39,0.49,0.66,0.66l0.58-0.58v0.82c0.15,0.04,0.3,0.06,0.47,0.06s0.32-0.02,0.47-0.06   v-0.82l0.58,0.58c0.27-0.16,0.49-0.39,0.66-0.66l-0.58-0.58h0.82c0.04-0.15,0.06-0.3,0.06-0.47s-0.02-0.32-0.06-0.47h-0.82   l0.58-0.58c-0.16-0.27-0.39-0.49-0.66-0.66l-0.58,0.58v-0.82c-0.15-0.04-0.3-0.06-0.47-0.06s-0.32,0.02-0.47,0.06v0.82l-0.58-0.58   c-0.27,0.16-0.49,0.39-0.66,0.66l0.58,0.58h-0.82c-0.04,0.15-0.06,0.3-0.06,0.47s0.02,0.32,0.06,0.47H13.72z"></path><rect x="68.82" y="24.82" width="0.12" height="1.6"></rect><rect x="69.09" y="24.82" width="5.71" height="1.6"></rect><path d="M73.19,73.48H27.21c-0.26,0-0.49-0.07-0.7-0.19l-5.39,6.62h58.49l-5.59-6.7C73.79,73.37,73.51,73.48,73.19,73.48z"></path><path d="M55.59,21.13h-1.13c-0.01,0-0.07,0.06-0.16,0.18c0.1,0.12,0.15,0.17,0.16,0.18h1.13c0.01,0,0.07-0.06,0.16-0.18   C55.66,21.19,55.6,21.13,55.59,21.13z"></path><path d="M48.49,19.62c0.12-0.1,0.17-0.15,0.18-0.16v-1.13c0-0.01-0.06-0.07-0.18-0.16c-0.12,0.1-0.17,0.15-0.18,0.16v1.13   C48.32,19.47,48.38,19.52,48.49,19.62z"></path><path d="M51.36,19.62c0.12-0.1,0.17-0.15,0.18-0.16v-1.13c0-0.01-0.06-0.07-0.18-0.16c-0.12,0.1-0.17,0.15-0.18,0.16v1.13   C51.19,19.47,51.25,19.52,51.36,19.62z"></path><path d="M48.49,21.23c0.12-0.1,0.17-0.15,0.18-0.16v-1.13c0-0.01-0.06-0.07-0.18-0.16c-0.12,0.1-0.17,0.15-0.18,0.16v1.13   C48.32,21.07,48.38,21.13,48.49,21.23z"></path><path d="M51.36,21.23c0.12-0.1,0.17-0.15,0.18-0.16v-1.13c0-0.01-0.06-0.07-0.18-0.16c-0.12,0.1-0.17,0.15-0.18,0.16v1.13   C51.19,21.07,51.25,21.13,51.36,21.23z"></path><path d="M49.91,18.33v1.13c0,0.01,0.06,0.07,0.18,0.16c0.12-0.1,0.17-0.15,0.18-0.16v-1.13c0-0.01-0.06-0.07-0.18-0.16   C49.97,18.26,49.91,18.32,49.91,18.33z"></path><path d="M48.73,18.27h1.13c0.01,0,0.07-0.06,0.16-0.18c-0.1-0.12-0.15-0.17-0.16-0.18h-1.13c-0.01,0-0.07,0.06-0.16,0.18   C48.66,18.21,48.71,18.27,48.73,18.27z"></path><path d="M44.49,19.63c0.12-0.1,0.17-0.15,0.18-0.16v-1.14l-0.35-0.34v1.48C44.32,19.48,44.37,19.54,44.49,19.63z"></path><path d="M47.2,21.45h0.07c0.04,0,0.11-0.06,0.21-0.18v-0.01c-0.1-0.12-0.17-0.18-0.21-0.18H47.2c-0.04,0-0.11,0.06-0.21,0.18v0.01   C47.09,21.39,47.16,21.45,47.2,21.45z"></path><path d="M44.67,21.06v-1.13c0-0.01-0.06-0.07-0.18-0.16c-0.12,0.1-0.17,0.15-0.18,0.16v1.48C44.55,21.19,44.67,21.07,44.67,21.06z"></path><path d="M44.37,21.48h1.83c-0.22-0.23-0.34-0.35-0.35-0.35h-1.13C44.49,21.36,44.37,21.47,44.37,21.48z"></path><path d="M52.72,21.13H51.6c-0.01,0-0.07,0.06-0.16,0.18c0.1,0.12,0.15,0.17,0.16,0.18h1.13c0.01,0,0.07-0.06,0.16-0.18   C52.79,21.19,52.73,21.13,52.72,21.13z"></path><path d="M51.6,18.27h1.13c0.01,0,0.07-0.06,0.16-0.18c-0.1-0.12-0.15-0.17-0.16-0.18H51.6c-0.01,0-0.07,0.06-0.16,0.18   C51.53,18.21,51.58,18.27,51.6,18.27z"></path><path d="M52.96,19.78c-0.12,0.1-0.17,0.15-0.18,0.16v1.13c0,0.01,0.06,0.07,0.18,0.16c0.12-0.1,0.17-0.15,0.18-0.16v-1.13   C53.13,19.93,53.07,19.88,52.96,19.78z"></path><path d="M50.08,19.78c-0.12,0.1-0.17,0.15-0.18,0.16v1.13c0,0.01,0.06,0.07,0.18,0.16c0.12-0.1,0.17-0.15,0.18-0.16v-1.13   C50.26,19.93,50.2,19.88,50.08,19.78z"></path><path d="M55.65,18.33v1.13c0,0.01,0.06,0.07,0.18,0.16c0.12-0.1,0.17-0.15,0.18-0.16v-1.13c0-0.01-0.06-0.07-0.18-0.16   C55.71,18.26,55.65,18.32,55.65,18.33z"></path><path d="M49.85,21.13h-1.13c-0.01,0-0.07,0.06-0.16,0.18c0.1,0.12,0.15,0.17,0.16,0.18h1.13c0.01,0,0.07-0.06,0.16-0.18   C49.92,21.19,49.86,21.13,49.85,21.13z"></path><path d="M55.83,19.78c-0.12,0.1-0.17,0.15-0.18,0.16v1.13c0,0.01,0.06,0.07,0.18,0.16c0.12-0.1,0.17-0.15,0.18-0.16v-1.13   C56,19.93,55.94,19.88,55.83,19.78z"></path><path d="M54.47,18.27h1.13c0.01,0,0.07-0.06,0.16-0.18c-0.1-0.12-0.15-0.17-0.16-0.18h-1.13c-0.01,0-0.07,0.06-0.16,0.18   C54.4,18.21,54.45,18.27,54.47,18.27z"></path><path d="M54.23,21.23c0.12-0.1,0.17-0.15,0.18-0.16v-1.13c0-0.01-0.06-0.07-0.18-0.16c-0.12,0.1-0.17,0.15-0.18,0.16v1.13   C54.06,21.07,54.12,21.13,54.23,21.23z"></path><path d="M52.78,18.33v1.13c0,0.01,0.06,0.07,0.18,0.16c0.12-0.1,0.17-0.15,0.18-0.16v-1.13c0-0.01-0.06-0.07-0.18-0.16   C52.84,18.26,52.78,18.32,52.78,18.33z"></path><path d="M54.23,19.62c0.12-0.1,0.17-0.15,0.18-0.16v-1.13c0-0.01-0.06-0.07-0.18-0.16c-0.12,0.1-0.17,0.15-0.18,0.16v1.13   C54.06,19.47,54.12,19.52,54.23,19.62z"></path><path d="M88.29,30.63c0-1.72-1.4-3.13-3.13-3.13s-3.13,1.4-3.13,3.13s1.4,3.13,3.13,3.13S88.29,32.35,88.29,30.63z M82.29,30.63   c0-1.59,1.29-2.88,2.88-2.88s2.88,1.29,2.88,2.88s-1.29,2.88-2.88,2.88S82.29,32.21,82.29,30.63z"></path></g></svg>