<svg height='300px' width='300px'  fill="#000000" xmlns="http://www.w3.org/2000/svg" xmlns:xlink="http://www.w3.org/1999/xlink" version="1.1" x="0px" y="0px" viewBox="0 0 100 100" enable-background="new 0 0 100 100" xml:space="preserve"><path d="M23.697,69.068h4.49v3.242h-4.49V69.068z M23.697,81.729h4.49v-3.242h-4.49V81.729z M23.915,60.907  c-1.786,0-3.239-1.454-3.239-3.239c0-1.786,1.453-3.238,3.239-3.238c1.786,0,3.238,1.452,3.238,3.238  C27.153,59.453,25.701,60.907,23.915,60.907z M23.915,59.891c1.228,0,2.223-0.995,2.223-2.223c0-1.229-0.995-2.224-2.223-2.224  c-0.417,0-0.805,0.118-1.139,0.315l1.27,1.815c0.051,0.073,0.033,0.173-0.04,0.224c-0.027,0.02-0.06,0.029-0.091,0.029  c-0.05,0-0.1-0.023-0.131-0.069l-1.27-1.815c-0.501,0.407-0.822,1.027-0.822,1.725C21.692,58.896,22.687,59.891,23.915,59.891z   M20.676,26.546c0-1.787,1.453-3.239,3.239-3.239c1.786,0,3.238,1.452,3.238,3.239c0,1.785-1.452,3.238-3.238,3.238  C22.129,29.784,20.676,28.331,20.676,26.546z M21.692,26.546c0,1.227,0.996,2.222,2.223,2.222c1.228,0,2.223-0.995,2.223-2.222  c0-1.229-0.995-2.223-2.223-2.223c-0.417,0-0.805,0.116-1.139,0.316l1.27,1.815c0.051,0.072,0.033,0.171-0.04,0.222  c-0.027,0.02-0.06,0.029-0.091,0.029c-0.05,0-0.1-0.024-0.131-0.068l-1.27-1.816C22.013,25.229,21.692,25.85,21.692,26.546z   M20.676,42.106c0-1.786,1.453-3.239,3.239-3.239c1.786,0,3.238,1.453,3.238,3.239c0,1.786-1.452,3.238-3.238,3.238  C22.129,45.345,20.676,43.893,20.676,42.106z M21.692,42.106c0,1.228,0.996,2.223,2.223,2.223c1.228,0,2.223-0.995,2.223-2.223  c0-0.696-0.32-1.317-0.821-1.725l-1.27,1.816c-0.032,0.044-0.081,0.069-0.131,0.069c-0.032,0-0.064-0.01-0.092-0.029  c-0.073-0.051-0.09-0.151-0.039-0.223l1.269-1.814c-0.333-0.2-0.722-0.316-1.138-0.316C22.687,39.884,21.692,40.879,21.692,42.106z   M5.005,81.729h4.489v-3.242H5.005V81.729z M12.482,57.668c0,1.785-1.453,3.239-3.24,3.239c-1.785,0-3.237-1.454-3.237-3.239  c0-1.786,1.452-3.238,3.237-3.238C11.029,54.43,12.482,55.882,12.482,57.668z M11.466,57.668c0-0.697-0.32-1.317-0.821-1.725  l-1.27,1.815c-0.031,0.046-0.081,0.069-0.132,0.069c-0.032,0-0.063-0.01-0.09-0.029c-0.073-0.051-0.091-0.15-0.04-0.224l1.269-1.815  c-0.333-0.197-0.721-0.315-1.139-0.315c-1.227,0-2.222,0.995-2.222,2.224c0,1.228,0.995,2.223,2.222,2.223  C10.471,59.891,11.466,58.896,11.466,57.668z M14.337,81.729h4.488v-3.242h-4.488V81.729z M14.337,72.311h4.488v-3.242h-4.488  V72.311z M12.482,26.546c0,1.785-1.453,3.238-3.24,3.238c-1.785,0-3.237-1.453-3.237-3.238c0-1.787,1.452-3.239,3.237-3.239  C11.029,23.307,12.482,24.759,12.482,26.546z M11.466,26.546c0-0.696-0.32-1.317-0.821-1.725l-1.27,1.816  c-0.031,0.044-0.081,0.068-0.132,0.068c-0.032,0-0.063-0.009-0.09-0.029c-0.073-0.051-0.091-0.15-0.04-0.222l1.269-1.815  c-0.333-0.2-0.721-0.316-1.139-0.316c-1.227,0-2.222,0.995-2.222,2.223c0,1.227,0.995,2.222,2.222,2.222  C10.471,28.768,11.466,27.773,11.466,26.546z M12.482,42.106c0,1.786-1.453,3.238-3.24,3.238c-1.785,0-3.238-1.452-3.238-3.238  c0-1.786,1.453-3.239,3.238-3.239C11.029,38.868,12.482,40.321,12.482,42.106z M11.466,42.106c0-1.228-0.995-2.222-2.223-2.222  c-0.416,0-0.804,0.116-1.137,0.316l1.269,1.814c0.051,0.072,0.033,0.172-0.039,0.223c-0.028,0.019-0.06,0.029-0.092,0.029  c-0.051,0-0.101-0.025-0.131-0.069l-1.27-1.816c-0.501,0.407-0.821,1.028-0.821,1.725c0,1.228,0.995,2.223,2.222,2.223  C10.471,44.329,11.466,43.334,11.466,42.106z M5.005,72.311h4.489v-3.242H5.005V72.311z M98.007,13.353v73.295  c0,1.951-1.582,3.534-3.534,3.534H5.528c-1.953,0-3.535-1.583-3.535-3.534V13.353c0-1.952,1.582-3.535,3.535-3.535h88.945  C96.425,9.818,98.007,11.401,98.007,13.353z M19.876,26.546c0,2.227,1.812,4.038,4.039,4.038c2.227,0,4.039-1.812,4.039-4.038  c0-2.228-1.812-4.04-4.039-4.04C21.688,22.506,19.876,24.318,19.876,26.546z M19.876,42.106c0,2.227,1.812,4.039,4.039,4.039  c2.227,0,4.039-1.812,4.039-4.039c0-2.227-1.812-4.039-4.039-4.039C21.688,38.068,19.876,39.88,19.876,42.106z M10.118,78.218  c0-0.195-0.158-0.354-0.354-0.354H4.735c-0.195,0-0.354,0.158-0.354,0.354V82c0,0.195,0.159,0.354,0.354,0.354h5.028  c0.196,0,0.354-0.158,0.354-0.354V78.218z M10.118,68.8c0-0.196-0.158-0.354-0.354-0.354H4.735c-0.195,0-0.354,0.157-0.354,0.354  v3.781c0,0.194,0.159,0.354,0.354,0.354h5.028c0.196,0,0.354-0.16,0.354-0.354V68.8z M13.282,57.668c0-2.228-1.812-4.039-4.04-4.039  c-2.227,0-4.038,1.812-4.038,4.039c0,2.226,1.812,4.037,4.038,4.037C11.47,61.705,13.282,59.894,13.282,57.668z M13.282,42.106  c0-2.227-1.812-4.039-4.04-4.039c-2.227,0-4.038,1.812-4.038,4.039c0,2.227,1.812,4.039,4.038,4.039  C11.47,46.146,13.282,44.333,13.282,42.106z M13.282,26.546c0-2.228-1.812-4.04-4.04-4.04c-2.227,0-4.038,1.812-4.038,4.04  c0,2.227,1.812,4.038,4.038,4.038C11.47,30.584,13.282,28.772,13.282,26.546z M19.449,78.218c0-0.195-0.158-0.354-0.354-0.354  h-5.029c-0.195,0-0.353,0.158-0.353,0.354V82c0,0.195,0.158,0.354,0.353,0.354h5.029c0.195,0,0.354-0.158,0.354-0.354V78.218z   M19.449,68.8c0-0.196-0.158-0.354-0.354-0.354h-5.029c-0.195,0-0.353,0.157-0.353,0.354v3.781c0,0.194,0.158,0.354,0.353,0.354  h5.029c0.195,0,0.354-0.16,0.354-0.354V68.8z M23.915,61.705c2.227,0,4.039-1.812,4.039-4.037c0-2.228-1.812-4.039-4.039-4.039  c-2.227,0-4.039,1.812-4.039,4.039C19.876,59.894,21.688,61.705,23.915,61.705z M28.81,78.218c0-0.195-0.158-0.354-0.353-0.354  h-5.03c-0.195,0-0.353,0.158-0.353,0.354V82c0,0.195,0.158,0.354,0.353,0.354h5.03c0.195,0,0.353-0.158,0.353-0.354V78.218z   M28.81,68.8c0-0.196-0.158-0.354-0.353-0.354h-5.03c-0.195,0-0.353,0.157-0.353,0.354v3.781c0,0.194,0.158,0.354,0.353,0.354h5.03  c0.195,0,0.353-0.16,0.353-0.354V68.8z M95.555,18.597c0-0.562-0.456-1.02-1.018-1.02H32.355c-0.562,0-1.019,0.458-1.019,1.02  v62.805c0,0.561,0.457,1.019,1.019,1.019h62.183c0.562,0,1.018-0.458,1.018-1.019V18.597z M94.932,18.597v62.805  c0,0.218-0.177,0.396-0.395,0.396H32.355c-0.218,0-0.396-0.178-0.396-0.396V18.597c0-0.219,0.178-0.396,0.396-0.396h62.183  C94.756,18.201,94.932,18.378,94.932,18.597z M46.51,67.531c0-0.391-0.316-0.708-0.707-0.708H34.406  c-0.39,0-0.707,0.317-0.707,0.708v11.395c0,0.391,0.317,0.708,0.707,0.708h11.396c0.391,0,0.707-0.317,0.707-0.708V67.531z   M46.51,51.97c0-0.391-0.316-0.706-0.707-0.706H34.406c-0.39,0-0.707,0.315-0.707,0.706v11.396c0,0.392,0.317,0.708,0.707,0.708  h11.396c0.391,0,0.707-0.316,0.707-0.708V51.97z M46.51,36.409c0-0.39-0.316-0.707-0.707-0.707H34.406  c-0.39,0-0.707,0.317-0.707,0.707v11.396c0,0.39,0.317,0.707,0.707,0.707h11.396c0.391,0,0.707-0.317,0.707-0.707V36.409z   M46.51,20.847c0-0.39-0.316-0.707-0.707-0.707H34.406c-0.39,0-0.707,0.317-0.707,0.707v11.396c0,0.391,0.317,0.707,0.707,0.707  h11.396c0.391,0,0.707-0.316,0.707-0.707V20.847z M62.07,67.531c0-0.391-0.315-0.708-0.706-0.708H49.968  c-0.39,0-0.707,0.317-0.707,0.708v11.395c0,0.391,0.317,0.708,0.707,0.708h11.396c0.391,0,0.706-0.317,0.706-0.708V67.531z   M62.07,51.97c0-0.391-0.315-0.706-0.706-0.706H49.968c-0.39,0-0.707,0.315-0.707,0.706v11.396c0,0.392,0.317,0.708,0.707,0.708  h11.396c0.391,0,0.706-0.316,0.706-0.708V51.97z M62.07,36.409c0-0.39-0.315-0.707-0.706-0.707H49.968  c-0.39,0-0.707,0.317-0.707,0.707v11.396c0,0.39,0.317,0.707,0.707,0.707h11.396c0.391,0,0.706-0.317,0.706-0.707V36.409z   M62.07,20.847c0-0.39-0.315-0.707-0.706-0.707H49.968c-0.39,0-0.707,0.317-0.707,0.707v11.396c0,0.391,0.317,0.707,0.707,0.707  h11.396c0.391,0,0.706-0.316,0.706-0.707V20.847z M77.632,67.531c0-0.391-0.316-0.708-0.707-0.708H65.528  c-0.39,0-0.707,0.317-0.707,0.708v11.395c0,0.391,0.317,0.708,0.707,0.708h11.396c0.391,0,0.707-0.317,0.707-0.708V67.531z   M77.632,51.97c0-0.391-0.316-0.706-0.707-0.706H65.528c-0.39,0-0.707,0.315-0.707,0.706v11.396c0,0.392,0.317,0.708,0.707,0.708  h11.396c0.391,0,0.707-0.316,0.707-0.708V51.97z M77.632,36.409c0-0.39-0.316-0.707-0.707-0.707H65.528  c-0.39,0-0.707,0.317-0.707,0.707v11.396c0,0.39,0.317,0.707,0.707,0.707h11.396c0.391,0,0.707-0.317,0.707-0.707V36.409z   M77.632,20.847c0-0.39-0.316-0.707-0.707-0.707H65.528c-0.39,0-0.707,0.317-0.707,0.707v11.396c0,0.391,0.317,0.707,0.707,0.707  h11.396c0.391,0,0.707-0.316,0.707-0.707V20.847z M93.193,67.531c0-0.391-0.316-0.708-0.707-0.708H81.09  c-0.39,0-0.707,0.317-0.707,0.708v11.395c0,0.391,0.317,0.708,0.707,0.708h11.396c0.391,0,0.707-0.317,0.707-0.708V67.531z   M93.193,51.97c0-0.391-0.316-0.706-0.707-0.706H81.09c-0.39,0-0.707,0.315-0.707,0.706v11.396c0,0.392,0.317,0.708,0.707,0.708  h11.396c0.391,0,0.707-0.316,0.707-0.708V51.97z M93.193,36.409c0-0.39-0.316-0.707-0.707-0.707H81.09  c-0.39,0-0.707,0.317-0.707,0.707v11.396c0,0.39,0.317,0.707,0.707,0.707h11.396c0.391,0,0.707-0.317,0.707-0.707V36.409z   M93.193,20.847c0-0.39-0.316-0.707-0.707-0.707H81.09c-0.39,0-0.707,0.317-0.707,0.707v11.396c0,0.391,0.317,0.707,0.707,0.707  h11.396c0.391,0,0.707-0.316,0.707-0.707V20.847z"></path></svg>