<svg height='300px' width='300px'  fill="#000000" xmlns="http://www.w3.org/2000/svg" xmlns:xlink="http://www.w3.org/1999/xlink" version="1.1" x="0px" y="0px" viewBox="0 0 100 100" enable-background="new 0 0 100 100" xml:space="preserve"><g><path d="M64.459,66.223h-2.116V55.578c0-0.788-0.639-1.426-1.426-1.426c-0.788,0-1.426,0.639-1.426,1.426v10.645h-2.116   c-0.788,0-1.426,0.639-1.426,1.426v4.755c0,0.788,0.639,1.426,1.426,1.426h2.116v13.025c0,0.788,0.639,1.426,1.426,1.426   c0.788,0,1.426-0.639,1.426-1.426V73.83h2.116c0.788,0,1.426-0.639,1.426-1.426v-4.755C65.885,66.861,65.246,66.223,64.459,66.223z    M63.032,70.978h-4.231v-1.902h4.231V70.978z"></path><path d="M60.764,42.397c-1.341,0.041-2.586,0.601-3.505,1.578c-0.919,0.977-1.403,2.254-1.363,3.595   c0.041,1.341,0.601,2.586,1.578,3.505c0.939,0.884,2.154,1.365,3.438,1.365c0.052,0,0.104-0.001,0.156-0.002   c1.341-0.041,2.586-0.601,3.506-1.578c0.919-0.977,1.403-2.254,1.362-3.595C65.852,44.496,63.531,42.309,60.764,42.397z    M62.497,48.904c-0.397,0.422-0.935,0.664-1.515,0.682c-0.581,0.014-1.131-0.192-1.553-0.589c-0.422-0.397-0.664-0.935-0.682-1.515   c-0.018-0.579,0.191-1.131,0.589-1.553c0.397-0.422,0.935-0.664,1.515-0.682c0.579-0.019,1.131,0.191,1.553,0.589   s0.664,0.935,0.682,1.515C63.103,47.931,62.894,48.482,62.497,48.904z"></path><path d="M63.988,30.952c-1.062-0.82-2.378-1.178-3.71-1.008c-1.331,0.171-2.515,0.849-3.336,1.911   c-1.693,2.192-1.288,5.352,0.904,7.046c0,0,0,0,0,0c0.912,0.705,1.993,1.046,3.065,1.046c1.503,0,2.992-0.671,3.98-1.95   c0.82-1.062,1.178-2.379,1.008-3.71C65.728,32.957,65.049,31.772,63.988,30.952z M62.633,36.253   c-0.732,0.947-2.097,1.122-3.044,0.39v0c-0.947-0.732-1.122-2.097-0.39-3.044c0.354-0.459,0.866-0.752,1.441-0.825   c0.575-0.074,1.144,0.081,1.603,0.435c0.459,0.354,0.752,0.866,0.826,1.441C63.142,35.225,62.988,35.795,62.633,36.253z"></path><path d="M60.924,27.458c0.713,0,1.438-0.153,2.126-0.475c2.507-1.176,3.59-4.173,2.414-6.681c-1.176-2.507-4.173-3.59-6.681-2.414   c-2.507,1.177-3.59,4.174-2.414,6.681C57.223,26.389,59.036,27.458,60.924,27.458z M59.995,20.471   c0.297-0.139,0.61-0.205,0.918-0.205c0.816,0,1.599,0.462,1.968,1.248c0.508,1.083,0.04,2.378-1.043,2.887   c-1.083,0.508-2.378,0.04-2.886-1.043C58.444,22.274,58.912,20.979,59.995,20.471z"></path><path d="M50.265,74.013H48.15V55.578c0-0.788-0.639-1.426-1.426-1.426c-0.788,0-1.426,0.639-1.426,1.426v18.435h-2.116   c-0.788,0-1.426,0.639-1.426,1.426v4.755c0,0.788,0.639,1.426,1.426,1.426h2.116v5.235c0,0.788,0.639,1.426,1.426,1.426   c0.788,0,1.426-0.639,1.426-1.426V81.62h2.116c0.788,0,1.426-0.639,1.426-1.426v-4.755C51.692,74.652,51.053,74.013,50.265,74.013z    M48.839,78.768h-4.232v-1.902h4.232V78.768z"></path><path d="M46.571,42.397c-1.341,0.041-2.586,0.601-3.505,1.578c-0.919,0.977-1.403,2.254-1.363,3.595   c0.041,1.341,0.601,2.586,1.578,3.505c0.939,0.884,2.154,1.365,3.438,1.365c0.052,0,0.104-0.001,0.157-0.002   c1.341-0.041,2.586-0.601,3.505-1.578c0.919-0.977,1.403-2.254,1.362-3.595C51.66,44.496,49.339,42.311,46.571,42.397z    M48.304,48.904c-0.397,0.422-0.935,0.664-1.515,0.682c-0.577,0.016-1.131-0.191-1.553-0.589c-0.422-0.397-0.664-0.935-0.682-1.515   c-0.018-0.579,0.191-1.131,0.589-1.553c0.397-0.422,0.935-0.664,1.515-0.682c1.197-0.037,2.198,0.907,2.235,2.103   C48.91,47.931,48.701,48.482,48.304,48.904z"></path><path d="M49.794,30.952c-1.062-0.82-2.379-1.178-3.71-1.008c-1.331,0.171-2.515,0.849-3.336,1.911   c-1.693,2.191-1.288,5.352,0.903,7.046c0,0,0,0,0,0c0.912,0.705,1.993,1.046,3.065,1.046c1.503,0,2.992-0.671,3.98-1.95   c0.82-1.062,1.178-2.379,1.008-3.71C51.534,32.957,50.856,31.772,49.794,30.952z M48.44,36.253   c-0.731,0.947-2.097,1.122-3.044,0.39c-0.947-0.732-1.122-2.097-0.39-3.044c0.354-0.459,0.866-0.752,1.441-0.825   c0.575-0.074,1.144,0.081,1.603,0.435c0.459,0.354,0.752,0.866,0.826,1.441C48.949,35.225,48.795,35.795,48.44,36.253z"></path><path d="M45.016,27.16c0.557,0.201,1.135,0.302,1.71,0.302c0.727,0,1.452-0.16,2.13-0.478c2.507-1.176,3.59-4.173,2.414-6.681   c-1.176-2.507-4.173-3.59-6.681-2.414c-2.507,1.177-3.59,4.173-2.414,6.681C42.746,25.784,43.755,26.704,45.016,27.16z    M45.801,20.471c0.297-0.139,0.61-0.205,0.918-0.205c0.816,0,1.599,0.462,1.968,1.248c0.508,1.083,0.04,2.378-1.043,2.887   c-0.524,0.246-1.114,0.273-1.659,0.076c-0.545-0.197-0.981-0.595-1.227-1.119C44.25,22.274,44.718,20.979,45.801,20.471z"></path><path d="M36.072,71.767h-2.116V55.578c0-0.788-0.639-1.426-1.426-1.426c-0.788,0-1.426,0.639-1.426,1.426v16.189h-2.116   c-0.788,0-1.426,0.639-1.426,1.426v4.755c0,0.788,0.639,1.426,1.426,1.426h2.116v7.481c0,0.788,0.639,1.426,1.426,1.426   c0.788,0,1.426-0.639,1.426-1.426v-7.481h2.116c0.788,0,1.426-0.639,1.426-1.426v-4.755C37.498,72.406,36.86,71.767,36.072,71.767z    M34.646,76.522h-4.232V74.62h4.232V76.522z"></path><path d="M32.377,42.397c-1.341,0.041-2.586,0.601-3.505,1.578c-0.919,0.977-1.403,2.254-1.363,3.595   c0.041,1.341,0.601,2.586,1.578,3.505c0.939,0.884,2.154,1.365,3.438,1.365c0.052,0,0.104-0.001,0.157-0.002   c1.341-0.041,2.586-0.601,3.505-1.578c0.919-0.977,1.403-2.254,1.362-3.595C37.466,44.496,35.146,42.311,32.377,42.397z    M34.11,48.904c-0.397,0.422-0.935,0.664-1.515,0.682c-0.578,0.016-1.131-0.191-1.553-0.589c-0.422-0.397-0.664-0.935-0.682-1.515   c-0.018-0.579,0.191-1.131,0.589-1.553c0.397-0.422,0.935-0.664,1.515-0.682c1.199-0.037,2.198,0.907,2.235,2.103   C34.717,47.931,34.507,48.482,34.11,48.904z"></path><path d="M35.601,30.952c-1.062-0.82-2.379-1.178-3.71-1.008c-1.331,0.171-2.515,0.849-3.336,1.911   c-1.693,2.191-1.288,5.352,0.903,7.046c0,0,0,0,0,0c0.912,0.705,1.993,1.046,3.065,1.046c1.503,0,2.992-0.671,3.98-1.95   c0.82-1.062,1.178-2.379,1.008-3.71C37.341,32.957,36.662,31.772,35.601,30.952z M34.247,36.253   c-0.731,0.947-2.097,1.122-3.044,0.39c-0.947-0.732-1.122-2.097-0.39-3.044c0.354-0.459,0.866-0.752,1.441-0.825   c0.575-0.074,1.144,0.081,1.603,0.435c0.459,0.354,0.752,0.866,0.826,1.441C34.756,35.225,34.601,35.795,34.247,36.253z"></path><path d="M30.823,27.16c0.557,0.201,1.135,0.302,1.71,0.302c0.727,0,1.452-0.16,2.13-0.478c2.507-1.176,3.59-4.173,2.414-6.681   c-1.176-2.507-4.173-3.59-6.681-2.414c-2.507,1.177-3.59,4.173-2.414,6.681C28.553,25.784,29.561,26.704,30.823,27.16z    M31.608,20.471c0.297-0.139,0.61-0.205,0.918-0.205c0.816,0,1.599,0.462,1.968,1.248c0.508,1.083,0.04,2.378-1.043,2.887   c-0.524,0.246-1.114,0.273-1.659,0.076c-0.545-0.197-0.981-0.595-1.227-1.119C30.057,22.274,30.525,20.979,31.608,20.471z"></path><path d="M21.879,59.46h-2.116v-3.882c0-0.788-0.639-1.426-1.426-1.426s-1.426,0.639-1.426,1.426v3.882h-2.116   c-0.788,0-1.426,0.639-1.426,1.426v4.755c0,0.788,0.639,1.426,1.426,1.426h2.116v19.788c0,0.788,0.639,1.426,1.426,1.426   s1.426-0.639,1.426-1.426V67.067h2.116c0.788,0,1.426-0.639,1.426-1.426v-4.755C23.305,60.099,22.667,59.46,21.879,59.46z    M20.453,64.215h-4.232v-1.902h4.232V64.215z"></path><path d="M18.184,42.397c-1.341,0.041-2.586,0.601-3.505,1.578c-0.919,0.977-1.403,2.254-1.363,3.595   c0.041,1.341,0.601,2.586,1.578,3.505c0.939,0.884,2.154,1.365,3.438,1.365c0.052,0,0.104-0.001,0.157-0.002   c1.341-0.041,2.586-0.601,3.505-1.578c0.919-0.977,1.403-2.254,1.362-3.595C23.273,44.496,20.953,42.311,18.184,42.397z    M19.917,48.904c-0.397,0.422-0.935,0.664-1.515,0.682c-0.579,0.016-1.131-0.191-1.553-0.589c-0.422-0.397-0.664-0.935-0.682-1.515   c-0.018-0.579,0.191-1.131,0.589-1.553c0.397-0.422,0.935-0.664,1.515-0.682c1.197-0.037,2.198,0.907,2.235,2.103   C20.523,47.931,20.314,48.482,19.917,48.904z"></path><path d="M21.408,30.952c-1.062-0.82-2.379-1.178-3.71-1.008c-1.331,0.171-2.515,0.849-3.336,1.911   c-1.693,2.191-1.288,5.352,0.903,7.046c0,0,0,0,0,0c0.912,0.705,1.993,1.046,3.065,1.046c1.503,0,2.992-0.671,3.98-1.95   c0.82-1.062,1.178-2.379,1.008-3.71C23.148,32.957,22.469,31.772,21.408,30.952z M20.054,36.253   c-0.731,0.947-2.097,1.122-3.044,0.39c-0.947-0.732-1.122-2.097-0.39-3.044c0.354-0.459,0.866-0.752,1.441-0.825   c0.575-0.074,1.144,0.081,1.603,0.435c0.459,0.354,0.752,0.866,0.826,1.441C20.563,35.225,20.408,35.795,20.054,36.253z"></path><path d="M16.63,27.16c0.557,0.201,1.135,0.302,1.71,0.302c0.727,0,1.452-0.16,2.13-0.478c2.507-1.176,3.59-4.173,2.414-6.681   c-1.176-2.507-4.173-3.59-6.681-2.414c-2.507,1.177-3.59,4.173-2.414,6.681C14.359,25.784,15.368,26.704,16.63,27.16z    M17.415,20.471c0.297-0.139,0.61-0.205,0.918-0.205c0.816,0,1.599,0.462,1.968,1.248c0.508,1.083,0.04,2.378-1.043,2.887   c-0.525,0.246-1.114,0.273-1.659,0.076c-0.545-0.197-0.981-0.595-1.227-1.119C15.864,22.274,16.332,20.979,17.415,20.471z"></path><path d="M93.466,7.465H63.86c-0.028-0.763-0.654-1.373-1.424-1.373h-3.041c-0.77,0-1.396,0.61-1.424,1.373h-8.305   c-0.028-0.763-0.654-1.373-1.424-1.373h-3.041c-0.77,0-1.396,0.61-1.424,1.373h-8.245c-0.028-0.763-0.654-1.373-1.424-1.373h-3.041   c-0.77,0-1.396,0.61-1.424,1.373h-8.798c-0.028-0.763-0.654-1.373-1.424-1.373h-3.041c-0.77,0-1.396,0.61-1.424,1.373H6.534   c-0.788,0-1.426,0.639-1.426,1.426v83.591c0,0.788,0.639,1.426,1.426,1.426h86.931c0.788,0,1.426-0.639,1.426-1.426V8.891   C94.892,8.104,94.253,7.465,93.466,7.465z M86.969,91.056H73.42V48.734h13.549V91.056z M92.039,91.056h-2.218V47.308   c0-0.788-0.639-1.426-1.426-1.426H71.993c-0.788,0-1.426,0.639-1.426,1.426v43.748H7.961V10.318h84.079V91.056z"></path><path d="M75.645,26.059c1.433,0,2.599-1.166,2.599-2.599s-1.166-2.599-2.599-2.599c-1.433,0-2.599,1.166-2.599,2.599   S74.211,26.059,75.645,26.059z M75.645,23.207c0.14,0,0.253,0.114,0.253,0.254s-0.114,0.254-0.253,0.254   c-0.14,0-0.254-0.114-0.254-0.254S75.505,23.207,75.645,23.207z"></path><path d="M84.744,26.059c1.433,0,2.599-1.166,2.599-2.599s-1.166-2.599-2.599-2.599s-2.599,1.166-2.599,2.599   S83.311,26.059,84.744,26.059z M84.744,23.207c0.14,0,0.254,0.114,0.254,0.254s-0.114,0.254-0.254,0.254   c-0.14,0-0.254-0.114-0.254-0.254S84.604,23.207,84.744,23.207z"></path><path d="M75.645,34.078c1.433,0,2.599-1.166,2.599-2.599c0-1.433-1.166-2.599-2.599-2.599c-1.433,0-2.599,1.166-2.599,2.599   C73.045,32.912,74.211,34.078,75.645,34.078z M75.645,31.225c0.14,0,0.253,0.114,0.253,0.254s-0.114,0.254-0.253,0.254   c-0.14,0-0.254-0.114-0.254-0.254S75.505,31.225,75.645,31.225z"></path><path d="M84.744,34.078c1.433,0,2.599-1.166,2.599-2.599c0-1.433-1.166-2.599-2.599-2.599s-2.599,1.166-2.599,2.599   C82.145,32.912,83.311,34.078,84.744,34.078z M84.744,31.225c0.14,0,0.254,0.114,0.254,0.254s-0.114,0.254-0.254,0.254   c-0.14,0-0.254-0.114-0.254-0.254S84.604,31.225,84.744,31.225z"></path><path d="M76.713,68.752h2.116v17.331c0,0.788,0.639,1.426,1.426,1.426c0.788,0,1.426-0.639,1.426-1.426V68.752h2.116   c0.788,0,1.426-0.639,1.426-1.426v-4.755c0-0.788-0.639-1.426-1.426-1.426h-2.116v-6.339c0-0.788-0.639-1.426-1.426-1.426   c-0.788,0-1.426,0.639-1.426,1.426v6.339h-2.116c-0.788,0-1.426,0.639-1.426,1.426v4.755   C75.287,68.113,75.925,68.752,76.713,68.752z M78.139,63.997h4.232v1.902h-4.232V63.997z"></path></g></svg>