<svg height='300px' width='300px'  fill="#000000" xmlns="http://www.w3.org/2000/svg" xmlns:xlink="http://www.w3.org/1999/xlink" version="1.1" x="0px" y="0px" viewBox="0 0 100 100" style="enable-background:new 0 0 100 100;" xml:space="preserve"><g><path d="M85.756,59.231h-2.472v-9.474c0-0.718-0.582-1.3-1.3-1.3s-1.3,0.582-1.3,1.3v9.474h-2.472   c-1.765,0-3.201,1.436-3.201,3.201v2.399c0,1.765,1.436,3.201,3.201,3.201h2.472v14.908c0,0.718,0.582,1.3,1.3,1.3   s1.3-0.582,1.3-1.3V68.033h2.472c1.765,0,3.201-1.436,3.201-3.201v-2.399C88.958,60.667,87.521,59.231,85.756,59.231z    M85.958,64.832c0,0.111-0.09,0.201-0.201,0.201h-7.543c-0.111,0-0.201-0.09-0.201-0.201v-2.399c0-0.111,0.09-0.201,0.201-0.201   h7.543c0.111,0,0.201,0.09,0.201,0.201V64.832z"></path><path d="M81.985,43.231c0.109,0,0.217-0.003,0.324-0.01c0.717-0.043,1.263-0.659,1.22-1.375c-0.043-0.716-0.643-1.255-1.375-1.22   c-1.538,0.089-2.869-1.149-2.869-2.694c0-1.489,1.211-2.7,2.7-2.7s2.7,1.211,2.7,2.7c0,0.467-0.121,0.928-0.351,1.332   c-0.354,0.625-0.135,1.418,0.489,1.772c0.623,0.354,1.417,0.135,1.772-0.489c0.451-0.794,0.688-1.698,0.688-2.615   c0-2.922-2.377-5.3-5.3-5.3s-5.3,2.377-5.3,5.3S79.063,43.231,81.985,43.231z"></path><path d="M81.985,29.425c2.922,0,5.3-2.377,5.3-5.3s-2.377-5.3-5.3-5.3c-0.927,0-1.84,0.243-2.64,0.703   c-0.622,0.358-0.836,1.153-0.479,1.775c0.358,0.622,1.153,0.833,1.775,0.479c0.406-0.234,0.87-0.357,1.343-0.357   c1.489,0,2.7,1.211,2.7,2.7s-1.211,2.7-2.7,2.7s-2.7-1.211-2.7-2.7c0-0.08,0.004-0.16,0.011-0.238   c0.063-0.715-0.465-1.346-1.181-1.409c-0.719-0.058-1.346,0.466-1.409,1.181c-0.014,0.154-0.021,0.31-0.021,0.467   C76.685,27.047,79.063,29.425,81.985,29.425z"></path><path d="M86.584,6.911H13.416C8.775,6.911,5,10.687,5,15.327v69.346c0,4.641,3.775,8.416,8.416,8.416h73.168   c4.641,0,8.416-3.775,8.416-8.416V15.327C95,10.687,91.225,6.911,86.584,6.911z M91,84.673c0,2.435-1.981,4.416-4.416,4.416H13.416   C10.981,89.089,9,87.108,9,84.673V15.327c0-2.435,1.981-4.416,4.416-4.416h73.168c2.435,0,4.416,1.981,4.416,4.416V84.673z"></path><path d="M26.217,43.579H16.015c-0.829,0-1.5,0.671-1.5,1.5v9.356c0,0.829,0.671,1.5,1.5,1.5h10.202c0.829,0,1.5-0.671,1.5-1.5   v-9.356C27.717,44.25,27.046,43.579,26.217,43.579z M24.717,52.935h-7.202v-6.356h7.202V52.935z"></path><path d="M41.316,43.579H31.114c-0.829,0-1.5,0.671-1.5,1.5v9.356c0,0.829,0.671,1.5,1.5,1.5h10.202c0.829,0,1.5-0.671,1.5-1.5   v-9.356C42.816,44.25,42.145,43.579,41.316,43.579z M39.816,52.935h-7.202v-6.356h7.202V52.935z"></path><path d="M56.416,43.579H46.213c-0.829,0-1.5,0.671-1.5,1.5v9.356c0,0.829,0.671,1.5,1.5,1.5h10.203c0.829,0,1.5-0.671,1.5-1.5   v-9.356C57.916,44.25,57.245,43.579,56.416,43.579z M54.916,52.935h-7.203v-6.356h7.203V52.935z"></path><path d="M71.515,43.579H61.313c-0.829,0-1.5,0.671-1.5,1.5v9.356c0,0.829,0.671,1.5,1.5,1.5h1.853c0.829,0,1.5-0.671,1.5-1.5   s-0.671-1.5-1.5-1.5h-0.353v-6.356h7.202v6.356H67c-0.829,0-1.5,0.671-1.5,1.5s0.671,1.5,1.5,1.5h4.515c0.829,0,1.5-0.671,1.5-1.5   v-9.356C73.015,44.25,72.344,43.579,71.515,43.579z"></path><path d="M26.217,57.832H16.015c-0.829,0-1.5,0.671-1.5,1.5v9.356c0,0.829,0.671,1.5,1.5,1.5h10.202c0.829,0,1.5-0.671,1.5-1.5   v-9.356C27.717,58.503,27.046,57.832,26.217,57.832z M24.717,67.188h-7.202v-6.356h7.202V67.188z"></path><path d="M41.316,57.832h-3.754c-0.829,0-1.5,0.671-1.5,1.5s0.671,1.5,1.5,1.5h2.254v6.356h-7.202v-6.356h0.969   c0.829,0,1.5-0.671,1.5-1.5s-0.671-1.5-1.5-1.5h-2.469c-0.829,0-1.5,0.671-1.5,1.5v9.356c0,0.829,0.671,1.5,1.5,1.5h10.202   c0.829,0,1.5-0.671,1.5-1.5v-9.356C42.816,58.503,42.145,57.832,41.316,57.832z"></path><path d="M56.416,57.832H46.213c-0.829,0-1.5,0.671-1.5,1.5v9.356c0,0.829,0.671,1.5,1.5,1.5h10.203c0.829,0,1.5-0.671,1.5-1.5   v-9.356C57.916,58.503,57.245,57.832,56.416,57.832z M54.916,67.188h-7.203v-6.356h7.203V67.188z"></path><path d="M71.515,57.832H61.313c-0.829,0-1.5,0.671-1.5,1.5v9.356c0,0.829,0.671,1.5,1.5,1.5h10.202c0.829,0,1.5-0.671,1.5-1.5   v-9.356C73.015,58.503,72.344,57.832,71.515,57.832z M70.015,67.188h-7.202v-6.356h7.202V67.188z"></path><path d="M26.217,72.085H16.015c-0.829,0-1.5,0.671-1.5,1.5v9.356c0,0.829,0.671,1.5,1.5,1.5h10.202c0.829,0,1.5-0.671,1.5-1.5   v-9.356C27.717,72.756,27.046,72.085,26.217,72.085z M24.717,81.441h-7.202v-6.356h7.202V81.441z"></path><path d="M41.316,72.085H31.114c-0.829,0-1.5,0.671-1.5,1.5v9.356c0,0.829,0.671,1.5,1.5,1.5h10.202c0.829,0,1.5-0.671,1.5-1.5   v-9.356C42.816,72.756,42.145,72.085,41.316,72.085z M39.816,81.441h-7.202v-6.356h7.202V81.441z"></path><path d="M56.416,72.085H46.213c-0.829,0-1.5,0.671-1.5,1.5v9.356c0,0.829,0.671,1.5,1.5,1.5h2.036c0.829,0,1.5-0.671,1.5-1.5   s-0.671-1.5-1.5-1.5h-0.536v-6.356h7.203v6.356h-2.75c-0.829,0-1.5,0.671-1.5,1.5s0.671,1.5,1.5,1.5h4.25   c0.829,0,1.5-0.671,1.5-1.5v-9.356C57.916,72.756,57.245,72.085,56.416,72.085z"></path><path d="M71.515,72.085H61.313c-0.829,0-1.5,0.671-1.5,1.5v9.356c0,0.829,0.671,1.5,1.5,1.5h10.202c0.829,0,1.5-0.671,1.5-1.5   v-9.356C73.015,72.756,72.344,72.085,71.515,72.085z M70.015,81.441h-7.202v-6.356h7.202V81.441z"></path><path d="M18.091,31.75h42.784c0.829,0,1.5-0.671,1.5-1.5s-0.671-1.5-1.5-1.5H18.091c-0.317,0-0.576-0.258-0.576-0.576v-8.099   c0-0.317,0.258-0.576,0.576-0.576h2.407c0.829,0,1.5-0.671,1.5-1.5s-0.671-1.5-1.5-1.5h-2.407c-1.972,0-3.576,1.604-3.576,3.576   v8.099C14.515,30.146,16.119,31.75,18.091,31.75z"></path><path d="M69.439,16.5H24.25c-0.829,0-1.5,0.671-1.5,1.5s0.671,1.5,1.5,1.5h45.189c0.317,0,0.576,0.258,0.576,0.576v8.099   c0,0.317-0.258,0.576-0.576,0.576h-4.437c-0.829,0-1.5,0.671-1.5,1.5s0.671,1.5,1.5,1.5h4.437c1.972,0,3.576-1.604,3.576-3.576   v-8.099C73.015,18.104,71.411,16.5,69.439,16.5z"></path><circle cx="21.116" cy="37.931" r="3.625"></circle><circle cx="36.215" cy="37.931" r="3.625"></circle><circle cx="51.315" cy="37.931" r="3.625"></circle><circle cx="66.414" cy="37.931" r="3.625"></circle></g></svg>