<svg height='300px' width='300px'  fill="#000000" xmlns="http://www.w3.org/2000/svg" xmlns:xlink="http://www.w3.org/1999/xlink" version="1.1" x="0px" y="0px" viewBox="0 0 100 100" enable-background="new 0 0 100 100" xml:space="preserve"><path d="M96.055,67.515c0,5.753-4.663,10.416-10.414,10.416H14.362c-5.754,0-10.417-4.663-10.417-10.416V32.482  c0-5.75,4.663-10.414,10.417-10.414h71.278c5.751,0,10.414,4.664,10.414,10.414V67.515z M30.699,59.703h-3.878V41.09  c0-0.606-0.427-1.099-0.954-1.099c-0.527,0-0.955,0.492-0.955,1.099v18.613h-3.881v2.309h3.881v7.888  c0,0.606,0.427,1.099,0.955,1.099c0.527,0,0.954-0.492,0.954-1.099v-7.888h3.878V59.703z M42.704,51.219h-3.878V41.09  c0-0.606-0.428-1.099-0.955-1.099s-0.955,0.492-0.955,1.099v10.129h-3.881v2.308h3.881v16.373c0,0.606,0.428,1.099,0.955,1.099  s0.955-0.492,0.955-1.099V53.526h3.878V51.219z M54.834,64.794h-3.878V41.09c0-0.606-0.428-1.099-0.955-1.099  s-0.955,0.492-0.955,1.099v23.704h-3.881v2.309h3.881v2.797c0,0.606,0.428,1.099,0.955,1.099s0.955-0.492,0.955-1.099v-2.797h3.878  V64.794z M66.716,46.128h-3.878V41.09c0-0.606-0.428-1.099-0.954-1.099c-0.527,0-0.955,0.492-0.955,1.099v5.038h-3.881v2.308h3.881  v21.464c0,0.606,0.428,1.099,0.955,1.099c0.526,0,0.954-0.492,0.954-1.099V48.436h3.878V46.128z M78.721,56.31h-3.878V41.09  c0-0.606-0.428-1.099-0.954-1.099c-0.527,0-0.955,0.492-0.955,1.099v15.22h-3.881v2.308h3.881v11.282  c0,0.606,0.428,1.099,0.955,1.099c0.526,0,0.954-0.492,0.954-1.099V58.617h3.878V56.31z M18.691,46.128h-3.878V41.09  c0-0.606-0.427-1.099-0.955-1.099c-0.527,0-0.955,0.492-0.955,1.099v5.038H9.023v2.308h3.881v21.464  c0,0.606,0.428,1.099,0.955,1.099c0.527,0,0.955-0.492,0.955-1.099V48.436h3.878V46.128z M86.934,28.999  c-1.757,0-3.182,1.425-3.182,3.182s1.425,3.182,3.182,3.182s3.182-1.425,3.182-3.182S88.69,28.999,86.934,28.999z M86.934,44.695  c-1.757,0-3.182,1.426-3.182,3.183c0,1.756,1.425,3.182,3.182,3.182s3.182-1.426,3.182-3.182  C90.115,46.121,88.69,44.695,86.934,44.695z M90.115,55.237c0-0.988-0.759-1.787-1.697-1.787h-2.969  c-0.938,0-1.697,0.799-1.697,1.787v13.975c0,0.987,0.759,1.786,1.697,1.786h2.969c0.938,0,1.697-0.799,1.697-1.786V55.237z   M87.198,68.893h2.228v-1.05h-2.228V68.893z M87.198,59.355h2.228v-1.048h-2.228V59.355z M87.198,60.946h2.228v-1.049h-2.228V60.946  z M87.198,62.535h2.228v-1.049h-2.228V62.535z M87.198,64.124h2.228v-1.049h-2.228V64.124z M87.198,67.303h2.228v-1.049h-2.228  V67.303z M87.198,65.714h2.228v-1.049h-2.228V65.714z M53.184,27.902c0-0.83-0.759-1.501-1.697-1.501h-2.97  c-0.938,0-1.697,0.671-1.697,1.501v7.227c0,0.83,0.759,1.501,1.697,1.501h2.97c0.938,0,1.697-0.671,1.697-1.501V27.902z   M47.509,35.229h2.227v-1.049h-2.227V35.229z M50.267,35.229h2.228v-1.049h-2.228V35.229z M47.509,33.641h2.227v-1.049h-2.227  V33.641z M47.509,32.051h2.227v-1.049h-2.227V32.051z M50.267,33.641h2.228v-1.049h-2.228V33.641z M65.062,27.902  c0-0.83-0.76-1.501-1.697-1.501h-2.97c-0.938,0-1.697,0.671-1.697,1.501v7.227c0,0.83,0.759,1.501,1.697,1.501h2.97  c0.938,0,1.697-0.671,1.697-1.501V27.902z M59.388,35.229h2.228v-1.049h-2.228V35.229z M62.146,35.229h2.228v-1.049h-2.228V35.229z   M59.388,33.641h2.228v-1.049h-2.228V33.641z M59.388,32.051h2.228v-1.049h-2.228V32.051z M62.146,30.462h2.228v-1.049h-2.228  V30.462z M59.388,30.462h2.228v-1.049h-2.228V30.462z M62.146,33.641h2.228v-1.049h-2.228V33.641z M62.146,32.051h2.228v-1.049  h-2.228V32.051z M77.07,27.902c0-0.83-0.76-1.501-1.697-1.501h-2.97c-0.938,0-1.697,0.671-1.697,1.501v7.227  c0,0.83,0.76,1.501,1.697,1.501h2.97c0.938,0,1.697-0.671,1.697-1.501V27.902z M71.396,35.229h2.228v-1.049h-2.228V35.229z   M74.153,35.229h2.228v-1.049h-2.228V35.229z M71.396,33.641h2.228v-1.049h-2.228V33.641z M71.396,32.051h2.228v-1.049h-2.228  V32.051z M74.153,30.462h2.228v-1.049h-2.228V30.462z M74.153,33.641h2.228v-1.049h-2.228V33.641z M74.153,32.051h2.228v-1.049  h-2.228V32.051z M41.053,27.902c0-0.83-0.759-1.501-1.697-1.501h-2.97c-0.938,0-1.697,0.671-1.697,1.501v7.227  c0,0.83,0.759,1.501,1.697,1.501h2.97c0.938,0,1.697-0.671,1.697-1.501V27.902z M35.379,35.229h2.227v-1.049h-2.227V35.229z   M38.136,35.229h2.227v-1.049h-2.227V35.229z M35.379,33.641h2.227v-1.049h-2.227V33.641z M35.379,32.051h2.227v-1.049h-2.227  V32.051z M38.136,30.462h2.227v-1.049h-2.227V30.462z M35.379,30.462h2.227v-1.049h-2.227V30.462z M38.136,33.641h2.227v-1.049  h-2.227V33.641z M38.136,32.051h2.227v-1.049h-2.227V32.051z M38.136,28.873h2.227v-1.049h-2.227V28.873z M59.388,28.873h2.228  v-1.049h-2.228V28.873z M29.045,27.902c0-0.83-0.759-1.501-1.697-1.501h-2.97c-0.938,0-1.697,0.671-1.697,1.501v7.227  c0,0.83,0.759,1.501,1.697,1.501h2.97c0.938,0,1.697-0.671,1.697-1.501V27.902z M23.371,35.229h2.228v-1.049h-2.228V35.229z   M26.128,35.229h2.227v-1.049h-2.227V35.229z M23.371,33.641h2.228v-1.049h-2.228V33.641z M26.128,33.641h2.227v-1.049h-2.227  V33.641z M26.128,32.051h2.227v-1.049h-2.227V32.051z M17.041,27.902c0-0.83-0.759-1.501-1.697-1.501h-2.97  c-0.938,0-1.697,0.671-1.697,1.501v7.227c0,0.83,0.759,1.501,1.697,1.501h2.97c0.938,0,1.697-0.671,1.697-1.501V27.902z   M11.366,35.229h2.227v-1.049h-2.227V35.229z M14.124,35.229h2.228v-1.049h-2.228V35.229z M11.366,33.641h2.227v-1.049h-2.227  V33.641z M11.366,32.051h2.227v-1.049h-2.227V32.051z M11.366,30.462h2.227v-1.049h-2.227V30.462z M14.124,33.641h2.228v-1.049  h-2.228V33.641z M14.124,32.051h2.228v-1.049h-2.228V32.051z M85.495,55.556v2.678h-1.272v3.926h1.272v6.731h0.954V55.556H85.495z   M86.934,37.838c-1.213,0-2.194,0.981-2.194,2.191s0.981,2.19,2.194,2.19c1.21,0,2.19-0.98,2.19-2.19S88.144,37.838,86.934,37.838z"></path></svg>