<svg height='300px' width='300px'  fill="#000000" xmlns:x="http://ns.adobe.com/Extensibility/1.0/" xmlns:i="http://ns.adobe.com/AdobeIllustrator/10.0/" xmlns:graph="http://ns.adobe.com/Graphs/1.0/" xmlns="http://www.w3.org/2000/svg" xmlns:xlink="http://www.w3.org/1999/xlink" version="1.1" x="0px" y="0px" viewBox="0 0 64 64" enable-background="new 0 0 64 64" xml:space="preserve"><metadata><sfw xmlns="http://ns.adobe.com/SaveForWeb/1.0/"><slices></slices><sliceSourceBounds y="-8160" x="-8165" width="16389" height="16384" bottomLeftOrigin="true"></sliceSourceBounds></sfw></metadata><g><g><path d="M58,9H6c-0.552,0-1,0.448-1,1v44c0,0.553,0.448,1,1,1h52c0.553,0,1-0.447,1-1V10C59,9.448,58.553,9,58,9z M57,53H7V11h50    V53z"></path><path d="M10,21h44c0.553,0,1-0.448,1-1v-4c0-0.552-0.447-1-1-1H10c-0.552,0-1,0.448-1,1v4C9,20.552,9.448,21,10,21z M11,17h42v2    H11V17z"></path><path d="M18,37h-1v-3c0-0.553-0.448-1-1-1s-1,0.447-1,1v3h-1c-0.552,0-1,0.447-1,1s0.448,1,1,1h1v9c0,0.553,0.448,1,1,1    s1-0.447,1-1v-9h1c0.552,0,1-0.447,1-1S18.552,37,18,37z"></path><path d="M26,43h-1v-9c0-0.553-0.448-1-1-1s-1,0.447-1,1v9h-1c-0.552,0-1,0.447-1,1s0.448,1,1,1h1v3c0,0.553,0.448,1,1,1    s1-0.447,1-1v-3h1c0.552,0,1-0.447,1-1S26.552,43,26,43z"></path><path d="M34,39h-1v-5c0-0.553-0.448-1-1-1s-1,0.447-1,1v5h-1c-0.552,0-1,0.447-1,1s0.448,1,1,1h1v7c0,0.553,0.448,1,1,1    s1-0.447,1-1v-7h1c0.553,0,1-0.447,1-1S34.553,39,34,39z"></path><path d="M42,43h-1v-9c0-0.553-0.447-1-1-1s-1,0.447-1,1v9h-1c-0.553,0-1,0.447-1,1s0.447,1,1,1h1v3c0,0.553,0.447,1,1,1    s1-0.447,1-1v-3h1c0.553,0,1-0.447,1-1S42.553,43,42,43z"></path><path d="M50,39h-1v-5c0-0.553-0.447-1-1-1s-1,0.447-1,1v5h-1c-0.553,0-1,0.447-1,1s0.447,1,1,1h1v7c0,0.553,0.447,1,1,1    s1-0.447,1-1v-7h1c0.553,0,1-0.447,1-1S50.553,39,50,39z"></path><path d="M16,25c-1.654,0-3,1.346-3,3s1.346,3,3,3s3-1.346,3-3S17.654,25,16,25z M16,29c-0.551,0-1-0.449-1-1s0.449-1,1-1    s1,0.449,1,1S16.551,29,16,29z"></path><path d="M24,25c-1.654,0-3,1.346-3,3s1.346,3,3,3s3-1.346,3-3S25.654,25,24,25z M24,29c-0.551,0-1-0.449-1-1s0.449-1,1-1    s1,0.449,1,1S24.551,29,24,29z"></path><path d="M32,25c-1.654,0-3,1.346-3,3s1.346,3,3,3s3-1.346,3-3S33.654,25,32,25z M32,29c-0.551,0-1-0.449-1-1s0.449-1,1-1    s1,0.449,1,1S32.551,29,32,29z"></path><path d="M40,25c-1.654,0-3,1.346-3,3s1.346,3,3,3s3-1.346,3-3S41.654,25,40,25z M40,29c-0.552,0-1-0.449-1-1s0.448-1,1-1    s1,0.449,1,1S40.552,29,40,29z"></path><path d="M48,25c-1.654,0-3,1.346-3,3s1.346,3,3,3s3-1.346,3-3S49.654,25,48,25z M48,29c-0.552,0-1-0.449-1-1s0.448-1,1-1    s1,0.449,1,1S48.552,29,48,29z"></path></g></g></svg>