<svg height='300px' width='300px'  fill="#000000" xmlns="http://www.w3.org/2000/svg" xmlns:xlink="http://www.w3.org/1999/xlink" version="1.1" x="0px" y="0px" viewBox="0 0 100 100" enable-background="new 0 0 100 100" xml:space="preserve"><g><path d="M92.05,27.91H7.95c-1.601,0-2.9,1.299-2.9,2.9v13.232v2V56.91h89.9v-26.1C94.95,29.209,93.651,27.91,92.05,27.91z    M6.79,30.81c0-0.64,0.52-1.16,1.16-1.16h84.1c0.64,0,1.16,0.52,1.16,1.16v13.232H6.79V30.81z M12.06,50v-3.958h1.051V50h1.02v5.17   H11.04V50H12.06z M15.109,50h1.02v-3.958H18.2v9.128h-3.091V50z M19.178,46.042h2.071V50h1.02v5.17h-3.091V46.042z M23.248,50h1.02   v-3.958h1.051V50h1.02v5.17h-3.091V50z M27.317,50h1.02v-3.958h1.051V50h1.02v5.17h-3.091V50z M31.386,50h1.02v-3.958h2.071v9.128   h-3.091V50z M35.455,46.042h2.055V50h1.036v5.17h-3.091V46.042z M39.524,50h1.004v-3.958h1.051V50h1.036v5.17h-3.091V50z    M43.594,50h1.004v-3.958h2.087v9.128h-3.091V50z M47.663,46.042h2.071V50h1.02v5.17h-3.091V46.042z M51.732,50h1.02v-3.958h1.051   V50h1.02v5.17h-3.091V50z M55.801,50h1.02v-3.958h1.051V50h1.02v5.17h-3.091V50z M59.87,50h1.02v-3.958h2.071v9.128H59.87V50z    M63.94,46.042h2.105V50h0.987v5.17H63.94V46.042z M68.009,50h1.054v-3.958h1.051V50H71.1v5.17h-3.091V50z M72.078,50h1.054v-3.958   h2.037v9.128h-3.091V50z M76.147,46.042h2.071V50h1.02v5.17h-3.091V46.042z M80.217,50h1.02v-3.958h1.051V50h1.02v5.17h-3.091V50z    M84.286,50h1.02v-3.958h1.051V50h1.02v5.17h-3.091V50z M6.79,46.042h2.252V50h1.02v5.17H6.79V46.042z M88.355,55.17V50h1.02   v-3.958h3.835v9.128H88.355z"></path><path d="M65,41.073h14.021v-8.042H65V41.073z M67,35.031h10.021v4.042H67V35.031z"></path><path d="M85.032,33.031c-2.221,0-4.021,1.8-4.021,4.021s1.8,4.021,4.021,4.021s4.021-1.8,4.021-4.021S87.253,33.031,85.032,33.031z    M85.032,38.552c-0.827,0-1.5-0.673-1.5-1.5s0.673-1.5,1.5-1.5s1.5,0.673,1.5,1.5S85.859,38.552,85.032,38.552z"></path><rect x="9.961" y="35.985" width="2.099" height="4.105"></rect><rect x="14.01" y="35.985" width="2.021" height="4.105"></rect><rect x="18.039" y="35.985" width="1.94" height="4.015"></rect></g></svg>