<svg height='300px' width='300px'  fill="#000000" xmlns="http://www.w3.org/2000/svg" xmlns:xlink="http://www.w3.org/1999/xlink" version="1.1" x="0px" y="0px" viewBox="0 0 100 100" enable-background="new 0 0 100 100" xml:space="preserve"><g><circle fill="#000000" cx="22.717" cy="36.207" r="2.583"></circle><path fill="#000000" d="M85.819,24.034l-71.645,0.089C11.867,24.127,10,25.998,10,28.304v43.48c0,2.309,1.872,4.181,4.181,4.181   h71.637c2.309,0,4.181-1.872,4.181-4.181V28.215C90,25.906,88.128,24.034,85.819,24.034z M81.5,33.701   c1.427,0,2.583,1.157,2.583,2.583c0,1.427-1.157,2.583-2.583,2.583s-2.583-1.157-2.583-2.583   C78.917,34.857,80.073,33.701,81.5,33.701z M22.476,70.76h-7.271V50.012h5.193v10.413c0,0.552,0.448,1,1,1h1.077V70.76z    M17.717,36.207c0-2.761,2.239-5,5-5c2.761,0,5,2.239,5,5c0,2.761-2.239,5-5,5C19.955,41.207,17.717,38.969,17.717,36.207z    M32.862,70.76h-7.27v-9.335h1.077c0.552,0,1-0.448,1-1V50.012h3.116v10.413c0,0.552,0.448,1,1,1h1.077V70.76z M43.249,70.76h-7.27   v-9.335h1.077c0.552,0,1-0.448,1-1V50.012h5.193V70.76z M53.635,70.76h-7.27V50.012h5.193v10.413c0,0.552,0.448,1,1,1h1.077V70.76z    M64.022,70.76h-7.27v-9.335h1.077c0.552,0,1-0.448,1-1V50.012h3.116v10.413c0,0.552,0.448,1,1,1h1.077V70.76z M64.359,40.437   c0,0.566-0.459,1.026-1.026,1.026H36.666c-0.566,0-1.026-0.459-1.026-1.026v-8.205c0-0.566,0.459-1.026,1.026-1.026h26.667   c0.566,0,1.026,0.459,1.026,1.026V40.437z M74.408,70.76h-7.271v-9.335h1.077c0.552,0,1-0.448,1-1V50.012h3.116v10.413   c0,0.552,0.448,1,1,1h1.077V70.76z M72.667,38.867c-1.427,0-2.583-1.157-2.583-2.583c0-1.427,1.157-2.583,2.583-2.583   c1.427,0,2.583,1.157,2.583,2.583C75.25,37.711,74.093,38.867,72.667,38.867z M84.794,70.76h-7.271v-9.335h1.077   c0.552,0,1-0.448,1-1V50.012h5.193V70.76z"></path></g></svg>