<svg height='300px' width='300px'  fill="#000000" xmlns="http://www.w3.org/2000/svg" xmlns:xlink="http://www.w3.org/1999/xlink" version="1.1" x="0px" y="0px" viewBox="0 0 382 497.3" style="enable-background:new 0 0 382 497.3;" xml:space="preserve"><g><path d="M349.3,0H32.7C14.7-0.1,0,14.6,0,32.6v432c0,18,14.7,32.7,32.7,32.7h316.6c18,0,32.7-14.7,32.7-32.7V32.7   C382,14.7,367.3,0,349.3,0z M362,464.6c0,6.9-5.8,12.7-12.7,12.7H32.7c-6.9,0-12.7-5.8-12.7-12.7v-432h0c0-6.9,5.8-12.7,12.7-12.7   h316.6c6.9,0,12.7,5.8,12.7,12.7V464.6z"></path><path d="M274,423.4h-72.9v-9.2c0-5.5-4.5-10-10-10s-10,4.5-10,10v9.2H108c-5.5,0-10,4.5-10,10s4.5,10,10,10h73.1v8.7   c0,5.5,4.5,10,10,10s10-4.5,10-10v-8.7H274c5.5,0,10-4.5,10-10S279.5,423.4,274,423.4z"></path><path d="M318.4,49.1H64.3c-7.9,0-14.4,6.4-14.4,14.4v97.2c0,7.9,6.4,14.4,14.4,14.4h254.1c7.9,0,14.4-6.4,14.4-14.4V63.5   C332.8,55.6,326.3,49.1,318.4,49.1z M312.8,155.1H69.9V69.1h242.8V155.1z"></path><path d="M322.6,222.1h-9.1v-7.2c0-5.5-4.5-10-10-10s-10,4.5-10,10v7.2h-8.9c-5.5,0-10,4.5-10,10s4.5,10,10,10h8.9v138.8   c0,5.5,4.5,10,10,10s10-4.5,10-10V242.1h9.1c5.5,0,10-4.5,10-10S328.1,222.1,322.6,222.1z"></path><circle cx="170.3" cy="256.1" r="11.1"></circle><circle cx="170.3" cy="299.1" r="11.1"></circle><circle cx="170.3" cy="342.1" r="11.1"></circle><circle cx="212.6" cy="256.1" r="11.1"></circle><circle cx="212.6" cy="299.1" r="11.1"></circle><circle cx="212.6" cy="342.1" r="11.1"></circle><path d="M108.2,365.9c0-5.5-4.5-10-10-10h-8.8V216.4c0-5.5-4.5-10-10-10s-10,4.5-10,10v139.5h-9.1c-5.5,0-10,4.5-10,10   s4.5,10,10,10h9.1v6.5c0,5.5,4.5,10,10,10s10-4.5,10-10v-6.5h8.8C103.7,375.9,108.2,371.4,108.2,365.9z"></path></g></svg>