<svg height='300px' width='300px'  fill="#000000" xmlns="http://www.w3.org/2000/svg" data-name="Layer 2" viewBox="0 0 88.64 49.68" x="0px" y="0px"><defs><style>.cls-1{fill:none;}</style></defs><title>Keyboard</title><rect class="cls-1" x="83.08" y="39.23" width="2.44" height="2.44" transform="translate(-9.59 46.3) rotate(-45)"></rect><path class="cls-1" d="M84.3,42.52L83,43.81a5.32,5.32,0,0,0,2.1-.49Z" transform="translate(-5.68 -25.16)"></path><polygon class="cls-1" points="78.45 17.19 76.72 15.46 75 17.19 76.47 18.66 76.97 18.66 78.45 17.19"></polygon><path class="cls-1" d="M83.29,32.14l-0.72.72,1.73,1.73L85.86,33A5.32,5.32,0,0,0,83.29,32.14Z" transform="translate(-5.68 -25.16)"></path><polygon class="cls-1" points="73.84 6.96 73.1 7.7 74.83 9.42 76.55 7.7 75.81 6.96 73.84 6.96"></polygon><rect class="cls-1" x="83.08" y="35.43" width="2.44" height="2.44" transform="translate(-6.9 45.18) rotate(-45)"></rect><polygon class="cls-1" points="74.83 17.36 73.52 18.66 76.13 18.66 74.83 17.36"></polygon><polygon class="cls-1" points="71.03 17.36 69.73 18.66 72.33 18.66 71.03 17.36"></polygon><polygon class="cls-1" points="70.86 17.19 69.13 15.46 67.41 17.19 68.88 18.66 69.38 18.66 70.86 17.19"></polygon><polygon class="cls-1" points="74.65 17.19 72.93 15.46 71.2 17.19 72.67 18.66 73.18 18.66 74.65 17.19"></polygon><polygon class="cls-1" points="65.51 7.7 67.23 9.42 68.96 7.7 68.22 6.96 66.25 6.96 65.51 7.7"></polygon><path class="cls-1" d="M67.71,33.17l1.41,1.41,1.73-1.73-0.68-.68A5.32,5.32,0,0,0,67.71,33.17Z" transform="translate(-5.68 -25.16)"></path><path class="cls-1" d="M65.53,38.51s0,0.05,0,.08l1.69,1.69,1.73-1.73-1.73-1.73Z" transform="translate(-5.68 -25.16)"></path><rect class="cls-1" x="67.89" y="35.43" width="2.44" height="2.44" transform="translate(-11.35 34.45) rotate(-45)"></rect><path class="cls-1" d="M67,40.45L65.55,39a5.31,5.31,0,0,0,.74,2.25Z" transform="translate(-5.68 -25.16)"></path><polygon class="cls-1" points="67.23 17.36 65.93 18.66 68.54 18.66 67.23 17.36"></polygon><polygon class="cls-1" points="69.13 7.52 69.7 6.96 68.56 6.96 69.13 7.52"></polygon><polygon class="cls-1" points="69.3 7.7 71.03 9.42 72.75 7.7 72.02 6.96 70.04 6.96 69.3 7.7"></polygon><rect class="cls-1" x="69.79" y="33.53" width="2.44" height="2.44" transform="translate(-9.45 35.23) rotate(-45)"></rect><polygon class="cls-1" points="72.93 7.52 73.49 6.96 72.36 6.96 72.93 7.52"></polygon><rect class="cls-1" x="79.28" y="39.23" width="2.44" height="2.44" transform="translate(-10.7 43.61) rotate(-45)"></rect><rect class="cls-1" x="75.49" y="39.23" width="2.44" height="2.44" transform="translate(-11.81 40.93) rotate(-45)"></rect><rect class="cls-1" x="77.38" y="37.33" width="2.44" height="2.44" transform="translate(-9.91 41.71) rotate(-45)"></rect><rect class="cls-1" x="71.69" y="39.23" width="2.44" height="2.44" transform="translate(-12.92 38.24) rotate(-45)"></rect><rect class="cls-1" x="84.98" y="37.33" width="2.44" height="2.44" transform="translate(-7.69 47.08) rotate(-45)"></rect><rect class="cls-1" x="73.59" y="37.33" width="2.44" height="2.44" transform="translate(-11.03 39.03) rotate(-45)"></rect><path class="cls-1" d="M68.94,42.35l-1.73-1.73-0.8.8a5.39,5.39,0,0,0,1.78,1.67Z" transform="translate(-5.68 -25.16)"></path><path class="cls-1" d="M71.26,43.82l1.47-1.47L71,40.62l-1.73,1.73,1.47,1.47h0.51Z" transform="translate(-5.68 -25.16)"></path><path class="cls-1" d="M88.21,38.84l-0.12-.12-1.73,1.73,1,1A5.32,5.32,0,0,0,88.21,38.84Z" transform="translate(-5.68 -25.16)"></path><rect class="cls-1" x="81.18" y="37.33" width="2.44" height="2.44" transform="translate(-8.8 44.4) rotate(-45)"></rect><rect class="cls-1" x="69.79" y="37.33" width="2.44" height="2.44" transform="translate(-12.14 36.34) rotate(-45)"></rect><rect class="cls-1" x="71.69" y="35.43" width="2.44" height="2.44" transform="translate(-10.24 37.13) rotate(-45)"></rect><rect class="cls-1" x="79.28" y="35.43" width="2.44" height="2.44" transform="translate(-8.02 42.5) rotate(-45)"></rect><path class="cls-1" d="M70.39,43.8l-1.28-1.28-0.7.7A5.31,5.31,0,0,0,70.39,43.8Z" transform="translate(-5.68 -25.16)"></path><rect class="cls-1" x="67.89" y="39.23" width="2.44" height="2.44" transform="translate(-14.04 35.56) rotate(-45)"></rect><path class="cls-1" d="M86.2,40.62l-1.73,1.73,0.87,0.87a5.39,5.39,0,0,0,1.86-1.6Z" transform="translate(-5.68 -25.16)"></path><rect class="cls-1" x="77.38" y="33.53" width="2.44" height="2.44" transform="translate(-7.23 40.6) rotate(-45)"></rect><rect class="cls-1" x="73.59" y="33.53" width="2.44" height="2.44" transform="translate(-8.34 37.92) rotate(-45)"></rect><rect class="cls-1" x="75.49" y="35.43" width="2.44" height="2.44" transform="translate(-9.13 39.82) rotate(-45)"></rect><rect class="cls-1" x="81.18" y="33.53" width="2.44" height="2.44" transform="translate(-6.12 43.29) rotate(-45)"></rect><path class="cls-1" d="M13.71,65H12.9a1,1,0,0,1-1-1V51a1,1,0,0,1,.15-0.49H6.65v19A4.39,4.39,0,0,0,11,73.87h2.68V65Z" transform="translate(-5.68 -25.16)"></path><rect class="cls-1" x="12.65" y="6.96" width="4.88" height="4.88" rx="1.46" ry="1.46"></rect><path class="cls-1" d="M88,50.49a1,1,0,0,1,.15.49V64a1,1,0,0,1-1,1H86.61v8.86H89a4.39,4.39,0,0,0,4.38-4.38v-19H88Z" transform="translate(-5.68 -25.16)"></path><rect class="cls-1" x="12.65" y="14.55" width="4.88" height="4.88" rx="1.46" ry="1.46"></rect><rect class="cls-1" x="21.33" y="6.96" width="4.88" height="4.88" rx="1.46" ry="1.46"></rect><path class="cls-1" d="M75.36,65H74.52a1,1,0,0,1-1-1V51a1,1,0,0,1,.15-0.49H67.51a1,1,0,0,1,.15.49V64a1,1,0,0,1-1,1H66.06v8.86h9.3V65Z" transform="translate(-5.68 -25.16)"></path><rect class="cls-1" x="21.33" y="14.55" width="4.88" height="4.88" rx="1.46" ry="1.46"></rect><path class="cls-1" d="M86.37,36.65l1.73,1.73,0.14-.14V37.48a5.32,5.32,0,0,0-.48-2.21Z" transform="translate(-5.68 -25.16)"></path><rect class="cls-1" x="4.63" y="14.55" width="4.88" height="4.88" rx="1.46" ry="1.46"></rect><path class="cls-1" d="M84,50.49H77.78a1,1,0,0,1,.15.49V64a1,1,0,0,1-1,1H76.34v8.86h9.3V65H84.78a1,1,0,0,1-1-1V51A1,1,0,0,1,84,50.49Z" transform="translate(-5.68 -25.16)"></path><path class="cls-1" d="M24,73.87V65H23.17a1,1,0,0,1-1-1V51a1,1,0,0,1,.15-0.49H16.16a1,1,0,0,1,.15.49V64a1,1,0,0,1-1,1H14.69v8.86H24Z" transform="translate(-5.68 -25.16)"></path><path class="cls-1" d="M34.26,65H33.44a1,1,0,0,1-1-1V51a1,1,0,0,1,.15-0.49H26.43a1,1,0,0,1,.15.49V64a1,1,0,0,1-1,1H25v8.86h9.3V65Z" transform="translate(-5.68 -25.16)"></path><path class="cls-1" d="M44.54,65H43.71a1,1,0,0,1-1-1V51a1,1,0,0,1,.15-0.49H36.7a1,1,0,0,1,.15.49V64a1,1,0,0,1-1,1H35.24v8.86h9.3V65Z" transform="translate(-5.68 -25.16)"></path><path class="cls-1" d="M93.35,49.51v-19A4.39,4.39,0,0,0,89,26.13H11a4.39,4.39,0,0,0-4.38,4.38v19h86.7Zm-28.8-12a6.34,6.34,0,0,1,6.33-6.33h12a6.34,6.34,0,0,1,6.33,6.33v1a6.34,6.34,0,0,1-6.33,6.33h-12a6.34,6.34,0,0,1-6.33-6.33v-1Zm-7.81-1.94a1.46,1.46,0,0,1,1.46-1.46h0.55V32.76a0.49,0.49,0,1,1,1,0v1.31h0.55a1.46,1.46,0,0,1,1.46,1.46V36.3a1.46,1.46,0,0,1-1.46,1.46H59.72V45a0.49,0.49,0,0,1-1,0V37.76H58.2a1.46,1.46,0,0,1-1.46-1.46V35.53Zm-7.22,3.82A1.46,1.46,0,0,1,51,37.89h0.55V32.64a0.49,0.49,0,1,1,1,0v5.25H53a1.46,1.46,0,0,1,1.46,1.46v0.76A1.46,1.46,0,0,1,53,41.58H52.5V45a0.49,0.49,0,0,1-1,0V41.58H51a1.46,1.46,0,0,1-1.46-1.46V39.35Zm-5.9-5.21a1.46,1.46,0,0,1,1.46-1.46h2.18a1.46,1.46,0,0,1,1.46,1.46V35a1.46,1.46,0,0,1-1.46,1.46H46.59v8.64a0.49,0.49,0,1,1-1,0V36.44H45.07A1.46,1.46,0,0,1,43.61,35V34.14Zm-9.55-.56a2.44,2.44,0,0,1,2.44-2.44h2a2.44,2.44,0,0,1,2.44,2.44v2A2.44,2.44,0,0,1,38.45,38h-2a2.44,2.44,0,0,1-2.44-2.44v-2Zm0,7.59a2.44,2.44,0,0,1,2.44-2.44h2a2.44,2.44,0,0,1,2.44,2.44v2a2.44,2.44,0,0,1-2.44,2.44h-2a2.44,2.44,0,0,1-2.44-2.44v-2Zm-8-7.59a2.44,2.44,0,0,1,2.44-2.44h2a2.44,2.44,0,0,1,2.44,2.44v2A2.44,2.44,0,0,1,30.43,38h-2A2.44,2.44,0,0,1,26,35.54v-2Zm0,7.59a2.44,2.44,0,0,1,2.44-2.44h2a2.44,2.44,0,0,1,2.44,2.44v2a2.44,2.44,0,0,1-2.44,2.44h-2A2.44,2.44,0,0,1,26,43.13v-2Zm-8.68-7.59a2.44,2.44,0,0,1,2.44-2.44h2a2.44,2.44,0,0,1,2.44,2.44v2A2.44,2.44,0,0,1,21.75,38h-2a2.44,2.44,0,0,1-2.44-2.44v-2Zm0,7.59a2.44,2.44,0,0,1,2.44-2.44h2a2.44,2.44,0,0,1,2.44,2.44v2a2.44,2.44,0,0,1-2.44,2.44h-2a2.44,2.44,0,0,1-2.44-2.44v-2Zm-8-7.59a2.44,2.44,0,0,1,2.44-2.44h2a2.44,2.44,0,0,1,2.44,2.44v2A2.44,2.44,0,0,1,13.72,38h-2a2.44,2.44,0,0,1-2.44-2.44v-2Zm0,7.59a2.44,2.44,0,0,1,2.44-2.44h2a2.44,2.44,0,0,1,2.44,2.44v2a2.44,2.44,0,0,1-2.44,2.44h-2a2.44,2.44,0,0,1-2.44-2.44v-2Z" transform="translate(-5.68 -25.16)"></path><rect class="cls-1" x="4.63" y="6.96" width="4.88" height="4.88" rx="1.46" ry="1.46"></rect><path class="cls-1" d="M65.09,65H64.25a1,1,0,0,1-1-1V51a1,1,0,0,1,.15-0.49H57.24a1,1,0,0,1,.15.49V64a1,1,0,0,1-1,1H55.79v8.86h9.3V65Z" transform="translate(-5.68 -25.16)"></path><path class="cls-1" d="M67,36.65L65.9,35.51a5.32,5.32,0,0,0-.38,2v0.7Z" transform="translate(-5.68 -25.16)"></path><path class="cls-1" d="M54.81,65H54a1,1,0,0,1-1-1V51a1,1,0,0,1,.15-0.49H47a1,1,0,0,1,.15.49V64a1,1,0,0,1-1,1H45.51v8.86h9.3V65Z" transform="translate(-5.68 -25.16)"></path><path class="cls-1" d="M67.22,36.48l1.73-1.73-1.43-1.43A5.38,5.38,0,0,0,66,35.27Z" transform="translate(-5.68 -25.16)"></path><rect class="cls-1" x="52.03" y="9.89" width="3.04" height="1.74" rx="0.49" ry="0.49"></rect><path class="cls-1" d="M84.47,34.75l1.73,1.73L87.64,35a5.39,5.39,0,0,0-1.59-1.86Z" transform="translate(-5.68 -25.16)"></path><rect class="cls-1" x="44.81" y="13.7" width="3.04" height="1.74" rx="0.49" ry="0.49"></rect><path class="cls-1" d="M82.4,32.68L83,32.12H81.84Z" transform="translate(-5.68 -25.16)"></path><rect class="cls-1" x="29.36" y="14.55" width="4.88" height="4.88" rx="1.46" ry="1.46"></rect><path class="cls-1" d="M71,32.68l0.57-.57h-0.7l-0.41,0Z" transform="translate(-5.68 -25.16)"></path><rect class="cls-1" x="38.91" y="8.49" width="3.16" height="1.82" rx="0.49" ry="0.49"></rect><rect class="cls-1" x="29.36" y="6.96" width="4.88" height="4.88" rx="1.46" ry="1.46"></rect><path d="M89,25.16H11a5.36,5.36,0,0,0-5.36,5.36v39A5.36,5.36,0,0,0,11,74.84H89a5.36,5.36,0,0,0,5.36-5.36v-39A5.36,5.36,0,0,0,89,25.16ZM11,26.13H89a4.39,4.39,0,0,1,4.38,4.38v19H6.65v-19A4.39,4.39,0,0,1,11,26.13ZM84.78,65h0.85v8.86h-9.3V65H77a1,1,0,0,0,1-1V51a1,1,0,0,0-.15-0.49H84a1,1,0,0,0-.15.49V64A1,1,0,0,0,84.78,65ZM15.34,65a1,1,0,0,0,1-1V51a1,1,0,0,0-.15-0.49h6.18a1,1,0,0,0-.15.49V64a1,1,0,0,0,1,1H24v8.86h-9.3V65h0.65ZM25,65h0.64a1,1,0,0,0,1-1V51a1,1,0,0,0-.15-0.49h6.18a1,1,0,0,0-.15.49V64a1,1,0,0,0,1,1h0.82v8.86H25V65Zm10.27,0h0.64a1,1,0,0,0,1-1V51a1,1,0,0,0-.15-0.49h6.18a1,1,0,0,0-.15.49V64a1,1,0,0,0,1,1h0.83v8.86h-9.3V65Zm10.27,0h0.63a1,1,0,0,0,1-1V51A1,1,0,0,0,47,50.49h6.18A1,1,0,0,0,53,51V64a1,1,0,0,0,1,1h0.83v8.86h-9.3V65Zm10.27,0h0.63a1,1,0,0,0,1-1V51a1,1,0,0,0-.15-0.49h6.18a1,1,0,0,0-.15.49V64a1,1,0,0,0,1,1h0.84v8.86h-9.3V65Zm10.27,0h0.62a1,1,0,0,0,1-1V51a1,1,0,0,0-.15-0.49h6.18a1,1,0,0,0-.15.49V64a1,1,0,0,0,1,1h0.85v8.86h-9.3V65ZM6.65,69.48v-19h5.43a1,1,0,0,0-.15.49V64a1,1,0,0,0,1,1h0.81v8.86H11A4.39,4.39,0,0,1,6.65,69.48ZM89,73.87H86.61V65h0.61a1,1,0,0,0,1-1V51A1,1,0,0,0,88,50.49h5.3v19A4.39,4.39,0,0,1,89,73.87Z" transform="translate(-5.68 -25.16)"></path><path d="M11.77,38h2a2.44,2.44,0,0,0,2.44-2.44v-2a2.44,2.44,0,0,0-2.44-2.44h-2a2.44,2.44,0,0,0-2.44,2.44v2A2.44,2.44,0,0,0,11.77,38Zm-1.46-4.39a1.46,1.46,0,0,1,1.46-1.46h2a1.46,1.46,0,0,1,1.46,1.46v2A1.46,1.46,0,0,1,13.72,37h-2a1.46,1.46,0,0,1-1.46-1.46v-2Z" transform="translate(-5.68 -25.16)"></path><path d="M19.79,38h2a2.44,2.44,0,0,0,2.44-2.44v-2a2.44,2.44,0,0,0-2.44-2.44h-2a2.44,2.44,0,0,0-2.44,2.44v2A2.44,2.44,0,0,0,19.79,38Zm-1.46-4.39a1.46,1.46,0,0,1,1.46-1.46h2a1.46,1.46,0,0,1,1.46,1.46v2A1.46,1.46,0,0,1,21.75,37h-2a1.46,1.46,0,0,1-1.46-1.46v-2Z" transform="translate(-5.68 -25.16)"></path><path d="M11.77,45.57h2a2.44,2.44,0,0,0,2.44-2.44v-2a2.44,2.44,0,0,0-2.44-2.44h-2a2.44,2.44,0,0,0-2.44,2.44v2A2.44,2.44,0,0,0,11.77,45.57Zm-1.46-4.39a1.46,1.46,0,0,1,1.46-1.46h2a1.46,1.46,0,0,1,1.46,1.46v2a1.46,1.46,0,0,1-1.46,1.46h-2a1.46,1.46,0,0,1-1.46-1.46v-2Z" transform="translate(-5.68 -25.16)"></path><path d="M19.79,45.57h2a2.44,2.44,0,0,0,2.44-2.44v-2a2.44,2.44,0,0,0-2.44-2.44h-2a2.44,2.44,0,0,0-2.44,2.44v2A2.44,2.44,0,0,0,19.79,45.57Zm-1.46-4.39a1.46,1.46,0,0,1,1.46-1.46h2a1.46,1.46,0,0,1,1.46,1.46v2a1.46,1.46,0,0,1-1.46,1.46h-2a1.46,1.46,0,0,1-1.46-1.46v-2Z" transform="translate(-5.68 -25.16)"></path><path d="M28.47,38h2a2.44,2.44,0,0,0,2.44-2.44v-2a2.44,2.44,0,0,0-2.44-2.44h-2A2.44,2.44,0,0,0,26,33.58v2A2.44,2.44,0,0,0,28.47,38ZM27,33.58a1.46,1.46,0,0,1,1.46-1.46h2a1.46,1.46,0,0,1,1.46,1.46v2A1.46,1.46,0,0,1,30.43,37h-2A1.46,1.46,0,0,1,27,35.54v-2Z" transform="translate(-5.68 -25.16)"></path><path d="M36.49,38h2a2.44,2.44,0,0,0,2.44-2.44v-2a2.44,2.44,0,0,0-2.44-2.44h-2a2.44,2.44,0,0,0-2.44,2.44v2A2.44,2.44,0,0,0,36.49,38ZM35,33.58a1.46,1.46,0,0,1,1.46-1.46h2a1.46,1.46,0,0,1,1.46,1.46v2A1.46,1.46,0,0,1,38.45,37h-2A1.46,1.46,0,0,1,35,35.54v-2Z" transform="translate(-5.68 -25.16)"></path><path d="M28.47,45.57h2a2.44,2.44,0,0,0,2.44-2.44v-2a2.44,2.44,0,0,0-2.44-2.44h-2A2.44,2.44,0,0,0,26,41.17v2A2.44,2.44,0,0,0,28.47,45.57ZM27,41.17a1.46,1.46,0,0,1,1.46-1.46h2a1.46,1.46,0,0,1,1.46,1.46v2a1.46,1.46,0,0,1-1.46,1.46h-2A1.46,1.46,0,0,1,27,43.13v-2Z" transform="translate(-5.68 -25.16)"></path><path d="M36.49,45.57h2a2.44,2.44,0,0,0,2.44-2.44v-2a2.44,2.44,0,0,0-2.44-2.44h-2a2.44,2.44,0,0,0-2.44,2.44v2A2.44,2.44,0,0,0,36.49,45.57ZM35,41.17a1.46,1.46,0,0,1,1.46-1.46h2a1.46,1.46,0,0,1,1.46,1.46v2a1.46,1.46,0,0,1-1.46,1.46h-2A1.46,1.46,0,0,1,35,43.13v-2Z" transform="translate(-5.68 -25.16)"></path><path d="M70.88,44.79h12a6.34,6.34,0,0,0,6.33-6.33v-1a6.34,6.34,0,0,0-6.33-6.33h-12a6.34,6.34,0,0,0-6.33,6.33v1A6.34,6.34,0,0,0,70.88,44.79Zm-4.46-3.38,0.8-.8,1.73,1.73-0.75.75A5.39,5.39,0,0,1,66.42,41.42ZM86.2,40.28l-1.73-1.73,1.73-1.73,1.73,1.73Zm1.9-1.55,0.12,0.12a5.32,5.32,0,0,1-.87,2.58l-1-1Zm-15-.17,1.73-1.73,1.73,1.73-1.73,1.73Zm1.55,1.9-1.73,1.73-1.73-1.73,1.73-1.73Zm2.07-1.73,1.73,1.73-1.73,1.73L75,40.45Zm0.17-.17,1.73-1.73,1.73,1.73-1.73,1.73Zm3.62,0.17,1.73,1.73L80.5,42.17l-1.73-1.73Zm0.17-.17,1.73-1.73,1.73,1.73L82.4,40.28Zm-0.17-.17-1.73-1.73,1.73-1.73,1.73,1.73Zm-1.9-1.9-1.73-1.73L78.61,33l1.73,1.73Zm-0.17.17-1.73,1.73L75,36.65l1.73-1.73Zm-3.62-.17-1.73-1.73L74.81,33l1.73,1.73Zm-0.17.17-1.73,1.73-1.73-1.73,1.73-1.73Zm-1.9,1.9L71,40.28l-1.73-1.73L71,36.82Zm-1.9,1.9-1.73,1.73-1.73-1.73,1.73-1.73ZM70.39,43.8a5.31,5.31,0,0,1-2-.58l0.7-.7Zm-1.1-1.45L71,40.62l1.73,1.73-1.47,1.47H70.75Zm3.62,0.17,1.3,1.3h-2.6Zm0.17-.17,1.73-1.73,1.73,1.73-1.47,1.47h-0.5Zm3.62,0.17,1.3,1.3h-2.6Zm0.17-.17,1.73-1.73,1.73,1.73-1.47,1.47h-0.5Zm3.62,0.17,1.3,1.3H79.2Zm0.17-.17,1.73-1.73,1.73,1.73-1.47,1.47h-0.5Zm3.62,0.17,0.81,0.81a5.32,5.32,0,0,1-2.1.49Zm-1.73-2.07,1.73-1.73L86,40.45,84.3,42.17Zm1.73-2.07-1.73-1.73,1.73-1.73L86,36.65Zm-1.73-5.52,0.72-.72a5.32,5.32,0,0,1,2.57.89L84.3,34.58Zm1.55,1.9L82.4,36.48l-1.73-1.73L82.4,33Zm-3.62-.17-1.73-1.73,0.74-.74h2l0.74,0.74Zm-1.9-1.9L78,32.12h1.13Zm-0.17.17-1.73,1.73L75,32.86l0.74-.74h2Zm-3.62-.17-0.57-.57h1.13Zm-0.17.17-1.73,1.73-1.73-1.73,0.74-.74h2Zm-1.9,1.9L71,36.48l-1.73-1.73L71,33Zm-3.62-.17-1.41-1.41a5.32,5.32,0,0,1,2.45-1l0.68,0.68Zm1.73,2.07-1.73,1.73-1.73-1.73,1.73-1.73Zm-1.9,1.9-1.73,1.73-1.69-1.69s0-.05,0-0.08l1.69-1.69ZM67,40.45l-0.76.76A5.31,5.31,0,0,1,65.55,39Zm18.3,2.77-0.87-.87,1.73-1.73,1,1A5.39,5.39,0,0,1,85.34,43.22Zm2.89-5-0.14.14-1.73-1.73,1.38-1.38a5.32,5.32,0,0,1,.48,2.21v0.76ZM87.64,35L86.2,36.48l-1.73-1.73,1.58-1.58A5.39,5.39,0,0,1,87.64,35ZM83,32.12l-0.56.56-0.57-.57H83Zm-11.38,0L71,32.68l-0.54-.54,0.41,0h0.7Zm-4.07,1.2,1.43,1.43-1.73,1.73L66,35.27A5.38,5.38,0,0,1,67.51,33.32Zm-1.6,2.19L67,36.65l-1.52,1.52v-0.7A5.32,5.32,0,0,1,65.9,35.51Z" transform="translate(-5.68 -25.16)"></path><path d="M45.07,36.44h0.54v8.64a0.49,0.49,0,1,0,1,0V36.44h0.67A1.46,1.46,0,0,0,48.72,35V34.14a1.46,1.46,0,0,0-1.46-1.46H45.07a1.46,1.46,0,0,0-1.46,1.46V35A1.46,1.46,0,0,0,45.07,36.44Zm-0.49-2.3a0.49,0.49,0,0,1,.49-0.49h2.18a0.49,0.49,0,0,1,.49.49V35a0.49,0.49,0,0,1-.49.49H45.07A0.49,0.49,0,0,1,44.58,35V34.14Z" transform="translate(-5.68 -25.16)"></path><path d="M51,41.58h0.55V45a0.49,0.49,0,0,0,1,0V41.58H53a1.46,1.46,0,0,0,1.46-1.46V39.35A1.46,1.46,0,0,0,53,37.89H52.5V32.64a0.49,0.49,0,1,0-1,0v5.25H51a1.46,1.46,0,0,0-1.46,1.46v0.76A1.46,1.46,0,0,0,51,41.58Zm-0.49-2.23A0.49,0.49,0,0,1,51,38.86H53a0.49,0.49,0,0,1,.49.49v0.76a0.49,0.49,0,0,1-.49.49H51a0.49,0.49,0,0,1-.49-0.49V39.35Z" transform="translate(-5.68 -25.16)"></path><path d="M58.2,37.76h0.55V45a0.49,0.49,0,0,0,1,0V37.76h0.55a1.46,1.46,0,0,0,1.46-1.46V35.53a1.46,1.46,0,0,0-1.46-1.46H59.72V32.76a0.49,0.49,0,1,0-1,0v1.31H58.2a1.46,1.46,0,0,0-1.46,1.46V36.3A1.46,1.46,0,0,0,58.2,37.76Zm-0.49-2.23A0.49,0.49,0,0,1,58.2,35h2.07a0.49,0.49,0,0,1,.49.49V36.3a0.49,0.49,0,0,1-.49.49H58.2a0.49,0.49,0,0,1-.49-0.49V35.53Z" transform="translate(-5.68 -25.16)"></path></svg>