<svg height='300px' width='300px'  fill="#000000" xmlns="http://www.w3.org/2000/svg" xmlns:xlink="http://www.w3.org/1999/xlink" xmlns:sketch="http://www.bohemiancoding.com/sketch/ns" viewBox="0 0 100 100" version="1.1" x="0px" y="0px"><title>Piano</title><desc>Created with Sketch.</desc><g stroke="none" stroke-width="1" fill="none" fill-rule="evenodd" sketch:type="MSPage"><path d="M64.5,44 L60.5,44 L61,44 L61,58 L60,58 L60,67 L65,67 L65,58 L64,58 L64,44 L64.5,44 Z M66.5,44 L71,44 L71,67 L66,67 L66,58 L67,58 L67,44 L66.5,44 Z M58.5,44 L54.5,44 L54.5,44 L55,44 L55,58 L54,58 L54,67 L59,67 L59,58 L58,58 L58,44 L58.5,44 L58.5,44 Z M52.5,44 L48,44 L48,67 L53,67 L53,58 L52,58 L52,44 L52.5,44 Z M40.5,44 L36.5,44 L36.5,44 L37,44 L37,58 L36,58 L36,67 L41,67 L41,58 L40,58 L40,44 L40.5,44 L40.5,44 Z M42.5,44 L47,44 L47,67 L42,67 L42,58 L43,58 L43,44 L42.5,44 L42.5,44 Z M34.5,44 L30,44 L30,67 L35,67 L35,58 L34,58 L34,44 L34.5,44 L34.5,44 Z M27,37.0056458 C27,34.2411039 29.2352889,32 32.0075552,32 L68.9924448,32 C71.7580412,32 74,34.2383594 74,37.0056458 L74,66.9995806 C74,67.552097 73.5498964,68 72.9965944,68 L28.0034056,68 C27.44924,68 27,67.544827 27,66.9995806 L27,37.0056458 Z M30.3578644,36.9864197 C30.3578644,36.4289606 30.8012176,35.9770508 31.3672333,35.9770508 L33.3484955,35.9770508 C33.9059545,35.9770508 34.3578644,36.420404 34.3578644,36.9864197 L34.3578644,38.9676819 C34.3578644,39.5251409 33.9145112,39.9770508 33.3484955,39.9770508 L31.3672333,39.9770508 C30.8097742,39.9770508 30.3578644,39.5336976 30.3578644,38.9676819 L30.3578644,36.9864197 Z M36.3578644,36.9864197 C36.3578644,36.4289606 36.8012176,35.9770508 37.3672333,35.9770508 L39.3484955,35.9770508 C39.9059545,35.9770508 40.3578644,36.420404 40.3578644,36.9864197 L40.3578644,38.9676819 C40.3578644,39.5251409 39.9145112,39.9770508 39.3484955,39.9770508 L37.3672333,39.9770508 C36.8097742,39.9770508 36.3578644,39.5336976 36.3578644,38.9676819 L36.3578644,36.9864197 Z M61.3578644,38.9770508 C61.9101491,38.9770508 62.3578644,38.5293355 62.3578644,37.9770508 C62.3578644,37.424766 61.9101491,36.9770508 61.3578644,36.9770508 C60.8055796,36.9770508 60.3578644,37.424766 60.3578644,37.9770508 C60.3578644,38.5293355 60.8055796,38.9770508 61.3578644,38.9770508 Z M65.3578644,38.9770508 C65.9101491,38.9770508 66.3578644,38.5293355 66.3578644,37.9770508 C66.3578644,37.424766 65.9101491,36.9770508 65.3578644,36.9770508 C64.8055796,36.9770508 64.3578644,37.424766 64.3578644,37.9770508 C64.3578644,38.5293355 64.8055796,38.9770508 65.3578644,38.9770508 Z M69.3578644,38.9770508 C69.9101491,38.9770508 70.3578644,38.5293355 70.3578644,37.9770508 C70.3578644,37.424766 69.9101491,36.9770508 69.3578644,36.9770508 C68.8055796,36.9770508 68.3578644,37.424766 68.3578644,37.9770508 C68.3578644,38.5293355 68.8055796,38.9770508 69.3578644,38.9770508 Z" fill="#000000" sketch:type="MSShapeGroup"></path></g></svg>