<svg height='300px' width='300px'  fill="#000000" xmlns="http://www.w3.org/2000/svg" xmlns:xlink="http://www.w3.org/1999/xlink" xml:space="preserve" version="1.1" style="shape-rendering:geometricPrecision;text-rendering:geometricPrecision;image-rendering:optimizeQuality;" viewBox="0 0 636 454" x="0px" y="0px" fill-rule="evenodd" clip-rule="evenodd"><defs><style type="text/css">
   
    .fil0 {fill:#000000}
   
  </style></defs><g><path class="fil0" d="M0 0l636 0 0 454 -636 0 0 -454zm77 48l79 0 0 289 -79 0 0 -289zm213 354c-9,-15 -4,-35 11,-44 16,-9 36,-4 45,12 9,15 4,35 -12,44 -16,9 -35,4 -44,-12zm-201 -39c13,-13 34,-13 46,0 13,13 13,33 0,46 -12,13 -33,13 -46,0 -12,-13 -12,-33 0,-46zm37 31l7 7c7,-10 6,-24 -3,-33 -10,-10 -26,-10 -36,0 -10,10 -10,26 0,36 9,9 23,10 33,3l-6 -7c-4,-4 2,-9 5,-6zm78 22c-17,-6 -26,-24 -20,-41 7,-17 25,-26 42,-20 17,6 26,25 20,42 -7,17 -25,26 -42,19zm13 -46l3 -9c-12,-3 -25,4 -29,16 -5,13 2,28 15,33 14,5 28,-2 33,-15 4,-12 -1,-25 -12,-31l-3 8c-2,5 -9,3 -7,-2zm306 48c-18,0 -32,-14 -32,-32 0,-18 14,-33 32,-33 18,0 33,15 33,33 0,18 -15,32 -33,32zm-4 -48l0 -9c-12,2 -21,12 -21,25 0,14 11,25 25,25 14,0 26,-11 26,-25 0,-13 -10,-23 -22,-25l0 9c0,5 -8,5 -8,0zm-129 27c-6,-17 2,-36 19,-42 17,-6 36,3 42,20 6,17 -3,35 -19,41 -17,7 -36,-2 -42,-19zm44 -20l9 -3c-6,-11 -19,-16 -31,-12 -13,5 -20,19 -15,33 4,13 19,20 32,15 12,-4 19,-17 17,-29l-9 3c-5,2 -8,-5 -3,-7zm-104 -2l8 -5c-8,-10 -22,-13 -33,-6 -12,7 -16,22 -9,35 7,12 22,16 35,9 11,-6 15,-20 11,-31l-9 4c-4,3 -8,-4 -3,-6zm149 -327l79 0 0 289 -79 0 0 -289zm36 36l0 217 7 0 0 -217 -7 0zm-136 -36l79 0 0 289 -79 0 0 -289zm36 36l0 217 7 0 0 -217 -7 0zm-137 -36l79 0 0 289 -79 0 0 -289zm36 36l0 217 7 0 0 -217 -7 0zm-136 -36l79 0 0 289 -79 0 0 -289zm36 36l0 217 7 0 0 -217 -7 0zm-101 0l0 217 7 0 0 -217 -7 0z"></path></g></svg>