<svg height='300px' width='300px'  fill="#000000" xmlns="http://www.w3.org/2000/svg" xmlns:xlink="http://www.w3.org/1999/xlink" version="1.1" x="0px" y="0px" viewBox="0 0 100 100" enable-background="new 0 0 100 100" xml:space="preserve"><path d="M11.649,43.281c-3.338,0-6.054,2.716-6.054,6.055c0,3.337,2.716,6.054,6.054,6.054s6.055-2.717,6.055-6.054  C17.703,45.997,14.987,43.281,11.649,43.281z M14.278,50.083h-0.894c-0.193,0.468-0.562,0.846-1.027,1.049v0.747  c0,0.413-0.335,0.747-0.748,0.747c-0.413,0-0.748-0.334-0.748-0.747v-0.715c-0.501-0.194-0.903-0.587-1.107-1.082H9.02  c-0.413,0-0.748-0.335-0.748-0.748c0-0.414,0.335-0.748,0.748-0.748h0.734c0.294-0.713,0.996-1.216,1.815-1.216  c0.82,0,1.521,0.502,1.815,1.216h0.894c0.414,0,0.748,0.334,0.748,0.748C15.026,49.748,14.691,50.083,14.278,50.083z M50.918,41.131  c-1.942,0-3.521,1.58-3.521,3.521c0,1.942,1.58,3.521,3.521,3.521c1.941,0,3.521-1.58,3.521-3.521  C54.439,42.71,52.859,41.131,50.918,41.131z M52.948,46.685c-1.121,1.121-2.939,1.121-4.061,0c-1.121-1.121-1.121-2.938,0-4.06  c1.055-1.054,2.726-1.116,3.854-0.188l-2.021,2.021l0.395,0.394l2.02-2.02C54.064,43.959,54.001,45.63,52.948,46.685z   M23.954,41.131c-1.941,0-3.521,1.58-3.521,3.521c0,1.942,1.58,3.521,3.521,3.521c1.942,0,3.521-1.58,3.521-3.521  C27.475,42.71,25.896,41.131,23.954,41.131z M25.979,46.685c-1.121,1.121-2.938,1.121-4.059,0c-1.054-1.054-1.117-2.726-0.188-3.853  l2.021,2.02l0.394-0.394l-2.02-2.021c1.128-0.929,2.798-0.866,3.853,0.188C27.1,43.746,27.1,45.563,25.979,46.685z M38.612,43.281  c-3.338,0-6.054,2.716-6.054,6.055c0,3.337,2.716,6.054,6.054,6.054c3.338,0,6.054-2.717,6.054-6.054  C44.666,45.997,41.95,43.281,38.612,43.281z M41.241,50.083h-0.894c-0.194,0.468-0.563,0.846-1.027,1.049v0.747  c0,0.413-0.334,0.747-0.748,0.747c-0.413,0-0.747-0.334-0.747-0.747v-0.715c-0.501-0.194-0.903-0.587-1.108-1.082h-0.733  c-0.414,0-0.748-0.335-0.748-0.748c0-0.414,0.334-0.748,0.748-0.748h0.733c0.295-0.713,0.996-1.216,1.815-1.216  c0.82,0,1.521,0.502,1.815,1.216h0.894c0.413,0,0.748,0.334,0.748,0.748C41.989,49.748,41.654,50.083,41.241,50.083z M93.129,37.974  H6.87c-2.927,0-5.3,2.373-5.3,5.3v13.451c0,2.927,2.373,5.301,5.3,5.301h86.258c2.929,0,5.301-2.374,5.301-5.301V43.274  C98.429,40.347,96.057,37.974,93.129,37.974z M11.649,56.013c-3.688,0-6.677-2.99-6.677-6.677c0-3.688,2.989-6.678,6.677-6.678  c3.688,0,6.678,2.989,6.678,6.678C18.326,53.022,15.337,56.013,11.649,56.013z M22.583,57.26H22.36  c-0.688,0-1.247-0.559-1.247-1.247c0-0.688,0.558-1.246,1.247-1.246h0.223c-0.303,0.327-0.49,0.765-0.49,1.246  S22.281,56.931,22.583,57.26z M23.936,57.25c-0.683,0-1.237-0.554-1.237-1.237s0.554-1.237,1.237-1.237  c0.684,0,1.238,0.554,1.238,1.237S24.62,57.25,23.936,57.25z M25.513,57.26H25.29c0.303-0.329,0.489-0.766,0.489-1.247  s-0.186-0.919-0.489-1.246h0.224c0.688,0,1.246,0.559,1.246,1.246C26.76,56.701,26.201,57.26,25.513,57.26z M23.954,48.797  c-2.285,0-4.145-1.859-4.145-4.145c0-2.285,1.859-4.145,4.145-4.145c2.286,0,4.145,1.859,4.145,4.145  C28.099,46.938,26.24,48.797,23.954,48.797z M30.387,58.719c0,0.173-0.14,0.312-0.312,0.312s-0.312-0.139-0.312-0.312V41.886  c0-0.172,0.14-0.312,0.312-0.312s0.312,0.14,0.312,0.312V58.719z M38.612,56.013c-3.688,0-6.678-2.99-6.678-6.677  c0-3.688,2.99-6.678,6.678-6.678s6.678,2.989,6.678,6.678C45.29,53.022,42.3,56.013,38.612,56.013z M49.564,57.26h-0.223  c-0.688,0-1.247-0.559-1.247-1.247c0-0.688,0.559-1.246,1.247-1.246h0.223c-0.303,0.327-0.49,0.765-0.49,1.246  S49.261,56.931,49.564,57.26z M50.918,57.25c-0.684,0-1.238-0.554-1.238-1.237s0.554-1.237,1.238-1.237  c0.684,0,1.237,0.554,1.237,1.237S51.601,57.25,50.918,57.25z M52.494,57.26H52.27c0.303-0.329,0.49-0.766,0.49-1.247  s-0.188-0.919-0.49-1.246h0.224c0.688,0,1.246,0.559,1.246,1.246C53.74,56.701,53.182,57.26,52.494,57.26z M50.918,48.797  c-2.286,0-4.145-1.859-4.145-4.145c0-2.285,1.859-4.145,4.145-4.145c2.285,0,4.145,1.859,4.145,4.145  C55.062,46.938,53.203,48.797,50.918,48.797z M57.504,58.719c0,0.173-0.139,0.312-0.311,0.312c-0.173,0-0.312-0.139-0.312-0.312  V41.886c0-0.172,0.139-0.312,0.312-0.312c0.172,0,0.311,0.14,0.311,0.312V58.719z M60.48,57.26h-0.223  c-0.688,0-1.246-0.559-1.246-1.247c0-0.688,0.558-1.246,1.246-1.246h0.223c-0.303,0.327-0.489,0.765-0.489,1.246  S60.177,56.931,60.48,57.26z M61.834,57.25c-0.684,0-1.238-0.554-1.238-1.237s0.555-1.237,1.238-1.237  c0.683,0,1.236,0.554,1.236,1.237S62.516,57.25,61.834,57.25z M61.834,47.372c-1.024,0-1.854-0.83-1.854-1.853  s0.829-1.854,1.854-1.854c1.023,0,1.854,0.83,1.854,1.854S62.857,47.372,61.834,47.372z M63.41,57.26h-0.223  c0.303-0.329,0.488-0.766,0.488-1.247s-0.186-0.919-0.488-1.246h0.223c0.688,0,1.246,0.559,1.246,1.246  C64.656,56.701,64.098,57.26,63.41,57.26z M80.398,58.212c-3.098,2.299-7.437,1.728-9.842-1.24l5.753-4.269l-0.371-0.499  l-5.753,4.269c-2.144-3.162-1.433-7.48,1.665-9.778c3.181-2.361,7.673-1.695,10.033,1.485  C84.245,51.359,83.579,55.853,80.398,58.212z M83.42,58.052l-0.494-0.38c1.162-1.509,1.776-3.315,1.776-5.226  c0-4.727-3.847-8.573-8.575-8.573c-4.728,0-8.573,3.846-8.573,8.573c0,1.91,0.614,3.717,1.776,5.226l-0.495,0.38  c-1.246-1.619-1.904-3.557-1.904-5.605c0-5.07,4.126-9.196,9.196-9.196c5.072,0,9.198,4.125,9.198,9.196  C85.325,54.495,84.666,56.433,83.42,58.052z M91.317,48.797c-2.286,0-4.145-1.859-4.145-4.145c0-2.285,1.858-4.145,4.145-4.145  c2.285,0,4.145,1.859,4.145,4.145C95.462,46.938,93.602,48.797,91.317,48.797z M91.317,41.131c-1.942,0-3.522,1.58-3.522,3.521  c0,1.942,1.58,3.521,3.522,3.521c1.94,0,3.521-1.58,3.521-3.521C94.839,42.71,93.258,41.131,91.317,41.131z M93.346,46.685  c-1.121,1.121-2.938,1.121-4.06,0c-1.055-1.054-1.117-2.726-0.187-3.853l2.019,2.02l0.396-0.394l-2.021-2.021  c1.127-0.929,2.798-0.866,3.853,0.188C94.468,43.746,94.468,45.563,93.346,46.685z"></path></svg>