<svg height='300px' width='300px'  fill="#000000" xmlns="http://www.w3.org/2000/svg" xmlns:xlink="http://www.w3.org/1999/xlink" version="1.1" x="0px" y="0px" viewBox="0 0 100 100" enable-background="new 0 0 100 100" xml:space="preserve"><path fill="#000000" d="M80.411,32.317h-1h-10.98h-1H56.448h-1h-10.98h-1H32.486h-1H20.505h-1H7.524v51.629h11.981h1h10.981h1  h10.981h1h10.98h1h10.982h1h10.98h1h11.982V32.317H80.411z M8.524,82.946V33.317h8.486v24.814h2.496v24.814H8.524z M20.505,82.946  V58.132H23V33.317h5.991v24.814h2.495v24.814H20.505z M43.468,82.946H32.486V58.132h2.496V33.317h8.486V82.946z M44.468,82.946  V33.317h8.487v24.814h2.493v24.814H44.468z M56.448,82.946V58.132h2.495V33.317h5.991v24.814h2.496v24.814H56.448z M68.431,82.946  V58.132h2.496V33.317h5.988v24.814h2.496v24.814H68.431z M91.394,82.946H80.411V58.132h2.495V33.317h8.487V82.946z"></path><path fill="#000000" d="M2.417,6.341v84.167H97.5V6.341H2.417z M96.5,89.509H3.417V7.341H96.5V89.509z"></path><g><path fill="#000000" d="M14.012,16.517c1.186,0,2.15-0.965,2.15-2.15s-0.964-2.15-2.15-2.15s-2.15,0.964-2.15,2.15   S12.826,16.517,14.012,16.517z M14.012,13.216c0.634,0,1.15,0.516,1.15,1.15s-0.516,1.15-1.15,1.15s-1.15-0.516-1.15-1.15   S13.377,13.216,14.012,13.216z"></path><path fill="#000000" d="M14.012,17.318c-1.186,0-2.15,0.964-2.15,2.15s0.965,2.15,2.15,2.15s2.15-0.965,2.15-2.15   S15.197,17.318,14.012,17.318z M14.012,20.619c-0.634,0-1.15-0.516-1.15-1.15s0.516-1.15,1.15-1.15s1.15,0.516,1.15,1.15   S14.646,20.619,14.012,20.619z"></path><path fill="#000000" d="M14.012,22.639c-1.186,0-2.15,0.965-2.15,2.15s0.965,2.15,2.15,2.15s2.15-0.964,2.15-2.15   S15.197,22.639,14.012,22.639z M14.012,25.939c-0.634,0-1.15-0.516-1.15-1.15s0.516-1.15,1.15-1.15s1.15,0.516,1.15,1.15   S14.646,25.939,14.012,25.939z"></path></g><g><polygon fill="#000000" points="26.496,12.826 25.496,12.826 25.496,14.476 23.38,14.476 23.38,16.952 25.496,16.952    25.496,28.402 26.496,28.402 26.496,16.952 28.612,16.952 28.612,14.476 26.496,14.476  "></polygon><polygon fill="#000000" points="32.487,12.826 31.487,12.826 31.487,19.375 29.371,19.375 29.371,21.851 31.487,21.851    31.487,28.402 32.487,28.402 32.487,21.851 34.603,21.851 34.603,19.375 32.487,19.375  "></polygon><polygon fill="#000000" points="38.478,12.826 37.478,12.826 37.478,24.899 35.361,24.899 35.361,27.375 37.478,27.375    37.478,28.402 38.478,28.402 38.478,27.375 40.594,27.375 40.594,24.899 38.478,24.899  "></polygon><polygon fill="#000000" points="44.468,12.826 43.468,12.826 43.468,19.375 41.352,19.375 41.352,21.851 43.468,21.851    43.468,28.402 44.468,28.402 44.468,21.851 46.584,21.851 46.584,19.375 44.468,19.375  "></polygon><polygon fill="#000000" points="52.575,14.476 50.459,14.476 50.459,12.826 49.459,12.826 49.459,14.476 47.343,14.476    47.343,16.952 49.459,16.952 49.459,28.402 50.459,28.402 50.459,16.952 52.575,16.952  "></polygon></g><path fill="#000000" d="M58.443,12.326v16.576h27.959V12.326H58.443z M85.402,27.902H59.443V13.326h25.959V27.902z"></path></svg>