<svg height='300px' width='300px'  fill="#000000" xmlns="http://www.w3.org/2000/svg" xmlns:xlink="http://www.w3.org/1999/xlink" xmlns:sketch="http://www.bohemiancoding.com/sketch/ns" viewBox="0 0 64 64" version="1.1" x="0px" y="0px"><title>Mixer</title><desc>Created with Sketch.</desc><g stroke="none" stroke-width="1" fill="none" fill-rule="evenodd" sketch:type="MSPage"><g sketch:type="MSArtboardGroup" fill="#000000"><path d="M62,59 C62,60.654 60.654,62 59,62 L5,62 C3.346,62 2,60.654 2,59 L2,5 C2,3.346 3.346,2 5,2 L59,2 C60.654,2 62,3.346 62,5 L62,59 Z M59,0 L5,0 C2.239,0 0,2.239 0,5 L0,59 C0,61.761 2.239,64 5,64 L59,64 C61.761,64 64,61.761 64,59 L64,5 C64,2.239 61.761,0 59,0 L59,0 Z M37,14 L45,14 C45.55,14 46,13.55 46,13 C46,12.45 45.55,12 45,12 L37,12 C36.45,12 36,12.45 36,13 C36,13.55 36.45,14 37,14 L37,14 Z M51,12 L49,12 C48.45,12 48,12.45 48,13 C48,13.55 48.45,14 49,14 L51,14 C51.55,14 52,13.55 52,13 C52,12.45 51.55,12 51,12 L51,12 Z M55,14 L57,14 C57.55,14 58,13.55 58,13 C58,12.45 57.55,12 57,12 L55,12 C54.45,12 54,12.45 54,13 C54,13.55 54.45,14 55,14 L55,14 Z M16,13 C16,12.45 15.55,12 15,12 L13,12 C12.45,12 12,12.45 12,13 C12,13.55 12.45,14 13,14 L15,14 C15.55,14 16,13.55 16,13 L16,13 Z M9,12 L7,12 C6.45,12 6,12.45 6,13 C6,13.55 6.45,14 7,14 L9,14 C9.55,14 10,13.55 10,13 C10,12.45 9.55,12 9,12 L9,12 Z M7,10 L15,10 C15.55,10 16,9.55 16,9 L16,7 C16,6.45 15.55,6 15,6 L7,6 C6.45,6 6,6.45 6,7 L6,9 C6,9.55 6.45,10 7,10 L7,10 Z M58,20 C58,20.551 57.551,21 57,21 C56.449,21 56,20.551 56,20 C56,19.449 56.449,19 57,19 C57.551,19 58,19.449 58,20 L58,20 Z M55,20 C55,21.105 55.895,22 57,22 C58.105,22 59,21.105 59,20 C59,18.895 58.105,18 57,18 C55.895,18 55,18.895 55,20 L55,20 Z M47,21 C46.449,21 46,20.551 46,20 C46,19.449 46.449,19 47,19 C47.551,19 48,19.449 48,20 C48,20.551 47.551,21 47,21 L47,21 Z M47,18 C45.895,18 45,18.895 45,20 C45,21.105 45.895,22 47,22 C48.105,22 49,21.105 49,20 C49,18.895 48.105,18 47,18 L47,18 Z M37,19 C37.551,19 38,19.449 38,20 C38,20.551 37.551,21 37,21 C36.449,21 36,20.551 36,20 C36,19.449 36.449,19 37,19 L37,19 Z M37,22 C38.105,22 39,21.105 39,20 C39,18.895 38.105,18 37,18 C35.895,18 35,18.895 35,20 C35,21.105 35.895,22 37,22 L37,22 Z M27,19 C27.551,19 28,19.449 28,20 C28,20.551 27.551,21 27,21 C26.449,21 26,20.551 26,20 C26,19.449 26.449,19 27,19 L27,19 Z M27,22 C28.105,22 29,21.105 29,20 C29,18.895 28.105,18 27,18 C25.895,18 25,18.895 25,20 C25,21.105 25.895,22 27,22 L27,22 Z M17,19 C17.551,19 18,19.449 18,20 C18,20.551 17.551,21 17,21 C16.449,21 16,20.551 16,20 C16,19.449 16.449,19 17,19 L17,19 Z M15,20 C15,21.105 15.895,22 17,22 C18.105,22 19,21.105 19,20 C19,18.895 18.105,18 17,18 C15.895,18 15,18.895 15,20 L15,20 Z M7,19 C7.551,19 8,19.449 8,20 C8,20.551 7.551,21 7,21 C6.449,21 6,20.551 6,20 C6,19.449 6.449,19 7,19 L7,19 Z M7,22 C8.105,22 9,21.105 9,20 C9,18.895 8.105,18 7,18 C5.895,18 5,18.895 5,20 C5,21.105 5.895,22 7,22 L7,22 Z M57,27 C56.449,27 56,26.551 56,26 C56,25.449 56.449,25 57,25 C57.551,25 58,25.449 58,26 C58,26.551 57.551,27 57,27 L57,27 Z M57,24 C55.895,24 55,24.895 55,26 C55,27.105 55.895,28 57,28 C58.105,28 59,27.105 59,26 C59,24.895 58.105,24 57,24 L57,24 Z M47,27 C46.449,27 46,26.551 46,26 C46,25.449 46.449,25 47,25 C47.551,25 48,25.449 48,26 C48,26.551 47.551,27 47,27 L47,27 Z M47,24 C45.895,24 45,24.895 45,26 C45,27.105 45.895,28 47,28 C48.105,28 49,27.105 49,26 C49,24.895 48.105,24 47,24 L47,24 Z M37,25 C37.551,25 38,25.449 38,26 C38,26.551 37.551,27 37,27 C36.449,27 36,26.551 36,26 C36,25.449 36.449,25 37,25 L37,25 Z M37,28 C38.105,28 39,27.105 39,26 C39,24.895 38.105,24 37,24 C35.895,24 35,24.895 35,26 C35,27.105 35.895,28 37,28 L37,28 Z M27,25 C27.551,25 28,25.449 28,26 C28,26.551 27.551,27 27,27 C26.449,27 26,26.551 26,26 C26,25.449 26.449,25 27,25 L27,25 Z M27,28 C28.105,28 29,27.105 29,26 C29,24.895 28.105,24 27,24 C25.895,24 25,24.895 25,26 C25,27.105 25.895,28 27,28 L27,28 Z M17,27 C16.449,27 16,26.551 16,26 C16,25.449 16.449,25 17,25 C17.551,25 18,25.449 18,26 C18,26.551 17.551,27 17,27 L17,27 Z M17,24 C15.895,24 15,24.895 15,26 C15,27.105 15.895,28 17,28 C18.105,28 19,27.105 19,26 C19,24.895 18.105,24 17,24 L17,24 Z M7,25 C7.551,25 8,25.449 8,26 C8,26.551 7.551,27 7,27 C6.449,27 6,26.551 6,26 C6,25.449 6.449,25 7,25 L7,25 Z M7,28 C8.105,28 9,27.105 9,26 C9,24.895 8.105,24 7,24 C5.895,24 5,24.895 5,26 C5,27.105 5.895,28 7,28 L7,28 Z M50,6 C48.895,6 48,6.895 48,8 C48,9.105 48.895,10 50,10 C51.105,10 52,9.105 52,8 C52,6.895 51.105,6 50,6 L50,6 Z M56,10 C57.105,10 58,9.105 58,8 C58,6.895 57.105,6 56,6 C54.895,6 54,6.895 54,8 C54,9.105 54.895,10 56,10 L56,10 Z M7,40 C8.105,40 9,39.105 9,38 C9,36.895 8.105,36 7,36 C5.895,36 5,36.895 5,38 C5,39.105 5.895,40 7,40 L7,40 Z M7,34 C8.105,34 9,33.105 9,32 C9,30.895 8.105,30 7,30 C5.895,30 5,30.895 5,32 C5,33.105 5.895,34 7,34 L7,34 Z M17,36 C15.895,36 15,36.895 15,38 C15,39.105 15.895,40 17,40 C18.105,40 19,39.105 19,38 C19,36.895 18.105,36 17,36 L17,36 Z M17,30 C15.895,30 15,30.895 15,32 C15,33.105 15.895,34 17,34 C18.105,34 19,33.105 19,32 C19,30.895 18.105,30 17,30 L17,30 Z M27,40 C28.105,40 29,39.105 29,38 C29,36.895 28.105,36 27,36 C25.895,36 25,36.895 25,38 C25,39.105 25.895,40 27,40 L27,40 Z M27,34 C28.105,34 29,33.105 29,32 C29,30.895 28.105,30 27,30 C25.895,30 25,30.895 25,32 C25,33.105 25.895,34 27,34 L27,34 Z M37,40 C38.105,40 39,39.105 39,38 C39,36.895 38.105,36 37,36 C35.895,36 35,36.895 35,38 C35,39.105 35.895,40 37,40 L37,40 Z M37,34 C38.105,34 39,33.105 39,32 C39,30.895 38.105,30 37,30 C35.895,30 35,30.895 35,32 C35,33.105 35.895,34 37,34 L37,34 Z M47,36 C45.895,36 45,36.895 45,38 C45,39.105 45.895,40 47,40 C48.105,40 49,39.105 49,38 C49,36.895 48.105,36 47,36 L47,36 Z M47,30 C45.895,30 45,30.895 45,32 C45,33.105 45.895,34 47,34 C48.105,34 49,33.105 49,32 C49,30.895 48.105,30 47,30 L47,30 Z M57,36 C55.895,36 55,36.895 55,38 C55,39.105 55.895,40 57,40 C58.105,40 59,39.105 59,38 C59,36.895 58.105,36 57,36 L57,36 Z M57,30 C55.895,30 55,30.895 55,32 C55,33.105 55.895,34 57,34 C58.105,34 59,33.105 59,32 C59,30.895 58.105,30 57,30 L57,30 Z M37,9 C37.552,9 38,8.552 38,8 C38,7.448 37.552,7 37,7 C36.448,7 36,7.448 36,8 C36,8.552 36.448,9 37,9 L37,9 Z M41,9 C41.552,9 42,8.552 42,8 C42,7.448 41.552,7 41,7 C40.448,7 40,7.448 40,8 C40,8.552 40.448,9 41,9 L41,9 Z M45,9 C45.552,9 46,8.552 46,8 C46,7.448 45.552,7 45,7 C44.448,7 44,7.448 44,8 C44,8.552 44.448,9 45,9 L45,9 Z M59,50 L58,50 L58,45 C58,44.448 57.552,44 57,44 C56.448,44 56,44.448 56,45 L56,50 L55,50 C54.45,50 54,50.45 54,51 C54,51.55 54.45,52 55,52 L56,52 L56,57 C56,57.552 56.448,58 57,58 C57.552,58 58,57.552 58,57 L58,52 L59,52 C59.55,52 60,51.55 60,51 C60,50.45 59.55,50 59,50 L59,50 Z M49,48 L48,48 L48,45 C48,44.448 47.552,44 47,44 C46.448,44 46,44.448 46,45 L46,48 L45,48 C44.45,48 44,48.45 44,49 C44,49.55 44.45,50 45,50 L46,50 L46,57 C46,57.552 46.448,58 47,58 C47.552,58 48,57.552 48,57 L48,50 L49,50 C49.55,50 50,49.55 50,49 C50,48.45 49.55,48 49,48 L49,48 Z M39,46 L38,46 L38,45 C38,44.448 37.552,44 37,44 C36.448,44 36,44.448 36,45 L36,46 L35,46 C34.45,46 34,46.45 34,47 C34,47.55 34.45,48 35,48 L36,48 L36,57 C36,57.552 36.448,58 37,58 C37.552,58 38,57.552 38,57 L38,48 L39,48 C39.55,48 40,47.55 40,47 C40,46.45 39.55,46 39,46 L39,46 Z M29,50 L28,50 L28,45 C28,44.448 27.552,44 27,44 C26.448,44 26,44.448 26,45 L26,50 L25,50 C24.45,50 24,50.45 24,51 C24,51.55 24.45,52 25,52 L26,52 L26,57 C26,57.552 26.448,58 27,58 C27.552,58 28,57.552 28,57 L28,52 L29,52 C29.55,52 30,51.55 30,51 C30,50.45 29.55,50 29,50 L29,50 Z M19,52 L18,52 L18,45 C18,44.448 17.552,44 17,44 C16.448,44 16,44.448 16,45 L16,52 L15,52 C14.45,52 14,52.45 14,53 C14,53.55 14.45,54 15,54 L16,54 L16,57 C16,57.552 16.448,58 17,58 C17.552,58 18,57.552 18,57 L18,54 L19,54 C19.55,54 20,53.55 20,53 C20,52.45 19.55,52 19,52 L19,52 Z M9,48 L8,48 L8,45 C8,44.448 7.552,44 7,44 C6.448,44 6,44.448 6,45 L6,48 L5,48 C4.45,48 4,48.45 4,49 C4,49.55 4.45,50 5,50 L6,50 L6,57 C6,57.552 6.448,58 7,58 C7.552,58 8,57.552 8,57 L8,50 L9,50 C9.55,50 10,49.55 10,49 C10,48.45 9.55,48 9,48 L9,48 Z" sketch:type="MSShapeGroup"></path></g></g></svg>