<svg height='300px' width='300px'  fill="#000000" xmlns="http://www.w3.org/2000/svg" viewBox="0 0 64 64" x="0px" y="0px"><g><path d="M61,8H3A1,1,0,0,0,2,9V55a1,1,0,0,0,1,1H61a1,1,0,0,0,1-1V9A1,1,0,0,0,61,8ZM60,26H42V10H60ZM40,10V26H24V10ZM31,32h2v2H31Zm-2-2V28h6v2ZM4,10H22V26H4ZM4,54V28H27v4h2v4h6V32h2V28H60V54Z"></path><path d="M17,30A11,11,0,1,0,28,41,11.013,11.013,0,0,0,17,30Zm0,20a9,9,0,1,1,9-9A9.01,9.01,0,0,1,17,50Z"></path><path d="M17,34a7,7,0,1,0,7,7A7.009,7.009,0,0,0,17,34Zm0,12a5,5,0,1,1,5-5A5.006,5.006,0,0,1,17,46Z"></path><path d="M17,38a3,3,0,1,0,3,3A3,3,0,0,0,17,38Zm0,4a1,1,0,1,1,1-1A1,1,0,0,1,17,42Z"></path><path d="M47,30A11,11,0,1,0,58,41,11.013,11.013,0,0,0,47,30Zm0,20a9,9,0,1,1,9-9A9.01,9.01,0,0,1,47,50Z"></path><path d="M47,34a7,7,0,1,0,7,7A7.009,7.009,0,0,0,47,34Zm0,12a5,5,0,1,1,5-5A5.006,5.006,0,0,1,47,46Z"></path><path d="M47,38a3,3,0,1,0,3,3A3,3,0,0,0,47,38Zm0,4a1,1,0,1,1,1-1A1,1,0,0,1,47,42Z"></path><path d="M28,52h8V46H28Zm2-4h4v2H30Z"></path><rect x="31" y="38" width="2" height="2"></rect><rect x="31" y="42" width="2" height="2"></rect><path d="M12,15a3,3,0,1,0-3,3A3,3,0,0,0,12,15ZM9,16a1,1,0,1,1,1-1A1,1,0,0,1,9,16Z"></path><path d="M20,15a3,3,0,1,0-3,3A3,3,0,0,0,20,15Zm-3,1a1,1,0,1,1,1-1A1,1,0,0,1,17,16Z"></path><rect x="6" y="22" width="14" height="2"></rect><polygon points="9 18 6 18 6 20 20 20 20 18 17 18 9 18"></polygon><path d="M44,21h2v3h2V21h2V15H48V12H46v3H44Zm2-4h2v2H46Z"></path><path d="M54,24h2V22h2V16H56V12H54v4H52v6h2Zm0-6h2v2H54Z"></path><circle cx="29" cy="15" r="2"></circle><circle cx="35" cy="15" r="2"></circle><circle cx="29" cy="21" r="2"></circle><circle cx="35" cy="21" r="2"></circle><rect x="6" y="50" width="2" height="2"></rect><rect x="56" y="50" width="2" height="2"></rect><rect x="56" y="30" width="2" height="2"></rect><rect x="6" y="30" width="2" height="2"></rect></g></svg>