<svg height='300px' width='300px'  fill="#000000" xmlns="http://www.w3.org/2000/svg" xmlns:xlink="http://www.w3.org/1999/xlink" version="1.1" x="0px" y="0px" viewBox="0 0 100 100" enable-background="new 0 0 100 100" xml:space="preserve"><path d="M98.154,12.25v75.501H1.847V12.25H98.154 M98.716,11.688H1.285v76.626h97.431V11.688L98.716,11.688z M10.38,24.857  c-2.46,0-4.462-2.001-4.462-4.462c0-2.46,2.002-4.462,4.462-4.462s4.462,2.001,4.462,4.462  C14.843,22.855,12.841,24.857,10.38,24.857L10.38,24.857z M10.38,16.495c-2.15,0-3.9,1.75-3.9,3.9c0,2.151,1.75,3.9,3.9,3.9  c2.151,0,3.9-1.749,3.9-3.9C14.28,18.244,12.531,16.495,10.38,16.495L10.38,16.495z M40.429,60.818  c-6.047,0-10.967-4.919-10.967-10.967c0-6.047,4.919-10.966,10.967-10.966c6.047,0,10.967,4.919,10.967,10.966  C51.396,55.899,46.476,60.818,40.429,60.818L40.429,60.818z M40.429,39.448c-5.737,0-10.404,4.667-10.404,10.404  c0,5.737,4.667,10.404,10.404,10.404c5.736,0,10.403-4.667,10.403-10.404C50.833,44.115,46.166,39.448,40.429,39.448L40.429,39.448z   M83.533,73.985c-1.146,0-2.081-0.934-2.081-2.081s0.935-2.082,2.081-2.082c1.147,0,2.082,0.935,2.082,2.082  S84.68,73.985,83.533,73.985L83.533,73.985z M83.533,70.386c-0.838,0-1.519,0.681-1.519,1.519s0.681,1.52,1.519,1.52  s1.52-0.682,1.52-1.52S84.371,70.386,83.533,70.386L83.533,70.386z M14.288,84.322H5.131v-6.369h9.157V84.322L14.288,84.322z   M5.693,83.761h8.033v-5.245H5.693V83.761L5.693,83.761z M20.56,82.599h-0.562h-4.762v1.724h4.762h0.562h4.762v-1.724H20.56z   M19.997,83.761h-4.2v-0.6h4.2V83.761z M24.759,83.761H20.56v-0.6h4.199V83.761z M93.027,77.162h-6.634V51.189h6.634V77.162  L93.027,77.162z M86.955,76.601h5.51V51.752h-5.51V76.601L86.955,76.601z M78.658,69.826c-0.34-0.235-0.808-0.153-1.044,0.187  c-0.236,0.341-0.153,0.808,0.187,1.044c0.34,0.237,0.807,0.153,1.043-0.186C79.081,70.53,78.997,70.063,78.658,69.826z M76.305,73.2  c-0.34-0.236-0.807-0.153-1.044,0.187c-0.237,0.339-0.153,0.807,0.187,1.044c0.34,0.236,0.807,0.153,1.044-0.186  C76.728,73.904,76.645,73.438,76.305,73.2z M77.481,71.514c-0.34-0.236-0.807-0.153-1.043,0.187  c-0.237,0.34-0.153,0.807,0.186,1.044c0.34,0.236,0.807,0.152,1.043-0.187C77.904,72.218,77.822,71.75,77.481,71.514z   M91.986,61.879v-0.542c0-0.219-0.177-0.396-0.396-0.396h-0.848v-8.23H90.18v8.23h-0.848c-0.22,0-0.396,0.178-0.396,0.396v0.542  h1.244v0.144h-1.244v0.444h1.244v0.285h-1.244v1.199h1.244V64.4h-1.244V65.6h1.244v0.286h-1.244v0.444h1.244v0.143h-1.244v0.543  c0,0.219,0.177,0.396,0.396,0.396h0.848v8.23h0.562v-8.23h0.848c0.219,0,0.396-0.178,0.396-0.396v-0.543h-1.243V66.33h1.243v-0.444  h-1.243V65.6h1.243V64.4h-1.243v-0.449h1.243v-1.199h-1.243v-0.285h1.243v-0.444h-1.243v-0.144H91.986z M88.607,53.272V52.71h-1.072  v0.562H88.607L88.607,53.272z M88.607,75.643v-0.563h-1.072v0.563H88.607L88.607,75.643z M88.607,64.457v-0.562h-1.072v0.562H88.607  L88.607,64.457z M88.607,61.661v-0.562h-1.072v0.562H88.607L88.607,61.661z M88.607,58.865v-0.562h-1.072v0.562H88.607  L88.607,58.865z M88.607,56.068v-0.562h-1.072v0.562H88.607L88.607,56.068z M88.607,67.254v-0.562h-1.072v0.562H88.607  L88.607,67.254z M88.607,70.05v-0.562h-1.072v0.562H88.607L88.607,70.05z M88.607,72.846v-0.562h-1.072v0.562H88.607L88.607,72.846z   M40.429,49.225c-0.429,0-0.776,0.347-0.776,0.776c0,0.428,0.347,0.775,0.776,0.775c0.428,0,0.775-0.347,0.775-0.775  C41.204,49.572,40.858,49.225,40.429,49.225z M10.38,19.619c-0.428,0-0.775,0.347-0.775,0.775c0,0.429,0.347,0.775,0.775,0.775  c0.429,0,0.775-0.347,0.775-0.775C11.156,19.966,10.809,19.619,10.38,19.619z M8.025,69.242c-1.596,0-2.895,1.299-2.895,2.895  s1.299,2.895,2.895,2.895s2.895-1.299,2.895-2.895S9.621,69.242,8.025,69.242z M8.025,74.469c-1.286,0-2.332-1.046-2.332-2.332  c0-1.19,0.897-2.175,2.051-2.314v2.314h0.562v-2.314c1.153,0.14,2.051,1.124,2.051,2.314C10.357,73.423,9.311,74.469,8.025,74.469z   M94.416,31.834c0-3.062-1.094-6.031-3.078-8.357c-1.896-2.22-4.49-3.732-7.336-4.286c0.133-1.26,0.23-2.186,0.23-2.186  l-2.236-0.236c0,0-0.098,0.926-0.23,2.186c-0.077-0.001-0.154-0.003-0.232-0.003c-3.068,0-6.039,1.096-8.368,3.087  c-2.134,1.824-3.611,4.294-4.211,7.01c-1.07-1.461-2.259-2.852-3.565-4.158c-6.666-6.667-15.531-10.339-24.959-10.339  s-18.293,3.672-24.96,10.339C8.803,31.559,5.131,40.423,5.131,49.852c0,9.429,3.672,18.293,10.339,24.96  c6.667,6.667,15.532,10.339,24.96,10.339s18.293-3.672,24.959-10.339c6.667-6.667,10.34-15.531,10.34-24.96  c0-2.334-0.227-4.635-0.666-6.875c1.24,0.724,2.582,1.228,3.995,1.502c0.095,0.951,0.473,2.486,1.043,4.758  c0.493,1.96,1.051,4.182,1.37,6.023c0.599,3.454,0.082,5.562-0.295,7.102c-0.026,0.108-0.052,0.213-0.076,0.315  c-0.33,1.373-0.595,2.472-2.828,5.733l-0.467-0.325l-3.558,5.103l-1.577,0.134l-3.13,4.49l4.779,3.331l3.13-4.489l-0.42-1.526  l3.558-5.103l-0.47-0.328c2.305-3.363,2.742-4.717,3.169-6.495c0.023-0.099,0.049-0.2,0.074-0.305  c0.4-1.635,1.005-4.104,0.326-8.021c-0.333-1.924-0.902-4.188-1.405-6.187c-0.376-1.5-0.764-3.039-0.922-3.976  c0.058,0.001,0.115,0.003,0.174,0.003C88.636,44.717,94.416,38.938,94.416,31.834z M76.418,75.021l0.419,1.526l-2.657,3.812  l-3.856-2.688l2.657-3.812l1.577-0.134l3.387-4.858l1.86,1.297L76.418,75.021z M40.429,84.588  c-19.154,0-34.736-15.583-34.736-34.736s15.583-34.736,34.736-34.736c19.153,0,34.736,15.583,34.736,34.736  S59.583,84.588,40.429,84.588z M69.403,29.676c1.04-5.896,6.121-10.162,12.13-10.162c0.058,0,0.115,0.001,0.173,0.002  c-0.142,1.339-0.31,2.925-0.441,4.173c-4.371,0.142-7.884,3.74-7.884,8.145c0,3.715,2.476,6.924,6.043,7.875  c-0.182,1.4-0.385,3.077-0.391,4.192c-1.472-0.303-2.858-0.868-4.129-1.681C73.916,37.716,72.054,33.466,69.403,29.676z   M79.66,37.856c-0.032,0.306-0.092,0.755-0.161,1.277c0,0.004-0.001,0.01-0.002,0.014c-3.282-0.909-5.554-3.878-5.554-7.313  c0-4.075,3.229-7.409,7.262-7.581c-0.056,0.527-0.101,0.96-0.13,1.238c-0.03,0.286-0.232,2.037-0.467,4.064  C80.251,32.653,79.806,36.506,79.66,37.856z M81.738,48.832c0.499,1.987,1.064,4.24,1.394,6.141c0.659,3.8,0.072,6.2-0.317,7.79  l-0.006,0.022c-0.023,0.098-0.047,0.192-0.069,0.285c-0.41,1.71-0.831,3.014-3.06,6.27l-0.923-0.643  c2.273-3.324,2.547-4.464,2.889-5.89c0.021-0.086,0.043-0.175,0.065-0.266l0.012-0.047c0.389-1.587,0.921-3.761,0.302-7.331  c-0.323-1.864-0.883-4.096-1.378-6.064c-0.644-2.558-1.034-4.17-1.051-4.996c-0.024-1.211,0.256-3.342,0.461-4.897l0.004-0.024  c0.067-0.515,0.126-0.959,0.159-1.266c0.146-1.344,0.588-5.18,0.943-8.262l0.004-0.034c0.255-2.207,0.438-3.791,0.467-4.071  c0.144-1.363,0.683-6.459,0.862-8.163l1.118,0.118c-0.18,1.704-0.718,6.799-0.862,8.162c-0.031,0.297-0.233,2.051-0.468,4.082  l-0.016,0.13c-0.351,3.044-0.788,6.833-0.932,8.159c-0.035,0.327-0.095,0.785-0.165,1.316c-0.189,1.434-0.474,3.602-0.452,4.728  c0.016,0.757,0.502,2.694,1.018,4.744L81.738,48.832z M83.442,24.488c3.313,0.859,5.681,3.887,5.681,7.346  c0,4.119-3.299,7.48-7.393,7.585c0.07-0.532,0.13-0.991,0.166-1.321c0.146-1.343,0.589-5.191,0.946-8.284  c0.244-2.117,0.438-3.79,0.468-4.088C83.341,25.449,83.386,25.016,83.442,24.488z M81.282,44.071  c-0.019-0.95,0.195-2.712,0.374-4.088c4.438-0.066,8.029-3.695,8.029-8.149c0-3.743-2.581-7.019-6.185-7.912  c0.133-1.248,0.3-2.832,0.441-4.17c5.763,1.139,9.911,6.164,9.911,12.082c0,6.793-5.526,12.321-12.32,12.321  c-0.083,0-0.165-0.003-0.248-0.005C81.284,44.123,81.283,44.095,81.282,44.071z M40.429,17.922c-8.529,0-16.547,3.321-22.578,9.352  c-6.031,6.031-9.352,14.049-9.352,22.578c0,8.529,3.321,16.548,9.352,22.578c6.031,6.031,14.049,9.353,22.578,9.353  s16.547-3.321,22.578-9.353c6.031-6.03,9.352-14.049,9.352-22.578c0-8.529-3.32-16.547-9.352-22.578  C56.977,21.243,48.958,17.922,40.429,17.922z M40.429,81.22c-17.296,0-31.368-14.072-31.368-31.368s14.072-31.368,31.368-31.368  c17.297,0,31.368,14.072,31.368,31.368S57.726,81.22,40.429,81.22z"></path></svg>