<svg height='300px' width='300px'  fill="#000000" xmlns="http://www.w3.org/2000/svg" xmlns:xlink="http://www.w3.org/1999/xlink" version="1.1" x="0px" y="0px" viewBox="0 0 66 66" enable-background="new 0 0 66 66" xml:space="preserve"><g><rect x="6.1699219" y="37.2924805" width="2" height="17.3339844"></rect><path d="M10.5732565,55.6264648h5.7949209V49.831543h-5.7949209V55.6264648z M12.5732565,51.831543h1.7949219v1.7949219h-1.7949219   V51.831543z"></path><rect x="11.5732422" y="44.831543" width="3.7949219" height="2"></rect><rect x="11.5732422" y="39.831543" width="3.7949219" height="2"></rect><rect x="20.9101563" y="44.831543" width="3.7949219" height="2"></rect><rect x="20.9101563" y="39.831543" width="3.7949219" height="2"></rect><path d="M19.9101696,55.6264648h5.7949219V49.831543h-5.7949219V55.6264648z M21.9101696,51.831543h1.7949219v1.7949219h-1.7949219   V51.831543z"></path><path d="M58.6338043,27.5883789H30.0713024v28.0380859h28.5625019V27.5883789z M56.6338043,34.3286133h-4.7763672v-4.7402344   h4.7763672V34.3286133z M45.3525543,34.3286133v-4.7402344h4.5048828v4.7402344H45.3525543z M49.8574371,36.3286133v4.2783203   h-4.5048828v-4.2783203H49.8574371z M43.3525543,34.3286133h-4.5048828v-4.7402344h4.5048828V34.3286133z M43.3525543,36.3286133   v4.2783203h-4.5048828v-4.2783203H43.3525543z M36.8476715,40.6069336h-4.7763672v-4.2783203h4.7763672V40.6069336z    M36.8476715,42.6069336v4.2783203h-4.7763672v-4.2783203H36.8476715z M38.8476715,42.6069336h4.5048828v4.2783203h-4.5048828   V42.6069336z M43.3525543,48.8852539v4.7412109h-4.5048828v-4.7412109H43.3525543z M45.3525543,48.8852539h4.5048828v4.7412109   h-4.5048828V48.8852539z M45.3525543,46.8852539v-4.2783203h4.5048828v4.2783203H45.3525543z M51.8574371,42.6069336h4.7763672   v4.2783203h-4.7763672V42.6069336z M51.8574371,40.6069336v-4.2783203h4.7763672v4.2783203H51.8574371z M36.8476715,29.5883789   v4.7402344h-4.7763672v-4.7402344H36.8476715z M32.0713043,48.8852539h4.7763672v4.7412109h-4.7763672V48.8852539z    M51.8574371,53.6264648v-4.7412109h4.7763672v4.7412109H51.8574371z"></path><rect x="5.2734375" y="32.831543" width="3.7939453" height="2"></rect><rect x="5.2734375" y="28.831543" width="3.7939453" height="2"></rect><rect x="5.2734375" y="24.831543" width="3.7939453" height="2"></rect><rect x="5.2734375" y="19.5395508" width="3.7939453" height="2"></rect><rect x="11.6064453" y="19.5395508" width="3.7949219" height="2"></rect><rect x="17.9394531" y="19.5395508" width="3.7949219" height="2"></rect><rect x="24.2734375" y="19.5395508" width="3.7939453" height="2"></rect><rect x="37.2060547" y="19.5395508" width="3.7939453" height="2"></rect><rect x="43.5390625" y="19.5395508" width="3.7949219" height="2"></rect><rect x="37.2060547" y="23.5395508" width="3.7939453" height="2"></rect><rect x="43.5390625" y="23.5395508" width="3.7949219" height="2"></rect><rect x="49.8720703" y="19.5395508" width="3.7949219" height="2"></rect><rect x="56.2060547" y="19.5395508" width="3.7939453" height="2"></rect><path d="M21.5976696,9.6586914H6.1699357v7.8798828h15.4277344V9.6586914z M19.5976696,15.5385742H8.1699362v-3.8798828h11.4277334   V15.5385742z"></path><path d="M43.1972809,16.5932617c1.6513672,0,2.9941406-1.34375,2.9941406-2.9951172s-1.3427734-2.9941406-2.9941406-2.9941406   c-1.6572266,0-3.0058594,1.3427734-3.0058594,2.9941406S41.5400543,16.5932617,43.1972809,16.5932617z M43.1972809,12.6040039   c0.5478516,0,0.9941406,0.4462891,0.9941406,0.9941406c0,0.5488281-0.4462891,0.9951172-0.9941406,0.9951172   c-0.5546875,0-1.0058594-0.4462891-1.0058594-0.9951172C42.1914215,13.050293,42.6425934,12.6040039,43.1972809,12.6040039z"></path><path d="M54.0195465,16.5932617c1.6513672,0,2.9941406-1.34375,2.9941406-2.9951172s-1.3427734-2.9941406-2.9941406-2.9941406   c-1.6572266,0-3.0058594,1.3427734-3.0058594,2.9941406S52.3623199,16.5932617,54.0195465,16.5932617z M54.0195465,12.6040039   c0.5478516,0,0.9941406,0.4462891,0.9941406,0.9941406c0,0.5488281-0.4462891,0.9951172-0.9941406,0.9951172   c-0.5546875,0-1.0058594-0.4462891-1.0058594-0.9951172C53.0136871,13.050293,53.464859,12.6040039,54.0195465,12.6040039z"></path><path d="M59.3271637,4.3735352h-2v1.2832031h-1.6601563V4.3735352h-2v1.2832031h-1.6601563V4.3735352h-2v1.2832031h-1.6601563   V4.3735352h-2v1.2832031h-1.6591797V4.3735352h-2v1.2832031H41.027359V4.3735352h-2v1.2832031h-1.6601563V4.3735352h-2v1.2832031   H1.0000141v55.9697266h64V5.6567383h-5.6728516V4.3735352z M63.0000153,59.6264648h-60V7.6567383h60V59.6264648z"></path></g></svg>