<svg height='300px' width='300px'  fill="#000000" xmlns="http://www.w3.org/2000/svg" xmlns:xlink="http://www.w3.org/1999/xlink" version="1.1" x="0px" y="0px" viewBox="0 0 68 68" enable-background="new 0 0 68 68" xml:space="preserve"><g><path d="M3.4931641,63.3544922h61.0136719c0.5527344,0,1-0.4477539,1-1c0-10.2023773,0-51.4533882,0-57.7089844H2.4931641   c0,12.4948788,0,46.2738953,0,57.7089844C2.4931641,62.9067383,2.9404297,63.3544922,3.4931641,63.3544922z M4.4931641,6.6455073   h59.0136719v6.3452144h-6.1210938V8.1416006h-2v4.8491211H48.171875v-2.8808594h-2v2.8808594h-7.2148438V9.1259756h-2v3.8647461   h-7.2138672v-1.8964844h-2v1.8964844h-7.2148438V8.1416006h-2v4.8491211h-7.2138672v-2.8808594h-2v2.8808594H4.4931641V6.6455073z    M63.5068359,33.7944336H4.4931641V14.994628h59.0136719V33.7944336z M4.4931641,61.3544922V35.7944336h59.0136719v25.5600586   H4.4931641z"></path><polygon points="9.3759766,38.3154297 7.3759766,38.3154297 7.3759766,42.9741211 6.3017578,42.9741211 6.3017578,44.9741211    7.3759766,44.9741211 7.3759766,58.4897461 9.3759766,58.4897461 9.3759766,44.9741211 10.4511719,44.9741211    10.4511719,42.9741211 9.3759766,42.9741211  "></polygon><polygon points="15.7822266,38.3154297 13.7822266,38.3154297 13.7822266,47.8945313 12.7070313,47.8945313 12.7070313,49.8945313    13.7822266,49.8945313 13.7822266,58.4897461 15.7822266,58.4897461 15.7822266,49.8945313 16.8574219,49.8945313    16.8574219,47.8945313 15.7822266,47.8945313  "></polygon><polygon points="22.1884766,38.3154297 20.1884766,38.3154297 20.1884766,50.8466797 19.1132813,50.8466797 19.1132813,52.8466797    20.1884766,52.8466797 20.1884766,58.4897461 22.1884766,58.4897461 22.1884766,52.8466797 23.2626953,52.8466797    23.2626953,50.8466797 22.1884766,50.8466797  "></polygon><polygon points="28.59375,38.3154297 26.59375,38.3154297 26.59375,53.7993164 25.5195313,53.7993164 25.5195313,55.7993164    26.59375,55.7993164 26.59375,58.4897461 28.59375,58.4897461 28.59375,55.7993164 29.6689453,55.7993164 29.6689453,53.7993164    28.59375,53.7993164  "></polygon><polygon points="35,38.3154297 33,38.3154297 33,49.862793 31.9248047,49.862793 31.9248047,51.862793 33,51.862793 33,58.4897461    35,58.4897461 35,51.862793 36.0742188,51.862793 36.0742188,49.862793 35,49.862793  "></polygon><polygon points="41.4052734,38.3154297 39.4052734,38.3154297 39.4052734,46.9106445 38.3310547,46.9106445 38.3310547,48.9106445    39.4052734,48.9106445 39.4052734,58.4897461 41.4052734,58.4897461 41.4052734,48.9106445 42.4804688,48.9106445    42.4804688,46.9106445 41.4052734,46.9106445  "></polygon><polygon points="47.8115234,38.3154297 45.8115234,38.3154297 45.8115234,44.9423828 44.7363281,44.9423828 44.7363281,46.9423828    45.8115234,46.9423828 45.8115234,58.4897461 47.8115234,58.4897461 47.8115234,46.9423828 48.8867188,46.9423828    48.8867188,44.9423828 47.8115234,44.9423828  "></polygon><polygon points="54.2177734,38.3154297 52.2177734,38.3154297 52.2177734,41.9902344 51.1425781,41.9902344 51.1425781,43.9902344    52.2177734,43.9902344 52.2177734,58.4897461 54.2177734,58.4897461 54.2177734,43.9902344 55.2919922,43.9902344    55.2919922,41.9902344 54.2177734,41.9902344  "></polygon><polygon points="60.6230469,38.3154297 58.6230469,38.3154297 58.6230469,39.0375977 57.5478516,39.0375977 57.5478516,41.0375977    58.6230469,41.0375977 58.6230469,58.4897461 60.6230469,58.4897461 60.6230469,41.0375977 61.6982422,41.0375977    61.6982422,39.0375977 60.6230469,39.0375977  "></polygon><path d="M10.3144531,25.5893555h0.0009766c1.9443359,0,3.5273438-1.5820313,3.5283203-3.527832   c0-1.9453125-1.5830078-3.5288086-3.5292969-3.5302734c-1.9443359,0-3.5283203,1.5820313-3.5292969,3.527832   C6.7851563,24.0048828,8.3681641,25.5888672,10.3144531,25.5893555z M10.1658325,20.5463257L9.5,21.4794922l1.6289063,1.1621094   l0.6685791-0.9370117c0.02771,0.1149292,0.0462646,0.2332153,0.0462646,0.3564453   c-0.0009766,0.8427734-0.6865234,1.5283203-1.5283203,1.5283203c-0.1001606,0-0.1021137,0-0.0019531,0   c-0.8427734-0.0004883-1.5283203-0.6870117-1.5283203-1.5297852C8.7860718,21.2677612,9.3943481,20.6223755,10.1658325,20.5463257z   "></path><path d="M19.5283203,25.5893555h0.0009766c1.9443359,0,3.5273438-1.5820313,3.5283203-3.5273438   s-1.5810547-3.5292969-3.5283203-3.5307617c-1.9443359,0-3.5283203,1.5820313-3.5292969,3.5273438   C15.9979839,24.0037041,17.5740108,25.5883427,19.5283203,25.5893555z M19.3796387,20.5463867l-0.6657715,0.9331055   l1.6289063,1.1621094l0.6688843-0.937439c0.0275879,0.1150513,0.0460815,0.2334595,0.0459595,0.3568726   c-0.0009766,0.8427734-0.6865234,1.5283203-1.5283203,1.5283203c-0.1001606,0-0.1021137,0-0.0019531,0   C18.6907845,23.5893555,18,22.9110565,18,22.0595703C18.0009155,21.2680664,18.6086426,20.6229248,19.3796387,20.5463867z"></path><path d="M28.7431641,25.5893555h0.0009766c1.9443359,0,3.5273438-1.5820313,3.5283203-3.527832   c0-1.9453125-1.5830078-3.5288086-3.5292969-3.5302734c-1.9443359,0-3.5283203,1.5820313-3.5292969,3.527832   C25.2138672,24.0048828,26.796875,25.5888672,28.7431641,25.5893555z M28.5945435,20.5463257l-0.6658325,0.9331665   l1.6289063,1.1621094l0.6685791-0.9370117c0.02771,0.1149292,0.0462646,0.2332153,0.0462646,0.3564453   c-0.0009766,0.8427734-0.6865234,1.5283203-1.5283203,1.5283203c-0.1001606,0-0.1021137,0-0.0019531,0   c-0.8427734-0.0004883-1.5283203-0.6870117-1.5283203-1.5297852   C27.2147827,21.2677612,27.8230591,20.6223755,28.5945435,20.5463257z"></path><path d="M37.9570313,25.5893555h0.0009766c1.9443359,0,3.5273438-1.5820313,3.5283203-3.5273438   c0.0009766-0.9423828-0.3662109-1.8286133-1.0332031-2.4956055c-0.6660156-0.6669922-1.5517578-1.034668-2.4951172-1.0351563   c-1.9462891,0-3.5292969,1.5825195-3.5292969,3.5273438C34.4266968,24.0037041,36.0027237,25.5883427,37.9570313,25.5893555z    M36.8769531,20.9790039c0.2531738-0.2527466,0.5805664-0.3989258,0.9318237-0.4331665l-0.6661987,0.9336548l1.6289063,1.1621094   l0.6688843-0.937439c0.0275879,0.1150513,0.0460815,0.2334595,0.0459595,0.3568726   c-0.0009766,0.8427734-0.6865234,1.5283203-1.5283203,1.5283203c-0.1001625,0-0.1021156,0-0.0019531,0   c-0.8308868,0-1.5273438-0.6727066-1.5273438-1.5302734C36.4287109,21.6513672,36.5878906,21.2680664,36.8769531,20.9790039z"></path><path d="M47.171875,25.5893555h0.0009766c1.9443359,0,3.5273438-1.5820313,3.5283203-3.527832   c0-1.9453125-1.5830078-3.5288086-3.5292969-3.5302734c-1.9443359,0-3.5283203,1.5820313-3.5292969,3.5273438   C43.640564,24.0011978,45.2140579,25.5883408,47.171875,25.5893555z M47.0232544,20.5463257l-0.6658325,0.9331665   l1.6289063,1.1621094l0.6685791-0.9370117c0.02771,0.1149292,0.0462646,0.2332153,0.0462646,0.3564453   c-0.0009766,0.8427734-0.6865234,1.5283203-1.5283203,1.5283203c-0.1001625,0-0.1021156,0-0.0019531,0   c-0.8380699,0-1.5283203-0.6783218-1.5283203-1.5297852C45.6434937,21.2677612,46.25177,20.6223755,47.0232544,20.5463257z"></path><path d="M56.3857422,25.5893555h0.0009766c1.9443359,0,3.5273438-1.5820313,3.5283203-3.5273438   s-1.5810547-3.5292969-3.5283203-3.5307617c-1.9462891,0-3.5292969,1.5825195-3.5292969,3.5273438   C52.8554077,24.0010738,54.427803,25.5883408,56.3857422,25.5893555z M55.3056641,20.9790039   c0.2531738-0.2527466,0.5805664-0.3989258,0.9318237-0.4331665l-0.6661987,0.9336548l1.6289063,1.1621094l0.6688843-0.937439   c0.0275879,0.1150513,0.0460815,0.2334595,0.0459595,0.3568726c-0.0009766,0.8427734-0.6865234,1.5283203-1.5283203,1.5283203   c-0.1001625,0-0.1021156,0-0.0019531,0c-0.8393135,0-1.5273438-0.6793728-1.5273438-1.5302734   C54.8574219,21.6513672,55.0166016,21.2680664,55.3056641,20.9790039z"></path><path d="M15.0917969,30.2573242c0.9423828,0,1.7089844-0.7666016,1.7089844-1.7084961s-0.7666016-1.7084961-1.7089844-1.7084961   c-0.9414063,0-1.7080078,0.7666016-1.7080078,1.7084961S14.1503906,30.2573242,15.0917969,30.2573242z M15.0917969,28.2573242   c0.1640625,0,0.2919922,0.1279297,0.2919922,0.2915039s-0.1279297,0.2915039-0.2919922,0.2915039   c-0.1582031,0-0.2910156-0.1333008-0.2910156-0.2915039S14.9335938,28.2573242,15.0917969,28.2573242z"></path><path d="M20.6865234,28.5488281c0,0.9418945,0.7666016,1.7084961,1.7089844,1.7084961   c0.9414063,0,1.7080078-0.7666016,1.7080078-1.7084961s-0.7666016-1.7084961-1.7080078-1.7084961   C21.453125,26.840332,20.6865234,27.6069336,20.6865234,28.5488281z M22.6865234,28.5488281   c0,0.1635742-0.1279297,0.2915039-0.2910156,0.2915039c-0.1582031,0-0.2919922-0.1333008-0.2919922-0.2915039   s0.1337891-0.2915039,0.2919922-0.2915039C22.5585938,28.2573242,22.6865234,28.3852539,22.6865234,28.5488281z"></path><path d="M29.6982422,26.840332c-0.9414063,0-1.7080078,0.7666016-1.7080078,1.7084961s0.7666016,1.7084961,1.7080078,1.7084961   c0.9423828,0,1.7089844-0.7666016,1.7089844-1.7084961S30.640625,26.840332,29.6982422,26.840332z M29.6982422,28.840332   c-0.1582031,0-0.2910156-0.1333008-0.2910156-0.2915039s0.1328125-0.2915039,0.2910156-0.2915039   c0.1640625,0,0.2919922,0.1279297,0.2919922,0.2915039S29.8623047,28.840332,29.6982422,28.840332z"></path><path d="M37.0019531,26.840332c-0.9423828,0-1.7089844,0.7666016-1.7089844,1.7084961s0.7666016,1.7084961,1.7089844,1.7084961   c0.9414063,0,1.7080078-0.7666016,1.7080078-1.7084961S37.9433594,26.840332,37.0019531,26.840332z M37.0019531,28.840332   c-0.1582031,0-0.2919922-0.1333008-0.2919922-0.2915039s0.1337891-0.2915039,0.2919922-0.2915039   c0.1630859,0,0.2910156,0.1279297,0.2910156,0.2915039S37.1650391,28.840332,37.0019531,28.840332z"></path><path d="M44.3056641,30.2573242c0.9414063,0,1.7080078-0.7666016,1.7080078-1.7084961s-0.7666016-1.7084961-1.7080078-1.7084961   c-0.9423828,0-1.7089844,0.7666016-1.7089844,1.7084961S43.3632813,30.2573242,44.3056641,30.2573242z M44.3056641,28.2573242   c0.1630859,0,0.2910156,0.1279297,0.2910156,0.2915039S44.46875,28.840332,44.3056641,28.840332   c-0.1582031,0-0.2919922-0.1333008-0.2919922-0.2915039S44.1474609,28.2573242,44.3056641,28.2573242z"></path><path d="M49.8994141,28.5488281c0,0.9418945,0.7666016,1.7084961,1.7089844,1.7084961s1.7089844-0.7666016,1.7089844-1.7084961   s-0.7666016-1.7084961-1.7089844-1.7084961S49.8994141,27.6069336,49.8994141,28.5488281z M51.6083984,28.2573242   c0.1630859,0,0.2910156,0.1279297,0.2910156,0.2915039s-0.1279297,0.2915039-0.2910156,0.2915039   c-0.1582031,0-0.2910156-0.1333008-0.2910156-0.2915039S51.4501953,28.2573242,51.6083984,28.2573242z"></path></g></svg>