<svg height='300px' width='300px'  fill="#000000" xmlns="http://www.w3.org/2000/svg" xmlns:xlink="http://www.w3.org/1999/xlink" version="1.1" x="0px" y="0px" viewBox="0 0 100 100" enable-background="new 0 0 100 100" xml:space="preserve"><path d="M26.962,35.871h-6.699c-0.521,0-0.945-0.424-0.945-0.945v-6.699c0-0.521,0.424-0.945,0.945-0.945h6.699  c0.521,0,0.945,0.424,0.945,0.945v6.699C27.907,35.447,27.484,35.871,26.962,35.871L26.962,35.871z M20.263,27.634  c-0.327,0-0.594,0.267-0.594,0.594v6.699c0,0.327,0.267,0.594,0.594,0.594h6.699c0.328,0,0.594-0.267,0.594-0.594v-6.699  c0-0.327-0.266-0.594-0.594-0.594H20.263L20.263,27.634z M37.267,35.871h-6.699c-0.521,0-0.945-0.424-0.945-0.945v-6.699  c0-0.521,0.424-0.945,0.945-0.945h6.699c0.521,0,0.945,0.424,0.945,0.945v6.699C38.212,35.447,37.788,35.871,37.267,35.871  L37.267,35.871z M30.568,27.634c-0.327,0-0.594,0.267-0.594,0.594v6.699c0,0.327,0.267,0.594,0.594,0.594h6.699  c0.327,0,0.594-0.267,0.594-0.594v-6.699c0-0.327-0.267-0.594-0.594-0.594H30.568L30.568,27.634z M47.572,35.871h-6.699  c-0.521,0-0.945-0.424-0.945-0.945v-6.699c0-0.521,0.424-0.945,0.945-0.945h6.699c0.521,0,0.945,0.424,0.945,0.945v6.699  C48.516,35.447,48.093,35.871,47.572,35.871L47.572,35.871z M40.873,27.634c-0.328,0-0.594,0.267-0.594,0.594v6.699  c0,0.327,0.267,0.594,0.594,0.594h6.699c0.327,0,0.594-0.267,0.594-0.594v-6.699c0-0.327-0.267-0.594-0.594-0.594H40.873  L40.873,27.634z M57.876,35.871h-6.698c-0.521,0-0.945-0.424-0.945-0.945v-6.699c0-0.521,0.424-0.945,0.945-0.945h6.698  c0.521,0,0.945,0.424,0.945,0.945v6.699C58.821,35.447,58.397,35.871,57.876,35.871L57.876,35.871z M51.177,27.634  c-0.328,0-0.594,0.267-0.594,0.594v6.699c0,0.327,0.266,0.594,0.594,0.594h6.698c0.327,0,0.594-0.267,0.594-0.594v-6.699  c0-0.327-0.267-0.594-0.594-0.594H51.177L51.177,27.634z M26.962,46.284h-6.699c-0.521,0-0.945-0.424-0.945-0.945V38.64  c0-0.521,0.424-0.945,0.945-0.945h6.699c0.521,0,0.945,0.424,0.945,0.945v6.699C27.907,45.859,27.484,46.284,26.962,46.284  L26.962,46.284z M20.263,38.046c-0.327,0-0.594,0.267-0.594,0.594v6.699c0,0.328,0.267,0.594,0.594,0.594h6.699  c0.328,0,0.594-0.266,0.594-0.594V38.64c0-0.327-0.266-0.594-0.594-0.594H20.263L20.263,38.046z M37.267,46.284h-6.699  c-0.521,0-0.945-0.424-0.945-0.945V38.64c0-0.521,0.424-0.945,0.945-0.945h6.699c0.521,0,0.945,0.424,0.945,0.945v6.699  C38.212,45.859,37.788,46.284,37.267,46.284L37.267,46.284z M30.568,38.046c-0.327,0-0.594,0.267-0.594,0.594v6.699  c0,0.328,0.267,0.594,0.594,0.594h6.699c0.327,0,0.594-0.266,0.594-0.594V38.64c0-0.327-0.267-0.594-0.594-0.594H30.568  L30.568,38.046z M47.572,46.284h-6.699c-0.521,0-0.945-0.424-0.945-0.945V38.64c0-0.521,0.424-0.945,0.945-0.945h6.699  c0.521,0,0.945,0.424,0.945,0.945v6.699C48.516,45.859,48.093,46.284,47.572,46.284L47.572,46.284z M40.873,38.046  c-0.328,0-0.594,0.267-0.594,0.594v6.699c0,0.328,0.267,0.594,0.594,0.594h6.699c0.327,0,0.594-0.266,0.594-0.594V38.64  c0-0.327-0.267-0.594-0.594-0.594H40.873L40.873,38.046z M57.876,46.284h-6.698c-0.521,0-0.945-0.424-0.945-0.945V38.64  c0-0.521,0.424-0.945,0.945-0.945h6.698c0.521,0,0.945,0.424,0.945,0.945v6.699C58.821,45.859,58.397,46.284,57.876,46.284  L57.876,46.284z M51.177,38.046c-0.328,0-0.594,0.267-0.594,0.594v6.699c0,0.328,0.266,0.594,0.594,0.594h6.698  c0.327,0,0.594-0.266,0.594-0.594V38.64c0-0.327-0.267-0.594-0.594-0.594H51.177L51.177,38.046z M65.967,46.284h-3.591  c-0.28,0-0.509-0.228-0.509-0.509v-1.787c0-0.28,0.229-0.509,0.509-0.509h3.591c0.28,0,0.509,0.229,0.509,0.509v1.787  C66.475,46.056,66.247,46.284,65.967,46.284L65.967,46.284z M62.376,43.831c-0.087,0-0.158,0.071-0.158,0.158v1.787  c0,0.087,0.071,0.158,0.158,0.158h3.591c0.087,0,0.157-0.071,0.157-0.158v-1.787c0-0.086-0.07-0.158-0.157-0.158H62.376  L62.376,43.831z M72.788,46.284h-3.591c-0.28,0-0.509-0.228-0.509-0.509v-1.787c0-0.28,0.229-0.509,0.509-0.509h3.591  c0.28,0,0.509,0.229,0.509,0.509v1.787C73.297,46.056,73.068,46.284,72.788,46.284L72.788,46.284z M69.197,43.831  c-0.087,0-0.158,0.071-0.158,0.158v1.787c0,0.087,0.071,0.158,0.158,0.158h3.591c0.087,0,0.157-0.071,0.157-0.158v-1.787  c0-0.086-0.07-0.158-0.157-0.158H69.197L69.197,43.831z M79.609,46.284h-3.591c-0.281,0-0.509-0.228-0.509-0.509v-1.787  c0-0.28,0.228-0.509,0.509-0.509h3.591c0.28,0,0.509,0.229,0.509,0.509v1.787C80.118,46.056,79.889,46.284,79.609,46.284  L79.609,46.284z M76.018,43.831c-0.087,0-0.158,0.071-0.158,0.158v1.787c0,0.087,0.071,0.158,0.158,0.158h3.591  c0.087,0,0.158-0.071,0.158-0.158v-1.787c0-0.086-0.071-0.158-0.158-0.158H76.018L76.018,43.831z M88.671,46.284H85.08  c-0.281,0-0.509-0.228-0.509-0.509v-1.787c0-0.28,0.228-0.509,0.509-0.509h3.591c0.28,0,0.509,0.229,0.509,0.509v1.787  C89.179,46.056,88.951,46.284,88.671,46.284L88.671,46.284z M85.08,43.831c-0.088,0-0.158,0.071-0.158,0.158v1.787  c0,0.087,0.07,0.158,0.158,0.158h3.591c0.087,0,0.157-0.071,0.157-0.158v-1.787c0-0.086-0.07-0.158-0.157-0.158H85.08L85.08,43.831z   M9.908,46.284H6.317c-0.28,0-0.508-0.228-0.508-0.509v-1.787c0-0.28,0.228-0.509,0.508-0.509h3.591  c0.281,0,0.509,0.229,0.509,0.509v1.787C10.417,46.056,10.189,46.284,9.908,46.284L9.908,46.284z M6.317,43.831  c-0.086,0-0.158,0.071-0.158,0.158v1.787c0,0.087,0.071,0.158,0.158,0.158h3.591c0.087,0,0.158-0.071,0.158-0.158v-1.787  c0-0.086-0.07-0.158-0.158-0.158H6.317L6.317,43.831z M9.908,42.254H6.317c-0.28,0-0.508-0.229-0.508-0.509v-1.787  c0-0.281,0.228-0.508,0.508-0.508h3.591c0.281,0,0.509,0.228,0.509,0.508v1.787C10.417,42.025,10.189,42.254,9.908,42.254  L9.908,42.254z M6.317,39.801c-0.086,0-0.158,0.071-0.158,0.158v1.787c0,0.086,0.071,0.158,0.158,0.158h3.591  c0.087,0,0.158-0.071,0.158-0.158v-1.787c0-0.087-0.07-0.158-0.158-0.158H6.317L6.317,39.801z M9.908,38.224H6.317  c-0.28,0-0.508-0.228-0.508-0.509v-1.787c0-0.28,0.228-0.508,0.508-0.508h3.591c0.281,0,0.509,0.228,0.509,0.508v1.787  C10.417,37.996,10.189,38.224,9.908,38.224L9.908,38.224z M6.317,35.771c-0.086,0-0.158,0.071-0.158,0.158v1.787  c0,0.087,0.071,0.158,0.158,0.158h3.591c0.087,0,0.158-0.07,0.158-0.158v-1.787c0-0.086-0.07-0.158-0.158-0.158H6.317L6.317,35.771z   M15.926,42.254h-3.591c-0.281,0-0.509-0.229-0.509-0.509v-1.787c0-0.281,0.228-0.508,0.509-0.508h3.591  c0.281,0,0.509,0.228,0.509,0.508v1.787C16.434,42.025,16.206,42.254,15.926,42.254L15.926,42.254z M12.335,39.801  c-0.087,0-0.158,0.071-0.158,0.158v1.787c0,0.086,0.071,0.158,0.158,0.158h3.591c0.087,0,0.158-0.071,0.158-0.158v-1.787  c0-0.087-0.071-0.158-0.158-0.158H12.335L12.335,39.801z M15.926,38.224h-3.591c-0.281,0-0.509-0.228-0.509-0.509v-1.787  c0-0.28,0.228-0.508,0.509-0.508h3.591c0.281,0,0.509,0.228,0.509,0.508v1.787C16.434,37.996,16.206,38.224,15.926,38.224  L15.926,38.224z M12.335,35.771c-0.087,0-0.158,0.071-0.158,0.158v1.787c0,0.087,0.071,0.158,0.158,0.158h3.591  c0.087,0,0.158-0.07,0.158-0.158v-1.787c0-0.086-0.071-0.158-0.158-0.158H12.335L12.335,35.771z M15.926,46.284h-3.591  c-0.28,0-0.509-0.228-0.509-0.509v-1.787c0-0.28,0.229-0.509,0.509-0.509h3.591c0.281,0,0.509,0.229,0.509,0.509v1.787  C16.434,46.056,16.206,46.284,15.926,46.284L15.926,46.284z M12.335,43.831c-0.087,0-0.158,0.071-0.158,0.158v1.787  c0,0.087,0.071,0.158,0.158,0.158h3.591c0.087,0,0.158-0.071,0.158-0.158v-1.787c0-0.086-0.071-0.158-0.158-0.158H12.335  L12.335,43.831z M61.888,38.666c0,1.258,1.024,2.282,2.282,2.282c1.259,0,2.282-1.024,2.282-2.282s-1.023-2.282-2.282-2.282  C62.913,36.383,61.888,37.407,61.888,38.666z M66.001,38.665c0,1.009-0.82,1.83-1.83,1.83c-1.009,0-1.83-0.821-1.83-1.83  c0-1.009,0.821-1.83,1.83-1.83S66.001,37.656,66.001,38.665z M63.197,37.874l1.026,0.717c0.024,0.018,0.038,0.045,0.038,0.074  c0,0.018-0.006,0.036-0.017,0.052c-0.028,0.041-0.085,0.051-0.126,0.022l-1.025-0.717c-0.112,0.188-0.179,0.408-0.179,0.643  c0,0.693,0.562,1.256,1.256,1.256s1.256-0.562,1.256-1.256c0-0.693-0.562-1.256-1.256-1.256  C63.777,37.409,63.427,37.591,63.197,37.874z M64.171,27.458c-1.258,0-2.282,1.023-2.282,2.282s1.024,2.282,2.282,2.282  c1.259,0,2.282-1.024,2.282-2.282S65.429,27.458,64.171,27.458z M64.171,31.57c-1.009,0-1.83-0.821-1.83-1.83  c0-1.009,0.821-1.83,1.83-1.83s1.83,0.821,1.83,1.83C66.001,30.749,65.179,31.57,64.171,31.57z M64.963,28.766l-0.718,1.026  c-0.018,0.025-0.046,0.039-0.074,0.039c-0.018,0-0.036-0.005-0.052-0.017c-0.041-0.029-0.051-0.085-0.022-0.125l0.718-1.026  c-0.188-0.112-0.408-0.178-0.644-0.178c-0.693,0-1.256,0.562-1.256,1.255c0,0.694,0.562,1.256,1.256,1.256s1.256-0.562,1.256-1.256  C65.427,29.347,65.246,28.996,64.963,28.766z M73.121,36.383c-1.258,0-2.281,1.024-2.281,2.282c0,1.258,1.023,2.282,2.281,2.282  c1.259,0,2.282-1.024,2.282-2.282C75.403,37.407,74.38,36.383,73.121,36.383z M73.121,40.495c-1.009,0-1.829-0.821-1.829-1.83  c0-1.009,0.82-1.83,1.829-1.83s1.83,0.821,1.83,1.83C74.951,39.674,74.13,40.495,73.121,40.495z M73.913,37.691l-0.718,1.026  c-0.018,0.025-0.046,0.039-0.074,0.039c-0.019,0-0.036-0.005-0.052-0.017c-0.041-0.028-0.051-0.085-0.022-0.126l0.718-1.025  c-0.188-0.113-0.408-0.179-0.644-0.179c-0.693,0-1.256,0.562-1.256,1.256c0,0.694,0.562,1.256,1.256,1.256s1.256-0.562,1.256-1.256  C74.377,38.271,74.195,37.921,73.913,37.691z M70.84,29.74c0,1.258,1.023,2.282,2.281,2.282s2.282-1.024,2.282-2.282  s-1.024-2.282-2.282-2.282C71.862,27.458,70.84,28.481,70.84,29.74z M74.951,29.74c0,1.009-0.821,1.83-1.83,1.83  s-1.829-0.821-1.829-1.83c-0.001-1.009,0.82-1.83,1.829-1.83S74.951,28.731,74.951,29.74z M72.146,28.948l1.026,0.717  c0.025,0.018,0.039,0.046,0.039,0.074c0,0.018-0.005,0.036-0.017,0.052c-0.029,0.041-0.085,0.051-0.126,0.022l-1.025-0.717  c-0.112,0.188-0.179,0.408-0.179,0.643c0,0.694,0.562,1.256,1.256,1.256s1.256-0.562,1.256-1.256c0-0.693-0.562-1.255-1.256-1.255  C72.727,28.484,72.377,28.665,72.146,28.948z M79.942,38.666c0,1.258,1.023,2.282,2.282,2.282c1.258,0,2.282-1.024,2.282-2.282  s-1.024-2.282-2.282-2.282S79.942,37.407,79.942,38.666z M84.054,38.666c0,1.009-0.821,1.83-1.83,1.83s-1.83-0.821-1.83-1.83  c0-1.009,0.821-1.83,1.83-1.83S84.054,37.656,84.054,38.666z M81.25,37.874l1.026,0.717c0.025,0.018,0.039,0.045,0.039,0.074  c0,0.018-0.006,0.036-0.017,0.052c-0.028,0.041-0.085,0.051-0.126,0.022l-1.025-0.717c-0.112,0.188-0.179,0.408-0.179,0.643  c0,0.693,0.562,1.256,1.256,1.256s1.256-0.562,1.256-1.256c0-0.693-0.562-1.256-1.256-1.256C81.831,37.409,81.48,37.59,81.25,37.874  z M82.224,27.458c-1.258,0-2.281,1.023-2.281,2.282s1.023,2.282,2.281,2.282s2.282-1.024,2.282-2.282S83.482,27.458,82.224,27.458z   M82.224,31.57c-1.009,0-1.83-0.821-1.83-1.83c0-1.009,0.821-1.83,1.83-1.83s1.83,0.821,1.83,1.83  C84.054,30.749,83.233,31.57,82.224,31.57z M83.016,28.766l-0.718,1.026c-0.018,0.025-0.046,0.039-0.074,0.039  c-0.019,0-0.036-0.005-0.052-0.017c-0.041-0.029-0.051-0.085-0.022-0.125l0.718-1.026c-0.189-0.112-0.408-0.178-0.644-0.178  c-0.693,0-1.256,0.562-1.256,1.255c0,0.694,0.562,1.256,1.256,1.256s1.256-0.562,1.256-1.256  C83.48,29.347,83.299,28.996,83.016,28.766z M91.285,36.383c-1.258,0-2.281,1.024-2.281,2.282c0,1.258,1.023,2.282,2.281,2.282  c1.259,0,2.282-1.024,2.282-2.282C93.567,37.407,92.544,36.383,91.285,36.383z M91.285,40.495c-1.009,0-1.829-0.821-1.829-1.83  c0-1.009,0.82-1.83,1.829-1.83c1.01,0,1.83,0.821,1.83,1.83C93.115,39.674,92.295,40.495,91.285,40.495z M92.077,37.691  l-0.718,1.026c-0.018,0.025-0.045,0.039-0.074,0.039c-0.018,0-0.035-0.005-0.051-0.017c-0.041-0.028-0.052-0.085-0.022-0.126  l0.717-1.025c-0.188-0.113-0.407-0.179-0.644-0.179c-0.693,0-1.255,0.562-1.255,1.256c0,0.694,0.562,1.256,1.255,1.256  c0.694,0,1.257-0.562,1.257-1.256C92.542,38.271,92.36,37.921,92.077,37.691z M89.004,29.74c0,1.258,1.023,2.282,2.282,2.282  c1.258,0,2.281-1.024,2.281-2.282s-1.023-2.282-2.281-2.282C90.027,27.458,89.004,28.481,89.004,29.74z M93.115,29.74  c0,1.009-0.82,1.83-1.829,1.83c-1.01,0-1.83-0.821-1.83-1.83s0.82-1.83,1.83-1.83C92.295,27.91,93.115,28.73,93.115,29.74z   M90.311,28.948l1.026,0.717c0.025,0.018,0.038,0.046,0.038,0.074c0,0.018-0.005,0.036-0.017,0.052  c-0.028,0.041-0.085,0.051-0.125,0.022l-1.025-0.717c-0.113,0.188-0.179,0.408-0.179,0.643c0,0.693,0.562,1.256,1.255,1.256  c0.694,0,1.257-0.562,1.257-1.256c0-0.693-0.562-1.256-1.256-1.255C90.892,28.484,90.542,28.665,90.311,28.948z M9.424,28.149  c-1.215,0.85-1.513,2.53-0.663,3.745c0.85,1.216,2.53,1.513,3.746,0.663c1.215-0.85,1.512-2.53,0.662-3.746  C12.319,27.597,10.639,27.299,9.424,28.149z M12.201,32.121c-0.974,0.681-2.322,0.443-3.003-0.532  c-0.681-0.974-0.443-2.322,0.532-3.003c0.974-0.682,2.321-0.443,3.003,0.531C13.414,30.091,13.175,31.438,12.201,32.121z   M11.072,28.877v1.476c0,0.037-0.018,0.068-0.045,0.087c-0.018,0.012-0.039,0.019-0.062,0.019c-0.059,0-0.106-0.047-0.106-0.106  l0-1.475c-0.258,0.019-0.514,0.103-0.741,0.262c-0.67,0.468-0.833,1.391-0.365,2.061s1.392,0.833,2.061,0.365  c0.669-0.469,0.833-1.392,0.364-2.061C11.912,29.125,11.5,28.909,11.072,28.877z M72.284,51.023h-2.387V63.9  c0,0.168,0.136,0.304,0.304,0.304h1.778c0.168,0,0.305-0.136,0.305-0.304V51.023z M78.298,51.023h-2.387V63.9  c0,0.168,0.136,0.304,0.304,0.304h1.778c0.168,0,0.305-0.136,0.305-0.304V51.023z M54.191,51.023h-2.386V63.9  c0,0.168,0.136,0.304,0.304,0.304h1.778c0.168,0,0.304-0.136,0.304-0.304V51.023z M60.205,51.023h-2.387V63.9  c0,0.168,0.136,0.304,0.304,0.304H59.9c0.169,0,0.305-0.136,0.305-0.304V51.023z M11.86,51.023H9.473V63.9  c0,0.168,0.136,0.304,0.304,0.304h1.779c0.167,0,0.304-0.136,0.304-0.304V51.023z M17.873,51.023h-2.387V63.9  c0,0.168,0.136,0.304,0.304,0.304h1.778c0.168,0,0.304-0.136,0.304-0.304V51.023z M84.369,51.023h-2.387V63.9  c0,0.168,0.137,0.304,0.305,0.304h1.778c0.168,0,0.304-0.136,0.304-0.304V51.023z M29.952,51.023h-2.387V63.9  c0,0.168,0.136,0.304,0.304,0.304h1.779c0.168,0,0.304-0.136,0.304-0.304V51.023z M35.966,51.023h-2.387V63.9  c0,0.168,0.136,0.304,0.304,0.304h1.778c0.167,0,0.304-0.136,0.304-0.304V51.023z M95.815,24.138H4.185  c-1.194,0-2.166,0.971-2.166,2.166v47.393c0,1.194,0.972,2.165,2.166,2.165h91.63c1.194,0,2.165-0.971,2.165-2.165V26.304  C97.98,25.109,97.01,24.138,95.815,24.138z M95.71,75.511H4.227V51.363h0.61v21.428c0,0.168,0.136,0.305,0.304,0.305h5.042  c0.168,0,0.304-0.136,0.304-0.304v-8.193H9.052V51.363h3.278v13.235h-1.437v8.193c0,0.168,0.136,0.304,0.303,0.304h5.043  c0.168,0,0.304-0.137,0.304-0.305v-8.192h-1.43V51.363h3.18v13.235h-1.437v8.193c0,0.168,0.136,0.304,0.304,0.304h5.043  c0.167,0,0.304-0.137,0.304-0.305V51.363h0.421v21.428c0,0.168,0.136,0.305,0.304,0.305h5.042c0.168,0,0.304-0.136,0.304-0.304  v-8.193h-1.437V51.363h3.278v13.235h-1.437v8.193c0,0.168,0.136,0.304,0.304,0.304h5.043c0.167,0,0.304-0.137,0.304-0.305v-8.192  h-1.431V51.363h3.272v13.235h-1.437v8.193c0,0.168,0.136,0.304,0.304,0.304h5.043c0.167,0,0.304-0.137,0.304-0.305v-8.192h-1.43  V51.363h3.271v13.235h-1.437v8.193c0,0.168,0.136,0.304,0.304,0.304h5.043c0.168,0,0.304-0.137,0.304-0.305V51.363h0.421v21.428  c0,0.168,0.136,0.305,0.304,0.305h5.043c0.168,0,0.304-0.136,0.304-0.304v-8.193h-1.437V51.363h3.278v13.235h-1.437v8.193  c0,0.168,0.136,0.304,0.304,0.304h5.043c0.168,0,0.304-0.137,0.304-0.305v-8.192h-1.43V51.363h3.18v13.235h-1.437v8.193  c0,0.168,0.137,0.304,0.305,0.304h5.043c0.168,0,0.304-0.137,0.304-0.305V51.363h0.421v21.428c0,0.168,0.137,0.305,0.305,0.305  h5.042c0.168,0,0.305-0.136,0.305-0.304v-8.193h-1.438V51.363h3.278v13.235h-1.437v8.193c0,0.168,0.137,0.304,0.304,0.304h5.043  c0.168,0,0.305-0.137,0.305-0.305v-8.192h-1.431V51.363h3.271v13.235h-1.437v8.193c0,0.168,0.137,0.304,0.305,0.304h5.043  c0.168,0,0.304-0.137,0.304-0.305v-8.192h-1.431V51.363h3.272v13.235h-1.438v8.193c0,0.168,0.137,0.304,0.305,0.304h5.042  c0.168,0,0.305-0.137,0.305-0.305V51.363h0.405v13.235v8.193c0,0.168,0.136,0.304,0.304,0.304h5.043  c0.168,0,0.304-0.136,0.304-0.304V51.363h0.574V75.511z M9.052,64.95h1.085v7.795l-4.949-0.001V51.375h3.512v13.224v0.352H9.052z   M15.115,64.95h1.079v7.794l-4.948,0.001V64.95h1.085h0.351v-0.352V51.375h2.083v13.224v0.352H15.115z M22.158,51.375v21.369  l-4.949,0.001V64.95h1.086h0.351v-0.352V51.375H22.158z M27.144,64.95h1.085v7.795l-4.949-0.001V51.375h3.513v13.224v0.352H27.144z   M33.206,64.95h1.08v7.794l-4.949,0.001V64.95h1.085h0.351v-0.352V51.375h2.082v13.224v0.352H33.206z M39.262,64.95h1.079v7.794  l-4.949,0.001V64.95h1.086h0.351v-0.352V51.375h2.082v13.224v0.352H39.262z M46.397,51.375v21.369l-4.949,0.001V64.95h1.085h0.351  v-0.352V51.375H46.397z M51.384,64.95h1.086v7.795l-4.949-0.001V51.375h3.513v13.224v0.352H51.384z M57.446,64.95h1.079v7.794  l-4.949,0.001V64.95h1.086h0.351v-0.352V51.375h2.082v13.224v0.352H57.446z M64.49,51.375v21.369l-4.949,0.001V64.95h1.085h0.352  v-0.352V51.375H64.49z M69.475,64.95h1.086v7.795l-4.948-0.001V51.375h3.512v13.224v0.352H69.475z M75.538,64.95h1.079v7.794  l-4.949,0.001V64.95h1.086h0.352v-0.352V51.375h2.082v13.224v0.352H75.538z M81.594,64.95h1.08v7.794l-4.949,0.001V64.95h1.085  h0.352v-0.352V51.375h2.082v13.224v0.352H81.594z M88.728,51.375v21.369l-4.948,0.001V64.95h1.086h0.351v-0.352V51.375H88.728z   M94.785,51.375v21.37h-4.949v-8.146V51.375h2.162H94.785z M97.63,73.696c0,0.917-0.685,1.677-1.569,1.798V51.013H3.876v24.472  c-0.854-0.147-1.506-0.893-1.506-1.788V26.304c0-1,0.814-1.814,1.815-1.814h91.63c1,0,1.814,0.814,1.814,1.814V73.696z   M42.038,51.023h-2.387V63.9c0,0.168,0.136,0.304,0.304,0.304h1.779c0.168,0,0.304-0.136,0.304-0.304V51.023z"></path></svg>