<svg height='300px' width='300px'  fill="#000000" xmlns="http://www.w3.org/2000/svg" xmlns:xlink="http://www.w3.org/1999/xlink" version="1.1" x="0px" y="0px" viewBox="0 0 100 100" enable-background="new 0 0 100 100" xml:space="preserve"><path d="M50,33.7c1.119,0,1.9-0.781,1.9-1.899c0-1.119-0.781-1.9-1.9-1.9c-1.119,0-1.9,0.781-1.9,1.9  C48.1,32.919,48.881,33.7,50,33.7z M51.9,41.601c0-1.119-0.781-1.9-1.9-1.9c-1.119,0-1.9,0.781-1.9,1.9v13.1h3.8V41.601z M50,70.101  c1.119,0,1.9-0.781,1.9-1.9v-3.3h-3.8v3.3C48.1,69.319,48.881,70.101,50,70.101z M30.4,19.7c1.119,0,1.9-0.781,1.9-1.899  c0-1.119-0.781-1.9-1.9-1.9s-1.9,0.781-1.9,1.9C28.5,18.919,29.282,19.7,30.4,19.7z M30.4,26.7c1.119,0,1.9-0.781,1.9-1.899  c0-1.119-0.781-1.9-1.9-1.9s-1.9,0.781-1.9,1.9C28.5,25.919,29.282,26.7,30.4,26.7z M69.6,19.7c1.119,0,1.9-0.781,1.9-1.899  c0-1.119-0.781-1.9-1.9-1.9c-1.118,0-1.899,0.781-1.899,1.9C67.7,18.919,68.481,19.7,69.6,19.7z M69.6,26.7  c1.119,0,1.9-0.781,1.9-1.899c0-1.119-0.781-1.9-1.9-1.9c-1.118,0-1.899,0.781-1.899,1.9C67.7,25.919,68.481,26.7,69.6,26.7z   M50,26.7c1.119,0,1.9-0.781,1.9-1.899c0-1.119-0.781-1.9-1.9-1.9c-1.119,0-1.9,0.781-1.9,1.9C48.1,25.919,48.881,26.7,50,26.7z   M69.6,33.7c1.119,0,1.9-0.781,1.9-1.899c0-1.119-0.781-1.9-1.9-1.9c-1.118,0-1.899,0.781-1.899,1.9  C67.7,32.919,68.481,33.7,69.6,33.7z M50,19.7c1.119,0,1.9-0.781,1.9-1.899c0-1.119-0.781-1.9-1.9-1.9c-1.119,0-1.9,0.781-1.9,1.9  C48.1,18.919,48.881,19.7,50,19.7z M71.5,41.601c0-1.119-0.781-1.9-1.9-1.9c-1.118,0-1.899,0.781-1.899,1.9v13.1h3.8V41.601z   M47.2,63.101h5.601c1.818,0,3.299-1.48,3.299-3.301c0-1.819-1.48-3.299-3.299-3.299H47.2c-1.819,0-3.3,1.479-3.3,3.299  C43.9,61.62,45.381,63.101,47.2,63.101z M72.4,76.101h-5.6c-1.82,0-3.301,1.48-3.301,3.3v2.8c0,1.82,1.48,3.301,3.301,3.301h5.6  c1.819,0,3.3-1.48,3.3-3.301v-2.8C75.7,77.581,74.22,76.101,72.4,76.101z M71.9,81.7h-4.6v-1.8h4.6V81.7z M71.5,68.2v-3.3h-3.8v3.3  c0,1.119,0.781,1.9,1.899,1.9C70.719,70.101,71.5,69.319,71.5,68.2z M50,74.7c-1.819,0-3.3,1.48-3.3,3.301v5.6  c0,1.819,1.48,3.3,3.3,3.3c1.82,0,3.301-1.48,3.301-3.3v-5.6C53.301,76.181,51.82,74.7,50,74.7z M58.4,78.9H55.1v3.8H58.4  c1.119,0,1.9-0.781,1.9-1.9C60.301,79.682,59.52,78.9,58.4,78.9z M72.4,56.501h-5.6c-1.82,0-3.301,1.479-3.301,3.299  c0,1.82,1.48,3.301,3.301,3.301h5.6c1.819,0,3.3-1.48,3.3-3.301C75.7,57.98,74.22,56.501,72.4,56.501z M80.8,4.7H19.2  c-3.363,0-6.1,2.736-6.1,6.101V89.2c0,3.363,2.736,6.1,6.1,6.1h63c2.986,0,4.699-2.224,4.699-6.1V10.801  C86.899,7.437,84.163,4.7,80.8,4.7z M83.101,89.2c0,1.269-1.032,2.301-2.301,2.301H19.2c-1.268,0-2.3-1.032-2.3-2.301V10.801  c0-1.269,1.032-2.301,2.3-2.301h61.6c1.269,0,2.301,1.032,2.301,2.301V89.2z M30.4,33.7c1.119,0,1.9-0.781,1.9-1.899  c0-1.119-0.781-1.9-1.9-1.9s-1.9,0.781-1.9,1.9C28.5,32.919,29.282,33.7,30.4,33.7z M39.7,80.8c0,1.119,0.781,1.9,1.9,1.9h3.3v-3.8  h-3.3C40.481,78.9,39.7,79.682,39.7,80.8z M32.3,41.601c0-1.119-0.781-1.9-1.9-1.9s-1.9,0.781-1.9,1.9v13.1h3.8V41.601z   M30.4,77.501c-2.221,0-3.3,1.079-3.3,3.299c0,2.252,1.049,3.301,3.3,3.301s3.3-1.049,3.3-3.301  C33.7,78.549,32.652,77.501,30.4,77.501z M33.2,56.501h-5.6c-1.819,0-3.3,1.479-3.3,3.299c0,1.82,1.48,3.301,3.3,3.301h5.6  c1.819,0,3.3-1.48,3.3-3.301C36.5,57.98,35.02,56.501,33.2,56.501z M32.3,68.2v-3.3h-3.8v3.3c0,1.119,0.781,1.9,1.9,1.9  S32.3,69.319,32.3,68.2z"></path></svg>