<svg height='300px' width='300px'  fill="#000000" xmlns="http://www.w3.org/2000/svg" xmlns:xlink="http://www.w3.org/1999/xlink" version="1.1" x="0px" y="0px" viewBox="0 0 100 100" enable-background="new 0 0 100 100" xml:space="preserve"><path d="M97.305,67.992c0,5.906-4.79,10.697-10.696,10.697H13.394c-5.91,0-10.7-4.791-10.7-10.697V32.007  c0-5.907,4.79-10.697,10.7-10.697h73.215c5.906,0,10.696,4.79,10.696,10.697V67.992z M54.835,59.967h-3.982V29.556  c0-0.623-0.439-1.127-0.98-1.127c-0.542,0-0.98,0.504-0.98,1.127v30.411h-3.983v2.371h3.983v8.102c0,0.623,0.439,1.131,0.98,1.131  c0.541,0,0.98-0.508,0.98-1.131v-8.102h3.982V59.967z M17.84,37.308h-3.983v-7.752c0-0.623-0.439-1.127-0.98-1.127  c-0.541,0-0.98,0.504-0.98,1.127v7.752H7.913v2.369h3.983v30.762c0,0.623,0.439,1.131,0.98,1.131c0.542,0,0.98-0.508,0.98-1.131  V39.677h3.983V37.308z M42.505,49.509h-3.983V29.556c0-0.623-0.439-1.127-0.98-1.127c-0.541,0-0.98,0.504-0.98,1.127v19.953h-3.986  v2.37h3.986v18.561c0,0.623,0.439,1.131,0.98,1.131c0.542,0,0.98-0.508,0.98-1.131V51.879h3.983V49.509z M30.174,65.197h-3.983  V29.556c0-0.623-0.439-1.127-0.98-1.127c-0.542,0-0.98,0.504-0.98,1.127v35.641h-3.987v2.369h3.987v2.873  c0,0.623,0.439,1.131,0.98,1.131c0.541,0,0.98-0.508,0.98-1.131v-2.873h3.983V65.197z M67.169,37.308h-3.983v-7.752  c0-0.623-0.439-1.127-0.98-1.127s-0.98,0.504-0.98,1.127v7.752h-3.986v2.369h3.986v30.762c0,0.623,0.439,1.131,0.98,1.131  s0.98-0.508,0.98-1.131V39.677h3.983V37.308z M79.5,46.023h-3.983V29.556c0-0.623-0.439-1.127-0.98-1.127s-0.98,0.504-0.98,1.127  v16.467h-3.983v2.37h3.983v22.046c0,0.623,0.439,1.131,0.98,1.131s0.98-0.508,0.98-1.131V48.393H79.5V46.023z M87.936,28.429  c-1.804,0-3.268,1.464-3.268,3.269c0,1.804,1.464,3.268,3.268,3.268c1.805,0,3.269-1.464,3.269-3.268  C91.204,29.893,89.74,28.429,87.936,28.429z M87.936,37.581c-1.804,0-3.268,1.464-3.268,3.268c0,1.805,1.464,3.269,3.268,3.269  c1.805,0,3.269-1.464,3.269-3.269C91.204,39.044,89.74,37.581,87.936,37.581z M91.204,48.406c0-1.014-0.779-1.834-1.743-1.834H86.41  c-0.963,0-1.742,0.82-1.742,1.834v21.329c0,1.016,0.779,1.836,1.742,1.836h3.051c0.964,0,1.743-0.82,1.743-1.836V48.406z   M86.567,48.733v4.494h-1.304v4.035h1.304v12.143h0.983V48.733H86.567z M89.301,69.404V64.91h1.304v-4.029h-1.304V48.737h-0.983  v20.667H89.301z"></path></svg>