<svg height='300px' width='300px'  fill="#000000" xmlns="http://www.w3.org/2000/svg" viewBox="0 0 283.46 283.46" x="0px" y="0px"><title>instrument</title><g data-name="Ebene 2"><path d="M67.11,198H216.35a12,12,0,0,0,12-12V97.42a12,12,0,0,0-12-12H67.11a12,12,0,0,0-12,12V186A12,12,0,0,0,67.11,198Zm0-12V134.23h17.1v26.21a6,6,0,0,0,12,0V134.23h10v26.21a6,6,0,1,0,12,0V134.23h24v26.21a6,6,0,1,0,12,0V134.23h10.35v26.21a6,6,0,0,0,12,0V134.23h10v26.21a6,6,0,0,0,12,0V134.23h17.75V186Zm131.58-77.22a5.5,5.5,0,1,1-5.5-5.5A5.5,5.5,0,0,1,198.69,108.83Zm-22.55,0a5.5,5.5,0,1,1-5.5-5.5A5.5,5.5,0,0,1,176.14,108.83Z"></path></g></svg>