<svg height='300px' width='300px'  fill="#000000" xmlns="http://www.w3.org/2000/svg" xmlns:xlink="http://www.w3.org/1999/xlink" version="1.1" x="0px" y="0px" viewBox="0 0 100 100" enable-background="new 0 0 100 100" xml:space="preserve"><path d="M89.6,23.7v1.6H10.4v-1.6H5v52.7h5.4v-1.6h79.3v1.6H95V23.7H89.6z M9.4,75.4H6V24.6h3.4v0.6v49.5V75.4z M10.4,73.8V26.2  h79.3v47.5H10.4z M94,75.4h-3.4v-0.6V25.3v-0.6H94V75.4z"></path><path d="M15.6,64.3h-1.8c-0.7,0-1.2,0.5-1.2,1.2v3.8c0,0.7,0.5,1.2,1.2,1.2h1.8c0.7,0,1.2-0.5,1.2-1.2v-3.8  C16.8,64.9,16.2,64.3,15.6,64.3z M15.8,69.3c0,0.1-0.1,0.2-0.2,0.2h-1.8c-0.1,0-0.2-0.1-0.2-0.2v-3.8c0-0.1,0.1-0.2,0.2-0.2h1.8  c0.1,0,0.2,0.1,0.2,0.2V69.3z"></path><circle cx="14.7" cy="66.2" r="0.5"></circle><path d="M20.3,64.3h-1.8c-0.7,0-1.2,0.5-1.2,1.2v3.8c0,0.7,0.5,1.2,1.2,1.2h1.8c0.7,0,1.2-0.5,1.2-1.2v-3.8  C21.5,64.9,21,64.3,20.3,64.3z M20.5,69.3c0,0.1-0.1,0.2-0.2,0.2h-1.8c-0.1,0-0.2-0.1-0.2-0.2v-3.8c0-0.1,0.1-0.2,0.2-0.2h1.8  c0.1,0,0.2,0.1,0.2,0.2V69.3z"></path><circle cx="19.4" cy="66.2" r="0.5"></circle><path d="M25,64.3h-1.8c-0.7,0-1.2,0.5-1.2,1.2v3.8c0,0.7,0.5,1.2,1.2,1.2H25c0.7,0,1.2-0.5,1.2-1.2v-3.8  C26.2,64.9,25.7,64.3,25,64.3z M25.2,69.3c0,0.1-0.1,0.2-0.2,0.2h-1.8c-0.1,0-0.2-0.1-0.2-0.2v-3.8c0-0.1,0.1-0.2,0.2-0.2H25  c0.1,0,0.2,0.1,0.2,0.2V69.3z"></path><circle cx="24.1" cy="66.2" r="0.5"></circle><path d="M29.7,64.3H28c-0.7,0-1.2,0.5-1.2,1.2v3.8c0,0.7,0.5,1.2,1.2,1.2h1.8c0.7,0,1.2-0.5,1.2-1.2v-3.8  C30.9,64.9,30.4,64.3,29.7,64.3z M29.9,69.3c0,0.1-0.1,0.2-0.2,0.2H28c-0.1,0-0.2-0.1-0.2-0.2v-3.8c0-0.1,0.1-0.2,0.2-0.2h1.8  c0.1,0,0.2,0.1,0.2,0.2V69.3z"></path><circle cx="28.8" cy="66.2" r="0.5"></circle><path d="M34.4,64.3h-1.8c-0.7,0-1.2,0.5-1.2,1.2v3.8c0,0.7,0.5,1.2,1.2,1.2h1.8c0.7,0,1.2-0.5,1.2-1.2v-3.8  C35.6,64.9,35.1,64.3,34.4,64.3z M34.6,69.3c0,0.1-0.1,0.2-0.2,0.2h-1.8c-0.1,0-0.2-0.1-0.2-0.2v-3.8c0-0.1,0.1-0.2,0.2-0.2h1.8  c0.1,0,0.2,0.1,0.2,0.2V69.3z"></path><circle cx="33.5" cy="66.2" r="0.5"></circle><path d="M39.1,64.3h-1.8c-0.7,0-1.2,0.5-1.2,1.2v3.8c0,0.7,0.5,1.2,1.2,1.2h1.8c0.7,0,1.2-0.5,1.2-1.2v-3.8  C40.3,64.9,39.8,64.3,39.1,64.3z M39.3,69.3c0,0.1-0.1,0.2-0.2,0.2h-1.8c-0.1,0-0.2-0.1-0.2-0.2v-3.8c0-0.1,0.1-0.2,0.2-0.2h1.8  c0.1,0,0.2,0.1,0.2,0.2V69.3z"></path><circle cx="38.2" cy="66.2" r="0.5"></circle><path d="M43.8,64.3h-1.8c-0.7,0-1.2,0.5-1.2,1.2v3.8c0,0.7,0.5,1.2,1.2,1.2h1.8c0.7,0,1.2-0.5,1.2-1.2v-3.8  C45,64.9,44.5,64.3,43.8,64.3z M44,69.3c0,0.1-0.1,0.2-0.2,0.2h-1.8c-0.1,0-0.2-0.1-0.2-0.2v-3.8c0-0.1,0.1-0.2,0.2-0.2h1.8  c0.1,0,0.2,0.1,0.2,0.2V69.3z"></path><circle cx="42.9" cy="66.2" r="0.5"></circle><path d="M48.5,64.3h-1.8c-0.7,0-1.2,0.5-1.2,1.2v3.8c0,0.7,0.5,1.2,1.2,1.2h1.8c0.7,0,1.2-0.5,1.2-1.2v-3.8  C49.7,64.9,49.2,64.3,48.5,64.3z M48.7,69.3c0,0.1-0.1,0.2-0.2,0.2h-1.8c-0.1,0-0.2-0.1-0.2-0.2v-3.8c0-0.1,0.1-0.2,0.2-0.2h1.8  c0.1,0,0.2,0.1,0.2,0.2V69.3z"></path><circle cx="47.6" cy="66.2" r="0.5"></circle><path d="M53.2,64.3h-1.8c-0.7,0-1.2,0.5-1.2,1.2v3.8c0,0.7,0.5,1.2,1.2,1.2h1.8c0.7,0,1.2-0.5,1.2-1.2v-3.8  C54.4,64.9,53.9,64.3,53.2,64.3z M53.4,69.3c0,0.1-0.1,0.2-0.2,0.2h-1.8c-0.1,0-0.2-0.1-0.2-0.2v-3.8c0-0.1,0.1-0.2,0.2-0.2h1.8  c0.1,0,0.2,0.1,0.2,0.2V69.3z"></path><circle cx="52.4" cy="66.2" r="0.5"></circle><path d="M57.9,64.3h-1.8c-0.7,0-1.2,0.5-1.2,1.2v3.8c0,0.7,0.5,1.2,1.2,1.2h1.8c0.7,0,1.2-0.5,1.2-1.2v-3.8  C59.1,64.9,58.6,64.3,57.9,64.3z M58.1,69.3c0,0.1-0.1,0.2-0.2,0.2h-1.8c-0.1,0-0.2-0.1-0.2-0.2v-3.8c0-0.1,0.1-0.2,0.2-0.2h1.8  c0.1,0,0.2,0.1,0.2,0.2V69.3z"></path><circle cx="57.1" cy="66.2" r="0.5"></circle><path d="M62.6,64.3h-1.8c-0.7,0-1.2,0.5-1.2,1.2v3.8c0,0.7,0.5,1.2,1.2,1.2h1.8c0.7,0,1.2-0.5,1.2-1.2v-3.8  C63.8,64.9,63.3,64.3,62.6,64.3z M62.8,69.3c0,0.1-0.1,0.2-0.2,0.2h-1.8c-0.1,0-0.2-0.1-0.2-0.2v-3.8c0-0.1,0.1-0.2,0.2-0.2h1.8  c0.1,0,0.2,0.1,0.2,0.2V69.3z"></path><circle cx="61.8" cy="66.2" r="0.5"></circle><path d="M67.3,64.3h-1.8c-0.7,0-1.2,0.5-1.2,1.2v3.8c0,0.7,0.5,1.2,1.2,1.2h1.8c0.7,0,1.2-0.5,1.2-1.2v-3.8  C68.5,64.9,68,64.3,67.3,64.3z M67.5,69.3c0,0.1-0.1,0.2-0.2,0.2h-1.8c-0.1,0-0.2-0.1-0.2-0.2v-3.8c0-0.1,0.1-0.2,0.2-0.2h1.8  c0.1,0,0.2,0.1,0.2,0.2V69.3z"></path><circle cx="66.5" cy="66.2" r="0.5"></circle><path d="M72,64.3h-1.8c-0.7,0-1.2,0.5-1.2,1.2v3.8c0,0.7,0.5,1.2,1.2,1.2H72c0.7,0,1.2-0.5,1.2-1.2v-3.8  C73.2,64.9,72.7,64.3,72,64.3z M72.3,69.3c0,0.1-0.1,0.2-0.2,0.2h-1.8c-0.1,0-0.2-0.1-0.2-0.2v-3.8c0-0.1,0.1-0.2,0.2-0.2H72  c0.1,0,0.2,0.1,0.2,0.2V69.3z"></path><circle cx="71.2" cy="66.2" r="0.5"></circle><path d="M76.8,64.3H75c-0.7,0-1.2,0.5-1.2,1.2v3.8c0,0.7,0.5,1.2,1.2,1.2h1.8c0.7,0,1.2-0.5,1.2-1.2v-3.8  C77.9,64.9,77.4,64.3,76.8,64.3z M77,69.3c0,0.1-0.1,0.2-0.2,0.2H75c-0.1,0-0.2-0.1-0.2-0.2v-3.8c0-0.1,0.1-0.2,0.2-0.2h1.8  c0.1,0,0.2,0.1,0.2,0.2V69.3z"></path><circle cx="75.9" cy="66.2" r="0.5"></circle><path d="M81.5,64.3h-1.8c-0.7,0-1.2,0.5-1.2,1.2v3.8c0,0.7,0.5,1.2,1.2,1.2h1.8c0.7,0,1.2-0.5,1.2-1.2v-3.8  C82.6,64.9,82.1,64.3,81.5,64.3z M81.7,69.3c0,0.1-0.1,0.2-0.2,0.2h-1.8c-0.1,0-0.2-0.1-0.2-0.2v-3.8c0-0.1,0.1-0.2,0.2-0.2h1.8  c0.1,0,0.2,0.1,0.2,0.2V69.3z"></path><circle cx="80.6" cy="66.2" r="0.5"></circle><path d="M86.2,64.3h-1.8c-0.7,0-1.2,0.5-1.2,1.2v3.8c0,0.7,0.5,1.2,1.2,1.2h1.8c0.7,0,1.2-0.5,1.2-1.2v-3.8  C87.3,64.9,86.8,64.3,86.2,64.3z M86.4,69.3c0,0.1-0.1,0.2-0.2,0.2h-1.8c-0.1,0-0.2-0.1-0.2-0.2v-3.8c0-0.1,0.1-0.2,0.2-0.2h1.8  c0.1,0,0.2,0.1,0.2,0.2V69.3z"></path><circle cx="85.3" cy="66.2" r="0.5"></circle><path d="M27.9,55.2H72c0.7,0,1.2-0.5,1.2-1.2v-1.8c0-0.7-0.5-1.2-1.2-1.2H27.9c-0.7,0-1.2,0.5-1.2,1.2V54  C26.7,54.7,27.2,55.2,27.9,55.2z M27.7,52.3c0-0.1,0.1-0.2,0.2-0.2H72c0.1,0,0.2,0.1,0.2,0.2V54c0,0.1-0.1,0.2-0.2,0.2H27.9  c-0.1,0-0.2-0.1-0.2-0.2V52.3z"></path><path d="M27.9,60.4H72c0.7,0,1.2-0.5,1.2-1.2v-1.8c0-0.7-0.5-1.2-1.2-1.2H27.9c-0.7,0-1.2,0.5-1.2,1.2v1.8  C26.7,59.9,27.2,60.4,27.9,60.4z M27.7,57.5c0-0.1,0.1-0.2,0.2-0.2H72c0.1,0,0.2,0.1,0.2,0.2v1.8c0,0.1-0.1,0.2-0.2,0.2H27.9  c-0.1,0-0.2-0.1-0.2-0.2V57.5z"></path><path d="M23,59.2v-6.9c0-0.7-0.5-1.2-1.2-1.2h-8c-0.7,0-1.2,0.5-1.2,1.2v6.9c0,0.7,0.5,1.2,1.2,1.2h8C22.5,60.4,23,59.9,23,59.2z   M22.1,59.2c0,0.1-0.1,0.2-0.2,0.2h-8c-0.1,0-0.2-0.1-0.2-0.2v-6.9c0-0.1,0.1-0.2,0.2-0.2h8c0.1,0,0.2,0.1,0.2,0.2V59.2z"></path><path d="M86.2,51.1h-8c-0.7,0-1.2,0.5-1.2,1.2v6.9c0,0.7,0.5,1.2,1.2,1.2h8c0.7,0,1.2-0.5,1.2-1.2v-6.9  C87.3,51.6,86.8,51.1,86.2,51.1z M86.4,59.2c0,0.1-0.1,0.2-0.2,0.2h-8c-0.1,0-0.2-0.1-0.2-0.2v-6.9c0-0.1,0.1-0.2,0.2-0.2h8  c0.1,0,0.2,0.1,0.2,0.2V59.2z"></path><path d="M19.7,53.7H16c-0.7,0-1.2,0.5-1.2,1.2v1.8c0,0.7,0.5,1.2,1.2,1.2h3.8c0.7,0,1.2-0.5,1.2-1.2v-1.8  C20.9,54.2,20.4,53.7,19.7,53.7z M19.9,56.6c0,0.1-0.1,0.2-0.2,0.2H16c-0.1,0-0.2-0.1-0.2-0.2v-1.8c0-0.1,0.1-0.2,0.2-0.2h3.8  c0.1,0,0.2,0.1,0.2,0.2V56.6z"></path><path d="M84,53.7h-3.8c-0.7,0-1.2,0.5-1.2,1.2v1.8c0,0.7,0.5,1.2,1.2,1.2H84c0.7,0,1.2-0.5,1.2-1.2v-1.8  C85.2,54.2,84.7,53.7,84,53.7z M84.2,56.6c0,0.1-0.1,0.2-0.2,0.2h-3.8c-0.1,0-0.2-0.1-0.2-0.2v-1.8c0-0.1,0.1-0.2,0.2-0.2H84  c0.1,0,0.2,0.1,0.2,0.2V56.6z"></path><path d="M17.8,47.2c2.9,0,5.2-2.3,5.2-5.2c0-2.9-2.3-5.2-5.2-5.2c-2.9,0-5.2,2.3-5.2,5.2C12.7,44.9,15,47.2,17.8,47.2z M17.8,37.8  c1,0,1.9,0.3,2.6,0.9L19,40.1c-0.2,0.2-0.2,0.5,0,0.7c0.1,0.1,0.2,0.1,0.3,0.1s0.3,0,0.3-0.1l1.4-1.4c0.6,0.7,0.9,1.6,0.9,2.6  c0,2.3-1.9,4.2-4.2,4.2c-2.3,0-4.2-1.9-4.2-4.2S15.5,37.8,17.8,37.8z"></path><path d="M19,33.6C19,33.6,19,33.6,19,33.6c0.4,0.4,1,0.7,1.7,0.7c1.3,0,2.4-1.1,2.4-2.4c0-1.3-1.1-2.4-2.4-2.4s-2.4,1.1-2.4,2.4  C18.3,32.6,18.5,33.2,19,33.6C19,33.6,19,33.6,19,33.6z M20.7,30.5c0.8,0,1.4,0.6,1.4,1.4c0,0.8-0.6,1.4-1.4,1.4  c-0.2,0-0.4,0-0.6-0.1l0.7-0.7c0.2-0.2,0.2-0.5,0-0.7c-0.2-0.2-0.5-0.2-0.7,0l-0.7,0.7c-0.1-0.2-0.1-0.4-0.1-0.6  C19.2,31.1,19.9,30.5,20.7,30.5z"></path><path d="M15,34.3c1.3,0,2.4-1.1,2.4-2.4c0-0.7-0.3-1.2-0.7-1.7c0,0,0,0,0,0s0,0,0,0c-0.4-0.4-1-0.7-1.7-0.7c-1.3,0-2.4,1.1-2.4,2.4  C12.7,33.2,13.7,34.3,15,34.3z M15,30.5c0.2,0,0.4,0,0.6,0.1L15,31.3c-0.2,0.2-0.2,0.5,0,0.7c0.1,0.1,0.2,0.1,0.3,0.1s0.3,0,0.3-0.1  l0.7-0.7c0.1,0.2,0.1,0.4,0.1,0.6c0,0.8-0.6,1.4-1.4,1.4s-1.4-0.6-1.4-1.4C13.6,31.1,14.3,30.5,15,30.5z"></path><path d="M27.9,47.2h3.8c0.7,0,1.2-0.5,1.2-1.2v-0.7c0-0.7-0.5-1.2-1.2-1.2h-3.8c-0.7,0-1.2,0.5-1.2,1.2V46  C26.7,46.7,27.2,47.2,27.9,47.2z M27.7,45.3c0-0.1,0.1-0.2,0.2-0.2h3.8c0.1,0,0.2,0.1,0.2,0.2V46c0,0.1-0.1,0.2-0.2,0.2h-3.8  c-0.1,0-0.2-0.1-0.2-0.2V45.3z"></path><path d="M86.2,44.2h-3.8c-0.7,0-1.2,0.5-1.2,1.2V46c0,0.7,0.5,1.2,1.2,1.2h3.8c0.7,0,1.2-0.5,1.2-1.2v-0.7  C87.3,44.7,86.8,44.2,86.2,44.2z M86.4,46c0,0.1-0.1,0.2-0.2,0.2h-3.8c-0.1,0-0.2-0.1-0.2-0.2v-0.7c0-0.1,0.1-0.2,0.2-0.2h3.8  c0.1,0,0.2,0.1,0.2,0.2V46z"></path><path d="M75.6,47.2h3.8c0.7,0,1.2-0.5,1.2-1.2v-0.7c0-0.7-0.5-1.2-1.2-1.2h-3.8c-0.7,0-1.2,0.5-1.2,1.2V46  C74.4,46.7,74.9,47.2,75.6,47.2z M75.4,45.3c0-0.1,0.1-0.2,0.2-0.2h3.8c0.1,0,0.2,0.1,0.2,0.2V46c0,0.1-0.1,0.2-0.2,0.2h-3.8  c-0.1,0-0.2-0.1-0.2-0.2V45.3z"></path><path d="M72.5,44.2h-3.8c-0.7,0-1.2,0.5-1.2,1.2V46c0,0.7,0.5,1.2,1.2,1.2h3.8c0.7,0,1.2-0.5,1.2-1.2v-0.7  C73.7,44.7,73.2,44.2,72.5,44.2z M72.7,46c0,0.1-0.1,0.2-0.2,0.2h-3.8c-0.1,0-0.2-0.1-0.2-0.2v-0.7c0-0.1,0.1-0.2,0.2-0.2h3.8  c0.1,0,0.2,0.1,0.2,0.2V46z"></path><path d="M62,47.2h3.8c0.7,0,1.2-0.5,1.2-1.2v-0.7c0-0.7-0.5-1.2-1.2-1.2H62c-0.7,0-1.2,0.5-1.2,1.2V46C60.8,46.7,61.3,47.2,62,47.2z   M61.8,45.3c0-0.1,0.1-0.2,0.2-0.2h3.8c0.1,0,0.2,0.1,0.2,0.2V46c0,0.1-0.1,0.2-0.2,0.2H62c-0.1,0-0.2-0.1-0.2-0.2V45.3z"></path><path d="M55.1,47.2h3.8c0.7,0,1.2-0.5,1.2-1.2v-0.7c0-0.7-0.5-1.2-1.2-1.2h-3.8c-0.7,0-1.2,0.5-1.2,1.2V46  C54,46.7,54.5,47.2,55.1,47.2z M54.9,45.3c0-0.1,0.1-0.2,0.2-0.2h3.8c0.1,0,0.2,0.1,0.2,0.2V46c0,0.1-0.1,0.2-0.2,0.2h-3.8  c-0.1,0-0.2-0.1-0.2-0.2V45.3z"></path><path d="M48.3,47.2h3.8c0.7,0,1.2-0.5,1.2-1.2v-0.7c0-0.7-0.5-1.2-1.2-1.2h-3.8c-0.7,0-1.2,0.5-1.2,1.2V46  C47.1,46.7,47.7,47.2,48.3,47.2z M48.1,45.3c0-0.1,0.1-0.2,0.2-0.2h3.8c0.1,0,0.2,0.1,0.2,0.2V46c0,0.1-0.1,0.2-0.2,0.2h-3.8  c-0.1,0-0.2-0.1-0.2-0.2V45.3z"></path><path d="M41.5,47.2h3.8c0.7,0,1.2-0.5,1.2-1.2v-0.7c0-0.7-0.5-1.2-1.2-1.2h-3.8c-0.7,0-1.2,0.5-1.2,1.2V46  C40.3,46.7,40.9,47.2,41.5,47.2z M41.3,45.3c0-0.1,0.1-0.2,0.2-0.2h3.8c0.1,0,0.2,0.1,0.2,0.2V46c0,0.1-0.1,0.2-0.2,0.2h-3.8  c-0.1,0-0.2-0.1-0.2-0.2V45.3z"></path><path d="M72.5,39.9h-3.8c-0.7,0-1.2,0.5-1.2,1.2v0.7c0,0.7,0.5,1.2,1.2,1.2h3.8c0.7,0,1.2-0.5,1.2-1.2v-0.7  C73.7,40.4,73.2,39.9,72.5,39.9z M72.7,41.7c0,0.1-0.1,0.2-0.2,0.2h-3.8c-0.1,0-0.2-0.1-0.2-0.2v-0.7c0-0.1,0.1-0.2,0.2-0.2h3.8  c0.1,0,0.2,0.1,0.2,0.2V41.7z"></path><path d="M62,42.9h3.8c0.7,0,1.2-0.5,1.2-1.2v-0.7c0-0.7-0.5-1.2-1.2-1.2H62c-0.7,0-1.2,0.5-1.2,1.2v0.7C60.8,42.4,61.3,42.9,62,42.9  z M61.8,41.1c0-0.1,0.1-0.2,0.2-0.2h3.8c0.1,0,0.2,0.1,0.2,0.2v0.7c0,0.1-0.1,0.2-0.2,0.2H62c-0.1,0-0.2-0.1-0.2-0.2V41.1z"></path><path d="M55.1,42.9h3.8c0.7,0,1.2-0.5,1.2-1.2v-0.7c0-0.7-0.5-1.2-1.2-1.2h-3.8c-0.7,0-1.2,0.5-1.2,1.2v0.7  C54,42.4,54.5,42.9,55.1,42.9z M54.9,41.1c0-0.1,0.1-0.2,0.2-0.2h3.8c0.1,0,0.2,0.1,0.2,0.2v0.7c0,0.1-0.1,0.2-0.2,0.2h-3.8  c-0.1,0-0.2-0.1-0.2-0.2V41.1z"></path><path d="M48.3,42.9h3.8c0.7,0,1.2-0.5,1.2-1.2v-0.7c0-0.7-0.5-1.2-1.2-1.2h-3.8c-0.7,0-1.2,0.5-1.2,1.2v0.7  C47.1,42.4,47.7,42.9,48.3,42.9z M48.1,41.1c0-0.1,0.1-0.2,0.2-0.2h3.8c0.1,0,0.2,0.1,0.2,0.2v0.7c0,0.1-0.1,0.2-0.2,0.2h-3.8  c-0.1,0-0.2-0.1-0.2-0.2V41.1z"></path><path d="M41.5,42.9h3.8c0.7,0,1.2-0.5,1.2-1.2v-0.7c0-0.7-0.5-1.2-1.2-1.2h-3.8c-0.7,0-1.2,0.5-1.2,1.2v0.7  C40.3,42.4,40.9,42.9,41.5,42.9z M41.3,41.1c0-0.1,0.1-0.2,0.2-0.2h3.8c0.1,0,0.2,0.1,0.2,0.2v0.7c0,0.1-0.1,0.2-0.2,0.2h-3.8  c-0.1,0-0.2-0.1-0.2-0.2V41.1z"></path><path d="M34.7,47.2h3.8c0.7,0,1.2-0.5,1.2-1.2v-0.7c0-0.7-0.5-1.2-1.2-1.2h-3.8c-0.7,0-1.2,0.5-1.2,1.2V46  C33.5,46.7,34.1,47.2,34.7,47.2z M34.5,45.3c0-0.1,0.1-0.2,0.2-0.2h3.8c0.1,0,0.2,0.1,0.2,0.2V46c0,0.1-0.1,0.2-0.2,0.2h-3.8  c-0.1,0-0.2-0.1-0.2-0.2V45.3z"></path><path d="M36.6,33.5c0.9,0,1.6-0.7,1.6-1.6c0-0.9-0.7-1.6-1.6-1.6S35,31,35,31.9C35,32.8,35.7,33.5,36.6,33.5z M36.6,31.3  c0.3,0,0.6,0.3,0.6,0.6c0,0.3-0.3,0.6-0.6,0.6S36,32.2,36,31.9C36,31.6,36.3,31.3,36.6,31.3z"></path><path d="M43.4,33.5c0.9,0,1.6-0.7,1.6-1.6c0-0.9-0.7-1.6-1.6-1.6s-1.6,0.7-1.6,1.6C41.8,32.8,42.5,33.5,43.4,33.5z M43.4,31.3  c0.3,0,0.6,0.3,0.6,0.6c0,0.3-0.3,0.6-0.6,0.6s-0.6-0.3-0.6-0.6C42.8,31.6,43.1,31.3,43.4,31.3z"></path><path d="M50.2,33.5c0.9,0,1.6-0.7,1.6-1.6c0-0.9-0.7-1.6-1.6-1.6c-0.9,0-1.6,0.7-1.6,1.6C48.6,32.8,49.3,33.5,50.2,33.5z M50.2,31.3  c0.3,0,0.6,0.3,0.6,0.6c0,0.3-0.3,0.6-0.6,0.6s-0.6-0.3-0.6-0.6C49.6,31.6,49.9,31.3,50.2,31.3z"></path><path d="M57,33.5c0.9,0,1.6-0.7,1.6-1.6c0-0.9-0.7-1.6-1.6-1.6c-0.9,0-1.6,0.7-1.6,1.6C55.4,32.8,56.2,33.5,57,33.5z M57,31.3  c0.3,0,0.6,0.3,0.6,0.6c0,0.3-0.3,0.6-0.6,0.6s-0.6-0.3-0.6-0.6C56.4,31.6,56.7,31.3,57,31.3z"></path><path d="M63.8,33.5c0.9,0,1.6-0.7,1.6-1.6c0-0.9-0.7-1.6-1.6-1.6s-1.6,0.7-1.6,1.6C62.3,32.8,63,33.5,63.8,33.5z M63.8,31.3  c0.3,0,0.6,0.3,0.6,0.6c0,0.3-0.3,0.6-0.6,0.6s-0.6-0.3-0.6-0.6C63.2,31.6,63.5,31.3,63.8,31.3z"></path><path d="M70.7,33.5c0.9,0,1.6-0.7,1.6-1.6c0-0.9-0.7-1.6-1.6-1.6c-0.9,0-1.6,0.7-1.6,1.6C69.1,32.8,69.8,33.5,70.7,33.5z M70.7,31.3  c0.3,0,0.6,0.3,0.6,0.6c0,0.3-0.3,0.6-0.6,0.6c-0.3,0-0.6-0.3-0.6-0.6C70,31.6,70.3,31.3,70.7,31.3z"></path><path d="M77.5,33.5c0.9,0,1.6-0.7,1.6-1.6c0-0.9-0.7-1.6-1.6-1.6s-1.6,0.7-1.6,1.6C75.9,32.8,76.6,33.5,77.5,33.5z M77.5,31.3  c0.3,0,0.6,0.3,0.6,0.6c0,0.3-0.3,0.6-0.6,0.6s-0.6-0.3-0.6-0.6C76.9,31.6,77.1,31.3,77.5,31.3z"></path><path d="M84.3,33.5c0.9,0,1.6-0.7,1.6-1.6c0-0.9-0.7-1.6-1.6-1.6s-1.6,0.7-1.6,1.6C82.7,32.8,83.4,33.5,84.3,33.5z M84.3,31.3  c0.3,0,0.6,0.3,0.6,0.6c0,0.3-0.3,0.6-0.6,0.6s-0.6-0.3-0.6-0.6C83.7,31.6,83.9,31.3,84.3,31.3z"></path><path d="M29.8,33.5c0.9,0,1.6-0.7,1.6-1.6c0-0.9-0.7-1.6-1.6-1.6c-0.9,0-1.6,0.7-1.6,1.6C28.2,32.8,28.9,33.5,29.8,33.5z M29.8,31.3  c0.3,0,0.6,0.3,0.6,0.6c0,0.3-0.3,0.6-0.6,0.6c-0.3,0-0.6-0.3-0.6-0.6C29.2,31.6,29.5,31.3,29.8,31.3z"></path><path d="M36.6,38.3c0.9,0,1.6-0.7,1.6-1.6c0-0.9-0.7-1.6-1.6-1.6S35,35.8,35,36.7C35,37.5,35.7,38.3,36.6,38.3z M36.6,36  c0.3,0,0.6,0.3,0.6,0.6s-0.3,0.6-0.6,0.6S36,37,36,36.7S36.3,36,36.6,36z"></path><path d="M43.4,38.3c0.9,0,1.6-0.7,1.6-1.6c0-0.9-0.7-1.6-1.6-1.6s-1.6,0.7-1.6,1.6C41.8,37.5,42.5,38.3,43.4,38.3z M43.4,36  c0.3,0,0.6,0.3,0.6,0.6s-0.3,0.6-0.6,0.6s-0.6-0.3-0.6-0.6S43.1,36,43.4,36z"></path><path d="M50.2,38.3c0.9,0,1.6-0.7,1.6-1.6c0-0.9-0.7-1.6-1.6-1.6c-0.9,0-1.6,0.7-1.6,1.6C48.6,37.5,49.3,38.3,50.2,38.3z M50.2,36  c0.3,0,0.6,0.3,0.6,0.6s-0.3,0.6-0.6,0.6s-0.6-0.3-0.6-0.6S49.9,36,50.2,36z"></path><path d="M57,38.3c0.9,0,1.6-0.7,1.6-1.6c0-0.9-0.7-1.6-1.6-1.6c-0.9,0-1.6,0.7-1.6,1.6C55.4,37.5,56.2,38.3,57,38.3z M57,36  c0.3,0,0.6,0.3,0.6,0.6s-0.3,0.6-0.6,0.6s-0.6-0.3-0.6-0.6S56.7,36,57,36z"></path><path d="M63.8,38.3c0.9,0,1.6-0.7,1.6-1.6c0-0.9-0.7-1.6-1.6-1.6s-1.6,0.7-1.6,1.6C62.3,37.5,63,38.3,63.8,38.3z M63.8,36  c0.3,0,0.6,0.3,0.6,0.6s-0.3,0.6-0.6,0.6s-0.6-0.3-0.6-0.6S63.5,36,63.8,36z"></path><path d="M70.7,38.3c0.9,0,1.6-0.7,1.6-1.6c0-0.9-0.7-1.6-1.6-1.6c-0.9,0-1.6,0.7-1.6,1.6C69.1,37.5,69.8,38.3,70.7,38.3z M70.7,36  c0.3,0,0.6,0.3,0.6,0.6s-0.3,0.6-0.6,0.6c-0.3,0-0.6-0.3-0.6-0.6S70.3,36,70.7,36z"></path><path d="M77.5,38.3c0.9,0,1.6-0.7,1.6-1.6c0-0.9-0.7-1.6-1.6-1.6s-1.6,0.7-1.6,1.6C75.9,37.5,76.6,38.3,77.5,38.3z M77.5,36  c0.3,0,0.6,0.3,0.6,0.6s-0.3,0.6-0.6,0.6s-0.6-0.3-0.6-0.6S77.1,36,77.5,36z"></path><path d="M84.3,38.3c0.9,0,1.6-0.7,1.6-1.6c0-0.9-0.7-1.6-1.6-1.6s-1.6,0.7-1.6,1.6C82.7,37.5,83.4,38.3,84.3,38.3z M84.3,36  c0.3,0,0.6,0.3,0.6,0.6s-0.3,0.6-0.6,0.6s-0.6-0.3-0.6-0.6S83.9,36,84.3,36z"></path><path d="M29.8,38.3c0.9,0,1.6-0.7,1.6-1.6c0-0.9-0.7-1.6-1.6-1.6c-0.9,0-1.6,0.7-1.6,1.6C28.2,37.5,28.9,38.3,29.8,38.3z M29.8,36  c0.3,0,0.6,0.3,0.6,0.6s-0.3,0.6-0.6,0.6c-0.3,0-0.6-0.3-0.6-0.6S29.5,36,29.8,36z"></path><path d="M36.6,43c0.9,0,1.6-0.7,1.6-1.6c0-0.9-0.7-1.6-1.6-1.6S35,40.5,35,41.4C35,42.3,35.7,43,36.6,43z M36.6,40.8  c0.3,0,0.6,0.3,0.6,0.6S36.9,42,36.6,42S36,41.8,36,41.4S36.3,40.8,36.6,40.8z"></path><path d="M77.5,43c0.9,0,1.6-0.7,1.6-1.6c0-0.9-0.7-1.6-1.6-1.6s-1.6,0.7-1.6,1.6C75.9,42.3,76.6,43,77.5,43z M77.5,40.8  c0.3,0,0.6,0.3,0.6,0.6S77.8,42,77.5,42s-0.6-0.3-0.6-0.6S77.1,40.8,77.5,40.8z"></path><path d="M84.3,43c0.9,0,1.6-0.7,1.6-1.6c0-0.9-0.7-1.6-1.6-1.6s-1.6,0.7-1.6,1.6C82.7,42.3,83.4,43,84.3,43z M84.3,40.8  c0.3,0,0.6,0.3,0.6,0.6S84.6,42,84.3,42s-0.6-0.3-0.6-0.6S83.9,40.8,84.3,40.8z"></path><path d="M29.8,43c0.9,0,1.6-0.7,1.6-1.6c0-0.9-0.7-1.6-1.6-1.6c-0.9,0-1.6,0.7-1.6,1.6C28.2,42.3,28.9,43,29.8,43z M29.8,40.8  c0.3,0,0.6,0.3,0.6,0.6S30.1,42,29.8,42c-0.3,0-0.6-0.3-0.6-0.6S29.5,40.8,29.8,40.8z"></path></svg>