<svg height='300px' width='300px'  fill="#000000" xmlns="http://www.w3.org/2000/svg" xmlns:xlink="http://www.w3.org/1999/xlink" version="1.1" x="0px" y="0px" viewBox="0 0 497.3 382" style="enable-background:new 0 0 497.3 382;" xml:space="preserve"><g><path d="M464.7,0h-432C14.7,0,0,14.7,0,32.7v316.6c0,18,14.7,32.7,32.7,32.7h431.9c18,0,32.7-14.7,32.7-32.7V32.7   C497.4,14.7,482.7,0,464.7,0z M32.7,20h432v0c6.9,0,12.7,5.8,12.7,12.7V100H20V32.7C20,25.8,25.8,20,32.7,20z M464.7,362h-432   c-6.9,0-12.7-5.8-12.7-12.7V120h457.4v229.3C477.4,356.2,471.6,362,464.7,362z"></path><path d="M153.2,230.8h59.4c8.1,0,14.8-6.6,14.8-14.8v-60.9c0-8.1-6.6-14.8-14.8-14.8h-59.4c-8.1,0-14.8,6.6-14.8,14.8v60.9   C138.4,224.2,145,230.8,153.2,230.8z"></path><path d="M212.6,251.1h-59.4c-8.1,0-14.8,6.6-14.8,14.8v60.9c0,8.1,6.6,14.8,14.8,14.8h59.4c8.1,0,14.8-6.6,14.8-14.8v-60.9   C227.4,257.7,220.8,251.1,212.6,251.1z M207.4,321.5h-48.9v-50.4h48.9V321.5z"></path><path d="M321.8,140.4h-59.4c-8.1,0-14.8,6.6-14.8,14.8v60.9c0,8.1,6.6,14.8,14.8,14.8h59.4c8.1,0,14.8-6.6,14.8-14.8v-60.9   C336.5,147,329.9,140.4,321.8,140.4z M316.5,210.8h-48.9v-50.4h48.9V210.8z"></path><path d="M321.8,251.1h-59.4c-8.1,0-14.8,6.6-14.8,14.8v60.9c0,8.1,6.6,14.8,14.8,14.8h59.4c8.1,0,14.8-6.6,14.8-14.8v-60.9   C336.5,257.7,329.9,251.1,321.8,251.1z"></path><path d="M430.9,140.4h-59.4c-8.1,0-14.8,6.6-14.8,14.8v60.9c0,8.1,6.6,14.8,14.8,14.8h59.4c8.1,0,14.8-6.6,14.8-14.8v-60.9   C445.7,147,439,140.4,430.9,140.4z M425.7,210.8h-48.9v-50.4h48.9V210.8z"></path><path d="M430.9,251.1h-59.4c-8.1,0-14.8,6.6-14.8,14.8v60.9c0,8.1,6.6,14.8,14.8,14.8h59.4c8.1,0,14.8-6.6,14.8-14.8v-60.9   C445.7,257.7,439,251.1,430.9,251.1z"></path><circle cx="216.3" cy="60.8" r="11.1"></circle><circle cx="361.8" cy="60.8" r="11.1"></circle><circle cx="289" cy="60.8" r="11.1"></circle><circle cx="434.6" cy="60.8" r="11.1"></circle><circle cx="79.8" cy="166.6" r="22.2"></circle><circle cx="79.8" cy="241" r="22.2"></circle><circle cx="79.8" cy="315.3" r="22.2"></circle><path d="M60.4,77.6h101.4c5.8,0,10.6-4.7,10.6-10.6V54.5c0-5.8-4.7-10.6-10.6-10.6H60.4c-5.8,0-10.6,4.7-10.6,10.6V67   C49.8,72.8,54.5,77.6,60.4,77.6z"></path></g></svg>