<svg height='300px' width='300px'  fill="#000000" xmlns="http://www.w3.org/2000/svg" xmlns:xlink="http://www.w3.org/1999/xlink" version="1.1" x="0px" y="0px" viewBox="0 0 64 64" style="enable-background:new 0 0 64 64;" xml:space="preserve"><g><circle cx="57" cy="7" r="2"></circle><circle cx="57" cy="15" r="2"></circle><circle cx="51" cy="7" r="2"></circle><circle cx="51" cy="15" r="2"></circle><circle cx="45" cy="7" r="2"></circle><circle cx="45" cy="15" r="2"></circle><path d="M64,18V3c0-1.7-1.3-3-3-3H3C1.3,0,0,1.3,0,3v19h62v39c0,0.6-0.4,1-1,1h-5V50h1V24h-1h-2h-1v26h1v12h-7V50h1V24h-1h-2h-1v26   h1v12h-7V50h1V24h-1h-2h-1v26h1v12h-7V24h-2v38h-7V50h1V24h-1h-2h-1v26h1v12h-7V50h1V24h-1H9H8v26h1v12H3c-0.6,0-1-0.4-1-1V24H0v37   c0,1.7,1.3,3,3,3h58c1.7,0,3-1.3,3-3V20H2V3c0-0.6,0.4-1,1-1h58c0.6,0,1,0.4,1,1v15H64z"></path><rect x="5" y="5" width="2" height="2"></rect><rect x="9" y="5" width="2" height="2"></rect><path d="M5,17h12V9H5V17z M7,11h8v4H7V11z"></path><polygon points="24,17 24,15 26,15 26,13 24,13 24,5 22,5 22,13 20,13 20,15 22,15 22,17  "></polygon><polygon points="31,17 31,9 33,9 33,7 31,7 31,5 29,5 29,7 27,7 27,9 29,9 29,17  "></polygon><polygon points="38,17 38,13 40,13 40,11 38,11 38,5 36,5 36,11 34,11 34,13 36,13 36,17  "></polygon></g></svg>