<svg height='300px' width='300px'  fill="#000000" xmlns="http://www.w3.org/2000/svg" xmlns:xlink="http://www.w3.org/1999/xlink" version="1.1" x="0px" y="0px" viewBox="0 0 100 100" style="enable-background:new 0 0 100 100;" xml:space="preserve"><g><path d="M41.301,37.555c-3.838,0-6.96,3.123-6.96,6.96s3.123,6.96,6.96,6.96s6.96-3.123,6.96-6.96S45.139,37.555,41.301,37.555z    M41.301,48.476c-2.184,0-3.96-1.777-3.96-3.96s1.777-3.96,3.96-3.96s3.96,1.777,3.96,3.96S43.485,48.476,41.301,48.476z"></path><path d="M17.486,44.515c0,2.733,2.224,4.957,4.957,4.957c2.733,0,4.957-2.224,4.957-4.957s-2.224-4.957-4.957-4.957   C19.71,39.559,17.486,41.782,17.486,44.515z M25,44.515c0,1.41-1.147,2.556-2.557,2.556s-2.556-1.146-2.556-2.556   s1.146-2.556,2.556-2.556S25,43.105,25,44.515z"></path><path d="M41.301,55.193c-3.838,0-6.96,3.123-6.96,6.96s3.123,6.96,6.96,6.96s6.96-3.122,6.96-6.96S45.139,55.193,41.301,55.193z    M41.301,66.113c-2.184,0-3.96-1.776-3.96-3.96s1.777-3.96,3.96-3.96s3.96,1.777,3.96,3.96S43.485,66.113,41.301,66.113z"></path><path d="M41.301,72.831c-3.838,0-6.96,3.122-6.96,6.96s3.123,6.96,6.96,6.96s6.96-3.123,6.96-6.96S45.139,72.831,41.301,72.831z    M41.301,83.751c-2.184,0-3.96-1.777-3.96-3.96s1.777-3.96,3.96-3.96s3.96,1.776,3.96,3.96S43.485,83.751,41.301,83.751z"></path><path d="M59.144,37.555c-3.838,0-6.96,3.123-6.96,6.96s3.123,6.96,6.96,6.96s6.96-3.123,6.96-6.96S62.982,37.555,59.144,37.555z    M59.144,48.476c-2.184,0-3.96-1.777-3.96-3.96s1.777-3.96,3.96-3.96s3.96,1.777,3.96,3.96S61.328,48.476,59.144,48.476z"></path><path d="M59.144,55.193c-3.838,0-6.96,3.123-6.96,6.96s3.123,6.96,6.96,6.96s6.96-3.122,6.96-6.96S62.982,55.193,59.144,55.193z    M59.144,66.113c-2.184,0-3.96-1.776-3.96-3.96s1.777-3.96,3.96-3.96s3.96,1.777,3.96,3.96S61.328,66.113,59.144,66.113z"></path><path d="M59.144,72.831c-3.838,0-6.96,3.122-6.96,6.96s3.123,6.96,6.96,6.96s6.96-3.123,6.96-6.96S62.982,72.831,59.144,72.831z    M59.144,83.751c-2.184,0-3.96-1.777-3.96-3.96s1.777-3.96,3.96-3.96s3.96,1.776,3.96,3.96S61.328,83.751,59.144,83.751z"></path><path d="M76.987,37.555c-3.838,0-6.96,3.123-6.96,6.96s3.123,6.96,6.96,6.96s6.96-3.123,6.96-6.96S80.825,37.555,76.987,37.555z    M76.987,48.476c-2.184,0-3.96-1.777-3.96-3.96s1.777-3.96,3.96-3.96s3.96,1.777,3.96,3.96S79.17,48.476,76.987,48.476z"></path><path d="M76.987,55.193c-3.838,0-6.96,3.123-6.96,6.96s3.123,6.96,6.96,6.96s6.96-3.122,6.96-6.96S80.825,55.193,76.987,55.193z    M76.987,66.113c-2.184,0-3.96-1.776-3.96-3.96s1.777-3.96,3.96-3.96s3.96,1.777,3.96,3.96S79.17,66.113,76.987,66.113z"></path><path d="M76.987,72.831c-3.838,0-6.96,3.122-6.96,6.96s3.123,6.96,6.96,6.96s6.96-3.123,6.96-6.96S80.825,72.831,76.987,72.831z    M76.987,83.751c-2.184,0-3.96-1.777-3.96-3.96s1.777-3.96,3.96-3.96s3.96,1.776,3.96,3.96S79.17,83.751,76.987,83.751z"></path><path d="M26.214,60.542h-2.472v-4.849c0-0.718-0.582-1.3-1.3-1.3s-1.3,0.582-1.3,1.3v4.849h-2.472   c-1.765,0-3.201,1.436-3.201,3.201v2.399c0,1.765,1.436,3.201,3.201,3.201h2.472v14.909c0,0.718,0.582,1.3,1.3,1.3   s1.3-0.582,1.3-1.3V69.343h2.472c1.765,0,3.201-1.436,3.201-3.201v-2.399C29.416,61.978,27.979,60.542,26.214,60.542z    M26.416,66.142c0,0.111-0.09,0.201-0.201,0.201h-7.543c-0.111,0-0.201-0.09-0.201-0.201v-2.399c0-0.111,0.09-0.201,0.201-0.201   h7.543c0.111,0,0.201,0.09,0.201,0.201V66.142z"></path><path d="M70.675,24.536H81.62c0.663,0,1.2-0.538,1.2-1.2v-7.189c0-0.663-0.538-1.2-1.2-1.2H70.675c-0.663,0-1.2,0.538-1.2,1.2   v7.189C69.475,23.998,70.012,24.536,70.675,24.536z M71.875,17.346h8.545v4.789h-8.545V17.346z"></path><path d="M16.97,32.798h18.696c0.829,0,1.5-0.671,1.5-1.5V16.146c0-0.829-0.671-1.5-1.5-1.5H16.97c-0.829,0-1.5,0.671-1.5,1.5   v15.152C15.47,32.127,16.142,32.798,16.97,32.798z M18.47,17.646h15.696v12.152H18.47V17.646z"></path><path d="M86.584,6.911H13.416C8.775,6.911,5,10.687,5,15.327v69.346c0,4.641,3.775,8.416,8.416,8.416h73.168   c4.641,0,8.416-3.775,8.416-8.416V15.327C95,10.687,91.225,6.911,86.584,6.911z M91,84.673c0,2.435-1.981,4.416-4.416,4.416H13.416   C10.981,89.089,9,87.108,9,84.673V15.327c0-2.435,1.981-4.416,4.416-4.416h73.168c2.435,0,4.416,1.981,4.416,4.416V84.673z"></path><circle cx="34.506" cy="37.67" r="1.273"></circle><circle cx="52.411" cy="37.67" r="1.273"></circle><circle cx="69.402" cy="37.67" r="1.273"></circle><circle cx="34.506" cy="54.87" r="1.272"></circle><circle cx="52.411" cy="54.87" r="1.272"></circle><circle cx="69.402" cy="54.87" r="1.272"></circle><circle cx="34.506" cy="72.161" r="1.273"></circle><circle cx="52.411" cy="72.161" r="1.272"></circle><circle cx="69.402" cy="72.161" r="1.272"></circle></g></svg>