<svg height='300px' width='300px'  fill="#000000" xmlns="http://www.w3.org/2000/svg" viewBox="0 0 64 64" x="0px" y="0px"><title>mixer</title><g><polygon points="11 30 13 30 13 18 14 18 14 16 13 16 13 6 11 6 11 16 10 16 10 18 11 18 11 30"></polygon><path d="M7,58H57a1,1,0,0,0,1-1V39a1,1,0,0,0-1-1H7a1,1,0,0,0-1,1V57A1,1,0,0,0,7,58ZM8,40H56V56H8Z"></path><path d="M14,42H10a1,1,0,0,0-1,1V53a1,1,0,0,0,1,1h4a1,1,0,0,0,1-1V43A1,1,0,0,0,14,42Zm-1,2v2H11V44Zm-2,8V48h2v4Z"></path><path d="M22,42H18a1,1,0,0,0-1,1V53a1,1,0,0,0,1,1h4a1,1,0,0,0,1-1V43A1,1,0,0,0,22,42Zm-1,2v5H19V44Zm-2,8V51h2v1Z"></path><path d="M30,42H26a1,1,0,0,0-1,1V53a1,1,0,0,0,1,1h4a1,1,0,0,0,1-1V43A1,1,0,0,0,30,42Zm-1,2v2H27V44Zm-2,8V48h2v4Z"></path><path d="M54,42H50a1,1,0,0,0-1,1V53a1,1,0,0,0,1,1h4a1,1,0,0,0,1-1V43A1,1,0,0,0,54,42Zm-1,2v2H51V44Zm-2,8V48h2v4Z"></path><path d="M46,42H42a1,1,0,0,0-1,1V53a1,1,0,0,0,1,1h4a1,1,0,0,0,1-1V43A1,1,0,0,0,46,42Zm-1,2v5H43V44Zm-2,8V51h2v1Z"></path><path d="M38,42H34a1,1,0,0,0-1,1V53a1,1,0,0,0,1,1h4a1,1,0,0,0,1-1V43A1,1,0,0,0,38,42Zm-1,2v2H35V44Zm-2,8V48h2v4Z"></path><polygon points="19 30 21 30 21 11 22 11 22 9 21 9 21 6 19 6 19 9 18 9 18 11 19 11 19 30"></polygon><polygon points="27 30 29 30 29 24 30 24 30 22 29 22 29 6 27 6 27 22 26 22 26 24 27 24 27 30"></polygon><polygon points="35 30 37 30 37 18 38 18 38 16 37 16 37 6 35 6 35 16 34 16 34 18 35 18 35 30"></polygon><polygon points="43 30 45 30 45 11 46 11 46 9 45 9 45 6 43 6 43 9 42 9 42 11 43 11 43 30"></polygon><polygon points="51 30 53 30 53 24 54 24 54 22 53 22 53 6 51 6 51 22 50 22 50 24 51 24 51 30"></polygon><path d="M61,2H3A1,1,0,0,0,2,3V61a1,1,0,0,0,1,1H61a1,1,0,0,0,1-1V3A1,1,0,0,0,61,2ZM60,60H4V4H60Z"></path><path d="M12,37a3,3,0,1,0-3-3A3,3,0,0,0,12,37Zm0-4a1,1,0,1,1-1,1A1,1,0,0,1,12,33Z"></path><path d="M20,37a3,3,0,1,0-3-3A3,3,0,0,0,20,37Zm0-4a1,1,0,1,1-1,1A1,1,0,0,1,20,33Z"></path><path d="M28,37a3,3,0,1,0-3-3A3,3,0,0,0,28,37Zm0-4a1,1,0,1,1-1,1A1,1,0,0,1,28,33Z"></path><path d="M36,37a3,3,0,1,0-3-3A3,3,0,0,0,36,37Zm0-4a1,1,0,1,1-1,1A1,1,0,0,1,36,33Z"></path><path d="M44,37a3,3,0,1,0-3-3A3,3,0,0,0,44,37Zm0-4a1,1,0,1,1-1,1A1,1,0,0,1,44,33Z"></path><path d="M52,37a3,3,0,1,0-3-3A3,3,0,0,0,52,37Zm0-4a1,1,0,1,1-1,1A1,1,0,0,1,52,33Z"></path></g></svg>