<svg height='300px' width='300px'  fill="#000000" xmlns="http://www.w3.org/2000/svg" viewBox="0 0 96 84" x="0px" y="0px"><title>Icon-MIDIcontroller-1</title><g data-name="Layer 2"><g data-name="Icon/Audio Interface"><path d="M94,0H2A2,2,0,0,0,0,2V82a2,2,0,0,0,2,2H94a2,2,0,0,0,2-2V2A2,2,0,0,0,94,0Zm0,82H2V2H94Z"></path><path d="M43,13a3,3,0,1,0-3-3A3,3,0,0,0,43,13Zm0-4a1,1,0,1,1-1,1A1,1,0,0,1,43,9Z"></path><path d="M33,13a3,3,0,1,0-3-3A3,3,0,0,0,33,13Zm0-4a1,1,0,1,1-1,1A1,1,0,0,1,33,9Z"></path><path d="M23,13a3,3,0,1,0-3-3A3,3,0,0,0,23,13Zm0-4a1,1,0,1,1-1,1A1,1,0,0,1,23,9Z"></path><path d="M13,13a3,3,0,1,0-3-3A3,3,0,0,0,13,13Zm0-4a1,1,0,1,1-1,1A1,1,0,0,1,13,9Z"></path><path d="M53,13a3,3,0,1,0-3-3A3,3,0,0,0,53,13Zm0-4a1,1,0,1,1-1,1A1,1,0,0,1,53,9Z"></path><path d="M63,13a3,3,0,1,0-3-3A3,3,0,0,0,63,13Zm0-4a1,1,0,1,1-1,1A1,1,0,0,1,63,9Z"></path><path d="M73,13a3,3,0,1,0-3-3A3,3,0,0,0,73,13Zm0-4a1,1,0,1,1-1,1A1,1,0,0,1,73,9Z"></path><path d="M83,13a3,3,0,1,0-3-3A3,3,0,0,0,83,13Zm0-4a1,1,0,1,1-1,1A1,1,0,0,1,83,9Z"></path><path d="M9,77H87a2,2,0,0,0,2-2V17a2,2,0,0,0-2-2H9a2,2,0,0,0-1.12.34,2,2,0,0,0-.54.54A2,2,0,0,0,7,17V75A2,2,0,0,0,9,77ZM9,37h8v8H9ZM9,57h8v8H9ZM9,47h8v8H9Zm78-2H79V37h8Zm0,10H79V47h8ZM49,47h8v8H49Zm-2,8H39V47h8Zm12-8h8v8H59Zm10,0h8v8H69Zm8-2H69V37h8ZM67,45H59V37h8ZM57,45H49V37h8ZM47,45H39V37h8ZM37,45H29V37h8Zm0,2v8H29V47ZM27,55H19V47h8Zm-8,2h8v8H19Zm10,0h8v8H29Zm10,0h8v8H39Zm10,0h8v8H49Zm10,0h8v8H59Zm10,0h8v8H69Zm10,0h8v8H79Zm8-22H79V27h8ZM77,35H69V27h8ZM67,35H59V27h8ZM57,35H49V27h8ZM47,35H39V27h8ZM37,35H29V27h8ZM27,35H19V27h8Zm0,2v8H19V37ZM9,75V67h8v8Zm10,0V67h8v8Zm10,0V67h8v8Zm10,0V67h8v8Zm10,0V67h8v8Zm10,0V67h8v8Zm10,0V67h8v8Zm18,0H79V67h8Zm0-58v8H79V17ZM77,17v8H69V17ZM67,17v8H59V17ZM57,17v8H49V17ZM47,17v8H39V17ZM37,17v8H29V17ZM27,17v8H19V17ZM9,17h8v8H9Zm8,10v8H9V27Z"></path></g></g></svg>