<svg xmlns="http://www.w3.org/2000/svg" xmlns:xlink="http://www.w3.org/1999/xlink" version="1.1" x="0px" y="0px" viewBox="0 0 520 650" style="enable-background:new 0 0 520 520;" xml:space="preserve"><g><g><g><path d="M162.5,210c-2.757,0-5,2.243-5,5s2.243,5,5,5c2.757,0,5-2.243,5-5S165.257,210,162.5,210z"/><path d="M183.462,410.962c24.254-24.256,25.31-62.733,3.389-88.241l-10.634,10.634c15.824,19.285,15.28,48.358-3.361,67     c-19.54,19.541-51.168,19.544-70.711,0c-19.539-19.538-19.543-51.167,0-70.709c18.615-18.616,47.682-19.213,67.002-3.362     l10.633-10.634c-25.504-21.917-63.98-20.871-88.241,3.389c-25.403,25.403-25.404,66.519,0,91.924     C116.941,436.364,158.057,436.366,183.462,410.962z"/><path d="M157.5,229.125V240c0,2.757,2.243,5,5,5c2.757,0,5-2.243,5-5v-10.875C164.328,230.25,160.9,230.332,157.5,229.125z"/><path d="M122.5,185c-2.757,0-5,2.243-5,5v0.875c3.172-1.125,6.6-1.207,10,0V190C127.5,187.243,125.257,185,122.5,185z"/><path d="M197.5,239.125V240c0,2.757,2.243,5,5,5c2.757,0,5-2.243,5-5v-0.875c-1.566,0.557-3.244,0.875-5,0.875     C200.744,240,199.066,239.682,197.5,239.125z"/><path d="M162.5,185c-2.757,0-5,2.243-5,5v10.875c3.172-1.125,6.6-1.207,10,0V190C167.5,187.243,165.257,185,162.5,185z"/><path d="M202.5,220c-2.757,0-5,2.243-5,5s2.243,5,5,5c2.757,0,5-2.243,5-5S205.257,220,202.5,220z"/><path d="M130.43,357.929c-1.89,1.889-2.93,4.4-2.93,7.071c0,5.526,4.473,10,10,10c2.671,0,5.182-1.04,7.07-2.929     c3.908-3.906,3.91-10.234,0.001-14.142C140.665,354.022,134.34,354.019,130.43,357.929z"/><path d="M82.5,185c-2.757,0-5,2.243-5,5v15.875c3.172-1.125,6.6-1.207,10,0V190C87.5,187.243,85.257,185,82.5,185z"/><path d="M77.5,234.125V240c0,2.757,2.243,5,5,5s5-2.243,5-5v-5.875C84.328,235.25,80.9,235.332,77.5,234.125z"/><path d="M82.5,215c-2.757,0-5,2.243-5,5s2.243,5,5,5s5-2.243,5-5S85.257,215,82.5,215z"/><path d="M47.5,445.5c0,10.752,8.748,19.5,19.5,19.5h361c10.752,0,19.5-8.748,19.5-19.5V275h-400V445.5z M162.5,455h-90     c-2.762,0-5-2.238-5-5s2.238-5,5-5h90c2.762,0,5,2.238,5,5S165.262,455,162.5,455z M422.5,455h-90c-2.762,0-5-2.238-5-5     s2.238-5,5-5h90c2.762,0,5,2.238,5,5S425.262,455,422.5,455z M304.467,311.968c29.31-29.311,76.752-29.315,106.066,0     c29.311,29.31,29.313,76.752,0,106.064C396.367,432.198,377.533,440,357.5,440c-41.449,0-75-33.544-75-75     C282.5,344.967,290.302,326.133,304.467,311.968z M245,330c15.164,0,27.5,12.337,27.5,27.5S260.164,385,245,385     c-15.164,0-27.5-12.337-27.5-27.5S229.836,330,245,330z M245,395c15.164,0,27.5,12.337,27.5,27.5S260.164,450,245,450     c-15.164,0-27.5-12.337-27.5-27.5S229.836,395,245,395z M137.5,290c41.449,0,75,33.544,75,75c0,41.45-33.545,75-75,75     c-41.449,0-75-33.544-75-75C62.5,323.55,96.045,290,137.5,290z"/><path d="M162.023,333.406c-15.695-12.23-38.371-11.125-52.808,3.309c-15.632,15.633-15.634,40.933,0,56.568     c15.634,15.633,40.935,15.634,56.568,0c14.668-14.668,15.324-37.394,3.31-52.807l-14.377,14.376     C162.646,368.256,152.846,385,137.5,385c-11.053,0-20-8.944-20-20c0-15.406,16.799-25.116,30.146-17.217L162.023,333.406z"/><path d="M117.5,219.125V240c0,2.757,2.243,5,5,5c2.757,0,5-2.243,5-5v-20.875C124.328,220.25,120.9,220.332,117.5,219.125z"/><path d="M122.5,200c-2.757,0-5,2.243-5,5s2.243,5,5,5c2.757,0,5-2.243,5-5S125.257,200,122.5,200z"/><path d="M202.5,185c-2.757,0-5,2.243-5,5v20.875c3.172-1.125,6.6-1.207,10,0V190C207.5,187.243,205.257,185,202.5,185z"/><path d="M245,440c9.649,0,17.5-7.851,17.5-17.5S254.649,405,245,405s-17.5,7.851-17.5,17.5S235.351,440,245,440z"/><path d="M325.906,340.478c-5.445,6.986-8.406,15.523-8.406,24.522c0,22.104,17.89,40,40,40c22.105,0,40-17.891,40-40     c0-22.104-17.89-40-40-40c-8.998,0-17.537,2.962-24.523,8.406l14.376,14.376c7.731-4.573,17.725-3.489,24.289,3.076     c7.816,7.815,7.816,20.468-0.001,28.284c-7.814,7.814-20.467,7.817-28.284-0.001c-6.559-6.558-7.652-16.551-3.074-24.288     L325.906,340.478z"/><path d="M245,375c9.649,0,17.5-7.851,17.5-17.5S254.649,340,245,340s-17.5,7.851-17.5,17.5S235.351,375,245,375z"/><path d="M403.461,410.962c25.403-25.403,25.406-66.519,0-91.924c-24.256-24.256-62.732-25.309-88.24-3.389l10.634,10.635     C334.762,318.975,345.826,315,357.5,315c27.631,0,50,22.362,50,50c0,27.631-22.363,50-50,50c-27.631,0-50-22.362-50-50     c0-11.675,3.975-22.738,11.283-31.646l-10.633-10.634c-21.961,25.555-20.824,64.028,3.389,88.241     C336.941,436.364,378.057,436.366,403.461,410.962z"/><rect x="362.5" y="230" width="55" height="10"/><rect x="362.5" y="190" width="55" height="10"/><path d="M112.5,125c8.271,0,15-6.729,15-15s-6.729-15-15-15s-15,6.729-15,15S104.229,125,112.5,125z"/><path d="M410,110c12.406,0,22.5-10.094,22.5-22.5c0-12.406-10.094-22.5-22.5-22.5c-12.406,0-22.5,10.094-22.5,22.5     C387.5,99.906,397.594,110,410,110z"/><path d="M428,160H67c-10.752,0-19.5,8.748-19.5,19.5V265h400v-85.5C447.5,168.748,438.752,160,428,160z M97.5,240     c0,8.271-6.729,15-15,15s-15-6.729-15-15v-50c0-8.271,6.729-15,15-15s15,6.729,15,15V240z M137.5,240c0,8.271-6.729,15-15,15     s-15-6.729-15-15v-50c0-8.271,6.729-15,15-15s15,6.729,15,15V240z M177.5,240c0,8.271-6.729,15-15,15s-15-6.729-15-15v-50     c0-8.271,6.729-15,15-15s15,6.729,15,15V240z M217.5,240c0,8.271-6.729,15-15,15s-15-6.729-15-15v-50c0-8.271,6.729-15,15-15     s15,6.729,15,15V240z M257.5,240c0,8.271-6.729,15-15,15s-15-6.729-15-15v-50c0-8.271,6.729-15,15-15s15,6.729,15,15V240z      M297.5,240c0,8.271-6.729,15-15,15c-8.272,0-15-6.729-15-15v-50c0-8.271,6.728-15,15-15c8.271,0,15,6.729,15,15V240z M427.5,245     c0,2.762-2.238,5-5,5h-65c-2.762,0-5-2.238-5-5v-20c0-2.762,2.238-5,5-5h65c2.762,0,5,2.238,5,5V245z M427.5,205     c0,2.762-2.238,5-5,5h-65c-2.762,0-5-2.238-5-5v-20c0-2.762,2.238-5,5-5h65c2.762,0,5,2.238,5,5V205z"/><path d="M242.5,185c-2.757,0-5,2.243-5,5v20.875c3.172-1.125,6.6-1.207,10,0V190C247.5,187.243,245.257,185,242.5,185z"/><path d="M242.5,220c-2.757,0-5,2.243-5,5s2.243,5,5,5c2.757,0,5-2.243,5-5S245.257,220,242.5,220z"/><path d="M237.5,239.125V240c0,2.757,2.243,5,5,5c2.757,0,5-2.243,5-5v-0.875c-1.566,0.557-3.244,0.875-5,0.875     C240.744,240,239.066,239.682,237.5,239.125z"/><path d="M282.5,205c-2.757,0-5,2.243-5,5s2.243,5,5,5s5-2.243,5-5S285.257,205,282.5,205z"/><path d="M282.5,185c-2.757,0-5,2.243-5,5v5.875c3.172-1.125,6.6-1.207,10,0V190C287.5,187.243,285.257,185,282.5,185z"/><path d="M277.5,224.125V240c0,2.757,2.243,5,5,5s5-2.243,5-5v-15.875c-1.566,0.557-3.244,0.875-5,0.875     C280.744,225,279.066,224.682,277.5,224.125z"/><path d="M367.5,365c0-2.671-1.04-5.182-2.929-7.07c-3.906-3.907-10.232-3.911-14.142-0.001     c-3.909,3.909-3.91,10.232-0.001,14.142c1.89,1.89,4.4,2.93,7.071,2.93C363.027,375,367.5,370.525,367.5,365z"/><circle cx="465" cy="137.5" r="7.5"/><circle cx="350" cy="62.5" r="7.5"/><circle cx="275" cy="107.5" r="7.5"/><circle cx="165" cy="72.5" r="7.5"/><circle cx="55" cy="107.5" r="7.5"/></g></g></g><text x="0" y="535" fill="#000000" font-size="5px" font-weight="bold" font-family="'Helvetica Neue', Helvetica, Arial-Unicode, Arial, Sans-serif">Created by Flatart</text><text x="0" y="540" fill="#000000" font-size="5px" font-weight="bold" font-family="'Helvetica Neue', Helvetica, Arial-Unicode, Arial, Sans-serif">from the Noun Project</text></svg>