<svg height='300px' width='300px'  fill="#000000" xmlns="http://www.w3.org/2000/svg" xmlns:xlink="http://www.w3.org/1999/xlink" version="1.1" x="0px" y="0px" viewBox="0 0 100 100" style="enable-background:new 0 0 100 100;" xml:space="preserve"><g><path d="M86.584,6.911H13.416C8.775,6.911,5,10.687,5,15.327v69.346c0,4.641,3.775,8.416,8.416,8.416h73.168   c4.641,0,8.416-3.775,8.416-8.416V15.327C95,10.687,91.225,6.911,86.584,6.911z M91,84.673c0,2.435-1.981,4.416-4.416,4.416H13.416   C10.981,89.089,9,87.108,9,84.673V15.327c0-2.435,1.981-4.416,4.416-4.416h73.168c2.435,0,4.416,1.981,4.416,4.416V84.673z"></path><path d="M26.217,29.326H16.015c-0.828,0-1.5,0.671-1.5,1.5v9.356c0,0.829,0.672,1.5,1.5,1.5h10.202c0.828,0,1.5-0.671,1.5-1.5   v-9.356C27.717,29.997,27.045,29.326,26.217,29.326z M24.717,38.682h-7.202v-6.356h7.202V38.682z"></path><path d="M41.316,29.326H31.114c-0.828,0-1.5,0.671-1.5,1.5v9.356c0,0.829,0.672,1.5,1.5,1.5h10.202c0.828,0,1.5-0.671,1.5-1.5   v-9.356C42.816,29.997,42.145,29.326,41.316,29.326z M39.816,38.682h-7.202v-6.356h7.202V38.682z"></path><path d="M56.416,29.326H46.214c-0.828,0-1.5,0.671-1.5,1.5v9.356c0,0.829,0.672,1.5,1.5,1.5h10.202c0.828,0,1.5-0.671,1.5-1.5   v-9.356C57.916,29.997,57.244,29.326,56.416,29.326z M54.916,38.682h-7.202v-6.356h7.202V38.682z"></path><path d="M71.515,29.326H61.313c-0.828,0-1.5,0.671-1.5,1.5v9.356c0,0.829,0.672,1.5,1.5,1.5h10.202c0.828,0,1.5-0.671,1.5-1.5   v-9.356C73.015,29.997,72.343,29.326,71.515,29.326z M70.015,38.682h-7.202v-6.356h7.202V38.682z"></path><path d="M26.217,43.579H16.015c-0.828,0-1.5,0.671-1.5,1.5v9.356c0,0.829,0.672,1.5,1.5,1.5h10.202c0.828,0,1.5-0.671,1.5-1.5   v-9.356C27.717,44.25,27.045,43.579,26.217,43.579z M24.717,52.935h-7.202v-6.356h7.202V52.935z"></path><path d="M41.316,43.579H31.114c-0.828,0-1.5,0.671-1.5,1.5v9.356c0,0.829,0.672,1.5,1.5,1.5h10.202c0.828,0,1.5-0.671,1.5-1.5   v-9.356C42.816,44.25,42.145,43.579,41.316,43.579z M39.816,52.935h-7.202v-6.356h7.202V52.935z"></path><path d="M56.416,43.579H46.214c-0.828,0-1.5,0.671-1.5,1.5v9.356c0,0.829,0.672,1.5,1.5,1.5h10.202c0.828,0,1.5-0.671,1.5-1.5   v-9.356C57.916,44.25,57.244,43.579,56.416,43.579z M54.916,52.935h-7.202v-6.356h7.202V52.935z"></path><path d="M71.515,43.579H61.313c-0.828,0-1.5,0.671-1.5,1.5v9.356c0,0.829,0.672,1.5,1.5,1.5h10.202c0.828,0,1.5-0.671,1.5-1.5   v-9.356C73.015,44.25,72.343,43.579,71.515,43.579z M70.015,52.935h-7.202v-6.356h7.202V52.935z"></path><path d="M26.217,57.832H16.015c-0.828,0-1.5,0.671-1.5,1.5v9.356c0,0.829,0.672,1.5,1.5,1.5h10.202c0.828,0,1.5-0.671,1.5-1.5   v-9.356C27.717,58.503,27.045,57.832,26.217,57.832z M24.717,67.188h-7.202v-6.356h7.202V67.188z"></path><path d="M41.316,57.832H31.114c-0.828,0-1.5,0.671-1.5,1.5v9.356c0,0.829,0.672,1.5,1.5,1.5h10.202c0.828,0,1.5-0.671,1.5-1.5   v-9.356C42.816,58.503,42.145,57.832,41.316,57.832z M39.816,67.188h-7.202v-6.356h7.202V67.188z"></path><path d="M56.416,57.832H46.214c-0.828,0-1.5,0.671-1.5,1.5v9.356c0,0.829,0.672,1.5,1.5,1.5h10.202c0.828,0,1.5-0.671,1.5-1.5   v-9.356C57.916,58.503,57.244,57.832,56.416,57.832z M54.916,67.188h-7.202v-6.356h7.202V67.188z"></path><path d="M71.515,57.832H61.313c-0.828,0-1.5,0.671-1.5,1.5v9.356c0,0.829,0.672,1.5,1.5,1.5h10.202c0.828,0,1.5-0.671,1.5-1.5   v-9.356C73.015,58.503,72.343,57.832,71.515,57.832z M70.015,67.188h-7.202v-6.356h7.202V67.188z"></path><path d="M26.217,72.085H16.015c-0.828,0-1.5,0.671-1.5,1.5v9.356c0,0.829,0.672,1.5,1.5,1.5h10.202c0.828,0,1.5-0.671,1.5-1.5   v-9.356C27.717,72.756,27.045,72.085,26.217,72.085z M24.717,81.441h-7.202v-6.356h7.202V81.441z"></path><path d="M41.316,72.085H31.114c-0.828,0-1.5,0.671-1.5,1.5v9.356c0,0.829,0.672,1.5,1.5,1.5h10.202c0.828,0,1.5-0.671,1.5-1.5   v-9.356C42.816,72.756,42.145,72.085,41.316,72.085z M39.816,81.441h-7.202v-6.356h7.202V81.441z"></path><path d="M56.416,72.085H46.214c-0.828,0-1.5,0.671-1.5,1.5v9.356c0,0.829,0.672,1.5,1.5,1.5h10.202c0.828,0,1.5-0.671,1.5-1.5   v-9.356C57.916,72.756,57.244,72.085,56.416,72.085z M54.916,81.441h-7.202v-6.356h7.202V81.441z"></path><path d="M71.515,72.085H61.313c-0.828,0-1.5,0.671-1.5,1.5v9.356c0,0.829,0.672,1.5,1.5,1.5h10.202c0.828,0,1.5-0.671,1.5-1.5   v-9.356C73.015,72.756,72.343,72.085,71.515,72.085z M70.015,81.441h-7.202v-6.356h7.202V81.441z"></path><path d="M60.5,25.476c0-0.829-0.672-1.5-1.5-1.5H17.515v-5.417h4.147c0.828,0,1.5-0.671,1.5-1.5s-0.672-1.5-1.5-1.5h-4.309   c-1.565,0-2.839,1.273-2.839,2.838v5.741c0,1.565,1.273,2.838,2.839,2.838H59C59.828,26.976,60.5,26.304,60.5,25.476z"></path><path d="M70.177,15.559H25.625c-0.828,0-1.5,0.671-1.5,1.5s0.672,1.5,1.5,1.5h44.39v5.417h-6.889c-0.828,0-1.5,0.671-1.5,1.5   s0.672,1.5,1.5,1.5h7.051c1.564,0,2.838-1.273,2.838-2.838v-5.741C73.015,16.832,71.741,15.559,70.177,15.559z"></path><path d="M85.677,33.489c-0.706,0.132-1.17,0.812-1.037,1.518c0.03,0.162,0.046,0.329,0.046,0.497c0,1.489-1.211,2.7-2.7,2.7   s-2.7-1.211-2.7-2.7s1.211-2.7,2.7-2.7c0.505,0,0.997,0.141,1.424,0.406c0.608,0.379,1.411,0.194,1.791-0.417   c0.38-0.609,0.193-1.411-0.416-1.791c-0.84-0.523-1.808-0.799-2.799-0.799c-2.923,0-5.3,2.377-5.3,5.3s2.377,5.3,5.3,5.3   s5.3-2.377,5.3-5.3c0-0.328-0.03-0.657-0.091-0.977C87.063,33.821,86.387,33.354,85.677,33.489z"></path><path d="M81.985,44.457c-2.923,0-5.3,2.377-5.3,5.3c0,0.996,0.278,1.968,0.805,2.811c0.382,0.61,1.184,0.795,1.792,0.413   c0.608-0.38,0.793-1.183,0.413-1.792c-0.269-0.428-0.41-0.923-0.41-1.432c0-1.489,1.211-2.7,2.7-2.7s2.7,1.211,2.7,2.7   s-1.211,2.7-2.7,2.7c-0.116,0-0.232-0.007-0.345-0.021c-0.716-0.099-1.363,0.414-1.453,1.126s0.415,1.363,1.127,1.453   c0.22,0.028,0.443,0.042,0.671,0.042c2.923,0,5.3-2.377,5.3-5.3S84.908,44.457,81.985,44.457z"></path><path d="M85.888,62.455c-0.717,0.049-1.257,0.669-1.208,1.386c0.004,0.056,0.006,0.112,0.006,0.169c0,1.489-1.211,2.7-2.7,2.7   s-2.7-1.211-2.7-2.7s1.211-2.7,2.7-2.7c0.595,0,1.158,0.189,1.63,0.548c0.569,0.435,1.386,0.323,1.821-0.249   c0.435-0.572,0.323-1.387-0.249-1.822c-0.928-0.705-2.035-1.077-3.202-1.077c-2.923,0-5.3,2.377-5.3,5.3s2.377,5.3,5.3,5.3   s5.3-2.377,5.3-5.3c0-0.117-0.004-0.232-0.012-0.347C87.225,62.947,86.627,62.417,85.888,62.455z"></path><path d="M81.985,72.963c-2.923,0-5.3,2.377-5.3,5.3c0,0.913,0.236,1.813,0.683,2.604c0.354,0.625,1.146,0.845,1.771,0.492   c0.625-0.354,0.846-1.146,0.492-1.771c-0.227-0.401-0.347-0.859-0.347-1.325c0-1.489,1.211-2.7,2.7-2.7s2.7,1.211,2.7,2.7   s-1.211,2.7-2.7,2.7c-0.184,0-0.367-0.019-0.546-0.055c-0.706-0.141-1.391,0.311-1.533,1.014c-0.144,0.703,0.31,1.39,1.014,1.534   c0.349,0.071,0.707,0.107,1.065,0.107c2.923,0,5.3-2.377,5.3-5.3S84.908,72.963,81.985,72.963z"></path></g></svg>