<svg xmlns="http://www.w3.org/2000/svg" width="46" height="46" viewBox="0 0 46 46">
  <path d="M0,12.2512464 L42,12.2512464 L42,0 L0,0 L0,12.2512464 Z M42,13.0159318 L0,13.0159318 L0,42 L42,42 L42,13.0159318 Z M36.0515885,6.69148926 C35.7837474,6.41793913 35.4488965,6.21280183 35.0775669,6.10400923 L35.074593,6.10400923 L35.0531816,6.09783589 L35.0502078,6.09783589 L35.0349423,6.09469861 L35.0228488,6.09156134 L35.0138282,6.08852526 L34.9953906,6.08548919 L34.9923177,6.08235192 L34.9740783,6.07921464 L34.9679324,6.07617857 L34.9131152,6.06383187 L34.9101414,6.06383187 L34.891902,6.0606946 L34.885657,6.0606946 L34.858298,6.05442005 L34.8492774,6.05138398 L34.8308398,6.0482467 L34.8277669,6.0482467 L34.7851423,6.04197215 L34.7760226,6.04197215 L34.7639291,6.03893608 L34.7486636,6.03579881 L34.7425177,6.03579881 L34.7212054,6.03276273 L34.7181324,6.03276273 L34.6998931,6.03276273 L34.6907734,6.02972666 L34.6785808,6.02972666 L34.6633152,6.02658939 L34.6572685,6.02658939 L34.6359562,6.02658939 L34.6328832,6.02658939 L34.6145448,6.02345211 L34.6055242,6.02345211 L34.5933316,6.02345211 L34.578066,6.02345211 L34.5719202,6.02041604 L34.5476341,6.02041604 L34.5476341,6.02041604 L34.5261235,6.02041604 L34.5200768,6.02041604 L34.5049103,6.02041604 L34.4896448,6.01737997 L34.4834989,6.01737997 L34.4622857,6.01737997 L34.4379996,6.01737997 L34.4317546,6.01737997 L34.4164891,6.02041604 L34.4042964,6.02041604 L34.3952759,6.02041604 L34.3738645,6.02041604 L34.3738645,6.02041604 L34.3526513,6.02041604 L34.3465054,6.02345211 L34.3312399,6.02345211 L34.3161726,6.02345211 L34.3068546,6.02345211 L34.2886153,6.02658939 L34.2856415,6.02658939 L34.26423,6.02658939 L34.2580842,6.02658939 L34.2430169,6.02972666 L34.2308242,6.02972666 L34.2216054,6.03276273 L34.2032669,6.03276273 L34.2002931,6.03276273 L34.1789808,6.03579881 L34.1727358,6.03579881 L34.1576685,6.03893608 L34.1454759,6.04197215 L34.1363562,6.04197215 L34.1179186,6.04500823 L34.1150439,6.04500823 L34.0936325,6.0481455 L34.0906587,6.0481455 L34.0753931,6.05128278 L34.0632005,6.05431885 L34.05418,6.05735492 L34.0358415,6.06049219 L34.0327685,6.06049219 L34.0115554,6.06362947 L34.0083833,6.06362947 L33.9901439,6.06980282 L33.9810243,6.06980282 L33.9689308,6.07294009 L33.9535661,6.07597616 L33.9506914,6.07901224 L33.92928,6.08214951 L33.9263062,6.08528679 L33.9080668,6.08832286 L33.8987489,6.09135893 L33.8866554,6.09449621 L33.871489,6.09763348 L33.868416,6.09763348 L33.8472028,6.10380683 L33.8440308,6.10380683 L33.8289635,6.11008138 L33.8197447,6.11311745 L33.8076512,6.11625473 L33.7924848,6.12252928 L33.7863389,6.12252928 L33.7680995,6.12880383 L33.7649275,6.12880383 L33.746589,6.13497717 L33.7405422,6.13811445 L33.7283496,6.14125172 L33.7132823,6.14742507 L33.7101102,6.15056234 L33.6888971,6.15673569 L33.6888971,6.15673569 L33.6705586,6.16311144 L33.6613398,6.16614752 L33.6491472,6.17242207 L33.6369545,6.17869662 L33.6309078,6.17869662 L33.6125693,6.18800724 L33.6095955,6.18800724 L33.6095955,6.18800724 L33.5852103,6.19741906 L33.5731168,6.20359241 L33.4603103,6.25642007 L33.4603103,6.25642007 L33.3721864,6.30297318 L33.3659414,6.30934893 L33.3538479,6.31552228 L33.3416553,6.32189803 L33.2990307,6.34669263 L33.2958586,6.3497287 L33.2320208,6.39010846 L33.225875,6.39314453 L33.1984168,6.41490305 L33.1801774,6.42431488 L33.1801774,6.42431488 L33.1618389,6.43676278 L33.1588651,6.43979885 L33.1466725,6.44910947 L33.1375528,6.4585213 L33.1284332,6.46479584 L33.1162405,6.47410647 L33.1131676,6.47724374 L33.0948291,6.48969164 L33.0948291,6.48969164 L33.0797618,6.50203833 L33.0736159,6.50831288 L33.0614233,6.51458743 L33.0522045,6.52389806 L33.0460586,6.53017261 L33.0309913,6.5426205 L33.0279184,6.5426205 L33.012752,6.5550684 L33.0095799,6.55810447 L32.9974864,6.57055237 L32.9913406,6.57682692 L32.9822209,6.58300027 L32.9701274,6.59544816 L32.9669553,6.59858544 L32.948716,6.61406941 L32.948716,6.61406941 L32.9336487,6.6265173 L32.9304766,6.63279185 L32.9183831,6.64210248 L32.9092634,6.6514131 L32.9031175,6.65778885 L32.8909249,6.67013555 L32.887852,6.67013555 L32.8726856,6.68561952 L32.8726856,6.68875679 L32.8605921,6.70120469 L32.8544462,6.70737803 L32.8451283,6.71678986 L32.8330348,6.72913655 L32.830061,6.73227383 L32.8147954,6.747859 L32.8147954,6.747859 L32.8026028,6.76324177 L32.796556,6.76961752 L32.7874364,6.77892814 L32.7782176,6.78823876 L32.7720717,6.79754939 L32.7598791,6.80999728 L32.7598791,6.81313456 L32.7448118,6.82861853 L32.7448118,6.8316546 L32.7326191,6.8441025 L32.7264733,6.85341312 L32.7203274,6.86282494 L32.7111086,6.87213557 L32.7049627,6.87841012 L32.6927701,6.89389409 L32.6805775,6.91261653 L32.6745307,6.91575381 L32.6683849,6.9281005 L32.6593643,6.93751233 L32.6531193,6.94682295 L32.6439005,6.96230692 L32.6409267,6.96230692 L32.6288332,6.98102937 L32.6288332,6.98406544 L32.6166406,6.99954941 L32.6135677,7.00582396 L32.6045471,7.01523578 L32.5983021,7.02768368 L32.5708439,7.07120072 L32.567771,7.07423679 L32.5587504,7.08668469 L32.5526046,7.09903138 L32.5464587,7.10540713 L32.5372399,7.1207899 L32.5372399,7.12392718 L32.5250473,7.14264962 L32.5250473,7.1456857 L32.5159276,7.16127087 L32.5098808,7.17058149 L32.4854956,7.2172358 L32.4854956,7.2172358 C32.3119243,7.54361359 32.2115086,7.9165445 32.2115086,8.31426999 C32.2115086,8.94840432 32.4640842,9.52333525 32.8690179,9.93664591 C33.2769254,10.3499566 33.8401648,10.6079215 34.4611953,10.6079215 C35.0791529,10.6079215 35.6422932,10.3499566 36.0501016,9.93664591 C36.4550353,9.52333525 36.7078091,8.94830312 36.7078091,8.31426999 C36.7078091,8.02209861 36.6560648,7.74247634 36.558623,7.48764866 L36.558623,7.48764866 L36.5556492,7.48451138 L36.5434566,7.45344224 L36.5373107,7.43158252 L36.5373107,7.43158252 L36.5280919,7.41286007 L36.5250189,7.40668673 L36.5188731,7.39423883 L36.5158993,7.38179093 L36.5128263,7.37248031 L36.5038058,7.35689514 L36.5038058,7.35385906 L36.4944878,7.33513662 L36.4916131,7.33210055 L36.4854673,7.31661658 L36.4822952,7.30730595 L36.4778345,7.29738812 L36.4716886,7.28190415 L36.4687148,7.27876687 L36.459496,7.25700835 L36.459496,7.25700835 L36.4503763,7.23838711 L36.4473034,7.23201136 L36.4382828,7.21966466 L36.4351108,7.21025284 L36.4289649,7.20094222 L36.4199443,7.18545825 L36.4199443,7.18242217 L36.4077517,7.16369973 L36.4077517,7.16369973 L36.3985329,7.14821576 L36.392387,7.13890513 L36.3862412,7.12949331 L36.3800953,7.11400934 L36.3772206,7.11087207 L36.365028,7.09225082 L36.365028,7.09225082 L36.3436166,7.0580444 L36.3374707,7.04559651 L36.3313248,7.03932196 L36.3223043,7.02383799 L36.3191322,7.02070071 L36.3070387,7.00521674 L36.3070387,7.00218067 L36.297919,6.9865955 L36.2917732,6.98042215 L36.2856273,6.97111153 L36.2764085,6.95866363 L36.2735338,6.95228788 L36.2460756,6.91818267 L36.2431018,6.91514659 L36.233883,6.9026987 L36.2277371,6.89328687 L36.1273215,6.77214758 L36.1242486,6.76911151 L36.1151289,6.75666361 L36.1090822,6.75028786 L36.0997642,6.74097724 L36.0846969,6.72549327 L36.0725043,6.7100093 L36.0725043,6.7100093 L36.0663584,6.70687202 L36.0515885,6.69148926 Z M37.400211,7.71393726 C37.4367889,7.90652546 37.4582003,8.10852548 37.4582003,8.31366277 C37.4582003,9.15586928 37.1201773,9.92045352 36.5783493,10.4737271 C36.0365212,11.0268995 35.287716,11.3718986 34.4626822,11.3718986 C33.6376484,11.3718986 32.8888433,11.0268995 32.3439423,10.4737271 C31.8020151,9.91741745 31.4671642,9.152732 31.4671642,8.31366277 C31.4671642,8.10862668 31.4855027,7.90662666 31.5251535,7.71393726 L2.45953849,7.71393726 C2.25563431,7.71393726 2.08523504,7.54300638 2.08523504,7.33159453 L2.08523504,3.63021739 C2.08523504,3.41880554 2.25573343,3.24787466 2.45953849,3.24787466 L39.5401641,3.24787466 C39.7471412,3.24787466 39.9146658,3.41880554 39.9146658,3.63021739 L39.9146658,7.33159453 C39.9146658,7.54300638 39.7471412,7.71393726 39.5401641,7.71393726 L37.400211,7.71393726 L37.400211,7.71393726 Z M35.7442949,5.54780076 C36.0548597,5.70000919 36.3377681,5.90200921 36.5783493,6.15066355 L36.5966877,6.16928479 L36.6028336,6.17566054 L36.6028336,6.17566054 L36.621073,6.19428179 L36.6272189,6.20055634 L36.6364377,6.20996816 L36.6516041,6.22858941 L36.6516041,6.22858941 L36.6758902,6.2534852 L36.6852081,6.2659331 L36.7002754,6.28131587 L36.7002754,6.28131587 L36.715541,6.30003831 L36.7216869,6.30945014 L36.7643115,6.35600325 L36.7672853,6.3622778 L36.7794779,6.37472569 L36.7915714,6.39020966 L36.7947434,6.39324574 L36.8068369,6.41500426 L36.8129828,6.42138001 L36.8221025,6.43382791 L36.8342951,6.44921067 L36.837368,6.45234795 L36.8524353,6.47096919 L36.8556074,6.47734494 L36.8677009,6.49282891 L36.8768206,6.50831288 L36.8798935,6.51145016 L36.8949608,6.5300714 L36.8981329,6.53634595 L36.9103255,6.55182992 L36.919346,6.56427782 L36.922419,6.57055237 L36.9375854,6.59231089 L36.9375854,6.59534696 L36.9496789,6.61093213 L36.9589968,6.6264161 L36.9618715,6.63269065 L36.9771371,6.6513119 L36.9771371,6.65768765 L36.9893297,6.67307042 L36.9984494,6.68551831 L37.0015223,6.69482894 L37.0137149,6.71365258 L37.0165896,6.71668866 L37.0259075,6.7354111 L37.0349281,6.747859 L37.038001,6.75716962 L37.0501937,6.77892814 L37.0531675,6.77892814 L37.0623863,6.79754939 L37.0714068,6.81313456 L37.0745789,6.81930791 L37.0866724,6.84106643 L37.0866724,6.8442037 L37.098865,6.86292615 L37.1050109,6.87527284 L37.1111567,6.88468467 L37.1201773,6.90644319 L37.1233494,6.90947926 L37.1323699,6.92820171 L37.1385158,6.9406496 L37.1415887,6.94996022 L37.1445625,6.94996022 L39.1659598,6.94996022 L39.1659598,4.01235771 L2.8340402,4.01235771 L2.8340402,6.94935301 L31.7808019,6.94935301 L31.7898225,6.92759449 L31.7928954,6.92131994 L31.8020151,6.90583597 L31.811333,6.890352 L31.8142077,6.88407745 L31.8234265,6.86231893 L31.8264003,6.85604438 L31.8356192,6.84045921 L31.8446397,6.82507644 L31.8477126,6.81870069 L31.8599053,6.79694217 L31.8628791,6.7939061 L31.8720979,6.77842213 L31.8812176,6.75969968 L31.8842905,6.75666361 L31.9176963,6.6975614 L31.9208684,6.69442413 L31.9329618,6.67266561 L31.9391077,6.66649226 L31.9482274,6.65090709 L31.9573471,6.63552432 L31.9603209,6.63238704 C31.990852,6.58259546 32.0243569,6.53604235 32.0577627,6.49252531 L32.0608356,6.48625076 L32.0820488,6.45518162 L32.0852209,6.45204434 C32.1185275,6.40539003 32.1551054,6.36187299 32.1915841,6.31845715 L32.19773,6.3121826 L32.2069488,6.29973471 L32.2191414,6.28425074 L32.2221152,6.28111346 L32.2373808,6.26573069 L32.2434275,6.25935494 L32.2861513,6.20976576 L32.2922971,6.20339001 C32.4384103,6.0480443 32.6027628,5.90514649 32.7763341,5.78390599 C32.8677292,5.72166651 32.961999,5.6626655 33.0593417,5.60973664 L33.0685605,5.60670056 L33.0837269,5.59728874 L33.0989924,5.58797812 L33.108013,5.58494204 L33.1322991,5.57249415 L33.1322991,5.57249415 L33.2053557,5.53525166 L33.2297409,5.52594104 L33.2297409,5.52594104 L33.254027,5.51349314 L33.263345,5.51035586 L33.2815843,5.50104524 L33.2966516,5.49477069 L33.3059696,5.49173462 L33.3303548,5.47928672 L33.3332295,5.47928672 L33.3576147,5.4699761 L33.3667344,5.46683883 L33.3819008,5.46056428 L33.4002393,5.45115245 L33.4094581,5.44801518 L33.4337442,5.43870455 L33.4337442,5.43870455 L33.4610042,5.42939393 L33.4672492,5.42625666 L33.4854885,5.42008331 L33.503827,5.41370756 L33.5130458,5.41067148 L33.5374311,5.40125966 L33.5403057,5.40125966 L33.5677639,5.39508631 L33.5739098,5.39194904 L33.5922483,5.38577569 L33.6073156,5.37939994 L33.6195082,5.37636387 L33.6437943,5.37008932 L33.6469664,5.37008932 L33.6742263,5.36077869 L33.680273,5.36077869 L33.6986115,5.35450414 L33.7139762,5.35146807 L33.7260697,5.3483308 L33.7504549,5.34205625 L33.7534287,5.33902017 L33.7807878,5.33274562 L33.7869336,5.33274562 L33.8082459,5.32647108 L33.8235115,5.3233338 L33.835605,5.32029773 L33.8599902,5.31726166 L33.862964,5.31412438 L33.8903231,5.30795103 L33.896469,5.30795103 L33.9208542,5.30481376 L33.9330468,5.30167648 L33.9481141,5.29864041 L33.9695255,5.29560434 L33.9756714,5.29560434 L34.0029313,5.28922859 L34.0060043,5.28922859 L34.0303895,5.28619251 L34.0454568,5.28315644 L34.0607224,5.28001917 L34.0820347,5.27698309 L34.0880814,5.27698309 L34.1155396,5.27394702 L34.1184143,5.27394702 L34.1427995,5.27080975 L34.1549921,5.27080975 L34.1732315,5.26767247 L34.194742,5.26767247 L34.2007888,5.2646364 L34.2313199,5.2646364 L34.2313199,5.2646364 L34.2585798,5.26160033 L34.2707724,5.26160033 L34.2891109,5.25846305 L34.3073503,5.25846305 L34.3166682,5.25846305 L34.3471002,5.25532578 L34.3471002,5.25532578 L34.3743601,5.25532578 L34.383678,5.25532578 L34.4019174,5.25532578 L34.4231306,5.25532578 L34.4323494,5.25532578 L34.4628805,5.25532578 L34.4901404,5.25532578 L34.4993592,5.25532578 L34.5206715,5.25532578 L34.5389109,5.25532578 L34.5482288,5.25532578 L34.5786608,5.25532578 L34.5786608,5.25532578 L34.606119,5.25846305 L34.6151395,5.25846305 L34.6365509,5.25846305 L34.6548894,5.26160033 L34.66391,5.26160033 L34.6913682,5.2646364 L34.694342,5.2646364 L34.721701,5.2646364 L34.7308207,5.26767247 L34.7522321,5.26767247 L34.7673986,5.27080975 L34.779492,5.27080975 L34.8069502,5.27394702 L34.8069502,5.27394702 L34.8374813,5.27698309 L34.8435281,5.28001917 L34.8648404,5.28001917 L34.8801059,5.28315644 L34.8922985,5.28619251 L34.9165847,5.28922859 L34.9195585,5.28922859 L34.9470166,5.29560434 L34.9560372,5.29560434 L34.9774486,5.29864041 L34.9925159,5.30167648 L35.0047085,5.30481376 L35.0290938,5.30795103 L35.0321667,5.30795103 L35.0594266,5.31412438 L35.0655725,5.31726166 L35.0869839,5.32029773 L35.1020512,5.3233338 L35.1142438,5.32647108 L35.1386291,5.33274562 L35.141702,5.33274562 L35.1689619,5.33902017 L35.1751078,5.34205625 L35.1965192,5.3483308 L35.2115865,5.35146807 L35.2237791,5.35450414 L35.2451906,5.36077869 L35.2513364,5.36077869 L35.2785964,5.37008932 L35.2816693,5.37008932 L35.3029816,5.37636387 L35.3182472,5.37939994 L35.3304398,5.38577569 L35.4095431,5.41057028 L35.4217357,5.41360635 L35.4369021,5.41998211 L35.4582144,5.42615545 L35.4643603,5.42929273 L35.4887455,5.43860335 L35.4917194,5.43860335 L35.5160055,5.44791397 L35.5586301,5.46673762 L35.5647759,5.4698749 L35.5922341,5.47918552 L35.5951088,5.47918552 L35.7261547,5.5412226 L35.7442949,5.54780076 Z M3.78694781,9.81489941 C3.68643306,9.71228016 3.54636664,9.65014187 3.39123293,9.65014187 C3.24511977,9.65014187 3.11119922,9.70610681 3.01375741,9.79931423 L2.99839273,9.81489941 C2.89807623,9.92045352 2.8340402,10.0604165 2.8340402,10.2188994 C2.8340402,10.3772812 2.89807623,10.5203814 2.99541892,10.6197622 C3.09890748,10.7254175 3.23897389,10.7875558 3.3911338,10.7875558 C3.54626752,10.7875558 3.68633393,10.7254175 3.78684868,10.6197622 C3.88716518,10.5203814 3.95120132,10.3772812 3.95120132,10.2188994 C3.95130033,10.0604165 3.88726431,9.92045352 3.78694781,9.81489941 Z M3.39123293,8.88555762 C3.75334377,8.88555762 4.07917413,9.03483119 4.31658323,9.27710977 C4.55082028,9.51645348 4.7001055,9.8522431 4.7001055,10.2190007 C4.7001055,10.585657 4.55082028,10.9181069 4.31658323,11.1605879 C4.079075,11.4030689 3.75334377,11.5522413 3.39123293,11.5522413 C3.03497058,11.5522413 2.70626553,11.4029677 2.47183024,11.1605879 C2.23432201,10.9181069 2.08533416,10.585657 2.08533416,10.2190007 C2.08533416,9.8522431 2.23442113,9.51655468 2.46895556,9.27710977 L2.49621547,9.2492791 C2.73055164,9.02228209 3.0471632,8.88555762 3.39123293,8.88555762 Z M7.10512416,9.81489941 C7.00768234,9.71228016 6.86761593,9.65014187 6.71238308,9.65014187 C6.56626992,9.65014187 6.43234938,9.70610681 6.33490756,9.79931423 L6.31954288,9.81489941 C6.21605432,9.92045352 6.15519036,10.0604165 6.15519036,10.2188994 C6.15519036,10.3772812 6.21605432,10.5203814 6.31656907,10.6197622 C6.4169847,10.7254175 6.55695199,10.7875558 6.71228396,10.7875558 C6.86761593,10.7875558 7.00758321,10.7254175 7.10502503,10.6227983 C7.20851359,10.5202802 7.26937767,10.3772812 7.26937767,10.2188994 C7.26947668,10.0604165 7.20851359,9.92045352 7.10512416,9.81489941 Z M6.71228396,8.88555762 C7.07152011,8.88555762 7.39725135,9.03483119 7.63475958,9.27710977 C7.87216869,9.51645348 8.01828185,9.8522431 8.01828185,10.2190007 C8.01828185,10.585657 7.87216869,10.9181069 7.63475958,11.1605879 C7.39725135,11.4030689 7.07152011,11.5522413 6.71228396,11.5522413 C6.3530478,11.5522413 6.02731656,11.4029677 5.78990746,11.1605879 C5.55239923,10.9181069 5.40628607,10.585657 5.40628607,10.2190007 C5.40628607,9.8522431 5.55239923,9.51655468 5.78990746,9.27710977 L5.81736563,9.2492791 C6.0517018,9.02228209 6.36821423,8.88555762 6.71228396,8.88555762 Z M37.494679,17.2363761 C37.3881175,17.1275835 37.2390305,17.0591707 37.074678,17.0591707 C36.9132002,17.0591707 36.7641132,17.1275835 36.6575517,17.2363761 C36.5510893,17.3420315 36.4838812,17.4943411 36.4838812,17.6621347 C36.4838812,17.8268922 36.5510893,17.9791007 36.6575517,18.0879945 C36.7641132,18.1998231 36.9132002,18.2650987 37.074678,18.2650987 C37.2329838,18.2650987 37.3729511,18.2060977 37.4764396,18.1066157 L37.4947781,18.0879945 C37.6012405,17.9791007 37.6682503,17.8268922 37.6682503,17.6621347 C37.6682503,17.5037529 37.6073864,17.3576166 37.5098454,17.2518601 L37.494679,17.2363761 Z M37.074678,16.2946877 C37.4460077,16.2946877 37.7808586,16.4468961 38.0244136,16.6956516 L38.0486997,16.7234823 C38.2769891,16.9691006 38.4139826,17.2985144 38.4139826,17.6620335 C38.4139826,18.0382029 38.2647965,18.3800646 38.0244136,18.628719 L37.9969554,18.6535136 C37.7564733,18.8866839 37.4307421,19.0295817 37.074678,19.0295817 C36.709296,19.0295817 36.3743459,18.874236 36.1308901,18.628719 C35.8873351,18.3800646 35.7383473,18.0382029 35.7383473,17.6620335 C35.7383473,17.2859653 35.8873351,16.9441036 36.1308901,16.6955504 C36.3713721,16.4468961 36.706223,16.2946877 37.074678,16.2946877 Z M34.2647257,17.2363761 C34.1582633,17.1275835 34.0089781,17.0591707 33.8477976,17.0591707 C33.6894918,17.0591707 33.5495245,17.1214102 33.4428639,17.2208922 L33.4277966,17.2363761 C33.3242089,17.3451687 33.2571991,17.4943411 33.2571991,17.6621347 C33.2571991,17.8268922 33.3242089,17.9791007 33.4277966,18.0879945 C33.5341599,18.1966859 33.6834451,18.2650987 33.8477976,18.2650987 C34.0029313,18.2650987 34.1460707,18.2060977 34.2496584,18.1066157 L34.2647257,18.0879945 C34.3713863,17.9791007 34.4383961,17.8268922 34.4383961,17.6621347 C34.4383961,17.5037529 34.3804068,17.3576166 34.2830642,17.2518601 L34.2647257,17.2363761 Z M33.8477976,16.2946877 C34.2160543,16.2946877 34.5509052,16.4468961 34.7946585,16.6956516 L34.8189446,16.7234823 C35.0471349,16.9691006 35.1872013,17.2985144 35.1872013,17.6620335 C35.1872013,18.0382029 35.0349423,18.3800646 34.7946585,18.628719 L34.7672003,18.6535136 C34.52652,18.8866839 34.2008879,19.0295817 33.8478967,19.0295817 C33.4794418,19.0295817 33.1445909,18.874236 32.9010359,18.628719 C32.65758,18.3800646 32.5083939,18.0382029 32.5083939,17.6620335 C32.5083939,17.2859653 32.65758,16.9410675 32.9010359,16.6955504 L32.9254211,16.6706546 C33.1659032,16.4377879 33.4915353,16.2946877 33.8477976,16.2946877 Z M31.0349706,17.2363761 C30.9285082,17.1275835 30.782395,17.0591707 30.6180425,17.0591707 C30.4566638,17.0591707 30.3073786,17.1275835 30.2009162,17.2363761 C30.0942556,17.3451687 30.0272458,17.4943411 30.0272458,17.6621347 C30.0272458,17.8268922 30.0942556,17.9791007 30.2009162,18.0879945 C30.3073786,18.1998231 30.4534917,18.2650987 30.6180425,18.2650987 C30.782395,18.2650987 30.931482,18.1998231 31.0349706,18.0909293 C31.1445059,17.9791007 31.2085419,17.8299283 31.2085419,17.6621347 C31.2085419,17.5037529 31.1506518,17.3576166 31.0532099,17.2518601 L31.0349706,17.2363761 Z M30.6180425,16.2946877 C30.9893722,16.2946877 31.3242231,16.4468961 31.5647051,16.6956516 L31.5889912,16.7234823 C31.8173798,16.9691006 31.9573471,17.2985144 31.9573471,17.6620335 C31.9573471,18.0382029 31.808161,18.3800646 31.5647051,18.6255817 C31.3211502,18.8772721 30.9862992,19.0295817 30.6180425,19.0295817 C30.2495876,19.0295817 29.9147366,18.874236 29.6711817,18.628719 C29.4277258,18.3800646 29.2784406,18.0382029 29.2784406,17.6620335 C29.2784406,17.2859653 29.4277258,16.9410675 29.6711817,16.6955504 C29.9147366,16.4468961 30.2495876,16.2946877 30.6180425,16.2946877 Z M25.6894493,19.3838914 L4.53258091,19.3838914 C4.32560379,19.3838914 4.15827746,19.2130617 4.15827746,19.0047871 L4.15827746,16.2575464 C4.15827746,16.0491706 4.32560379,15.8784421 4.53258091,15.8784421 L25.6894493,15.8784421 C25.8965256,15.8784421 26.0637528,16.0492718 26.0637528,16.2575464 L26.0637528,19.0047871 C26.0637528,19.2129605 25.8965256,19.3838914 25.6894493,19.3838914 Z M4.28615125,22.5570931 C4.28615125,22.3457825 4.45347759,22.1747504 4.6574809,22.1747504 C4.86445802,22.1747504 5.03198261,22.3457825 5.03198261,22.5570931 L5.03198261,25.6742287 L5.66808041,25.6742287 C5.87208372,25.6742287 6.04258212,25.8451596 6.04258212,26.0565715 C6.04258212,26.2678821 5.87208372,26.4387118 5.66808041,26.4387118 L5.03198261,26.4387118 L5.03198261,38.823661 C5.03198261,39.0349716 4.86445802,39.2059025 4.6574809,39.2059025 C4.45347759,39.2059025 4.28615125,39.0349716 4.28615125,38.823661 L4.28615125,26.438813 L3.6498552,26.438813 C3.44287808,26.438813 3.27555175,26.2679833 3.27555175,26.0566727 C3.27555175,25.8452608 3.44287808,25.6743299 3.6498552,25.6743299 L4.28615125,25.6743299 L4.28615125,22.5570931 Z M8.7122698,38.8237622 C8.7122698,39.0350728 8.54474521,39.2060037 8.33776809,39.2060037 C8.1338639,39.2060037 7.96346463,39.0350728 7.96346463,38.8237622 L7.96346463,35.7065254 L7.33034064,35.7065254 C7.12336352,35.7065254 6.95583893,35.5355945 6.95583893,35.3273199 C6.95583893,35.1160093 7.12336352,34.9451796 7.33034064,34.9451796 L7.96346463,34.9451796 L7.96346463,22.5570931 C7.96346463,22.3457825 8.13396303,22.1747504 8.33776809,22.1747504 C8.54474521,22.1747504 8.7122698,22.3457825 8.7122698,22.5570931 L8.7122698,34.9450784 L9.34856585,34.9450784 C9.55247003,34.9450784 9.7228693,35.1159081 9.7228693,35.3272187 C9.7228693,35.5354933 9.55247003,35.7064242 9.34856585,35.7064242 L8.7122698,35.7064242 L8.7122698,38.8237622 L8.7122698,38.8237622 Z M11.6437518,22.5570931 C11.6437518,22.3457825 11.8142502,22.1747504 12.0182535,22.1747504 C12.2252306,22.1747504 12.392557,22.3457825 12.392557,22.5570931 L12.392557,25.6742287 L13.028853,25.6742287 C13.2328563,25.6742287 13.4001827,25.8451596 13.4001827,26.0565715 C13.4001827,26.2678821 13.2328563,26.4387118 13.028853,26.4387118 L12.392557,26.4387118 L12.392557,38.823661 C12.392557,39.0349716 12.2252306,39.2059025 12.0182535,39.2059025 C11.8142502,39.2059025 11.6437518,39.0349716 11.6437518,38.823661 L11.6437518,26.438813 L11.0106278,26.438813 C10.8036507,26.438813 10.6361261,26.2679833 10.6361261,26.0566727 C10.6361261,25.8452608 10.8036507,25.6743299 11.0106278,25.6743299 L11.6437518,25.6743299 L11.6437518,22.5570931 Z M15.3242373,22.5570931 C15.3242373,22.3457825 15.4946365,22.1747504 15.6985407,22.1747504 C15.9055178,22.1747504 16.0730424,22.3457825 16.0730424,22.5570931 L16.0730424,30.9110489 L16.7061664,30.9110489 C16.9131435,30.9110489 17.0806681,31.0819798 17.0806681,31.2932905 C17.0806681,31.5046011 16.9131435,31.675532 16.7061664,31.675532 L16.0730424,31.675532 L16.0730424,38.823661 C16.0730424,39.0349716 15.9055178,39.2059025 15.6985407,39.2059025 C15.4946365,39.2059025 15.3242373,39.0349716 15.3242373,38.823661 L15.3242373,31.675532 L14.690915,31.675532 C14.4839379,31.675532 14.3166116,31.5046011 14.3166116,31.2932905 C14.3166116,31.0819798 14.4839379,30.9110489 14.690915,30.9110489 L15.3242373,30.9110489 L15.3242373,22.5570931 Z M19.0045244,22.5570931 C19.0045244,22.3457825 19.172049,22.1747504 19.3790261,22.1747504 C19.5860033,22.1747504 19.7533296,22.3457825 19.7533296,22.5570931 L19.7533296,33.5621474 L20.3864536,33.5621474 C20.5934307,33.5621474 20.7609553,33.7329771 20.7609553,33.9443889 C20.7609553,34.1556996 20.5934307,34.3265292 20.3864536,34.3265292 L19.7533296,34.3265292 L19.7533296,38.8237622 C19.7533296,39.0350728 19.5860033,39.2060037 19.3790261,39.2060037 C19.172049,39.2060037 19.0045244,39.0350728 19.0045244,38.8237622 L19.0045244,34.3265292 L18.3714005,34.3265292 C18.1644233,34.3265292 17.9968987,34.1556996 17.9968987,33.9443889 C17.9968987,33.7329771 18.1644233,33.5621474 18.3714005,33.5621474 L19.0045244,33.5621474 L19.0045244,22.5570931 Z M22.2464721,22.5570931 C22.2464721,22.3457825 22.4138976,22.1747504 22.6209739,22.1747504 C22.827951,22.1747504 22.9953764,22.3457825 22.9953764,22.5570931 L22.9953764,25.6742287 L23.6285995,25.6742287 C23.8355767,25.6742287 24.002903,25.8451596 24.002903,26.0565715 C24.002903,26.2678821 23.8355767,26.4387118 23.6285995,26.4387118 L22.9953764,26.4387118 L22.9953764,38.823661 C22.9953764,39.0349716 22.827951,39.2059025 22.6209739,39.2059025 C22.4138976,39.2059025 22.2464721,39.0349716 22.2464721,38.823661 L22.2464721,26.438813 L21.6133482,26.438813 C21.406371,26.438813 21.2390447,26.2679833 21.2390447,26.0566727 C21.2390447,25.8452608 21.406371,25.6743299 21.6133482,25.6743299 L22.2464721,25.6743299 L22.2464721,22.5570931 Z M26.6756636,38.8237622 C26.6756636,39.0350728 26.5082382,39.2060037 26.301261,39.2060037 C26.0942839,39.2060037 25.9269576,39.0350728 25.9269576,38.8237622 L25.9269576,35.7065254 L25.2937345,35.7065254 C25.0867573,35.7065254 24.9193319,35.5355945 24.9193319,35.3273199 C24.9193319,35.1160093 25.0867573,34.9451796 25.2937345,34.9451796 L25.9269576,34.9451796 L25.9269576,22.5570931 C25.9269576,22.3457825 26.0942839,22.1747504 26.301261,22.1747504 C26.5082382,22.1747504 26.6756636,22.3457825 26.6756636,22.5570931 L26.6756636,34.9450784 L27.3088867,34.9450784 C27.515963,34.9450784 27.6833884,35.1159081 27.6833884,35.3272187 C27.6833884,35.5354933 27.515963,35.7064242 27.3088867,35.7064242 L26.6756636,35.7064242 L26.6756636,38.8237622 Z M29.6071456,22.5570931 C29.6071456,22.3457825 29.7746702,22.1747504 29.9816473,22.1747504 C30.1886245,22.1747504 30.3559508,22.3457825 30.3559508,22.5570931 L30.3559508,25.6742287 L30.989273,25.6742287 C31.1963493,25.6742287 31.3635765,25.8451596 31.3635765,26.0565715 C31.3635765,26.2678821 31.1962502,26.4387118 30.989273,26.4387118 L30.3559508,26.4387118 L30.3559508,38.823661 C30.3559508,39.0349716 30.1886245,39.2059025 29.9816473,39.2059025 C29.7746702,39.2059025 29.6071456,39.0349716 29.6071456,38.823661 L29.6071456,26.438813 L28.9739225,26.438813 C28.7669454,26.438813 28.5995199,26.2679833 28.5995199,26.0566727 C28.5995199,25.8452608 28.7669454,25.6743299 28.9739225,25.6743299 L29.6071456,25.6743299 L29.6071456,22.5570931 Z M33.2876311,22.5570931 C33.2876311,22.3457825 33.4549574,22.1747504 33.6619345,22.1747504 C33.8689117,22.1747504 34.0363371,22.3457825 34.0363371,22.5570931 L34.0363371,30.9110489 L34.6695602,30.9110489 C34.8766365,30.9110489 35.0440619,31.0819798 35.0440619,31.2932905 C35.0440619,31.5046011 34.8766365,31.675532 34.6695602,31.675532 L34.0363371,31.675532 L34.0363371,38.823661 C34.0363371,39.0349716 33.8689117,39.2059025 33.6619345,39.2059025 C33.4549574,39.2059025 33.2876311,39.0349716 33.2876311,38.823661 L33.2876311,31.675532 L32.654408,31.675532 C32.4472326,31.675532 32.2800054,31.5046011 32.2800054,31.2932905 C32.2800054,31.0819798 32.4473317,30.9110489 32.654408,30.9110489 L33.2876311,30.9110489 L33.2876311,22.5570931 Z M36.9679183,22.5570931 C36.9679183,22.3457825 37.1354428,22.1747504 37.34242,22.1747504 C37.5493971,22.1747504 37.7167234,22.3457825 37.7167234,22.5570931 L37.7167234,33.5621474 L38.3498474,33.5621474 C38.5570228,33.5621474 38.7243491,33.7329771 38.7243491,33.9443889 C38.7243491,34.1556996 38.5570228,34.3265292 38.3498474,34.3265292 L37.7167234,34.3265292 L37.7167234,38.8237622 C37.7167234,39.0350728 37.5493971,39.2060037 37.34242,39.2060037 C37.1354428,39.2060037 36.9679183,39.0350728 36.9679183,38.8237622 L36.9679183,34.3265292 L36.3347943,34.3265292 C36.127718,34.3265292 35.9602926,34.1556996 35.9602926,33.9443889 C35.9602926,33.7329771 36.127718,33.5621474 36.3347943,33.5621474 L36.9679183,33.5621474 L36.9679183,22.5570931 Z M4.90708262,18.6224444 L25.3149476,18.6224444 L25.3149476,16.6396867 L4.90708262,16.6396867 L4.90708262,18.6224444 Z" transform="translate(2 2)"/>
</svg>
