<svg height='300px' width='300px'  fill="#000000" xmlns="http://www.w3.org/2000/svg" xmlns:xlink="http://www.w3.org/1999/xlink" version="1.1" x="0px" y="0px" viewBox="0 0 100 100" style="enable-background:new 0 0 100 100;" xml:space="preserve"><path d="M47.8,37.1h-8.7c-0.6,0-1,0.4-1,1v8.7c0,0.6,0.4,1,1,1h8.7c0.6,0,1-0.4,1-1v-8.7C48.8,37.5,48.4,37.1,47.8,37.1z M46.8,45.8  h-6.7v-6.7h6.7V45.8z"></path><path d="M17.9,28.2h36.2c0.6,0,1-0.4,1-1V15.1c0-0.6-0.4-1-1-1H17.9c-0.6,0-1,0.4-1,1v12.1C16.9,27.8,17.4,28.2,17.9,28.2z   M18.9,16.1h34.2v10.1H18.9V16.1z"></path><path d="M60.3,37.1h-8.7c-0.6,0-1,0.4-1,1v8.7c0,0.6,0.4,1,1,1h8.7c0.6,0,1-0.4,1-1v-8.7C61.3,37.5,60.9,37.1,60.3,37.1z M59.3,45.8  h-6.7v-6.7h6.7V45.8z"></path><path d="M63.1,38.1v8.7c0,0.6,0.4,1,1,1h8.7c0.6,0,1-0.4,1-1v-8.7c0-0.6-0.4-1-1-1h-8.7C63.5,37.1,63.1,37.5,63.1,38.1z M65.1,39.1  h6.7v6.7h-6.7V39.1z"></path><path d="M76.6,37.1c-0.6,0-1,0.4-1,1v8.7c0,0.6,0.4,1,1,1h8.7c0.6,0,1-0.4,1-1v-8.7c0-0.6-0.4-1-1-1H76.6z M84.3,45.8h-6.7v-6.7h6.7  V45.8z"></path><path d="M75.3,26.1h9.1c0.6,0,1-0.4,1-1v-3.4c0-0.6-0.4-1-1-1h-9.1c-0.6,0-1,0.4-1,1v3.4C74.3,25.7,74.7,26.1,75.3,26.1z M76.3,22.7  h7.1v1.4h-7.1V22.7z"></path><path d="M75.3,32.2h9.1c0.6,0,1-0.4,1-1v-3.5c0-0.6-0.4-1-1-1h-9.1c-0.6,0-1,0.4-1,1v3.5C74.3,31.8,74.7,32.2,75.3,32.2z M76.3,28.7  h7.1v1.5h-7.1V28.7z"></path><path d="M47.8,49.7h-8.7c-0.6,0-1,0.4-1,1v8.7c0,0.6,0.4,1,1,1h8.7c0.6,0,1-0.4,1-1v-8.7C48.8,50.2,48.4,49.7,47.8,49.7z M46.8,58.4  h-6.7v-6.7h6.7V58.4z"></path><path d="M60.3,49.7h-8.7c-0.6,0-1,0.4-1,1v8.7c0,0.6,0.4,1,1,1h8.7c0.6,0,1-0.4,1-1v-8.7C61.3,50.2,60.9,49.7,60.3,49.7z M59.3,58.4  h-6.7v-6.7h6.7V58.4z"></path><path d="M72.8,49.7h-8.7c-0.6,0-1,0.4-1,1v8.7c0,0.6,0.4,1,1,1h8.7c0.6,0,1-0.4,1-1v-8.7C73.8,50.2,73.4,49.7,72.8,49.7z M71.8,58.4  h-6.7v-6.7h6.7V58.4z"></path><path d="M85.3,49.7h-8.7c-0.6,0-1,0.4-1,1v8.7c0,0.6,0.4,1,1,1h8.7c0.6,0,1-0.4,1-1v-8.7C86.3,50.2,85.9,49.7,85.3,49.7z M84.3,58.4  h-6.7v-6.7h6.7V58.4z"></path><path d="M47.8,62.4h-8.7c-0.6,0-1,0.4-1,1V72c0,0.6,0.4,1,1,1h8.7c0.6,0,1-0.4,1-1v-8.7C48.8,62.8,48.4,62.4,47.8,62.4z M46.8,71  h-6.7v-6.7h6.7V71z"></path><path d="M60.3,62.4h-8.7c-0.6,0-1,0.4-1,1V72c0,0.6,0.4,1,1,1h8.7c0.6,0,1-0.4,1-1v-8.7C61.3,62.8,60.9,62.4,60.3,62.4z M59.3,71  h-6.7v-6.7h6.7V71z"></path><path d="M72.8,62.4h-8.7c-0.6,0-1,0.4-1,1V72c0,0.6,0.4,1,1,1h8.7c0.6,0,1-0.4,1-1v-8.7C73.8,62.8,73.4,62.4,72.8,62.4z M71.8,71  h-6.7v-6.7h6.7V71z"></path><path d="M85.3,62.4h-8.7c-0.6,0-1,0.4-1,1V72c0,0.6,0.4,1,1,1h8.7c0.6,0,1-0.4,1-1v-8.7C86.3,62.8,85.9,62.4,85.3,62.4z M84.3,71  h-6.7v-6.7h6.7V71z"></path><path d="M47.8,75h-8.7c-0.6,0-1,0.4-1,1v8.7c0,0.6,0.4,1,1,1h8.7c0.6,0,1-0.4,1-1V76C48.8,75.4,48.4,75,47.8,75z M46.8,83.7h-6.7V77  h6.7V83.7z"></path><path d="M90.4,17.1H59.3v-5.7c0-0.6-0.4-1-1-1H13.8c-0.6,0-1,0.4-1,1v5.7H9.6c-0.6,0-1,0.4-1,1v70.5c0,0.6,0.4,1,1,1h80.8  c0.6,0,1-0.4,1-1V18.1C91.4,17.5,91,17.1,90.4,17.1z M14.8,12.4h42.6v5.7v11.8H14.8V18.1V12.4z M89.4,87.6H10.6V19.1h2.2v11.8  c0,0.6,0.4,1,1,1h44.6c0.6,0,1-0.4,1-1V19.1h30.1V87.6z"></path><path d="M60.3,75h-8.7c-0.6,0-1,0.4-1,1v8.7c0,0.6,0.4,1,1,1h8.7c0.6,0,1-0.4,1-1V76C61.3,75.4,60.9,75,60.3,75z M59.3,83.7h-6.7V77  h6.7V83.7z"></path><path d="M72.8,75h-8.7c-0.6,0-1,0.4-1,1v8.7c0,0.6,0.4,1,1,1h8.7c0.6,0,1-0.4,1-1V76C73.8,75.4,73.4,75,72.8,75z M71.8,83.7h-6.7V77  h6.7V83.7z"></path><path d="M85.3,75h-8.7c-0.6,0-1,0.4-1,1v8.7c0,0.6,0.4,1,1,1h8.7c0.6,0,1-0.4,1-1V76C86.3,75.4,85.9,75,85.3,75z M84.3,83.7h-6.7V77  h6.7V83.7z"></path><path d="M17.9,36.3c-2.7,0-4.9,2.2-4.9,4.9s2.2,4.9,4.9,4.9s4.9-2.2,4.9-4.9S20.6,36.3,17.9,36.3z M17.9,44.1  c-1.6,0-2.9-1.3-2.9-2.9s1.3-2.9,2.9-2.9s2.9,1.3,2.9,2.9S19.5,44.1,17.9,44.1z"></path><path d="M29.7,36.3c-2.7,0-4.9,2.2-4.9,4.9s2.2,4.9,4.9,4.9s4.9-2.2,4.9-4.9S32.4,36.3,29.7,36.3z M29.7,44.1  c-1.6,0-2.9-1.3-2.9-2.9s1.3-2.9,2.9-2.9s2.9,1.3,2.9,2.9S31.3,44.1,29.7,44.1z"></path><path d="M66.8,32.3c3.2,0,5.8-2.6,5.8-5.8s-2.6-5.8-5.8-5.8c-3.2,0-5.8,2.6-5.8,5.8S63.6,32.3,66.8,32.3z M66.8,22.7  c2.1,0,3.8,1.7,3.8,3.8s-1.7,3.8-3.8,3.8c-2.1,0-3.8-1.7-3.8-3.8S64.7,22.7,66.8,22.7z"></path><path d="M66.8,29.3c1.5,0,2.8-1.3,2.8-2.8s-1.3-2.8-2.8-2.8S64,25,64,26.5S65.3,29.3,66.8,29.3z M66.8,25.7c0.4,0,0.8,0.4,0.8,0.8  s-0.4,0.8-0.8,0.8S66,27,66,26.5S66.4,25.7,66.8,25.7z"></path><path d="M17.9,49.3c-2.7,0-4.9,2.2-4.9,4.9s2.2,4.9,4.9,4.9s4.9-2.2,4.9-4.9S20.6,49.3,17.9,49.3z M17.9,57.1  c-1.6,0-2.9-1.3-2.9-2.9s1.3-2.9,2.9-2.9s2.9,1.3,2.9,2.9S19.5,57.1,17.9,57.1z"></path><path d="M29.7,49.3c-2.7,0-4.9,2.2-4.9,4.9s2.2,4.9,4.9,4.9s4.9-2.2,4.9-4.9S32.4,49.3,29.7,49.3z M29.7,57.1  c-1.6,0-2.9-1.3-2.9-2.9s1.3-2.9,2.9-2.9s2.9,1.3,2.9,2.9S31.3,57.1,29.7,57.1z"></path><path d="M17.9,62.3c-2.7,0-4.9,2.2-4.9,4.9s2.2,4.9,4.9,4.9s4.9-2.2,4.9-4.9S20.6,62.3,17.9,62.3z M17.9,70.1  c-1.6,0-2.9-1.3-2.9-2.9s1.3-2.9,2.9-2.9s2.9,1.3,2.9,2.9S19.5,70.1,17.9,70.1z"></path><path d="M29.7,62.3c-2.7,0-4.9,2.2-4.9,4.9s2.2,4.9,4.9,4.9s4.9-2.2,4.9-4.9S32.4,62.3,29.7,62.3z M29.7,70.1  c-1.6,0-2.9-1.3-2.9-2.9s1.3-2.9,2.9-2.9s2.9,1.3,2.9,2.9S31.3,70.1,29.7,70.1z"></path><path d="M17.9,75.3c-2.7,0-4.9,2.2-4.9,4.9s2.2,4.9,4.9,4.9s4.9-2.2,4.9-4.9S20.6,75.3,17.9,75.3z M17.9,83.1  c-1.6,0-2.9-1.3-2.9-2.9s1.3-2.9,2.9-2.9s2.9,1.3,2.9,2.9S19.5,83.1,17.9,83.1z"></path><path d="M29.7,75.3c-2.7,0-4.9,2.2-4.9,4.9s2.2,4.9,4.9,4.9s4.9-2.2,4.9-4.9S32.4,75.3,29.7,75.3z M29.7,83.1  c-1.6,0-2.9-1.3-2.9-2.9s1.3-2.9,2.9-2.9s2.9,1.3,2.9,2.9S31.3,83.1,29.7,83.1z"></path></svg>