<svg height='300px' width='300px'  fill="#000000" xmlns="http://www.w3.org/2000/svg" xmlns:xlink="http://www.w3.org/1999/xlink" version="1.1" x="0px" y="0px" viewBox="0 0 66 66" enable-background="new 0 0 66 66" xml:space="preserve"><g><path d="M65.0000153,3h-64c0,28.7608624,0,31.2401352,0,60h64C65.0000153,54.7152557,65.0000153,12.373455,65.0000153,3z    M3.0000141,5h60v33.25h-60V5z M63.0000153,61h-60V40.25h60V61z"></path><polygon points="7.7334123,58.25 9.7334127,58.25 9.7334127,47.8334961 11.1084127,47.8334961 11.1084127,45.8334961    9.7334127,45.8334961 9.7334127,43 7.7334123,43 7.7334123,45.8334961 6.3584123,45.8334961 6.3584123,47.8334961    7.7334123,47.8334961  "></polygon><polygon points="15.4004049,58.25 17.400404,58.25 17.400404,55.4165039 18.775404,55.4165039 18.775404,53.4165039    17.400404,53.4165039 17.400404,43 15.4004049,43 15.4004049,53.4165039 14.0254049,53.4165039 14.0254049,55.4165039    15.4004049,55.4165039  "></polygon><polygon points="23.0673962,58.25 25.0673962,58.25 25.0673962,50.8334961 26.4423962,50.8334961 26.4423962,48.8334961    25.0673962,48.8334961 25.0673962,43 23.0673962,43 23.0673962,48.8334961 21.6923962,48.8334961 21.6923962,50.8334961    23.0673962,50.8334961  "></polygon><polygon points="30.7334118,58.25 32.7334137,58.25 32.7334137,49.8334961 34.1084137,49.8334961 34.1084137,47.8334961    32.7334137,47.8334961 32.7334137,43 30.7334118,43 30.7334118,47.8334961 29.3584118,47.8334961 29.3584118,49.8334961    30.7334118,49.8334961  "></polygon><polygon points="38.4004059,58.25 40.4004059,58.25 40.4004059,56.8334961 41.7754059,56.8334961 41.7754059,54.8334961    40.4004059,54.8334961 40.4004059,43 38.4004059,43 38.4004059,54.8334961 37.0254059,54.8334961 37.0254059,56.8334961    38.4004059,56.8334961  "></polygon><polygon points="46.0673981,58.25 48.0673981,58.25 48.0673981,45.8334961 49.4423981,45.8334961 49.4423981,43.8334961    48.0673981,43.8334961 48.0673981,43 46.0673981,43 46.0673981,43.8334961 44.6923981,43.8334961 44.6923981,45.8334961    46.0673981,45.8334961  "></polygon><path d="M54.8504181,57.539978c0,0.9400024-0.7700195,1.710022-1.710022,1.710022s-1.7000122-0.7700195-1.7000122-1.710022   s0.7600098-1.710022,1.7000122-1.710022S54.8504181,56.5999756,54.8504181,57.539978z"></path><path d="M54.8504181,50.6300049c0,0.9400024-0.7700195,1.6999512-1.710022,1.6999512s-1.7000122-0.7599487-1.7000122-1.6999512   c0-0.9500122,0.7600098-1.710022,1.7000122-1.710022S54.8504181,49.6799927,54.8504181,50.6300049z"></path><path d="M54.8504181,43.7099609c0,0.9400024-0.7700195,1.710022-1.710022,1.710022s-1.7000122-0.7700195-1.7000122-1.710022   S52.2003937,42,53.1403961,42S54.8504181,42.7699585,54.8504181,43.7099609z"></path><path d="M61.0003815,57.539978c0,0.9400024-0.7699585,1.710022-1.7099609,1.710022s-1.7000122-0.7700195-1.7000122-1.710022   s0.7600098-1.710022,1.7000122-1.710022S61.0003815,56.5999756,61.0003815,57.539978z"></path><path d="M57.5904083,43.7099609C57.5904083,42.7699585,58.3504181,42,59.2904205,42s1.7099609,0.7699585,1.7099609,1.7099609   s-0.7699585,1.710022-1.7099609,1.710022S57.5904083,44.6499634,57.5904083,43.7099609z"></path><path d="M61.0003815,50.6300049c0,0.9400024-0.7699585,1.6999512-1.7099609,1.6999512s-1.7000122-0.7599487-1.7000122-1.6999512   c0-0.9500122,0.7600098-1.710022,1.7000122-1.710022S61.0003815,49.6799927,61.0003815,50.6300049z"></path><path d="M15.3703756,29.4299927c0,1.7700195-2.6899414,1.7700195-2.6899414,0   C12.6804342,27.6499634,15.3703756,27.6499634,15.3703756,29.4299927z"></path><path d="M8.690383,13.8299561c0,0.7400513-0.6099854,1.3400269-1.3499761,1.3400269S6.00038,14.5700073,6.00038,13.8299561   c0-0.75,0.6000366-1.3499756,1.3400269-1.3499756S8.690383,13.0799561,8.690383,13.8299561z"></path><path d="M8.690383,29.4299927c0,0.7399902-0.6099854,1.3399658-1.3499761,1.3399658S6.00038,30.1699829,6.00038,29.4299927   s0.6000366-1.3500366,1.3400269-1.3500366S8.690383,28.6900024,8.690383,29.4299927z"></path><path d="M15.3703756,34.6300049c0,0.7399902-0.5999756,1.3399658-1.3399658,1.3399658   c-0.75,0-1.3499756-0.5999756-1.3499756-1.3399658s0.5999756-1.3500366,1.3499756-1.3500366   C14.7704,33.2799683,15.3703756,33.8900146,15.3703756,34.6300049z"></path><path d="M15.3703756,24.2299805c0,0.7399902-0.5999756,1.3400269-1.3399658,1.3400269   c-0.75,0-1.3499756-0.6000366-1.3499756-1.3400269c0-0.75,0.5999756-1.3499756,1.3499756-1.3499756   C14.7704,22.8800049,15.3703756,23.4799805,15.3703756,24.2299805z"></path><path d="M15.3703756,19.0299683c0,0.7399902-0.5999756,1.3400269-1.3399658,1.3400269   c-0.75,0-1.3499756-0.6000366-1.3499756-1.3400269s0.5999756-1.3499756,1.3499756-1.3499756   C14.7704,17.6799927,15.3703756,18.289978,15.3703756,19.0299683z"></path><path d="M8.690383,24.2299805c0,0.7399902-0.6099854,1.3400269-1.3499761,1.3400269S6.00038,24.9699707,6.00038,24.2299805   c0-0.75,0.6000366-1.3499756,1.3400269-1.3499756S8.690383,23.4799805,8.690383,24.2299805z"></path><path d="M15.3703756,8.6300049c0,0.7399902-0.5999756,1.3399658-1.3399658,1.3399658   c-0.75,0-1.3499756-0.5999756-1.3499756-1.3399658s0.5999756-1.3500366,1.3499756-1.3500366   C14.7704,7.2799683,15.3703756,7.8900146,15.3703756,8.6300049z"></path><path d="M15.3703756,13.8299561c0,0.7400513-0.5999756,1.3400269-1.3399658,1.3400269   c-0.75,0-1.3499756-0.5999756-1.3499756-1.3400269c0-0.75,0.5999756-1.3499756,1.3499756-1.3499756   C14.7704,12.4799805,15.3703756,13.0799561,15.3703756,13.8299561z"></path><path d="M8.690383,34.6300049c0,1.7699585-2.6900029,1.7699585-2.6900029,0c0-0.7399902,0.6000366-1.3500366,1.3400269-1.3500366   S8.690383,33.8900146,8.690383,34.6300049z"></path><path d="M8.690383,8.6300049c0,0.7399902-0.6099854,1.3399658-1.3499761,1.3399658S6.00038,9.3699951,6.00038,8.6300049   s0.6000366-1.3500366,1.3400269-1.3500366S8.690383,7.8900146,8.690383,8.6300049z"></path><path d="M8.690383,19.0299683c0,0.7399902-0.6099854,1.3400269-1.3499761,1.3400269S6.00038,19.7699585,6.00038,19.0299683   s0.6000366-1.3499756,1.3400269-1.3499756S8.690383,18.289978,8.690383,19.0299683z"></path><path d="M35.4104156,34.6300049c0,0.7399902-0.6000366,1.3399658-1.3400269,1.3399658s-1.3399658-0.5999756-1.3399658-1.3399658   s0.5999756-1.3500366,1.3399658-1.3500366S35.4104156,33.8900146,35.4104156,34.6300049z"></path><path d="M28.7304211,8.6300049c0,0.7399902-0.6000366,1.3399658-1.3400269,1.3399658s-1.3499756-0.5999756-1.3499756-1.3399658   s0.6099854-1.3500366,1.3499756-1.3500366S28.7304211,7.8900146,28.7304211,8.6300049z"></path><path d="M35.4104156,8.6300049c0,0.7399902-0.6000366,1.3399658-1.3400269,1.3399658S32.730423,9.3699951,32.730423,8.6300049   s0.5999756-1.3500366,1.3399658-1.3500366S35.4104156,7.8900146,35.4104156,8.6300049z"></path><path d="M35.4104156,29.4299927c0,0.7399902-0.6000366,1.3399658-1.3400269,1.3399658s-1.3399658-0.5999756-1.3399658-1.3399658   s0.5999756-1.3500366,1.3399658-1.3500366S35.4104156,28.6900024,35.4104156,29.4299927z"></path><path d="M22.0504284,29.4299927c0,0.7399902-0.6000366,1.3399658-1.3400269,1.3399658   c-1.7799683,0-1.7799683-2.6900024,0-2.6900024C21.4503918,28.0799561,22.0504284,28.6900024,22.0504284,29.4299927z"></path><path d="M35.4104156,13.8299561c0,0.7400513-0.6000366,1.3400269-1.3400269,1.3400269s-1.3399658-0.5999756-1.3399658-1.3400269   c0-0.75,0.5999756-1.3499756,1.3399658-1.3499756S35.4104156,13.0799561,35.4104156,13.8299561z"></path><path d="M42.0904083,13.8299561c0,0.7400513-0.5999756,1.3400269-1.3400269,1.3400269   c-0.7399902,0-1.3399658-0.5999756-1.3399658-1.3400269c0-0.75,0.5999756-1.3499756,1.3399658-1.3499756   C41.4904327,12.4799805,42.0904083,13.0799561,42.0904083,13.8299561z"></path><path d="M22.0504284,13.8299561c0,0.7400513-0.6000366,1.3400269-1.3400269,1.3400269s-1.3499756-0.5999756-1.3499756-1.3400269   c0-0.75,0.6099854-1.3499756,1.3499756-1.3499756S22.0504284,13.0799561,22.0504284,13.8299561z"></path><path d="M42.0904083,34.6300049c0,0.7399902-0.5999756,1.3399658-1.3400269,1.3399658   c-0.7399902,0-1.3399658-0.5999756-1.3399658-1.3399658s0.5999756-1.3500366,1.3399658-1.3500366   C41.4904327,33.2799683,42.0904083,33.8900146,42.0904083,34.6300049z"></path><path d="M42.0904083,19.0299683c0,0.7399902-0.5999756,1.3400269-1.3400269,1.3400269   c-0.7399902,0-1.3399658-0.6000366-1.3399658-1.3400269s0.5999756-1.3499756,1.3399658-1.3499756   C41.4904327,17.6799927,42.0904083,18.289978,42.0904083,19.0299683z"></path><path d="M22.0504284,34.6300049c0,0.7399902-0.6000366,1.3399658-1.3400269,1.3399658s-1.3499756-0.5999756-1.3499756-1.3399658   s0.6099854-1.3500366,1.3499756-1.3500366S22.0504284,33.8900146,22.0504284,34.6300049z"></path><path d="M22.0504284,24.2299805c0,0.7399902-0.6000366,1.3400269-1.3400269,1.3400269s-1.3499756-0.6000366-1.3499756-1.3400269   c0-0.75,0.6099854-1.3499756,1.3499756-1.3499756S22.0504284,23.4799805,22.0504284,24.2299805z"></path><path d="M22.0504284,8.6300049c0,0.7399902-0.6000366,1.3399658-1.3400269,1.3399658s-1.3499756-0.5999756-1.3499756-1.3399658   s0.6099854-1.3500366,1.3499756-1.3500366S22.0504284,7.8900146,22.0504284,8.6300049z"></path><path d="M35.4104156,24.2299805c0,0.7399902-0.6000366,1.3400269-1.3400269,1.3400269s-1.3399658-0.6000366-1.3399658-1.3400269   c0-0.75,0.5999756-1.3499756,1.3399658-1.3499756S35.4104156,23.4799805,35.4104156,24.2299805z"></path><path d="M35.4104156,19.0299683c0,0.7399902-0.6000366,1.3400269-1.3400269,1.3400269s-1.3399658-0.6000366-1.3399658-1.3400269   s0.5999756-1.3499756,1.3399658-1.3499756S35.4104156,18.289978,35.4104156,19.0299683z"></path><path d="M28.7304211,13.8299561c0,0.7400513-0.6000366,1.3400269-1.3400269,1.3400269s-1.3499756-0.5999756-1.3499756-1.3400269   c0-0.75,0.6099854-1.3499756,1.3499756-1.3499756S28.7304211,13.0799561,28.7304211,13.8299561z"></path><path d="M22.0504284,19.0299683c0,0.7399902-0.6000366,1.3400269-1.3400269,1.3400269s-1.3499756-0.6000366-1.3499756-1.3400269   s0.6099854-1.3499756,1.3499756-1.3499756S22.0504284,18.289978,22.0504284,19.0299683z"></path><path d="M42.0904083,29.4299927c0,0.7399902-0.5999756,1.3399658-1.3400269,1.3399658   c-0.7399902,0-1.3399658-0.5999756-1.3399658-1.3399658s0.5999756-1.3500366,1.3399658-1.3500366   C41.4904327,28.0799561,42.0904083,28.6900024,42.0904083,29.4299927z"></path><path d="M28.7304211,24.2299805c0,0.7399902-0.6000366,1.3400269-1.3400269,1.3400269s-1.3499756-0.6000366-1.3499756-1.3400269   c0-0.75,0.6099854-1.3499756,1.3499756-1.3499756S28.7304211,23.4799805,28.7304211,24.2299805z"></path><path d="M42.0904083,24.2299805c0,0.7399902-0.5999756,1.3400269-1.3400269,1.3400269   c-0.7399902,0-1.3399658-0.6000366-1.3399658-1.3400269c0-0.75,0.5999756-1.3499756,1.3399658-1.3499756   C41.4904327,22.8800049,42.0904083,23.4799805,42.0904083,24.2299805z"></path><path d="M39.4104156,8.6300049c0-0.7399902,0.5999756-1.3500366,1.3399658-1.3500366   c0.7400513,0,1.3400269,0.6100464,1.3400269,1.3500366s-0.5999756,1.3399658-1.3400269,1.3399658   C40.0103912,9.9699707,39.4104156,9.3699951,39.4104156,8.6300049z"></path><path d="M28.7304211,29.4299927c0,1.7700195-2.6900024,1.7700195-2.6900024,0c0-0.7399902,0.6099854-1.3500366,1.3499756-1.3500366   S28.7304211,28.6900024,28.7304211,29.4299927z"></path><path d="M28.7304211,19.0299683c0,0.7399902-0.6000366,1.3400269-1.3400269,1.3400269s-1.3499756-0.6000366-1.3499756-1.3400269   s0.6099854-1.3499756,1.3499756-1.3499756S28.7304211,18.289978,28.7304211,19.0299683z"></path><path d="M28.7304211,34.6300049c0,0.7399902-0.6000366,1.3399658-1.3400269,1.3399658s-1.3499756-0.5999756-1.3499756-1.3399658   C26.0404186,32.8499756,28.7304211,32.8499756,28.7304211,34.6300049z"></path><polygon points="50.5478668,30.2817383 48.5478668,30.2807617 48.5476837,31.0249023 45.7988434,31.0249023 45.7988434,33.0249023    48.5470734,33.0249023 48.5468903,33.7685547 50.5468903,33.7695313 50.5470734,33.0249023 59.2949371,33.0249023    59.2949371,31.0249023 50.5476837,31.0249023  "></polygon><polygon points="53.5478668,25.081543 51.5478668,25.0805664 51.5476837,25.8251953 45.7988434,25.8251953 45.7988434,27.8251953    51.5470734,27.8251953 51.5468903,28.5683594 53.5468903,28.5693359 53.5470734,27.8251953 59.2949371,27.8251953    59.2949371,25.8251953 53.5476837,25.8251953  "></polygon><polygon points="55.5478668,19.8818359 53.5478668,19.8808594 53.5476837,20.625 45.7988434,20.625 45.7988434,22.625    53.5470734,22.625 53.5468903,23.3681641 55.5468903,23.3691406 55.5470734,22.625 59.2949371,22.625 59.2949371,20.625    55.5476837,20.625  "></polygon><polygon points="53.5478668,14.6816406 51.5478668,14.6806641 51.5476837,15.4248047 45.7988434,15.4248047 45.7988434,17.4248047    51.5470734,17.4248047 51.5468903,18.1679688 53.5468903,18.1689453 53.5470734,17.4248047 59.2949371,17.4248047    59.2949371,15.4248047 53.5476837,15.4248047  "></polygon><polygon points="51.5478668,9.4814453 49.5478668,9.4804688 49.5476837,10.2250977 45.7988434,10.2250977 45.7988434,12.2250977    49.5470734,12.2250977 49.5468903,12.9677734 51.5468903,12.96875 51.5470734,12.2250977 59.2949371,12.2250977    59.2949371,10.2250977 51.5476837,10.2250977  "></polygon></g></svg>