<svg height='300px' width='300px'  fill="#000000" xmlns="http://www.w3.org/2000/svg" xmlns:xlink="http://www.w3.org/1999/xlink" version="1.1" x="0px" y="0px" viewBox="0 0 90 90" style="enable-background:new 0 0 90 90;" xml:space="preserve"><style type="text/css">
	.st0{fill:#000000;stroke:#000000;stroke-width:1.5;stroke-linecap:round;stroke-miterlimit:10;}
	.st1{fill:#000000;stroke:#000000;stroke-width:1.0395;stroke-miterlimit:10;}
	.st2{fill:#000000;}
	.st3{fill:#000000;}
	.st4{fill:none;stroke:#000000;stroke-width:0.297;stroke-miterlimit:10;}
	.st5{fill:none;stroke:#000000;stroke-width:1.4849;stroke-linecap:round;stroke-miterlimit:10;}
	.st6{fill:#000000;}
	.st7{fill:none;stroke:#000000;stroke-width:0.2;stroke-miterlimit:10;}
	.st8{fill:none;stroke:#000000;stroke-linecap:round;stroke-miterlimit:10;}
	.st9{fill:#000000;stroke:#000000;stroke-width:1.0395;stroke-miterlimit:10;}
	.st10{fill:#000000;stroke:#000000;stroke-miterlimit:10;}
	.st11{fill:#000000;}
	.st12{fill:#000000;}
	.st13{fill:none;stroke:#000000;stroke-width:0.9761;stroke-miterlimit:10;}
	.st14{fill:#000000;}
	.st15{fill:none;stroke:#000000;stroke-width:0.9761;stroke-miterlimit:10;}
	.st16{fill:#000000;stroke:#000000;stroke-width:0.9373;stroke-miterlimit:10;}
	.st17{fill:#000000;}
	.st18{fill:#000000;stroke:#000000;stroke-width:1.0395;stroke-miterlimit:10;}
	.st19{fill:#000000;stroke:#000000;stroke-width:1.0395;stroke-miterlimit:10;}
	.st20{fill:#000000;stroke:#000000;stroke-width:1.0395;stroke-miterlimit:10;}
	.st21{fill:#000000;stroke:#000000;stroke-miterlimit:10;}
	.st22{fill:#000000;stroke:#000000;stroke-width:0.5885;stroke-miterlimit:10;}
	.st23{fill:#000000;stroke:#000000;stroke-width:0.6527;stroke-miterlimit:10;}
	.st24{fill:#000000;stroke:#000000;stroke-width:0.6624;stroke-miterlimit:10;}
	.st25{fill:#000000;stroke:#000000;stroke-width:0.8739;stroke-miterlimit:10;}
	.st26{fill:#000000;stroke:#000000;stroke-width:0.9692;stroke-miterlimit:10;}
	.st27{fill:#000000;stroke:#000000;stroke-width:0.8739;stroke-miterlimit:10;}
	.st28{fill:#000000;stroke:#000000;stroke-width:1.1537;stroke-miterlimit:10;}
	.st29{fill:#000000;stroke:#000000;stroke-width:0.559;stroke-miterlimit:10;}
	.st30{fill:#000000;stroke:#000000;stroke-width:1.1537;stroke-miterlimit:10;}
	.st31{fill:#000000;stroke:#000000;stroke-width:1.0395;stroke-miterlimit:10;}
	.st32{fill:none;stroke:#000000;stroke-miterlimit:10;}
	.st33{fill:#000000;}
	.st34{fill:none;stroke:#000000;stroke-linecap:round;stroke-miterlimit:10;}
	.st35{fill:#000000;stroke:#000000;stroke-miterlimit:10;}
	.st36{fill:none;stroke:#000000;stroke-width:0.4258;stroke-miterlimit:10;}
	.st37{fill:none;stroke:#000000;stroke-width:0.5;stroke-miterlimit:10;}
	.st38{fill:#000000;stroke:#000000;stroke-width:2;stroke-linejoin:round;stroke-miterlimit:10;}
	.st39{fill:#000000;stroke:#000000;stroke-linejoin:round;stroke-miterlimit:10;}
	.st40{fill:none;stroke:#000000;stroke-width:1.094;stroke-miterlimit:10;}
	.st41{fill:none;stroke:#000000;stroke-width:0.794;stroke-linecap:round;stroke-miterlimit:10;}
	.st42{fill:none;stroke:#000000;stroke-width:0.5963;stroke-miterlimit:10;}
	.st43{fill:#000000;stroke:#000000;stroke-width:3;stroke-linejoin:round;stroke-miterlimit:10;}
	.st44{fill:#000000;}
	.st45{fill:#000000;stroke:#000000;stroke-width:0.9858;stroke-linejoin:round;stroke-miterlimit:10;}
	.st46{fill:none;stroke:#000000;stroke-linecap:round;stroke-miterlimit:10;}
	.st47{fill:#000000;stroke:#000000;stroke-linecap:round;stroke-linejoin:round;stroke-miterlimit:10;}
	.st48{fill:none;stroke:#000000;stroke-linecap:round;stroke-miterlimit:10;}
	.st49{fill:none;stroke:#000000;stroke-miterlimit:10;}
	.st50{stroke:#000000;stroke-width:3;stroke-linejoin:round;stroke-miterlimit:10;}
	.st51{stroke:#000000;stroke-width:0.8067;stroke-linejoin:round;stroke-miterlimit:10;}
	.st52{stroke:#000000;stroke-width:0.8067;stroke-miterlimit:10;}
	.st53{fill:none;stroke:#000000;stroke-width:0.8465;stroke-miterlimit:10;}
	.st54{stroke:#000000;stroke-width:0.6903;stroke-linejoin:round;stroke-miterlimit:10;}
	.st55{fill:none;stroke:#000000;stroke-width:1.2861;stroke-linecap:round;stroke-miterlimit:10;}
	.st56{fill:none;stroke:#000000;stroke-width:0.643;stroke-miterlimit:10;}
	.st57{stroke:#000000;stroke-width:1.9475;stroke-linejoin:round;stroke-miterlimit:10;}
	.st58{stroke:#000000;stroke-width:2.0478;stroke-linejoin:round;stroke-miterlimit:10;}
	.st59{fill:none;stroke:#000000;stroke-width:2;stroke-linecap:round;stroke-miterlimit:10;}
	.st60{stroke:#000000;stroke-linejoin:round;stroke-miterlimit:10;}
	.st61{fill:#000000;stroke:#000000;stroke-linejoin:round;stroke-miterlimit:10;}
	.st62{stroke:#000000;stroke-width:2;stroke-linejoin:round;stroke-miterlimit:10;}
	.st63{fill:none;stroke:#000000;stroke-width:1.2769;stroke-linecap:round;stroke-miterlimit:10;}
	.st64{fill:none;stroke:#000000;stroke-width:0.936;stroke-linecap:round;stroke-miterlimit:10;}
	.st65{stroke:#000000;stroke-width:1.2644;stroke-linecap:round;stroke-linejoin:round;stroke-miterlimit:10;}
	.st66{fill:none;stroke:#000000;stroke-width:1.2644;stroke-linecap:round;stroke-linejoin:round;stroke-miterlimit:10;}
	.st67{fill:none;stroke:#000000;stroke-width:1.2737;stroke-linecap:round;stroke-miterlimit:10;}
	.st68{fill:none;stroke:#000000;stroke-width:1.1225;stroke-miterlimit:10;}
	.st69{fill:#000000;stroke:#000000;stroke-width:2;stroke-linejoin:round;stroke-miterlimit:10;}
	.st70{fill:#000000;stroke:#000000;stroke-width:1.9476;stroke-linejoin:round;stroke-miterlimit:10;}
	.st71{fill:#000000;stroke:#000000;stroke-width:1.9781;stroke-linejoin:round;stroke-miterlimit:10;}
	.st72{fill:#000000;stroke:#000000;stroke-width:1.8964;stroke-linejoin:round;stroke-miterlimit:10;}
	.st73{stroke:#000000;stroke-width:2;stroke-linejoin:round;stroke-miterlimit:10;}
</style><g><path d="M11.2,14.7v59.6h67.7V14.7H11.2z M71.3,20.2h0.5l0,0l0,0h0.9v24.3h-1.4V20.2z M62.7,24l1,0.8l0.3-0.4l0.3-0.4l-1-0.8   c1-0.9,2.5-0.9,3.6,0c1.2,1,1.4,2.8,0.4,4c-1,1.2-2.8,1.4-4,0.4C62.3,26.7,62.1,25.2,62.7,24z M67,30.6L67,30.6L67,30.6   C67,30.6,67,30.6,67,30.6C67,30.6,67,30.6,67,30.6z M63,31c0.9-1.1,2.4-1.3,3.6-0.6l-0.9,1l0.8,0.6l0.9-1c0.9,1,0.9,2.6,0,3.6   c-1,1.2-2.8,1.3-4,0.3C62.2,33.9,62,32.1,63,31z M63.3,38.3c1.1-1.1,2.9-1,4,0.2c1.1,1.1,1,2.9-0.2,4c-1,0.9-2.5,1-3.6,0.2l1-0.9   l-0.3-0.4L63.8,41l-1,0.9C62.1,40.8,62.2,39.3,63.3,38.3z M57.7,20.2h0.9l0,0l0,0h0.8v24.3h-1.7V20.2z M52,22.6L52,22.6L52,22.6   C52,22.6,52,22.6,52,22.6C52,22.6,52,22.6,52,22.6z M51.5,22.6V24h1v-1.3c1.3,0.2,2.3,1.4,2.3,2.8c0,1.6-1.3,2.8-2.8,2.8   c-1.6,0-2.8-1.3-2.8-2.8C49.2,24,50.2,22.9,51.5,22.6z M49.9,31l0.8,1l0.8-0.6l-0.8-1c1.2-0.7,2.7-0.4,3.6,0.7c1,1.2,0.8,3-0.4,4   c-1.2,1-3,0.8-4-0.4C49,33.5,49,32,49.9,31z M54.2,38.7L54.2,38.7L54.2,38.7C54.2,38.7,54.2,38.7,54.2,38.7   C54.2,38.7,54.2,38.7,54.2,38.7z M50.3,38.2c1.1-0.9,2.6-0.8,3.6,0.1l-1.1,0.8l0.3,0.4l0.3,0.4l1.1-0.8c0.6,1.2,0.3,2.7-0.8,3.5   c-1.2,1-3,0.7-4-0.5S49.1,39.1,50.3,38.2z M44.6,20.2h0.9l0,0l0,0h0.5v24.3h-1.4V20.2z M24.5,23.2c1.9-4.1,6.6-6.1,10.8-4.7   L34,21.1c-0.2,0.5,0,1.1,0.5,1.3c0.1,0.1,0.3,0.1,0.4,0.1c0.4,0,0.7-0.2,0.9-0.6l1.2-2.6c3.8,2.3,5.3,7.1,3.4,11.2   c-2,4.4-7.3,6.4-11.7,4.3C24.3,32.8,22.4,27.6,24.5,23.2z M23.9,44.5c-2.3,1.7-5.6,1.3-7.3-1c-1.5-2-1.4-4.8,0.3-6.6l1.7,2.3   c0.2,0.3,0.5,0.4,0.8,0.4c0.2,0,0.4-0.1,0.6-0.2c0.4-0.3,0.5-1,0.2-1.4l-1.7-2.3c2.2-1.1,4.9-0.5,6.4,1.5   C26.7,39.5,26.2,42.8,23.9,44.5z M31.2,69.4c0,0.5-0.4,0.9-0.9,0.9h-3.6c-0.5,0-0.9-0.4-0.9-0.9v-6.6c0-0.5,0.4-0.9,0.9-0.9h3.6   c0.5,0,0.9,0.4,0.9,0.9V69.4z M39.4,69.4c0,0.5-0.4,0.9-0.9,0.9h-3.6c-0.5,0-0.9-0.4-0.9-0.9v-6.6c0-0.5,0.4-0.9,0.9-0.9h3.6   c0.5,0,0.9,0.4,0.9,0.9V69.4z M48.1,69.4c0,0.5-0.4,0.9-0.9,0.9h-3.6c-0.5,0-0.9-0.4-0.9-0.9v-6.6c0-0.5,0.4-0.9,0.9-0.9h3.6   c0.5,0,0.9,0.4,0.9,0.9V69.4z M48.1,57.2c0,0.4-0.3,0.7-0.7,0.7h-21c-0.4,0-0.7-0.3-0.7-0.7v-1.4c0-0.4,0.3-0.7,0.7-0.7h21   c0.4,0,0.7,0.3,0.7,0.7V57.2z M56.4,69.4c0,0.5-0.4,0.9-0.9,0.9h-3.6c-0.5,0-0.9-0.4-0.9-0.9v-6.6c0-0.5,0.4-0.9,0.9-0.9h3.6   c0.5,0,0.9,0.4,0.9,0.9V69.4z M64.6,69.4c0,0.5-0.4,0.9-0.9,0.9h-3.6c-0.5,0-0.9-0.4-0.9-0.9v-6.6c0-0.5,0.4-0.9,0.9-0.9h3.6   c0.5,0,0.9,0.4,0.9,0.9V69.4z M72.8,69.4c0,0.5-0.4,0.9-0.9,0.9h-3.6c-0.5,0-0.9-0.4-0.9-0.9v-6.6c0-0.5,0.4-0.9,0.9-0.9h3.6   c0.5,0,0.9,0.4,0.9,0.9V69.4z M73.1,57.2c0,0.4-0.3,0.7-0.7,0.7h-21c-0.4,0-0.7-0.3-0.7-0.7v-1.4c0-0.4,0.3-0.7,0.7-0.7h21   c0.4,0,0.7,0.3,0.7,0.7V57.2z M72.4,51.9H26.5c-0.4,0-0.7-0.3-0.7-0.7v-1.4c0-0.4,0.3-0.7,0.7-0.7h45.9c0.4,0,0.7,0.3,0.7,0.7v1.4   C73.1,51.5,72.7,51.9,72.4,51.9z"></path><path d="M87.6,13.2h-5.9c-0.5,0-0.9,0.4-0.9,0.9v60.8c0,0.5,0.4,0.9,0.9,0.9h5.9c0.5,0,0.9-0.4,0.9-0.9V14.1   C88.5,13.6,88.1,13.2,87.6,13.2z"></path><path d="M9.1,75V13.9c0-0.4-0.3-0.7-0.7-0.7H2.2c-0.4,0-0.7,0.3-0.7,0.7V75c0,0.4,0.3,0.7,0.7,0.7h6.2C8.8,75.7,9.1,75.4,9.1,75z"></path><circle cx="28.5" cy="64.2" r="1"></circle><circle cx="36.7" cy="64.2" r="1"></circle><circle cx="45.4" cy="64.2" r="1"></circle><circle cx="53.6" cy="64.2" r="1"></circle><circle cx="61.9" cy="64.2" r="1"></circle><circle cx="70.1" cy="64.2" r="1"></circle></g></svg>