<svg height='300px' width='300px'  fill="#000000" xmlns="http://www.w3.org/2000/svg" xmlns:xlink="http://www.w3.org/1999/xlink" version="1.1" x="0px" y="0px" viewBox="0 0 100 100" enable-background="new 0 0 100 100" xml:space="preserve"><path d="M92.3,17.8H7.7c-1.5,0-2.7,1.2-2.7,2.7v58.9c0,1.5,1.2,2.7,2.7,2.7h84.5c1.5,0,2.7-1.2,2.7-2.7V20.6  C95,19.1,93.8,17.8,92.3,17.8z M93.6,79.4c0,0.7-0.6,1.3-1.3,1.3H7.7c-0.7,0-1.3-0.6-1.3-1.3V20.6c0-0.7,0.6-1.3,1.3-1.3h84.5  c0.7,0,1.3,0.6,1.3,1.3V79.4z"></path><path d="M10.2,33.3h49.6V23.1H10.2V33.3z M11.7,24.5h46.7v7.4H11.7V24.5z"></path><path d="M17.5,37.4h-5.6c-1,0-1.7,0.8-1.7,1.7v5.6c0,1,0.8,1.7,1.7,1.7h5.6c0.9,0,1.7-0.8,1.7-1.7v-5.6  C19.3,38.2,18.5,37.4,17.5,37.4z M17.8,44.7c0,0.2-0.1,0.3-0.3,0.3h-5.6c-0.2,0-0.3-0.1-0.3-0.3v-5.6c0-0.2,0.1-0.3,0.3-0.3h5.6  c0.2,0,0.3,0.1,0.3,0.3V44.7z"></path><path d="M17.5,47.6h-5.6c-1,0-1.7,0.8-1.7,1.7v5.6c0,1,0.8,1.7,1.7,1.7h5.6c0.9,0,1.7-0.8,1.7-1.7v-5.6  C19.3,48.3,18.5,47.6,17.5,47.6z M17.8,54.9c0,0.2-0.1,0.3-0.3,0.3h-5.6c-0.2,0-0.3-0.1-0.3-0.3v-5.6c0-0.2,0.1-0.3,0.3-0.3h5.6  c0.2,0,0.3,0.1,0.3,0.3V54.9z"></path><path d="M17.5,57.7h-5.6c-1,0-1.7,0.8-1.7,1.7V65c0,1,0.8,1.7,1.7,1.7h5.6c0.9,0,1.7-0.8,1.7-1.7v-5.6  C19.3,58.5,18.5,57.7,17.5,57.7z M17.8,65c0,0.2-0.1,0.3-0.3,0.3h-5.6c-0.2,0-0.3-0.1-0.3-0.3v-5.6c0-0.2,0.1-0.3,0.3-0.3h5.6  c0.2,0,0.3,0.1,0.3,0.3V65z"></path><path d="M17.5,67.9h-5.6c-1,0-1.7,0.8-1.7,1.7v5.6c0,1,0.8,1.7,1.7,1.7h5.6c0.9,0,1.7-0.8,1.7-1.7v-5.6  C19.3,68.6,18.5,67.9,17.5,67.9z M17.8,75.2c0,0.2-0.1,0.3-0.3,0.3h-5.6c-0.2,0-0.3-0.1-0.3-0.3v-5.6c0-0.2,0.1-0.3,0.3-0.3h5.6  c0.2,0,0.3,0.1,0.3,0.3V75.2z"></path><path d="M48,37.4h-5.6c-1,0-1.7,0.8-1.7,1.7v5.6c0,1,0.8,1.7,1.7,1.7H48c0.9,0,1.7-0.8,1.7-1.7v-5.6C49.7,38.2,48.9,37.4,48,37.4z   M48.2,44.7c0,0.2-0.1,0.3-0.3,0.3h-5.6c-0.2,0-0.3-0.1-0.3-0.3v-5.6c0-0.2,0.1-0.3,0.3-0.3H48c0.2,0,0.3,0.1,0.3,0.3V44.7z"></path><path d="M48,47.6h-5.6c-1,0-1.7,0.8-1.7,1.7v5.6c0,1,0.8,1.7,1.7,1.7H48c0.9,0,1.7-0.8,1.7-1.7v-5.6C49.7,48.3,48.9,47.6,48,47.6z   M48.2,54.9c0,0.2-0.1,0.3-0.3,0.3h-5.6c-0.2,0-0.3-0.1-0.3-0.3v-5.6c0-0.2,0.1-0.3,0.3-0.3H48c0.2,0,0.3,0.1,0.3,0.3V54.9z"></path><path d="M48,57.7h-5.6c-1,0-1.7,0.8-1.7,1.7V65c0,1,0.8,1.7,1.7,1.7H48c0.9,0,1.7-0.8,1.7-1.7v-5.6C49.7,58.5,48.9,57.7,48,57.7z   M48.2,65c0,0.2-0.1,0.3-0.3,0.3h-5.6c-0.2,0-0.3-0.1-0.3-0.3v-5.6c0-0.2,0.1-0.3,0.3-0.3H48c0.2,0,0.3,0.1,0.3,0.3V65z"></path><path d="M48,67.9h-5.6c-1,0-1.7,0.8-1.7,1.7v5.6c0,1,0.8,1.7,1.7,1.7H48c0.9,0,1.7-0.8,1.7-1.7v-5.6C49.7,68.6,48.9,67.9,48,67.9z   M48.2,75.2c0,0.2-0.1,0.3-0.3,0.3h-5.6c-0.2,0-0.3-0.1-0.3-0.3v-5.6c0-0.2,0.1-0.3,0.3-0.3H48c0.2,0,0.3,0.1,0.3,0.3V75.2z"></path><path d="M37.8,37.4h-5.6c-0.9,0-1.7,0.8-1.7,1.7v5.6c0,1,0.8,1.7,1.7,1.7h5.6c1,0,1.7-0.8,1.7-1.7v-5.6  C39.5,38.2,38.8,37.4,37.8,37.4z M38.1,44.7c0,0.2-0.1,0.3-0.3,0.3h-5.6c-0.2,0-0.3-0.1-0.3-0.3v-5.6c0-0.2,0.1-0.3,0.3-0.3h5.6  c0.2,0,0.3,0.1,0.3,0.3V44.7z"></path><path d="M37.8,47.6h-5.6c-0.9,0-1.7,0.8-1.7,1.7v5.6c0,1,0.8,1.7,1.7,1.7h5.6c1,0,1.7-0.8,1.7-1.7v-5.6  C39.5,48.3,38.8,47.6,37.8,47.6z M38.1,54.9c0,0.2-0.1,0.3-0.3,0.3h-5.6c-0.2,0-0.3-0.1-0.3-0.3v-5.6c0-0.2,0.1-0.3,0.3-0.3h5.6  c0.2,0,0.3,0.1,0.3,0.3V54.9z"></path><path d="M37.8,57.7h-5.6c-0.9,0-1.7,0.8-1.7,1.7V65c0,1,0.8,1.7,1.7,1.7h5.6c1,0,1.7-0.8,1.7-1.7v-5.6  C39.5,58.5,38.8,57.7,37.8,57.7z M38.1,65c0,0.2-0.1,0.3-0.3,0.3h-5.6c-0.2,0-0.3-0.1-0.3-0.3v-5.6c0-0.2,0.1-0.3,0.3-0.3h5.6  c0.2,0,0.3,0.1,0.3,0.3V65z"></path><path d="M37.8,67.9h-5.6c-0.9,0-1.7,0.8-1.7,1.7v5.6c0,1,0.8,1.7,1.7,1.7h5.6c1,0,1.7-0.8,1.7-1.7v-5.6  C39.5,68.6,38.8,67.9,37.8,67.9z M38.1,75.2c0,0.2-0.1,0.3-0.3,0.3h-5.6c-0.2,0-0.3-0.1-0.3-0.3v-5.6c0-0.2,0.1-0.3,0.3-0.3h5.6  c0.2,0,0.3,0.1,0.3,0.3V75.2z"></path><path d="M27.7,37.4h-5.6c-1,0-1.7,0.8-1.7,1.7v5.6c0,1,0.8,1.7,1.7,1.7h5.6c1,0,1.7-0.8,1.7-1.7v-5.6C29.4,38.2,28.6,37.4,27.7,37.4  z M28,44.7c0,0.2-0.1,0.3-0.3,0.3h-5.6c-0.2,0-0.3-0.1-0.3-0.3v-5.6c0-0.2,0.1-0.3,0.3-0.3h5.6c0.2,0,0.3,0.1,0.3,0.3V44.7z"></path><path d="M27.7,47.6h-5.6c-1,0-1.7,0.8-1.7,1.7v5.6c0,1,0.8,1.7,1.7,1.7h5.6c1,0,1.7-0.8,1.7-1.7v-5.6C29.4,48.3,28.6,47.6,27.7,47.6  z M28,54.9c0,0.2-0.1,0.3-0.3,0.3h-5.6c-0.2,0-0.3-0.1-0.3-0.3v-5.6c0-0.2,0.1-0.3,0.3-0.3h5.6c0.2,0,0.3,0.1,0.3,0.3V54.9z"></path><path d="M27.7,57.7h-5.6c-1,0-1.7,0.8-1.7,1.7V65c0,1,0.8,1.7,1.7,1.7h5.6c1,0,1.7-0.8,1.7-1.7v-5.6C29.4,58.5,28.6,57.7,27.7,57.7z   M28,65c0,0.2-0.1,0.3-0.3,0.3h-5.6c-0.2,0-0.3-0.1-0.3-0.3v-5.6c0-0.2,0.1-0.3,0.3-0.3h5.6c0.2,0,0.3,0.1,0.3,0.3V65z"></path><path d="M27.7,67.9h-5.6c-1,0-1.7,0.8-1.7,1.7v5.6c0,1,0.8,1.7,1.7,1.7h5.6c1,0,1.7-0.8,1.7-1.7v-5.6C29.4,68.6,28.6,67.9,27.7,67.9  z M28,75.2c0,0.2-0.1,0.3-0.3,0.3h-5.6c-0.2,0-0.3-0.1-0.3-0.3v-5.6c0-0.2,0.1-0.3,0.3-0.3h5.6c0.2,0,0.3,0.1,0.3,0.3V75.2z"></path><path d="M55.3,38.7c-1.8,0-3.3,1.5-3.3,3.3c0,1.8,1.5,3.3,3.3,3.3s3.3-1.5,3.3-3.3C58.6,40.1,57.1,38.7,55.3,38.7z M55.3,43.8  c-1,0-1.9-0.8-1.9-1.9s0.8-1.9,1.9-1.9s1.9,0.8,1.9,1.9S56.3,43.8,55.3,43.8z"></path><path d="M55.3,48.8c-1.8,0-3.3,1.5-3.3,3.3c0,1.8,1.5,3.3,3.3,3.3s3.3-1.5,3.3-3.3C58.6,50.3,57.1,48.8,55.3,48.8z M55.3,54  c-1,0-1.9-0.8-1.9-1.9s0.8-1.9,1.9-1.9s1.9,0.8,1.9,1.9S56.3,54,55.3,54z"></path><path d="M55.3,58.9c-1.8,0-3.3,1.5-3.3,3.3c0,1.8,1.5,3.3,3.3,3.3s3.3-1.5,3.3-3.3C58.6,60.4,57.1,58.9,55.3,58.9z M55.3,64.1  c-1,0-1.9-0.8-1.9-1.9c0-1,0.8-1.9,1.9-1.9s1.9,0.8,1.9,1.9C57.2,63.3,56.3,64.1,55.3,64.1z"></path><path d="M55.3,69.1c-1.8,0-3.3,1.5-3.3,3.3c0,1.8,1.5,3.3,3.3,3.3s3.3-1.5,3.3-3.3C58.6,70.5,57.1,69.1,55.3,69.1z M55.3,74.2  c-1,0-1.9-0.8-1.9-1.9s0.8-1.9,1.9-1.9s1.9,0.8,1.9,1.9S56.3,74.2,55.3,74.2z"></path><path d="M68.5,31.5c1.8,0,3.3-1.5,3.3-3.3s-1.5-3.3-3.3-3.3c-1.8,0-3.3,1.5-3.3,3.3S66.7,31.5,68.5,31.5z M68.5,26.4  c0.3,0,0.5,0.1,0.7,0.1l-0.8,0.8c-0.3,0.3-0.3,0.7,0,1c0.1,0.1,0.3,0.2,0.5,0.2c0.2,0,0.4-0.1,0.5-0.2l0.8-0.8  c0.1,0.2,0.1,0.5,0.1,0.7c0,1-0.8,1.9-1.9,1.9s-1.9-0.8-1.9-1.9S67.5,26.4,68.5,26.4z"></path><path d="M77.5,31.5c1.8,0,3.3-1.5,3.3-3.3s-1.5-3.3-3.3-3.3c-1.8,0-3.3,1.5-3.3,3.3S75.7,31.5,77.5,31.5z M77.5,26.4  c1,0,1.9,0.8,1.9,1.9s-0.8,1.9-1.9,1.9c-0.3,0-0.5-0.1-0.7-0.1l0.8-0.8c0.3-0.3,0.3-0.7,0-1c-0.3-0.3-0.7-0.3-1,0l-0.8,0.8  c-0.1-0.2-0.1-0.5-0.1-0.7C75.6,27.2,76.5,26.4,77.5,26.4z"></path><path d="M86.5,24.9c-0.9,0-1.7,0.3-2.3,1c-1.3,1.3-1.3,3.4,0,4.7c0.6,0.6,1.5,1,2.3,1c0.9,0,1.7-0.3,2.3-1c1.3-1.3,1.3-3.4,0-4.7  C88.2,25.3,87.4,24.9,86.5,24.9z M87.8,29.6c-0.7,0.7-1.9,0.7-2.6,0c-0.7-0.7-0.7-1.9,0-2.6c0.2-0.2,0.4-0.3,0.6-0.4v1.1  c0,0.4,0.3,0.7,0.7,0.7s0.7-0.3,0.7-0.7v-1.1c0.2,0.1,0.4,0.2,0.6,0.4C88.5,27.6,88.5,28.8,87.8,29.6z"></path><path d="M68.5,58.9c-1.8,0-3.3,1.5-3.3,3.3c0,1.8,1.5,3.3,3.3,3.3c1.8,0,3.3-1.5,3.3-3.3C71.8,60.4,70.3,58.9,68.5,58.9z M68.5,64.1  c-1,0-1.9-0.8-1.9-1.9c0-0.3,0.1-0.5,0.1-0.7l0.8,0.8c0.1,0.1,0.3,0.2,0.5,0.2c0.2,0,0.4-0.1,0.5-0.2c0.3-0.3,0.3-0.7,0-1l-0.8-0.8  c0.2-0.1,0.5-0.1,0.7-0.1c1,0,1.9,0.8,1.9,1.9C70.4,63.3,69.5,64.1,68.5,64.1z"></path><path d="M77.5,65.5c0.9,0,1.7-0.3,2.3-1c1.3-1.3,1.3-3.4,0-4.7c-0.6-0.6-1.5-1-2.3-1c-0.9,0-1.7,0.3-2.3,1c-1.3,1.3-1.3,3.4,0,4.7  C75.8,65.2,76.6,65.5,77.5,65.5z M76.2,60.9c0.4-0.4,0.8-0.5,1.3-0.5c0.5,0,1,0.2,1.3,0.5c0.7,0.7,0.7,1.9,0,2.6  c-0.2,0.2-0.4,0.3-0.6,0.4v-1.1c0-0.4-0.3-0.7-0.7-0.7s-0.7,0.3-0.7,0.7v1.1c-0.2-0.1-0.4-0.2-0.6-0.4  C75.4,62.8,75.4,61.6,76.2,60.9z"></path><path d="M86.5,58.9c-0.9,0-1.7,0.3-2.3,1c-1.3,1.3-1.3,3.4,0,4.7c0.6,0.6,1.5,1,2.3,1c0.9,0,1.7-0.3,2.3-1c1.3-1.3,1.3-3.4,0-4.7  C88.2,59.3,87.4,58.9,86.5,58.9z M85.2,63.5c-0.7-0.7-0.7-1.9,0-2.6c0.4-0.4,0.8-0.5,1.3-0.5s1,0.2,1.3,0.5c0.2,0.2,0.3,0.4,0.4,0.6  h-1.1c-0.4,0-0.7,0.3-0.7,0.7c0,0.4,0.3,0.7,0.7,0.7h1.1c-0.1,0.2-0.2,0.4-0.4,0.6C87.1,64.3,85.9,64.3,85.2,63.5z"></path><path d="M68.5,69.1c-1.8,0-3.3,1.5-3.3,3.3c0,1.8,1.5,3.3,3.3,3.3c1.8,0,3.3-1.5,3.3-3.3C71.8,70.5,70.3,69.1,68.5,69.1z M66.6,72.4  c0-1,0.8-1.9,1.9-1.9s1.9,0.8,1.9,1.9c0,0.3-0.1,0.5-0.1,0.7l-0.8-0.8c-0.3-0.3-0.7-0.3-1,0s-0.3,0.7,0,1l0.8,0.8  c-0.2,0.1-0.5,0.1-0.7,0.1C67.5,74.2,66.6,73.4,66.6,72.4z"></path><path d="M77.5,69.1c-0.9,0-1.7,0.3-2.3,1c-0.6,0.6-1,1.5-1,2.3c0,0.9,0.3,1.7,1,2.3c0.6,0.6,1.5,1,2.3,1c0.9,0,1.7-0.3,2.3-1  c0.6-0.6,1-1.5,1-2.3c0-0.9-0.3-1.7-1-2.3C79.2,69.4,78.4,69.1,77.5,69.1z M78.8,73.7c-0.7,0.7-1.9,0.7-2.6,0  c-0.4-0.4-0.5-0.8-0.5-1.3c0-0.5,0.2-1,0.5-1.3c0.2-0.2,0.4-0.3,0.6-0.4v1.1c0,0.4,0.3,0.7,0.7,0.7s0.7-0.3,0.7-0.7v-1.1  c0.2,0.1,0.4,0.2,0.6,0.4c0.4,0.4,0.5,0.8,0.5,1.3C79.4,72.9,79.2,73.3,78.8,73.7z"></path><path d="M86.5,69.1c-0.9,0-1.7,0.3-2.3,1c-1.3,1.3-1.3,3.4,0,4.7c0.6,0.6,1.5,1,2.3,1c0.9,0,1.7-0.3,2.3-1c1.3-1.3,1.3-3.4,0-4.7  C88.2,69.4,87.4,69.1,86.5,69.1z M87.8,73.7c-0.7,0.7-1.9,0.7-2.6,0c-0.2-0.2-0.3-0.4-0.4-0.6h1.1c0.4,0,0.7-0.3,0.7-0.7  s-0.3-0.7-0.7-0.7h-1.1c0.1-0.2,0.2-0.4,0.4-0.6c0.4-0.4,0.8-0.5,1.3-0.5s1,0.2,1.3,0.5C88.5,71.8,88.5,73,87.8,73.7z"></path><path d="M73,38.7c-4.6,0-8.4,3.8-8.4,8.4s3.8,8.4,8.4,8.4c4.6,0,8.4-3.8,8.4-8.4S77.6,38.7,73,38.7z M73,54c-3.8,0-6.9-3.1-6.9-6.9  c0-3.8,3.1-6.9,6.9-6.9c3.8,0,6.9,3.1,6.9,6.9C79.9,50.8,76.8,54,73,54z"></path><path d="M85.8,39.4v6.4H84v6.5h1.8v2.4h1.4v-2.4h1.8v-6.5h-1.8v-6.4H85.8z M87.5,50.9h-2.1v-3.6h2.1V50.9z"></path><circle cx="75.8" cy="44.2" r="1.6"></circle></svg>