<svg height='300px' width='300px'  fill="#000000" xmlns="http://www.w3.org/2000/svg" viewBox="0 0 64 64" x="0px" y="0px"><circle cx="9" cy="8" r="2"></circle><circle cx="9" cy="14" r="2"></circle><circle cx="9" cy="20" r="2"></circle><circle cx="9" cy="38" r="2"></circle><circle cx="17" cy="8" r="2"></circle><circle cx="17" cy="14" r="2"></circle><circle cx="17" cy="20" r="2"></circle><circle cx="17" cy="38" r="2"></circle><circle cx="25" cy="8" r="2"></circle><circle cx="25" cy="14" r="2"></circle><circle cx="25" cy="20" r="2"></circle><circle cx="25" cy="38" r="2"></circle><circle cx="33" cy="8" r="2"></circle><circle cx="33" cy="14" r="2"></circle><circle cx="33" cy="20" r="2"></circle><circle cx="33" cy="38" r="2"></circle><circle cx="54.995" cy="49.005" r="1.005"></circle><path d="M11,44H10V43a1,1,0,0,0-2,0v1H7a1,1,0,0,0,0,2H8V57a1,1,0,0,0,2,0V46h1a1,1,0,0,0,0-2Z"></path><path d="M19,48H18V43a1,1,0,0,0-2,0v5H15a1,1,0,0,0,0,2h1v7a1,1,0,0,0,2,0V50h1a1,1,0,0,0,0-2Z"></path><path d="M27,52H26V43a1,1,0,0,0-2,0v9H23a1,1,0,0,0,0,2h1v3a1,1,0,0,0,2,0V54h1a1,1,0,0,0,0-2Z"></path><path d="M35,46H34V43a1,1,0,0,0-2,0v3H31a1,1,0,0,0,0,2h1v9a1,1,0,0,0,2,0V48h1a1,1,0,0,0,0-2Z"></path><path d="M43,18h1V29a1,1,0,0,0,2,0V18h1a1,1,0,0,0,0-2H46V15a1,1,0,0,0-2,0v1H43a1,1,0,0,0,0,2Z"></path><path d="M11,24H7a1,1,0,0,0-1,1v4a1,1,0,0,0,1,1h4a1,1,0,0,0,1-1V25A1,1,0,0,0,11,24Zm-1,4H8V26h2Z"></path><path d="M19,24H15a1,1,0,0,0-1,1v4a1,1,0,0,0,1,1h4a1,1,0,0,0,1-1V25A1,1,0,0,0,19,24Zm-1,4H16V26h2Z"></path><path d="M27,24H23a1,1,0,0,0-1,1v4a1,1,0,0,0,1,1h4a1,1,0,0,0,1-1V25A1,1,0,0,0,27,24Zm-1,4H24V26h2Z"></path><path d="M35,24H31a1,1,0,0,0-1,1v4a1,1,0,0,0,1,1h4a1,1,0,0,0,1-1V25A1,1,0,0,0,35,24Zm-1,4H32V26h2Z"></path><path d="M57,2H7A5.006,5.006,0,0,0,2,7V57a5.006,5.006,0,0,0,5,5H57a5.006,5.006,0,0,0,5-5V7A5.006,5.006,0,0,0,57,2Zm3,5V32H40V4H57A3,3,0,0,1,60,7ZM4,7A3,3,0,0,1,7,4H38V32H4ZM60,57a3,3,0,0,1-3,3H7a3,3,0,0,1-3-3V34H60Z"></path><path d="M57,10a1,1,0,0,0,1-1V7a1,1,0,0,0-2,0V9A1,1,0,0,0,57,10Z"></path><path d="M57,16a1,1,0,0,0,1-1V13a1,1,0,0,0-2,0v2A1,1,0,0,0,57,16Z"></path><path d="M57,22a1,1,0,0,0,1-1V19a1,1,0,0,0-2,0v2A1,1,0,0,0,57,22Z"></path><path d="M57,28a1,1,0,0,0,1-1V25a1,1,0,0,0-2,0v2A1,1,0,0,0,57,28Z"></path><path d="M53,10a1,1,0,0,0,1-1V7a1,1,0,0,0-2,0V9A1,1,0,0,0,53,10Z"></path><path d="M53,16a1,1,0,0,0,1-1V13a1,1,0,0,0-2,0v2A1,1,0,0,0,53,16Z"></path><path d="M53,22a1,1,0,0,0,1-1V19a1,1,0,0,0-2,0v2A1,1,0,0,0,53,22Z"></path><path d="M53,28a1,1,0,0,0,1-1V25a1,1,0,0,0-2,0v2A1,1,0,0,0,53,28Z"></path><path d="M43,12h4a1,1,0,0,0,1-1V7a1,1,0,0,0-1-1H43a1,1,0,0,0-1,1v4A1,1,0,0,0,43,12Zm1-4h2v2H44Z"></path><path d="M41,45H57a1,1,0,0,0,1-1V36a1,1,0,0,0-1-1H41a1,1,0,0,0-1,1v8A1,1,0,0,0,41,45Zm15-2H54.28l.69-2.758a1,1,0,0,0-1.94-.484L52.22,43H50V37h6ZM42,37h6v6H46.28l.69-2.758a1,1,0,0,0-1.94-.484L44.22,43H42Z"></path><path d="M57,52H53a1,1,0,0,0-1,1v4a1,1,0,0,0,1,1h4a1,1,0,0,0,1-1V53A1,1,0,0,0,57,52Zm-1,4H54V54h2Z"></path><path d="M45,58a5,5,0,1,0-5-5A5.006,5.006,0,0,0,45,58Zm-1-7.816V53a1,1,0,0,0,2,0V50.184a3,3,0,1,1-2,0Z"></path></svg>