<svg height='300px' width='300px'  fill="#000000" xmlns:x="http://ns.adobe.com/Extensibility/1.0/" xmlns:i="http://ns.adobe.com/AdobeIllustrator/10.0/" xmlns:graph="http://ns.adobe.com/Graphs/1.0/" xmlns="http://www.w3.org/2000/svg" xmlns:xlink="http://www.w3.org/1999/xlink" xmlns:a="http://ns.adobe.com/AdobeSVGViewerExtensions/3.0/" version="1.1" x="0px" y="0px" viewBox="0 0 100 100" enable-background="new 0 0 100 100" xml:space="preserve"><path d="M9,72h82c2.757,0,5-2.243,5-5V33c0-2.757-2.243-5-5-5H9c-2.757,0-5,2.243-5,5v34C4,69.757,6.243,72,9,72z M8,33  c0-0.542,0.458-1,1-1h82c0.542,0,1,0.458,1,1v34c0,0.542-0.458,1-1,1h-4.8v-8.051h2v-14h-2h-2h-2v14h2V68h-6.8v-8.051h2v-14h-2h-2  h-2v14h2V68H68.6V45.949h-2V68h-6.8v-8.051h2v-14h-2h-2h-2v14h2V68H51v-8.051h2v-14h-2h-2h-2v14h2V68h-6.8v-8.051h2v-14h-2h-2h-2v14  h2V68h-6.8V45.949h-2V68H24.6v-8.051h2v-14h-2h-2h-2v14h2V68h-6.8v-8.051h2v-14h-2h-2h-2v14h2V68H9c-0.542,0-1-0.458-1-1V33z"></path><path d="M12.8,38.554h4c0.552,0,1-0.448,1-1s-0.448-1-1-1h-4c-0.552,0-1,0.448-1,1S12.248,38.554,12.8,38.554z"></path><path d="M27.246,38.554H87.2c0.552,0,1-0.448,1-1s-0.448-1-1-1H27.246c-0.552,0-1,0.448-1,1S26.694,38.554,27.246,38.554z"></path><path d="M21.8,38.55c0.26,0,0.52-0.1,0.71-0.29c0.18-0.19,0.29-0.44,0.29-0.71c0-0.26-0.11-0.51-0.29-0.71  c-0.38-0.37-1.05-0.36-1.42,0.01c-0.18,0.18-0.29,0.44-0.29,0.7c0,0.27,0.11,0.53,0.29,0.71C21.28,38.45,21.53,38.55,21.8,38.55z"></path></svg>