<svg height='300px' width='300px'  fill="#000000" xmlns="http://www.w3.org/2000/svg" xmlns:xlink="http://www.w3.org/1999/xlink" version="1.1" x="0px" y="0px" viewBox="0 0 100 100" enable-background="new 0 0 100 100" xml:space="preserve"><g><path d="M85.138,20.144H14.862c-1.578,0-2.862,1.332-2.862,2.97v1.162c0,0.407,0.242,0.776,0.615,0.938l0.589,0.256v46.992   c0,0.096,0.014,0.188,0.039,0.276c0.297,3.463,2.306,5.216,4.013,6.085c1.934,0.985,3.858,1.03,3.939,1.032   c0.006,0,0.012,0,0.019,0h3.803c0.565,0,1.023-0.458,1.023-1.023v-0.735h51.694v0.735c0,0.275,0.11,0.538,0.306,0.73   c0.191,0.188,0.449,0.293,0.717,0.293c0.006,0,0.012,0,0.019,0c0.08-0.002,1.973-0.047,3.892-1.008   c1.834-0.919,4.033-2.849,4.097-6.823c0.001-0.06-0.004-0.118-0.013-0.176c0.009-0.054,0.015-0.11,0.015-0.167V25.491l0.628-0.281   C87.763,25.045,88,24.68,88,24.276v-1.162C88,21.477,86.716,20.144,85.138,20.144z M14.046,23.114c0-0.509,0.366-0.923,0.816-0.923   h70.275c0.45,0,0.816,0.414,0.816,0.923v0.499l-0.702,0.314c-0.503,0.225-0.734,0.806-0.532,1.313v18.93H15.25V25.162   c0-0.049-0.005-0.096-0.011-0.143c0.1-0.466-0.138-0.954-0.592-1.152l-0.601-0.261V23.114z M26.039,52.37h3.586v14.824   c0,0.565,0.458,1.023,1.023,1.023h1.074v7.834h-5.684V52.37z M70.328,66.171V52.37h2.149v13.801H70.328z M69.305,68.217h1.074   v7.834h-7.618v-7.834h1.074c0.565,0,1.023-0.458,1.023-1.023V52.37h3.423v14.824C68.282,67.759,68.74,68.217,69.305,68.217z    M62.813,66.171h-2.149V52.37h2.149V66.171z M59.641,68.217h1.074v7.834h-7.618v-7.834h1.074c0.565,0,1.023-0.458,1.023-1.023   V52.37h3.423v14.824C58.618,67.759,59.076,68.217,59.641,68.217z M53.149,66.171H51V52.37h2.149V66.171z M49.977,68.217h1.074   v7.834h-7.618v-7.834h1.074c0.565,0,1.023-0.458,1.023-1.023V52.37h3.423v14.824C48.954,67.759,49.412,68.217,49.977,68.217z    M43.485,66.171h-2.149V52.37h2.149V66.171z M40.313,68.217h1.074v7.834h-7.618v-7.834h1.074c0.565,0,1.023-0.458,1.023-1.023   V52.37h3.423v14.824C39.29,67.759,39.748,68.217,40.313,68.217z M33.821,66.171h-2.149V52.37h2.149V66.171z M72.426,76.051v-7.834   H73.5c0.565,0,1.023-0.458,1.023-1.023V52.37h3.21v23.681H72.426z M81.806,76.989c-0.724,0.372-1.458,0.576-2.026,0.687v-26.33   c0-0.565-0.458-1.023-1.023-1.023H25.016c-0.565,0-1.023,0.458-1.023,1.023v26.463h-2.765c-0.116-0.004-1.634-0.074-3.1-0.838   c-1.91-0.996-2.878-2.72-2.878-5.124V46.215h69.47v25.466c0,0.054,0.005,0.106,0.013,0.158c-0.008,0.049-0.014,0.1-0.015,0.151   C84.681,74.335,83.701,76.017,81.806,76.989z"></path><path d="M66.233,32.306c1.844,0,3.345-1.501,3.345-3.345c0-1.844-1.5-3.345-3.345-3.345c-1.844,0-3.345,1.501-3.345,3.345   C62.888,30.806,64.388,32.306,66.233,32.306z M66.233,27.663c0.716,0,1.298,0.583,1.298,1.299c0,0.716-0.582,1.299-1.298,1.299   c-0.716,0-1.299-0.583-1.299-1.299C64.934,28.245,65.517,27.663,66.233,27.663z"></path><path d="M75.283,32.306c1.844,0,3.345-1.501,3.345-3.345c0-1.844-1.5-3.345-3.345-3.345s-3.345,1.501-3.345,3.345   C71.939,30.806,73.439,32.306,75.283,32.306z M75.283,27.663c0.716,0,1.299,0.583,1.299,1.299c0,0.716-0.583,1.299-1.299,1.299   s-1.299-0.583-1.299-1.299C73.985,28.245,74.567,27.663,75.283,27.663z"></path><path d="M66.233,40.495c1.844,0,3.345-1.501,3.345-3.345c0-1.844-1.5-3.345-3.345-3.345c-1.844,0-3.345,1.501-3.345,3.345   C62.888,38.995,64.388,40.495,66.233,40.495z M66.233,35.852c0.716,0,1.298,0.583,1.298,1.299c0,0.716-0.582,1.299-1.298,1.299   c-0.716,0-1.299-0.583-1.299-1.299C64.934,36.434,65.517,35.852,66.233,35.852z"></path><path d="M53.311,42.112c1.343,0,2.435-1.093,2.435-2.436c0-1.343-1.092-2.435-2.435-2.435c-1.343,0-2.436,1.093-2.436,2.435   C50.876,41.019,51.968,42.112,53.311,42.112z M53.311,39.287c0.215,0,0.389,0.175,0.389,0.389c0,0.215-0.175,0.389-0.389,0.389   c-0.215,0-0.389-0.175-0.389-0.389C52.922,39.462,53.097,39.287,53.311,39.287z"></path><path d="M47.02,42.112c1.343,0,2.435-1.093,2.435-2.436c0-1.343-1.092-2.435-2.435-2.435c-1.343,0-2.436,1.093-2.436,2.435   C44.584,41.019,45.677,42.112,47.02,42.112z M47.02,39.287c0.215,0,0.389,0.175,0.389,0.389c0,0.215-0.175,0.389-0.389,0.389   c-0.215,0-0.389-0.175-0.389-0.389C46.631,39.462,46.805,39.287,47.02,39.287z"></path><path d="M40.728,42.112c1.343,0,2.435-1.093,2.435-2.436c0-1.343-1.092-2.435-2.435-2.435c-1.343,0-2.436,1.093-2.436,2.435   C38.293,41.019,39.385,42.112,40.728,42.112z M40.728,39.287c0.215,0,0.389,0.175,0.389,0.389c0,0.215-0.175,0.389-0.389,0.389   c-0.215,0-0.389-0.175-0.389-0.389C40.339,39.462,40.514,39.287,40.728,39.287z"></path><path d="M75.283,40.495c1.844,0,3.345-1.501,3.345-3.345c0-1.844-1.5-3.345-3.345-3.345s-3.345,1.501-3.345,3.345   C71.939,38.995,73.439,40.495,75.283,40.495z M75.283,35.852c0.716,0,1.299,0.583,1.299,1.299c0,0.716-0.583,1.299-1.299,1.299   s-1.299-0.583-1.299-1.299C73.985,36.434,74.567,35.852,75.283,35.852z"></path><path d="M21.213,55.591H18.03c-0.565,0-1.023,0.458-1.023,1.023v15.233c0,0.565,0.458,1.023,1.023,1.023h3.183   c0.565,0,1.023-0.458,1.023-1.023V56.614C22.236,56.049,21.778,55.591,21.213,55.591z M20.19,70.824h-1.137V57.637h1.137V70.824z"></path><path d="M18.03,42.112h12.618c0.565,0,1.023-0.458,1.023-1.023V25.162c0-0.565-0.458-1.023-1.023-1.023H18.03   c-0.565,0-1.023,0.458-1.023,1.023v15.927C17.007,41.654,17.465,42.112,18.03,42.112z M19.053,26.185h10.572v13.881H19.053V26.185z   "></path><path d="M51.899,32.252h0.389v1.876c0,0.565,0.458,1.023,1.023,1.023c0.565,0,1.023-0.458,1.023-1.023v-1.876h0.389   c0.565,0,1.023-0.458,1.023-1.023s-0.458-1.023-1.023-1.023h-0.389v-5.044c0-0.565-0.458-1.023-1.023-1.023   c-0.565,0-1.023,0.458-1.023,1.023v5.044h-0.389c-0.565,0-1.023,0.458-1.023,1.023S51.334,32.252,51.899,32.252z"></path><path d="M45.607,33.503h0.389v0.625c0,0.565,0.458,1.023,1.023,1.023c0.565,0,1.023-0.458,1.023-1.023v-0.625h0.389   c0.565,0,1.023-0.458,1.023-1.023c0-0.565-0.458-1.023-1.023-1.023h-0.389v-6.294c0-0.565-0.458-1.023-1.023-1.023   c-0.565,0-1.023,0.458-1.023,1.023v6.294h-0.389c-0.565,0-1.023,0.458-1.023,1.023C44.584,33.045,45.042,33.503,45.607,33.503z"></path><path d="M39.316,28.785h0.389v5.343c0,0.565,0.458,1.023,1.023,1.023s1.023-0.458,1.023-1.023v-5.343h0.389   c0.565,0,1.023-0.458,1.023-1.023c0-0.565-0.458-1.023-1.023-1.023h-0.389v-1.577c0-0.565-0.458-1.023-1.023-1.023   s-1.023,0.458-1.023,1.023v1.577h-0.389c-0.565,0-1.023,0.458-1.023,1.023C38.293,28.327,38.751,28.785,39.316,28.785z"></path></g></svg>