<svg height='300px' width='300px'  fill="#000000" xmlns="http://www.w3.org/2000/svg" xmlns:xlink="http://www.w3.org/1999/xlink" version="1.1" x="0px" y="0px" viewBox="0 0 128 128" style="enable-background:new 0 0 128 128;" xml:space="preserve"><g><path d="M113.6,122c4.5,0,8.1-3.7,8.1-8.1V14.1c0-4.5-3.7-8.1-8.1-8.1H14.4C10,6,6.3,9.7,6.3,14.1v99.7c0,4.5,3.7,8.1,8.1,8.1   H113.6z M14.4,10h99.1c2.3,0,4.1,1.9,4.1,4.1v55.1H10.3V14.1C10.3,11.9,12.2,10,14.4,10z M10.3,113.9V73.3h107.4v40.6   c0,2.3-1.9,4.1-4.1,4.1H14.4C12.2,118,10.3,116.1,10.3,113.9z"></path><path d="M39.5,65.1C54.1,65.1,66,53.2,66,38.6S54.1,12.1,39.5,12.1S13,23.9,13,38.6S24.9,65.1,39.5,65.1z M39.5,16.1   C51.9,16.1,62,26.2,62,38.6S51.9,61.1,39.5,61.1S17,51,17,38.6S27.1,16.1,39.5,16.1z"></path><path d="M39.5,49.4c6,0,10.8-4.9,10.8-10.8s-4.9-10.8-10.8-10.8c-6,0-10.8,4.9-10.8,10.8S33.5,49.4,39.5,49.4z M39.5,31.7   c3.8,0,6.8,3.1,6.8,6.8s-3.1,6.8-6.8,6.8c-3.8,0-6.8-3.1-6.8-6.8S35.7,31.7,39.5,31.7z"></path><path d="M47.7,26.8c3.9,2.6,5.5,6.3,6.1,8.2c0.3,0.9,1.1,1.4,1.9,1.4c0.2,0,0.4,0,0.6-0.1c1.1-0.3,1.7-1.4,1.3-2.5   c-0.7-2.5-2.7-7.1-7.6-10.4c-0.9-0.6-2.2-0.4-2.8,0.5C46.5,25,46.8,26.2,47.7,26.8z"></path><path d="M38.8,24.2c1.2,0,2.4,0.1,3.5,0.3c0.1,0,0.3,0,0.4,0c0.9,0,1.8-0.6,2-1.6c0.2-1.1-0.5-2.1-1.5-2.4c-1.5-0.3-3-0.5-4.5-0.4   c-1.1,0-2,0.9-2,2C36.8,23.4,37.7,24.3,38.8,24.2z"></path><path d="M29,55c0.3,0.2,0.7,0.3,1.1,0.3c0.6,0,1.3-0.3,1.7-0.9c0.6-0.9,0.4-2.2-0.5-2.8c-3.9-2.6-5.5-6.3-6.1-8.2   c-0.3-1.1-1.4-1.7-2.5-1.3c-1.1,0.3-1.7,1.4-1.3,2.5C22.1,47,24.1,51.7,29,55z"></path><path d="M40.2,54.2c-1.2,0-2.4-0.1-3.5-0.3c-1.1-0.2-2.1,0.5-2.4,1.5s0.5,2.1,1.5,2.4c1.3,0.3,2.7,0.4,4.1,0.4c0.1,0,0.3,0,0.4,0   c1.1,0,2-0.9,2-2C42.2,55.1,41.3,54.2,40.2,54.2z"></path><path d="M79.2,33.8h1.8v25.7h4V33.8h1.8c3,0,5.4-2.4,5.4-5.4S89.9,23,86.9,23h-1.8v-5.3h-4V23h-1.8c-3,0-5.4,2.4-5.4,5.4   S76.2,33.8,79.2,33.8z M79.2,27h7.7c0.8,0,1.4,0.6,1.4,1.4s-0.6,1.4-1.4,1.4h-7.7c-0.8,0-1.4-0.6-1.4-1.4S78.4,27,79.2,27z"></path><path d="M97.4,49.2h1.8v10.2h4V49.2h1.8c3,0,5.4-2.4,5.4-5.4s-2.4-5.4-5.4-5.4h-1.8V17.7h-4v20.7h-1.8c-3,0-5.4,2.4-5.4,5.4   S94.4,49.2,97.4,49.2z M97.4,42.4h7.7c0.8,0,1.4,0.7,1.4,1.4c0,0.8-0.7,1.4-1.4,1.4h-7.7c-0.8,0-1.4-0.6-1.4-1.4   S96.6,42.4,97.4,42.4z"></path><path d="M23.1,109.2c6,0,10.9-4.9,10.9-10.9s-4.9-10.9-10.9-10.9c-6,0-10.9,4.9-10.9,10.9S17.1,109.2,23.1,109.2z M23.1,91.5   c3.8,0,6.9,3.1,6.9,6.9s-3.1,6.9-6.9,6.9c-3.8,0-6.9-3.1-6.9-6.9S19.4,91.5,23.1,91.5z"></path><polygon points="21.1,102.1 25.1,102.1 25.1,100.1 27.2,100.1 27.2,96.1 25.1,96.1 25.1,94 21.1,94 21.1,96.1 19,96.1 19,100.1    21.1,100.1  "></polygon><path d="M50.4,109.2c6,0,10.9-4.9,10.9-10.9s-4.9-10.9-10.9-10.9s-10.9,4.9-10.9,10.9S44.4,109.2,50.4,109.2z M50.4,91.5   c3.8,0,6.9,3.1,6.9,6.9s-3.1,6.9-6.9,6.9s-6.9-3.1-6.9-6.9S46.6,91.5,50.4,91.5z"></path><polygon points="48.4,102.1 52.4,102.1 52.4,100.1 54.5,100.1 54.5,96.1 52.4,96.1 52.4,94 48.4,94 48.4,96.1 46.3,96.1    46.3,100.1 48.4,100.1  "></polygon><path d="M77.6,109.2c6,0,10.9-4.9,10.9-10.9s-4.9-10.9-10.9-10.9s-10.9,4.9-10.9,10.9S71.6,109.2,77.6,109.2z M77.6,91.5   c3.8,0,6.9,3.1,6.9,6.9s-3.1,6.9-6.9,6.9s-6.9-3.1-6.9-6.9S73.8,91.5,77.6,91.5z"></path><polygon points="75.6,102.1 79.6,102.1 79.6,100.1 81.7,100.1 81.7,96.1 79.6,96.1 79.6,94 75.6,94 75.6,96.1 73.5,96.1    73.5,100.1 75.6,100.1  "></polygon><path d="M104.9,109.2c6,0,10.9-4.9,10.9-10.9s-4.9-10.9-10.9-10.9S94,92.4,94,98.4S98.9,109.2,104.9,109.2z M104.9,91.5   c3.8,0,6.9,3.1,6.9,6.9s-3.1,6.9-6.9,6.9s-6.9-3.1-6.9-6.9S101.1,91.5,104.9,91.5z"></path><polygon points="102.9,102.1 106.9,102.1 106.9,100.1 109,100.1 109,96.1 106.9,96.1 106.9,94 102.9,94 102.9,96.1 100.8,96.1    100.8,100.1 102.9,100.1  "></polygon><rect x="18.5" y="80.2" width="9.7" height="4"></rect><rect x="45.7" y="80.2" width="9.7" height="4"></rect><rect x="72.9" y="80.2" width="9.7" height="4"></rect><rect x="100.2" y="80.2" width="9.7" height="4"></rect></g></svg>