<svg height='300px' width='300px'  fill="#000000" xmlns="http://www.w3.org/2000/svg" xmlns:xlink="http://www.w3.org/1999/xlink" version="1.1" x="0px" y="0px" viewBox="0 0 100 100" enable-background="new 0 0 100 100" xml:space="preserve"><path d="M97.542,88.638H2.457c-0.744,0-1.35-0.605-1.35-1.35V12.711c0-0.745,0.606-1.35,1.35-1.35h95.084  c0.744,0,1.35,0.605,1.35,1.35v74.577C98.891,88.032,98.286,88.638,97.542,88.638L97.542,88.638z M2.457,11.901  c-0.447,0-0.81,0.363-0.81,0.81v74.577c0,0.447,0.363,0.811,0.81,0.811h95.084c0.446,0,0.81-0.363,0.81-0.811V12.711  c0-0.447-0.363-0.81-0.81-0.81H2.457L2.457,11.901z M77.8,30.273H17.238c-0.743,0-1.349-0.605-1.349-1.349v-6.473  c0-0.744,0.606-1.35,1.349-1.35H77.8c0.743,0,1.35,0.605,1.35,1.35v6.473C79.149,29.668,78.543,30.273,77.8,30.273L77.8,30.273z   M17.238,21.642c-0.446,0-0.81,0.363-0.81,0.81v6.473c0,0.446,0.363,0.81,0.81,0.81H77.8c0.446,0,0.81-0.363,0.81-0.81v-6.473  c0-0.447-0.363-0.81-0.81-0.81H17.238L17.238,21.642z M51.316,19.821c-1.502,0-2.725-1.223-2.725-2.726  c0-1.502,1.223-2.725,2.725-2.725c1.503,0,2.725,1.223,2.725,2.725C54.041,18.598,52.819,19.821,51.316,19.821L51.316,19.821z   M51.316,14.911c-1.205,0-2.185,0.98-2.185,2.185c0,1.206,0.98,2.186,2.185,2.186s2.186-0.98,2.186-2.186  C53.502,15.891,52.521,14.911,51.316,14.911L51.316,14.911z M51.71,15.648c-0.454-0.123-0.915-0.024-1.269,0.23l0.958,1.148  c0.038,0.045,0.031,0.113-0.015,0.152c-0.02,0.017-0.043,0.025-0.068,0.025c-0.031,0-0.062-0.013-0.083-0.039l-0.957-1.147  c-0.189,0.183-0.334,0.415-0.407,0.686c-0.217,0.8,0.255,1.623,1.055,1.84c0.799,0.217,1.623-0.256,1.84-1.055  S52.509,15.866,51.71,15.648z M43.637,19.821c-1.503,0-2.725-1.223-2.725-2.726c0-1.502,1.222-2.725,2.725-2.725  c1.502,0,2.725,1.223,2.725,2.725C46.363,18.598,45.139,19.821,43.637,19.821L43.637,19.821z M43.637,14.911  c-1.205,0-2.185,0.98-2.185,2.185c0,1.206,0.979,2.186,2.185,2.186c1.205,0,2.185-0.98,2.185-2.186  C45.822,15.891,44.842,14.911,43.637,14.911L43.637,14.911z M44.733,16.072l-1.016,1.096c-0.021,0.023-0.05,0.035-0.079,0.035  c-0.026,0-0.053-0.01-0.073-0.029c-0.044-0.041-0.047-0.109-0.006-0.153l1.016-1.096c-0.205-0.164-0.453-0.278-0.731-0.317  c-0.82-0.113-1.578,0.461-1.691,1.281c-0.113,0.821,0.46,1.578,1.281,1.691s1.577-0.46,1.691-1.281  C45.187,16.835,45.03,16.391,44.733,16.072z M35.959,19.821c-1.503,0-2.726-1.223-2.726-2.726c0-1.502,1.223-2.725,2.726-2.725  c1.502,0,2.725,1.223,2.725,2.725C38.684,18.598,37.461,19.821,35.959,19.821L35.959,19.821z M35.959,14.911  c-1.206,0-2.185,0.98-2.185,2.185c0,1.206,0.979,2.186,2.185,2.186c1.204,0,2.185-0.98,2.185-2.186  C38.143,15.891,37.163,14.911,35.959,14.911L35.959,14.911z M36.786,15.845c-0.69-0.458-1.622-0.268-2.078,0.422  c-0.259,0.392-0.311,0.861-0.18,1.276l1.391-0.549c0.055-0.022,0.119,0.006,0.14,0.061c0.022,0.056-0.005,0.119-0.061,0.14  l-1.39,0.549c0.113,0.236,0.289,0.446,0.522,0.601c0.69,0.458,1.622,0.269,2.078-0.422C37.666,17.233,37.477,16.302,36.786,15.845z   M28.279,19.821c-1.501,0-2.725-1.223-2.725-2.726c0-1.502,1.223-2.725,2.725-2.725c1.503,0,2.726,1.223,2.726,2.725  C31.005,18.598,29.782,19.821,28.279,19.821L28.279,19.821z M28.279,14.911c-1.204,0-2.184,0.98-2.184,2.185  c0,1.206,0.98,2.186,2.184,2.186c1.206,0,2.186-0.98,2.186-2.186C30.465,15.891,29.485,14.911,28.279,14.911L28.279,14.911z   M28.793,15.687c-0.442-0.161-0.909-0.101-1.283,0.123l0.859,1.225c0.034,0.048,0.022,0.116-0.026,0.15  c-0.019,0.014-0.042,0.02-0.062,0.02c-0.034,0-0.068-0.016-0.089-0.046l-0.857-1.224c-0.204,0.166-0.367,0.385-0.463,0.649  c-0.284,0.778,0.118,1.639,0.896,1.922c0.778,0.284,1.639-0.118,1.922-0.896C29.972,16.83,29.571,15.97,28.793,15.687z M20.6,19.821  c-1.502,0-2.724-1.223-2.724-2.726c0-1.502,1.222-2.725,2.724-2.725c1.503,0,2.726,1.223,2.726,2.725  C23.326,18.598,22.103,19.821,20.6,19.821L20.6,19.821z M20.6,14.911c-1.204,0-2.185,0.98-2.185,2.185  c0,1.206,0.98,2.186,2.185,2.186c1.206,0,2.186-0.98,2.186-2.186C22.786,15.891,21.806,14.911,20.6,14.911L20.6,14.911z   M21.547,15.932l-0.857,1.225c-0.022,0.03-0.055,0.046-0.089,0.046c-0.021,0-0.042-0.006-0.062-0.019  c-0.048-0.035-0.061-0.102-0.026-0.151l0.856-1.225c-0.226-0.135-0.487-0.213-0.769-0.213c-0.828,0-1.5,0.671-1.5,1.5  c0,0.829,0.672,1.5,1.5,1.5c0.829,0,1.5-0.671,1.5-1.5C22.1,16.626,21.885,16.207,21.547,15.932z M13.226,37.55  c-1.26,0-2.286-1.024-2.286-2.286c0-1.26,1.025-2.286,2.286-2.286c1.262,0,2.286,1.026,2.286,2.286  C15.512,36.525,14.488,37.55,13.226,37.55L13.226,37.55z M13.226,33.518c-0.962,0-1.746,0.784-1.746,1.746  c0,0.963,0.783,1.747,1.746,1.747c0.963,0,1.747-0.784,1.747-1.747C14.973,34.302,14.19,33.518,13.226,33.518L13.226,33.518z   M14.018,34.321l-0.703,1.005c-0.021,0.031-0.055,0.046-0.089,0.046c-0.021,0-0.042-0.006-0.062-0.02  c-0.048-0.034-0.061-0.102-0.026-0.15l0.702-1.004c-0.181-0.105-0.39-0.166-0.614-0.166c-0.68,0-1.231,0.552-1.231,1.232  s0.551,1.231,1.231,1.231c0.681,0,1.231-0.551,1.231-1.231C14.458,34.885,14.287,34.547,14.018,34.321z M6.503,37.55  c-1.26,0-2.286-1.024-2.286-2.286c0-1.26,1.026-2.286,2.286-2.286c1.261,0,2.286,1.026,2.286,2.286  C8.789,36.525,7.764,37.55,6.503,37.55L6.503,37.55z M6.503,33.518c-0.963,0-1.747,0.784-1.747,1.746  c0,0.963,0.784,1.747,1.747,1.747c0.962,0,1.746-0.784,1.746-1.747C8.249,34.302,7.466,33.518,6.503,33.518L6.503,33.518z   M6.802,34.069c-0.369-0.092-0.738-0.008-1.023,0.199l0.806,0.925c0.039,0.045,0.034,0.113-0.011,0.152  c-0.02,0.018-0.045,0.026-0.07,0.026c-0.03,0-0.06-0.013-0.081-0.037L5.617,34.41c-0.146,0.15-0.255,0.339-0.31,0.556  c-0.165,0.66,0.237,1.329,0.897,1.493c0.659,0.165,1.329-0.237,1.493-0.896C7.863,34.903,7.462,34.234,6.802,34.069z M58.995,19.821  c-1.502,0-2.725-1.223-2.725-2.726c0-1.502,1.223-2.725,2.725-2.725c1.503,0,2.726,1.223,2.726,2.725  C61.72,18.598,60.498,19.821,58.995,19.821L58.995,19.821z M58.995,14.911c-1.204,0-2.185,0.98-2.185,2.185  c0,1.206,0.98,2.186,2.185,2.186c1.205,0,2.185-0.98,2.185-2.186C61.179,15.891,60.2,14.911,58.995,14.911L58.995,14.911z   M59.112,15.601c-0.826-0.065-1.547,0.552-1.612,1.379c-0.063,0.826,0.553,1.547,1.379,1.611c0.469,0.036,0.903-0.147,1.203-0.462  l-1.155-0.95c-0.046-0.038-0.053-0.105-0.015-0.152c0.037-0.046,0.106-0.053,0.152-0.015l1.154,0.949  c0.151-0.214,0.25-0.469,0.271-0.749C60.555,16.387,59.937,15.665,59.112,15.601z M66.675,19.821c-1.503,0-2.726-1.223-2.726-2.726  c0-1.502,1.223-2.725,2.726-2.725s2.724,1.223,2.724,2.725C69.398,18.598,68.177,19.821,66.675,19.821L66.675,19.821z   M66.675,14.911c-1.205,0-2.186,0.98-2.186,2.185c0,1.206,0.98,2.186,2.186,2.186c1.204,0,2.185-0.98,2.185-2.186  C68.859,15.891,67.879,14.911,66.675,14.911L66.675,14.911z M67.05,15.644c-0.802-0.208-1.62,0.275-1.827,1.077  c-0.117,0.455-0.014,0.915,0.246,1.265l1.136-0.972c0.045-0.039,0.113-0.034,0.151,0.012c0.04,0.044,0.033,0.113-0.011,0.151  l-1.136,0.971c0.184,0.187,0.418,0.329,0.689,0.399c0.802,0.207,1.62-0.275,1.827-1.077C68.334,16.669,67.851,15.851,67.05,15.644z   M74.353,19.821c-1.503,0-2.725-1.223-2.725-2.726c0-1.502,1.222-2.725,2.725-2.725c1.502,0,2.725,1.223,2.725,2.725  C77.078,18.598,75.855,19.821,74.353,19.821L74.353,19.821z M74.353,14.911c-1.206,0-2.186,0.98-2.186,2.185  c0,1.206,0.979,2.186,2.186,2.186c1.204,0,2.186-0.98,2.186-2.186C76.539,15.891,75.557,14.911,74.353,14.911L74.353,14.911z   M75.009,15.747c-0.422-0.206-0.894-0.194-1.288-0.01l0.727,1.306c0.029,0.052,0.011,0.118-0.042,0.146  c-0.016,0.01-0.034,0.014-0.052,0.014c-0.037,0-0.075-0.02-0.095-0.056l-0.727-1.305c-0.22,0.143-0.405,0.344-0.528,0.597  c-0.362,0.745-0.052,1.643,0.693,2.004c0.745,0.363,1.643,0.052,2.005-0.692C76.064,17.007,75.754,16.109,75.009,15.747z   M82.032,19.821c-1.503,0-2.725-1.223-2.725-2.726c0-1.502,1.222-2.725,2.725-2.725c1.502,0,2.726,1.223,2.726,2.725  C84.758,18.598,83.534,19.821,82.032,19.821L82.032,19.821z M82.032,14.911c-1.205,0-2.186,0.98-2.186,2.185  c0,1.206,0.98,2.186,2.186,2.186s2.185-0.98,2.185-2.186C84.217,15.891,83.237,14.911,82.032,14.911L82.032,14.911z M82.032,17.204  c-0.053,0-0.1-0.04-0.107-0.094c-0.008-0.059,0.034-0.113,0.093-0.121l1.481-0.197c-0.053-0.257-0.172-0.503-0.362-0.71  c-0.559-0.611-1.508-0.652-2.118-0.091c-0.61,0.559-0.651,1.508-0.092,2.118s1.508,0.652,2.119,0.092  c0.346-0.317,0.509-0.761,0.483-1.195l-1.483,0.196C82.041,17.203,82.036,17.204,82.032,17.204z M13.781,17.771H5.873l-0.77-1.998  c0-0.001-0.001-0.003-0.002-0.004c-0.004-0.01-0.009-0.019-0.014-0.028c-0.003-0.006-0.006-0.013-0.011-0.02  c-0.005-0.008-0.011-0.014-0.017-0.021s-0.01-0.014-0.016-0.02c-0.006-0.006-0.013-0.011-0.02-0.017  c-0.007-0.005-0.013-0.011-0.021-0.017c-0.006-0.005-0.013-0.007-0.02-0.011c-0.009-0.005-0.018-0.01-0.026-0.014  c-0.002-0.001-0.003-0.001-0.004-0.002c-0.006-0.002-0.012-0.003-0.018-0.005c-0.01-0.003-0.019-0.006-0.029-0.008  c-0.009-0.002-0.017-0.002-0.025-0.003s-0.017-0.002-0.026-0.002c-0.01,0-0.019,0.001-0.028,0.001  c-0.008,0.001-0.017,0.001-0.024,0.003c-0.01,0.001-0.02,0.005-0.029,0.007c-0.006,0.002-0.012,0.002-0.018,0.005  c-0.002,0-0.003,0.001-0.004,0.002c-0.009,0.003-0.018,0.009-0.027,0.013c-0.006,0.004-0.014,0.007-0.021,0.011  c-0.007,0.006-0.014,0.012-0.021,0.017c-0.007,0.005-0.013,0.011-0.02,0.016c-0.006,0.006-0.011,0.013-0.016,0.019  c-0.006,0.007-0.012,0.014-0.018,0.021c-0.004,0.007-0.007,0.014-0.012,0.021c-0.004,0.009-0.01,0.018-0.014,0.027  c-0.001,0.001-0.001,0.003-0.002,0.004l-0.877,2.17c-0.055,0.139,0.011,0.296,0.149,0.352c0.033,0.013,0.068,0.02,0.101,0.02  c0.107,0,0.208-0.064,0.251-0.169l0.62-1.537l0.591,1.533c0,0.001,0.001,0.003,0.001,0.004c0.002,0.004,0.005,0.01,0.007,0.014  c0.005,0.01,0.01,0.021,0.016,0.029c0.002,0.004,0.005,0.008,0.009,0.013c0.006,0.009,0.014,0.018,0.022,0.026  c0.003,0.003,0.006,0.006,0.009,0.009c0.011,0.012,0.023,0.021,0.036,0.03c0,0,0.001,0,0.001,0c0.013,0.009,0.026,0.016,0.041,0.021  c0.004,0.003,0.009,0.004,0.014,0.006c0.011,0.004,0.021,0.008,0.032,0.01c0.004,0,0.009,0.002,0.015,0.004  c0.016,0.002,0.033,0.004,0.048,0.004h0.001h8.093c0.149,0,0.27-0.121,0.27-0.27C14.052,17.893,13.93,17.771,13.781,17.771z   M8.454,40.435v2.039H4.514v-2.039H8.454 M8.454,39.895H4.514c-0.298,0-0.54,0.242-0.54,0.54v2.039c0,0.298,0.242,0.54,0.54,0.54  h3.939c0.297,0,0.539-0.241,0.539-0.54v-2.039C8.993,40.137,8.751,39.895,8.454,39.895L8.454,39.895z M8.454,44.249v2.039H4.514  v-2.039H8.454 M8.454,43.71H4.514c-0.298,0-0.54,0.242-0.54,0.539v2.039c0,0.299,0.242,0.54,0.54,0.54h3.939  c0.297,0,0.539-0.241,0.539-0.54v-2.039C8.993,43.952,8.751,43.71,8.454,43.71L8.454,43.71z M8.454,48.064v2.039H4.514v-2.039H8.454   M8.454,47.524H4.514c-0.298,0-0.54,0.242-0.54,0.541v2.039c0,0.297,0.242,0.541,0.54,0.541h3.939c0.297,0,0.539-0.243,0.539-0.541  v-2.039C8.993,47.766,8.751,47.524,8.454,47.524L8.454,47.524z M8.454,51.879v2.039H4.514v-2.039H8.454 M8.454,51.339H4.514  c-0.298,0-0.54,0.241-0.54,0.54v2.039c0,0.297,0.242,0.539,0.54,0.539h3.939c0.297,0,0.539-0.242,0.539-0.539v-2.039  C8.993,51.58,8.751,51.339,8.454,51.339L8.454,51.339z M8.454,57.807v2.039H4.514v-2.039H8.454 M8.454,57.268H4.514  c-0.298,0-0.54,0.242-0.54,0.539v2.039c0,0.299,0.242,0.54,0.54,0.54h3.939c0.297,0,0.539-0.241,0.539-0.54v-2.039  C8.993,57.51,8.751,57.268,8.454,57.268L8.454,57.268z M8.454,61.622v2.039H4.514v-2.039H8.454 M8.454,61.082H4.514  c-0.298,0-0.54,0.241-0.54,0.54v2.039c0,0.298,0.242,0.539,0.54,0.539h3.939c0.297,0,0.539-0.241,0.539-0.539v-2.039  C8.993,61.323,8.751,61.082,8.454,61.082L8.454,61.082z M8.454,65.436v2.04H4.514v-2.04H8.454 M8.454,64.896H4.514  c-0.298,0-0.54,0.242-0.54,0.539v2.04c0,0.298,0.242,0.539,0.54,0.539h3.939c0.297,0,0.539-0.241,0.539-0.539v-2.04  C8.993,65.139,8.751,64.896,8.454,64.896L8.454,64.896z M96.307,57.807v2.039h-3.938v-2.039H96.307 M96.307,57.268h-3.938  c-0.298,0-0.54,0.242-0.54,0.539v2.039c0,0.299,0.242,0.54,0.54,0.54h3.938c0.298,0,0.541-0.241,0.541-0.54v-2.039  C96.848,57.51,96.605,57.268,96.307,57.268L96.307,57.268z M96.307,61.557v2.039h-3.938v-2.039H96.307 M96.307,61.018h-3.938  c-0.298,0-0.54,0.241-0.54,0.539v2.039c0,0.298,0.242,0.54,0.54,0.54h3.938c0.298,0,0.541-0.242,0.541-0.54v-2.039  C96.848,61.259,96.605,61.018,96.307,61.018L96.307,61.018z M96.307,65.306v2.038h-3.938v-2.038H96.307 M96.307,64.767h-3.938  c-0.298,0-0.54,0.242-0.54,0.539v2.038c0,0.3,0.242,0.541,0.54,0.541h3.938c0.298,0,0.541-0.241,0.541-0.541v-2.038  C96.848,65.009,96.605,64.767,96.307,64.767L96.307,64.767z M90.58,57.807v2.039h-3.938v-2.039H90.58 M90.58,57.268h-3.938  c-0.298,0-0.539,0.242-0.539,0.539v2.039c0,0.299,0.241,0.54,0.539,0.54h3.938c0.3,0,0.541-0.241,0.541-0.54v-2.039  C91.121,57.51,90.88,57.268,90.58,57.268L90.58,57.268z M90.58,61.557v2.039h-3.938v-2.039H90.58 M90.58,61.018h-3.938  c-0.298,0-0.539,0.241-0.539,0.539v2.039c0,0.298,0.241,0.54,0.539,0.54h3.938c0.3,0,0.541-0.242,0.541-0.54v-2.039  C91.121,61.259,90.88,61.018,90.58,61.018L90.58,61.018z M90.58,65.306v2.038h-3.938v-2.038H90.58 M90.58,64.767h-3.938  c-0.298,0-0.539,0.242-0.539,0.539v2.038c0,0.3,0.241,0.541,0.539,0.541h3.938c0.3,0,0.541-0.241,0.541-0.541v-2.038  C91.121,65.009,90.88,64.767,90.58,64.767L90.58,64.767z M96.307,40.435v2.039h-3.938v-2.039H96.307 M96.307,39.895h-3.938  c-0.298,0-0.54,0.242-0.54,0.54v2.039c0,0.298,0.242,0.54,0.54,0.54h3.938c0.298,0,0.541-0.241,0.541-0.54v-2.039  C96.848,40.137,96.605,39.895,96.307,39.895L96.307,39.895z M96.307,44.184v2.039h-3.938v-2.039H96.307 M96.307,43.644h-3.938  c-0.298,0-0.54,0.242-0.54,0.54v2.039c0,0.297,0.242,0.54,0.54,0.54h3.938c0.298,0,0.541-0.242,0.541-0.54v-2.039  C96.848,43.886,96.605,43.644,96.307,43.644L96.307,43.644z M96.307,47.934v2.039h-3.938v-2.039H96.307 M96.307,47.394h-3.938  c-0.298,0-0.54,0.241-0.54,0.54v2.039c0,0.297,0.242,0.54,0.54,0.54h3.938c0.298,0,0.541-0.243,0.541-0.54v-2.039  C96.848,47.635,96.605,47.394,96.307,47.394L96.307,47.394z M90.58,40.435v2.039h-3.938v-2.039H90.58 M90.58,39.895h-3.938  c-0.298,0-0.539,0.242-0.539,0.54v2.039c0,0.298,0.241,0.54,0.539,0.54h3.938c0.3,0,0.541-0.241,0.541-0.54v-2.039  C91.121,40.137,90.88,39.895,90.58,39.895L90.58,39.895z M90.58,44.184v2.039h-3.938v-2.039H90.58 M90.58,43.644h-3.938  c-0.298,0-0.539,0.242-0.539,0.54v2.039c0,0.297,0.241,0.54,0.539,0.54h3.938c0.3,0,0.541-0.242,0.541-0.54v-2.039  C91.121,43.886,90.88,43.644,90.58,43.644L90.58,43.644z M90.58,47.934v2.039h-3.938v-2.039H90.58 M90.58,47.394h-3.938  c-0.298,0-0.539,0.241-0.539,0.54v2.039c0,0.297,0.241,0.54,0.539,0.54h3.938c0.3,0,0.541-0.243,0.541-0.54v-2.039  C91.121,47.635,90.88,47.394,90.58,47.394L90.58,47.394z M96.307,20.09v2.039h-3.938V20.09H96.307 M96.307,19.55h-3.938  c-0.298,0-0.54,0.243-0.54,0.54v2.039c0,0.298,0.242,0.54,0.54,0.54h3.938c0.298,0,0.541-0.242,0.541-0.54V20.09  C96.848,19.793,96.605,19.55,96.307,19.55L96.307,19.55z M96.307,23.905v2.038h-3.938v-2.038H96.307 M96.307,23.365h-3.938  c-0.298,0-0.54,0.242-0.54,0.54v2.038c0,0.298,0.242,0.541,0.54,0.541h3.938c0.298,0,0.541-0.242,0.541-0.541v-2.038  C96.848,23.607,96.605,23.365,96.307,23.365L96.307,23.365z M96.307,27.72v2.039h-3.938V27.72H96.307 M96.307,27.18h-3.938  c-0.298,0-0.54,0.241-0.54,0.54v2.039c0,0.297,0.242,0.54,0.54,0.54h3.938c0.298,0,0.541-0.242,0.541-0.54V27.72  C96.848,27.421,96.605,27.18,96.307,27.18L96.307,27.18z M90.58,20.09v2.039h-3.938V20.09H90.58 M90.58,19.55h-3.938  c-0.298,0-0.539,0.243-0.539,0.54v2.039c0,0.298,0.241,0.54,0.539,0.54h3.938c0.3,0,0.541-0.242,0.541-0.54V20.09  C91.121,19.793,90.88,19.55,90.58,19.55L90.58,19.55z M90.58,23.905v2.038h-3.938v-2.038H90.58 M90.58,23.365h-3.938  c-0.298,0-0.539,0.242-0.539,0.54v2.038c0,0.298,0.241,0.541,0.539,0.541h3.938c0.3,0,0.541-0.242,0.541-0.541v-2.038  C91.121,23.607,90.88,23.365,90.58,23.365L90.58,23.365z M90.58,27.72v2.039h-3.938V27.72H90.58 M90.58,27.18h-3.938  c-0.298,0-0.539,0.241-0.539,0.54v2.039c0,0.297,0.241,0.54,0.539,0.54h3.938c0.3,0,0.541-0.242,0.541-0.54V27.72  C91.121,27.421,90.88,27.18,90.58,27.18L90.58,27.18z M8.454,69.251v3.827H4.514v-3.827H8.454 M8.454,68.712H4.514  c-0.298,0-0.54,0.241-0.54,0.539v3.827c0,0.298,0.242,0.54,0.54,0.54h3.939c0.297,0,0.539-0.242,0.539-0.54v-3.827  C8.993,68.953,8.751,68.712,8.454,68.712L8.454,68.712z M8.454,75.103v3.826H4.514v-3.826H8.454 M8.454,74.562H4.514  c-0.298,0-0.54,0.241-0.54,0.54v3.826c0,0.298,0.242,0.54,0.54,0.54h3.939c0.297,0,0.539-0.242,0.539-0.54v-3.826  C8.993,74.804,8.751,74.562,8.454,74.562L8.454,74.562z M8.454,80.953v3.826H4.514v-3.826H8.454L8.454,80.953 M8.454,80.414H4.514  c-0.298,0-0.54,0.241-0.54,0.539v3.826c0,0.299,0.242,0.54,0.54,0.54h3.939c0.297,0,0.539-0.241,0.539-0.54v-3.826  C8.993,80.655,8.751,80.414,8.454,80.414L8.454,80.414z M15.237,40.435v44.283H11.35V40.435H15.237 M15.237,39.895H11.35  c-0.298,0-0.539,0.242-0.539,0.54v44.283c0,0.298,0.241,0.54,0.539,0.54h3.887c0.298,0,0.54-0.242,0.54-0.54V40.435  C15.777,40.137,15.535,39.895,15.237,39.895L15.237,39.895z M90.58,33.569v1.499h-3.938v-1.499H90.58 M90.58,33.03h-3.938  c-0.298,0-0.539,0.241-0.539,0.54v1.499c0,0.298,0.241,0.54,0.539,0.54h3.938c0.3,0,0.541-0.242,0.541-0.54v-1.499  C91.121,33.271,90.88,33.03,90.58,33.03L90.58,33.03z M83.728,33.569v1.499h-3.939v-1.499H83.728 M83.728,33.03h-3.939  c-0.298,0-0.54,0.241-0.54,0.54v1.499c0,0.298,0.242,0.54,0.54,0.54h3.939c0.297,0,0.539-0.242,0.539-0.54v-1.499  C84.267,33.271,84.025,33.03,83.728,33.03L83.728,33.03z M83.728,36.953v1.499h-3.939v-1.499H83.728 M83.728,36.413h-3.939  c-0.298,0-0.54,0.242-0.54,0.54v1.499c0,0.298,0.242,0.539,0.54,0.539h3.939c0.297,0,0.539-0.241,0.539-0.539v-1.499  C84.267,36.655,84.025,36.413,83.728,36.413L83.728,36.413z M96.307,33.569v1.499h-3.938v-1.499H96.307 M96.307,33.03h-3.938  c-0.298,0-0.54,0.241-0.54,0.54v1.499c0,0.298,0.242,0.54,0.54,0.54h3.938c0.298,0,0.541-0.242,0.541-0.54v-1.499  C96.848,33.271,96.605,33.03,96.307,33.03L96.307,33.03z M90.58,36.953v1.499h-3.938v-1.499H90.58 M90.58,36.413h-3.938  c-0.298,0-0.539,0.242-0.539,0.54v1.499c0,0.298,0.241,0.539,0.539,0.539h3.938c0.3,0,0.541-0.241,0.541-0.539v-1.499  C91.121,36.655,90.88,36.413,90.58,36.413L90.58,36.413z M96.307,36.953v1.499h-3.938v-1.499H96.307 M96.307,36.413h-3.938  c-0.298,0-0.54,0.242-0.54,0.54v1.499c0,0.298,0.242,0.539,0.54,0.539h3.938c0.298,0,0.541-0.241,0.541-0.539v-1.499  C96.848,36.655,96.605,36.413,96.307,36.413L96.307,36.413z M76.874,33.569v1.499h-5.632v-1.499H76.874 M76.874,33.03h-5.632  c-0.299,0-0.54,0.241-0.54,0.54v1.499c0,0.298,0.241,0.54,0.54,0.54h5.632c0.299,0,0.54-0.242,0.54-0.54v-1.499  C77.414,33.271,77.173,33.03,76.874,33.03L76.874,33.03z M23.741,33.569v1.499h-5.633v-1.499H23.741 M23.741,33.03h-5.633  c-0.298,0-0.539,0.241-0.539,0.54v1.499c0,0.298,0.241,0.54,0.539,0.54h5.633c0.298,0,0.54-0.242,0.54-0.54v-1.499  C24.281,33.271,24.039,33.03,23.741,33.03L23.741,33.03z M31.331,33.569v1.499h-5.633v-1.499H31.331 M31.331,33.03h-5.633  c-0.298,0-0.54,0.241-0.54,0.54v1.499c0,0.298,0.242,0.54,0.54,0.54h5.633c0.298,0,0.541-0.242,0.541-0.54v-1.499  C31.872,33.271,31.63,33.03,31.331,33.03L31.331,33.03z M38.922,33.569v1.499h-5.633v-1.499H38.922 M38.922,33.03h-5.633  c-0.298,0-0.54,0.241-0.54,0.54v1.499c0,0.298,0.241,0.54,0.54,0.54h5.633c0.297,0,0.54-0.242,0.54-0.54v-1.499  C39.462,33.271,39.219,33.03,38.922,33.03L38.922,33.03z M46.512,33.569v1.499H40.88v-1.499H46.512 M46.512,33.03H40.88  c-0.298,0-0.54,0.241-0.54,0.54v1.499c0,0.298,0.242,0.54,0.54,0.54h5.633c0.298,0,0.54-0.242,0.54-0.54v-1.499  C47.052,33.271,46.81,33.03,46.512,33.03L46.512,33.03z M54.103,33.569v1.499H48.47v-1.499H54.103 M54.103,33.03H48.47  c-0.298,0-0.54,0.241-0.54,0.54v1.499c0,0.298,0.242,0.54,0.54,0.54h5.633c0.298,0,0.54-0.242,0.54-0.54v-1.499  C54.643,33.271,54.401,33.03,54.103,33.03L54.103,33.03z M61.694,33.569v1.499h-5.633v-1.499H61.694 M61.694,33.03h-5.633  c-0.299,0-0.541,0.241-0.541,0.54v1.499c0,0.298,0.242,0.54,0.541,0.54h5.633c0.297,0,0.539-0.242,0.539-0.54v-1.499  C62.233,33.271,61.991,33.03,61.694,33.03L61.694,33.03z M69.284,33.569v1.499h-5.633v-1.499H69.284 M69.284,33.03h-5.633  c-0.298,0-0.54,0.241-0.54,0.54v1.499c0,0.298,0.242,0.54,0.54,0.54h5.633c0.298,0,0.539-0.242,0.539-0.54v-1.499  C69.823,33.271,69.582,33.03,69.284,33.03L69.284,33.03z M76.874,36.953v1.499h-5.632v-1.499H76.874 M76.874,36.413h-5.632  c-0.299,0-0.54,0.242-0.54,0.54v1.499c0,0.298,0.241,0.539,0.54,0.539h5.632c0.299,0,0.54-0.241,0.54-0.539v-1.499  C77.414,36.655,77.173,36.413,76.874,36.413L76.874,36.413z M23.741,36.953v1.499h-5.633v-1.499H23.741 M23.741,36.413h-5.633  c-0.298,0-0.539,0.242-0.539,0.54v1.499c0,0.298,0.241,0.539,0.539,0.539h5.633c0.298,0,0.54-0.241,0.54-0.539v-1.499  C24.281,36.655,24.039,36.413,23.741,36.413L23.741,36.413z M31.331,36.953v1.499h-5.633v-1.499H31.331 M31.331,36.413h-5.633  c-0.298,0-0.54,0.242-0.54,0.54v1.499c0,0.298,0.242,0.539,0.54,0.539h5.633c0.298,0,0.541-0.241,0.541-0.539v-1.499  C31.872,36.655,31.63,36.413,31.331,36.413L31.331,36.413z M38.922,36.953v1.499h-5.633v-1.499H38.922 M38.922,36.413h-5.633  c-0.298,0-0.54,0.242-0.54,0.54v1.499c0,0.298,0.241,0.539,0.54,0.539h5.633c0.297,0,0.54-0.241,0.54-0.539v-1.499  C39.462,36.655,39.219,36.413,38.922,36.413L38.922,36.413z M46.512,36.953v1.499H40.88v-1.499H46.512 M46.512,36.413H40.88  c-0.298,0-0.54,0.242-0.54,0.54v1.499c0,0.298,0.242,0.539,0.54,0.539h5.633c0.298,0,0.54-0.241,0.54-0.539v-1.499  C47.052,36.655,46.81,36.413,46.512,36.413L46.512,36.413z M54.103,36.953v1.499H48.47v-1.499H54.103 M54.103,36.413H48.47  c-0.298,0-0.54,0.242-0.54,0.54v1.499c0,0.298,0.242,0.539,0.54,0.539h5.633c0.298,0,0.54-0.241,0.54-0.539v-1.499  C54.643,36.655,54.401,36.413,54.103,36.413L54.103,36.413z M61.694,36.953v1.499h-5.633v-1.499H61.694 M61.694,36.413h-5.633  c-0.299,0-0.541,0.242-0.541,0.54v1.499c0,0.298,0.242,0.539,0.541,0.539h5.633c0.297,0,0.539-0.241,0.539-0.539v-1.499  C62.233,36.655,61.991,36.413,61.694,36.413L61.694,36.413z M69.284,36.953v1.499h-5.633v-1.499H69.284 M69.284,36.413h-5.633  c-0.298,0-0.54,0.242-0.54,0.54v1.499c0,0.298,0.242,0.539,0.54,0.539h5.633c0.298,0,0.539-0.241,0.539-0.539v-1.499  C69.823,36.655,69.582,36.413,69.284,36.413L69.284,36.413z M76.874,40.435v3.747h-5.632v-3.747H76.874 M76.874,39.895h-5.632  c-0.299,0-0.54,0.242-0.54,0.54v3.747c0,0.298,0.241,0.54,0.54,0.54h5.632c0.299,0,0.54-0.242,0.54-0.54v-3.747  C77.414,40.137,77.173,39.895,76.874,39.895L76.874,39.895z M69.284,40.435v3.747h-5.633v-3.747H69.284 M69.284,39.895h-5.633  c-0.298,0-0.54,0.242-0.54,0.54v3.747c0,0.298,0.242,0.54,0.54,0.54h5.633c0.298,0,0.539-0.242,0.539-0.54v-3.747  C69.823,40.137,69.582,39.895,69.284,39.895L69.284,39.895z M61.694,40.435v3.747h-5.633v-3.747H61.694 M61.694,39.895h-5.633  c-0.299,0-0.541,0.242-0.541,0.54v3.747c0,0.298,0.242,0.54,0.541,0.54h5.633c0.297,0,0.539-0.242,0.539-0.54v-3.747  C62.233,40.137,61.991,39.895,61.694,39.895L61.694,39.895z M54.103,40.435v3.747H48.47v-3.747H54.103 M54.103,39.895H48.47  c-0.298,0-0.54,0.242-0.54,0.54v3.747c0,0.298,0.242,0.54,0.54,0.54h5.633c0.298,0,0.54-0.242,0.54-0.54v-3.747  C54.643,40.137,54.401,39.895,54.103,39.895L54.103,39.895z M46.512,40.435v3.747H40.88v-3.747H46.512 M46.512,39.895H40.88  c-0.298,0-0.54,0.242-0.54,0.54v3.747c0,0.298,0.242,0.54,0.54,0.54h5.633c0.298,0,0.54-0.242,0.54-0.54v-3.747  C47.052,40.137,46.81,39.895,46.512,39.895L46.512,39.895z M38.922,40.435v3.747h-5.633v-3.747H38.922 M38.922,39.895h-5.633  c-0.298,0-0.54,0.242-0.54,0.54v3.747c0,0.298,0.241,0.54,0.54,0.54h5.633c0.297,0,0.54-0.242,0.54-0.54v-3.747  C39.462,40.137,39.219,39.895,38.922,39.895L38.922,39.895z M31.331,40.435v3.747h-5.633v-3.747H31.331 M31.331,39.895h-5.633  c-0.298,0-0.54,0.242-0.54,0.54v3.747c0,0.298,0.242,0.54,0.54,0.54h5.633c0.298,0,0.541-0.242,0.541-0.54v-3.747  C31.872,40.137,31.63,39.895,31.331,39.895L31.331,39.895z M23.741,40.435v3.747h-5.633v-3.747H23.741 M23.741,39.895h-5.633  c-0.298,0-0.539,0.242-0.539,0.54v3.747c0,0.298,0.241,0.54,0.539,0.54h5.633c0.298,0,0.54-0.242,0.54-0.54v-3.747  C24.281,40.137,24.039,39.895,23.741,39.895L23.741,39.895z M76.874,46.226v3.747h-5.632v-3.747H76.874 M76.874,45.686h-5.632  c-0.299,0-0.54,0.241-0.54,0.54v3.747c0,0.297,0.241,0.54,0.54,0.54h5.632c0.299,0,0.54-0.243,0.54-0.54v-3.747  C77.414,45.927,77.173,45.686,76.874,45.686L76.874,45.686z M69.284,46.226v3.747h-5.633v-3.747H69.284 M69.284,45.686h-5.633  c-0.298,0-0.54,0.241-0.54,0.54v3.747c0,0.297,0.242,0.54,0.54,0.54h5.633c0.298,0,0.539-0.243,0.539-0.54v-3.747  C69.823,45.927,69.582,45.686,69.284,45.686L69.284,45.686z M61.694,46.226v3.747h-5.633v-3.747H61.694 M61.694,45.686h-5.633  c-0.299,0-0.541,0.241-0.541,0.54v3.747c0,0.297,0.242,0.54,0.541,0.54h5.633c0.297,0,0.539-0.243,0.539-0.54v-3.747  C62.233,45.927,61.991,45.686,61.694,45.686L61.694,45.686z M54.103,46.226v3.747H48.47v-3.747H54.103 M54.103,45.686H48.47  c-0.298,0-0.54,0.241-0.54,0.54v3.747c0,0.297,0.242,0.54,0.54,0.54h5.633c0.298,0,0.54-0.243,0.54-0.54v-3.747  C54.643,45.927,54.401,45.686,54.103,45.686L54.103,45.686z M46.512,46.226v3.747H40.88v-3.747H46.512 M46.512,45.686H40.88  c-0.298,0-0.54,0.241-0.54,0.54v3.747c0,0.297,0.242,0.54,0.54,0.54h5.633c0.298,0,0.54-0.243,0.54-0.54v-3.747  C47.052,45.927,46.81,45.686,46.512,45.686L46.512,45.686z M38.922,46.226v3.747h-5.633v-3.747H38.922 M38.922,45.686h-5.633  c-0.298,0-0.54,0.241-0.54,0.54v3.747c0,0.297,0.241,0.54,0.54,0.54h5.633c0.297,0,0.54-0.243,0.54-0.54v-3.747  C39.462,45.927,39.219,45.686,38.922,45.686L38.922,45.686z M31.331,46.226v3.747h-5.633v-3.747H31.331 M31.331,45.686h-5.633  c-0.298,0-0.54,0.241-0.54,0.54v3.747c0,0.297,0.242,0.54,0.54,0.54h5.633c0.298,0,0.541-0.243,0.541-0.54v-3.747  C31.872,45.927,31.63,45.686,31.331,45.686L31.331,45.686z M23.741,46.226v3.747h-5.633v-3.747H23.741 M23.741,45.686h-5.633  c-0.298,0-0.539,0.241-0.539,0.54v3.747c0,0.297,0.241,0.54,0.539,0.54h5.633c0.298,0,0.54-0.243,0.54-0.54v-3.747  C24.281,45.927,24.039,45.686,23.741,45.686L23.741,45.686z M76.874,52.016v3.747h-5.632v-3.747H76.874 M76.874,51.477h-5.632  c-0.299,0-0.54,0.241-0.54,0.539v3.747c0,0.299,0.241,0.541,0.54,0.541h5.632c0.299,0,0.54-0.242,0.54-0.541v-3.747  C77.414,51.718,77.173,51.477,76.874,51.477L76.874,51.477z M69.284,52.016v3.747h-5.633v-3.747H69.284 M69.284,51.477h-5.633  c-0.298,0-0.54,0.241-0.54,0.539v3.747c0,0.299,0.242,0.541,0.54,0.541h5.633c0.298,0,0.539-0.242,0.539-0.541v-3.747  C69.823,51.718,69.582,51.477,69.284,51.477L69.284,51.477z M61.694,52.016v3.747h-5.633v-3.747H61.694 M61.694,51.477h-5.633  c-0.299,0-0.541,0.241-0.541,0.539v3.747c0,0.299,0.242,0.541,0.541,0.541h5.633c0.297,0,0.539-0.242,0.539-0.541v-3.747  C62.233,51.718,61.991,51.477,61.694,51.477L61.694,51.477z M54.103,52.016v3.747H48.47v-3.747H54.103 M54.103,51.477H48.47  c-0.298,0-0.54,0.241-0.54,0.539v3.747c0,0.299,0.242,0.541,0.54,0.541h5.633c0.298,0,0.54-0.242,0.54-0.541v-3.747  C54.643,51.718,54.401,51.477,54.103,51.477L54.103,51.477z M46.512,52.016v3.747H40.88v-3.747H46.512 M46.512,51.477H40.88  c-0.298,0-0.54,0.241-0.54,0.539v3.747c0,0.299,0.242,0.541,0.54,0.541h5.633c0.298,0,0.54-0.242,0.54-0.541v-3.747  C47.052,51.718,46.81,51.477,46.512,51.477L46.512,51.477z M38.922,52.016v3.747h-5.633v-3.747H38.922 M38.922,51.477h-5.633  c-0.298,0-0.54,0.241-0.54,0.539v3.747c0,0.299,0.241,0.541,0.54,0.541h5.633c0.297,0,0.54-0.242,0.54-0.541v-3.747  C39.462,51.718,39.219,51.477,38.922,51.477L38.922,51.477z M31.331,52.016v3.747h-5.633v-3.747H31.331 M31.331,51.477h-5.633  c-0.298,0-0.54,0.241-0.54,0.539v3.747c0,0.299,0.242,0.541,0.54,0.541h5.633c0.298,0,0.541-0.242,0.541-0.541v-3.747  C31.872,51.718,31.63,51.477,31.331,51.477L31.331,51.477z M23.741,52.016v3.747h-5.633v-3.747H23.741 M23.741,51.477h-5.633  c-0.298,0-0.539,0.241-0.539,0.539v3.747c0,0.299,0.241,0.541,0.539,0.541h5.633c0.298,0,0.54-0.242,0.54-0.541v-3.747  C24.281,51.718,24.039,51.477,23.741,51.477L23.741,51.477z M76.874,57.807v3.747h-5.632v-3.747H76.874 M76.874,57.268h-5.632  c-0.299,0-0.54,0.242-0.54,0.539v3.747c0,0.299,0.241,0.54,0.54,0.54h5.632c0.299,0,0.54-0.241,0.54-0.54v-3.747  C77.414,57.51,77.173,57.268,76.874,57.268L76.874,57.268z M69.284,57.807v3.747h-5.633v-3.747H69.284 M69.284,57.268h-5.633  c-0.298,0-0.54,0.242-0.54,0.539v3.747c0,0.299,0.242,0.54,0.54,0.54h5.633c0.298,0,0.539-0.241,0.539-0.54v-3.747  C69.823,57.51,69.582,57.268,69.284,57.268L69.284,57.268z M61.694,57.807v3.747h-5.633v-3.747H61.694 M61.694,57.268h-5.633  c-0.299,0-0.541,0.242-0.541,0.539v3.747c0,0.299,0.242,0.54,0.541,0.54h5.633c0.297,0,0.539-0.241,0.539-0.54v-3.747  C62.233,57.51,61.991,57.268,61.694,57.268L61.694,57.268z M38.922,57.807v3.747h-5.633v-3.747H38.922 M38.922,57.268h-5.633  c-0.298,0-0.54,0.242-0.54,0.539v3.747c0,0.299,0.241,0.54,0.54,0.54h5.633c0.297,0,0.54-0.241,0.54-0.54v-3.747  C39.462,57.51,39.219,57.268,38.922,57.268L38.922,57.268z M31.331,57.807v3.747h-5.633v-3.747H31.331 M31.331,57.268h-5.633  c-0.298,0-0.54,0.242-0.54,0.539v3.747c0,0.299,0.242,0.54,0.54,0.54h5.633c0.298,0,0.541-0.241,0.541-0.54v-3.747  C31.872,57.51,31.63,57.268,31.331,57.268L31.331,57.268z M23.741,57.807v3.747h-5.633v-3.747H23.741 M23.741,57.268h-5.633  c-0.298,0-0.539,0.242-0.539,0.539v3.747c0,0.299,0.241,0.54,0.539,0.54h5.633c0.298,0,0.54-0.241,0.54-0.54v-3.747  C24.281,57.51,24.039,57.268,23.741,57.268L23.741,57.268z M76.874,63.598v3.746h-5.632v-3.746H76.874 M76.874,63.059h-5.632  c-0.299,0-0.54,0.241-0.54,0.539v3.746c0,0.3,0.241,0.541,0.54,0.541h5.632c0.299,0,0.54-0.241,0.54-0.541v-3.746  C77.414,63.3,77.173,63.059,76.874,63.059L76.874,63.059z M69.284,63.598v3.746h-5.633v-3.746H69.284 M69.284,63.059h-5.633  c-0.298,0-0.54,0.241-0.54,0.539v3.746c0,0.3,0.242,0.541,0.54,0.541h5.633c0.298,0,0.539-0.241,0.539-0.541v-3.746  C69.823,63.3,69.582,63.059,69.284,63.059L69.284,63.059z M61.694,63.598v3.746h-5.633v-3.746H61.694 M61.694,63.059h-5.633  c-0.299,0-0.541,0.241-0.541,0.539v3.746c0,0.3,0.242,0.541,0.541,0.541h5.633c0.297,0,0.539-0.241,0.539-0.541v-3.746  C62.233,63.3,61.991,63.059,61.694,63.059L61.694,63.059z M38.922,63.598v3.746h-5.633v-3.746H38.922 M38.922,63.059h-5.633  c-0.298,0-0.54,0.241-0.54,0.539v3.746c0,0.3,0.241,0.541,0.54,0.541h5.633c0.297,0,0.54-0.241,0.54-0.541v-3.746  C39.462,63.3,39.219,63.059,38.922,63.059L38.922,63.059z M31.331,63.598v3.746h-5.633v-3.746H31.331 M31.331,63.059h-5.633  c-0.298,0-0.54,0.241-0.54,0.539v3.746c0,0.3,0.242,0.541,0.54,0.541h5.633c0.298,0,0.541-0.241,0.541-0.541v-3.746  C31.872,63.3,31.63,63.059,31.331,63.059L31.331,63.059z M23.741,63.598v3.746h-5.633v-3.746H23.741 M23.741,63.059h-5.633  c-0.298,0-0.539,0.241-0.539,0.539v3.746c0,0.3,0.241,0.541,0.539,0.541h5.633c0.298,0,0.54-0.241,0.54-0.541v-3.746  C24.281,63.3,24.039,63.059,23.741,63.059L23.741,63.059z M76.874,69.39v3.746h-5.632V69.39H76.874 M76.874,68.85h-5.632  c-0.299,0-0.54,0.241-0.54,0.54v3.746c0,0.298,0.241,0.539,0.54,0.539h5.632c0.299,0,0.54-0.241,0.54-0.539V69.39  C77.414,69.091,77.173,68.85,76.874,68.85L76.874,68.85z M69.284,69.39v3.746h-5.633V69.39H69.284 M69.284,68.85h-5.633  c-0.298,0-0.54,0.241-0.54,0.54v3.746c0,0.298,0.242,0.539,0.54,0.539h5.633c0.298,0,0.539-0.241,0.539-0.539V69.39  C69.823,69.091,69.582,68.85,69.284,68.85L69.284,68.85z M61.694,69.39v3.746h-5.633V69.39H61.694 M61.694,68.85h-5.633  c-0.299,0-0.541,0.241-0.541,0.54v3.746c0,0.298,0.242,0.539,0.541,0.539h5.633c0.297,0,0.539-0.241,0.539-0.539V69.39  C62.233,69.091,61.991,68.85,61.694,68.85L61.694,68.85z M54.103,69.39v3.746H48.47V69.39H54.103 M54.103,68.85H48.47  c-0.298,0-0.54,0.241-0.54,0.54v3.746c0,0.298,0.242,0.539,0.54,0.539h5.633c0.298,0,0.54-0.241,0.54-0.539V69.39  C54.643,69.091,54.401,68.85,54.103,68.85L54.103,68.85z M46.512,69.39v3.746H40.88V69.39H46.512 M46.512,68.85H40.88  c-0.298,0-0.54,0.241-0.54,0.54v3.746c0,0.298,0.242,0.539,0.54,0.539h5.633c0.298,0,0.54-0.241,0.54-0.539V69.39  C47.052,69.091,46.81,68.85,46.512,68.85L46.512,68.85z M38.922,69.39v3.746h-5.633V69.39H38.922 M38.922,68.85h-5.633  c-0.298,0-0.54,0.241-0.54,0.54v3.746c0,0.298,0.241,0.539,0.54,0.539h5.633c0.297,0,0.54-0.241,0.54-0.539V69.39  C39.462,69.091,39.219,68.85,38.922,68.85L38.922,68.85z M31.331,69.39v3.746h-5.633V69.39H31.331 M31.331,68.85h-5.633  c-0.298,0-0.54,0.241-0.54,0.54v3.746c0,0.298,0.242,0.539,0.54,0.539h5.633c0.298,0,0.541-0.241,0.541-0.539V69.39  C31.872,69.091,31.63,68.85,31.331,68.85L31.331,68.85z M23.741,69.39v3.746h-5.633V69.39H23.741 M23.741,68.85h-5.633  c-0.298,0-0.539,0.241-0.539,0.54v3.746c0,0.298,0.241,0.539,0.539,0.539h5.633c0.298,0,0.54-0.241,0.54-0.539V69.39  C24.281,69.091,24.039,68.85,23.741,68.85L23.741,68.85z M76.874,75.18v3.747h-5.632V75.18H76.874 M76.874,74.64h-5.632  c-0.299,0-0.54,0.242-0.54,0.54v3.747c0,0.298,0.241,0.54,0.54,0.54h5.632c0.299,0,0.54-0.242,0.54-0.54V75.18  C77.414,74.882,77.173,74.64,76.874,74.64L76.874,74.64z M69.284,75.18v3.747h-5.633V75.18H69.284 M69.284,74.64h-5.633  c-0.298,0-0.54,0.242-0.54,0.54v3.747c0,0.298,0.242,0.54,0.54,0.54h5.633c0.298,0,0.539-0.242,0.539-0.54V75.18  C69.823,74.882,69.582,74.64,69.284,74.64L69.284,74.64z M61.694,75.18v3.747h-5.633V75.18H61.694 M61.694,74.64h-5.633  c-0.299,0-0.541,0.242-0.541,0.54v3.747c0,0.298,0.242,0.54,0.541,0.54h5.633c0.297,0,0.539-0.242,0.539-0.54V75.18  C62.233,74.882,61.991,74.64,61.694,74.64L61.694,74.64z M54.103,75.18v3.747H48.47V75.18H54.103 M54.103,74.64H48.47  c-0.298,0-0.54,0.242-0.54,0.54v3.747c0,0.298,0.242,0.54,0.54,0.54h5.633c0.298,0,0.54-0.242,0.54-0.54V75.18  C54.643,74.882,54.401,74.64,54.103,74.64L54.103,74.64z M46.512,75.18v3.747H40.88V75.18H46.512 M46.512,74.64H40.88  c-0.298,0-0.54,0.242-0.54,0.54v3.747c0,0.298,0.242,0.54,0.54,0.54h5.633c0.298,0,0.54-0.242,0.54-0.54V75.18  C47.052,74.882,46.81,74.64,46.512,74.64L46.512,74.64z M38.922,75.18v3.747h-5.633V75.18H38.922 M38.922,74.64h-5.633  c-0.298,0-0.54,0.242-0.54,0.54v3.747c0,0.298,0.241,0.54,0.54,0.54h5.633c0.297,0,0.54-0.242,0.54-0.54V75.18  C39.462,74.882,39.219,74.64,38.922,74.64L38.922,74.64z M31.331,75.18v3.747h-5.633V75.18H31.331 M31.331,74.64h-5.633  c-0.298,0-0.54,0.242-0.54,0.54v3.747c0,0.298,0.242,0.54,0.54,0.54h5.633c0.298,0,0.541-0.242,0.541-0.54V75.18  C31.872,74.882,31.63,74.64,31.331,74.64L31.331,74.64z M23.741,75.18v3.747h-5.633V75.18H23.741 M23.741,74.64h-5.633  c-0.298,0-0.539,0.242-0.539,0.54v3.747c0,0.298,0.241,0.54,0.539,0.54h5.633c0.298,0,0.54-0.242,0.54-0.54V75.18  C24.281,74.882,24.039,74.64,23.741,74.64L23.741,74.64z M76.874,80.971v3.747h-5.632v-3.747H76.874L76.874,80.971 M76.874,80.431  h-5.632c-0.299,0-0.54,0.242-0.54,0.54v3.747c0,0.298,0.241,0.54,0.54,0.54h5.632c0.299,0,0.54-0.242,0.54-0.54v-3.747  C77.414,80.673,77.173,80.431,76.874,80.431L76.874,80.431z M69.284,80.971v3.747h-5.633v-3.747H69.284L69.284,80.971   M69.284,80.431h-5.633c-0.298,0-0.54,0.242-0.54,0.54v3.747c0,0.298,0.242,0.54,0.54,0.54h5.633c0.298,0,0.539-0.242,0.539-0.54  v-3.747C69.823,80.673,69.582,80.431,69.284,80.431L69.284,80.431z M61.694,80.971v3.747h-5.633v-3.747H61.694L61.694,80.971   M61.694,80.431h-5.633c-0.299,0-0.541,0.242-0.541,0.54v3.747c0,0.298,0.242,0.54,0.541,0.54h5.633c0.297,0,0.539-0.242,0.539-0.54  v-3.747C62.233,80.673,61.991,80.431,61.694,80.431L61.694,80.431z M54.103,80.971v3.747H48.47v-3.747H54.103L54.103,80.971   M54.103,80.431H48.47c-0.298,0-0.54,0.242-0.54,0.54v3.747c0,0.298,0.242,0.54,0.54,0.54h5.633c0.298,0,0.54-0.242,0.54-0.54  v-3.747C54.643,80.673,54.401,80.431,54.103,80.431L54.103,80.431z M46.512,80.971v3.747H40.88v-3.747H46.512L46.512,80.971   M46.512,80.431H40.88c-0.298,0-0.54,0.242-0.54,0.54v3.747c0,0.298,0.242,0.54,0.54,0.54h5.633c0.298,0,0.54-0.242,0.54-0.54  v-3.747C47.052,80.673,46.81,80.431,46.512,80.431L46.512,80.431z M38.922,80.971v3.747h-5.633v-3.747H38.922L38.922,80.971   M38.922,80.431h-5.633c-0.298,0-0.54,0.242-0.54,0.54v3.747c0,0.298,0.241,0.54,0.54,0.54h5.633c0.297,0,0.54-0.242,0.54-0.54  v-3.747C39.462,80.673,39.219,80.431,38.922,80.431L38.922,80.431z M31.331,80.971v3.747h-5.633v-3.747H31.331L31.331,80.971   M31.331,80.431h-5.633c-0.298,0-0.54,0.242-0.54,0.54v3.747c0,0.298,0.242,0.54,0.54,0.54h5.633c0.298,0,0.541-0.242,0.541-0.54  v-3.747C31.872,80.673,31.63,80.431,31.331,80.431L31.331,80.431z M23.741,80.971v3.747h-5.633v-3.747H23.741L23.741,80.971   M23.741,80.431h-5.633c-0.298,0-0.539,0.242-0.539,0.54v3.747c0,0.298,0.241,0.54,0.539,0.54h5.633c0.298,0,0.54-0.242,0.54-0.54  v-3.747C24.281,80.673,24.039,80.431,23.741,80.431L23.741,80.431z M83.728,40.435v3.747h-3.939v-3.747H83.728 M83.728,39.895  h-3.939c-0.298,0-0.54,0.242-0.54,0.54v3.747c0,0.298,0.242,0.54,0.54,0.54h3.939c0.297,0,0.539-0.242,0.539-0.54v-3.747  C84.267,40.137,84.025,39.895,83.728,39.895L83.728,39.895z M83.728,46.226v3.747h-3.939v-3.747H83.728 M83.728,45.686h-3.939  c-0.298,0-0.54,0.241-0.54,0.54v3.747c0,0.297,0.242,0.54,0.54,0.54h3.939c0.297,0,0.539-0.243,0.539-0.54v-3.747  C84.267,45.927,84.025,45.686,83.728,45.686L83.728,45.686z M83.728,52.016v3.747h-3.939v-3.747H83.728 M83.728,51.477h-3.939  c-0.298,0-0.54,0.241-0.54,0.539v3.747c0,0.299,0.242,0.541,0.54,0.541h3.939c0.297,0,0.539-0.242,0.539-0.541v-3.747  C84.267,51.718,84.025,51.477,83.728,51.477L83.728,51.477z M83.728,57.807v3.747h-3.939v-3.747H83.728 M83.728,57.268h-3.939  c-0.298,0-0.54,0.242-0.54,0.539v3.747c0,0.299,0.242,0.54,0.54,0.54h3.939c0.297,0,0.539-0.241,0.539-0.54v-3.747  C84.267,57.51,84.025,57.268,83.728,57.268L83.728,57.268z M83.728,63.598v3.746h-3.939v-3.746H83.728 M83.728,63.059h-3.939  c-0.298,0-0.54,0.241-0.54,0.539v3.746c0,0.3,0.242,0.541,0.54,0.541h3.939c0.297,0,0.539-0.241,0.539-0.541v-3.746  C84.267,63.3,84.025,63.059,83.728,63.059L83.728,63.059z M83.728,69.39v3.746h-3.939V69.39H83.728 M83.728,68.85h-3.939  c-0.298,0-0.54,0.241-0.54,0.54v3.746c0,0.298,0.242,0.539,0.54,0.539h3.939c0.297,0,0.539-0.241,0.539-0.539V69.39  C84.267,69.091,84.025,68.85,83.728,68.85L83.728,68.85z M83.728,75.18v3.747h-3.939V75.18H83.728 M83.728,74.64h-3.939  c-0.298,0-0.54,0.242-0.54,0.54v3.747c0,0.298,0.242,0.54,0.54,0.54h3.939c0.297,0,0.539-0.242,0.539-0.54V75.18  C84.267,74.882,84.025,74.64,83.728,74.64L83.728,74.64z M83.728,80.971v3.747h-3.939v-3.747H83.728L83.728,80.971 M83.728,80.431  h-3.939c-0.298,0-0.54,0.242-0.54,0.54v3.747c0,0.298,0.242,0.54,0.54,0.54h3.939c0.297,0,0.539-0.242,0.539-0.54v-3.747  C84.267,80.673,84.025,80.431,83.728,80.431L83.728,80.431z M91.567,76.26c0.044,0,0.088-0.046,0.175-0.137  c0.479-0.494,1.805-1.871,1.805-1.871v-1.668c0-0.299-0.241-0.54-0.54-0.54h-2.879c-0.299,0-0.54,0.241-0.54,0.54v1.668  c0,0,1.298,1.347,1.804,1.871C91.478,76.214,91.523,76.26,91.567,76.26z M91.567,75.527c-0.155-0.161-0.34-0.352-0.527-0.546  l0.528-0.551l0.529,0.547C91.907,75.175,91.72,75.367,91.567,75.527z M90.128,72.584h2.879v1.45  c-0.126,0.131-0.32,0.332-0.534,0.555l-0.712-0.734c-0.001-0.003-0.002-0.003-0.003-0.005c-0.001-0.001-0.003-0.002-0.004-0.004  c-0.005-0.005-0.013-0.009-0.019-0.014c-0.006-0.007-0.013-0.012-0.021-0.017s-0.016-0.009-0.024-0.014  c-0.007-0.004-0.015-0.008-0.022-0.011c-0.009-0.003-0.018-0.005-0.026-0.008c-0.008-0.002-0.015-0.005-0.023-0.007  s-0.019-0.002-0.028-0.003c-0.008-0.001-0.016-0.002-0.022-0.002c-0.01,0-0.02,0.001-0.028,0.003c-0.008,0-0.017,0-0.023,0.002  c-0.009,0.002-0.019,0.006-0.027,0.008c-0.007,0.002-0.016,0.004-0.022,0.008c-0.008,0.003-0.018,0.008-0.025,0.013  c-0.007,0.004-0.016,0.008-0.021,0.011c-0.008,0.006-0.016,0.012-0.022,0.019c-0.006,0.004-0.011,0.008-0.017,0.013  c-0.002,0.001-0.003,0.003-0.004,0.004s-0.003,0.003-0.004,0.004l-0.706,0.738c-0.216-0.225-0.411-0.428-0.538-0.559V72.584z   M91.567,77.547c-0.044,0-0.089,0.046-0.176,0.137c-0.506,0.523-1.804,1.871-1.804,1.871v1.669c0,0.298,0.241,0.54,0.54,0.54h2.879  c0.299,0,0.54-0.242,0.54-0.54v-1.669c0,0-1.326-1.377-1.805-1.871C91.655,77.593,91.611,77.547,91.567,77.547z M91.567,78.279  c0.153,0.159,0.34,0.353,0.53,0.55l-0.529,0.547l-0.528-0.551C91.227,78.631,91.412,78.439,91.567,78.279z M93.007,81.224h-2.879  v-1.451c0.127-0.132,0.322-0.333,0.538-0.559l0.706,0.738c0.001,0.001,0.003,0.002,0.004,0.004c0.001,0.001,0.002,0.002,0.004,0.004  c0.007,0.006,0.014,0.011,0.02,0.017c0.006,0.004,0.013,0.009,0.02,0.014c0.008,0.006,0.019,0.011,0.027,0.016  c0.007,0.003,0.014,0.007,0.02,0.01c0.01,0.004,0.021,0.007,0.033,0.01c0.006,0.002,0.011,0.004,0.017,0.005  c0.018,0.003,0.034,0.005,0.052,0.005c0.017,0,0.035-0.002,0.051-0.005c0.005-0.001,0.012-0.003,0.017-0.005  c0.011-0.002,0.022-0.005,0.033-0.01c0.007-0.003,0.013-0.006,0.019-0.01c0.009-0.004,0.02-0.009,0.028-0.016  c0.006-0.004,0.013-0.008,0.018-0.013c0.007-0.005,0.015-0.011,0.021-0.018c0.001-0.001,0.003-0.002,0.004-0.004  c0.001-0.001,0.002-0.002,0.003-0.003l0.712-0.735c0.214,0.224,0.408,0.424,0.534,0.555V81.224z M90.787,76.728  c-0.494-0.477-1.872-1.803-1.872-1.803h-1.668c-0.298,0-0.54,0.241-0.54,0.539v2.879c0,0.299,0.242,0.541,0.54,0.541h1.668  c0,0,1.348-1.299,1.872-1.806C90.968,76.904,90.968,76.904,90.787,76.728z M88.699,78.343h-1.452v-2.879h1.452  c0.13,0.126,0.33,0.319,0.553,0.534l-0.734,0.712c-0.001,0.001-0.002,0.002-0.003,0.004c-0.002,0.001-0.003,0.002-0.004,0.003  c-0.005,0.005-0.01,0.011-0.014,0.017c-0.006,0.008-0.013,0.015-0.018,0.022c-0.005,0.007-0.009,0.015-0.012,0.021  c-0.005,0.01-0.009,0.018-0.014,0.026c-0.003,0.007-0.005,0.015-0.007,0.022c-0.003,0.01-0.005,0.018-0.006,0.026  c-0.002,0.009-0.003,0.017-0.004,0.026c0,0.008-0.002,0.017-0.002,0.025c0,0.008,0.002,0.017,0.003,0.025s0.001,0.017,0.003,0.026  c0.001,0.008,0.004,0.017,0.007,0.025c0.002,0.008,0.004,0.016,0.007,0.023c0.004,0.009,0.009,0.018,0.014,0.024  c0.003,0.008,0.007,0.016,0.011,0.022c0.007,0.008,0.013,0.015,0.019,0.022c0.004,0.006,0.009,0.012,0.014,0.016  c0.001,0.002,0.002,0.002,0.003,0.005c0.002,0.001,0.003,0.002,0.004,0.004l0.738,0.706C89.031,78.021,88.83,78.216,88.699,78.343z   M89.646,77.429l-0.552-0.526l0.548-0.529c0.196,0.19,0.39,0.376,0.549,0.531C90.031,77.059,89.84,77.243,89.646,77.429z   M95.887,74.925h-1.668c0,0-1.378,1.326-1.872,1.803c-0.182,0.177-0.182,0.177,0,0.351c0.523,0.507,1.872,1.806,1.872,1.806h1.668  c0.298,0,0.539-0.242,0.539-0.541v-2.879C96.427,75.166,96.185,74.925,95.887,74.925z M93.493,76.373l0.547,0.529l-0.551,0.526  c-0.194-0.186-0.386-0.37-0.546-0.524C93.103,76.749,93.296,76.563,93.493,76.373z M95.887,78.343h-1.451  c-0.132-0.127-0.334-0.322-0.559-0.538l0.738-0.706c0.001-0.002,0.002-0.003,0.004-0.004c0-0.003,0.003-0.003,0.004-0.005  c0.005-0.004,0.008-0.01,0.013-0.016c0.006-0.008,0.013-0.015,0.018-0.022c0.005-0.007,0.008-0.015,0.012-0.022  c0.006-0.007,0.011-0.016,0.014-0.024c0.002-0.008,0.004-0.016,0.007-0.023c0.003-0.009,0.005-0.018,0.007-0.025  c0.002-0.01,0.002-0.018,0.004-0.026c0.001-0.009,0.002-0.018,0.002-0.025c0-0.009-0.001-0.018-0.002-0.025  c-0.002-0.01-0.002-0.018-0.004-0.026c-0.001-0.009-0.004-0.017-0.006-0.026c-0.003-0.008-0.005-0.016-0.008-0.022  c-0.003-0.009-0.007-0.017-0.013-0.026c-0.004-0.007-0.007-0.015-0.012-0.021c-0.005-0.008-0.012-0.015-0.018-0.022  c-0.005-0.006-0.008-0.012-0.013-0.017c-0.001-0.001-0.002-0.002-0.005-0.003c-0.001-0.002-0.002-0.003-0.003-0.004l-0.735-0.712  c0.223-0.215,0.423-0.408,0.555-0.534h1.451V78.343z M30.824,25.919h-0.677v1.029h0.677V25.919z M31.685,25.919h-0.678v1.029h0.678  V25.919z M31.685,24.427h-0.678v1.029h0.678V24.427z M31.685,22.933h-0.678v1.029h0.678V22.933z M31.685,27.414h-0.678v1.029h0.678  V27.414z M29.964,25.919h-0.677v1.029h0.677V25.919z M29.104,25.919h-0.678v1.029h0.678V25.919z M28.244,25.919h-0.678v1.029h0.678  V25.919z M27.383,25.919h-0.678v1.029h0.678V25.919z M26.523,25.919h-0.678v1.029h0.678V25.919z M25.662,25.919h-0.677v1.029h0.677  V25.919z M24.802,25.919h-0.678v1.029h0.678V25.919z M23.942,25.919h-0.678v1.029h0.678V25.919z M23.082,25.919h-0.678v1.029h0.678  V25.919z M22.221,25.919h-0.678v1.029h0.678V25.919z M21.361,25.919h-0.677v1.029h0.677V25.919z M20.5,25.919h-0.677v1.029H20.5  V25.919z M19.64,25.919h-0.678v1.029h0.678V25.919z M18.78,25.919h-0.678v1.029h0.678V25.919z M17.92,25.919h-0.678v1.029h0.678  V25.919z M30.824,24.427h-0.677v1.029h0.677V24.427z M29.964,24.427h-0.677v1.029h0.677V24.427z M29.104,24.427h-0.678v1.029h0.678  V24.427z M28.244,24.427h-0.678v1.029h0.678V24.427z M27.383,24.427h-0.678v1.029h0.678V24.427z M26.523,24.427h-0.678v1.029h0.678  V24.427z M25.662,24.427h-0.677v1.029h0.677V24.427z M24.802,24.427h-0.678v1.029h0.678V24.427z M23.942,24.427h-0.678v1.029h0.678  V24.427z M23.082,24.427h-0.678v1.029h0.678V24.427z M22.221,24.427h-0.678v1.029h0.678V24.427z M21.361,24.427h-0.677v1.029h0.677  V24.427z M20.5,24.427h-0.677v1.029H20.5V24.427z M19.64,24.427h-0.678v1.029h0.678V24.427z M18.78,24.427h-0.678v1.029h0.678  V24.427z M17.92,24.427h-0.678v1.029h0.678V24.427z M30.824,27.414h-0.677v1.029h0.677V27.414z M29.964,27.414h-0.677v1.029h0.677  V27.414z M29.104,27.414h-0.678v1.029h0.678V27.414z M28.244,27.414h-0.678v1.029h0.678V27.414z M27.383,27.414h-0.678v1.029h0.678  V27.414z M26.523,27.414h-0.678v1.029h0.678V27.414z M25.662,27.414h-0.677v1.029h0.677V27.414z M24.802,27.414h-0.678v1.029h0.678  V27.414z M23.942,27.414h-0.678v1.029h0.678V27.414z M23.082,27.414h-0.678v1.029h0.678V27.414z M22.221,27.414h-0.678v1.029h0.678  V27.414z M21.361,27.414h-0.677v1.029h0.677V27.414z M20.5,27.414h-0.677v1.029H20.5V27.414z M19.64,27.414h-0.678v1.029h0.678  V27.414z M18.78,27.414h-0.678v1.029h0.678V27.414z M17.92,27.414h-0.678v1.029h0.678V27.414z M30.824,22.933h-0.677v1.029h0.677  V22.933z M29.964,22.933h-0.677v1.029h0.677V22.933z M29.104,22.933h-0.678v1.029h0.678V22.933z M28.244,22.933h-0.678v1.029h0.678  V22.933z M27.383,22.933h-0.678v1.029h0.678V22.933z M26.523,22.933h-0.678v1.029h0.678V22.933z M25.662,22.933h-0.677v1.029h0.677  V22.933z M24.802,22.933h-0.678v1.029h0.678V22.933z M23.942,22.933h-0.678v1.029h0.678V22.933z M23.082,22.933h-0.678v1.029h0.678  V22.933z M22.221,22.933h-0.678v1.029h0.678V22.933z M21.361,22.933h-0.677v1.029h0.677V22.933z M20.5,22.933h-0.677v1.029H20.5  V22.933z M19.64,22.933h-0.678v1.029h0.678V22.933z M18.78,22.933h-0.678v1.029h0.678V22.933z M17.92,22.933h-0.678v1.029h0.678  V22.933z M46.176,25.919h-0.678v1.029h0.678V25.919z M47.036,25.919h-0.678v1.029h0.678V25.919z M47.036,24.427h-0.678v1.029h0.678  V24.427z M47.036,22.933h-0.678v1.029h0.678V22.933z M47.036,27.414h-0.678v1.029h0.678V27.414z M45.316,25.919h-0.678v1.029h0.678  V25.919z M44.455,25.919h-0.678v1.029h0.678V25.919z M43.594,25.919h-0.677v1.029h0.677V25.919z M42.734,25.919h-0.678v1.029h0.678  V25.919z M41.874,25.919h-0.678v1.029h0.678V25.919z M41.014,25.919h-0.678v1.029h0.678V25.919z M40.154,25.919h-0.678v1.029h0.678  V25.919z M39.292,25.919h-0.678v1.029h0.678V25.919z M38.432,25.919h-0.677v1.029h0.677V25.919z M37.572,25.919h-0.678v1.029h0.678  V25.919z M36.712,25.919h-0.678v1.029h0.678V25.919z M35.852,25.919h-0.678v1.029h0.678V25.919z M34.991,25.919h-0.677v1.029h0.677  V25.919z M34.13,25.919h-0.677v1.029h0.677V25.919z M33.27,25.919h-0.678v1.029h0.678V25.919z M46.176,24.427h-0.678v1.029h0.678  V24.427z M45.316,24.427h-0.678v1.029h0.678V24.427z M44.455,24.427h-0.678v1.029h0.678V24.427z M43.594,24.427h-0.677v1.029h0.677  V24.427z M42.734,24.427h-0.678v1.029h0.678V24.427z M41.874,24.427h-0.678v1.029h0.678V24.427z M41.014,24.427h-0.678v1.029h0.678  V24.427z M40.154,24.427h-0.678v1.029h0.678V24.427z M39.292,24.427h-0.678v1.029h0.678V24.427z M38.432,24.427h-0.677v1.029h0.677  V24.427z M37.572,24.427h-0.678v1.029h0.678V24.427z M36.712,24.427h-0.678v1.029h0.678V24.427z M35.852,24.427h-0.678v1.029h0.678  V24.427z M34.991,24.427h-0.677v1.029h0.677V24.427z M34.13,24.427h-0.677v1.029h0.677V24.427z M33.27,24.427h-0.678v1.029h0.678  V24.427z M46.176,27.414h-0.678v1.029h0.678V27.414z M45.316,27.414h-0.678v1.029h0.678V27.414z M44.455,27.414h-0.678v1.029h0.678  V27.414z M43.594,27.414h-0.677v1.029h0.677V27.414z M42.734,27.414h-0.678v1.029h0.678V27.414z M41.874,27.414h-0.678v1.029h0.678  V27.414z M41.014,27.414h-0.678v1.029h0.678V27.414z M40.154,27.414h-0.678v1.029h0.678V27.414z M39.292,27.414h-0.678v1.029h0.678  V27.414z M38.432,27.414h-0.677v1.029h0.677V27.414z M37.572,27.414h-0.678v1.029h0.678V27.414z M36.712,27.414h-0.678v1.029h0.678  V27.414z M35.852,27.414h-0.678v1.029h0.678V27.414z M34.991,27.414h-0.677v1.029h0.677V27.414z M34.13,27.414h-0.677v1.029h0.677  V27.414z M33.27,27.414h-0.678v1.029h0.678V27.414z M46.176,22.933h-0.678v1.029h0.678V22.933z M45.316,22.933h-0.678v1.029h0.678  V22.933z M44.455,22.933h-0.678v1.029h0.678V22.933z M43.594,22.933h-0.677v1.029h0.677V22.933z M42.734,22.933h-0.678v1.029h0.678  V22.933z M41.874,22.933h-0.678v1.029h0.678V22.933z M41.014,22.933h-0.678v1.029h0.678V22.933z M40.154,22.933h-0.678v1.029h0.678  V22.933z M39.292,22.933h-0.678v1.029h0.678V22.933z M38.432,22.933h-0.677v1.029h0.677V22.933z M37.572,22.933h-0.678v1.029h0.678  V22.933z M36.712,22.933h-0.678v1.029h0.678V22.933z M35.852,22.933h-0.678v1.029h0.678V22.933z M34.991,22.933h-0.677v1.029h0.677  V22.933z M34.13,22.933h-0.677v1.029h0.677V22.933z M33.27,22.933h-0.678v1.029h0.678V22.933z M61.526,25.919h-0.678v1.029h0.678  V25.919z M62.385,25.919h-0.677v1.029h0.677V25.919z M62.385,24.427h-0.677v1.029h0.677V24.427z M62.385,22.933h-0.677v1.029h0.677  V22.933z M62.385,27.414h-0.677v1.029h0.677V27.414z M60.666,25.919h-0.678v1.029h0.678V25.919z M59.806,25.919h-0.68v1.029h0.68  V25.919z M58.945,25.919h-0.678v1.029h0.678V25.919z M58.084,25.919h-0.677v1.029h0.677V25.919z M57.224,25.919h-0.678v1.029h0.678  V25.919z M56.364,25.919h-0.678v1.029h0.678V25.919z M55.505,25.919h-0.679v1.029h0.679V25.919z M54.643,25.919h-0.678v1.029h0.678  V25.919z M53.782,25.919h-0.677v1.029h0.677V25.919z M52.923,25.919h-0.678v1.029h0.678V25.919z M52.062,25.919h-0.678v1.029h0.678  V25.919z M51.203,25.919h-0.679v1.029h0.679V25.919z M50.341,25.919h-0.677v1.029h0.677V25.919z M49.481,25.919h-0.677v1.029h0.677  V25.919z M48.621,25.919h-0.678v1.029h0.678V25.919z M61.526,24.427h-0.678v1.029h0.678V24.427z M60.666,24.427h-0.678v1.029h0.678  V24.427z M59.806,24.427h-0.68v1.029h0.68V24.427z M58.945,24.427h-0.678v1.029h0.678V24.427z M58.084,24.427h-0.677v1.029h0.677  V24.427z M57.224,24.427h-0.678v1.029h0.678V24.427z M56.364,24.427h-0.678v1.029h0.678V24.427z M55.505,24.427h-0.679v1.029h0.679  V24.427z M54.643,24.427h-0.678v1.029h0.678V24.427z M53.782,24.427h-0.677v1.029h0.677V24.427z M52.923,24.427h-0.678v1.029h0.678  V24.427z M52.062,24.427h-0.678v1.029h0.678V24.427z M51.203,24.427h-0.679v1.029h0.679V24.427z M50.341,24.427h-0.677v1.029h0.677  V24.427z M49.481,24.427h-0.677v1.029h0.677V24.427z M48.621,24.427h-0.678v1.029h0.678V24.427z M61.526,27.414h-0.678v1.029h0.678  V27.414z M60.666,27.414h-0.678v1.029h0.678V27.414z M59.806,27.414h-0.68v1.029h0.68V27.414z M58.945,27.414h-0.678v1.029h0.678  V27.414z M58.084,27.414h-0.677v1.029h0.677V27.414z M57.224,27.414h-0.678v1.029h0.678V27.414z M56.364,27.414h-0.678v1.029h0.678  V27.414z M55.505,27.414h-0.679v1.029h0.679V27.414z M54.643,27.414h-0.678v1.029h0.678V27.414z M53.782,27.414h-0.677v1.029h0.677  V27.414z M52.923,27.414h-0.678v1.029h0.678V27.414z M52.062,27.414h-0.678v1.029h0.678V27.414z M51.203,27.414h-0.679v1.029h0.679  V27.414z M50.341,27.414h-0.677v1.029h0.677V27.414z M49.481,27.414h-0.677v1.029h0.677V27.414z M48.621,27.414h-0.678v1.029h0.678  V27.414z M61.526,22.933h-0.678v1.029h0.678V22.933z M60.666,22.933h-0.678v1.029h0.678V22.933z M59.806,22.933h-0.68v1.029h0.68  V22.933z M58.945,22.933h-0.678v1.029h0.678V22.933z M58.084,22.933h-0.677v1.029h0.677V22.933z M57.224,22.933h-0.678v1.029h0.678  V22.933z M56.364,22.933h-0.678v1.029h0.678V22.933z M55.505,22.933h-0.679v1.029h0.679V22.933z M54.643,22.933h-0.678v1.029h0.678  V22.933z M53.782,22.933h-0.677v1.029h0.677V22.933z M52.923,22.933h-0.678v1.029h0.678V22.933z M52.062,22.933h-0.678v1.029h0.678  V22.933z M51.203,22.933h-0.679v1.029h0.679V22.933z M50.341,22.933h-0.677v1.029h0.677V22.933z M49.481,22.933h-0.677v1.029h0.677  V22.933z M48.621,22.933h-0.678v1.029h0.678V22.933z M76.877,25.919h-0.678v1.029h0.678V25.919z M77.736,25.919h-0.677v1.029h0.677  V25.919z M77.736,24.427h-0.677v1.029h0.677V24.427z M77.736,22.933h-0.677v1.029h0.677V22.933z M77.736,27.414h-0.677v1.029h0.677  V27.414z M76.016,25.919h-0.678v1.029h0.678V25.919z M75.156,25.919h-0.679v1.029h0.679V25.919z M74.296,25.919h-0.678v1.029h0.678  V25.919z M73.434,25.919h-0.677v1.029h0.677V25.919z M72.575,25.919h-0.678v1.029h0.678V25.919z M71.715,25.919h-0.678v1.029h0.678  V25.919z M70.855,25.919h-0.68v1.029h0.68V25.919z M69.994,25.919h-0.678v1.029h0.678V25.919z M69.133,25.919h-0.677v1.029h0.677  V25.919z M68.273,25.919h-0.678v1.029h0.678V25.919z M67.413,25.919h-0.678v1.029h0.678V25.919z M66.553,25.919h-0.679v1.029h0.679  V25.919z M65.692,25.919h-0.678v1.029h0.678V25.919z M64.831,25.919h-0.677v1.029h0.677V25.919z M63.971,25.919h-0.677v1.029h0.677  V25.919z M76.877,24.427h-0.678v1.029h0.678V24.427z M76.016,24.427h-0.678v1.029h0.678V24.427z M75.156,24.427h-0.679v1.029h0.679  V24.427z M74.296,24.427h-0.678v1.029h0.678V24.427z M73.434,24.427h-0.677v1.029h0.677V24.427z M72.575,24.427h-0.678v1.029h0.678  V24.427z M71.715,24.427h-0.678v1.029h0.678V24.427z M70.855,24.427h-0.68v1.029h0.68V24.427z M69.994,24.427h-0.678v1.029h0.678  V24.427z M69.133,24.427h-0.677v1.029h0.677V24.427z M68.273,24.427h-0.678v1.029h0.678V24.427z M67.413,24.427h-0.678v1.029h0.678  V24.427z M66.553,24.427h-0.679v1.029h0.679V24.427z M65.692,24.427h-0.678v1.029h0.678V24.427z M64.831,24.427h-0.677v1.029h0.677  V24.427z M63.971,24.427h-0.677v1.029h0.677V24.427z M76.877,27.414h-0.678v1.029h0.678V27.414z M76.016,27.414h-0.678v1.029h0.678  V27.414z M75.156,27.414h-0.679v1.029h0.679V27.414z M74.296,27.414h-0.678v1.029h0.678V27.414z M73.434,27.414h-0.677v1.029h0.677  V27.414z M72.575,27.414h-0.678v1.029h0.678V27.414z M71.715,27.414h-0.678v1.029h0.678V27.414z M70.855,27.414h-0.68v1.029h0.68  V27.414z M69.994,27.414h-0.678v1.029h0.678V27.414z M69.133,27.414h-0.677v1.029h0.677V27.414z M68.273,27.414h-0.678v1.029h0.678  V27.414z M67.413,27.414h-0.678v1.029h0.678V27.414z M66.553,27.414h-0.679v1.029h0.679V27.414z M65.692,27.414h-0.678v1.029h0.678  V27.414z M64.831,27.414h-0.677v1.029h0.677V27.414z M63.971,27.414h-0.677v1.029h0.677V27.414z M76.877,22.933h-0.678v1.029h0.678  V22.933z M76.016,22.933h-0.678v1.029h0.678V22.933z M75.156,22.933h-0.679v1.029h0.679V22.933z M74.296,22.933h-0.678v1.029h0.678  V22.933z M73.434,22.933h-0.677v1.029h0.677V22.933z M72.575,22.933h-0.678v1.029h0.678V22.933z M71.715,22.933h-0.678v1.029h0.678  V22.933z M70.855,22.933h-0.68v1.029h0.68V22.933z M69.994,22.933h-0.678v1.029h0.678V22.933z M69.133,22.933h-0.677v1.029h0.677  V22.933z M68.273,22.933h-0.678v1.029h0.678V22.933z M67.413,22.933h-0.678v1.029h0.678V22.933z M66.553,22.933h-0.679v1.029h0.679  V22.933z M65.692,22.933h-0.678v1.029h0.678V22.933z M64.831,22.933h-0.677v1.029h0.677V22.933z M63.971,22.933h-0.677v1.029h0.677  V22.933z M46.512,57.807v2.769l-0.981,0.979H40.88v-3.747H46.512 M46.512,57.268H40.88c-0.298,0-0.54,0.242-0.54,0.539v3.747  c0,0.299,0.242,0.54,0.54,0.54h4.875l1.298-1.294v-2.993C47.052,57.51,46.81,57.268,46.512,57.268L46.512,57.268z M54.103,57.807  v3.747h-4.652l-0.98-0.979v-2.769H54.103 M54.103,57.268H48.47c-0.298,0-0.54,0.242-0.54,0.539V60.8l1.298,1.294h4.875  c0.298,0,0.54-0.241,0.54-0.54v-3.747C54.643,57.51,54.401,57.268,54.103,57.268L54.103,57.268z M45.531,63.598l0.981,0.979v2.768  H40.88v-3.746H45.531 M45.755,63.059H40.88c-0.298,0-0.54,0.241-0.54,0.539v3.746c0,0.3,0.242,0.541,0.54,0.541h5.633  c0.298,0,0.54-0.241,0.54-0.541v-2.991L45.755,63.059L45.755,63.059z M54.103,63.598v3.746H48.47v-2.768l0.98-0.979H54.103   M54.103,63.059h-4.875l-1.298,1.294v2.991c0,0.3,0.242,0.541,0.54,0.541h5.633c0.298,0,0.54-0.241,0.54-0.541v-3.746  C54.643,63.3,54.401,63.059,54.103,63.059L54.103,63.059z M8.454,22.585v3.88H4.514v-3.88H8.454 M8.454,22.045H4.514  c-0.298,0-0.54,0.242-0.54,0.54v3.88c0,0.298,0.242,0.541,0.54,0.541h3.939c0.297,0,0.539-0.242,0.539-0.541v-3.88  C8.993,22.287,8.751,22.045,8.454,22.045L8.454,22.045z M8.454,28.227v2.039H4.514v-2.039H8.454 M8.454,27.687H4.514  c-0.298,0-0.54,0.242-0.54,0.541v2.039c0,0.298,0.242,0.54,0.54,0.54h3.939c0.297,0,0.539-0.242,0.539-0.54v-2.039  C8.993,27.929,8.751,27.687,8.454,27.687L8.454,27.687z"></path></svg>