<svg height='300px' width='300px'  fill="#000000" xmlns="http://www.w3.org/2000/svg" data-name="Layer 1" viewBox="0 0 100 100" x="0px" y="0px"><title>Noun_Project_100Icon_10px_grid</title><g data-name="Midi controller3"><path d="M43.8,53v3.4H40.4V53h3.4m.6-.6H39.8V57h4.6V52.4Z"></path><rect x="9.2" y="40.2" width="16" height="5.4"></rect><rect x="28" y="59" width="6" height="2.4"></rect><rect x="28" y="51.6" width="6" height="2.4"></rect><rect x="28" y="44.2" width="6" height="2.4"></rect><rect x="28" y="36.2" width="6" height="2.4"></rect><path d="M41,47.4V49H40V47.4h1m.6-.6H39.4v2.8h2.2V46.8Z"></path><path d="M44.2,47.4V49h-1V47.4h1m.6-.6H42.6v2.8h2.2V46.8Z"></path><path d="M50.2,53v3.4H46.8V53h3.4m.6-.6H46.2V57h4.6V52.4Z"></path><path d="M56.6,53v3.4H53.2V53h3.4m.6-.6H52.6V57h4.6V52.4Z"></path><path d="M63,53v3.4H59.6V53H63m.6-.6H59V57h4.6V52.4Z"></path><path d="M69.4,53v3.4H66V53h3.4m.6-.6H65.4V57H70V52.4Z"></path><path d="M75.8,53v3.4H72.4V53h3.4m.6-.6H71.8V57h4.6V52.4Z"></path><path d="M82.2,53v3.4H78.8V53h3.4m.6-.6H78.2V57h4.6V52.4Z"></path><path d="M88.6,53v3.4H85.2V53h3.4m.6-.6H84.6V57h4.6V52.4Z"></path><path d="M43.8,60v3.4H40.4V60h3.4m.6-.6H39.8V64h4.6V59.4Z"></path><path d="M50.2,60v3.4H46.8V60h3.4m.6-.6H46.2V64h4.6V59.4Z"></path><path d="M56.6,60v3.4H53.2V60h3.4m.6-.6H52.6V64h4.6V59.4Z"></path><path d="M63,60v3.4H59.6V60H63m.6-.6H59V64h4.6V59.4Z"></path><path d="M69.4,60v3.4H66V60h3.4m.6-.6H65.4V64H70V59.4Z"></path><path d="M75.8,60v3.4H72.4V60h3.4m.6-.6H71.8V64h4.6V59.4Z"></path><path d="M82.2,60v3.4H78.8V60h3.4m.6-.6H78.2V64h4.6V59.4Z"></path><path d="M88.6,60v3.4H85.2V60h3.4m.6-.6H84.6V64h4.6V59.4Z"></path><path d="M11.79,61.81v2h-2v-2h2m.6-.6H9.21v3.18h3.18V61.21Z"></path><path d="M16,61.81v2H14v-2h2m.6-.6H13.41v3.18h3.18V61.21Z"></path><path d="M20.18,61.81v2h-2v-2h2m.6-.6H17.6v3.18h3.18V61.21Z"></path><path d="M24.37,61.81l.39,1-.39,1h-2v-2h2m.41-.6h-3v3.18h3l.62-1.59-.62-1.59Z"></path><path d="M47.4,47.4V49h-1V47.4h1m.6-.6H45.8v2.8H48V46.8Z"></path><path d="M50.6,47.4V49h-1V47.4h1m.6-.6H49v2.8h2.2V46.8Z"></path><path d="M53.8,47.4V49h-1V47.4h1m.6-.6H52.2v2.8h2.2V46.8Z"></path><path d="M57,47.4V49H56V47.4h1m.6-.6H55.4v2.8h2.2V46.8Z"></path><path d="M60.2,47.4V49h-1V47.4h1m.6-.6H58.6v2.8h2.2V46.8Z"></path><path d="M63.4,47.4V49h-1V47.4h1m.6-.6H61.8v2.8H64V46.8Z"></path><path d="M66.6,47.4V49h-1V47.4h1m.6-.6H65v2.8h2.2V46.8Z"></path><path d="M69.8,47.4V49h-1V47.4h1m.6-.6H68.2v2.8h2.2V46.8Z"></path><path d="M73,47.4V49H72V47.4h1m.6-.6H71.4v2.8h2.2V46.8Z"></path><path d="M76.2,47.4V49h-1V47.4h1m.6-.6H74.6v2.8h2.2V46.8Z"></path><path d="M79.4,47.4V49h-1V47.4h1m.6-.6H77.8v2.8H80V46.8Z"></path><path d="M82.6,47.4V49h-1V47.4h1m.6-.6H81v2.8h2.2V46.8Z"></path><path d="M85.8,47.4V49h-1V47.4h1m.6-.6H84.2v2.8h2.2V46.8Z"></path><path d="M89,47.4V49H88V47.4h1m.6-.6H87.4v2.8h2.2V46.8Z"></path><circle cx="42.1" cy="43.1" r="1.5"></circle><circle cx="48.5" cy="43.1" r="1.5"></circle><circle cx="54.9" cy="43.1" r="1.5"></circle><circle cx="61.3" cy="43.1" r="1.5"></circle><circle cx="67.7" cy="43.1" r="1.5"></circle><circle cx="74.1" cy="43.1" r="1.5"></circle><circle cx="80.5" cy="43.1" r="1.5"></circle><circle cx="86.9" cy="43.1" r="1.5"></circle><circle cx="42.1" cy="37.9" r="1.5"></circle><circle cx="48.5" cy="37.9" r="1.5"></circle><circle cx="54.9" cy="37.9" r="1.5"></circle><circle cx="10.7" cy="48.9" r="1.5"></circle><circle cx="17.1" cy="48.9" r="1.5"></circle><circle cx="23.5" cy="48.9" r="1.5"></circle><circle cx="61.3" cy="37.9" r="1.5"></circle><circle cx="67.7" cy="37.9" r="1.5"></circle><circle cx="74.1" cy="37.9" r="1.5"></circle><circle cx="80.5" cy="37.9" r="1.5"></circle><circle cx="86.9" cy="37.9" r="1.5"></circle><path d="M7,33V67H93V33ZM37.2,57.2H26.8V50.4H37.2Zm0-7.4H26.8V43H37.2Zm-10.4,8H37.2v8.6H26.8ZM37.2,42.4H26.8V33.6H37.2ZM7.6,33.6H26.2V66.4H7.6ZM92.4,66.4H37.8V33.6H92.4Z"></path></g></svg>