<svg xmlns="http://www.w3.org/2000/svg" xmlns:xlink="http://www.w3.org/1999/xlink" width="46" height="46" viewBox="0 0 46 46">
  <defs>
    <path id="icon-faderbox-a" d="M44,2 L44,14.6 L44,44 C37.7818681,44 41.6494949,44 38.75,44 L7.25,44 C4.33625,44 9.52140524,44 2,44 L2,2 C7.15447687,2 21.1544769,2 44,2 Z M12,38 L12,42 L4,42 L4,38 L12,38 Z M9,4 L9,7 L12,7 L12,10 L9,10 L9,32 L7,32 L7,10 L4,10 L4,7 L7,7 L7,4 L9,4 Z M12,37 L12,33 L4,33 L4,37 L12,37 Z M22,38 L22,42 L14,42 L14,38 L22,38 Z M19,4 L19,11 L22,11 L22,14 L19,14 L19,32 L17,32 L17,14 L14,14 L14,11 L17,11 L17,4 L19,4 Z M22,37 L22,33 L14,33 L14,37 L22,37 Z M32,38 L32,42 L24,42 L24,38 L32,38 Z M29,4 L29,17 L32,17 L32,20 L29,20 L29,32 L27,32 L27,20 L24,20 L24,17 L27,17 L27,4 L29,4 Z M32,37 L32,33 L24,33 L24,37 L32,37 Z M42,38 L42,42 L34,42 L34,38 L42,38 Z M39,4 L39,23 L42,23 L42,26 L39,26 L39,32 L37,32 L37,26 L34,26 L34,23 L37,23 L37,4 L39,4 Z M42,37 L42,33 L34,33 L34,37 L42,37 Z"/>
    <filter id="icon-faderbox-b" width="190.5%" height="190.5%" x="-45.2%" y="-45.2%" filterUnits="objectBoundingBox">
      <feMorphology in="SourceAlpha" radius="3" result="shadowSpreadInner1"/>
      <feGaussianBlur in="shadowSpreadInner1" result="shadowBlurInner1" stdDeviation="7.5"/>
      <feOffset dx="-15" dy="16" in="shadowBlurInner1" result="shadowOffsetInner1"/>
      <feComposite in="shadowOffsetInner1" in2="SourceAlpha" k2="-1" k3="1" operator="arithmetic" result="shadowInnerInner1"/>
      <feColorMatrix in="shadowInnerInner1" values="0 0 0 0 0   0 0 0 0 0   0 0 0 0 0  0 0 0 0.5 0"/>
    </filter>
  </defs>
  <g fill="none" fill-rule="evenodd">
    <use fill="#000" fill-opacity=".859" xlink:href="#icon-faderbox-a"/>
    <use fill="#000" filter="url(#icon-faderbox-b)" xlink:href="#icon-faderbox-a"/>
    <path stroke="#FFF" stroke-width="2" d="M45,1 L45,45 L44,45 C40.2241776,45 40.2241776,45 40.0606023,45 C39.95085,45 39.95085,45 38.75,45 L7.25,45 C6.55273052,45 6.55273052,45 6.31567028,45 C6.28037445,45 6.28037445,45 6.26185708,45 C6.25529494,45 6.25529494,45 6.25202856,45 C6.25095715,45 6.25095715,45 6.25059733,45 L6.2505643,43 L6.25065416,43 C6.25084409,43 6.25084409,43 6.25118851,43 C6.26688608,43 6.26688608,43 6.30175904,43 C6.32911554,43 6.32911554,43 6.34721528,43 C6.35029384,43 6.35029384,43 6.35207067,43 C6.3526879,43 6.3526879,43 6.35292545,45 L6.35291214,45 C6.35280266,45 6.35280266,45 6.35258696,45 C6.34890878,45 6.34890878,45 6.33713093,45 C6.24373571,45 6.24373571,45 5.92817816,45 C4.8527384,45 4.8527384,45 2,45 L1,45 L1,1 L2,1 C14.1544769,1 14.1544769,1 44,1 L45,1 Z M11,39 L5,39 L5,41 L11,41 L11,39 Z M8,7.5 L8,8 L5,8 L5,9 L8,9 L8,9.5 L8,9 L11,9 L11,8 L8,8 L8,7.5 Z M11,36 L11,34 L5,34 L5,36 L11,36 Z M21,39 L15,39 L15,41 L21,41 L21,39 Z M18,11.5 L18,12 L15,12 L15,13 L18,13 L18,13.5 L18,13 L21,13 L21,12 L18,12 L18,11.5 Z M21,36 L21,34 L15,34 L15,36 L21,36 Z M31,39 L25,39 L25,41 L31,41 L31,39 Z M28,17.5 L28,18 L25,18 L25,19 L28,19 L28,19.5 L28,19 L31,19 L31,18 L28,18 L28,17.5 Z M31,36 L31,34 L25,34 L25,36 L31,36 Z M41,39 L35,39 L35,41 L41,41 L41,39 Z M38,23.5 L38,24 L35,24 L35,25 L38,25 L38,25.5 L38,25 L41,25 L41,24 L38,24 L38,23.5 Z M41,36 L41,34 L35,34 L35,36 L41,36 Z"/>
  </g>
</svg>
