<svg xmlns="http://www.w3.org/2000/svg" xmlns:xlink="http://www.w3.org/1999/xlink" width="46" height="46" viewBox="0 0 46 46">
  <defs>
    <radialGradient id="icon-midiport_blue-b" cx="50%" cy="59.609%" r="133.539%" fx="50%" fy="59.609%" gradientTransform="rotate(-51.471 .54 .577) scale(1 .93598)">
      <stop offset="0%" stop-color="#175CB2" stop-opacity=".3"/>
      <stop offset="87.843%" stop-color="#F8F8F8" stop-opacity=".988"/>
      <stop offset="100%" stop-color="#FDFDFD"/>
    </radialGradient>
    <path id="icon-midiport_blue-a" d="M23,2 C28.5695463,2 33.9109785,4.21249365 37.8492424,8.1507576 C41.7875064,12.0890215 44,17.4304537 44,23 C44,34.5979797 34.5979797,44 23,44 C17.4304537,44 12.0890215,41.7875064 8.1507576,37.8492424 C4.21249365,33.9109785 2,28.5695463 2,23 C2,17.4304537 4.21249365,12.0890215 8.1507576,8.1507576 C12.0890215,4.21249365 17.4304537,2 23,2 M40.178,23 C40.178,14.978 34.655,8.216 27.2,6.347 L27.2,10.4 L18.8,10.4 L18.8,6.347 C11.345,8.216 5.822,14.978 5.822,23 C5.822,32.4871474 13.5128526,40.178 23,40.178 C32.4871474,40.178 40.178,32.4871474 40.178,23 M12.5,20.144 C14.0773252,20.144 15.356,21.4226748 15.356,23 C15.356,24.5773252 14.0773252,25.856 12.5,25.856 C10.925,25.856 9.644,24.575 9.644,23 C9.644,21.425 10.925,20.144 12.5,20.144 M33.5,20.144 C35.0773252,20.144 36.356,21.4226748 36.356,23 C36.356,24.5773252 35.0773252,25.856 33.5,25.856 C31.9226748,25.856 30.644,24.5773252 30.644,23 C30.644,21.4226748 31.9226748,20.144 33.5,20.144 M15.356,27.767 C16.1190278,27.767 16.850804,28.0701116 17.3903462,28.6096538 C17.9298884,29.149196 18.233,29.8809722 18.233,30.644 C18.233,32.219 16.952,33.5 15.356,33.5 C13.7786748,33.5 12.5,32.2213252 12.5,30.644 C12.5,29.048 13.781,27.767 15.356,27.767 M30.644,27.767 C32.219,27.767 33.5,29.048 33.5,30.644 C33.5,32.2213252 32.2213252,33.5 30.644,33.5 C29.048,33.5 27.767,32.219 27.767,30.644 C27.767,29.8809722 28.0701116,29.149196 28.6096538,28.6096538 C29.149196,28.0701116 29.8809722,27.767 30.644,27.767 M23,30.644 C24.5773252,30.644 25.856,31.9226748 25.856,33.5 C25.856,35.0773252 24.5773252,36.356 23,36.356 C21.4226748,36.356 20.144,35.0773252 20.144,33.5 C20.144,31.9226748 21.4226748,30.644 23,30.644 Z"/>
    <filter id="icon-midiport_blue-c" width="190.5%" height="190.5%" x="-45.2%" y="-45.2%" filterUnits="objectBoundingBox">
      <feMorphology in="SourceAlpha" radius="3" result="shadowSpreadInner1"/>
      <feGaussianBlur in="shadowSpreadInner1" result="shadowBlurInner1" stdDeviation="7.5"/>
      <feOffset dx="-15" dy="16" in="shadowBlurInner1" result="shadowOffsetInner1"/>
      <feComposite in="shadowOffsetInner1" in2="SourceAlpha" k2="-1" k3="1" operator="arithmetic" result="shadowInnerInner1"/>
      <feColorMatrix in="shadowInnerInner1" values="0 0 0 0 0   0 0 0 0 0   0 0 0 0 0  0 0 0 0.5 0"/>
    </filter>
  </defs>
  <g fill="none" fill-rule="evenodd">
    <use fill="#099" fill-opacity=".859" xlink:href="#icon-midiport_blue-a"/>
    <use fill="url(#icon-midiport_blue-b)" xlink:href="#icon-midiport_blue-a"/>
    <use fill="#000" filter="url(#icon-midiport_blue-c)" xlink:href="#icon-midiport_blue-a"/>
    <path stroke="#FFF" stroke-width="2" d="M23,1 C28.8347628,1 34.4305489,3.31785049 38.5563492,7.44365081 C42.6821495,11.5694511 45,17.1652372 45,23 C45,35.1502645 35.1502645,45 23,45 C17.1652372,45 11.5694511,42.6821495 7.44365081,38.5563492 C3.31785049,34.4305489 1,28.8347628 1,23 C1,17.1652372 3.31785049,11.5694511 7.44365081,7.44365081 C11.5694511,3.31785049 17.1652372,1 23,1 Z M28.2,7.68241062 L28.2,11.4 L17.8,11.4 L17.8,7.68241062 C11.3328721,9.87023402 6.822,15.9939076 6.822,23 C6.822,31.9348627 14.0651373,39.178 23,39.178 C31.9348627,39.178 39.178,31.9348627 39.178,23 C39.178,15.9939076 34.6671279,9.87023402 28.2,7.68241062 Z M12.5,19.144 C14.62961,19.144 16.356,20.87039 16.356,23 C16.356,25.12961 14.62961,26.856 12.5,26.856 C10.3727153,26.856 8.644,25.1272847 8.644,23 C8.644,20.8727153 10.3727153,19.144 12.5,19.144 Z M33.5,19.144 C35.62961,19.144 37.356,20.87039 37.356,23 C37.356,25.12961 35.62961,26.856 33.5,26.856 C31.37039,26.856 29.644,25.12961 29.644,23 C29.644,20.87039 31.37039,19.144 33.5,19.144 Z M15.356,26.767 C16.3842443,26.767 17.3703745,27.1754685 18.097453,27.902547 C18.8245315,28.6296255 19.233,29.6157557 19.233,30.644 C19.233,32.7756562 17.4999032,34.5 15.356,34.5 C13.22639,34.5 11.5,32.77361 11.5,30.644 C11.5,28.5000968 13.2243438,26.767 15.356,26.767 Z M30.644,26.767 C32.7756562,26.767 34.5,28.5000968 34.5,30.644 C34.5,32.77361 32.77361,34.5 30.644,34.5 C28.5000968,34.5 26.767,32.7756562 26.767,30.644 C26.767,29.6157557 27.1754685,28.6296255 27.902547,27.902547 C28.6296255,27.1754685 29.6157557,26.767 30.644,26.767 Z M23,29.644 C25.12961,29.644 26.856,31.37039 26.856,33.5 C26.856,35.62961 25.12961,37.356 23,37.356 C20.87039,37.356 19.144,35.62961 19.144,33.5 C19.144,31.37039 20.87039,29.644 23,29.644 Z"/>
  </g>
</svg>
