<svg xmlns="http://www.w3.org/2000/svg" xmlns:xlink="http://www.w3.org/1999/xlink" width="46" height="46" viewBox="0 0 46 46">
  <defs>
    <path id="icon-filetree-a" d="M2,2 L16,2 L16,11.3333333 L2,11.3333333 L2,2 M30,18.3333333 L44,18.3333333 L44,27.6666667 L30,27.6666667 L30,18.3333333 M30,34.6666667 L44,34.6666667 L44,44 L30,44 L30,34.6666667 M25.3333333,25.3333333 L11.3333333,25.3333333 L11.3333333,37 L25.3333333,37 L25.3333333,41.6666667 L11.3333333,41.6666667 L6.66666667,41.6666667 L6.66666667,16 L11.3333333,16 L11.3333333,20.6666667 L25.3333333,20.6666667 L25.3333333,25.3333333 Z"/>
    <filter id="icon-filetree-b" width="190.5%" height="190.5%" x="-45.2%" y="-45.2%" filterUnits="objectBoundingBox">
      <feMorphology in="SourceAlpha" radius="3" result="shadowSpreadInner1"/>
      <feGaussianBlur in="shadowSpreadInner1" result="shadowBlurInner1" stdDeviation="7.5"/>
      <feOffset dx="-15" dy="16" in="shadowBlurInner1" result="shadowOffsetInner1"/>
      <feComposite in="shadowOffsetInner1" in2="SourceAlpha" k2="-1" k3="1" operator="arithmetic" result="shadowInnerInner1"/>
      <feColorMatrix in="shadowInnerInner1" values="0 0 0 0 0   0 0 0 0 0   0 0 0 0 0  0 0 0 0.5 0"/>
    </filter>
  </defs>
  <g fill="none" fill-rule="evenodd">
    <use fill="#000" fill-opacity=".859" xlink:href="#icon-filetree-a"/>
    <use fill="#000" filter="url(#icon-filetree-b)" xlink:href="#icon-filetree-a"/>
    <path stroke="#FFF" stroke-width="2" d="M1,1 L17,1 L17,12.3333333 L1,12.3333333 L1,1 Z M29,17.3333333 L45,17.3333333 L45,28.6666667 L29,28.6666667 L29,17.3333333 Z M29,33.6666667 L45,33.6666667 L45,45 L29,45 L29,33.6666667 Z M12.3333333,26.3333333 L12.3333333,36 L26.3333333,36 L26.3333333,42.6666667 L5.66666667,42.6666667 L5.66666667,15 L12.3333333,15 L12.3333333,19.6666667 L26.3333333,19.6666667 L26.3333333,26.3333333 L12.3333333,26.3333333 Z"/>
  </g>
</svg>
