<svg xmlns="http://www.w3.org/2000/svg" xmlns:xlink="http://www.w3.org/1999/xlink" width="46" height="46" viewBox="0 0 46 46">
  <defs>
    <radialGradient id="icon-settings_yellow-b" cx="50%" cy="59.609%" r="135.888%" fx="50%" fy="59.609%" gradientTransform="matrix(.61214 -.76876 .74012 .55702 -.247 .648)">
      <stop offset="0%" stop-color="#C6E700"/>
      <stop offset="87.843%" stop-color="#F8F8F8" stop-opacity=".988"/>
      <stop offset="100%" stop-color="#FDFDFD"/>
    </radialGradient>
    <path id="icon-settings_yellow-a" d="M39.0349377,25.0475 C39.1136877,24.39125 39.1661877,23.70875 39.1661877,23 C39.1661877,22.29125 39.1136877,21.60875 39.0086877,20.9525 L43.4449377,17.4875 C43.8386877,17.1725 43.9436877,16.595 43.7074377,16.14875 L39.5074377,8.8775 C39.2449377,8.405 38.6936877,8.2475 38.2211877,8.405 L32.9974377,10.505 C31.8949377,9.665 30.7399377,8.9825 29.4536877,8.4575 L28.6661877,2.8925 C28.5874377,2.3675 28.1411877,2 27.6161877,2 L19.2161877,2 C18.6911877,2 18.2711877,2.3675 18.1924377,2.8925 L17.4049377,8.4575 C16.1186877,8.9825 14.9374377,9.69125 13.8611877,10.505 L8.63743773,8.405 C8.16493773,8.22125 7.61368773,8.405 7.35118773,8.8775 L3.15118773,16.14875 C2.88868773,16.62125 2.99368773,17.1725 3.41368773,17.4875 L7.84993773,20.9525 C7.74493773,21.60875 7.66618773,22.3175 7.66618773,23 C7.66618773,23.6825 7.71868773,24.39125 7.82368773,25.0475 L3.38743773,28.5125 C2.99368773,28.8275 2.88868773,29.405 3.12493773,29.85125 L7.32493773,37.1225 C7.58743773,37.595 8.13868773,37.7525 8.61118773,37.595 L13.8349377,35.495 C14.9374377,36.335 16.0924377,37.0175 17.3786877,37.5425 L18.1661877,43.1075 C18.2711877,43.6325 18.6911877,44 19.2161877,44 L27.6161877,44 C28.1411877,44 28.5874377,43.6325 28.6399377,43.1075 L29.4274377,37.5425 C30.7136877,37.0175 31.8949377,36.30875 32.9711877,35.495 L38.1949377,37.595 C38.6674377,37.77875 39.2186877,37.595 39.4811877,37.1225 L43.6811877,29.85125 C43.9436877,29.37875 43.8386877,28.8275 43.4186877,28.5125 L39.0349377,25.0475 L39.0349377,25.0475 Z M23.4161877,30.875 C19.0849377,30.875 15.5411877,27.33125 15.5411877,23 C15.5411877,18.66875 19.0849377,15.125 23.4161877,15.125 C27.7474377,15.125 31.2911877,18.66875 31.2911877,23 C31.2911877,27.33125 27.7474377,30.875 23.4161877,30.875 Z"/>
    <filter id="icon-settings_yellow-c" width="193.1%" height="190.5%" x="-46.5%" y="-45.2%" filterUnits="objectBoundingBox">
      <feMorphology in="SourceAlpha" radius="3" result="shadowSpreadInner1"/>
      <feGaussianBlur in="shadowSpreadInner1" result="shadowBlurInner1" stdDeviation="7.5"/>
      <feOffset dx="-15" dy="16" in="shadowBlurInner1" result="shadowOffsetInner1"/>
      <feComposite in="shadowOffsetInner1" in2="SourceAlpha" k2="-1" k3="1" operator="arithmetic" result="shadowInnerInner1"/>
      <feColorMatrix in="shadowInnerInner1" values="0 0 0 0 0   0 0 0 0 0   0 0 0 0 0  0 0 0 0.5 0"/>
    </filter>
  </defs>
  <g fill="none" fill-rule="evenodd">
    <use fill="#C6E700" xlink:href="#icon-settings_yellow-a"/>
    <use fill="url(#icon-settings_yellow-b)" xlink:href="#icon-settings_yellow-a"/>
    <use fill="#000" filter="url(#icon-settings_yellow-c)" xlink:href="#icon-settings_yellow-a"/>
    <path stroke="#FFF" stroke-width="2" d="M40.0879658,24.6052125 L44.0186877,27.7125 C44.8434981,28.3311078 45.0576909,29.4326704 44.547113,30.3514234 L40.355345,37.6081429 C39.8539592,38.5106373 38.7782762,38.8948098 37.8219399,38.5228322 L33.113939,36.6301685 C32.2196353,37.2654457 31.2950428,37.8043188 30.3388368,38.2384165 L29.6349749,43.2070037 C29.5309798,44.2469545 28.6524268,45 27.6161877,45 L19.2161877,45 C18.20945,45 17.3832494,44.2918281 17.1760523,43.2476135 L16.4672938,38.2390536 C15.500042,37.8019958 14.5841946,37.2698661 13.6900135,36.6308488 L8.92741549,38.5436833 C7.99043778,38.8560092 6.94488695,38.4975346 6.45901248,37.6226734 L2.24114981,30.3191377 C1.78098045,29.4499289 1.99231429,28.3479739 2.77188418,27.7244049 L6.75581672,24.6126943 C6.69654337,24.0858306 6.66618773,23.5386194 6.66618773,23 C6.66618773,22.4901758 6.70507472,21.9529116 6.77754554,21.3837492 L2.81368773,18.2875 C1.98887731,17.6688922 1.77468459,16.5673296 2.28526248,15.6485766 L6.47703045,8.39185707 C6.97841621,7.4893627 8.0540993,7.10519017 9.0104356,7.4771678 L13.7184364,9.36983145 C14.612713,8.73457362 15.5372765,8.19571392 16.4934515,7.76162304 L17.2035014,2.74415955 C17.3553496,1.73183803 18.193914,1 19.2161877,1 L27.6161877,1 C28.6364682,1 29.5029505,1.72966933 29.6563232,2.75238649 L30.3650817,7.7609464 C31.3323334,8.19800417 32.2481809,8.73013391 33.142362,9.36915123 L37.90496,7.4563167 C38.8419377,7.1439908 39.8874885,7.50246537 40.373363,8.37732657 L44.5912256,15.6808623 C45.051395,16.5500711 44.8400612,17.6520261 44.0604913,18.2755951 L40.0770074,21.3869553 C40.1365089,21.9111367 40.1661877,22.4488647 40.1661877,23 C40.1661877,23.5260622 40.1394686,24.0552133 40.0879658,24.6052125 Z M23.4161877,29.875 C27.195153,29.875 30.2911877,26.7789653 30.2911877,23 C30.2911877,19.2210347 27.195153,16.125 23.4161877,16.125 C19.6372225,16.125 16.5411877,19.2210347 16.5411877,23 C16.5411877,26.7789653 19.6372225,29.875 23.4161877,29.875 Z"/>
  </g>
</svg>
