<svg xmlns="http://www.w3.org/2000/svg" xmlns:xlink="http://www.w3.org/1999/xlink" width="46" height="46" viewBox="0 0 46 46">
  <defs>
    <radialGradient id="icon-refresh_red-b" cx="50%" cy="59.609%" r="154.904%" fx="50%" fy="59.609%" gradientTransform="matrix(.537 -.6744 .45907 .6911 -.042 .521)">
      <stop offset="0%" stop-color="#B20F14"/>
      <stop offset="87.843%" stop-color="#F8F8F8" stop-opacity=".988"/>
      <stop offset="100%" stop-color="#FDFDFD"/>
    </radialGradient>
    <path id="icon-refresh_red-a" d="M36.3636364,15.6363636 L28.7272727,23.2727273 L34.4545455,23.2727273 C34.4545455,29.5918182 29.3190909,34.7272727 23,34.7272727 C21.0718182,34.7272727 19.2390909,34.25 17.6545455,33.3909091 L14.8672727,36.1781818 C17.2154545,37.6672727 20.0027273,38.5454545 23,38.5454545 C31.4381818,38.5454545 38.2727273,31.7109091 38.2727273,23.2727273 L44,23.2727273 L36.3636364,15.6363636 Z M11.5454545,23.2727273 C11.5454545,16.9536364 16.6809091,11.8181818 23,11.8181818 C24.9281818,11.8181818 26.7609091,12.2954545 28.3454545,13.1545455 L31.1327273,10.3672727 C28.7845455,8.87818182 25.9972727,8 23,8 C14.5618182,8 7.72727273,14.8345455 7.72727273,23.2727273 L2,23.2727273 L9.63636364,30.9090909 L17.2727273,23.2727273 L11.5454545,23.2727273 Z"/>
    <filter id="icon-refresh_red-c" width="203.9%" height="224.4%" x="-52%" y="-62.2%" filterUnits="objectBoundingBox">
      <feMorphology in="SourceAlpha" radius="3" result="shadowSpreadInner1"/>
      <feGaussianBlur in="shadowSpreadInner1" result="shadowBlurInner1" stdDeviation="7.5"/>
      <feOffset dx="-15" dy="16" in="shadowBlurInner1" result="shadowOffsetInner1"/>
      <feComposite in="shadowOffsetInner1" in2="SourceAlpha" k2="-1" k3="1" operator="arithmetic" result="shadowInnerInner1"/>
      <feColorMatrix in="shadowInnerInner1" values="0 0 0 0 0   0 0 0 0 0   0 0 0 0 0  0 0 0 0.5 0"/>
    </filter>
  </defs>
  <g fill="none" fill-rule="evenodd">
    <use fill="#B20F14" fill-opacity=".858" xlink:href="#icon-refresh_red-a"/>
    <use fill="url(#icon-refresh_red-b)" xlink:href="#icon-refresh_red-a"/>
    <use fill="#000" filter="url(#icon-refresh_red-c)" xlink:href="#icon-refresh_red-a"/>
    <path stroke="#FFF" stroke-width="2" d="M39.2425375,24.2727273 C38.7263276,32.7970502 31.6546531,39.5454545 23,39.5454545 C19.8946194,39.5454545 16.9121572,38.6590584 14.3317307,37.0226904 L13.2772473,36.3539936 L17.4751256,32.1561154 L18.1311698,32.511802 C19.5936511,33.3047136 21.2660958,33.7272727 23,33.7272727 C28.4295414,33.7272727 32.902541,29.5718133 33.4071661,24.2727273 L26.3130592,24.2727273 L36.3636364,14.2221501 L46.4142136,24.2727273 L39.2425375,24.2727273 Z M12.5928339,22.2727273 L19.6869408,22.2727273 L9.63636364,32.3233045 L-0.414213562,22.2727273 L6.75746254,22.2727273 C7.27367245,13.7484043 14.3453469,7 23,7 C26.1053806,7 29.0878428,7.88639612 31.6682693,9.52276415 L32.7227527,10.1914609 L28.5248744,14.3893391 L27.8688302,14.0336525 C26.4063489,13.240741 24.7339042,12.8181818 23,12.8181818 C17.5704586,12.8181818 13.097459,16.9736412 12.5928339,22.2727273 Z"/>
  </g>
</svg>
