<svg xmlns="http://www.w3.org/2000/svg" xmlns:xlink="http://www.w3.org/1999/xlink" width="46" height="46" viewBox="0 0 46 46">
  <defs>
    <path id="icon-mpd-a" d="M44,2 L44,14.6 L44,44 C37.7818681,44 41.6494949,44 38.75,44 L7.25,44 C4.33625,44 9.52140524,44 2,44 L2,2 C7.15447687,2 21.1544769,2 44,2 Z M12,12 L12,4 L4,4 L4,12 L12,12 Z M22,12 L22,4 L14,4 L14,12 L22,12 Z M32,12 L32,4 L24,4 L24,12 L32,12 Z M42,12 L42,4 L34,4 L34,12 L42,12 Z M12,22 L12,14 L4,14 L4,22 L12,22 Z M22,22 L22,14 L14,14 L14,22 L22,22 Z M32,22 L32,14 L24,14 L24,22 L32,22 Z M42,22 L42,14 L34,14 L34,22 L42,22 Z M12,32 L12,24 L4,24 L4,32 L12,32 Z M22,32 L22,24 L14,24 L14,32 L22,32 Z M32,32 L32,24 L24,24 L24,32 L32,32 Z M42,32 L42,24 L34,24 L34,32 L42,32 Z M12,42 L12,34 L4,34 L4,42 L12,42 Z M22,42 L22,34 L14,34 L14,42 L22,42 Z M32,42 L32,34 L24,34 L24,42 L32,42 Z M42,42 L42,34 L34,34 L34,42 L42,42 Z"/>
    <filter id="icon-mpd-b" width="190.5%" height="190.5%" x="-45.2%" y="-45.2%" filterUnits="objectBoundingBox">
      <feMorphology in="SourceAlpha" radius="3" result="shadowSpreadInner1"/>
      <feGaussianBlur in="shadowSpreadInner1" result="shadowBlurInner1" stdDeviation="7.5"/>
      <feOffset dx="-15" dy="16" in="shadowBlurInner1" result="shadowOffsetInner1"/>
      <feComposite in="shadowOffsetInner1" in2="SourceAlpha" k2="-1" k3="1" operator="arithmetic" result="shadowInnerInner1"/>
      <feColorMatrix in="shadowInnerInner1" values="0 0 0 0 0   0 0 0 0 0   0 0 0 0 0  0 0 0 0.5 0"/>
    </filter>
  </defs>
  <g fill="none" fill-rule="evenodd">
    <use fill="#000" fill-opacity=".859" xlink:href="#icon-mpd-a"/>
    <use fill="#000" filter="url(#icon-mpd-b)" xlink:href="#icon-mpd-a"/>
    <path stroke="#FFF" stroke-width="2" d="M45,1 L45,45 L44,45 C40.2241776,45 40.2241776,45 40.0606023,45 C39.95085,45 39.95085,45 38.75,45 L7.25,45 C6.55273052,45 6.55273052,45 6.31567028,45 C6.28037445,45 6.28037445,45 6.26185708,45 C6.25529494,45 6.25529494,45 6.25202856,45 C6.25095715,45 6.25095715,45 6.25059733,45 L6.2505643,43 L6.25065416,43 C6.25084409,43 6.25084409,43 6.25118851,43 C6.26688608,43 6.26688608,43 6.30175904,43 C6.32911554,43 6.32911554,43 6.34721528,43 C6.35029384,43 6.35029384,43 6.35207067,43 C6.3526879,43 6.3526879,43 6.35292545,45 L6.35291214,45 C6.35280266,45 6.35280266,45 6.35258696,45 C6.34890878,45 6.34890878,45 6.33713093,45 C6.24373571,45 6.24373571,45 5.92817816,45 C4.8527384,45 4.8527384,45 2,45 L1,45 L1,1 L2,1 C14.1544769,1 14.1544769,1 44,1 L45,1 Z M11,11 L11,5 L5,5 L5,11 L11,11 Z M21,11 L21,5 L15,5 L15,11 L21,11 Z M31,11 L31,5 L25,5 L25,11 L31,11 Z M41,11 L41,5 L35,5 L35,11 L41,11 Z M11,21 L11,15 L5,15 L5,21 L11,21 Z M21,21 L21,15 L15,15 L15,21 L21,21 Z M31,21 L31,15 L25,15 L25,21 L31,21 Z M41,21 L41,15 L35,15 L35,21 L41,21 Z M11,31 L11,25 L5,25 L5,31 L11,31 Z M21,31 L21,25 L15,25 L15,31 L21,31 Z M31,31 L31,25 L25,25 L25,31 L31,31 Z M41,31 L41,25 L35,25 L35,31 L41,31 Z M11,41 L11,35 L5,35 L5,41 L11,41 Z M21,41 L21,35 L15,35 L15,41 L21,41 Z M31,41 L31,35 L25,35 L25,41 L31,41 Z M41,41 L41,35 L35,35 L35,41 L41,41 Z"/>
  </g>
</svg>
