<svg xmlns="http://www.w3.org/2000/svg" xmlns:xlink="http://www.w3.org/1999/xlink" width="46" height="46" viewBox="0 0 46 46">
  <defs>
    <radialGradient id="icon-file-document_blue-b" cx="50%" cy="59.609%" r="154.827%" fx="50%" fy="59.609%" gradientTransform="matrix(.53727 -.67473 .78941 .4023 -.24 .694)">
      <stop offset="0%" stop-color="#175CB2" stop-opacity=".3"/>
      <stop offset="87.843%" stop-color="#F8F8F8" stop-opacity=".988"/>
      <stop offset="100%" stop-color="#FDFDFD"/>
    </radialGradient>
    <path id="icon-file-document_blue-a" d="M24.9,16.7 L36.45,16.7 L24.9,5.15 L24.9,16.7 M10.2,2 L27,2 L39.6,14.6 L39.6,39.8 C39.6,42.1195959 37.7195959,44 35.4,44 L10.2,44 C7.869,44 6,42.11 6,39.8 L6,6.2 C6,3.869 7.869,2 10.2,2 M29.1,35.6 L29.1,31.4 L10.2,31.4 L10.2,35.6 L29.1,35.6 M35.4,27.2 L35.4,23 L10.2,23 L10.2,27.2 L35.4,27.2 Z"/>
    <filter id="icon-file-document_blue-c" width="213.1%" height="190.5%" x="-56.5%" y="-45.2%" filterUnits="objectBoundingBox">
      <feMorphology in="SourceAlpha" radius="3" result="shadowSpreadInner1"/>
      <feGaussianBlur in="shadowSpreadInner1" result="shadowBlurInner1" stdDeviation="7.5"/>
      <feOffset dx="-15" dy="16" in="shadowBlurInner1" result="shadowOffsetInner1"/>
      <feComposite in="shadowOffsetInner1" in2="SourceAlpha" k2="-1" k3="1" operator="arithmetic" result="shadowInnerInner1"/>
      <feColorMatrix in="shadowInnerInner1" values="0 0 0 0 0   0 0 0 0 0   0 0 0 0 0  0 0 0 0.5 0"/>
    </filter>
  </defs>
  <g fill="none" fill-rule="evenodd">
    <use fill="#099" fill-opacity=".859" xlink:href="#icon-file-document_blue-a"/>
    <use fill="url(#icon-file-document_blue-b)" xlink:href="#icon-file-document_blue-a"/>
    <use fill="#000" filter="url(#icon-file-document_blue-c)" xlink:href="#icon-file-document_blue-a"/>
    <path stroke="#FFF" stroke-width="2" d="M25.9,15.7 L34.0357864,15.7 L25.9,7.56421356 L25.9,15.7 Z M10.2,1 L27.4142136,1 L40.6,14.1857864 L40.6,39.8 C40.6,42.6718807 38.2718807,45 35.4,45 L10.2,45 C7.3231819,45 5,42.6687794 5,39.8 L5,6.2 C5,3.31671525 7.31671525,1 10.2,1 Z M28.1,34.6 L28.1,32.4 L11.2,32.4 L11.2,34.6 L28.1,34.6 Z M34.4,26.2 L34.4,24 L11.2,24 L11.2,26.2 L34.4,26.2 Z"/>
  </g>
</svg>
