<svg xmlns="http://www.w3.org/2000/svg" xmlns:xlink="http://www.w3.org/1999/xlink" width="46" height="46" viewBox="0 0 46 46">
  <defs>
    <path id="icon-pad-knobs-a" d="M44,12 L44,18.6 L44,34 C37.7818681,34 41.6494949,34 38.75,34 L7.25,34 C4.33625,34 9.52140524,34 2,34 L2,12 C7.15447687,12 21.1544769,12 44,12 Z M10,22 L10,16 L4,16 L4,22 L10,22 Z M17,22 L17,16 L11,16 L11,22 L17,22 Z M24,22 L24,16 L18,16 L18,22 L24,22 Z M31,22 L31,16 L25,16 L25,22 L31,22 Z M10,29 L10,23 L4,23 L4,29 L10,29 Z M17,29 L17,23 L11,23 L11,29 L17,29 Z M24,29 L24,23 L18,23 L18,29 L24,29 Z M31,23 L31,29 L25,29 L25,23 L31,23 Z M35,24 C36.1045695,24 37,24.8954305 37,26 C37,27.1045695 36.1045695,28 35,28 C33.8954305,28 33,27.1045695 33,26 C33,24.8954305 33.8954305,24 35,24 Z M40,24 C41.1045695,24 42,24.8954305 42,26 C42,27.1045695 41.1045695,28 40,28 C38.8954305,28 38,27.1045695 38,26 C38,24.8954305 38.8954305,24 40,24 Z M35,17 C36.1045695,17 37,17.8954305 37,19 C37,20.1045695 36.1045695,21 35,21 C33.8954305,21 33,20.1045695 33,19 C33,17.8954305 33.8954305,17 35,17 Z M40,17 C41.1045695,17 42,17.8954305 42,19 C42,20.1045695 41.1045695,21 40,21 C38.8954305,21 38,20.1045695 38,19 C38,17.8954305 38.8954305,17 40,17 Z"/>
    <filter id="icon-pad-knobs-b" width="190.5%" height="272.7%" x="-45.2%" y="-86.4%" filterUnits="objectBoundingBox">
      <feMorphology in="SourceAlpha" radius="3" result="shadowSpreadInner1"/>
      <feGaussianBlur in="shadowSpreadInner1" result="shadowBlurInner1" stdDeviation="7.5"/>
      <feOffset dx="-15" dy="16" in="shadowBlurInner1" result="shadowOffsetInner1"/>
      <feComposite in="shadowOffsetInner1" in2="SourceAlpha" k2="-1" k3="1" operator="arithmetic" result="shadowInnerInner1"/>
      <feColorMatrix in="shadowInnerInner1" values="0 0 0 0 0   0 0 0 0 0   0 0 0 0 0  0 0 0 0.5 0"/>
    </filter>
  </defs>
  <g fill="none" fill-rule="evenodd">
    <use fill="#000" fill-opacity=".859" xlink:href="#icon-pad-knobs-a"/>
    <use fill="#000" filter="url(#icon-pad-knobs-b)" xlink:href="#icon-pad-knobs-a"/>
    <path stroke="#FFF" stroke-width="2" d="M45,11 L45,35 L44,35 C40.2241776,35 40.2241776,35 40.0606023,35 C39.95085,35 39.95085,35 38.75,35 L7.25,35 C6.55273052,35 6.55273052,35 6.31567028,35 C6.28037445,35 6.28037445,35 6.26185708,35 C6.25529494,35 6.25529494,35 6.25202856,35 C6.25095715,35 6.25095715,35 6.25059733,35 L6.2505643,33 L6.25065416,33 C6.25084409,33 6.25084409,33 6.25118851,33 C6.26688608,33 6.26688608,33 6.30175904,33 C6.32911554,33 6.32911554,33 6.34721528,33 C6.35029384,33 6.35029384,33 6.35207067,33 C6.3526879,33 6.3526879,33 6.35292545,35 L6.35291214,35 C6.35280266,35 6.35280266,35 6.35258696,35 C6.34890878,35 6.34890878,35 6.33713093,35 C6.24373571,35 6.24373571,35 5.92817816,35 C4.8527384,35 4.8527384,35 2,35 L1,35 L1,11 L2,11 C14.1544769,11 14.1544769,11 44,11 L45,11 Z M9,21 L9,17 L5,17 L5,21 L9,21 Z M16,21 L16,17 L12,17 L12,21 L16,21 Z M23,21 L23,17 L19,17 L19,21 L23,21 Z M30,21 L30,17 L26,17 L26,21 L30,21 Z M9,28 L9,24 L5,24 L5,28 L9,28 Z M16,28 L16,24 L12,24 L12,28 L16,28 Z M23,28 L23,24 L19,24 L19,28 L23,28 Z M30,24 L26,24 L26,28 L30,28 L30,24 Z M35,25 C34.4477153,25 34,25.4477153 34,26 C34,26.5522847 34.4477153,27 35,27 C35.5522847,27 36,26.5522847 36,26 C36,25.4477153 35.5522847,25 35,25 Z M40,25 C39.4477153,25 39,25.4477153 39,26 C39,26.5522847 39.4477153,27 40,27 C40.5522847,27 41,26.5522847 41,26 C41,25.4477153 40.5522847,25 40,25 Z M35,18 C34.4477153,18 34,18.4477153 34,19 C34,19.5522847 34.4477153,20 35,20 C35.5522847,20 36,19.5522847 36,19 C36,18.4477153 35.5522847,18 35,18 Z M40,18 C39.4477153,18 39,18.4477153 39,19 C39,19.5522847 39.4477153,20 40,20 C40.5522847,20 41,19.5522847 41,19 C41,18.4477153 40.5522847,18 40,18 Z"/>
  </g>
</svg>
