<svg xmlns="http://www.w3.org/2000/svg" xmlns:xlink="http://www.w3.org/1999/xlink" width="46" height="46" viewBox="0 0 46 46">
  <defs>
    <path id="icon-knobs-a" d="M44,2 L44,14.6 L44,44 C37.7818681,44 41.6494949,44 38.75,44 L7.25,44 C4.33625,44 9.52140524,44 2,44 L2,2 C7.15447687,2 21.1544769,2 44,2 Z M12,42 L12,38 L4,38 L4,42 L12,42 Z M12,33 L12,37 L4,37 L4,33 L12,33 Z M8,23 C10.209139,23 12,24.790861 12,27 C12,29.209139 10.209139,31 8,31 C5.790861,31 4,29.209139 4,27 C4,24.790861 5.790861,23 8,23 Z M8,13 C10.209139,13 12,14.790861 12,17 C12,19.209139 10.209139,21 8,21 C5.790861,21 4,19.209139 4,17 C4,14.790861 5.790861,13 8,13 Z M8,3 C10.209139,3 12,4.790861 12,7 C12,9.209139 10.209139,11 8,11 C5.790861,11 4,9.209139 4,7 C4,4.790861 5.790861,3 8,3 Z M22,42 L22,38 L14,38 L14,42 L22,42 Z M22,33 L22,37 L14,37 L14,33 L22,33 Z M18,23 C20.209139,23 22,24.790861 22,27 C22,29.209139 20.209139,31 18,31 C15.790861,31 14,29.209139 14,27 C14,24.790861 15.790861,23 18,23 Z M18,13 C20.209139,13 22,14.790861 22,17 C22,19.209139 20.209139,21 18,21 C15.790861,21 14,19.209139 14,17 C14,14.790861 15.790861,13 18,13 Z M18,3 C20.209139,3 22,4.790861 22,7 C22,9.209139 20.209139,11 18,11 C15.790861,11 14,9.209139 14,7 C14,4.790861 15.790861,3 18,3 Z M32,42 L32,38 L24,38 L24,42 L32,42 Z M32,33 L32,37 L24,37 L24,33 L32,33 Z M28,23 C30.209139,23 32,24.790861 32,27 C32,29.209139 30.209139,31 28,31 C25.790861,31 24,29.209139 24,27 C24,24.790861 25.790861,23 28,23 Z M28,13 C30.209139,13 32,14.790861 32,17 C32,19.209139 30.209139,21 28,21 C25.790861,21 24,19.209139 24,17 C24,14.790861 25.790861,13 28,13 Z M28,3 C30.209139,3 32,4.790861 32,7 C32,9.209139 30.209139,11 28,11 C25.790861,11 24,9.209139 24,7 C24,4.790861 25.790861,3 28,3 Z M42,42 L42,38 L34,38 L34,42 L42,42 Z M42,33 L42,37 L34,37 L34,33 L42,33 Z M38,23 C40.209139,23 42,24.790861 42,27 C42,29.209139 40.209139,31 38,31 C35.790861,31 34,29.209139 34,27 C34,24.790861 35.790861,23 38,23 Z M38,13 C40.209139,13 42,14.790861 42,17 C42,19.209139 40.209139,21 38,21 C35.790861,21 34,19.209139 34,17 C34,14.790861 35.790861,13 38,13 Z M38,3 C40.209139,3 42,4.790861 42,7 C42,9.209139 40.209139,11 38,11 C35.790861,11 34,9.209139 34,7 C34,4.790861 35.790861,3 38,3 Z"/>
    <filter id="icon-knobs-b" width="190.5%" height="190.5%" x="-45.2%" y="-45.2%" filterUnits="objectBoundingBox">
      <feMorphology in="SourceAlpha" radius="3" result="shadowSpreadInner1"/>
      <feGaussianBlur in="shadowSpreadInner1" result="shadowBlurInner1" stdDeviation="7.5"/>
      <feOffset dx="-15" dy="16" in="shadowBlurInner1" result="shadowOffsetInner1"/>
      <feComposite in="shadowOffsetInner1" in2="SourceAlpha" k2="-1" k3="1" operator="arithmetic" result="shadowInnerInner1"/>
      <feColorMatrix in="shadowInnerInner1" values="0 0 0 0 0   0 0 0 0 0   0 0 0 0 0  0 0 0 0.5 0"/>
    </filter>
  </defs>
  <g fill="none" fill-rule="evenodd">
    <use fill="#000" fill-opacity=".859" xlink:href="#icon-knobs-a"/>
    <use fill="#000" filter="url(#icon-knobs-b)" xlink:href="#icon-knobs-a"/>
    <path stroke="#FFF" stroke-width="2" d="M45,1 L45,45 L44,45 C40.2241776,45 40.2241776,45 40.0606023,45 C39.95085,45 39.95085,45 38.75,45 L7.25,45 C6.55273052,45 6.55273052,45 6.31567028,45 C6.28037445,45 6.28037445,45 6.26185708,45 C6.25529494,45 6.25529494,45 6.25202856,45 C6.25095715,45 6.25095715,45 6.25059733,45 L6.2505643,43 L6.25065416,43 C6.25084409,43 6.25084409,43 6.25118851,43 C6.26688608,43 6.26688608,43 6.30175904,43 C6.32911554,43 6.32911554,43 6.34721528,43 C6.35029384,43 6.35029384,43 6.35207067,43 C6.3526879,43 6.3526879,43 6.35292545,45 L6.35291214,45 C6.35280266,45 6.35280266,45 6.35258696,45 C6.34890878,45 6.34890878,45 6.33713093,45 C6.24373571,45 6.24373571,45 5.92817816,45 C4.8527384,45 4.8527384,45 2,45 L1,45 L1,1 L2,1 C14.1544769,1 14.1544769,1 44,1 L45,1 Z M11,41 L11,39 L5,39 L5,41 L11,41 Z M11,34 L5,34 L5,36 L11,36 L11,34 Z M8,24 C6.34314575,24 5,25.3431458 5,27 C5,28.6568542 6.34314575,30 8,30 C9.65685425,30 11,28.6568542 11,27 C11,25.3431458 9.65685425,24 8,24 Z M8,14 C6.34314575,14 5,15.3431458 5,17 C5,18.6568542 6.34314575,20 8,20 C9.65685425,20 11,18.6568542 11,17 C11,15.3431458 9.65685425,14 8,14 Z M8,4 C6.34314575,4 5,5.34314575 5,7 C5,8.65685425 6.34314575,10 8,10 C9.65685425,10 11,8.65685425 11,7 C11,5.34314575 9.65685425,4 8,4 Z M21,41 L21,39 L15,39 L15,41 L21,41 Z M21,34 L15,34 L15,36 L21,36 L21,34 Z M18,24 C16.3431458,24 15,25.3431458 15,27 C15,28.6568542 16.3431458,30 18,30 C19.6568542,30 21,28.6568542 21,27 C21,25.3431458 19.6568542,24 18,24 Z M18,14 C16.3431458,14 15,15.3431458 15,17 C15,18.6568542 16.3431458,20 18,20 C19.6568542,20 21,18.6568542 21,17 C21,15.3431458 19.6568542,14 18,14 Z M18,4 C16.3431458,4 15,5.34314575 15,7 C15,8.65685425 16.3431458,10 18,10 C19.6568542,10 21,8.65685425 21,7 C21,5.34314575 19.6568542,4 18,4 Z M31,41 L31,39 L25,39 L25,41 L31,41 Z M31,34 L25,34 L25,36 L31,36 L31,34 Z M28,24 C26.3431458,24 25,25.3431458 25,27 C25,28.6568542 26.3431458,30 28,30 C29.6568542,30 31,28.6568542 31,27 C31,25.3431458 29.6568542,24 28,24 Z M28,14 C26.3431458,14 25,15.3431458 25,17 C25,18.6568542 26.3431458,20 28,20 C29.6568542,20 31,18.6568542 31,17 C31,15.3431458 29.6568542,14 28,14 Z M28,4 C26.3431458,4 25,5.34314575 25,7 C25,8.65685425 26.3431458,10 28,10 C29.6568542,10 31,8.65685425 31,7 C31,5.34314575 29.6568542,4 28,4 Z M41,41 L41,39 L35,39 L35,41 L41,41 Z M41,34 L35,34 L35,36 L41,36 L41,34 Z M38,24 C36.3431458,24 35,25.3431458 35,27 C35,28.6568542 36.3431458,30 38,30 C39.6568542,30 41,28.6568542 41,27 C41,25.3431458 39.6568542,24 38,24 Z M38,14 C36.3431458,14 35,15.3431458 35,17 C35,18.6568542 36.3431458,20 38,20 C39.6568542,20 41,18.6568542 41,17 C41,15.3431458 39.6568542,14 38,14 Z M38,4 C36.3431458,4 35,5.34314575 35,7 C35,8.65685425 36.3431458,10 38,10 C39.6568542,10 41,8.65685425 41,7 C41,5.34314575 39.6568542,4 38,4 Z"/>
  </g>
</svg>
