<svg xmlns="http://www.w3.org/2000/svg" xmlns:xlink="http://www.w3.org/1999/xlink" width="46" height="46" viewBox="0 0 46 46">
  <defs>
    <radialGradient id="icon-usb_green-b" cx="50%" cy="59.609%" r="176.76%" fx="50%" fy="59.609%" gradientTransform="matrix(.4706 -.591 .82585 .29503 -.228 .716)">
      <stop offset="0%" stop-color="#5CB217"/>
      <stop offset="87.843%" stop-color="#F8F8F8" stop-opacity=".988"/>
      <stop offset="100%" stop-color="#FDFDFD"/>
    </radialGradient>
    <path id="icon-usb_green-a" d="M29.2075472,13.8867925 L29.2075472,21.8113208 L31.1886792,21.8113208 L31.1886792,25.7735849 L25.245283,25.7735849 L25.245283,9.9245283 L29.2075472,9.9245283 L23.2641509,2 L17.3207547,9.9245283 L21.2830189,9.9245283 L21.2830189,25.7735849 L15.3396226,25.7735849 L15.3396226,21.6726415 C16.7264151,20.9396226 17.7169811,19.5330189 17.7169811,17.8490566 C17.7169811,15.4320755 15.7556604,13.490566 13.3584906,13.490566 C10.9415094,13.490566 9,15.4320755 9,17.8490566 C9,19.5330189 9.99056604,20.9396226 11.3773585,21.6726415 L11.3773585,25.7735849 C11.3773585,27.961883 13.1513246,29.7358491 15.3396226,29.7358491 L21.2830189,29.7358491 L21.2830189,35.7783019 C19.8764151,36.4915094 18.9056604,37.9575472 18.9056604,39.6415094 C18.9056604,42.0486373 20.8570231,44 23.2641509,44 C25.6712788,44 27.6226415,42.0486373 27.6226415,39.6415094 C27.6226415,37.9575472 26.6518868,36.4915094 25.245283,35.7783019 L25.245283,29.7358491 L31.1886792,29.7358491 C33.3769773,29.7358491 35.1509434,27.961883 35.1509434,25.7735849 L35.1509434,21.8113208 L37.1320755,21.8113208 L37.1320755,13.8867925 L29.2075472,13.8867925 Z"/>
    <filter id="icon-usb_green-c" width="235.1%" height="193.7%" x="-67.5%" y="-48.4%" filterUnits="objectBoundingBox">
      <feMorphology in="SourceAlpha" radius="3" result="shadowSpreadInner1"/>
      <feGaussianBlur in="shadowSpreadInner1" result="shadowBlurInner1" stdDeviation="7.5"/>
      <feOffset dx="-15" dy="16" in="shadowBlurInner1" result="shadowOffsetInner1"/>
      <feComposite in="shadowOffsetInner1" in2="SourceAlpha" k2="-1" k3="1" operator="arithmetic" result="shadowInnerInner1"/>
      <feColorMatrix in="shadowInnerInner1" values="0 0 0 0 0   0 0 0 0 0   0 0 0 0 0  0 0 0 0.5 0"/>
    </filter>
  </defs>
  <g fill="none" fill-rule="evenodd">
    <use fill="#175CB2" xlink:href="#icon-usb_green-a"/>
    <use fill="url(#icon-usb_green-b)" xlink:href="#icon-usb_green-a"/>
    <use fill="#000" filter="url(#icon-usb_green-c)" xlink:href="#icon-usb_green-a"/>
    <path stroke="#FFF" stroke-width="2" d="M36.1509434,22.8113208 L36.1509434,25.7735849 C36.1509434,28.5141677 33.9292621,30.7358491 31.1886792,30.7358491 L26.245283,30.7358491 L26.245283,35.2063821 C27.7059684,36.1804619 28.6226415,37.8330275 28.6226415,39.6415094 C28.6226415,42.6009221 26.2235636,45 23.2641509,45 C20.3047383,45 17.9056604,42.6009221 17.9056604,39.6415094 C17.9056604,37.8330275 18.8223334,36.1804619 20.2830189,35.2063821 L20.2830189,30.7358491 L15.3396226,30.7358491 C12.5990398,30.7358491 10.3773585,28.5141677 10.3773585,25.7735849 L10.3773585,22.2373797 C8.91523633,21.2493809 8,19.6410865 8,17.8490566 C8,14.8797907 10.3892247,12.490566 13.3584906,12.490566 C16.3140965,12.490566 18.7169811,14.8859181 18.7169811,17.8490566 C18.7169811,19.6410865 17.8017448,21.2493809 16.3396226,22.2373797 L16.3396226,24.7735849 L20.2830189,24.7735849 L20.2830189,10.9245283 L15.3207547,10.9245283 L23.2641509,0.333333333 L31.2075472,10.9245283 L26.245283,10.9245283 L26.245283,24.7735849 L30.1886792,24.7735849 L30.1886792,22.8113208 L28.2075472,22.8113208 L28.2075472,12.8867925 L38.1320755,12.8867925 L38.1320755,22.8113208 L36.1509434,22.8113208 Z"/>
  </g>
</svg>
