<svg xmlns="http://www.w3.org/2000/svg" xmlns:xlink="http://www.w3.org/1999/xlink" width="46" height="46" viewBox="0 0 46 46">
  <defs>
    <path id="icon-filelist-a" d="M28.7479156,20.5384993 C33.8974988,20.5384993 38.0171653,24.6581658 38.0171653,29.8077489 C38.0171653,31.6204022 37.502207,33.3300638 36.5958803,34.7513487 L42.9401667,41.1368318 L40.0769985,44 L33.6503188,37.6763119 C32.2290338,38.5620402 30.5399706,39.0769985 28.7479156,39.0769985 C23.5983325,39.0769985 19.478666,34.957332 19.478666,29.8077489 C19.478666,24.6581658 23.5983325,20.5384993 28.7479156,20.5384993 M28.7479156,24.6581658 C25.9038794,24.6581658 23.5983325,26.9637127 23.5983325,29.8077489 C23.5983325,32.6517851 25.9038794,34.957332 28.7479156,34.957332 C31.5919519,34.957332 33.8974988,32.6517851 33.8974988,29.8077489 C33.8974988,26.9637127 31.5919519,24.6581658 28.7479156,24.6581658 M11.239333,26.717999 L11.239333,30.8376655 L15.3589995,30.8376655 C15.6473762,34.0304071 17.0068661,36.8935753 19.0872977,39.0769985 L7.1196665,39.0769985 C4.83325159,39.0769985 3,37.2231486 3,34.957332 L3,6.1196665 C3,3.83325159 4.83325159,2 7.1196665,2 L35.957332,2 C38.232561,2 40.0769985,3.84443752 40.0769985,6.1196665 L40.0769985,22.6601275 C37.7081903,18.911231 33.5267288,16.4188328 28.7479156,16.4188328 C26.1319274,16.4188328 23.6807258,17.1809711 21.6208926,18.478666 L11.239333,18.478666 L11.239333,22.5983325 L17.4188328,22.5983325 C16.6772928,23.8342325 16.0593428,25.2349191 15.7091712,26.717999 L11.239333,26.717999 M31.8376655,14.3589995 L31.8376655,10.239333 L11.239333,10.239333 L11.239333,14.3589995 L31.8376655,14.3589995 Z"/>
    <filter id="icon-filelist-b" width="197.2%" height="192.4%" x="-47.6%" y="-45.2%" filterUnits="objectBoundingBox">
      <feMorphology in="SourceAlpha" radius="3" result="shadowSpreadInner1"/>
      <feGaussianBlur in="shadowSpreadInner1" result="shadowBlurInner1" stdDeviation="7.5"/>
      <feOffset dx="-15" dy="16" in="shadowBlurInner1" result="shadowOffsetInner1"/>
      <feComposite in="shadowOffsetInner1" in2="SourceAlpha" k2="-1" k3="1" operator="arithmetic" result="shadowInnerInner1"/>
      <feColorMatrix in="shadowInnerInner1" values="0 0 0 0 0   0 0 0 0 0   0 0 0 0 0  0 0 0 0.5 0"/>
    </filter>
  </defs>
  <g fill="none" fill-rule="evenodd">
    <use fill="#000" fill-opacity=".859" xlink:href="#icon-filelist-a"/>
    <use fill="#000" filter="url(#icon-filelist-b)" xlink:href="#icon-filelist-a"/>
    <path stroke="#FFF" stroke-width="2" d="M37.8453421,34.5901112 L44.3520956,41.1391164 L40.0826871,45.4085249 L33.4878904,38.919414 C32.0387826,39.6731484 30.4162314,40.0769985 28.7479156,40.0769985 C23.0460478,40.0769985 18.478666,35.5096168 18.478666,29.8077489 C18.478666,24.105881 23.0460478,19.5384993 28.7479156,19.5384993 C34.4497835,19.5384993 39.0171653,24.105881 39.0171653,29.8077489 C39.0171653,31.5017378 38.6093427,33.1426592 37.8453421,34.5901112 Z M28.7479156,25.6581658 C26.4561642,25.6581658 24.5983325,27.5159974 24.5983325,29.8077489 C24.5983325,32.0995004 26.4561642,33.957332 28.7479156,33.957332 C31.0396671,33.957332 32.8974988,32.0995004 32.8974988,29.8077489 C32.8974988,27.5159974 31.0396671,25.6581658 28.7479156,25.6581658 Z M12.239333,27.717999 L12.239333,29.8376655 L16.2727477,29.8376655 L16.3549452,30.7477091 C16.6170549,33.6496378 17.8399825,36.3182935 19.8112732,38.3871728 L21.4213901,40.0769985 L7.1196665,40.0769985 C4.28729499,40.0769985 2,37.781789 2,34.957332 L2,6.1196665 C2,3.28096684 4.28096684,1 7.1196665,1 L35.957332,1 C38.7848458,1 41.0769985,3.29215277 41.0769985,6.1196665 L41.0769985,26.1148073 L39.23162,23.1942953 C36.9766029,19.6254856 33.0577124,17.4188328 28.7479156,17.4188328 C26.3902909,17.4188328 24.1152872,18.0891027 22.1539303,19.3247575 L21.9096311,19.478666 L12.239333,19.478666 L12.239333,21.5983325 L19.1850231,21.5983325 L18.2763257,23.1128283 C17.539751,24.3404528 16.9904153,25.6433021 16.6824108,26.9477917 L16.5005563,27.717999 L12.239333,27.717999 Z M30.8376655,13.3589995 L30.8376655,11.239333 L12.239333,11.239333 L12.239333,13.3589995 L30.8376655,13.3589995 Z"/>
  </g>
</svg>
