<svg xmlns="http://www.w3.org/2000/svg" xmlns:xlink="http://www.w3.org/1999/xlink" width="46" height="46" viewBox="0 0 46 46">
  <defs>
    <path id="icon-pad1-a" d="M44,12 L44,18.6 L44,34 C37.7818681,34 41.6494949,34 38.75,34 L7.25,34 C4.33625,34 9.52140524,34 2,34 L2,12 C7.15447687,12 21.1544769,12 44,12 Z M12,22 L12,14 L4,14 L4,22 L12,22 Z M22,22 L22,14 L14,14 L14,22 L22,22 Z M32,22 L32,14 L24,14 L24,22 L32,22 Z M42,22 L42,14 L34,14 L34,22 L42,22 Z M12,32 L12,24 L4,24 L4,32 L12,32 Z M22,32 L22,24 L14,24 L14,32 L22,32 Z M32,32 L32,24 L24,24 L24,32 L32,32 Z M42,32 L42,24 L34,24 L34,32 L42,32 Z"/>
    <filter id="icon-pad1-b" width="190.5%" height="272.7%" x="-45.2%" y="-86.4%" filterUnits="objectBoundingBox">
      <feMorphology in="SourceAlpha" radius="3" result="shadowSpreadInner1"/>
      <feGaussianBlur in="shadowSpreadInner1" result="shadowBlurInner1" stdDeviation="7.5"/>
      <feOffset dx="-15" dy="16" in="shadowBlurInner1" result="shadowOffsetInner1"/>
      <feComposite in="shadowOffsetInner1" in2="SourceAlpha" k2="-1" k3="1" operator="arithmetic" result="shadowInnerInner1"/>
      <feColorMatrix in="shadowInnerInner1" values="0 0 0 0 0   0 0 0 0 0   0 0 0 0 0  0 0 0 0.5 0"/>
    </filter>
  </defs>
  <g fill="none" fill-rule="evenodd">
    <use fill="#000" fill-opacity=".859" xlink:href="#icon-pad1-a"/>
    <use fill="#000" filter="url(#icon-pad1-b)" xlink:href="#icon-pad1-a"/>
    <path stroke="#FFF" stroke-width="2" d="M45,11 L45,35 L44,35 C40.2241776,35 40.2241776,35 40.0606023,35 C39.95085,35 39.95085,35 38.75,35 L7.25,35 C6.55273052,35 6.55273052,35 6.31567028,35 C6.28037445,35 6.28037445,35 6.26185708,35 C6.25529494,35 6.25529494,35 6.25202856,35 C6.25095715,35 6.25095715,35 6.25059733,35 L6.2505643,33 L6.25065416,33 C6.25084409,33 6.25084409,33 6.25118851,33 C6.26688608,33 6.26688608,33 6.30175904,33 C6.32911554,33 6.32911554,33 6.34721528,33 C6.35029384,33 6.35029384,33 6.35207067,33 C6.3526879,33 6.3526879,33 6.35292545,35 L6.35291214,35 C6.35280266,35 6.35280266,35 6.35258696,35 C6.34890878,35 6.34890878,35 6.33713093,35 C6.24373571,35 6.24373571,35 5.92817816,35 C4.8527384,35 4.8527384,35 2,35 L1,35 L1,11 L2,11 C14.1544769,11 14.1544769,11 44,11 L45,11 Z M11,21 L11,15 L5,15 L5,21 L11,21 Z M21,21 L21,15 L15,15 L15,21 L21,21 Z M31,21 L31,15 L25,15 L25,21 L31,21 Z M41,21 L41,15 L35,15 L35,21 L41,21 Z M11,31 L11,25 L5,25 L5,31 L11,31 Z M21,31 L21,25 L15,25 L15,31 L21,31 Z M31,31 L31,25 L25,25 L25,31 L31,31 Z M41,31 L41,25 L35,25 L35,31 L41,31 Z"/>
  </g>
</svg>
