<svg xmlns="http://www.w3.org/2000/svg" xmlns:xlink="http://www.w3.org/1999/xlink" width="46" height="46" viewBox="0 0 46 46">
  <defs>
    <radialGradient id="icon-delete-b" cx="50%" cy="59.609%" r="133.539%" fx="50%" fy="59.609%" gradientTransform="rotate(-51.471 .54 .577) scale(1 .93598)">
      <stop offset="0%" stop-color="#B20F14"/>
      <stop offset="87.843%" stop-color="#F8F8F8" stop-opacity=".988"/>
      <stop offset="100%" stop-color="#FDFDFD"/>
    </radialGradient>
    <path id="icon-delete-a" d="M23,2 C11.387,2 2,11.387 2,23 C2,34.613 11.387,44 23,44 C34.613,44 44,34.613 44,23 C44,11.387 34.613,2 23,2 Z M33.5,30.539 L30.539,33.5 L23,25.961 L15.461,33.5 L12.5,30.539 L20.039,23 L12.5,15.461 L15.461,12.5 L23,20.039 L30.539,12.5 L33.5,15.461 L25.961,23 L33.5,30.539 Z"/>
    <filter id="icon-delete-c" width="190.5%" height="190.5%" x="-45.2%" y="-45.2%" filterUnits="objectBoundingBox">
      <feMorphology in="SourceAlpha" radius="3" result="shadowSpreadInner1"/>
      <feGaussianBlur in="shadowSpreadInner1" result="shadowBlurInner1" stdDeviation="7.5"/>
      <feOffset dx="-15" dy="16" in="shadowBlurInner1" result="shadowOffsetInner1"/>
      <feComposite in="shadowOffsetInner1" in2="SourceAlpha" k2="-1" k3="1" operator="arithmetic" result="shadowInnerInner1"/>
      <feColorMatrix in="shadowInnerInner1" values="0 0 0 0 0   0 0 0 0 0   0 0 0 0 0  0 0 0 0.5 0"/>
    </filter>
  </defs>
  <g fill="none" fill-rule="evenodd">
    <use fill="#B20F14" fill-opacity=".858" xlink:href="#icon-delete-a"/>
    <use fill="url(#icon-delete-b)" xlink:href="#icon-delete-a"/>
    <use fill="#000" filter="url(#icon-delete-c)" xlink:href="#icon-delete-a"/>
    <path stroke="#FFF" stroke-width="2" d="M23,1 C35.1652847,1 45,10.8347153 45,23 C45,35.1652847 35.1652847,45 23,45 C10.8347153,45 1,35.1652847 1,23 C1,10.8347153 10.8347153,1 23,1 Z M32.0857864,30.539 L24.5467864,23 L32.0857864,15.461 L30.539,13.9142136 L23,21.4532136 L15.461,13.9142136 L13.9142136,15.461 L21.4532136,23 L13.9142136,30.539 L15.461,32.0857864 L23,24.5467864 L30.539,32.0857864 L32.0857864,30.539 Z"/>
  </g>
</svg>
