<svg xmlns="http://www.w3.org/2000/svg" width="46" height="46" viewBox="0 0 46 46">
  <path fill-rule="evenodd" stroke="#FFF" d="M44.5,1.5 L44.5,44.5 L44,44.5 C40.2241776,44.5 40.2241776,44.5 40.0606023,44.5 C39.95085,44.5 39.95085,44.5 38.75,44.5 L7.25,44.5 C6.55273052,44.5 6.55273052,44.5 6.31567028,44.5 C6.28037445,44.5 6.28037445,44.5 6.26185708,44.5 C6.25529494,44.5 6.25529494,44.5 6.25202856,44.5 C6.25095715,44.5 6.25095715,44.5 6.25059733,44.5 L6.2505643,43.5 L6.25065416,43.5 C6.25084409,43.5 6.25084409,43.5 6.25118851,43.5 C6.26688608,43.5 6.26688608,43.5 6.30175904,43.5 C6.32911554,43.5 6.32911554,43.5 6.34721528,43.5 C6.35029384,43.5 6.35029384,43.5 6.35207067,43.5 C6.3526879,43.5 6.3526879,43.5 6.35292545,44.5 L6.35291214,44.5 C6.35280266,44.5 6.35280266,44.5 6.35258696,44.5 C6.34890878,44.5 6.34890878,44.5 6.33713093,44.5 C6.24373571,44.5 6.24373571,44.5 5.92817816,44.5 C4.8527384,44.5 4.8527384,44.5 2,44.5 L1.5,44.5 L1.5,1.5 L2,1.5 C14.1544769,1.5 14.1544769,1.5 44,1.5 L44.5,1.5 Z M10.5,9.5 L10.5,4.5 L5.5,4.5 L5.5,9.5 L10.5,9.5 Z M20.5,9.5 L20.5,4.5 L15.5,4.5 L15.5,9.5 L20.5,9.5 Z M30.5,9.5 L30.5,4.5 L25.5,4.5 L25.5,9.5 L30.5,9.5 Z M40.5,9.5 L40.5,4.5 L35.5,4.5 L35.5,9.5 L40.5,9.5 Z M10.5,19.5 L10.5,14.5 L5.5,14.5 L5.5,19.5 L10.5,19.5 Z M20.5,19.5 L20.5,14.5 L15.5,14.5 L15.5,19.5 L20.5,19.5 Z M30.5,19.5 L30.5,14.5 L25.5,14.5 L25.5,19.5 L30.5,19.5 Z M40.5,19.5 L40.5,14.5 L35.5,14.5 L35.5,19.5 L40.5,19.5 Z M10.5,29.5 L10.5,24.5 L5.5,24.5 L5.5,29.5 L10.5,29.5 Z M20.5,29.5 L20.5,24.5 L15.5,24.5 L15.5,29.5 L20.5,29.5 Z M30.5,29.5 L30.5,24.5 L25.5,24.5 L25.5,29.5 L30.5,29.5 Z M40.5,29.5 L40.5,24.5 L35.5,24.5 L35.5,29.5 L40.5,29.5 Z M10.5,39.5 L10.5,34.5 L5.5,34.5 L5.5,39.5 L10.5,39.5 Z M20.5,39.5 L20.5,34.5 L15.5,34.5 L15.5,39.5 L20.5,39.5 Z M30.5,39.5 L30.5,34.5 L25.5,34.5 L25.5,39.5 L30.5,39.5 Z M40.5,39.5 L40.5,34.5 L35.5,34.5 L35.5,39.5 L40.5,39.5 Z"/>
</svg>
