<svg xmlns="http://www.w3.org/2000/svg" xmlns:xlink="http://www.w3.org/1999/xlink" width="46" height="46" viewBox="0 0 46 46">
  <defs>
    <path id="icon-midi-4x2-a" d="M44,12 L44,18.6 L44,34 C37.7818681,34 41.6494949,34 38.75,34 L7.25,34 C4.33625,34 9.52140524,34 2,34 L2,12 C7.15447687,12 21.1544769,12 44,12 Z M12,22 L12,14 L4,14 L4,22 L12,22 Z M22,22 L22,14 L14,14 L14,22 L22,22 Z M32,22 L32,14 L24,14 L24,22 L32,22 Z M42,22 L42,14 L34,14 L34,22 L42,22 Z M12,32 L12,24 L4,24 L4,32 L12,32 Z M22,32 L22,24 L14,24 L14,32 L22,32 Z M32,32 L32,24 L24,24 L24,32 L32,32 Z M42,32 L42,24 L34,24 L34,32 L42,32 Z"/>
    <filter id="icon-midi-4x2-b" width="185.7%" height="263.6%" x="-42.9%" y="-81.8%" filterUnits="objectBoundingBox">
      <feMorphology in="SourceAlpha" radius="3" result="shadowSpreadInner1"/>
      <feGaussianBlur in="shadowSpreadInner1" result="shadowBlurInner1" stdDeviation="7.5"/>
      <feOffset dx="-15" dy="16" in="shadowBlurInner1" result="shadowOffsetInner1"/>
      <feComposite in="shadowOffsetInner1" in2="SourceAlpha" k2="-1" k3="1" operator="arithmetic" result="shadowInnerInner1"/>
      <feColorMatrix in="shadowInnerInner1" values="0 0 0 0 0   0 0 0 0 0   0 0 0 0 0  0 0 0 0.5 0"/>
    </filter>
  </defs>
  <g fill="none" fill-rule="evenodd">
    <use fill="#000" xlink:href="#icon-midi-4x2-a"/>
    <use fill="#000" filter="url(#icon-midi-4x2-b)" xlink:href="#icon-midi-4x2-a"/>
    <path stroke="#FFF" d="M44.5,11.5 L44.5,34.5 L44,34.5 C40.2241776,34.5 40.2241776,34.5 40.0606023,34.5 C39.95085,34.5 39.95085,34.5 38.75,34.5 L7.25,34.5 C6.55273052,34.5 6.55273052,34.5 6.31567028,34.5 C6.28037445,34.5 6.28037445,34.5 6.26185708,34.5 C6.25529494,34.5 6.25529494,34.5 6.25202856,34.5 C6.25095715,34.5 6.25095715,34.5 6.25059733,34.5 L6.2505643,33.5 L6.25065416,33.5 C6.25084409,33.5 6.25084409,33.5 6.25118851,33.5 C6.26688608,33.5 6.26688608,33.5 6.30175904,33.5 C6.32911554,33.5 6.32911554,33.5 6.34721528,33.5 C6.35029384,33.5 6.35029384,33.5 6.35207067,33.5 C6.3526879,33.5 6.3526879,33.5 6.35292545,34.5 L6.35291214,34.5 C6.35280266,34.5 6.35280266,34.5 6.35258696,34.5 C6.34890878,34.5 6.34890878,34.5 6.33713093,34.5 C6.24373571,34.5 6.24373571,34.5 5.92817816,34.5 C4.8527384,34.5 4.8527384,34.5 2,34.5 L1.5,34.5 L1.5,11.5 L2,11.5 C14.1544769,11.5 14.1544769,11.5 44,11.5 L44.5,11.5 Z M11.5,21.5 L11.5,14.5 L4.5,14.5 L4.5,21.5 L11.5,21.5 Z M21.5,21.5 L21.5,14.5 L14.5,14.5 L14.5,21.5 L21.5,21.5 Z M31.5,21.5 L31.5,14.5 L24.5,14.5 L24.5,21.5 L31.5,21.5 Z M41.5,21.5 L41.5,14.5 L34.5,14.5 L34.5,21.5 L41.5,21.5 Z M11.5,31.5 L11.5,24.5 L4.5,24.5 L4.5,31.5 L11.5,31.5 Z M21.5,31.5 L21.5,24.5 L14.5,24.5 L14.5,31.5 L21.5,31.5 Z M31.5,31.5 L31.5,24.5 L24.5,24.5 L24.5,31.5 L31.5,31.5 Z M41.5,31.5 L41.5,24.5 L34.5,24.5 L34.5,31.5 L41.5,31.5 Z"/>
  </g>
</svg>
