<svg xmlns="http://www.w3.org/2000/svg" xmlns:xlink="http://www.w3.org/1999/xlink" width="46" height="46" viewBox="0 0 46 46">
  <defs>
    <path id="icon-midi-mixer-fader-a" d="M44,2 L44,14.6 L44,44 C37.7818681,44 41.6494949,44 38.75,44 L7.25,44 C4.33625,44 9.52140524,44 2,44 L2,2 C7.15447687,2 21.1544769,2 44,2 Z M12,38 L12,42 L4,42 L4,38 L12,38 Z M9,4 L9,7 L12,7 L12,11 L9,11 L9,32 L7,32 L7,11 L4,11 L4,7 L7,7 L7,4 L9,4 Z M12,37 L12,33 L4,33 L4,37 L12,37 Z M22,38 L22,42 L14,42 L14,38 L22,38 Z M19,4 L19,11 L22,11 L22,15 L19,15 L19,32 L17,32 L17,15 L14,15 L14,11 L17,11 L17,4 L19,4 Z M22,37 L22,33 L14,33 L14,37 L22,37 Z M32,38 L32,42 L24,42 L24,38 L32,38 Z M29,4 L29,17 L32,17 L32,21 L29,21 L29,32 L27,32 L27,21 L24,21 L24,17 L27,17 L27,4 L29,4 Z M32,37 L32,33 L24,33 L24,37 L32,37 Z M42,38 L42,42 L34,42 L34,38 L42,38 Z M39,4 L39,23 L42,23 L42,27 L39,27 L39,32 L37,32 L37,27 L34,27 L34,23 L37,23 L37,4 L39,4 Z M42,37 L42,33 L34,33 L34,37 L42,37 Z"/>
    <filter id="icon-midi-mixer-fader-b" width="185.7%" height="185.7%" x="-42.9%" y="-42.9%" filterUnits="objectBoundingBox">
      <feMorphology in="SourceAlpha" radius="3" result="shadowSpreadInner1"/>
      <feGaussianBlur in="shadowSpreadInner1" result="shadowBlurInner1" stdDeviation="7.5"/>
      <feOffset dx="-15" dy="16" in="shadowBlurInner1" result="shadowOffsetInner1"/>
      <feComposite in="shadowOffsetInner1" in2="SourceAlpha" k2="-1" k3="1" operator="arithmetic" result="shadowInnerInner1"/>
      <feColorMatrix in="shadowInnerInner1" values="0 0 0 0 0   0 0 0 0 0   0 0 0 0 0  0 0 0 0.5 0"/>
    </filter>
  </defs>
  <g fill="none" fill-rule="evenodd">
    <use fill="#000" xlink:href="#icon-midi-mixer-fader-a"/>
    <use fill="#000" filter="url(#icon-midi-mixer-fader-b)" xlink:href="#icon-midi-mixer-fader-a"/>
    <path stroke="#FFF" d="M44.5,1.5 L44.5,44.5 L44,44.5 C40.2241776,44.5 40.2241776,44.5 40.0606023,44.5 C39.95085,44.5 39.95085,44.5 38.75,44.5 L7.25,44.5 C6.55273052,44.5 6.55273052,44.5 6.31567028,44.5 C6.28037445,44.5 6.28037445,44.5 6.26185708,44.5 C6.25529494,44.5 6.25529494,44.5 6.25202856,44.5 C6.25095715,44.5 6.25095715,44.5 6.25059733,44.5 L6.2505643,43.5 L6.25065416,43.5 C6.25084409,43.5 6.25084409,43.5 6.25118851,43.5 C6.26688608,43.5 6.26688608,43.5 6.30175904,43.5 C6.32911554,43.5 6.32911554,43.5 6.34721528,43.5 C6.35029384,43.5 6.35029384,43.5 6.35207067,43.5 C6.3526879,43.5 6.3526879,43.5 6.35292545,44.5 L6.35291214,44.5 C6.35280266,44.5 6.35280266,44.5 6.35258696,44.5 C6.34890878,44.5 6.34890878,44.5 6.33713093,44.5 C6.24373571,44.5 6.24373571,44.5 5.92817816,44.5 C4.8527384,44.5 4.8527384,44.5 2,44.5 L1.5,44.5 L1.5,1.5 L2,1.5 C14.1544769,1.5 14.1544769,1.5 44,1.5 L44.5,1.5 Z M11.5,38.5 L4.5,38.5 L4.5,41.5 L11.5,41.5 L11.5,38.5 Z M8.5,4.5 L7.5,4.5 L7.5,7.5 L4.5,7.5 L4.5,10.5 L7.5,10.5 L7.5,31.5 L8.5,31.5 L8.5,10.5 L11.5,10.5 L11.5,7.5 L8.5,7.5 L8.5,4.5 Z M11.5,36.5 L11.5,33.5 L4.5,33.5 L4.5,36.5 L11.5,36.5 Z M21.5,38.5 L14.5,38.5 L14.5,41.5 L21.5,41.5 L21.5,38.5 Z M18.5,4.5 L17.5,4.5 L17.5,11.5 L14.5,11.5 L14.5,14.5 L17.5,14.5 L17.5,31.5 L18.5,31.5 L18.5,14.5 L21.5,14.5 L21.5,11.5 L18.5,11.5 L18.5,4.5 Z M21.5,36.5 L21.5,33.5 L14.5,33.5 L14.5,36.5 L21.5,36.5 Z M31.5,38.5 L24.5,38.5 L24.5,41.5 L31.5,41.5 L31.5,38.5 Z M28.5,4.5 L27.5,4.5 L27.5,17.5 L24.5,17.5 L24.5,20.5 L27.5,20.5 L27.5,31.5 L28.5,31.5 L28.5,20.5 L31.5,20.5 L31.5,17.5 L28.5,17.5 L28.5,4.5 Z M31.5,36.5 L31.5,33.5 L24.5,33.5 L24.5,36.5 L31.5,36.5 Z M41.5,38.5 L34.5,38.5 L34.5,41.5 L41.5,41.5 L41.5,38.5 Z M38.5,4.5 L37.5,4.5 L37.5,23.5 L34.5,23.5 L34.5,26.5 L37.5,26.5 L37.5,31.5 L38.5,31.5 L38.5,26.5 L41.5,26.5 L41.5,23.5 L38.5,23.5 L38.5,4.5 Z M41.5,36.5 L41.5,33.5 L34.5,33.5 L34.5,36.5 L41.5,36.5 Z"/>
  </g>
</svg>
