<svg xmlns="http://www.w3.org/2000/svg" xmlns:xlink="http://www.w3.org/1999/xlink" width="64" height="64" viewBox="0 0 64 64">
  <defs>
    <path id="mididisplay-logo-inverted-a" d="M39.8492424,10.1507576 C43.7875064,14.0890215 46,19.4304537 46,25 C46,36.5979797 36.5979797,46 25,46 C19.4304537,46 14.0890215,43.7875064 10.1507576,39.8492424 C6.21249365,35.9109785 4,30.5695463 4,25 C4,19.4304537 6.21249365,14.0890215 10.1507576,10.1507576 C14.0890215,6.21249365 19.4304537,4 25,4 C30.5695463,4 35.9109785,6.21249365 39.8492424,10.1507576 Z"/>
  </defs>
  <g fill="none" fill-rule="evenodd">
    <text fill="#000" font-family="BMWGroup-Bold, BMW Group" font-size="10" font-weight="bold" letter-spacing="-.328">
      <tspan x="5" y="61.5">midiDisplay</tspan>
    </text>
    <g transform="translate(7 2)">
      <rect width="51" height="51" x="-.5" y="-.5" stroke="#FFF" rx="25"/>
      <mask id="mididisplay-logo-inverted-b" fill="#fff">
        <use xlink:href="#mididisplay-logo-inverted-a"/>
      </mask>
      <use fill="#FFF" fill-rule="nonzero" stroke="#FFF" stroke-width="4" xlink:href="#mididisplay-logo-inverted-a"/>
      <path fill="#000" fill-rule="nonzero" d="M43,30.25 L43,35 L8,35 L8,30.25 L43,30.25 Z M25.5,16 L25.5,28.6666667 L22.3181818,28.6666667 L22.3181818,16 L25.5,16 Z M36.6363636,16 C37.5149985,16 38.2272727,16.7088825 38.2272727,17.5833333 L38.2272727,27.0833333 C38.2272727,27.9577842 37.5149985,28.6666667 36.6363636,28.6666667 L27.0909091,28.6666667 L27.0909091,20.75 L30.2727273,20.75 L30.2727273,25.5 L35.0454545,25.5 L35.0454545,19.1666667 L27.0909091,19.1666667 L27.0909091,16 L36.6363636,16 Z M43,16 L43,28.6666667 L39.8181818,28.6666667 L39.8181818,16 L43,16 Z M19.1363636,16 C20.0149985,16 20.7272727,16.7088825 20.7272727,17.5833333 L20.7272727,28.6666667 L17.5454545,28.6666667 L17.5454545,19.1666667 L15.9545455,19.1666667 L15.9545455,28.6666667 L12.7727273,28.6666667 L12.7727273,19.1666667 L11.1818182,19.1666667 L11.1818182,28.6666667 L8,28.6666667 L8,16 L19.1363636,16 Z" mask="url(#mididisplay-logo-inverted-b)"/>
    </g>
  </g>
</svg>
