<svg xmlns="http://www.w3.org/2000/svg" xmlns:xlink="http://www.w3.org/1999/xlink" width="64" height="64" viewBox="0 0 64 64">
  <defs>
    <path id="mididisplay_logo-b" d="M43,30.25 L43,35 L8,35 L8,30.25 L43,30.25 Z M25.5,16 L25.5,28.6666667 L22.3181818,28.6666667 L22.3181818,16 L25.5,16 Z M36.6363636,16 C37.5149985,16 38.2272727,16.7088825 38.2272727,17.5833333 L38.2272727,27.0833333 C38.2272727,27.9577842 37.5149985,28.6666667 36.6363636,28.6666667 L27.0909091,28.6666667 L27.0909091,20.75 L30.2727273,20.75 L30.2727273,25.5 L35.0454545,25.5 L35.0454545,19.1666667 L27.0909091,19.1666667 L27.0909091,16 L36.6363636,16 Z M43,16 L43,28.6666667 L39.8181818,28.6666667 L39.8181818,16 L43,16 Z M19.1363636,16 C20.0149985,16 20.7272727,16.7088825 20.7272727,17.5833333 L20.7272727,28.6666667 L17.5454545,28.6666667 L17.5454545,19.1666667 L15.9545455,19.1666667 L15.9545455,28.6666667 L12.7727273,28.6666667 L12.7727273,19.1666667 L11.1818182,19.1666667 L11.1818182,28.6666667 L8,28.6666667 L8,16 L19.1363636,16 Z"/>
    <filter id="mididisplay_logo-a" width="112.9%" height="123.7%" x="-6.4%" y="-6.6%" filterUnits="objectBoundingBox">
      <feMorphology in="SourceAlpha" operator="dilate" radius=".25" result="shadowSpreadOuter1"/>
      <feOffset dy="1" in="shadowSpreadOuter1" result="shadowOffsetOuter1"/>
      <feGaussianBlur in="shadowOffsetOuter1" result="shadowBlurOuter1" stdDeviation=".5"/>
      <feComposite in="shadowBlurOuter1" in2="SourceAlpha" operator="out" result="shadowBlurOuter1"/>
      <feColorMatrix in="shadowBlurOuter1" values="0 0 0 0 0   0 0 0 0 0   0 0 0 0 0  0 0 0 0.412177666 0"/>
    </filter>
  </defs>
  <g fill="none" fill-rule="evenodd">
    <text fill="#000" font-family="BMWGroup-Bold, BMW Group" font-size="10" font-weight="bold" letter-spacing="-.328">
      <tspan x="5" y="61.5">midiDisplay</tspan>
    </text>
    <g transform="translate(7 2)">
      <rect width="51" height="51" x="-.5" y="-.5" stroke="#000" rx="25"/>
      <rect width="46" height="46" x="2" y="2" fill="#000" stroke="#000" stroke-width="2" rx="23"/>
      <g fill-rule="nonzero">
        <use fill="#000" filter="url(#mididisplay_logo-a)" xlink:href="#mididisplay_logo-b"/>
        <use fill="#000" stroke="#FFF" stroke-width=".5" xlink:href="#mididisplay_logo-b"/>
      </g>
    </g>
  </g>
</svg>
