<svg xmlns="http://www.w3.org/2000/svg" width="64" height="64" viewBox="0 0 64 64">
  <g fill="none" fill-rule="evenodd">
    <text fill="#000" font-family="BungeeInline-Regular, Bungee Inline" font-size="11" letter-spacing="1.963">
      <tspan x="2.5" y="62">nethub</tspan>
    </text>
    <g fill-rule="nonzero" transform="translate(7 2)">
      <polyline fill="#000" points="22.318 16 25.5 16 25.5 28.667 22.318 28.667 22.318 16"/>
      <path fill="#000" d="M27.0909091,16 L36.6363636,16 C37.5149985,16 38.2272727,16.7088825 38.2272727,17.5833333 L38.2272727,27.0833333 C38.2272727,27.9577842 37.5149985,28.6666667 36.6363636,28.6666667 L27.0909091,28.6666667 L27.0909091,20.75 L30.2727273,20.75 L30.2727273,25.5 L35.0454545,25.5 L35.0454545,19.1666667 L27.0909091,19.1666667 L27.0909091,16"/>
      <polyline fill="#000" points="39.818 16 43 16 43 28.667 39.818 28.667 39.818 16"/>
      <path fill="#000" d="M8,16 L11.1818182,16 L19.1363636,16 C20.0149985,16 20.7272727,16.7088825 20.7272727,17.5833333 L20.7272727,28.6666667 L17.5454545,28.6666667 L17.5454545,19.1666667 L15.9545455,19.1666667 L15.9545455,28.6666667 L12.7727273,28.6666667 L12.7727273,19.1666667 L11.1818182,19.1666667 L11.1818182,28.6666667 L8,28.6666667 L8,16"/>
      <polygon fill="#000" points="8 30.25 43 30.25 43 35 8 35"/>
      <path stroke="#000" stroke-width="1.5" d="M40.3795725,9.62042751 C44.4584887,13.6993437 46.75,19.2315413 46.75,25 C46.75,37.0121933 37.0121933,46.75 25,46.75 C19.2315413,46.75 13.6993437,44.4584887 9.62042751,40.3795725 C5.54151128,36.3006563 3.25,30.7684587 3.25,25 C3.25,19.2315413 5.54151128,13.6993437 9.62042751,9.62042751 C13.6993437,5.54151128 19.2315413,3.25 25,3.25 C30.7684587,3.25 36.3006563,5.54151128 40.3795725,9.62042751 Z"/>
      <rect width="49" height="49" x=".5" y=".5" stroke="#000" rx="24.5"/>
    </g>
  </g>
</svg>
